solid BaseplateMk1.3
facet normal 0.608761429008721 0.7933533402912348 0.0
  outer loop
    vertex 2.8276517395266767 2.538818289164906 2.6015448488950046
    vertex 3.0810800608306366 2.344355898710174 1.6015448488950053
    vertex 2.8276517395266767 2.538818289164906 1.6015448488950053
  endloop
endfacet
facet normal 0.608761429008721 0.7933533402912348 0.0
  outer loop
    vertex 3.0810800608306366 2.344355898710174 1.6015448488950053
    vertex 2.8276517395266767 2.538818289164906 2.6015448488950046
    vertex 3.0810800608306366 2.344355898710174 2.6015448488950046
  endloop
endfacet
facet normal -0.13052619222005646 -0.9914448613738098 -0.0
  outer loop
    vertex 4.009616710727146 4.586041672050808 2.6015448488950046
    vertex 3.6929101512121054 4.627736881613275 1.6015448488950053
    vertex 4.009616710727146 4.586041672050808 1.6015448488950053
  endloop
endfacet
facet normal -0.13052619222005646 -0.9914448613738098 -0.0
  outer loop
    vertex 3.6929101512121054 4.627736881613275 1.6015448488950053
    vertex 4.009616710727146 4.586041672050808 2.6015448488950046
    vertex 3.6929101512121054 4.627736881613275 2.6015448488950046
  endloop
endfacet
facet normal -0.13052619222005646 0.9914448613738098 0.0
  outer loop
    vertex 3.6929101512121054 2.1804165200874 2.6015448488950046
    vertex 4.009616710727146 2.222111729649868 1.6015448488950053
    vertex 3.6929101512121054 2.1804165200874 1.6015448488950053
  endloop
endfacet
facet normal -0.13052619222005646 0.9914448613738098 0.0
  outer loop
    vertex 4.009616710727146 2.222111729649868 1.6015448488950053
    vertex 3.6929101512121054 2.1804165200874 2.6015448488950046
    vertex 4.009616710727146 2.222111729649868 2.6015448488950046
  endloop
endfacet
facet normal -0.9999999216938663 -0.0003523113760787086 0.00018024692938338835
  outer loop
    vertex 7.410876020256751 4.507911642953406 0.9993274345752836
    vertex 7.410532050540701 5.102659746541737 0.0010868928667323446
    vertex 7.410864127458427 4.507103337302504 0.0010964218937310598
  endloop
endfacet
facet normal -0.9999999216938663 -0.0003523113760787086 0.00018024692938338835
  outer loop
    vertex 7.410532050540701 5.102659746541737 0.0010868928667323446
    vertex 7.410876020256751 4.507911642953406 0.9993274345752836
    vertex 7.410877605720737 5.1032512568840955 0.9993028000283309
  endloop
endfacet
facet normal 0.3826834323650815 0.9238795325112903 0.0
  outer loop
    vertex 3.0810800608306366 2.344355898710174 2.6015448488950046
    vertex 3.3762035916970645 2.222111729649868 1.6015448488950053
    vertex 3.0810800608306366 2.344355898710174 1.6015448488950053
  endloop
endfacet
facet normal 0.3826834323650815 0.9238795325112903 0.0
  outer loop
    vertex 3.3762035916970645 2.222111729649868 1.6015448488950053
    vertex 3.0810800608306366 2.344355898710174 2.6015448488950046
    vertex 3.3762035916970645 2.222111729649868 2.6015448488950046
  endloop
endfacet
facet normal 0.9999999892187424 -0.00013016614832598 -6.796534976557576e-05
  outer loop
    vertex 8.911776589016263 6.004170625041384 0.0009928184153696672
    vertex 8.910875266128384 4.508194709386098 1.0008234859887286
    vertex 8.911736494236468 4.508023974915447 0.0009539080863377837
  endloop
endfacet
facet normal 0.9999999892187424 -0.00013016614832598 -6.796534976557576e-05
  outer loop
    vertex 8.910875266128384 4.508194709386098 1.0008234859887286
    vertex 8.911776589016263 6.004170625041384 0.0009928184153696672
    vertex 8.912043801579847 6.00416083953388 2.601571814073607
  endloop
endfacet
facet normal 0.9999999892187424 -0.00013016614832598 -6.796534976557576e-05
  outer loop
    vertex 8.911000241281894 0.004076735383811284 0.0009524065024308394
    vertex 8.912043801579847 6.00416083953388 2.601571814073607
    vertex 8.911267453845477 0.004066949876307382 2.601531402160668
  endloop
endfacet
facet normal 0.9999999892187424 -0.00013016614832598 -6.796534976557576e-05
  outer loop
    vertex 8.912043801579847 6.00416083953388 2.601571814073607
    vertex 8.911000241281894 0.004076735383811284 0.0009524065024308394
    vertex 8.911012957777123 2.3322140924527313 1.00087258072341
  endloop
endfacet
facet normal 0.9999999892187424 -0.00013016614832598 -6.796534976557576e-05
  outer loop
    vertex 8.911012957777123 2.3322140924527313 1.00087258072341
    vertex 8.911000241281894 0.004076735383811284 0.0009524065024308394
    vertex 8.911012957777123 2.3322140924527313 0.0009524773990090897
  endloop
endfacet
facet normal 0.9999999892187424 -0.00013016614832598 -6.796534976557576e-05
  outer loop
    vertex 8.912043801579847 6.00416083953388 2.601571814073607
    vertex 8.911012957777123 2.3322140924527313 1.00087258072341
    vertex 8.910875266128384 4.508194709386098 1.0008234859887286
  endloop
endfacet
facet normal 0.9914448613738112 -0.13052619222004666 0.0
  outer loop
    vertex 2.5109451800116327 3.7207832603653817 1.6015448488950053
    vertex 2.4692499704491677 3.404076700850338 2.6015448488950046
    vertex 2.4692499704491677 3.404076700850338 1.6015448488950053
  endloop
endfacet
facet normal 0.9914448613738112 -0.13052619222004666 0.0
  outer loop
    vertex 2.4692499704491677 3.404076700850338 2.6015448488950046
    vertex 2.5109451800116327 3.7207832603653817 1.6015448488950053
    vertex 2.5109451800116327 3.7207832603653817 2.6015448488950046
  endloop
endfacet
facet normal -0.9238795325112857 -0.3826834323650921 -0.0
  outer loop
    vertex 4.752630953352266 4.0159067912318065 2.6015448488950046
    vertex 4.8748751224125755 3.7207832603653817 1.6015448488950053
    vertex 4.8748751224125755 3.7207832603653817 2.6015448488950046
  endloop
endfacet
facet normal -0.9238795325112857 -0.3826834323650921 -0.0
  outer loop
    vertex 4.8748751224125755 3.7207832603653817 1.6015448488950053
    vertex 4.752630953352266 4.0159067912318065 2.6015448488950046
    vertex 4.752630953352266 4.0159067912318065 1.6015448488950053
  endloop
endfacet
facet normal -0.9238795325112857 0.3826834323650921 0.0
  outer loop
    vertex 4.874875122412578 3.087370141335294 2.6015448488950046
    vertex 4.752630953352269 2.792246610468869 1.6015448488950053
    vertex 4.752630953352269 2.792246610468869 2.6015448488950046
  endloop
endfacet
facet normal -0.9238795325112857 0.3826834323650921 0.0
  outer loop
    vertex 4.752630953352269 2.792246610468869 1.6015448488950053
    vertex 4.874875122412578 3.087370141335294 2.6015448488950046
    vertex 4.874875122412578 3.087370141335294 1.6015448488950053
  endloop
endfacet
facet normal -0.608761429008721 -0.7933533402912348 -0.0
  outer loop
    vertex 4.558168562897534 4.26933511253577 2.6015448488950046
    vertex 4.304740241593574 4.463797502990501 1.6015448488950053
    vertex 4.558168562897534 4.26933511253577 1.6015448488950053
  endloop
endfacet
facet normal -0.608761429008721 -0.7933533402912348 -0.0
  outer loop
    vertex 4.304740241593574 4.463797502990501 1.6015448488950053
    vertex 4.558168562897534 4.26933511253577 2.6015448488950046
    vertex 4.304740241593574 4.463797502990501 2.6015448488950046
  endloop
endfacet
facet normal -9.481756165211747e-05 2.7333384866921143e-05 -0.9999999951312581
  outer loop
    vertex -0.007239197904675437 6.004173558991533 0.001965829988733712
    vertex 0.7923853646772486 5.103144117024457 0.001720053277771047
    vertex -0.007206495780409122 0.004076735383811284 0.0016632276054955152
  endloop
endfacet
facet normal -9.481756165211747e-05 2.7333384866921143e-05 -0.9999999951312581
  outer loop
    vertex 0.7923853646772486 5.103144117024457 0.001720053277771047
    vertex -0.007239197904675437 6.004173558991533 0.001965829988733712
    vertex 8.911776589016263 6.004170625041384 0.0009928184153696672
  endloop
endfacet
facet normal -9.481756165211747e-05 2.7333384866921143e-05 -0.9999999951312581
  outer loop
    vertex 0.7923853646772486 5.103144117024457 0.001720053277771047
    vertex 8.911776589016263 6.004170625041384 0.0009928184153696672
    vertex 7.410532050540701 5.102659746541737 0.0010868928667323446
  endloop
endfacet
facet normal -9.481756165211747e-05 2.7333384866921143e-05 -0.9999999951312581
  outer loop
    vertex 7.410532050540701 5.102659746541737 0.0010868928667323446
    vertex 8.911776589016263 6.004170625041384 0.0009928184153696672
    vertex 7.410864127458427 4.507103337302504 0.0010964218937310598
  endloop
endfacet
facet normal -9.481756165211747e-05 2.7333384866921143e-05 -0.9999999951312581
  outer loop
    vertex 7.410864127458427 4.507103337302504 0.0010964218937310598
    vertex 8.911776589016263 6.004170625041384 0.0009928184153696672
    vertex 8.911736494236468 4.508023974915447 0.0009539080863377837
  endloop
endfacet
facet normal -9.481756165211747e-05 2.7333384866921143e-05 -0.9999999951312581
  outer loop
    vertex 8.911012957777123 2.3322140924527313 0.0009524773990090897
    vertex 7.413993289598148 0.9100248577422464 0.0010408404703895766
    vertex 7.412001015164357 2.3319573675619867 0.0010948312643084127
  endloop
endfacet
facet normal -9.481756165211747e-05 2.7333384866921143e-05 -0.9999999951312581
  outer loop
    vertex 7.413993289598148 0.9100248577422464 0.0010408404703895766
    vertex 8.911012957777123 2.3322140924527313 0.0009524773990090897
    vertex 8.911000241281894 0.004076735383811284 0.0009524065024308394
  endloop
endfacet
facet normal -9.481756165211747e-05 2.7333384866921143e-05 -0.9999999951312581
  outer loop
    vertex -0.007206495780409122 0.004076735383811284 0.0016632276054955152
    vertex 0.7927621982810636 0.9096359044052024 0.0016742717837964754
    vertex 8.911000241281894 0.004076735383811284 0.0009524065024308394
  endloop
endfacet
facet normal -9.481756165211747e-05 2.7333384866921143e-05 -0.9999999951312581
  outer loop
    vertex 0.7927621982810636 0.9096359044052024 0.0016742717837964754
    vertex -0.007206495780409122 0.004076735383811284 0.0016632276054955152
    vertex 0.7923853646772486 5.103144117024457 0.001720053277771047
  endloop
endfacet
facet normal -9.481756165211747e-05 2.7333384866921143e-05 -0.9999999951312581
  outer loop
    vertex 8.911000241281894 0.004076735383811284 0.0009524065024308394
    vertex 0.7927621982810636 0.9096359044052024 0.0016742717837964754
    vertex 7.413993289598148 0.9100248577422464 0.0010408404703895766
  endloop
endfacet
facet normal 0.9914448613738099 0.13052619222005532 0.0
  outer loop
    vertex 2.4692499704491677 3.404076700850338 1.6015448488950053
    vertex 2.510945180011636 3.087370141335294 2.6015448488950046
    vertex 2.510945180011636 3.087370141335294 1.6015448488950053
  endloop
endfacet
facet normal 0.9914448613738099 0.13052619222005532 0.0
  outer loop
    vertex 2.510945180011636 3.087370141335294 2.6015448488950046
    vertex 2.4692499704491677 3.404076700850338 1.6015448488950053
    vertex 2.4692499704491677 3.404076700850338 2.6015448488950046
  endloop
endfacet
facet normal 0.13052619222005532 -0.9914448613738099 0.0
  outer loop
    vertex 3.6929101512121054 4.627736881613275 2.6015448488950046
    vertex 3.376203591697062 4.586041672050808 1.6015448488950053
    vertex 3.6929101512121054 4.627736881613275 1.6015448488950053
  endloop
endfacet
facet normal 0.13052619222005532 -0.9914448613738099 0.0
  outer loop
    vertex 3.376203591697062 4.586041672050808 1.6015448488950053
    vertex 3.6929101512121054 4.627736881613275 2.6015448488950046
    vertex 3.376203591697062 4.586041672050808 2.6015448488950046
  endloop
endfacet
facet normal -3.929218693202078e-05 -0.9999997285875026 0.0007357180472914877
  outer loop
    vertex 7.410877605720737 5.1032512568840955 0.9993028000283309
    vertex 0.7923853646772486 5.103144117024457 0.001720053277771047
    vertex 7.410532050540701 5.102659746541737 0.0010868928667323446
  endloop
endfacet
facet normal -3.929218693202078e-05 -0.9999997285875026 0.0007357180472914877
  outer loop
    vertex 0.7923853646772486 5.103144117024457 0.001720053277771047
    vertex 7.410877605720737 5.1032512568840955 0.9993028000283309
    vertex 6.465354317034975 5.104035675098932 1.001252491309366
  endloop
endfacet
facet normal -3.929218693202078e-05 -0.9999997285875026 0.0007357180472914877
  outer loop
    vertex 0.7923853646772486 5.103144117024457 0.001720053277771047
    vertex 6.465354317034975 5.104035675098932 1.001252491309366
    vertex 0.7928045570341761 5.104076083908211 1.6012666180956427
  endloop
endfacet
facet normal -3.929218693202078e-05 -0.9999997285875026 0.0007357180472914877
  outer loop
    vertex 0.7928045570341761 5.104076083908211 1.6012666180956427
    vertex 6.465354317034975 5.104035675098932 1.001252491309366
    vertex 6.465307323349936 5.104076748535554 1.6012524951544795
  endloop
endfacet
facet normal 3.5711907836881805e-07 0.9999999985003842 5.4764075201944545e-05
  outer loop
    vertex -0.007239197904675437 6.004173558991533 0.001965829988733712
    vertex 8.912043801579847 6.00416083953388 2.601571814073607
    vertex 8.911776589016263 6.004170625041384 0.0009928184153696672
  endloop
endfacet
facet normal 3.5711907836881805e-07 0.9999999985003842 5.4764075201944545e-05
  outer loop
    vertex 8.912043801579847 6.00416083953388 2.601571814073607
    vertex -0.007239197904675437 6.004173558991533 0.001965829988733712
    vertex -0.007194710876777849 6.004031154900329 2.601965857332237
  endloop
endfacet
facet normal 1.3758552081364561e-05 -5.2203426898265695e-05 0.9999999985427523
  outer loop
    vertex -0.007194710876777849 0.0040311640571438125 2.601663254948998
    vertex 2.8276517395266767 2.538818289164906 2.6015448488950046
    vertex -0.007194710876777849 6.004031154900329 2.601965857332237
  endloop
endfacet
facet normal 1.3758552081364561e-05 -5.2203426898265695e-05 0.9999999985427523
  outer loop
    vertex 2.8276517395266767 2.538818289164906 2.6015448488950046
    vertex -0.007194710876777849 0.0040311640571438125 2.601663254948998
    vertex 3.0810800608306366 2.344355898710174 2.6015448488950046
  endloop
endfacet
facet normal 1.3758552081364561e-05 -5.2203426898265695e-05 0.9999999985427523
  outer loop
    vertex 3.0810800608306366 2.344355898710174 2.6015448488950046
    vertex -0.007194710876777849 0.0040311640571438125 2.601663254948998
    vertex 3.3762035916970645 2.222111729649868 2.6015448488950046
  endloop
endfacet
facet normal 1.3758552081364561e-05 -5.2203426898265695e-05 0.9999999985427523
  outer loop
    vertex 3.3762035916970645 2.222111729649868 2.6015448488950046
    vertex -0.007194710876777849 0.0040311640571438125 2.601663254948998
    vertex 8.911267453845477 0.004066949876307382 2.601531402160668
  endloop
endfacet
facet normal 1.3758552081364561e-05 -5.2203426898265695e-05 0.9999999985427523
  outer loop
    vertex -0.007194710876777849 6.004031154900329 2.601965857332237
    vertex 2.8276517395266767 2.538818289164906 2.6015448488950046
    vertex 2.6331893490719445 2.792246610468869 2.6015448488950046
  endloop
endfacet
facet normal 1.3758552081364561e-05 -5.2203426898265695e-05 0.9999999985427523
  outer loop
    vertex -0.007194710876777849 6.004031154900329 2.601965857332237
    vertex 2.6331893490719445 2.792246610468869 2.6015448488950046
    vertex 2.510945180011636 3.087370141335294 2.6015448488950046
  endloop
endfacet
facet normal 1.3758552081364561e-05 -5.2203426898265695e-05 0.9999999985427523
  outer loop
    vertex -0.007194710876777849 6.004031154900329 2.601965857332237
    vertex 2.510945180011636 3.087370141335294 2.6015448488950046
    vertex 2.4692499704491677 3.404076700850338 2.6015448488950046
  endloop
endfacet
facet normal 1.3758552081364561e-05 -5.2203426898265695e-05 0.9999999985427523
  outer loop
    vertex 3.3762035916970645 2.222111729649868 2.6015448488950046
    vertex 8.911267453845477 0.004066949876307382 2.601531402160668
    vertex 3.6929101512121054 2.1804165200874 2.6015448488950046
  endloop
endfacet
facet normal 1.3758552081364561e-05 -5.2203426898265695e-05 0.9999999985427523
  outer loop
    vertex 3.6929101512121054 2.1804165200874 2.6015448488950046
    vertex 8.911267453845477 0.004066949876307382 2.601531402160668
    vertex 4.009616710727146 2.222111729649868 2.6015448488950046
  endloop
endfacet
facet normal 1.3758552081364561e-05 -5.2203426898265695e-05 0.9999999985427523
  outer loop
    vertex 4.009616710727146 2.222111729649868 2.6015448488950046
    vertex 8.911267453845477 0.004066949876307382 2.601531402160668
    vertex 4.304740241593574 2.344355898710174 2.6015448488950046
  endloop
endfacet
facet normal 1.3758552081364561e-05 -5.2203426898265695e-05 0.9999999985427523
  outer loop
    vertex 4.304740241593574 2.344355898710174 2.6015448488950046
    vertex 8.911267453845477 0.004066949876307382 2.601531402160668
    vertex 4.558168562897534 2.538818289164906 2.6015448488950046
  endloop
endfacet
facet normal 1.3758552081364561e-05 -5.2203426898265695e-05 0.9999999985427523
  outer loop
    vertex 4.558168562897534 2.538818289164906 2.6015448488950046
    vertex 8.911267453845477 0.004066949876307382 2.601531402160668
    vertex 4.752630953352269 2.792246610468869 2.6015448488950046
  endloop
endfacet
facet normal 1.3758552081364561e-05 -5.2203426898265695e-05 0.9999999985427523
  outer loop
    vertex 4.752630953352269 2.792246610468869 2.6015448488950046
    vertex 8.911267453845477 0.004066949876307382 2.601531402160668
    vertex 4.874875122412578 3.087370141335294 2.6015448488950046
  endloop
endfacet
facet normal 1.3758552081364561e-05 -5.2203426898265695e-05 0.9999999985427523
  outer loop
    vertex 4.874875122412578 3.087370141335294 2.6015448488950046
    vertex 8.911267453845477 0.004066949876307382 2.601531402160668
    vertex 4.916570331975043 3.404076700850338 2.6015448488950046
  endloop
endfacet
facet normal 1.3758552081364561e-05 -5.2203426898265695e-05 0.9999999985427523
  outer loop
    vertex -0.007194710876777849 6.004031154900329 2.601965857332237
    vertex 3.376203591697062 4.586041672050808 2.6015448488950046
    vertex 8.912043801579847 6.00416083953388 2.601571814073607
  endloop
endfacet
facet normal 1.3758552081364561e-05 -5.2203426898265695e-05 0.9999999985427523
  outer loop
    vertex 3.376203591697062 4.586041672050808 2.6015448488950046
    vertex -0.007194710876777849 6.004031154900329 2.601965857332237
    vertex 3.0810800608306366 4.463797502990501 2.6015448488950046
  endloop
endfacet
facet normal 1.3758552081364561e-05 -5.2203426898265695e-05 0.9999999985427523
  outer loop
    vertex 3.0810800608306366 4.463797502990501 2.6015448488950046
    vertex -0.007194710876777849 6.004031154900329 2.601965857332237
    vertex 2.8276517395266736 4.26933511253577 2.6015448488950046
  endloop
endfacet
facet normal 1.3758552081364561e-05 -5.2203426898265695e-05 0.9999999985427523
  outer loop
    vertex 2.8276517395266736 4.26933511253577 2.6015448488950046
    vertex -0.007194710876777849 6.004031154900329 2.601965857332237
    vertex 2.633189349071942 4.0159067912318065 2.6015448488950046
  endloop
endfacet
facet normal 1.3758552081364561e-05 -5.2203426898265695e-05 0.9999999985427523
  outer loop
    vertex 2.633189349071942 4.0159067912318065 2.6015448488950046
    vertex -0.007194710876777849 6.004031154900329 2.601965857332237
    vertex 2.5109451800116327 3.7207832603653817 2.6015448488950046
  endloop
endfacet
facet normal 1.3758552081364561e-05 -5.2203426898265695e-05 0.9999999985427523
  outer loop
    vertex 2.5109451800116327 3.7207832603653817 2.6015448488950046
    vertex -0.007194710876777849 6.004031154900329 2.601965857332237
    vertex 2.4692499704491677 3.404076700850338 2.6015448488950046
  endloop
endfacet
facet normal 1.3758552081364561e-05 -5.2203426898265695e-05 0.9999999985427523
  outer loop
    vertex 8.912043801579847 6.00416083953388 2.601571814073607
    vertex 3.376203591697062 4.586041672050808 2.6015448488950046
    vertex 3.6929101512121054 4.627736881613275 2.6015448488950046
  endloop
endfacet
facet normal 1.3758552081364561e-05 -5.2203426898265695e-05 0.9999999985427523
  outer loop
    vertex 8.912043801579847 6.00416083953388 2.601571814073607
    vertex 3.6929101512121054 4.627736881613275 2.6015448488950046
    vertex 4.009616710727146 4.586041672050808 2.6015448488950046
  endloop
endfacet
facet normal 1.3758552081364561e-05 -5.2203426898265695e-05 0.9999999985427523
  outer loop
    vertex 8.912043801579847 6.00416083953388 2.601571814073607
    vertex 4.009616710727146 4.586041672050808 2.6015448488950046
    vertex 4.304740241593574 4.463797502990501 2.6015448488950046
  endloop
endfacet
facet normal 1.3758552081364561e-05 -5.2203426898265695e-05 0.9999999985427523
  outer loop
    vertex 8.912043801579847 6.00416083953388 2.601571814073607
    vertex 4.304740241593574 4.463797502990501 2.6015448488950046
    vertex 4.558168562897534 4.26933511253577 2.6015448488950046
  endloop
endfacet
facet normal 1.3758552081364561e-05 -5.2203426898265695e-05 0.9999999985427523
  outer loop
    vertex 8.912043801579847 6.00416083953388 2.601571814073607
    vertex 4.558168562897534 4.26933511253577 2.6015448488950046
    vertex 4.752630953352266 4.0159067912318065 2.6015448488950046
  endloop
endfacet
facet normal 1.3758552081364561e-05 -5.2203426898265695e-05 0.9999999985427523
  outer loop
    vertex 8.912043801579847 6.00416083953388 2.601571814073607
    vertex 4.752630953352266 4.0159067912318065 2.6015448488950046
    vertex 4.8748751224125755 3.7207832603653817 2.6015448488950046
  endloop
endfacet
facet normal 1.3758552081364561e-05 -5.2203426898265695e-05 0.9999999985427523
  outer loop
    vertex 8.912043801579847 6.00416083953388 2.601571814073607
    vertex 4.8748751224125755 3.7207832603653817 2.6015448488950046
    vertex 4.916570331975043 3.404076700850338 2.6015448488950046
  endloop
endfacet
facet normal 1.3758552081364561e-05 -5.2203426898265695e-05 0.9999999985427523
  outer loop
    vertex 8.912043801579847 6.00416083953388 2.601571814073607
    vertex 4.916570331975043 3.404076700850338 2.6015448488950046
    vertex 8.911267453845477 0.004066949876307382 2.601531402160668
  endloop
endfacet
facet normal -0.608761429008721 0.7933533402912348 0.0
  outer loop
    vertex 4.304740241593574 2.344355898710174 2.6015448488950046
    vertex 4.558168562897534 2.538818289164906 1.6015448488950053
    vertex 4.304740241593574 2.344355898710174 1.6015448488950053
  endloop
endfacet
facet normal -0.608761429008721 0.7933533402912348 0.0
  outer loop
    vertex 4.558168562897534 2.538818289164906 1.6015448488950053
    vertex 4.304740241593574 2.344355898710174 2.6015448488950046
    vertex 4.558168562897534 2.538818289164906 2.6015448488950046
  endloop
endfacet
facet normal -0.9914448613738112 0.13052619222004666 0.0
  outer loop
    vertex 4.916570331975043 3.404076700850338 2.6015448488950046
    vertex 4.874875122412578 3.087370141335294 1.6015448488950053
    vertex 4.874875122412578 3.087370141335294 2.6015448488950046
  endloop
endfacet
facet normal -0.9914448613738112 0.13052619222004666 0.0
  outer loop
    vertex 4.874875122412578 3.087370141335294 1.6015448488950053
    vertex 4.916570331975043 3.404076700850338 2.6015448488950046
    vertex 4.916570331975043 3.404076700850338 1.6015448488950053
  endloop
endfacet
facet normal -0.9914448613738099 -0.13052619222005532 -0.0
  outer loop
    vertex 4.8748751224125755 3.7207832603653817 2.6015448488950046
    vertex 4.916570331975043 3.404076700850338 1.6015448488950053
    vertex 4.916570331975043 3.404076700850338 2.6015448488950046
  endloop
endfacet
facet normal -0.9914448613738099 -0.13052619222005532 -0.0
  outer loop
    vertex 4.916570331975043 3.404076700850338 1.6015448488950053
    vertex 4.8748751224125755 3.7207832603653817 2.6015448488950046
    vertex 4.8748751224125755 3.7207832603653817 1.6015448488950053
  endloop
endfacet
facet normal 0.0004009589074734594 -0.9999997996179801 0.0004898938192963188
  outer loop
    vertex 8.910875266128384 4.508194709386098 1.0008234859887286
    vertex 7.410864127458427 4.507103337302504 0.0010964218937310598
    vertex 8.911736494236468 4.508023974915447 0.0009539080863377837
  endloop
endfacet
facet normal 0.0004009589074734594 -0.9999997996179801 0.0004898938192963188
  outer loop
    vertex 7.410864127458427 4.507103337302504 0.0010964218937310598
    vertex 8.910875266128384 4.508194709386098 1.0008234859887286
    vertex 7.410876020256751 4.507911642953406 0.9993274345752836
  endloop
endfacet
facet normal -0.7933533402912382 -0.6087614290087168 -0.0
  outer loop
    vertex 4.558168562897534 4.26933511253577 2.6015448488950046
    vertex 4.752630953352266 4.0159067912318065 1.6015448488950053
    vertex 4.752630953352266 4.0159067912318065 2.6015448488950046
  endloop
endfacet
facet normal -0.7933533402912382 -0.6087614290087168 -0.0
  outer loop
    vertex 4.752630953352266 4.0159067912318065 1.6015448488950053
    vertex 4.558168562897534 4.26933511253577 2.6015448488950046
    vertex 4.558168562897534 4.26933511253577 1.6015448488950053
  endloop
endfacet
facet normal -0.9999976687957024 -0.0006702803130704069 -0.00205259042743224
  outer loop
    vertex 7.41101353674763 2.3319566564486247 0.9995759197396114
    vertex 7.413993289598148 0.9100248577422464 0.0010408404703895766
    vertex 7.410874896030084 0.9095405582855882 0.9995572839040036
  endloop
endfacet
facet normal -0.9999976687957024 -0.0006702803130704069 -0.00205259042743224
  outer loop
    vertex 7.413993289598148 0.9100248577422464 0.0010408404703895766
    vertex 7.41101353674763 2.3319566564486247 0.9995759197396114
    vertex 7.412001015164357 2.3319573675619867 0.0010948312643084127
  endloop
endfacet
facet normal 0.38268343236508456 -0.9238795325112888 0.0
  outer loop
    vertex 3.376203591697062 4.586041672050808 2.6015448488950046
    vertex 3.0810800608306366 4.463797502990501 1.6015448488950053
    vertex 3.376203591697062 4.586041672050808 1.6015448488950053
  endloop
endfacet
facet normal 0.38268343236508456 -0.9238795325112888 0.0
  outer loop
    vertex 3.0810800608306366 4.463797502990501 1.6015448488950053
    vertex 3.376203591697062 4.586041672050808 2.6015448488950046
    vertex 3.0810800608306366 4.463797502990501 2.6015448488950046
  endloop
endfacet
facet normal 0.9999999889442855 4.6526685990473405e-05 -0.0001412327734416088
  outer loop
    vertex 0.7927621982810636 0.9096359044052024 0.0016742717837964754
    vertex 0.7928045570341761 5.104076083908211 1.6012666180956427
    vertex 0.7927949000905822 0.9095390725726601 1.6016589006392732
  endloop
endfacet
facet normal 0.9999999889442855 4.6526685990473405e-05 -0.0001412327734416088
  outer loop
    vertex 0.7928045570341761 5.104076083908211 1.6012666180956427
    vertex 0.7927621982810636 0.9096359044052024 0.0016742717837964754
    vertex 0.7923853646772486 5.103144117024457 0.001720053277771047
  endloop
endfacet
facet normal -0.9999999998141083 -1.6351062053466884e-05 1.0218918862565889e-05
  outer loop
    vertex -0.007194710876777849 6.004031154900329 2.601965857332237
    vertex -0.007206495780409122 0.004076735383811284 0.0016632276054955152
    vertex -0.007194710876777849 0.0040311640571438125 2.601663254948998
  endloop
endfacet
facet normal -0.9999999998141083 -1.6351062053466884e-05 1.0218918862565889e-05
  outer loop
    vertex -0.007206495780409122 0.004076735383811284 0.0016632276054955152
    vertex -0.007194710876777849 6.004031154900329 2.601965857332237
    vertex -0.007239197904675437 6.004173558991533 0.001965829988733712
  endloop
endfacet
facet normal -1.9829250535796425e-17 -8.429727325232824e-05 -0.999999996446985
  outer loop
    vertex 0.7928045570341761 5.104076083908211 1.6012666180956427
    vertex 2.5109451800116327 3.7207832603653817 1.6015448488950053
    vertex 2.4692499704491677 3.404076700850338 1.6015448488950053
  endloop
endfacet
facet normal -1.9829250535796425e-17 -8.429727325232824e-05 -0.999999996446985
  outer loop
    vertex 2.5109451800116327 3.7207832603653817 1.6015448488950053
    vertex 0.7928045570341761 5.104076083908211 1.6012666180956427
    vertex 2.633189349071942 4.0159067912318065 1.6015448488950053
  endloop
endfacet
facet normal -1.9829250535796425e-17 -8.429727325232824e-05 -0.999999996446985
  outer loop
    vertex 2.633189349071942 4.0159067912318065 1.6015448488950053
    vertex 0.7928045570341761 5.104076083908211 1.6012666180956427
    vertex 2.8276517395266736 4.26933511253577 1.6015448488950053
  endloop
endfacet
facet normal -1.9829250535796425e-17 -8.429727325232824e-05 -0.999999996446985
  outer loop
    vertex 2.8276517395266736 4.26933511253577 1.6015448488950053
    vertex 0.7928045570341761 5.104076083908211 1.6012666180956427
    vertex 3.0810800608306366 4.463797502990501 1.6015448488950053
  endloop
endfacet
facet normal -1.9829250535796425e-17 -8.429727325232824e-05 -0.999999996446985
  outer loop
    vertex 3.0810800608306366 4.463797502990501 1.6015448488950053
    vertex 0.7928045570341761 5.104076083908211 1.6012666180956427
    vertex 3.376203591697062 4.586041672050808 1.6015448488950053
  endloop
endfacet
facet normal -1.9829250535796425e-17 -8.429727325232824e-05 -0.999999996446985
  outer loop
    vertex 3.376203591697062 4.586041672050808 1.6015448488950053
    vertex 0.7928045570341761 5.104076083908211 1.6012666180956427
    vertex 6.465307323349936 5.104076748535554 1.6012524951544795
  endloop
endfacet
facet normal -1.9829250535796425e-17 -8.429727325232824e-05 -0.999999996446985
  outer loop
    vertex 3.376203591697062 4.586041672050808 1.6015448488950053
    vertex 6.465307323349936 5.104076748535554 1.6012524951544795
    vertex 3.6929101512121054 4.627736881613275 1.6015448488950053
  endloop
endfacet
facet normal -1.9829250535796425e-17 -8.429727325232824e-05 -0.999999996446985
  outer loop
    vertex 3.6929101512121054 4.627736881613275 1.6015448488950053
    vertex 6.465307323349936 5.104076748535554 1.6012524951544795
    vertex 4.009616710727146 4.586041672050808 1.6015448488950053
  endloop
endfacet
facet normal -1.9829250535796425e-17 -8.429727325232824e-05 -0.999999996446985
  outer loop
    vertex 4.009616710727146 4.586041672050808 1.6015448488950053
    vertex 6.465307323349936 5.104076748535554 1.6012524951544795
    vertex 4.304740241593574 4.463797502990501 1.6015448488950053
  endloop
endfacet
facet normal -1.9829250535796425e-17 -8.429727325232824e-05 -0.999999996446985
  outer loop
    vertex 4.304740241593574 4.463797502990501 1.6015448488950053
    vertex 6.465307323349936 5.104076748535554 1.6012524951544795
    vertex 4.558168562897534 4.26933511253577 1.6015448488950053
  endloop
endfacet
facet normal -1.9829250535796425e-17 -8.429727325232824e-05 -0.999999996446985
  outer loop
    vertex 4.558168562897534 4.26933511253577 1.6015448488950053
    vertex 6.465307323349936 5.104076748535554 1.6012524951544795
    vertex 4.752630953352266 4.0159067912318065 1.6015448488950053
  endloop
endfacet
facet normal -1.9829250535796425e-17 -8.429727325232824e-05 -0.999999996446985
  outer loop
    vertex 4.752630953352266 4.0159067912318065 1.6015448488950053
    vertex 6.465307323349936 5.104076748535554 1.6012524951544795
    vertex 4.8748751224125755 3.7207832603653817 1.6015448488950053
  endloop
endfacet
facet normal -1.9829250535796425e-17 -8.429727325232824e-05 -0.999999996446985
  outer loop
    vertex 4.8748751224125755 3.7207832603653817 1.6015448488950053
    vertex 6.465307323349936 5.104076748535554 1.6012524951544795
    vertex 4.916570331975043 3.404076700850338 1.6015448488950053
  endloop
endfacet
facet normal -1.9829250535796425e-17 -8.429727325232824e-05 -0.999999996446985
  outer loop
    vertex 4.916570331975043 3.404076700850338 1.6015448488950053
    vertex 6.465307323349936 5.104076748535554 1.6012524951544795
    vertex 6.465297666406342 0.9095397372000026 1.60164477769811
  endloop
endfacet
facet normal -1.9829250535796425e-17 -8.429727325232824e-05 -0.999999996446985
  outer loop
    vertex 0.7927949000905822 0.9095390725726601 1.6016589006392732
    vertex 3.0810800608306366 2.344355898710174 1.6015448488950053
    vertex 6.465297666406342 0.9095397372000026 1.60164477769811
  endloop
endfacet
facet normal -1.9829250535796425e-17 -8.429727325232824e-05 -0.999999996446985
  outer loop
    vertex 3.0810800608306366 2.344355898710174 1.6015448488950053
    vertex 0.7927949000905822 0.9095390725726601 1.6016589006392732
    vertex 2.8276517395266767 2.538818289164906 1.6015448488950053
  endloop
endfacet
facet normal -1.9829250535796425e-17 -8.429727325232824e-05 -0.999999996446985
  outer loop
    vertex 2.8276517395266767 2.538818289164906 1.6015448488950053
    vertex 0.7927949000905822 0.9095390725726601 1.6016589006392732
    vertex 0.7928045570341761 5.104076083908211 1.6012666180956427
  endloop
endfacet
facet normal -1.9829250535796425e-17 -8.429727325232824e-05 -0.999999996446985
  outer loop
    vertex 2.8276517395266767 2.538818289164906 1.6015448488950053
    vertex 0.7928045570341761 5.104076083908211 1.6012666180956427
    vertex 2.6331893490719445 2.792246610468869 1.6015448488950053
  endloop
endfacet
facet normal -1.9829250535796425e-17 -8.429727325232824e-05 -0.999999996446985
  outer loop
    vertex 2.6331893490719445 2.792246610468869 1.6015448488950053
    vertex 0.7928045570341761 5.104076083908211 1.6012666180956427
    vertex 2.510945180011636 3.087370141335294 1.6015448488950053
  endloop
endfacet
facet normal -1.9829250535796425e-17 -8.429727325232824e-05 -0.999999996446985
  outer loop
    vertex 2.510945180011636 3.087370141335294 1.6015448488950053
    vertex 0.7928045570341761 5.104076083908211 1.6012666180956427
    vertex 2.4692499704491677 3.404076700850338 1.6015448488950053
  endloop
endfacet
facet normal -1.9829250535796425e-17 -8.429727325232824e-05 -0.999999996446985
  outer loop
    vertex 6.465297666406342 0.9095397372000026 1.60164477769811
    vertex 3.0810800608306366 2.344355898710174 1.6015448488950053
    vertex 3.3762035916970645 2.222111729649868 1.6015448488950053
  endloop
endfacet
facet normal -1.9829250535796425e-17 -8.429727325232824e-05 -0.999999996446985
  outer loop
    vertex 6.465297666406342 0.9095397372000026 1.60164477769811
    vertex 3.3762035916970645 2.222111729649868 1.6015448488950053
    vertex 3.6929101512121054 2.1804165200874 1.6015448488950053
  endloop
endfacet
facet normal -1.9829250535796425e-17 -8.429727325232824e-05 -0.999999996446985
  outer loop
    vertex 6.465297666406342 0.9095397372000026 1.60164477769811
    vertex 3.6929101512121054 2.1804165200874 1.6015448488950053
    vertex 4.009616710727146 2.222111729649868 1.6015448488950053
  endloop
endfacet
facet normal -1.9829250535796425e-17 -8.429727325232824e-05 -0.999999996446985
  outer loop
    vertex 6.465297666406342 0.9095397372000026 1.60164477769811
    vertex 4.009616710727146 2.222111729649868 1.6015448488950053
    vertex 4.304740241593574 2.344355898710174 1.6015448488950053
  endloop
endfacet
facet normal -1.9829250535796425e-17 -8.429727325232824e-05 -0.999999996446985
  outer loop
    vertex 6.465297666406342 0.9095397372000026 1.60164477769811
    vertex 4.304740241593574 2.344355898710174 1.6015448488950053
    vertex 4.558168562897534 2.538818289164906 1.6015448488950053
  endloop
endfacet
facet normal -1.9829250535796425e-17 -8.429727325232824e-05 -0.999999996446985
  outer loop
    vertex 6.465297666406342 0.9095397372000026 1.60164477769811
    vertex 4.558168562897534 2.538818289164906 1.6015448488950053
    vertex 4.752630953352269 2.792246610468869 1.6015448488950053
  endloop
endfacet
facet normal -1.9829250535796425e-17 -8.429727325232824e-05 -0.999999996446985
  outer loop
    vertex 6.465297666406342 0.9095397372000026 1.60164477769811
    vertex 4.752630953352269 2.792246610468869 1.6015448488950053
    vertex 4.874875122412578 3.087370141335294 1.6015448488950053
  endloop
endfacet
facet normal -1.9829250535796425e-17 -8.429727325232824e-05 -0.999999996446985
  outer loop
    vertex 6.465297666406342 0.9095397372000026 1.60164477769811
    vertex 4.874875122412578 3.087370141335294 1.6015448488950053
    vertex 4.916570331975043 3.404076700850338 1.6015448488950053
  endloop
endfacet
facet normal -8.228156053642212e-05 -7.090671179980854e-05 -0.9999999941009916
  outer loop
    vertex 6.465354317034975 5.104035675098932 1.001252491309366
    vertex 7.410874896030084 0.9095405582855882 0.9995572839040036
    vertex 6.465344660091381 0.9094986637633756 1.0016447738529966
  endloop
endfacet
facet normal -8.228156053642212e-05 -7.090671179980854e-05 -0.9999999941009916
  outer loop
    vertex 7.410874896030084 0.9095405582855882 0.9995572839040036
    vertex 6.465354317034975 5.104035675098932 1.001252491309366
    vertex 7.410876020256751 4.507911642953406 0.9993274345752836
  endloop
endfacet
facet normal -8.228156053642212e-05 -7.090671179980854e-05 -0.9999999941009916
  outer loop
    vertex 7.410876020256751 4.507911642953406 0.9993274345752836
    vertex 6.465354317034975 5.104035675098932 1.001252491309366
    vertex 7.410877605720737 5.1032512568840955 0.9993028000283309
  endloop
endfacet
facet normal -8.228156053642212e-05 -7.090671179980854e-05 -0.9999999941009916
  outer loop
    vertex 7.410876020256751 4.507911642953406 0.9993274345752836
    vertex 7.41101353674763 2.3319566564486247 0.9995759197396114
    vertex 7.410874896030084 0.9095405582855882 0.9995572839040036
  endloop
endfacet
facet normal -8.228156053642212e-05 -7.090671179980854e-05 -0.9999999941009916
  outer loop
    vertex 7.41101353674763 2.3319566564486247 0.9995759197396114
    vertex 7.410876020256751 4.507911642953406 0.9993274345752836
    vertex 8.910875266128384 4.508194709386098 1.0008234859887286
  endloop
endfacet
facet normal -8.228156053642212e-05 -7.090671179980854e-05 -0.9999999941009916
  outer loop
    vertex 7.41101353674763 2.3319566564486247 0.9995759197396114
    vertex 8.910875266128384 4.508194709386098 1.0008234859887286
    vertex 8.911012957777123 2.3322140924527313 1.00087258072341
  endloop
endfacet
facet normal -8.144601669101682e-10 -0.9999999998464335 -1.7525210584252106e-05
  outer loop
    vertex 8.911267453845477 0.004066949876307382 2.601531402160668
    vertex -0.007206495780409122 0.004076735383811284 0.0016632276054955152
    vertex 8.911000241281894 0.004076735383811284 0.0009524065024308394
  endloop
endfacet
facet normal -8.144601669101682e-10 -0.9999999998464335 -1.7525210584252106e-05
  outer loop
    vertex -0.007206495780409122 0.004076735383811284 0.0016632276054955152
    vertex 8.911267453845477 0.004066949876307382 2.601531402160668
    vertex -0.007194710876777849 0.0040311640571438125 2.601663254948998
  endloop
endfacet
facet normal 0.7933533402912382 -0.6087614290087168 0.0
  outer loop
    vertex 2.8276517395266736 4.26933511253577 1.6015448488950053
    vertex 2.633189349071942 4.0159067912318065 2.6015448488950046
    vertex 2.633189349071942 4.0159067912318065 1.6015448488950053
  endloop
endfacet
facet normal 0.7933533402912382 -0.6087614290087168 0.0
  outer loop
    vertex 2.633189349071942 4.0159067912318065 2.6015448488950046
    vertex 2.8276517395266736 4.26933511253577 1.6015448488950053
    vertex 2.8276517395266736 4.26933511253577 2.6015448488950046
  endloop
endfacet
facet normal -0.9999999969311859 1.7740002670389202e-06 -7.832292909548143e-05
  outer loop
    vertex 6.465297666406342 0.9095397372000026 1.60164477769811
    vertex 6.465354317034975 5.104035675098932 1.001252491309366
    vertex 6.465344660091381 0.9094986637633756 1.0016447738529966
  endloop
endfacet
facet normal -0.9999999969311859 1.7740002670389202e-06 -7.832292909548143e-05
  outer loop
    vertex 6.465354317034975 5.104035675098932 1.001252491309366
    vertex 6.465297666406342 0.9095397372000026 1.60164477769811
    vertex 6.465307323349936 5.104076748535554 1.6012524951544795
  endloop
endfacet
facet normal 0.9238795325112857 -0.3826834323650921 0.0
  outer loop
    vertex 2.633189349071942 4.0159067912318065 1.6015448488950053
    vertex 2.5109451800116327 3.7207832603653817 2.6015448488950046
    vertex 2.5109451800116327 3.7207832603653817 1.6015448488950053
  endloop
endfacet
facet normal 0.9238795325112857 -0.3826834323650921 0.0
  outer loop
    vertex 2.5109451800116327 3.7207832603653817 2.6015448488950046
    vertex 2.633189349071942 4.0159067912318065 1.6015448488950053
    vertex 2.633189349071942 4.0159067912318065 2.6015448488950046
  endloop
endfacet
facet normal -0.3826834323650815 -0.9238795325112903 -0.0
  outer loop
    vertex 4.304740241593574 4.463797502990501 2.6015448488950046
    vertex 4.009616710727146 4.586041672050808 1.6015448488950053
    vertex 4.304740241593574 4.463797502990501 1.6015448488950053
  endloop
endfacet
facet normal -0.3826834323650815 -0.9238795325112903 -0.0
  outer loop
    vertex 4.009616710727146 4.586041672050808 1.6015448488950053
    vertex 4.304740241593574 4.463797502990501 2.6015448488950046
    vertex 4.009616710727146 4.586041672050808 2.6015448488950046
  endloop
endfacet
facet normal -0.7933533402912338 0.6087614290087223 0.0
  outer loop
    vertex 4.752630953352269 2.792246610468869 2.6015448488950046
    vertex 4.558168562897534 2.538818289164906 1.6015448488950053
    vertex 4.558168562897534 2.538818289164906 2.6015448488950046
  endloop
endfacet
facet normal -0.7933533402912338 0.6087614290087223 0.0
  outer loop
    vertex 4.558168562897534 2.538818289164906 1.6015448488950053
    vertex 4.752630953352269 2.792246610468869 2.6015448488950046
    vertex 4.752630953352269 2.792246610468869 1.6015448488950053
  endloop
endfacet
facet normal 0.6087614290087168 -0.7933533402912382 0.0
  outer loop
    vertex 3.0810800608306366 4.463797502990501 2.6015448488950046
    vertex 2.8276517395266736 4.26933511253577 1.6015448488950053
    vertex 3.0810800608306366 4.463797502990501 1.6015448488950053
  endloop
endfacet
facet normal 0.6087614290087168 -0.7933533402912382 0.0
  outer loop
    vertex 2.8276517395266736 4.26933511253577 1.6015448488950053
    vertex 3.0810800608306366 4.463797502990501 2.6015448488950046
    vertex 2.8276517395266736 4.26933511253577 2.6015448488950046
  endloop
endfacet
facet normal -0.3826834323650815 0.9238795325112903 0.0
  outer loop
    vertex 4.009616710727146 2.222111729649868 2.6015448488950046
    vertex 4.304740241593574 2.344355898710174 1.6015448488950053
    vertex 4.009616710727146 2.222111729649868 1.6015448488950053
  endloop
endfacet
facet normal -0.3826834323650815 0.9238795325112903 0.0
  outer loop
    vertex 4.304740241593574 2.344355898710174 1.6015448488950053
    vertex 4.009616710727146 2.222111729649868 2.6015448488950046
    vertex 4.304740241593574 2.344355898710174 2.6015448488950046
  endloop
endfacet
facet normal 0.7933533402912382 0.6087614290087168 0.0
  outer loop
    vertex 2.6331893490719445 2.792246610468869 1.6015448488950053
    vertex 2.8276517395266767 2.538818289164906 2.6015448488950046
    vertex 2.8276517395266767 2.538818289164906 1.6015448488950053
  endloop
endfacet
facet normal 0.7933533402912382 0.6087614290087168 0.0
  outer loop
    vertex 2.8276517395266767 2.538818289164906 2.6015448488950046
    vertex 2.6331893490719445 2.792246610468869 1.6015448488950053
    vertex 2.6331893490719445 2.792246610468869 2.6015448488950046
  endloop
endfacet
facet normal 0.9238795325112857 0.3826834323650921 0.0
  outer loop
    vertex 2.510945180011636 3.087370141335294 1.6015448488950053
    vertex 2.6331893490719445 2.792246610468869 2.6015448488950046
    vertex 2.6331893490719445 2.792246610468869 1.6015448488950053
  endloop
endfacet
facet normal 0.9238795325112857 0.3826834323650921 0.0
  outer loop
    vertex 2.6331893490719445 2.792246610468869 2.6015448488950046
    vertex 2.510945180011636 3.087370141335294 1.6015448488950053
    vertex 2.510945180011636 3.087370141335294 2.6015448488950046
  endloop
endfacet
facet normal 0.13052619222005646 0.9914448613738098 0.0
  outer loop
    vertex 3.3762035916970645 2.222111729649868 2.6015448488950046
    vertex 3.6929101512121054 2.1804165200874 1.6015448488950053
    vertex 3.3762035916970645 2.222111729649868 1.6015448488950053
  endloop
endfacet
facet normal 0.13052619222005646 0.9914448613738098 0.0
  outer loop
    vertex 3.6929101512121054 2.1804165200874 1.6015448488950053
    vertex 3.3762035916970645 2.222111729649868 2.6015448488950046
    vertex 3.6929101512121054 2.1804165200874 2.6015448488950046
  endloop
endfacet
facet normal -1.4752804706170792e-05 0.9999999807885475 0.00019546165736914798
  outer loop
    vertex 0.7927621982810636 0.9096359044052024 0.0016742717837964754
    vertex 7.410874896030084 0.9095405582855882 0.9995572839040036
    vertex 7.413993289598148 0.9100248577422464 0.0010408404703895766
  endloop
endfacet
facet normal -1.4752804706170792e-05 0.9999999807885475 0.00019546165736914798
  outer loop
    vertex 7.410874896030084 0.9095405582855882 0.9995572839040036
    vertex 0.7927621982810636 0.9096359044052024 0.0016742717837964754
    vertex 6.465344660091381 0.9094986637633756 1.0016447738529966
  endloop
endfacet
facet normal -1.4752804706170792e-05 0.9999999807885475 0.00019546165736914798
  outer loop
    vertex 6.465344660091381 0.9094986637633756 1.0016447738529966
    vertex 0.7927621982810636 0.9096359044052024 0.0016742717837964754
    vertex 0.7927949000905822 0.9095390725726601 1.6016589006392732
  endloop
endfacet
facet normal -1.4752804706170792e-05 0.9999999807885475 0.00019546165736914798
  outer loop
    vertex 6.465344660091381 0.9094986637633756 1.0016447738529966
    vertex 0.7927949000905822 0.9095390725726601 1.6016589006392732
    vertex 6.465297666406342 0.9095397372000026 1.60164477769811
  endloop
endfacet
facet normal -0.0001714436246970296 0.9999999853035051 2.7092965320710984e-07
  outer loop
    vertex 7.412001015164357 2.3319573675619867 0.0010948312643084127
    vertex 8.911012957777123 2.3322140924527313 1.00087258072341
    vertex 8.911012957777123 2.3322140924527313 0.0009524773990090897
  endloop
endfacet
facet normal -0.0001714436246970296 0.9999999853035051 2.7092965320710984e-07
  outer loop
    vertex 8.911012957777123 2.3322140924527313 1.00087258072341
    vertex 7.412001015164357 2.3319573675619867 0.0010948312643084127
    vertex 7.41101353674763 2.3319566564486247 0.9995759197396114
  endloop
endfacet
endsolid BaseplateMk1.3
