solid BaseplateCoverMk3_NoMags
facet normal -1.0 0.0 0.0
  outer loop
    vertex -22.2371735194089 0.0960326823914525 0.0
    vertex -22.2371735194089 -3.90396731760855 -2.5
    vertex -22.2371735194089 -3.90396731760855 0.0
  endloop
endfacet
facet normal -1.0 0.0 0.0
  outer loop
    vertex -22.2371735194089 -3.90396731760855 -2.5
    vertex -22.2371735194089 0.0960326823914525 0.0
    vertex -22.2371735194089 0.0960326823914525 -1.6
  endloop
endfacet
facet normal -1.0 0.0 0.0
  outer loop
    vertex -22.2371735194089 -3.90396731760855 -2.5
    vertex -22.2371735194089 0.0960326823914525 -1.6
    vertex -22.2371735194089 1.59603268239145 -2.5
  endloop
endfacet
facet normal -1.0 0.0 0.0
  outer loop
    vertex -22.2371735194089 1.59603268239145 -2.5
    vertex -22.2371735194089 0.0960326823914525 -1.6
    vertex -22.2371735194089 1.59603268239145 -1.6
  endloop
endfacet
facet normal 1.0 0.0 0.0
  outer loop
    vertex -16.6371735194089 1.59603268239145 -2.5
    vertex -16.6371735194089 -3.90396731760855 0.0
    vertex -16.6371735194089 -3.90396731760855 -2.5
  endloop
endfacet
facet normal 1.0 0.0 0.0
  outer loop
    vertex -16.6371735194089 -3.90396731760855 0.0
    vertex -16.6371735194089 1.59603268239145 -2.5
    vertex -16.6371735194089 0.0960326823914525 -1.6
  endloop
endfacet
facet normal 1.0 0.0 0.0
  outer loop
    vertex -16.6371735194089 0.0960326823914525 -1.6
    vertex -16.6371735194089 1.59603268239145 -2.5
    vertex -16.6371735194089 1.59603268239145 -1.6
  endloop
endfacet
facet normal 1.0 0.0 0.0
  outer loop
    vertex -16.6371735194089 0.0960326823914525 0.0
    vertex -16.6371735194089 -3.90396731760855 0.0
    vertex -16.6371735194089 0.0960326823914525 -1.6
  endloop
endfacet
facet normal 0.0 0.0 -1.0
  outer loop
    vertex -15.9371735194089 2.34603268239145 -3.5
    vertex -22.9371735194089 -4.65396731760855 -3.5
    vertex -22.9371735194089 2.34603268239145 -3.5
  endloop
endfacet
facet normal 0.0 0.0 -1.0
  outer loop
    vertex -22.9371735194089 -4.65396731760855 -3.5
    vertex -15.9371735194089 2.34603268239145 -3.5
    vertex -15.9371735194089 -4.65396731760855 -3.5
  endloop
endfacet
facet normal -0.0 -0.0 1.0
  outer loop
    vertex -22.9371735194089 -4.65396731760855 -2.5
    vertex -22.2371735194089 -3.90396731760855 -2.5
    vertex -22.9371735194089 2.34603268239145 -2.5
  endloop
endfacet
facet normal -0.0 -0.0 1.0
  outer loop
    vertex -22.2371735194089 -3.90396731760855 -2.5
    vertex -22.9371735194089 -4.65396731760855 -2.5
    vertex -15.9371735194089 -4.65396731760855 -2.5
  endloop
endfacet
facet normal -0.0 -0.0 1.0
  outer loop
    vertex -22.2371735194089 -3.90396731760855 -2.5
    vertex -15.9371735194089 -4.65396731760855 -2.5
    vertex -16.6371735194089 -3.90396731760855 -2.5
  endloop
endfacet
facet normal -0.0 -0.0 1.0
  outer loop
    vertex -16.6371735194089 -3.90396731760855 -2.5
    vertex -15.9371735194089 -4.65396731760855 -2.5
    vertex -16.6371735194089 1.59603268239145 -2.5
  endloop
endfacet
facet normal -0.0 -0.0 1.0
  outer loop
    vertex -22.9371735194089 2.34603268239145 -2.5
    vertex -22.2371735194089 1.59603268239145 -2.5
    vertex -15.9371735194089 2.34603268239145 -2.5
  endloop
endfacet
facet normal -0.0 -0.0 1.0
  outer loop
    vertex -22.2371735194089 1.59603268239145 -2.5
    vertex -22.9371735194089 2.34603268239145 -2.5
    vertex -22.2371735194089 -3.90396731760855 -2.5
  endloop
endfacet
facet normal -0.0 -0.0 1.0
  outer loop
    vertex -15.9371735194089 2.34603268239145 -2.5
    vertex -22.2371735194089 1.59603268239145 -2.5
    vertex -16.6371735194089 1.59603268239145 -2.5
  endloop
endfacet
facet normal -0.0 -0.0 1.0
  outer loop
    vertex -15.9371735194089 2.34603268239145 -2.5
    vertex -16.6371735194089 1.59603268239145 -2.5
    vertex -15.9371735194089 -4.65396731760855 -2.5
  endloop
endfacet
facet normal 1.0 0.0 0.0
  outer loop
    vertex -15.9371735194089 2.34603268239145 -3.5
    vertex -15.9371735194089 -4.65396731760855 -2.5
    vertex -15.9371735194089 -4.65396731760855 -3.5
  endloop
endfacet
facet normal 1.0 0.0 0.0
  outer loop
    vertex -15.9371735194089 -4.65396731760855 -2.5
    vertex -15.9371735194089 2.34603268239145 -3.5
    vertex -15.9371735194089 2.34603268239145 -2.5
  endloop
endfacet
facet normal -0.0 -1.0 -0.0
  outer loop
    vertex -15.9371735194089 -4.65396731760855 -2.5
    vertex -22.9371735194089 -4.65396731760855 -3.5
    vertex -15.9371735194089 -4.65396731760855 -3.5
  endloop
endfacet
facet normal -0.0 -1.0 -0.0
  outer loop
    vertex -22.9371735194089 -4.65396731760855 -3.5
    vertex -15.9371735194089 -4.65396731760855 -2.5
    vertex -22.9371735194089 -4.65396731760855 -2.5
  endloop
endfacet
facet normal -1.0 0.0 0.0
  outer loop
    vertex -22.9371735194089 2.34603268239145 -2.5
    vertex -22.9371735194089 -4.65396731760855 -3.5
    vertex -22.9371735194089 -4.65396731760855 -2.5
  endloop
endfacet
facet normal -1.0 0.0 0.0
  outer loop
    vertex -22.9371735194089 -4.65396731760855 -3.5
    vertex -22.9371735194089 2.34603268239145 -2.5
    vertex -22.9371735194089 2.34603268239145 -3.5
  endloop
endfacet
facet normal -0.0 1.0 0.0
  outer loop
    vertex -22.9371735194089 2.34603268239145 -2.5
    vertex -15.9371735194089 2.34603268239145 -3.5
    vertex -22.9371735194089 2.34603268239145 -3.5
  endloop
endfacet
facet normal -0.0 1.0 0.0
  outer loop
    vertex -15.9371735194089 2.34603268239145 -3.5
    vertex -22.9371735194089 2.34603268239145 -2.5
    vertex -15.9371735194089 2.34603268239145 -2.5
  endloop
endfacet
facet normal -0.0 -0.0 1.0
  outer loop
    vertex -16.6371735194089 -3.90396731760855 0.0
    vertex -22.2371735194089 0.0960326823914525 0.0
    vertex -22.2371735194089 -3.90396731760855 0.0
  endloop
endfacet
facet normal -0.0 -0.0 1.0
  outer loop
    vertex -22.2371735194089 0.0960326823914525 0.0
    vertex -16.6371735194089 -3.90396731760855 0.0
    vertex -16.6371735194089 0.0960326823914525 0.0
  endloop
endfacet
facet normal 0.0 0.0 1.0
  outer loop
    vertex -16.6371735194089 0.0960326823914525 -1.6
    vertex -22.2371735194089 1.59603268239145 -1.6
    vertex -22.2371735194089 0.0960326823914525 -1.6
  endloop
endfacet
facet normal 0.0 0.0 1.0
  outer loop
    vertex -22.2371735194089 1.59603268239145 -1.6
    vertex -16.6371735194089 0.0960326823914525 -1.6
    vertex -16.6371735194089 1.59603268239145 -1.6
  endloop
endfacet
facet normal 0.0 1.0 0.0
  outer loop
    vertex -22.2371735194089 0.0960326823914525 0.0
    vertex -16.6371735194089 0.0960326823914525 -1.6
    vertex -22.2371735194089 0.0960326823914525 -1.6
  endloop
endfacet
facet normal 0.0 1.0 0.0
  outer loop
    vertex -16.6371735194089 0.0960326823914525 -1.6
    vertex -22.2371735194089 0.0960326823914525 0.0
    vertex -16.6371735194089 0.0960326823914525 0.0
  endloop
endfacet
facet normal -0.0 1.0 -0.0
  outer loop
    vertex -22.2371735194089 1.59603268239145 -1.6
    vertex -16.6371735194089 1.59603268239145 -2.5
    vertex -22.2371735194089 1.59603268239145 -2.5
  endloop
endfacet
facet normal -0.0 1.0 -0.0
  outer loop
    vertex -16.6371735194089 1.59603268239145 -2.5
    vertex -22.2371735194089 1.59603268239145 -1.6
    vertex -16.6371735194089 1.59603268239145 -1.6
  endloop
endfacet
facet normal 0.0 -1.0 0.0
  outer loop
    vertex -16.6371735194089 -3.90396731760855 0.0
    vertex -22.2371735194089 -3.90396731760855 -2.5
    vertex -16.6371735194089 -3.90396731760855 -2.5
  endloop
endfacet
facet normal 0.0 -1.0 0.0
  outer loop
    vertex -22.2371735194089 -3.90396731760855 -2.5
    vertex -16.6371735194089 -3.90396731760855 0.0
    vertex -22.2371735194089 -3.90396731760855 0.0
  endloop
endfacet
endsolid BaseplateCoverMk3_NoMags
