solid Baseplate_new_mk1.1
facet normal -1.9829250535796422e-17 -8.429727325232823e-05 -0.9999999964469848
  outer loop
    vertex -25.455074652311822 38.24909619874287 2.0726580556860728
    vertex -23.8369300990101 36.96579869539019 2.07287683795805
    vertex -23.878625308572566 36.64909213587515 2.07287683795805
  endloop
endfacet
facet normal -1.9829250535796422e-17 -8.429727325232823e-05 -0.9999999964469848
  outer loop
    vertex -23.8369300990101 36.96579869539019 2.07287683795805
    vertex -25.455074652311822 38.24909619874287 2.0726580556860728
    vertex -23.71468592994979 37.26092222625662 2.07287683795805
  endloop
endfacet
facet normal -1.9829250535796422e-17 -8.429727325232823e-05 -0.9999999964469848
  outer loop
    vertex -23.71468592994979 37.26092222625662 2.07287683795805
    vertex -25.455074652311822 38.24909619874287 2.0726580556860728
    vertex -23.52022353949506 37.51435054756058 2.07287683795805
  endloop
endfacet
facet normal -1.9829250535796422e-17 -8.429727325232823e-05 -0.9999999964469848
  outer loop
    vertex -23.52022353949506 37.51435054756058 2.07287683795805
    vertex -25.455074652311822 38.24909619874287 2.0726580556860728
    vertex -23.2667952181911 37.70881293801531 2.07287683795805
  endloop
endfacet
facet normal -1.9829250535796422e-17 -8.429727325232823e-05 -0.9999999964469848
  outer loop
    vertex -23.2667952181911 37.70881293801531 2.07287683795805
    vertex -25.455074652311822 38.24909619874287 2.0726580556860728
    vertex -22.971671687324672 37.83105710707562 2.07287683795805
  endloop
endfacet
facet normal -1.9829250535796422e-17 -8.429727325232823e-05 -0.9999999964469848
  outer loop
    vertex -22.971671687324672 37.83105710707562 2.07287683795805
    vertex -25.455074652311822 38.24909619874287 2.0726580556860728
    vertex -19.882571884890492 38.24909221070161 2.0726580560222536
  endloop
endfacet
facet normal -1.9829250535796422e-17 -8.429727325232823e-05 -0.9999999964469848
  outer loop
    vertex -22.971671687324672 37.83105710707562 2.07287683795805
    vertex -19.882571884890492 38.24909221070161 2.0726580560222536
    vertex -22.65496512780963 37.872752316638085 2.07287683795805
  endloop
endfacet
facet normal -1.9829250535796422e-17 -8.429727325232823e-05 -0.9999999964469848
  outer loop
    vertex -22.65496512780963 37.872752316638085 2.07287683795805
    vertex -19.882571884890492 38.24909221070161 2.0726580560222536
    vertex -22.338258568294588 37.83105710707562 2.07287683795805
  endloop
endfacet
facet normal -1.9829250535796422e-17 -8.429727325232823e-05 -0.9999999964469848
  outer loop
    vertex -22.338258568294588 37.83105710707562 2.07287683795805
    vertex -19.882571884890492 38.24909221070161 2.0726580560222536
    vertex -22.04313503742816 37.70881293801531 2.07287683795805
  endloop
endfacet
facet normal -1.9829250535796422e-17 -8.429727325232823e-05 -0.9999999964469848
  outer loop
    vertex -22.04313503742816 37.70881293801531 2.07287683795805
    vertex -19.882571884890492 38.24909221070161 2.0726580560222536
    vertex -21.7897067161242 37.51435054756058 2.07287683795805
  endloop
endfacet
facet normal -1.9829250535796422e-17 -8.429727325232823e-05 -0.9999999964469848
  outer loop
    vertex -21.7897067161242 37.51435054756058 2.07287683795805
    vertex -19.882571884890492 38.24909221070161 2.0726580560222536
    vertex -21.59524432566947 37.26092222625662 2.07287683795805
  endloop
endfacet
facet normal -1.9829250535796422e-17 -8.429727325232823e-05 -0.9999999964469848
  outer loop
    vertex -21.59524432566947 37.26092222625662 2.07287683795805
    vertex -19.882571884890492 38.24909221070161 2.0726580560222536
    vertex -21.47300015660916 36.96579869539019 2.07287683795805
  endloop
endfacet
facet normal -1.9829250535796422e-17 -8.429727325232823e-05 -0.9999999964469848
  outer loop
    vertex -21.47300015660916 36.96579869539019 2.07287683795805
    vertex -19.882571884890492 38.24909221070161 2.0726580560222536
    vertex -21.43130494704669 36.64909213587515 2.07287683795805
  endloop
endfacet
facet normal -1.9829250535796422e-17 -8.429727325232823e-05 -0.9999999964469848
  outer loop
    vertex -21.43130494704669 36.64909213587515 2.07287683795805
    vertex -19.882571884890492 38.24909221070161 2.0726580560222536
    vertex -19.882579007301292 34.24909217040862 2.0729952451198574
  endloop
endfacet
facet normal -1.9829250535796422e-17 -8.429727325232823e-05 -0.9999999964469848
  outer loop
    vertex -25.455081774722622 34.24909615844988 2.0729952447836766
    vertex -22.97167168732467 35.46712716467468 2.07287683795805
    vertex -19.882579007301292 34.24909217040862 2.0729952451198574
  endloop
endfacet
facet normal -1.9829250535796422e-17 -8.429727325232823e-05 -0.9999999964469848
  outer loop
    vertex -22.97167168732467 35.46712716467468 2.07287683795805
    vertex -25.455081774722622 34.24909615844988 2.0729952447836766
    vertex -23.2667952181911 35.58937133373499 2.07287683795805
  endloop
endfacet
facet normal -1.9829250535796422e-17 -8.429727325232823e-05 -0.9999999964469848
  outer loop
    vertex -23.2667952181911 35.58937133373499 2.07287683795805
    vertex -25.455081774722622 34.24909615844988 2.0729952447836766
    vertex -23.520223539495056 35.78383372418972 2.07287683795805
  endloop
endfacet
facet normal -1.9829250535796422e-17 -8.429727325232823e-05 -0.9999999964469848
  outer loop
    vertex -23.520223539495056 35.78383372418972 2.07287683795805
    vertex -25.455081774722622 34.24909615844988 2.0729952447836766
    vertex -25.455074652311822 38.24909619874287 2.0726580556860728
  endloop
endfacet
facet normal -1.9829250535796422e-17 -8.429727325232823e-05 -0.9999999964469848
  outer loop
    vertex -23.520223539495056 35.78383372418972 2.07287683795805
    vertex -25.455074652311822 38.24909619874287 2.0726580556860728
    vertex -23.71468592994979 36.037262045493684 2.07287683795805
  endloop
endfacet
facet normal -1.9829250535796422e-17 -8.429727325232823e-05 -0.9999999964469848
  outer loop
    vertex -23.71468592994979 36.037262045493684 2.07287683795805
    vertex -25.455074652311822 38.24909619874287 2.0726580556860728
    vertex -23.8369300990101 36.3323855763601 2.07287683795805
  endloop
endfacet
facet normal -1.9829250535796422e-17 -8.429727325232823e-05 -0.9999999964469848
  outer loop
    vertex -23.8369300990101 36.3323855763601 2.07287683795805
    vertex -25.455074652311822 38.24909619874287 2.0726580556860728
    vertex -23.878625308572566 36.64909213587515 2.07287683795805
  endloop
endfacet
facet normal -1.9829250535796422e-17 -8.429727325232823e-05 -0.9999999964469848
  outer loop
    vertex -19.882579007301292 34.24909217040862 2.0729952451198574
    vertex -22.97167168732467 35.46712716467468 2.07287683795805
    vertex -22.65496512780963 35.42543195511221 2.07287683795805
  endloop
endfacet
facet normal -1.9829250535796422e-17 -8.429727325232823e-05 -0.9999999964469848
  outer loop
    vertex -19.882579007301292 34.24909217040862 2.0729952451198574
    vertex -22.65496512780963 35.42543195511221 2.07287683795805
    vertex -22.338258568294588 35.46712716467468 2.07287683795805
  endloop
endfacet
facet normal -1.9829250535796422e-17 -8.429727325232823e-05 -0.9999999964469848
  outer loop
    vertex -19.882579007301292 34.24909217040862 2.0729952451198574
    vertex -22.338258568294588 35.46712716467468 2.07287683795805
    vertex -22.04313503742816 35.58937133373499 2.07287683795805
  endloop
endfacet
facet normal -1.9829250535796422e-17 -8.429727325232823e-05 -0.9999999964469848
  outer loop
    vertex -19.882579007301292 34.24909217040862 2.0729952451198574
    vertex -22.04313503742816 35.58937133373499 2.07287683795805
    vertex -21.7897067161242 35.78383372418972 2.07287683795805
  endloop
endfacet
facet normal -1.9829250535796422e-17 -8.429727325232823e-05 -0.9999999964469848
  outer loop
    vertex -19.882579007301292 34.24909217040862 2.0729952451198574
    vertex -21.7897067161242 35.78383372418972 2.07287683795805
    vertex -21.595244325669466 36.037262045493684 2.07287683795805
  endloop
endfacet
facet normal -1.9829250535796422e-17 -8.429727325232823e-05 -0.9999999964469848
  outer loop
    vertex -19.882579007301292 34.24909217040862 2.0729952451198574
    vertex -21.595244325669466 36.037262045493684 2.07287683795805
    vertex -21.473000156609157 36.3323855763601 2.07287683795805
  endloop
endfacet
facet normal -1.9829250535796422e-17 -8.429727325232823e-05 -0.9999999964469848
  outer loop
    vertex -19.882579007301292 34.24909217040862 2.0729952451198574
    vertex -21.473000156609157 36.3323855763601 2.07287683795805
    vertex -21.43130494704669 36.64909213587515 2.07287683795805
  endloop
endfacet
facet normal -0.9999999998141083 -1.6351062053466884e-05 1.0218918862565889e-05
  outer loop
    vertex -26.355069989898514 39.24904658992514 3.073297846395282
    vertex -26.355081774802144 33.24909217040862 0.47299521666854055
    vertex -26.355069989898514 33.24904659908196 3.072995244012043
  endloop
endfacet
facet normal -0.9999999998141083 -1.6351062053466884e-05 1.0218918862565889e-05
  outer loop
    vertex -26.355081774802144 33.24909217040862 0.47299521666854055
    vertex -26.355069989898514 39.24904658992514 3.073297846395282
    vertex -26.35511447692641 39.24918899401634 0.47329781905177876
  endloop
endfacet
facet normal 3.571190783688181e-07 0.9999999985003845 5.476407520194456e-05
  outer loop
    vertex -26.35511447692641 39.24918899401634 0.47329781905177876
    vertex -17.43583147744189 39.24917627455869 3.072903803136652
    vertex -17.436098690005473 39.249186060066194 0.4723248074784147
  endloop
endfacet
facet normal 3.571190783688181e-07 0.9999999985003845 5.476407520194456e-05
  outer loop
    vertex -17.43583147744189 39.24917627455869 3.072903803136652
    vertex -26.35511447692641 39.24918899401634 0.47329781905177876
    vertex -26.355069989898514 39.24904658992514 3.073297846395282
  endloop
endfacet
facet normal -0.00017144362469702958 0.9999999853035049 2.709296532071098e-07
  outer loop
    vertex -18.93588698034535 35.65114580149672 0.4724268404230186
    vertex -17.436875037732587 35.65140252638746 1.4722045898821203
    vertex -17.436875037732587 35.65140252638746 0.47228448655771926
  endloop
endfacet
facet normal -0.00017144362469702958 0.9999999853035049 2.709296532071098e-07
  outer loop
    vertex -17.436875037732587 35.65140252638746 1.4722045898821203
    vertex -18.93588698034535 35.65114580149672 0.4724268404230186
    vertex -18.93687445876208 35.65114509038335 1.4709079288983216
  endloop
endfacet
facet normal -0.9999999969311859 1.7740002670389202e-06 -7.832292909548143e-05
  outer loop
    vertex -19.882579007301292 34.24909217040862 2.0729952451198574
    vertex -19.882524891205453 38.24905113726499 1.4726580521771402
    vertex -19.882532013616252 34.249051096971996 1.4729952412747442
  endloop
endfacet
facet normal -0.9999999969311859 1.7740002670389202e-06 -7.832292909548143e-05
  outer loop
    vertex -19.882524891205453 38.24905113726499 1.4726580521771402
    vertex -19.882579007301292 34.24909217040862 2.0729952451198574
    vertex -19.882571884890492 38.24909221070161 2.0726580560222536
  endloop
endfacet
facet normal 0.0004009589074734594 -0.9999997996179801 0.0004898938192963188
  outer loop
    vertex -17.436959917002604 37.65321016444911 1.4722044644337033
    vertex -18.93697105567256 37.65211879236552 0.4724774003387057
    vertex -17.436098688894518 37.65303942997846 0.47233488653131245
  endloop
endfacet
facet normal 0.0004009589074734594 -0.9999997996179801 0.0004898938192963188
  outer loop
    vertex -18.93697105567256 37.65211879236552 0.4724774003387057
    vertex -17.436959917002604 37.65321016444911 1.4722044644337033
    vertex -18.936959162874235 37.65292709801642 1.4707084130202581
  endloop
endfacet
facet normal 0.9999999889442855 4.6526685990473405e-05 -0.0001412327734416088
  outer loop
    vertex -25.45511447653214 34.249192990282424 0.47301061592820004
    vertex -25.455074652311822 38.24909619874287 2.0726580556860728
    vertex -25.455081774722622 34.24909615844988 2.0729952447836766
  endloop
endfacet
facet normal 0.9999999889442855 4.6526685990473405e-05 -0.0001412327734416088
  outer loop
    vertex -25.455074652311822 38.24909619874287 2.0726580556860728
    vertex -25.45511447653214 34.249192990282424 0.47301061592820004
    vertex -25.45549384466875 38.248164231859114 0.47311149086820103
  endloop
endfacet
facet normal 0.9659258262890686 -0.25881904510251963 0.0
  outer loop
    vertex -23.8369300990101 36.96579869539019 2.07287683795805
    vertex -23.878625308572566 36.64909213587515 3.0728768379580496
    vertex -23.878625308572566 36.64909213587515 2.07287683795805
  endloop
endfacet
facet normal 1.0 4.366443848866983e-15 0.0
  outer loop
    vertex -23.878625308572566 36.64909213587515 3.0728768379580496
    vertex -23.8369300990101 36.96579869539019 2.07287683795805
    vertex -23.8369300990101 36.96579869539019 3.0728768379580496
  endloop
endfacet
facet normal 0.8660254037844393 -0.49999999999999895 0.0
  outer loop
    vertex -23.71468592994979 37.26092222625662 2.07287683795805
    vertex -23.8369300990101 36.96579869539019 3.0728768379580496
    vertex -23.8369300990101 36.96579869539019 2.07287683795805
  endloop
endfacet
facet normal 0.9659258262890686 -0.25881904510251963 0.0
  outer loop
    vertex -23.8369300990101 36.96579869539019 3.0728768379580496
    vertex -23.71468592994979 37.26092222625662 2.07287683795805
    vertex -23.71468592994979 37.26092222625662 3.0728768379580496
  endloop
endfacet
facet normal 0.7071067811865475 -0.7071067811865475 0.0
  outer loop
    vertex -23.52022353949506 37.51435054756058 2.07287683795805
    vertex -23.71468592994979 37.26092222625662 3.0728768379580496
    vertex -23.71468592994979 37.26092222625662 2.07287683795805
  endloop
endfacet
facet normal 0.8660254037844393 -0.49999999999999895 0.0
  outer loop
    vertex -23.71468592994979 37.26092222625662 3.0728768379580496
    vertex -23.52022353949506 37.51435054756058 2.07287683795805
    vertex -23.52022353949506 37.51435054756058 3.0728768379580496
  endloop
endfacet
facet normal 0.4999999999999955 -0.8660254037844413 0.0
  outer loop
    vertex -23.2667952181911 37.70881293801531 3.0728768379580496
    vertex -23.52022353949506 37.51435054756058 2.07287683795805
    vertex -23.2667952181911 37.70881293801531 2.07287683795805
  endloop
endfacet
facet normal 0.7071067811865475 -0.7071067811865475 0.0
  outer loop
    vertex -23.52022353949506 37.51435054756058 2.07287683795805
    vertex -23.2667952181911 37.70881293801531 3.0728768379580496
    vertex -23.52022353949506 37.51435054756058 3.0728768379580496
  endloop
endfacet
facet normal 0.2588190451025199 -0.9659258262890685 0.0
  outer loop
    vertex -22.971671687324672 37.83105710707562 3.0728768379580496
    vertex -23.2667952181911 37.70881293801531 2.07287683795805
    vertex -22.971671687324672 37.83105710707562 2.07287683795805
  endloop
endfacet
facet normal 0.4999999999999955 -0.8660254037844413 0.0
  outer loop
    vertex -23.2667952181911 37.70881293801531 2.07287683795805
    vertex -22.971671687324672 37.83105710707562 3.0728768379580496
    vertex -23.2667952181911 37.70881293801531 3.0728768379580496
  endloop
endfacet
facet normal -5.703110333214021e-16 -1.0 0.0
  outer loop
    vertex -22.65496512780963 37.872752316638085 3.0728768379580496
    vertex -22.971671687324672 37.83105710707562 2.07287683795805
    vertex -22.65496512780963 37.872752316638085 2.07287683795805
  endloop
endfacet
facet normal 0.2588190451025199 -0.9659258262890685 0.0
  outer loop
    vertex -22.971671687324672 37.83105710707562 2.07287683795805
    vertex -22.65496512780963 37.872752316638085 3.0728768379580496
    vertex -22.971671687324672 37.83105710707562 3.0728768379580496
  endloop
endfacet
facet normal -0.2588190451025188 -0.9659258262890688 0.0
  outer loop
    vertex -22.338258568294588 37.83105710707562 3.0728768379580496
    vertex -22.65496512780963 37.872752316638085 2.07287683795805
    vertex -22.338258568294588 37.83105710707562 2.07287683795805
  endloop
endfacet
facet normal -5.703110333214021e-16 -1.0 0.0
  outer loop
    vertex -22.65496512780963 37.872752316638085 2.07287683795805
    vertex -22.338258568294588 37.83105710707562 3.0728768379580496
    vertex -22.65496512780963 37.872752316638085 3.0728768379580496
  endloop
endfacet
facet normal -0.4999999999999963 -0.8660254037844408 0.0
  outer loop
    vertex -22.04313503742816 37.70881293801531 3.0728768379580496
    vertex -22.338258568294588 37.83105710707562 2.07287683795805
    vertex -22.04313503742816 37.70881293801531 2.07287683795805
  endloop
endfacet
facet normal -0.2588190451025188 -0.9659258262890688 0.0
  outer loop
    vertex -22.338258568294588 37.83105710707562 2.07287683795805
    vertex -22.04313503742816 37.70881293801531 3.0728768379580496
    vertex -22.338258568294588 37.83105710707562 3.0728768379580496
  endloop
endfacet
facet normal -0.7071067811865495 -0.7071067811865457 0.0
  outer loop
    vertex -21.7897067161242 37.51435054756058 3.0728768379580496
    vertex -22.04313503742816 37.70881293801531 2.07287683795805
    vertex -21.7897067161242 37.51435054756058 2.07287683795805
  endloop
endfacet
facet normal -0.4999999999999963 -0.8660254037844408 0.0
  outer loop
    vertex -22.04313503742816 37.70881293801531 2.07287683795805
    vertex -21.7897067161242 37.51435054756058 3.0728768379580496
    vertex -22.04313503742816 37.70881293801531 3.0728768379580496
  endloop
endfacet
facet normal -0.7071067811865495 -0.7071067811865457 0.0
  outer loop
    vertex -21.7897067161242 37.51435054756058 3.0728768379580496
    vertex -21.59524432566947 37.26092222625662 2.07287683795805
    vertex -21.59524432566947 37.26092222625662 3.0728768379580496
  endloop
endfacet
facet normal -0.8660254037844393 -0.49999999999999895 0.0
  outer loop
    vertex -21.59524432566947 37.26092222625662 2.07287683795805
    vertex -21.7897067161242 37.51435054756058 3.0728768379580496
    vertex -21.7897067161242 37.51435054756058 2.07287683795805
  endloop
endfacet
facet normal -0.8660254037844393 -0.49999999999999895 0.0
  outer loop
    vertex -21.59524432566947 37.26092222625662 3.0728768379580496
    vertex -21.47300015660916 36.96579869539019 2.07287683795805
    vertex -21.47300015660916 36.96579869539019 3.0728768379580496
  endloop
endfacet
facet normal -0.9659258262890674 -0.2588190451025238 0.0
  outer loop
    vertex -21.47300015660916 36.96579869539019 2.07287683795805
    vertex -21.59524432566947 37.26092222625662 3.0728768379580496
    vertex -21.59524432566947 37.26092222625662 2.07287683795805
  endloop
endfacet
facet normal -0.9659258262890674 -0.2588190451025238 0.0
  outer loop
    vertex -21.47300015660916 36.96579869539019 3.0728768379580496
    vertex -21.43130494704669 36.64909213587515 2.07287683795805
    vertex -21.43130494704669 36.64909213587515 3.0728768379580496
  endloop
endfacet
facet normal -1.0 -4.366443848866983e-15 0.0
  outer loop
    vertex -21.43130494704669 36.64909213587515 2.07287683795805
    vertex -21.47300015660916 36.96579869539019 3.0728768379580496
    vertex -21.47300015660916 36.96579869539019 2.07287683795805
  endloop
endfacet
facet normal -1.0 -4.366443848866983e-15 0.0
  outer loop
    vertex -21.43130494704669 36.64909213587515 3.0728768379580496
    vertex -21.473000156609157 36.3323855763601 2.07287683795805
    vertex -21.473000156609157 36.3323855763601 3.0728768379580496
  endloop
endfacet
facet normal -0.9659258262890686 0.25881904510251963 0.0
  outer loop
    vertex -21.473000156609157 36.3323855763601 2.07287683795805
    vertex -21.43130494704669 36.64909213587515 3.0728768379580496
    vertex -21.43130494704669 36.64909213587515 2.07287683795805
  endloop
endfacet
facet normal -0.9659258262890686 0.25881904510251963 0.0
  outer loop
    vertex -21.473000156609157 36.3323855763601 3.0728768379580496
    vertex -21.595244325669466 36.037262045493684 2.07287683795805
    vertex -21.595244325669466 36.037262045493684 3.0728768379580496
  endloop
endfacet
facet normal -0.8660254037844375 0.5000000000000021 0.0
  outer loop
    vertex -21.595244325669466 36.037262045493684 2.07287683795805
    vertex -21.473000156609157 36.3323855763601 3.0728768379580496
    vertex -21.473000156609157 36.3323855763601 2.07287683795805
  endloop
endfacet
facet normal -0.8660254037844375 0.5000000000000021 0.0
  outer loop
    vertex -21.595244325669466 36.037262045493684 3.0728768379580496
    vertex -21.7897067161242 35.78383372418972 2.07287683795805
    vertex -21.7897067161242 35.78383372418972 3.0728768379580496
  endloop
endfacet
facet normal -0.707106781186547 0.7071067811865481 0.0
  outer loop
    vertex -21.7897067161242 35.78383372418972 2.07287683795805
    vertex -21.595244325669466 36.037262045493684 3.0728768379580496
    vertex -21.595244325669466 36.037262045493684 2.07287683795805
  endloop
endfacet
facet normal -0.4999999999999963 0.8660254037844408 0.0
  outer loop
    vertex -22.04313503742816 35.58937133373499 3.0728768379580496
    vertex -21.7897067161242 35.78383372418972 2.07287683795805
    vertex -22.04313503742816 35.58937133373499 2.07287683795805
  endloop
endfacet
facet normal -0.707106781186547 0.7071067811865481 0.0
  outer loop
    vertex -21.7897067161242 35.78383372418972 2.07287683795805
    vertex -22.04313503742816 35.58937133373499 3.0728768379580496
    vertex -21.7897067161242 35.78383372418972 3.0728768379580496
  endloop
endfacet
facet normal -0.2588190451025188 0.9659258262890688 0.0
  outer loop
    vertex -22.338258568294588 35.46712716467468 3.0728768379580496
    vertex -22.04313503742816 35.58937133373499 2.07287683795805
    vertex -22.338258568294588 35.46712716467468 2.07287683795805
  endloop
endfacet
facet normal -0.4999999999999963 0.8660254037844408 0.0
  outer loop
    vertex -22.04313503742816 35.58937133373499 2.07287683795805
    vertex -22.338258568294588 35.46712716467468 3.0728768379580496
    vertex -22.04313503742816 35.58937133373499 3.0728768379580496
  endloop
endfacet
facet normal 0.0 1.0 0.0
  outer loop
    vertex -22.65496512780963 35.42543195511221 3.0728768379580496
    vertex -22.338258568294588 35.46712716467468 2.07287683795805
    vertex -22.65496512780963 35.42543195511221 2.07287683795805
  endloop
endfacet
facet normal -0.2588190451025188 0.9659258262890688 0.0
  outer loop
    vertex -22.338258568294588 35.46712716467468 2.07287683795805
    vertex -22.65496512780963 35.42543195511221 3.0728768379580496
    vertex -22.338258568294588 35.46712716467468 3.0728768379580496
  endloop
endfacet
facet normal 0.2588190451025188 0.9659258262890688 0.0
  outer loop
    vertex -22.97167168732467 35.46712716467468 3.0728768379580496
    vertex -22.65496512780963 35.42543195511221 2.07287683795805
    vertex -22.97167168732467 35.46712716467468 2.07287683795805
  endloop
endfacet
facet normal 0.0 1.0 0.0
  outer loop
    vertex -22.65496512780963 35.42543195511221 2.07287683795805
    vertex -22.97167168732467 35.46712716467468 3.0728768379580496
    vertex -22.65496512780963 35.42543195511221 3.0728768379580496
  endloop
endfacet
facet normal 0.4999999999999963 0.8660254037844408 0.0
  outer loop
    vertex -23.2667952181911 35.58937133373499 3.0728768379580496
    vertex -22.97167168732467 35.46712716467468 2.07287683795805
    vertex -23.2667952181911 35.58937133373499 2.07287683795805
  endloop
endfacet
facet normal 0.2588190451025188 0.9659258262890688 0.0
  outer loop
    vertex -22.97167168732467 35.46712716467468 2.07287683795805
    vertex -23.2667952181911 35.58937133373499 3.0728768379580496
    vertex -22.97167168732467 35.46712716467468 3.0728768379580496
  endloop
endfacet
facet normal 0.7071067811865495 0.7071067811865457 0.0
  outer loop
    vertex -23.520223539495056 35.78383372418972 3.0728768379580496
    vertex -23.2667952181911 35.58937133373499 2.07287683795805
    vertex -23.520223539495056 35.78383372418972 2.07287683795805
  endloop
endfacet
facet normal 0.4999999999999963 0.8660254037844408 0.0
  outer loop
    vertex -23.2667952181911 35.58937133373499 2.07287683795805
    vertex -23.520223539495056 35.78383372418972 3.0728768379580496
    vertex -23.2667952181911 35.58937133373499 3.0728768379580496
  endloop
endfacet
facet normal 0.8660254037844393 0.49999999999999895 0.0
  outer loop
    vertex -23.71468592994979 36.037262045493684 2.07287683795805
    vertex -23.520223539495056 35.78383372418972 3.0728768379580496
    vertex -23.520223539495056 35.78383372418972 2.07287683795805
  endloop
endfacet
facet normal 0.7071067811865495 0.7071067811865457 0.0
  outer loop
    vertex -23.520223539495056 35.78383372418972 3.0728768379580496
    vertex -23.71468592994979 36.037262045493684 2.07287683795805
    vertex -23.71468592994979 36.037262045493684 3.0728768379580496
  endloop
endfacet
facet normal 0.9659258262890674 0.2588190451025238 0.0
  outer loop
    vertex -23.8369300990101 36.3323855763601 2.07287683795805
    vertex -23.71468592994979 36.037262045493684 3.0728768379580496
    vertex -23.71468592994979 36.037262045493684 2.07287683795805
  endloop
endfacet
facet normal 0.8660254037844393 0.49999999999999895 0.0
  outer loop
    vertex -23.71468592994979 36.037262045493684 3.0728768379580496
    vertex -23.8369300990101 36.3323855763601 2.07287683795805
    vertex -23.8369300990101 36.3323855763601 3.0728768379580496
  endloop
endfacet
facet normal 1.0 4.366443848866983e-15 0.0
  outer loop
    vertex -23.878625308572566 36.64909213587515 2.07287683795805
    vertex -23.8369300990101 36.3323855763601 3.0728768379580496
    vertex -23.8369300990101 36.3323855763601 2.07287683795805
  endloop
endfacet
facet normal 0.9659258262890674 0.2588190451025238 0.0
  outer loop
    vertex -23.8369300990101 36.3323855763601 3.0728768379580496
    vertex -23.878625308572566 36.64909213587515 2.07287683795805
    vertex -23.878625308572566 36.64909213587515 3.0728768379580496
  endloop
endfacet
facet normal -0.9999999216938663 -0.0003523113760787086 0.00018024692938338835
  outer loop
    vertex -18.936959162874235 37.65292709801642 1.4707084130202581
    vertex -18.937347157699726 38.2476752087078 0.4724924537345065
    vertex -18.93697105567256 37.65211879236552 0.4724774003387057
  endloop
endfacet
facet normal -0.9999999216938663 -0.0003523113760787086 0.00018024692938338835
  outer loop
    vertex -18.937347157699726 38.2476752087078 0.4724924537345065
    vertex -18.936959162874235 37.65292709801642 1.4707084130202581
    vertex -18.93700160251969 38.24826671905016 1.470708360896105
  endloop
endfacet
facet normal -0.9999976687957024 -0.0006702803130704069 -0.00205259042743224
  outer loop
    vertex -18.93687445876208 35.65114509038335 1.4709079288983216
    vertex -18.933883384109485 34.24957729095087 0.4723913078921373
    vertex -18.93700177767755 34.24909299149421 1.4709077513257514
  endloop
endfacet
facet normal -0.9999976687957024 -0.0006702803130704069 -0.00205259042743224
  outer loop
    vertex -18.933883384109485 34.24957729095087 0.4723913078921373
    vertex -18.93687445876208 35.65114509038335 1.4709079288983216
    vertex -18.93588698034535 35.65114580149672 0.4724268404230186
  endloop
endfacet
facet normal -9.481756165211747e-05 2.7333384866921143e-05 -0.9999999951312581
  outer loop
    vertex -26.35511447692641 39.24918899401634 0.47329781905177876
    vertex -25.45549384466875 38.248164231859114 0.47311149086820103
    vertex -26.355081774802144 33.24909217040862 0.47299521666854055
  endloop
endfacet
facet normal -9.481756165211747e-05 2.7333384866921143e-05 -0.9999999951312581
  outer loop
    vertex -25.45549384466875 38.248164231859114 0.47311149086820103
    vertex -26.35511447692641 39.24918899401634 0.47329781905177876
    vertex -17.436098690005473 39.249186060066194 0.4723248074784147
  endloop
endfacet
facet normal -9.481756165211747e-05 2.7333384866921143e-05 -0.9999999951312581
  outer loop
    vertex -25.45549384466875 38.248164231859114 0.47311149086820103
    vertex -17.436098690005473 39.249186060066194 0.4723248074784147
    vertex -18.937347157699726 38.2476752087078 0.4724924537345065
  endloop
endfacet
facet normal -9.481756165211747e-05 2.7333384866921143e-05 -0.9999999951312581
  outer loop
    vertex -18.937347157699726 38.2476752087078 0.4724924537345065
    vertex -17.436098690005473 39.249186060066194 0.4723248074784147
    vertex -18.93697105567256 37.65211879236552 0.4724774003387057
  endloop
endfacet
facet normal -9.481756165211747e-05 2.7333384866921143e-05 -0.9999999951312581
  outer loop
    vertex -18.93697105567256 37.65211879236552 0.4724774003387057
    vertex -17.436098690005473 39.249186060066194 0.4723248074784147
    vertex -17.436098688894518 37.65303942997846 0.47233488653131245
  endloop
endfacet
facet normal -9.481756165211747e-05 2.7333384866921143e-05 -0.9999999951312581
  outer loop
    vertex -17.436875037732587 35.65140252638746 0.47228448655771926
    vertex -18.933883384109485 34.24957729095087 0.4723913078921373
    vertex -18.93588698034535 35.65114580149672 0.4724268404230186
  endloop
endfacet
facet normal -9.481756165211747e-05 2.7333384866921143e-05 -0.9999999951312581
  outer loop
    vertex -18.933883384109485 34.24957729095087 0.4723913078921373
    vertex -17.436875037732587 35.65140252638746 0.47228448655771926
    vertex -17.436875037739842 33.24909217040862 0.47228439556547586
  endloop
endfacet
facet normal -9.481756165211747e-05 2.7333384866921143e-05 -0.9999999951312581
  outer loop
    vertex -26.355081774802144 33.24909217040862 0.47299521666854055
    vertex -25.45511447653214 34.249192990282424 0.47301061592820004
    vertex -17.436875037739842 33.24909217040862 0.47228439556547586
  endloop
endfacet
facet normal -9.481756165211747e-05 2.7333384866921143e-05 -0.9999999951312581
  outer loop
    vertex -25.45511447653214 34.249192990282424 0.47301061592820004
    vertex -26.355081774802144 33.24909217040862 0.47299521666854055
    vertex -25.45549384466875 38.248164231859114 0.47311149086820103
  endloop
endfacet
facet normal -9.481756165211747e-05 2.7333384866921143e-05 -0.9999999951312581
  outer loop
    vertex -17.436875037739842 33.24909217040862 0.47228439556547586
    vertex -25.45511447653214 34.249192990282424 0.47301061592820004
    vertex -18.933883384109485 34.24957729095087 0.4723913078921373
  endloop
endfacet
facet normal -1.4752804706170792e-05 0.9999999807885475 0.00019546165736914798
  outer loop
    vertex -25.45511447653214 34.249192990282424 0.47301061592820004
    vertex -18.93700177767755 34.24909299149421 1.4709077513257514
    vertex -18.933883384109485 34.24957729095087 0.4723913078921373
  endloop
endfacet
facet normal -1.4752804706170792e-05 0.9999999807885475 0.00019546165736914798
  outer loop
    vertex -18.93700177767755 34.24909299149421 1.4709077513257514
    vertex -25.45511447653214 34.249192990282424 0.47301061592820004
    vertex -19.882532013616252 34.249051096971996 1.4729952412747442
  endloop
endfacet
facet normal -1.4752804706170792e-05 0.9999999807885475 0.00019546165736914798
  outer loop
    vertex -19.882532013616252 34.249051096971996 1.4729952412747442
    vertex -25.45511447653214 34.249192990282424 0.47301061592820004
    vertex -25.455081774722622 34.24909615844988 2.0729952447836766
  endloop
endfacet
facet normal -1.4752804706170792e-05 0.9999999807885475 0.00019546165736914798
  outer loop
    vertex -19.882532013616252 34.249051096971996 1.4729952412747442
    vertex -25.455081774722622 34.24909615844988 2.0729952447836766
    vertex -19.882579007301292 34.24909217040862 2.0729952451198574
  endloop
endfacet
facet normal -8.144601669101682e-10 -0.9999999998464335 -1.7525210584252106e-05
  outer loop
    vertex -17.436607825176257 33.24908238490112 3.072863391223713
    vertex -26.355081774802144 33.24909217040862 0.47299521666854055
    vertex -17.436875037739842 33.24909217040862 0.47228439556547586
  endloop
endfacet
facet normal -8.144601669101682e-10 -0.9999999998464335 -1.7525210584252106e-05
  outer loop
    vertex -26.355081774802144 33.24909217040862 0.47299521666854055
    vertex -17.436607825176257 33.24908238490112 3.072863391223713
    vertex -26.355069989898514 33.24904659908196 3.072995244012043
  endloop
endfacet
facet normal -3.929218693202078e-05 -0.9999997285875026 0.0007357180472914877
  outer loop
    vertex -18.93700160251969 38.24826671905016 1.470708360896105
    vertex -25.45549384466875 38.248164231859114 0.47311149086820103
    vertex -18.937347157699726 38.2476752087078 0.4724924537345065
  endloop
endfacet
facet normal -3.929218693202078e-05 -0.9999997285875026 0.0007357180472914877
  outer loop
    vertex -25.45549384466875 38.248164231859114 0.47311149086820103
    vertex -18.93700160251969 38.24826671905016 1.470708360896105
    vertex -19.882524891205453 38.24905113726499 1.4726580521771402
  endloop
endfacet
facet normal -3.929218693202078e-05 -0.9999997285875026 0.0007357180472914877
  outer loop
    vertex -25.45549384466875 38.248164231859114 0.47311149086820103
    vertex -19.882524891205453 38.24905113726499 1.4726580521771402
    vertex -25.455074652311822 38.24909619874287 2.0726580556860728
  endloop
endfacet
facet normal -3.929218693202078e-05 -0.9999997285875026 0.0007357180472914877
  outer loop
    vertex -25.455074652311822 38.24909619874287 2.0726580556860728
    vertex -19.882524891205453 38.24905113726499 1.4726580521771402
    vertex -19.882571884890492 38.24909221070161 2.0726580560222536
  endloop
endfacet
facet normal -8.228156053642211e-05 -7.090671179980852e-05 -0.9999999941009914
  outer loop
    vertex -19.882524891205453 38.24905113726499 1.4726580521771402
    vertex -18.93700177767755 34.24909299149421 1.4709077513257514
    vertex -19.882532013616252 34.249051096971996 1.4729952412747442
  endloop
endfacet
facet normal -8.228156053642211e-05 -7.090671179980852e-05 -0.9999999941009914
  outer loop
    vertex -18.93700177767755 34.24909299149421 1.4709077513257514
    vertex -19.882524891205453 38.24905113726499 1.4726580521771402
    vertex -18.93700160251969 38.24826671905016 1.470708360896105
  endloop
endfacet
facet normal -8.228156053642211e-05 -7.090671179980852e-05 -0.9999999941009914
  outer loop
    vertex -18.93700177767755 34.24909299149421 1.4709077513257514
    vertex -18.93700160251969 38.24826671905016 1.470708360896105
    vertex -18.93687445876208 35.65114509038335 1.4709079288983216
  endloop
endfacet
facet normal -8.228156053642211e-05 -7.090671179980852e-05 -0.9999999941009914
  outer loop
    vertex -18.93687445876208 35.65114509038335 1.4709079288983216
    vertex -18.93700160251969 38.24826671905016 1.470708360896105
    vertex -18.936959162874235 37.65292709801642 1.4707084130202581
  endloop
endfacet
facet normal -8.228156053642211e-05 -7.090671179980852e-05 -0.9999999941009914
  outer loop
    vertex -18.93687445876208 35.65114509038335 1.4709079288983216
    vertex -18.936959162874235 37.65292709801642 1.4707084130202581
    vertex -17.436959917002604 37.65321016444911 1.4722044644337033
  endloop
endfacet
facet normal -8.228156053642211e-05 -7.090671179980852e-05 -0.9999999941009914
  outer loop
    vertex -18.93687445876208 35.65114509038335 1.4709079288983216
    vertex -17.436959917002604 37.65321016444911 1.4722044644337033
    vertex -17.436875037732587 35.65140252638746 1.4722045898821203
  endloop
endfacet
facet normal 1.3758552081364561e-05 -5.2203426898265695e-05 0.9999999985427523
  outer loop
    vertex -26.355069989898514 33.24904659908196 3.072995244012043
    vertex -23.520223539495056 35.78383372418972 3.0728768379580496
    vertex -26.355069989898514 39.24904658992514 3.073297846395282
  endloop
endfacet
facet normal 1.3758552081364561e-05 -5.2203426898265695e-05 0.9999999985427523
  outer loop
    vertex -23.520223539495056 35.78383372418972 3.0728768379580496
    vertex -26.355069989898514 33.24904659908196 3.072995244012043
    vertex -23.2667952181911 35.58937133373499 3.0728768379580496
  endloop
endfacet
facet normal 1.3758552081364561e-05 -5.2203426898265695e-05 0.9999999985427523
  outer loop
    vertex -23.2667952181911 35.58937133373499 3.0728768379580496
    vertex -26.355069989898514 33.24904659908196 3.072995244012043
    vertex -22.97167168732467 35.46712716467468 3.0728768379580496
  endloop
endfacet
facet normal 1.3758552081364561e-05 -5.2203426898265695e-05 0.9999999985427523
  outer loop
    vertex -22.97167168732467 35.46712716467468 3.0728768379580496
    vertex -26.355069989898514 33.24904659908196 3.072995244012043
    vertex -17.436607825176257 33.24908238490112 3.072863391223713
  endloop
endfacet
facet normal 1.3758552081364561e-05 -5.2203426898265695e-05 0.9999999985427523
  outer loop
    vertex -26.355069989898514 39.24904658992514 3.073297846395282
    vertex -23.520223539495056 35.78383372418972 3.0728768379580496
    vertex -23.71468592994979 36.037262045493684 3.0728768379580496
  endloop
endfacet
facet normal 1.3758552081364561e-05 -5.2203426898265695e-05 0.9999999985427523
  outer loop
    vertex -26.355069989898514 39.24904658992514 3.073297846395282
    vertex -23.71468592994979 36.037262045493684 3.0728768379580496
    vertex -23.8369300990101 36.3323855763601 3.0728768379580496
  endloop
endfacet
facet normal 1.3758552081364561e-05 -5.2203426898265695e-05 0.9999999985427523
  outer loop
    vertex -26.355069989898514 39.24904658992514 3.073297846395282
    vertex -23.8369300990101 36.3323855763601 3.0728768379580496
    vertex -23.878625308572566 36.64909213587515 3.0728768379580496
  endloop
endfacet
facet normal 1.3758552081364561e-05 -5.2203426898265695e-05 0.9999999985427523
  outer loop
    vertex -22.97167168732467 35.46712716467468 3.0728768379580496
    vertex -17.436607825176257 33.24908238490112 3.072863391223713
    vertex -22.65496512780963 35.42543195511221 3.0728768379580496
  endloop
endfacet
facet normal 1.3758552081364561e-05 -5.2203426898265695e-05 0.9999999985427523
  outer loop
    vertex -22.65496512780963 35.42543195511221 3.0728768379580496
    vertex -17.436607825176257 33.24908238490112 3.072863391223713
    vertex -22.338258568294588 35.46712716467468 3.0728768379580496
  endloop
endfacet
facet normal 1.3758552081364561e-05 -5.2203426898265695e-05 0.9999999985427523
  outer loop
    vertex -22.338258568294588 35.46712716467468 3.0728768379580496
    vertex -17.436607825176257 33.24908238490112 3.072863391223713
    vertex -22.04313503742816 35.58937133373499 3.0728768379580496
  endloop
endfacet
facet normal 1.3758552081364561e-05 -5.2203426898265695e-05 0.9999999985427523
  outer loop
    vertex -22.04313503742816 35.58937133373499 3.0728768379580496
    vertex -17.436607825176257 33.24908238490112 3.072863391223713
    vertex -21.7897067161242 35.78383372418972 3.0728768379580496
  endloop
endfacet
facet normal 1.3758552081364561e-05 -5.2203426898265695e-05 0.9999999985427523
  outer loop
    vertex -21.7897067161242 35.78383372418972 3.0728768379580496
    vertex -17.436607825176257 33.24908238490112 3.072863391223713
    vertex -21.595244325669466 36.037262045493684 3.0728768379580496
  endloop
endfacet
facet normal 1.3758552081364561e-05 -5.2203426898265695e-05 0.9999999985427523
  outer loop
    vertex -21.595244325669466 36.037262045493684 3.0728768379580496
    vertex -17.436607825176257 33.24908238490112 3.072863391223713
    vertex -21.473000156609157 36.3323855763601 3.0728768379580496
  endloop
endfacet
facet normal 1.3758552081364561e-05 -5.2203426898265695e-05 0.9999999985427523
  outer loop
    vertex -21.473000156609157 36.3323855763601 3.0728768379580496
    vertex -17.436607825176257 33.24908238490112 3.072863391223713
    vertex -21.43130494704669 36.64909213587515 3.0728768379580496
  endloop
endfacet
facet normal 1.3758552081364561e-05 -5.2203426898265695e-05 0.9999999985427523
  outer loop
    vertex -26.355069989898514 39.24904658992514 3.073297846395282
    vertex -22.971671687324672 37.83105710707562 3.0728768379580496
    vertex -17.43583147744189 39.24917627455869 3.072903803136652
  endloop
endfacet
facet normal 1.3758552081364561e-05 -5.2203426898265695e-05 0.9999999985427523
  outer loop
    vertex -22.971671687324672 37.83105710707562 3.0728768379580496
    vertex -26.355069989898514 39.24904658992514 3.073297846395282
    vertex -23.2667952181911 37.70881293801531 3.0728768379580496
  endloop
endfacet
facet normal 1.3758552081364561e-05 -5.2203426898265695e-05 0.9999999985427523
  outer loop
    vertex -23.2667952181911 37.70881293801531 3.0728768379580496
    vertex -26.355069989898514 39.24904658992514 3.073297846395282
    vertex -23.52022353949506 37.51435054756058 3.0728768379580496
  endloop
endfacet
facet normal 1.3758552081364561e-05 -5.2203426898265695e-05 0.9999999985427523
  outer loop
    vertex -23.52022353949506 37.51435054756058 3.0728768379580496
    vertex -26.355069989898514 39.24904658992514 3.073297846395282
    vertex -23.71468592994979 37.26092222625662 3.0728768379580496
  endloop
endfacet
facet normal 1.3758552081364561e-05 -5.2203426898265695e-05 0.9999999985427523
  outer loop
    vertex -23.71468592994979 37.26092222625662 3.0728768379580496
    vertex -26.355069989898514 39.24904658992514 3.073297846395282
    vertex -23.8369300990101 36.96579869539019 3.0728768379580496
  endloop
endfacet
facet normal 1.3758552081364561e-05 -5.2203426898265695e-05 0.9999999985427523
  outer loop
    vertex -23.8369300990101 36.96579869539019 3.0728768379580496
    vertex -26.355069989898514 39.24904658992514 3.073297846395282
    vertex -23.878625308572566 36.64909213587515 3.0728768379580496
  endloop
endfacet
facet normal 1.3758552081364561e-05 -5.2203426898265695e-05 0.9999999985427523
  outer loop
    vertex -17.43583147744189 39.24917627455869 3.072903803136652
    vertex -22.971671687324672 37.83105710707562 3.0728768379580496
    vertex -22.65496512780963 37.872752316638085 3.0728768379580496
  endloop
endfacet
facet normal 1.3758552081364561e-05 -5.2203426898265695e-05 0.9999999985427523
  outer loop
    vertex -17.43583147744189 39.24917627455869 3.072903803136652
    vertex -22.65496512780963 37.872752316638085 3.0728768379580496
    vertex -22.338258568294588 37.83105710707562 3.0728768379580496
  endloop
endfacet
facet normal 1.3758552081364561e-05 -5.2203426898265695e-05 0.9999999985427523
  outer loop
    vertex -17.43583147744189 39.24917627455869 3.072903803136652
    vertex -22.338258568294588 37.83105710707562 3.0728768379580496
    vertex -22.04313503742816 37.70881293801531 3.0728768379580496
  endloop
endfacet
facet normal 1.3758552081364561e-05 -5.2203426898265695e-05 0.9999999985427523
  outer loop
    vertex -17.43583147744189 39.24917627455869 3.072903803136652
    vertex -22.04313503742816 37.70881293801531 3.0728768379580496
    vertex -21.7897067161242 37.51435054756058 3.0728768379580496
  endloop
endfacet
facet normal 1.3758552081364561e-05 -5.2203426898265695e-05 0.9999999985427523
  outer loop
    vertex -17.43583147744189 39.24917627455869 3.072903803136652
    vertex -21.7897067161242 37.51435054756058 3.0728768379580496
    vertex -21.59524432566947 37.26092222625662 3.0728768379580496
  endloop
endfacet
facet normal 1.3758552081364561e-05 -5.2203426898265695e-05 0.9999999985427523
  outer loop
    vertex -17.43583147744189 39.24917627455869 3.072903803136652
    vertex -21.59524432566947 37.26092222625662 3.0728768379580496
    vertex -21.47300015660916 36.96579869539019 3.0728768379580496
  endloop
endfacet
facet normal 1.3758552081364561e-05 -5.2203426898265695e-05 0.9999999985427523
  outer loop
    vertex -17.43583147744189 39.24917627455869 3.072903803136652
    vertex -21.47300015660916 36.96579869539019 3.0728768379580496
    vertex -21.43130494704669 36.64909213587515 3.0728768379580496
  endloop
endfacet
facet normal 1.3758552081364561e-05 -5.2203426898265695e-05 0.9999999985427523
  outer loop
    vertex -17.43583147744189 39.24917627455869 3.072903803136652
    vertex -21.43130494704669 36.64909213587515 3.0728768379580496
    vertex -17.436607825176257 33.24908238490112 3.072863391223713
  endloop
endfacet
facet normal 0.9999999892187424 -0.00013016614832598 -6.796534976557576e-05
  outer loop
    vertex -17.436098690005473 39.249186060066194 0.4723248074784147
    vertex -17.436959917002604 37.65321016444911 1.4722044644337033
    vertex -17.436098688894518 37.65303942997846 0.47233488653131245
  endloop
endfacet
facet normal 0.9999999892187424 -0.00013016614832598 -6.796534976557576e-05
  outer loop
    vertex -17.436959917002604 37.65321016444911 1.4722044644337033
    vertex -17.436098690005473 39.249186060066194 0.4723248074784147
    vertex -17.43583147744189 39.24917627455869 3.072903803136652
  endloop
endfacet
facet normal 0.9999999892187424 -0.00013016614832598 -6.796534976557576e-05
  outer loop
    vertex -17.436875037739842 33.24909217040862 0.47228439556547586
    vertex -17.43583147744189 39.24917627455869 3.072903803136652
    vertex -17.436607825176257 33.24908238490112 3.072863391223713
  endloop
endfacet
facet normal 0.9999999892187424 -0.00013016614832598 -6.796534976557576e-05
  outer loop
    vertex -17.43583147744189 39.24917627455869 3.072903803136652
    vertex -17.436875037739842 33.24909217040862 0.47228439556547586
    vertex -17.436875037732587 35.65140252638746 1.4722045898821203
  endloop
endfacet
facet normal 0.9999999892187424 -0.00013016614832598 -6.796534976557576e-05
  outer loop
    vertex -17.436875037732587 35.65140252638746 1.4722045898821203
    vertex -17.436875037739842 33.24909217040862 0.47228439556547586
    vertex -17.436875037732587 35.65140252638746 0.47228448655771926
  endloop
endfacet
facet normal 0.9999999892187424 -0.00013016614832598 -6.796534976557576e-05
  outer loop
    vertex -17.43583147744189 39.24917627455869 3.072903803136652
    vertex -17.436875037732587 35.65140252638746 1.4722045898821203
    vertex -17.436959917002604 37.65321016444911 1.4722044644337033
  endloop
endfacet
endsolid Baseplate_new_mk1.1
