solid FinchScopeCapMk1.0
facet normal 1.4079117591316068e-21 3.729316149610374e-05 0.99999999930461
  outer loop
    vertex 320.55220899396545 308.7526365511239 2.9975055257566376
    vertex 311.6522089939657 315.1526365466333 2.9972657816176675
    vertex 311.6522089939657 308.7526365510838 2.9975044578512424
  endloop
endfacet
facet normal 1.4079117591316068e-21 3.729316149610374e-05 0.99999999930461
  outer loop
    vertex 311.6522089939657 315.1526365466333 2.9972657816176675
    vertex 320.55220899396545 308.7526365511239 2.9975055257566376
    vertex 320.55220899396545 315.15263654667336 2.9972668495230628
  endloop
endfacet
facet normal 0.9999999999996041 3.31879736041047e-11 8.899211611354932e-07
  outer loop
    vertex 320.5522114857437 315.1524474571781 -1.4027331463721913
    vertex 320.55216341938524 314.05250406322267 -0.6028126107935237
    vertex 320.5522114857437 314.052447503811 -1.4028126073501852
  endloop
endfacet
facet normal 0.9999999999996041 3.31879736041047e-11 8.899211611354932e-07
  outer loop
    vertex 320.5522114857437 310.05244745972703 -1.4025842027499669
    vertex 320.55220899396545 308.7526365511239 2.9975055257566376
    vertex 320.5522114857437 308.7524474616286 -1.4024944701386162
  endloop
endfacet
facet normal 0.9999999999996041 3.31879736041047e-11 8.899211611354932e-07
  outer loop
    vertex 320.55220899396545 308.7526365511239 2.9975055257566376
    vertex 320.5522114857437 310.05244745972703 -1.4025842027499669
    vertex 320.55216341938524 310.0525040191387 -0.6025842061933053
  endloop
endfacet
facet normal 0.9999999999996041 3.31879736041047e-11 8.899211611354932e-07
  outer loop
    vertex 320.55220899396545 308.7526365511239 2.9975055257566376
    vertex 320.55216341938524 310.0525040191387 -0.6025842061933053
    vertex 320.55220899396545 315.15263654667336 2.9972668495230628
  endloop
endfacet
facet normal 0.9999999999996041 3.31879736041047e-11 8.899211611354932e-07
  outer loop
    vertex 320.55220899396545 315.15263654667336 2.9972668495230628
    vertex 320.55216341938524 310.0525040191387 -0.6025842061933053
    vertex 320.55216341938524 314.05250406322267 -0.6028126107935237
  endloop
endfacet
facet normal 0.9999999999996041 3.31879736041047e-11 8.899211611354932e-07
  outer loop
    vertex 320.55220899396545 315.15263654667336 2.9972668495230628
    vertex 320.55216341938524 314.05250406322267 -0.6028126107935237
    vertex 320.5522114857437 315.1524474571781 -1.4027331463721913
  endloop
endfacet
facet normal -0.9998828752121807 0.000695304788598188 -0.015288963623274318
  outer loop
    vertex 318.23748416193024 310.85161444844465 -0.30255532295433357
    vertex 318.2521634193855 310.0525040183964 -0.6025969730550744
    vertex 318.25220899396567 310.0524288736455 -0.30259696627797134
  endloop
endfacet
facet normal -0.9998828752121807 0.000695304788598188 -0.015288963623274318
  outer loop
    vertex 318.2521634193855 310.0525040183964 -0.6025969730550744
    vertex 318.23748416193024 310.85161444844465 -0.30255532295433357
    vertex 318.25217054179626 314.0525040586894 -0.6029341621526784
  endloop
endfacet
facet normal -0.9998828752121807 0.000695304788598188 -0.015288963623274318
  outer loop
    vertex 318.25217054179626 314.0525040586894 -0.6029341621526784
    vertex 318.23748416193024 310.85161444844465 -0.30255532295433357
    vertex 318.2522161163765 314.0524289139385 -0.3029341553755753
  endloop
endfacet
facet normal 2.7047661134028744e-06 -0.9999999999931042 2.544782883336985e-06
  outer loop
    vertex 320.55216341938524 314.05250406322267 -0.6028126107935237
    vertex 318.25217054179626 314.0525040586894 -0.6029341621526784
    vertex 320.5522114857437 314.052447503811 -1.4028126073501852
  endloop
endfacet
facet normal 2.7047661134028744e-06 -0.9999999999931042 2.544782883336985e-06
  outer loop
    vertex 320.5522114857437 314.052447503811 -1.4028126073501852
    vertex 312.77971334887565 314.0524289139385 -0.3029341553755753
    vertex 312.77967456576323 314.0524591437102 -1.4028278993087118
  endloop
endfacet
facet normal 2.7047661134028744e-06 -0.9999999999931042 2.544782883336985e-06
  outer loop
    vertex 312.77971334887565 314.0524289139385 -0.3029341553755753
    vertex 320.5522114857437 314.052447503811 -1.4028126073501852
    vertex 318.25217054179626 314.0525040586894 -0.6029341621526784
  endloop
endfacet
facet normal 2.7047661134028744e-06 -0.9999999999931042 2.544782883336985e-06
  outer loop
    vertex 312.77971334887565 314.0524289139385 -0.3029341553755753
    vertex 318.25217054179626 314.0525040586894 -0.6029341621526784
    vertex 318.2522161163765 314.0524289139385 -0.3029341553755753
  endloop
endfacet
facet normal -0.9999999999997615 2.5999810398797876e-10 -6.907655778232454e-07
  outer loop
    vertex 311.6522089939657 308.7526365510838 2.9975044578512424
    vertex 311.652211485744 315.152447457138 -1.4027342142775845
    vertex 311.652211485744 308.75244746158853 -1.4024955380440094
  endloop
endfacet
facet normal -0.9999999999997615 2.5999810398797876e-10 -6.907655778232454e-07
  outer loop
    vertex 311.652211485744 315.152447457138 -1.4027342142775845
    vertex 311.6522089939657 308.7526365510838 2.9975044578512424
    vertex 311.6522089939657 315.1526365466333 2.9972657816176675
  endloop
endfacet
facet normal 6.008294803788765e-05 -7.069926466329397e-05 -0.9999999956958268
  outer loop
    vertex 318.25217054179626 314.0525040586894 -0.6029341621526784
    vertex 320.55216341938524 310.0525040191387 -0.6025842061933053
    vertex 318.2521634193855 310.0525040183964 -0.6025969730550744
  endloop
endfacet
facet normal 6.008294803788765e-05 -7.069926466329397e-05 -0.9999999956958268
  outer loop
    vertex 320.55216341938524 310.0525040191387 -0.6025842061933053
    vertex 318.25217054179626 314.0525040586894 -0.6029341621526784
    vertex 320.55216341938524 314.05250406322267 -0.6028126107935237
  endloop
endfacet
facet normal -6.54722255255809e-13 -0.9999999990765798 4.297488529206876e-05
  outer loop
    vertex 320.5522114857437 308.7524474616286 -1.4024944701386162
    vertex 311.6522089939657 308.7526365510838 2.9975044578512424
    vertex 311.652211485744 308.75244746158853 -1.4024955380440094
  endloop
endfacet
facet normal -6.54722255255809e-13 -0.9999999990765798 4.297488529206876e-05
  outer loop
    vertex 311.6522089939657 308.7526365510838 2.9975044578512424
    vertex 320.5522114857437 308.7524474616286 -1.4024944701386162
    vertex 320.55220899396545 308.7526365511239 2.9975055257566376
  endloop
endfacet
facet normal 0.9578226182567807 -0.287360108497553 -5.615485570716951e-10
  outer loop
    vertex 314.1824868538691 312.45243421219743 -0.3027153726984122
    vertex 314.4824868538691 313.45238784420246 1.997284622860022
    vertex 314.1824868538691 312.4524342077029 1.997284620905864
  endloop
endfacet
facet normal 0.9578226182567807 -0.287360108497553 -5.615485570716951e-10
  outer loop
    vertex 314.4824868538691 313.45238784420246 1.997284622860022
    vertex 314.1824868538691 312.45243421219743 -0.3027153726984122
    vertex 314.4824868538691 313.4523878486971 -0.30271537074425414
  endloop
endfacet
facet normal 0.9578166169947915 0.2873801108615516 -9.479207840532732e-06
  outer loop
    vertex 314.1824868538691 312.45243421219743 -0.3027153726984122
    vertex 314.4824868538691 311.4526323107899 1.9972846189520026
    vertex 314.4824868538691 311.4524805756978 -0.30271537465257026
  endloop
endfacet
facet normal 0.9578166169947915 0.2873801108615516 -9.479207840532732e-06
  outer loop
    vertex 314.4824868538691 311.4526323107899 1.9972846189520026
    vertex 314.1824868538691 312.45243421219743 -0.3027153726984122
    vertex 314.1824868538691 312.4524342077029 1.997284620905864
  endloop
endfacet
facet normal 0.28741455116019915 0.9578062824930701 -3.1594092373314404e-05
  outer loop
    vertex 314.4824868538691 311.4526323107899 1.9972846189520026
    vertex 315.4824868538691 311.1524805756978 -0.30271537465257026
    vertex 314.4824868538691 311.4524805756978 -0.30271537465257026
  endloop
endfacet
facet normal 0.28741455116019915 0.9578062824930701 -3.1594092373314404e-05
  outer loop
    vertex 315.4824868538691 311.1524805756978 -0.30271537465257026
    vertex 314.4824868538691 311.4526323107899 1.9972846189520026
    vertex 315.4824868538691 311.1524805756978 1.9972846189520026
  endloop
endfacet
facet normal -0.28741455116019915 0.9578062824930701 -3.1594092373314404e-05
  outer loop
    vertex 315.4824868538691 311.1524805756978 1.9972846189520026
    vertex 316.4824868538691 311.4524805756978 -0.30271537465257026
    vertex 315.4824868538691 311.1524805756978 -0.30271537465257026
  endloop
endfacet
facet normal -0.28741455116019915 0.9578062824930701 -3.1594092373314404e-05
  outer loop
    vertex 316.4824868538691 311.4524805756978 -0.30271537465257026
    vertex 315.4824868538691 311.1524805756978 1.9972846189520026
    vertex 316.4824868538691 311.4526323107899 1.9972846189520026
  endloop
endfacet
facet normal -0.2873478855663652 -0.9578262852211454 0.0
  outer loop
    vertex 316.4824868538691 313.4523878486971 1.997284622860022
    vertex 315.4824868538691 313.7523878486971 -0.30271537074425414
    vertex 316.4824868538691 313.4523878486971 -0.30271537074425414
  endloop
endfacet
facet normal -0.2873478855663652 -0.9578262852211454 0.0
  outer loop
    vertex 315.4824868538691 313.7523878486971 -0.30271537074425414
    vertex 316.4824868538691 313.4523878486971 1.997284622860022
    vertex 315.4824868538691 313.7523878486971 1.997284622860022
  endloop
endfacet
facet normal 0.28734788754114615 -0.9578262846287113 -9.358744429864485e-10
  outer loop
    vertex 315.4824868538691 313.7523878486971 1.997284622860022
    vertex 314.4824868538691 313.4523878486971 -0.30271537074425414
    vertex 315.4824868538691 313.7523878486971 -0.30271537074425414
  endloop
endfacet
facet normal 0.28734788754114615 -0.9578262846287113 -9.358744429864485e-10
  outer loop
    vertex 314.4824868538691 313.4523878486971 -0.30271537074425414
    vertex 315.4824868538691 313.7523878486971 1.997284622860022
    vertex 314.4824868538691 313.45238784420246 1.997284622860022
  endloop
endfacet
facet normal 6.102850203748365e-17 1.7476230391354599e-09 -1.0
  outer loop
    vertex 314.4824868538691 313.45238784420246 1.997284622860022
    vertex 314.4824868538691 311.4526323107899 1.9972846189520026
    vertex 314.1824868538691 312.4524342077029 1.997284620905864
  endloop
endfacet
facet normal 6.102850203748365e-17 1.7476230391354599e-09 -1.0
  outer loop
    vertex 314.4824868538691 311.4526323107899 1.9972846189520026
    vertex 314.4824868538691 313.45238784420246 1.997284622860022
    vertex 315.4824868538691 313.7523878486971 1.997284622860022
  endloop
endfacet
facet normal 6.102850203748365e-17 1.7476230391354599e-09 -1.0
  outer loop
    vertex 314.4824868538691 311.4526323107899 1.9972846189520026
    vertex 315.4824868538691 313.7523878486971 1.997284622860022
    vertex 315.4824868538691 311.1524805756978 1.9972846189520026
  endloop
endfacet
facet normal 6.102850203748365e-17 1.7476230391354599e-09 -1.0
  outer loop
    vertex 315.4824868538691 311.1524805756978 1.9972846189520026
    vertex 315.4824868538691 313.7523878486971 1.997284622860022
    vertex 316.4824868538691 313.4523878486971 1.997284622860022
  endloop
endfacet
facet normal 6.102850203748365e-17 1.7476230391354599e-09 -1.0
  outer loop
    vertex 315.4824868538691 311.1524805756978 1.9972846189520026
    vertex 316.4824868538691 313.4523878486971 1.997284622860022
    vertex 316.4824868538691 311.4526323107899 1.9972846189520026
  endloop
endfacet
facet normal 6.102850203748365e-17 1.7476230391354599e-09 -1.0
  outer loop
    vertex 316.4824868538691 311.4526323107899 1.9972846189520026
    vertex 316.4824868538691 313.4523878486971 1.997284622860022
    vertex 316.7824868538691 312.4524342077026 1.9972846209058643
  endloop
endfacet
facet normal -0.9578166169947807 0.28738011086158727 -9.479207823621565e-06
  outer loop
    vertex 316.4824868538691 311.4526323107899 1.9972846189520026
    vertex 316.7824868538691 312.45243421219743 -0.3027153726984122
    vertex 316.4824868538691 311.4524805756978 -0.30271537465257026
  endloop
endfacet
facet normal -0.9578166169947807 0.28738011086158727 -9.479207823621565e-06
  outer loop
    vertex 316.7824868538691 312.45243421219743 -0.3027153726984122
    vertex 316.4824868538691 311.4526323107899 1.9972846189520026
    vertex 316.7824868538691 312.4524342077026 1.9972846209058643
  endloop
endfacet
facet normal -0.9578226184345444 -0.2873601079050349 -2.80791195827993e-10
  outer loop
    vertex 316.4824868538691 313.4523878486971 1.997284622860022
    vertex 316.7824868538691 312.45243421219743 -0.3027153726984122
    vertex 316.7824868538691 312.4524342077026 1.9972846209058643
  endloop
endfacet
facet normal -0.9578226184345444 -0.2873601079050349 -2.80791195827993e-10
  outer loop
    vertex 316.7824868538691 312.45243421219743 -0.3027153726984122
    vertex 316.4824868538691 313.4523878486971 1.997284622860022
    vertex 316.4824868538691 313.4523878486971 -0.30271537074425414
  endloop
endfacet
facet normal -1.2669830125195356e-05 -3.968416994868924e-05 -0.9999999991323212
  outer loop
    vertex 316.67695568072895 311.0446752205521 0.4974339206206106
    vertex 316.6801701567038 310.6342008018725 0.4974554835695332
    vertex 316.6515429274716 310.8392264143168 0.4974447025412688
  endloop
endfacet
facet normal -1.2669830125195356e-05 -3.968416994868924e-05 -0.9999999991323212
  outer loop
    vertex 316.6801701567038 310.6342008018725 0.4974554835695332
    vertex 316.67695568072895 311.0446752205521 0.4974339206206106
    vertex 316.75467657933785 311.2365462239538 0.4974238725776333
  endloop
endfacet
facet normal -1.2669830125195356e-05 -3.968416994868924e-05 -0.9999999991323212
  outer loop
    vertex 316.6801701567038 310.6342008018725 0.4974554835695332
    vertex 316.75467657933785 311.2365462239538 0.4974238725776333
    vertex 316.7608864700619 310.44357053988654 0.49746552899614377
  endloop
endfacet
facet normal -1.2669830125195356e-05 -3.968416994868924e-05 -0.9999999991323212
  outer loop
    vertex 316.7608864700619 310.44357053988654 0.49746552899614377
    vertex 316.75467657933785 311.2365462239538 0.4974238725776333
    vertex 316.87940907249794 311.40176373272175 0.49741524316986085
  endloop
endfacet
facet normal -1.2669830125195356e-05 -3.968416994868924e-05 -0.9999999991323212
  outer loop
    vertex 316.7608864700619 310.44357053988654 0.49746552899614377
    vertex 316.87940907249794 311.40176373272175 0.49741524316986085
    vertex 316.88819118418076 310.28032676568176 0.49747415424187824
  endloop
endfacet
facet normal -1.2669830125195356e-05 -3.968416994868924e-05 -0.9999999991323212
  outer loop
    vertex 316.88819118418076 310.28032676568176 0.49747415424187824
    vertex 316.87940907249794 311.40176373272175 0.49741524316986085
    vertex 317.04265284693054 311.5290684466683 0.4974086204771719
  endloop
endfacet
facet normal -1.2669830125195356e-05 -3.968416994868924e-05 -0.9999999991323212
  outer loop
    vertex 316.88819118418076 310.28032676568176 0.49747415424187824
    vertex 317.04265284693054 311.5290684466683 0.4974086204771719
    vertex 317.05340869317405 310.1555942726972 0.4974807715104933
  endloop
endfacet
facet normal -1.2669830125195356e-05 -3.968416994868924e-05 -0.9999999991323212
  outer loop
    vertex 317.05340869317405 310.1555942726972 0.4974807715104933
    vertex 317.04265284693054 311.5290684466683 0.4974086204771719
    vertex 317.23328310918123 311.60978475991914 0.4974044558251287
  endloop
endfacet
facet normal -1.2669830125195356e-05 -3.968416994868924e-05 -0.9999999991323212
  outer loop
    vertex 317.05340869317405 310.1555942726972 0.4974807715104933
    vertex 317.23328310918123 311.60978475991914 0.4974044558251287
    vertex 317.2452796968388 310.07787337419944 0.4974849298460685
  endloop
endfacet
facet normal -1.2669830125195356e-05 -3.968416994868924e-05 -0.9999999991323212
  outer loop
    vertex 317.2452796968388 310.07787337419944 0.4974849298460685
    vertex 317.23328310918123 311.60978475991914 0.4974044558251287
    vertex 317.4383087219089 311.6384119891159 0.49740303302788574
  endloop
endfacet
facet normal -1.2669830125195356e-05 -3.968416994868924e-05 -0.9999999991323212
  outer loop
    vertex 317.2452796968388 310.07787337419944 0.4974849298460685
    vertex 317.4383087219089 311.6384119891159 0.49740303302788574
    vertex 317.450728503357 310.0524606209815 0.49748634586490664
  endloop
endfacet
facet normal -1.2669830125195356e-05 -3.968416994868924e-05 -0.9999999991323212
  outer loop
    vertex 317.450728503357 310.0524606209815 0.49748634586490664
    vertex 317.4383087219089 311.6384119891159 0.49740303302788574
    vertex 317.64375752842716 311.612999235898 0.4974044490467238
  endloop
endfacet
facet normal -1.2669830125195356e-05 -3.968416994868924e-05 -0.9999999991323212
  outer loop
    vertex 317.450728503357 310.0524606209815 0.49748634586490664
    vertex 317.64375752842716 311.612999235898 0.4974044490467238
    vertex 317.6557541160847 310.08108785017833 0.4974849230676636
  endloop
endfacet
facet normal -1.2669830125195356e-05 -3.968416994868924e-05 -0.9999999991323212
  outer loop
    vertex 317.6557541160847 310.08108785017833 0.4974849230676636
    vertex 317.64375752842716 311.612999235898 0.4974044490467238
    vertex 317.8356285320919 311.53527833740026 0.49740860738229903
  endloop
endfacet
facet normal -1.2669830125195356e-05 -3.968416994868924e-05 -0.9999999991323212
  outer loop
    vertex 317.6557541160847 310.08108785017833 0.4974849230676636
    vertex 317.8356285320919 311.53527833740026 0.49740860738229903
    vertex 317.84638437833536 310.1618041634291 0.49748075841562045
  endloop
endfacet
facet normal -1.2669830125195356e-05 -3.968416994868924e-05 -0.9999999991323212
  outer loop
    vertex 317.84638437833536 310.1618041634291 0.49748075841562045
    vertex 317.8356285320919 311.53527833740026 0.49740860738229903
    vertex 318.0008460410852 311.4105458444157 0.49741522465091415
  endloop
endfacet
facet normal -1.2669830125195356e-05 -3.968416994868924e-05 -0.9999999991323212
  outer loop
    vertex 317.84638437833536 310.1618041634291 0.49748075841562045
    vertex 318.0008460410852 311.4105458444157 0.49741522465091415
    vertex 318.009628152768 310.28910887737567 0.49747413572293153
  endloop
endfacet
facet normal -1.2669830125195356e-05 -3.968416994868924e-05 -0.9999999991323212
  outer loop
    vertex 318.009628152768 310.28910887737567 0.49747413572293153
    vertex 318.0008460410852 311.4105458444157 0.49741522465091415
    vertex 318.128150755204 311.2473020702109 0.49742384989664856
  endloop
endfacet
facet normal -1.2669830125195356e-05 -3.968416994868924e-05 -0.9999999991323212
  outer loop
    vertex 318.009628152768 310.28910887737567 0.49747413572293153
    vertex 318.128150755204 311.2473020702109 0.49742384989664856
    vertex 318.1343606459281 310.4543263861437 0.497465506315159
  endloop
endfacet
facet normal -1.2669830125195356e-05 -3.968416994868924e-05 -0.9999999991323212
  outer loop
    vertex 318.1343606459281 310.4543263861437 0.497465506315159
    vertex 318.128150755204 311.2473020702109 0.49742384989664856
    vertex 318.2088670685622 311.05667180822496 0.49743389532325916
  endloop
endfacet
facet normal -1.2669830125195356e-05 -3.968416994868924e-05 -0.9999999991323212
  outer loop
    vertex 318.1343606459281 310.4543263861437 0.497465506315159
    vertex 318.2088670685622 311.05667180822496 0.49743389532325916
    vertex 318.212081544537 310.6461973895453 0.49745545827218174
  endloop
endfacet
facet normal -1.2669830125195356e-05 -3.968416994868924e-05 -0.9999999991323212
  outer loop
    vertex 318.212081544537 310.6461973895453 0.49745545827218174
    vertex 318.2088670685622 311.05667180822496 0.49743389532325916
    vertex 318.23749429779434 310.85164619578063 0.4974446763515235
  endloop
endfacet
facet normal 0.2512457798276403 0.9679233215439642 -4.159447497562954e-05
  outer loop
    vertex 317.2452796968388 310.07787337419944 0.4974849298460685
    vertex 317.4507183674929 310.0524288736455 -0.30251365344095044
    vertex 317.2452695609747 310.07784162686346 -0.30251506945978857
  endloop
endfacet
facet normal 0.12275830069275147 0.992436596430723 -4.093934940781255e-05
  outer loop
    vertex 317.4507183674929 310.0524288736455 -0.30251365344095044
    vertex 317.2452796968388 310.07787337419944 0.4974849298460685
    vertex 317.450728503357 310.0524606209815 0.49748634586490664
  endloop
endfacet
facet normal -0.13828607937962797 0.990392325717312 -3.75508362678063e-05
  outer loop
    vertex 317.4507183674929 310.0524288736455 -0.30251365344095044
    vertex 317.6557541160847 310.08108785017833 0.4974849230676636
    vertex 317.6557439802206 310.08105610284235 -0.30251507623819346
  endloop
endfacet
facet normal -0.26637589650323906 0.9638692237776871 -3.4875412756822916e-05
  outer loop
    vertex 317.6557541160847 310.08108785017833 0.4974849230676636
    vertex 317.4507183674929 310.0524288736455 -0.30251365344095044
    vertex 317.450728503357 310.0524606209815 0.49748634586490664
  endloop
endfacet
facet normal -0.26637442740337297 0.9638696297784408 -3.48754474818716e-05
  outer loop
    vertex 317.6557439802206 310.08105610284235 -0.30251507623819346
    vertex 317.84638437833536 310.1618041634291 0.49748075841562045
    vertex 317.8463742424713 310.1617724160932 -0.30251924089023663
  endloop
endfacet
facet normal -0.506766753701599 0.8620832074518306 -2.779040785604675e-05
  outer loop
    vertex 317.84638437833536 310.1618041634291 0.49748075841562045
    vertex 317.6557439802206 310.08105610284235 -0.30251507623819346
    vertex 317.6557541160847 310.08108785017833 0.4974849230676636
  endloop
endfacet
facet normal -0.5067660726400216 0.8620836078065168 -2.779043237272467e-05
  outer loop
    vertex 317.8463742424713 310.1617724160932 -0.30251924089023663
    vertex 318.009628152768 310.28910887737567 0.49747413572293153
    vertex 318.0096180169039 310.2890771300397 -0.3025258635829256
  endloop
endfacet
facet normal -0.7126223715135789 0.7015478282088033 -1.881153886760347e-05
  outer loop
    vertex 318.009628152768 310.28910887737567 0.49747413572293153
    vertex 317.8463742424713 310.1617724160932 -0.30251924089023663
    vertex 317.84638437833536 310.1618041634291 0.49748075841562045
  endloop
endfacet
facet normal -0.7126223715135789 0.7015478282088033 -1.881153886760347e-05
  outer loop
    vertex 318.009628152768 310.28910887737567 0.49747413572293153
    vertex 318.134350510064 310.4542946388077 -0.30253449299069807
    vertex 318.0096180169039 310.2890771300397 -0.3025258635829256
  endloop
endfacet
facet normal -0.8699144853951157 0.4932025831508153 -8.550666382905861e-06
  outer loop
    vertex 318.134350510064 310.4542946388077 -0.30253449299069807
    vertex 318.009628152768 310.28910887737567 0.49747413572293153
    vertex 318.1343606459281 310.4543263861437 0.497465506315159
  endloop
endfacet
facet normal -0.8699140976890438 0.49320326698912115 -8.550698432631514e-06
  outer loop
    vertex 318.1343606459281 310.4543263861437 0.497465506315159
    vertex 318.2120714086729 310.6461656422093 -0.30254454103367534
    vertex 318.134350510064 310.4542946388077 -0.30253449299069807
  endloop
endfacet
facet normal -0.967923181966122 0.2512463209826568 2.2929205908801596e-06
  outer loop
    vertex 318.2120714086729 310.6461656422093 -0.30254454103367534
    vertex 318.1343606459281 310.4543263861437 0.497465506315159
    vertex 318.212081544537 310.6461973895453 0.49745545827218174
  endloop
endfacet
facet normal -0.9638697784296067 -0.26637389082077967 2.278289312850645e-05
  outer loop
    vertex 318.2088670685622 311.05667180822496 0.49743389532325916
    vertex 318.12814061933994 311.2472703228749 -0.3025761494092085
    vertex 318.2088569326981 311.056640060889 -0.3025661039825979
  endloop
endfacet
facet normal -0.8620826629392473 -0.5067676798065591 3.1033095650189496e-05
  outer loop
    vertex 318.12814061933994 311.2472703228749 -0.3025761494092085
    vertex 318.2088670685622 311.05667180822496 0.49743389532325916
    vertex 318.128150755204 311.2473020702109 0.49742384989664856
  endloop
endfacet
facet normal -0.8620841531105254 -0.506765144808382 3.1033013931107894e-05
  outer loop
    vertex 318.128150755204 311.2473020702109 0.49742384989664856
    vertex 318.0008359052211 311.4105140970797 -0.302584774654943
    vertex 318.12814061933994 311.2472703228749 -0.3025761494092085
  endloop
endfacet
facet normal -0.7015467441641227 -0.7126234379889795 3.716834772826738e-05
  outer loop
    vertex 318.0008359052211 311.4105140970797 -0.302584774654943
    vertex 318.128150755204 311.2473020702109 0.49742384989664856
    vertex 318.0008460410852 311.4105458444157 0.49741522465091415
  endloop
endfacet
facet normal -0.7015467441641227 -0.7126234379889795 3.716834772826738e-05
  outer loop
    vertex 318.0008359052211 311.4105140970797 -0.302584774654943
    vertex 317.8356285320919 311.53527833740026 0.49740860738229903
    vertex 317.8356183962278 311.5352465900643 -0.30259139192355805
  endloop
endfacet
facet normal -0.493204204379016 -0.8699135653158989 4.077061128855638e-05
  outer loop
    vertex 317.8356285320919 311.53527833740026 0.49740860738229903
    vertex 318.0008359052211 311.4105140970797 -0.302584774654943
    vertex 318.0008460410852 311.4105458444157 0.49741522465091415
  endloop
endfacet
facet normal -0.4932016454400879 -0.8699150161210835 4.077063644123439e-05
  outer loop
    vertex 317.8356183962278 311.5352465900643 -0.30259139192355805
    vertex 317.64375752842716 311.612999235898 0.4974044490467238
    vertex 317.64374739256306 311.612967488562 -0.30259555025913326
  endloop
endfacet
facet normal -0.2512483331205006 -0.9679226587770684 4.159448102406222e-05
  outer loop
    vertex 317.64375752842716 311.612999235898 0.4974044490467238
    vertex 317.8356183962278 311.5352465900643 -0.30259139192355805
    vertex 317.8356285320919 311.53527833740026 0.49740860738229903
  endloop
endfacet
facet normal -0.2512457798276403 -0.9679233215439642 4.159447497562954e-05
  outer loop
    vertex 317.64374739256306 311.612967488562 -0.30259555025913326
    vertex 317.4383087219089 311.6384119891159 0.49740303302788574
    vertex 317.4382985860448 311.63838024178 -0.30259696627797134
  endloop
endfacet
facet normal 0.007829806447646725 -0.99996934581222 3.9583751179432876e-05
  outer loop
    vertex 317.4383087219089 311.6384119891159 0.49740303302788574
    vertex 317.64374739256306 311.612967488562 -0.30259555025913326
    vertex 317.64375752842716 311.612999235898 0.4974044490467238
  endloop
endfacet
facet normal 0.007829806447646725 -0.99996934581222 3.9583751179432876e-05
  outer loop
    vertex 317.4383087219089 311.6384119891159 0.49740303302788574
    vertex 317.2332729733171 311.60975301258316 -0.30259554348072837
    vertex 317.4382985860448 311.63838024178 -0.30259696627797134
  endloop
endfacet
facet normal 0.26637589650323906 -0.9638692237776871 3.4875412756822916e-05
  outer loop
    vertex 317.2332729733171 311.60975301258316 -0.30259554348072837
    vertex 317.4383087219089 311.6384119891159 0.49740303302788574
    vertex 317.23328310918123 311.60978475991914 0.4974044558251287
  endloop
endfacet
facet normal 0.26637442740337297 -0.9638696297784408 3.48754474818716e-05
  outer loop
    vertex 317.23328310918123 311.60978475991914 0.4974044558251287
    vertex 317.0426427110665 311.5290366993323 -0.3025913788286852
    vertex 317.2332729733171 311.60975301258316 -0.30259554348072837
  endloop
endfacet
facet normal 0.506766753701599 -0.8620832074518306 2.779040785604675e-05
  outer loop
    vertex 317.0426427110665 311.5290366993323 -0.3025913788286852
    vertex 317.23328310918123 311.60978475991914 0.4974044558251287
    vertex 317.04265284693054 311.5290684466683 0.4974086204771719
  endloop
endfacet
facet normal 0.5067660726400216 -0.8620836078065168 2.779043237272467e-05
  outer loop
    vertex 317.04265284693054 311.5290684466683 0.4974086204771719
    vertex 316.87939893663383 311.40173198538577 -0.3025847561359962
    vertex 317.0426427110665 311.5290366993323 -0.3025913788286852
  endloop
endfacet
facet normal 0.7126223715135789 -0.7015478282088033 1.881153886760347e-05
  outer loop
    vertex 316.87939893663383 311.40173198538577 -0.3025847561359962
    vertex 317.04265284693054 311.5290684466683 0.4974086204771719
    vertex 316.87940907249794 311.40176373272175 0.49741524316986085
  endloop
endfacet
facet normal 0.7126223715135789 -0.7015478282088033 1.881153886760347e-05
  outer loop
    vertex 316.87939893663383 311.40173198538577 -0.3025847561359962
    vertex 316.75467657933785 311.2365462239538 0.4974238725776333
    vertex 316.75466644347375 311.2365144766178 -0.30257612672822376
  endloop
endfacet
facet normal 0.8699144853951157 -0.4932025831508153 8.550666382905861e-06
  outer loop
    vertex 316.75467657933785 311.2365462239538 0.4974238725776333
    vertex 316.87939893663383 311.40173198538577 -0.3025847561359962
    vertex 316.87940907249794 311.40176373272175 0.49741524316986085
  endloop
endfacet
facet normal 0.8699140976890438 -0.49320326698912115 8.550698432631514e-06
  outer loop
    vertex 316.75466644347375 311.2365144766178 -0.30257612672822376
    vertex 316.67695568072895 311.0446752205521 0.4974339206206106
    vertex 316.67694554486485 311.0446434732162 -0.3025660786852465
  endloop
endfacet
facet normal 0.967923181966122 -0.2512463209826568 -2.2929205908801596e-06
  outer loop
    vertex 316.67695568072895 311.0446752205521 0.4974339206206106
    vertex 316.75466644347375 311.2365144766178 -0.30257612672822376
    vertex 316.75467657933785 311.2365462239538 0.4974238725776333
  endloop
endfacet
facet normal 0.9679227999061174 -0.25124779285925103 -2.2928573400438402e-06
  outer loop
    vertex 316.67694554486485 311.0446434732162 -0.3025660786852465
    vertex 316.6515429274716 310.8392264143168 0.4974447025412688
    vertex 316.6515327916075 310.8391946669808 -0.30255529676458826
  endloop
endfacet
facet normal 0.9999693296566917 0.0078319587243426 -1.2980246329466374e-05
  outer loop
    vertex 316.6515429274716 310.8392264143168 0.4974447025412688
    vertex 316.67694554486485 311.0446434732162 -0.3025660786852465
    vertex 316.67695568072895 311.0446752205521 0.4974339206206106
  endloop
endfacet
facet normal 0.9999693465054695 0.007829807209605038 -1.2980161161860962e-05
  outer loop
    vertex 316.6515327916075 310.8391946669808 -0.30255529676458826
    vertex 316.6801701567038 310.6342008018725 0.4974554835695332
    vertex 316.6801600208397 310.6341690545365 -0.3025445157363239
  endloop
endfacet
facet normal 0.9638690762966424 0.26637643146493456 -2.2782985055955567e-05
  outer loop
    vertex 316.6801701567038 310.6342008018725 0.4974554835695332
    vertex 316.6515327916075 310.8391946669808 -0.30255529676458826
    vertex 316.6515429274716 310.8392264143168 0.4974447025412688
  endloop
endfacet
facet normal 0.9638697784296315 0.2663738908206903 -2.278289312850322e-05
  outer loop
    vertex 316.6801600208397 310.6341690545365 -0.3025445157363239
    vertex 316.7608864700619 310.44357053988654 0.49746552899614377
    vertex 316.7608763341978 310.44353879255056 -0.3025344703097133
  endloop
endfacet
facet normal 0.8620826629393054 0.5067676798064601 -3.1033095650186304e-05
  outer loop
    vertex 316.7608864700619 310.44357053988654 0.49746552899614377
    vertex 316.6801600208397 310.6341690545365 -0.3025445157363239
    vertex 316.6801701567038 310.6342008018725 0.4974554835695332
  endloop
endfacet
facet normal 0.8620841531105836 0.5067651448082832 -3.103301393110471e-05
  outer loop
    vertex 316.7608763341978 310.44353879255056 -0.3025344703097133
    vertex 316.88819118418076 310.28032676568176 0.49747415424187824
    vertex 316.88818104831665 310.2802950183458 -0.30252584506397884
  endloop
endfacet
facet normal 0.7015467441640615 0.7126234379890397 -3.7168347728269e-05
  outer loop
    vertex 316.88819118418076 310.28032676568176 0.49747415424187824
    vertex 316.7608763341978 310.44353879255056 -0.3025344703097133
    vertex 316.7608864700619 310.44357053988654 0.49746552899614377
  endloop
endfacet
facet normal 0.7015467441640615 0.7126234379890397 -3.7168347728269e-05
  outer loop
    vertex 316.88819118418076 310.28032676568176 0.49747415424187824
    vertex 317.05339855730995 310.15556252536123 -0.3025192277953638
    vertex 316.88818104831665 310.2802950183458 -0.30252584506397884
  endloop
endfacet
facet normal 0.493204204379016 0.8699135653158989 -4.077061128855638e-05
  outer loop
    vertex 317.05339855730995 310.15556252536123 -0.3025192277953638
    vertex 316.88819118418076 310.28032676568176 0.49747415424187824
    vertex 317.05340869317405 310.1555942726972 0.4974807715104933
  endloop
endfacet
facet normal 0.4932016454400879 0.8699150161210835 -4.077063644123439e-05
  outer loop
    vertex 317.05340869317405 310.1555942726972 0.4974807715104933
    vertex 317.2452695609747 310.07784162686346 -0.30251506945978857
    vertex 317.05339855730995 310.15556252536123 -0.3025192277953638
  endloop
endfacet
facet normal 0.2512483331205006 0.9679226587770684 -4.159448102406222e-05
  outer loop
    vertex 317.2452695609747 310.07784162686346 -0.30251506945978857
    vertex 317.05340869317405 310.1555942726972 0.4974807715104933
    vertex 317.2452796968388 310.07787337419944 0.4974849298460685
  endloop
endfacet
facet normal -1.706565149914921e-06 -4.787258107978335e-05 -0.9999999988526518
  outer loop
    vertex 311.652211485744 315.152447457138 -1.4027342142775845
    vertex 312.77967456576323 314.0524591437102 -1.4028278993087118
    vertex 311.652211485744 308.75244746158853 -1.4024955380440094
  endloop
endfacet
facet normal -1.706565149914921e-06 -4.787258107978335e-05 -0.9999999988526518
  outer loop
    vertex 312.77967456576323 314.0524591437102 -1.4028278993087118
    vertex 311.652211485744 315.152447457138 -1.4027342142775845
    vertex 320.5522114857437 315.1524474571781 -1.4027331463721913
  endloop
endfacet
facet normal -1.706565149914921e-06 -4.787258107978335e-05 -0.9999999988526518
  outer loop
    vertex 311.652211485744 308.75244746158853 -1.4024955380440094
    vertex 312.77967456576323 314.0524591437102 -1.4028278993087118
    vertex 312.7796674433524 310.0524591034173 -1.402490710211108
  endloop
endfacet
facet normal -1.706565149914921e-06 -4.787258107978335e-05 -0.9999999988526518
  outer loop
    vertex 312.77967456576323 314.0524591437102 -1.4028278993087118
    vertex 320.5522114857437 315.1524474571781 -1.4027331463721913
    vertex 320.5522114857437 314.052447503811 -1.4028126073501852
  endloop
endfacet
facet normal -1.706565149914921e-06 -4.787258107978335e-05 -0.9999999988526518
  outer loop
    vertex 312.7796674433524 310.0524591034173 -1.402490710211108
    vertex 320.5522114857437 308.7524474616286 -1.4024944701386162
    vertex 311.652211485744 308.75244746158853 -1.4024955380440094
  endloop
endfacet
facet normal -1.706565149914921e-06 -4.787258107978335e-05 -0.9999999988526518
  outer loop
    vertex 320.5522114857437 308.7524474616286 -1.4024944701386162
    vertex 312.7796674433524 310.0524591034173 -1.402490710211108
    vertex 320.5522114857437 310.05244745972703 -1.4025842027499669
  endloop
endfacet
facet normal -0.9679227999061174 0.25124779285925103 2.2928573400438402e-06
  outer loop
    vertex 318.212081544537 310.6461973895453 0.49745545827218174
    vertex 318.23748416193024 310.85161444844465 -0.30255532295433357
    vertex 318.2120714086729 310.6461656422093 -0.30254454103367534
  endloop
endfacet
facet normal -0.992436597174316 0.12275830126609406 7.702441812852694e-06
  outer loop
    vertex 318.23748416193024 310.85161444844465 -0.30255532295433357
    vertex 318.212081544537 310.6461973895453 0.49745545827218174
    vertex 318.23749429779434 310.85164619578063 0.4974446763515235
  endloop
endfacet
facet normal -0.9903923263705448 -0.13828607862343878 1.8035870793691528e-05
  outer loop
    vertex 318.23749429779434 310.85164619578063 0.4974446763515235
    vertex 318.2088569326981 311.056640060889 -0.3025661039825979
    vertex 318.23748416193024 310.85161444844465 -0.30255532295433357
  endloop
endfacet
facet normal -0.9638690762966178 -0.26637643146502393 2.2782985055958806e-05
  outer loop
    vertex 318.2088569326981 311.056640060889 -0.3025661039825979
    vertex 318.23749429779434 310.85164619578063 0.4974446763515235
    vertex 318.2088670685622 311.05667180822496 0.49743389532325916
  endloop
endfacet
facet normal 0.0 0.9999999989317827 -4.6221584743938325e-05
  outer loop
    vertex 311.6522089939657 315.1526365466333 2.9972657816176675
    vertex 320.5522114857437 315.1524474571781 -1.4027331463721913
    vertex 311.652211485744 315.152447457138 -1.4027342142775845
  endloop
endfacet
facet normal 0.0 0.9999999989317827 -4.6221584743938325e-05
  outer loop
    vertex 320.5522114857437 315.1524474571781 -1.4027331463721913
    vertex 311.6522089939657 315.1526365466333 2.9972657816176675
    vertex 320.55220899396545 315.15263654667336 2.9972668495230628
  endloop
endfacet
facet normal 0.9999999993906898 -1.8504445036550123e-06 -3.485966305148003e-05
  outer loop
    vertex 312.7796674433524 310.0524591034173 -1.402490710211108
    vertex 312.77970622646484 310.8391946669808 -0.30255529676458826
    vertex 312.77970622646484 310.0524288736455 -0.30259696627797134
  endloop
endfacet
facet normal 0.9999999993906898 -1.8504445036550123e-06 -3.485966305148003e-05
  outer loop
    vertex 312.77970622646484 310.8391946669808 -0.30255529676458826
    vertex 312.7796674433524 310.0524591034173 -1.402490710211108
    vertex 312.77967456576323 314.0524591437102 -1.4028278993087118
  endloop
endfacet
facet normal 0.9999999993906898 -1.8504445036550123e-06 -3.485966305148003e-05
  outer loop
    vertex 312.77970622646484 310.8391946669808 -0.30255529676458826
    vertex 312.77967456576323 314.0524591437102 -1.4028278993087118
    vertex 312.77971334887565 314.0524289139385 -0.3029341553755753
  endloop
endfacet
facet normal -4.3055144047444605e-06 0.9999999998869287 1.4408516147130758e-05
  outer loop
    vertex 312.77970622646484 310.0524288736455 -0.30259696627797134
    vertex 318.2521634193855 310.0525040183964 -0.6025969730550744
    vertex 312.7796674433524 310.0524591034173 -1.402490710211108
  endloop
endfacet
facet normal -4.3055144047444605e-06 0.9999999998869287 1.4408516147130758e-05
  outer loop
    vertex 318.2521634193855 310.0525040183964 -0.6025969730550744
    vertex 312.77970622646484 310.0524288736455 -0.30259696627797134
    vertex 318.25220899396567 310.0524288736455 -0.30259696627797134
  endloop
endfacet
facet normal -4.3055144047444605e-06 0.9999999998869287 1.4408516147130758e-05
  outer loop
    vertex 318.25220899396567 310.0524288736455 -0.30259696627797134
    vertex 312.77970622646484 310.0524288736455 -0.30259696627797134
    vertex 313.57889180235026 310.0524288736455 -0.30251365344095044
  endloop
endfacet
facet normal -4.3055144047444605e-06 0.9999999998869287 1.4408516147130758e-05
  outer loop
    vertex 318.25220899396567 310.0524288736455 -0.30259696627797134
    vertex 313.57889180235026 310.0524288736455 -0.30251365344095044
    vertex 317.4507183674929 310.0524288736455 -0.30251365344095044
  endloop
endfacet
facet normal -4.3055144047444605e-06 0.9999999998869287 1.4408516147130758e-05
  outer loop
    vertex 312.7796674433524 310.0524591034173 -1.402490710211108
    vertex 320.55216341938524 310.0525040191387 -0.6025842061933053
    vertex 320.5522114857437 310.05244745972703 -1.4025842027499669
  endloop
endfacet
facet normal -4.3055144047444605e-06 0.9999999998869287 1.4408516147130758e-05
  outer loop
    vertex 320.55216341938524 310.0525040191387 -0.6025842061933053
    vertex 312.7796674433524 310.0524591034173 -1.402490710211108
    vertex 318.2521634193855 310.0525040183964 -0.6025969730550744
  endloop
endfacet
facet normal 3.948450130072565e-07 -5.252868069665547e-05 -0.999999998620291
  outer loop
    vertex 312.8051186638462 311.04468549616075 0.4974339202109865
    vertex 312.808333139821 310.6342110774811 0.4974554831599091
    vertex 312.77970591058886 310.8392366899254 0.49744470213164477
  endloop
endfacet
facet normal 3.948450130072565e-07 -5.252868069665547e-05 -0.999999998620291
  outer loop
    vertex 312.808333139821 310.6342110774811 0.4974554831599091
    vertex 312.8051186638462 311.04468549616075 0.4974339202109865
    vertex 312.8828395624551 311.23655649956237 0.49742387216800926
  endloop
endfacet
facet normal 3.948450130072565e-07 -5.252868069665547e-05 -0.999999998620291
  outer loop
    vertex 312.808333139821 310.6342110774811 0.4974554831599091
    vertex 312.8828395624551 311.23655649956237 0.49742387216800926
    vertex 312.8890494531791 310.4435808154951 0.4974655285865197
  endloop
endfacet
facet normal 3.948450130072565e-07 -5.252868069665547e-05 -0.999999998620291
  outer loop
    vertex 312.8890494531791 310.4435808154951 0.4974655285865197
    vertex 312.8828395624551 311.23655649956237 0.49742387216800926
    vertex 313.0075720556152 311.40177400833034 0.49741524276023674
  endloop
endfacet
facet normal 3.948450130072565e-07 -5.252868069665547e-05 -0.999999998620291
  outer loop
    vertex 312.8890494531791 310.4435808154951 0.4974655285865197
    vertex 313.0075720556152 311.40177400833034 0.49741524276023674
    vertex 313.016354167298 310.28033704129035 0.49747415383225413
  endloop
endfacet
facet normal 3.948450130072565e-07 -5.252868069665547e-05 -0.999999998620291
  outer loop
    vertex 313.016354167298 310.28033704129035 0.49747415383225413
    vertex 313.0075720556152 311.40177400833034 0.49741524276023674
    vertex 313.1708158300478 311.5290787222769 0.49740862006754777
  endloop
endfacet
facet normal 3.948450130072565e-07 -5.252868069665547e-05 -0.999999998620291
  outer loop
    vertex 313.016354167298 310.28033704129035 0.49747415383225413
    vertex 313.1708158300478 311.5290787222769 0.49740862006754777
    vertex 313.1815716762913 310.1556045483058 0.4974807711008692
  endloop
endfacet
facet normal 3.948450130072565e-07 -5.252868069665547e-05 -0.999999998620291
  outer loop
    vertex 313.1815716762913 310.1556045483058 0.4974807711008692
    vertex 313.1708158300478 311.5290787222769 0.49740862006754777
    vertex 313.3614460922985 311.6097950355277 0.4974044554155046
  endloop
endfacet
facet normal 3.948450130072565e-07 -5.252868069665547e-05 -0.999999998620291
  outer loop
    vertex 313.1815716762913 310.1556045483058 0.4974807711008692
    vertex 313.3614460922985 311.6097950355277 0.4974044554155046
    vertex 313.37344267995604 310.07788364980803 0.4974849294364444
  endloop
endfacet
facet normal 3.948450130072565e-07 -5.252868069665547e-05 -0.999999998620291
  outer loop
    vertex 313.37344267995604 310.07788364980803 0.4974849294364444
    vertex 313.3614460922985 311.6097950355277 0.4974044554155046
    vertex 313.5664717050262 311.63842226472457 0.49740303261826163
  endloop
endfacet
facet normal 3.948450130072565e-07 -5.252868069665547e-05 -0.999999998620291
  outer loop
    vertex 313.37344267995604 310.07788364980803 0.4974849294364444
    vertex 313.5664717050262 311.63842226472457 0.49740303261826163
    vertex 313.5788914864743 310.0524708965901 0.49748634545528253
  endloop
endfacet
facet normal 3.948450130072565e-07 -5.252868069665547e-05 -0.999999998620291
  outer loop
    vertex 313.5788914864743 310.0524708965901 0.49748634545528253
    vertex 313.5664717050262 311.63842226472457 0.49740303261826163
    vertex 313.7719205115444 311.61300951150656 0.4974044486370997
  endloop
endfacet
facet normal 3.948450130072565e-07 -5.252868069665547e-05 -0.999999998620291
  outer loop
    vertex 313.5788914864743 310.0524708965901 0.49748634545528253
    vertex 313.7719205115444 311.61300951150656 0.4974044486370997
    vertex 313.783917099202 310.0810981257869 0.4974849226580395
  endloop
endfacet
facet normal 3.948450130072565e-07 -5.252868069665547e-05 -0.999999998620291
  outer loop
    vertex 313.783917099202 310.0810981257869 0.4974849226580395
    vertex 313.7719205115444 311.61300951150656 0.4974044486370997
    vertex 313.9637915152091 311.53528861300885 0.4974086069726749
  endloop
endfacet
facet normal 3.948450130072565e-07 -5.252868069665547e-05 -0.999999998620291
  outer loop
    vertex 313.783917099202 310.0810981257869 0.4974849226580395
    vertex 313.9637915152091 311.53528861300885 0.4974086069726749
    vertex 313.9745473614526 310.16181443903776 0.4974807580059964
  endloop
endfacet
facet normal 3.948450130072565e-07 -5.252868069665547e-05 -0.999999998620291
  outer loop
    vertex 313.9745473614526 310.16181443903776 0.4974807580059964
    vertex 313.9637915152091 311.53528861300885 0.4974086069726749
    vertex 314.12900902420245 311.4105561200243 0.49741522424129003
  endloop
endfacet
facet normal 3.948450130072565e-07 -5.252868069665547e-05 -0.999999998620291
  outer loop
    vertex 313.9745473614526 310.16181443903776 0.4974807580059964
    vertex 314.12900902420245 311.4105561200243 0.49741522424129003
    vertex 314.1377911358852 310.28911915298426 0.4974741353133074
  endloop
endfacet
facet normal 3.948450130072565e-07 -5.252868069665547e-05 -0.999999998620291
  outer loop
    vertex 314.1377911358852 310.28911915298426 0.4974741353133074
    vertex 314.12900902420245 311.4105561200243 0.49741522424129003
    vertex 314.25631373832124 311.24731234581947 0.49742384948702445
  endloop
endfacet
facet normal 3.948450130072565e-07 -5.252868069665547e-05 -0.999999998620291
  outer loop
    vertex 314.1377911358852 310.28911915298426 0.4974741353133074
    vertex 314.25631373832124 311.24731234581947 0.49742384948702445
    vertex 314.26252362904535 310.4543366617523 0.4974655059055349
  endloop
endfacet
facet normal 3.948450130072565e-07 -5.252868069665547e-05 -0.999999998620291
  outer loop
    vertex 314.26252362904535 310.4543366617523 0.4974655059055349
    vertex 314.25631373832124 311.24731234581947 0.49742384948702445
    vertex 314.33703005167945 311.05668208383355 0.49743389491363504
  endloop
endfacet
facet normal 3.948450130072565e-07 -5.252868069665547e-05 -0.999999998620291
  outer loop
    vertex 314.26252362904535 310.4543366617523 0.4974655059055349
    vertex 314.33703005167945 311.05668208383355 0.49743389491363504
    vertex 314.3402445276542 310.6462076651539 0.4974554578625576
  endloop
endfacet
facet normal 3.948450130072565e-07 -5.252868069665547e-05 -0.999999998620291
  outer loop
    vertex 314.3402445276542 310.6462076651539 0.4974554578625576
    vertex 314.33703005167945 311.05668208383355 0.49743389491363504
    vertex 314.36565728091153 310.8516564713892 0.4974446759418994
  endloop
endfacet
facet normal 0.00010096674424401679 4.940682612488595e-05 -0.9999999936823412
  outer loop
    vertex 312.80833345569704 310.6341690545365 -0.3025445157363239
    vertex 312.77970622646484 310.0524288736455 -0.30259696627797134
    vertex 312.77970622646484 310.8391946669808 -0.30255529676458826
  endloop
endfacet
facet normal 0.00010096674424401679 4.940682612488595e-05 -0.9999999936823412
  outer loop
    vertex 312.77970622646484 310.0524288736455 -0.30259696627797134
    vertex 312.80833345569704 310.6341690545365 -0.3025445157363239
    vertex 312.88904976905513 310.44353879255056 -0.3025344703097133
  endloop
endfacet
facet normal 0.00010096674424401679 4.940682612488595e-05 -0.9999999936823412
  outer loop
    vertex 312.77970622646484 310.0524288736455 -0.30259696627797134
    vertex 312.88904976905513 310.44353879255056 -0.3025344703097133
    vertex 313.016354483174 310.2802950183458 -0.30252584506397884
  endloop
endfacet
facet normal 0.00010096674424401679 4.940682612488595e-05 -0.9999999936823412
  outer loop
    vertex 312.77970622646484 310.0524288736455 -0.30259696627797134
    vertex 313.016354483174 310.2802950183458 -0.30252584506397884
    vertex 313.1815719921673 310.15556252536123 -0.3025192277953638
  endloop
endfacet
facet normal 0.00010096674424401679 4.940682612488595e-05 -0.9999999936823412
  outer loop
    vertex 312.77970622646484 310.0524288736455 -0.30259696627797134
    vertex 313.1815719921673 310.15556252536123 -0.3025192277953638
    vertex 313.373442995832 310.07784162686346 -0.30251506945978857
  endloop
endfacet
facet normal 0.00010096674424401679 4.940682612488595e-05 -0.9999999936823412
  outer loop
    vertex 312.77970622646484 310.0524288736455 -0.30259696627797134
    vertex 313.373442995832 310.07784162686346 -0.30251506945978857
    vertex 313.57889180235026 310.0524288736455 -0.30251365344095044
  endloop
endfacet
facet normal -2.471308051634878e-08 -9.464994978150218e-05 -0.9999999955206933
  outer loop
    vertex 314.1824868538691 312.45243421219743 -0.3027153726984122
    vertex 314.2563140541973 311.2472703228749 -0.3025761494092085
    vertex 314.1290093400784 311.4105140970797 -0.302584774654943
  endloop
endfacet
facet normal -2.471308051634878e-08 -9.464994978150218e-05 -0.9999999955206933
  outer loop
    vertex 314.2563140541973 311.2472703228749 -0.3025761494092085
    vertex 314.1824868538691 312.45243421219743 -0.3027153726984122
    vertex 314.4824868538691 311.4524805756978 -0.30271537465257026
  endloop
endfacet
facet normal -2.471308051634878e-08 -9.464994978150218e-05 -0.9999999955206933
  outer loop
    vertex 314.2563140541973 311.2472703228749 -0.3025761494092085
    vertex 314.4824868538691 311.4524805756978 -0.30271537465257026
    vertex 314.3370303675554 311.056640060889 -0.3025661039825979
  endloop
endfacet
facet normal -2.471308051634878e-08 -9.464994978150218e-05 -0.9999999955206933
  outer loop
    vertex 314.3370303675554 311.056640060889 -0.3025661039825979
    vertex 314.4824868538691 311.4524805756978 -0.30271537465257026
    vertex 314.36565759678757 310.85161444844465 -0.30255532295433357
  endloop
endfacet
facet normal -2.471308051634878e-08 -9.464994978150218e-05 -0.9999999955206933
  outer loop
    vertex 312.77971334887565 314.0524289139385 -0.3029341553755753
    vertex 312.8051189797222 311.0446434732162 -0.3025660786852465
    vertex 312.77970622646484 310.8391946669808 -0.30255529676458826
  endloop
endfacet
facet normal -2.471308051634878e-08 -9.464994978150218e-05 -0.9999999955206933
  outer loop
    vertex 312.8051189797222 311.0446434732162 -0.3025660786852465
    vertex 312.77971334887565 314.0524289139385 -0.3029341553755753
    vertex 312.8828398783311 311.2365144766178 -0.30257612672822376
  endloop
endfacet
facet normal -2.471308051634878e-08 -9.464994978150218e-05 -0.9999999955206933
  outer loop
    vertex 312.8828398783311 311.2365144766178 -0.30257612672822376
    vertex 312.77971334887565 314.0524289139385 -0.3029341553755753
    vertex 314.4824868538691 313.4523878486971 -0.30271537074425414
  endloop
endfacet
facet normal -2.471308051634878e-08 -9.464994978150218e-05 -0.9999999955206933
  outer loop
    vertex 314.4824868538691 313.4523878486971 -0.30271537074425414
    vertex 312.77971334887565 314.0524289139385 -0.3029341553755753
    vertex 315.4824868538691 313.7523878486971 -0.30271537074425414
  endloop
endfacet
facet normal -2.471308051634878e-08 -9.464994978150218e-05 -0.9999999955206933
  outer loop
    vertex 315.4824868538691 313.7523878486971 -0.30271537074425414
    vertex 312.77971334887565 314.0524289139385 -0.3029341553755753
    vertex 318.2522161163765 314.0524289139385 -0.3029341553755753
  endloop
endfacet
facet normal -2.471308051634878e-08 -9.464994978150218e-05 -0.9999999955206933
  outer loop
    vertex 312.8828398783311 311.2365144766178 -0.30257612672822376
    vertex 314.4824868538691 313.4523878486971 -0.30271537074425414
    vertex 313.00757237149116 311.40173198538577 -0.3025847561359962
  endloop
endfacet
facet normal -2.471308051634878e-08 -9.464994978150218e-05 -0.9999999955206933
  outer loop
    vertex 313.00757237149116 311.40173198538577 -0.3025847561359962
    vertex 314.4824868538691 313.4523878486971 -0.30271537074425414
    vertex 313.17081614592377 311.5290366993323 -0.3025913788286852
  endloop
endfacet
facet normal -2.471308051634878e-08 -9.464994978150218e-05 -0.9999999955206933
  outer loop
    vertex 313.17081614592377 311.5290366993323 -0.3025913788286852
    vertex 314.4824868538691 313.4523878486971 -0.30271537074425414
    vertex 313.36144640817446 311.60975301258316 -0.30259554348072837
  endloop
endfacet
facet normal -2.471308051634878e-08 -9.464994978150218e-05 -0.9999999955206933
  outer loop
    vertex 313.36144640817446 311.60975301258316 -0.30259554348072837
    vertex 314.4824868538691 313.4523878486971 -0.30271537074425414
    vertex 313.56647202090215 311.63838024178 -0.30259696627797134
  endloop
endfacet
facet normal -2.471308051634878e-08 -9.464994978150218e-05 -0.9999999955206933
  outer loop
    vertex 313.56647202090215 311.63838024178 -0.30259696627797134
    vertex 314.4824868538691 313.4523878486971 -0.30271537074425414
    vertex 313.7719208274204 311.612967488562 -0.30259555025913326
  endloop
endfacet
facet normal -2.471308051634878e-08 -9.464994978150218e-05 -0.9999999955206933
  outer loop
    vertex 313.7719208274204 311.612967488562 -0.30259555025913326
    vertex 314.4824868538691 313.4523878486971 -0.30271537074425414
    vertex 314.1824868538691 312.45243421219743 -0.3027153726984122
  endloop
endfacet
facet normal -2.471308051634878e-08 -9.464994978150218e-05 -0.9999999955206933
  outer loop
    vertex 313.7719208274204 311.612967488562 -0.30259555025913326
    vertex 314.1824868538691 312.45243421219743 -0.3027153726984122
    vertex 313.96379183108513 311.5352465900643 -0.30259139192355805
  endloop
endfacet
facet normal -2.471308051634878e-08 -9.464994978150218e-05 -0.9999999955206933
  outer loop
    vertex 313.96379183108513 311.5352465900643 -0.30259139192355805
    vertex 314.1824868538691 312.45243421219743 -0.3027153726984122
    vertex 314.1290093400784 311.4105140970797 -0.302584774654943
  endloop
endfacet
facet normal -2.471308051634878e-08 -9.464994978150218e-05 -0.9999999955206933
  outer loop
    vertex 315.4824868538691 313.7523878486971 -0.30271537074425414
    vertex 318.2522161163765 314.0524289139385 -0.3029341553755753
    vertex 316.4824868538691 313.4523878486971 -0.30271537074425414
  endloop
endfacet
facet normal -2.471308051634878e-08 -9.464994978150218e-05 -0.9999999955206933
  outer loop
    vertex 316.4824868538691 313.4523878486971 -0.30271537074425414
    vertex 318.2522161163765 314.0524289139385 -0.3029341553755753
    vertex 316.7824868538691 312.45243421219743 -0.3027153726984122
  endloop
endfacet
facet normal -2.471308051634878e-08 -9.464994978150218e-05 -0.9999999955206933
  outer loop
    vertex 316.7824868538691 312.45243421219743 -0.3027153726984122
    vertex 318.2522161163765 314.0524289139385 -0.3029341553755753
    vertex 316.87939893663383 311.40173198538577 -0.3025847561359962
  endloop
endfacet
facet normal -2.471308051634878e-08 -9.464994978150218e-05 -0.9999999955206933
  outer loop
    vertex 316.87939893663383 311.40173198538577 -0.3025847561359962
    vertex 318.2522161163765 314.0524289139385 -0.3029341553755753
    vertex 317.0426427110665 311.5290366993323 -0.3025913788286852
  endloop
endfacet
facet normal -2.471308051634878e-08 -9.464994978150218e-05 -0.9999999955206933
  outer loop
    vertex 317.0426427110665 311.5290366993323 -0.3025913788286852
    vertex 318.2522161163765 314.0524289139385 -0.3029341553755753
    vertex 317.2332729733171 311.60975301258316 -0.30259554348072837
  endloop
endfacet
facet normal -2.471308051634878e-08 -9.464994978150218e-05 -0.9999999955206933
  outer loop
    vertex 317.2332729733171 311.60975301258316 -0.30259554348072837
    vertex 318.2522161163765 314.0524289139385 -0.3029341553755753
    vertex 317.4382985860448 311.63838024178 -0.30259696627797134
  endloop
endfacet
facet normal -2.471308051634878e-08 -9.464994978150218e-05 -0.9999999955206933
  outer loop
    vertex 317.4382985860448 311.63838024178 -0.30259696627797134
    vertex 318.2522161163765 314.0524289139385 -0.3029341553755753
    vertex 317.64374739256306 311.612967488562 -0.30259555025913326
  endloop
endfacet
facet normal -2.471308051634878e-08 -9.464994978150218e-05 -0.9999999955206933
  outer loop
    vertex 317.64374739256306 311.612967488562 -0.30259555025913326
    vertex 318.2522161163765 314.0524289139385 -0.3029341553755753
    vertex 317.8356183962278 311.5352465900643 -0.30259139192355805
  endloop
endfacet
facet normal -2.471308051634878e-08 -9.464994978150218e-05 -0.9999999955206933
  outer loop
    vertex 317.8356183962278 311.5352465900643 -0.30259139192355805
    vertex 318.2522161163765 314.0524289139385 -0.3029341553755753
    vertex 318.0008359052211 311.4105140970797 -0.302584774654943
  endloop
endfacet
facet normal -2.471308051634878e-08 -9.464994978150218e-05 -0.9999999955206933
  outer loop
    vertex 318.0008359052211 311.4105140970797 -0.302584774654943
    vertex 318.2522161163765 314.0524289139385 -0.3029341553755753
    vertex 318.12814061933994 311.2472703228749 -0.3025761494092085
  endloop
endfacet
facet normal -2.471308051634878e-08 -9.464994978150218e-05 -0.9999999955206933
  outer loop
    vertex 318.12814061933994 311.2472703228749 -0.3025761494092085
    vertex 318.2522161163765 314.0524289139385 -0.3029341553755753
    vertex 318.2088569326981 311.056640060889 -0.3025661039825979
  endloop
endfacet
facet normal -2.471308051634878e-08 -9.464994978150218e-05 -0.9999999955206933
  outer loop
    vertex 318.2088569326981 311.056640060889 -0.3025661039825979
    vertex 318.2522161163765 314.0524289139385 -0.3029341553755753
    vertex 318.23748416193024 310.85161444844465 -0.30255532295433357
  endloop
endfacet
facet normal -2.471308051634878e-08 -9.464994978150218e-05 -0.9999999955206933
  outer loop
    vertex 316.7824868538691 312.45243421219743 -0.3027153726984122
    vertex 316.6515327916075 310.8391946669808 -0.30255529676458826
    vertex 316.4824868538691 311.4524805756978 -0.30271537465257026
  endloop
endfacet
facet normal -2.471308051634878e-08 -9.464994978150218e-05 -0.9999999955206933
  outer loop
    vertex 316.6515327916075 310.8391946669808 -0.30255529676458826
    vertex 316.7824868538691 312.45243421219743 -0.3027153726984122
    vertex 316.67694554486485 311.0446434732162 -0.3025660786852465
  endloop
endfacet
facet normal -2.471308051634878e-08 -9.464994978150218e-05 -0.9999999955206933
  outer loop
    vertex 316.67694554486485 311.0446434732162 -0.3025660786852465
    vertex 316.7824868538691 312.45243421219743 -0.3027153726984122
    vertex 316.75466644347375 311.2365144766178 -0.30257612672822376
  endloop
endfacet
facet normal -2.471308051634878e-08 -9.464994978150218e-05 -0.9999999955206933
  outer loop
    vertex 316.75466644347375 311.2365144766178 -0.30257612672822376
    vertex 316.7824868538691 312.45243421219743 -0.3027153726984122
    vertex 316.87939893663383 311.40173198538577 -0.3025847561359962
  endloop
endfacet
facet normal -2.471308051634878e-08 -9.464994978150218e-05 -0.9999999955206933
  outer loop
    vertex 313.78391741507795 310.08105610284235 -0.30251507623819346
    vertex 317.4507183674929 310.0524288736455 -0.30251365344095044
    vertex 313.57889180235026 310.0524288736455 -0.30251365344095044
  endloop
endfacet
facet normal -2.471308051634878e-08 -9.464994978150218e-05 -0.9999999955206933
  outer loop
    vertex 317.4507183674929 310.0524288736455 -0.30251365344095044
    vertex 313.78391741507795 310.08105610284235 -0.30251507623819346
    vertex 313.9745476773286 310.1617724160932 -0.30251924089023663
  endloop
endfacet
facet normal -2.471308051634878e-08 -9.464994978150218e-05 -0.9999999955206933
  outer loop
    vertex 317.4507183674929 310.0524288736455 -0.30251365344095044
    vertex 313.9745476773286 310.1617724160932 -0.30251924089023663
    vertex 314.13779145176125 310.2890771300397 -0.3025258635829256
  endloop
endfacet
facet normal -2.471308051634878e-08 -9.464994978150218e-05 -0.9999999955206933
  outer loop
    vertex 317.4507183674929 310.0524288736455 -0.30251365344095044
    vertex 314.13779145176125 310.2890771300397 -0.3025258635829256
    vertex 317.2452695609747 310.07784162686346 -0.30251506945978857
  endloop
endfacet
facet normal -2.471308051634878e-08 -9.464994978150218e-05 -0.9999999955206933
  outer loop
    vertex 317.2452695609747 310.07784162686346 -0.30251506945978857
    vertex 314.13779145176125 310.2890771300397 -0.3025258635829256
    vertex 314.2625239449213 310.4542946388077 -0.30253449299069807
  endloop
endfacet
facet normal -2.471308051634878e-08 -9.464994978150218e-05 -0.9999999955206933
  outer loop
    vertex 317.2452695609747 310.07784162686346 -0.30251506945978857
    vertex 314.2625239449213 310.4542946388077 -0.30253449299069807
    vertex 314.34024484353023 310.6461656422093 -0.30254454103367534
  endloop
endfacet
facet normal -2.471308051634878e-08 -9.464994978150218e-05 -0.9999999955206933
  outer loop
    vertex 317.2452695609747 310.07784162686346 -0.30251506945978857
    vertex 314.34024484353023 310.6461656422093 -0.30254454103367534
    vertex 314.36565759678757 310.85161444844465 -0.30255532295433357
  endloop
endfacet
facet normal -2.471308051634878e-08 -9.464994978150218e-05 -0.9999999955206933
  outer loop
    vertex 317.2452695609747 310.07784162686346 -0.30251506945978857
    vertex 314.36565759678757 310.85161444844465 -0.30255532295433357
    vertex 317.05339855730995 310.15556252536123 -0.3025192277953638
  endloop
endfacet
facet normal -2.471308051634878e-08 -9.464994978150218e-05 -0.9999999955206933
  outer loop
    vertex 317.05339855730995 310.15556252536123 -0.3025192277953638
    vertex 314.36565759678757 310.85161444844465 -0.30255532295433357
    vertex 314.4824868538691 311.4524805756978 -0.30271537465257026
  endloop
endfacet
facet normal -2.471308051634878e-08 -9.464994978150218e-05 -0.9999999955206933
  outer loop
    vertex 317.05339855730995 310.15556252536123 -0.3025192277953638
    vertex 314.4824868538691 311.4524805756978 -0.30271537465257026
    vertex 315.4824868538691 311.1524805756978 -0.30271537465257026
  endloop
endfacet
facet normal -2.471308051634878e-08 -9.464994978150218e-05 -0.9999999955206933
  outer loop
    vertex 317.05339855730995 310.15556252536123 -0.3025192277953638
    vertex 315.4824868538691 311.1524805756978 -0.30271537465257026
    vertex 316.88818104831665 310.2802950183458 -0.30252584506397884
  endloop
endfacet
facet normal -2.471308051634878e-08 -9.464994978150218e-05 -0.9999999955206933
  outer loop
    vertex 316.88818104831665 310.2802950183458 -0.30252584506397884
    vertex 315.4824868538691 311.1524805756978 -0.30271537465257026
    vertex 316.7608763341978 310.44353879255056 -0.3025344703097133
  endloop
endfacet
facet normal -2.471308051634878e-08 -9.464994978150218e-05 -0.9999999955206933
  outer loop
    vertex 316.7608763341978 310.44353879255056 -0.3025344703097133
    vertex 315.4824868538691 311.1524805756978 -0.30271537465257026
    vertex 316.6801600208397 310.6341690545365 -0.3025445157363239
  endloop
endfacet
facet normal -2.471308051634878e-08 -9.464994978150218e-05 -0.9999999955206933
  outer loop
    vertex 316.6801600208397 310.6341690545365 -0.3025445157363239
    vertex 315.4824868538691 311.1524805756978 -0.30271537465257026
    vertex 316.4824868538691 311.4524805756978 -0.30271537465257026
  endloop
endfacet
facet normal -2.471308051634878e-08 -9.464994978150218e-05 -0.9999999955206933
  outer loop
    vertex 316.6801600208397 310.6341690545365 -0.3025445157363239
    vertex 316.4824868538691 311.4524805756978 -0.30271537465257026
    vertex 316.6515327916075 310.8391946669808 -0.30255529676458826
  endloop
endfacet
facet normal 0.9903923264278142 0.13828607921864286 -6.872933838540466e-06
  outer loop
    vertex 312.77970622646484 310.8391946669808 -0.30255529676458826
    vertex 312.808333139821 310.6342110774811 0.4974554831599091
    vertex 312.80833345569704 310.6341690545365 -0.3025445157363239
  endloop
endfacet
facet normal 0.9638694274012816 0.2663751616345749 -1.3611756793203285e-05
  outer loop
    vertex 312.808333139821 310.6342110774811 0.4974554831599091
    vertex 312.77970622646484 310.8391946669808 -0.30255529676458826
    vertex 312.77970591058886 310.8392366899254 0.49744470213164477
  endloop
endfacet
facet normal -0.2663751619820441 0.9638694260660524 -5.0735966289390714e-05
  outer loop
    vertex 313.78391741507795 310.08105610284235 -0.30251507623819346
    vertex 313.9745473614526 310.16181443903776 0.4974807580059964
    vertex 313.9745476773286 310.1617724160932 -0.30251924089023663
  endloop
endfacet
facet normal -0.5067664132439266 0.8620834068343235 -4.5484198265269017e-05
  outer loop
    vertex 313.9745473614526 310.16181443903776 0.4974807580059964
    vertex 313.78391741507795 310.08105610284235 -0.30251507623819346
    vertex 313.783917099202 310.0810981257869 0.4974849226580395
  endloop
endfacet
facet normal -0.9679229910516941 0.25124705612032516 -1.3579855971647317e-05
  outer loop
    vertex 314.3402445276542 310.6462076651539 0.4974554578625576
    vertex 314.36565759678757 310.85161444844465 -0.30255532295433357
    vertex 314.34024484353023 310.6461656422093 -0.30254454103367534
  endloop
endfacet
facet normal -0.9999693381605809 -0.007830883646792342 1.6513080344927396e-08
  outer loop
    vertex 314.36565759678757 310.85161444844465 -0.30255532295433357
    vertex 314.3402445276542 310.6462076651539 0.4974554578625576
    vertex 314.36565728091153 310.8516564713892 0.4974446759418994
  endloop
endfacet
facet normal -0.86991429167101 0.49320292421823847 -2.6250780280945082e-05
  outer loop
    vertex 314.26252362904535 310.4543366617523 0.4974655059055349
    vertex 314.34024484353023 310.6461656422093 -0.30254454103367534
    vertex 314.2625239449213 310.4542946388077 -0.30253449299069807
  endloop
endfacet
facet normal -0.9679229910516931 0.2512470561203281 -1.3579855971647471e-05
  outer loop
    vertex 314.34024484353023 310.6461656422093 -0.30254454103367534
    vertex 314.26252362904535 310.4543366617523 0.4974655059055349
    vertex 314.3402445276542 310.6462076651539 0.4974554578625576
  endloop
endfacet
facet normal 0.9679229910516941 -0.25124705612032516 1.3579855971647317e-05
  outer loop
    vertex 312.8051189797222 311.0446434732162 -0.3025660786852465
    vertex 312.77970591058886 310.8392366899254 0.49744470213164477
    vertex 312.77970622646484 310.8391946669808 -0.30255529676458826
  endloop
endfacet
facet normal 0.9924365972735182 -0.12275830051516973 6.840190221222238e-06
  outer loop
    vertex 312.77970591058886 310.8392366899254 0.49744470213164477
    vertex 312.8051189797222 311.0446434732162 -0.3025660786852465
    vertex 312.8051186638462 311.04468549616075 0.4974339202109865
  endloop
endfacet
facet normal 0.7126223709142326 -0.7015478280871063 3.713275729556503e-05
  outer loop
    vertex 313.00757237149116 311.40173198538577 -0.3025847561359962
    vertex 312.8828395624551 311.23655649956237 0.49742387216800926
    vertex 312.8828398783311 311.2365144766178 -0.30257612672822376
  endloop
endfacet
facet normal 0.8699142916710081 -0.49320292421824163 2.625078028094525e-05
  outer loop
    vertex 312.8828395624551 311.23655649956237 0.49742387216800926
    vertex 313.00757237149116 311.40173198538577 -0.3025847561359962
    vertex 313.0075720556152 311.40177400833034 0.49741524276023674
  endloop
endfacet
facet normal 0.86991429167101 -0.49320292421823847 2.6250780280945082e-05
  outer loop
    vertex 312.8828398783311 311.2365144766178 -0.30257612672822376
    vertex 312.8051186638462 311.04468549616075 0.4974339202109865
    vertex 312.8051189797222 311.0446434732162 -0.3025660786852465
  endloop
endfacet
facet normal 0.9679229910516931 -0.2512470561203281 1.3579855971647471e-05
  outer loop
    vertex 312.8051186638462 311.04468549616075 0.4974339202109865
    vertex 312.8828398783311 311.2365144766178 -0.30257612672822376
    vertex 312.8828395624551 311.23655649956237 0.49742387216800926
  endloop
endfacet
facet normal -0.13828607938848478 0.9903923250587016 -5.207860384809493e-05
  outer loop
    vertex 313.57889180235026 310.0524288736455 -0.30251365344095044
    vertex 313.783917099202 310.0810981257869 0.4974849226580395
    vertex 313.78391741507795 310.08105610284235 -0.30251507623819346
  endloop
endfacet
facet normal -0.26637516198204736 0.9638694260660516 -5.0735966289390674e-05
  outer loop
    vertex 313.783917099202 310.0810981257869 0.4974849226580395
    vertex 313.57889180235026 310.0524288736455 -0.30251365344095044
    vertex 313.5788914864743 310.0524708965901 0.49748634545528253
  endloop
endfacet
facet normal -0.7015478290696433 -0.7126223699457477 3.715611031774448e-05
  outer loop
    vertex 314.1290093400784 311.4105140970797 -0.302584774654943
    vertex 313.9637915152091 311.53528861300885 0.4974086069726749
    vertex 313.96379183108513 311.5352465900643 -0.30259139192355805
  endloop
endfacet
facet normal -0.493202924916733 -0.8699142904811166 4.5500711345613945e-05
  outer loop
    vertex 313.9637915152091 311.53528861300885 0.4974086069726749
    vertex 314.1290093400784 311.4105140970797 -0.302584774654943
    vertex 314.12900902420245 311.4105561200243 0.49741522424129003
  endloop
endfacet
facet normal -0.49320292491673196 -0.8699142904811173 4.550071134561399e-05
  outer loop
    vertex 313.96379183108513 311.5352465900643 -0.30259139192355805
    vertex 313.7719205115444 311.61300951150656 0.4974044486370997
    vertex 313.7719208274204 311.612967488562 -0.30259555025913326
  endloop
endfacet
facet normal -0.2512470564869962 -0.9679229897216073 5.0744514088764465e-05
  outer loop
    vertex 313.7719205115444 311.61300951150656 0.4974044486370997
    vertex 313.96379183108513 311.5352465900643 -0.30259139192355805
    vertex 313.9637915152091 311.53528861300885 0.4974086069726749
  endloop
endfacet
facet normal -0.8620834080341131 -0.5067664125627138 2.62793817750957e-05
  outer loop
    vertex 314.25631373832124 311.24731234581947 0.49742384948702445
    vertex 314.1290093400784 311.4105140970797 -0.302584774654943
    vertex 314.2563140541973 311.2472703228749 -0.3025761494092085
  endloop
endfacet
facet normal -0.7015478290696433 -0.7126223699457477 3.715611031774448e-05
  outer loop
    vertex 314.1290093400784 311.4105140970797 -0.302584774654943
    vertex 314.25631373832124 311.24731234581947 0.49742384948702445
    vertex 314.12900902420245 311.4105561200243 0.49741522424129003
  endloop
endfacet
facet normal -0.9999693381605809 -0.007830883646794734 1.651308034505308e-08
  outer loop
    vertex 314.36565728091153 310.8516564713892 0.4974446759418994
    vertex 314.3370303675554 311.056640060889 -0.3025661039825979
    vertex 314.36565759678757 310.85161444844465 -0.30255532295433357
  endloop
endfacet
facet normal -0.9638694274012566 -0.26637516163466435 1.3611756793207995e-05
  outer loop
    vertex 314.3370303675554 311.056640060889 -0.3025661039825979
    vertex 314.36565728091153 310.8516564713892 0.4974446759418994
    vertex 314.33703005167945 311.05668208383355 0.49743389491363504
  endloop
endfacet
facet normal -0.9638694274012564 -0.26637516163466585 1.3611756793208076e-05
  outer loop
    vertex 314.33703005167945 311.05668208383355 0.49743389491363504
    vertex 314.2563140541973 311.2472703228749 -0.3025761494092085
    vertex 314.3370303675554 311.056640060889 -0.3025661039825979
  endloop
endfacet
facet normal -0.8620834080341134 -0.5067664125627133 2.6279381775095675e-05
  outer loop
    vertex 314.2563140541973 311.2472703228749 -0.3025761494092085
    vertex 314.33703005167945 311.05668208383355 0.49743389491363504
    vertex 314.25631373832124 311.24731234581947 0.49742384948702445
  endloop
endfacet
facet normal 0.2512470564869941 0.9679229897216078 -5.0744514088764506e-05
  outer loop
    vertex 313.37344267995604 310.07788364980803 0.4974849294364444
    vertex 313.57889180235026 310.0524288736455 -0.30251365344095044
    vertex 313.373442995832 310.07784162686346 -0.30251506945978857
  endloop
endfacet
facet normal 0.12275830070477343 0.9924365959069861 -5.208291462709451e-05
  outer loop
    vertex 313.57889180235026 310.0524288736455 -0.30251365344095044
    vertex 313.37344267995604 310.07788364980803 0.4974849294364444
    vertex 313.5788914864743 310.0524708965901 0.49748634545528253
  endloop
endfacet
facet normal 0.49320292491673196 0.8699142904811173 -4.550071134561399e-05
  outer loop
    vertex 313.1815716762913 310.1556045483058 0.4974807711008692
    vertex 313.373442995832 310.07784162686346 -0.30251506945978857
    vertex 313.1815719921673 310.15556252536123 -0.3025192277953638
  endloop
endfacet
facet normal 0.2512470564869962 0.9679229897216073 -5.0744514088764465e-05
  outer loop
    vertex 313.373442995832 310.07784162686346 -0.30251506945978857
    vertex 313.1815716762913 310.1556045483058 0.4974807711008692
    vertex 313.37344267995604 310.07788364980803 0.4974849294364444
  endloop
endfacet
facet normal -0.5067664132439232 0.8620834068343254 -4.548419826526911e-05
  outer loop
    vertex 313.9745476773286 310.1617724160932 -0.30251924089023663
    vertex 314.1377911358852 310.28911915298426 0.4974741353133074
    vertex 314.13779145176125 310.2890771300397 -0.3025258635829256
  endloop
endfacet
facet normal -0.7126223709142326 0.7015478280871063 -3.713275729556503e-05
  outer loop
    vertex 314.1377911358852 310.28911915298426 0.4974741353133074
    vertex 313.9745476773286 310.1617724160932 -0.30251924089023663
    vertex 313.9745473614526 310.16181443903776 0.4974807580059964
  endloop
endfacet
facet normal -0.7126223709142326 0.7015478280871063 -3.713275729556503e-05
  outer loop
    vertex 314.1377911358852 310.28911915298426 0.4974741353133074
    vertex 314.2625239449213 310.4542946388077 -0.30253449299069807
    vertex 314.13779145176125 310.2890771300397 -0.3025258635829256
  endloop
endfacet
facet normal -0.8699142916710081 0.49320292421824163 -2.625078028094525e-05
  outer loop
    vertex 314.2625239449213 310.4542946388077 -0.30253449299069807
    vertex 314.1377911358852 310.28911915298426 0.4974741353133074
    vertex 314.26252362904535 310.4543366617523 0.4974655059055349
  endloop
endfacet
facet normal 0.5067664132439232 -0.8620834068343254 4.548419826526911e-05
  outer loop
    vertex 313.1708158300478 311.5290787222769 0.49740862006754777
    vertex 313.00757237149116 311.40173198538577 -0.3025847561359962
    vertex 313.17081614592377 311.5290366993323 -0.3025913788286852
  endloop
endfacet
facet normal 0.7126223709142326 -0.7015478280871063 3.713275729556503e-05
  outer loop
    vertex 313.00757237149116 311.40173198538577 -0.3025847561359962
    vertex 313.1708158300478 311.5290787222769 0.49740862006754777
    vertex 313.0075720556152 311.40177400833034 0.49741524276023674
  endloop
endfacet
facet normal 0.963869427401281 0.2663751616345765 -1.3611756793203365e-05
  outer loop
    vertex 312.80833345569704 310.6341690545365 -0.3025445157363239
    vertex 312.8890494531791 310.4435808154951 0.4974655285865197
    vertex 312.88904976905513 310.44353879255056 -0.3025344703097133
  endloop
endfacet
facet normal 0.8620834080341718 0.5067664125626142 -2.6279381775090447e-05
  outer loop
    vertex 312.8890494531791 310.4435808154951 0.4974655285865197
    vertex 312.80833345569704 310.6341690545365 -0.3025445157363239
    vertex 312.808333139821 310.6342110774811 0.4974554831599091
  endloop
endfacet
facet normal 0.2663751619820441 -0.9638694260660524 5.0735966289390714e-05
  outer loop
    vertex 313.3614460922985 311.6097950355277 0.4974044554155046
    vertex 313.17081614592377 311.5290366993323 -0.3025913788286852
    vertex 313.36144640817446 311.60975301258316 -0.30259554348072837
  endloop
endfacet
facet normal 0.5067664132439266 -0.8620834068343235 4.5484198265269017e-05
  outer loop
    vertex 313.17081614592377 311.5290366993323 -0.3025913788286852
    vertex 313.3614460922985 311.6097950355277 0.4974044554155046
    vertex 313.1708158300478 311.5290787222769 0.49740862006754777
  endloop
endfacet
facet normal -0.2512470564869941 -0.9679229897216078 5.0744514088764506e-05
  outer loop
    vertex 313.7719208274204 311.612967488562 -0.30259555025913326
    vertex 313.5664717050262 311.63842226472457 0.49740303261826163
    vertex 313.56647202090215 311.63838024178 -0.30259696627797134
  endloop
endfacet
facet normal 0.007830883636933444 -0.9999693367809068 5.2530162056038416e-05
  outer loop
    vertex 313.5664717050262 311.63842226472457 0.49740303261826163
    vertex 313.7719208274204 311.612967488562 -0.30259555025913326
    vertex 313.7719205115444 311.61300951150656 0.4974044486370997
  endloop
endfacet
facet normal 0.007830883636933444 -0.9999693367809068 5.2530162056038416e-05
  outer loop
    vertex 313.5664717050262 311.63842226472457 0.49740303261826163
    vertex 313.36144640817446 311.60975301258316 -0.30259554348072837
    vertex 313.56647202090215 311.63838024178 -0.30259696627797134
  endloop
endfacet
facet normal 0.26637516198204736 -0.9638694260660516 5.0735966289390674e-05
  outer loop
    vertex 313.36144640817446 311.60975301258316 -0.30259554348072837
    vertex 313.5664717050262 311.63842226472457 0.49740303261826163
    vertex 313.3614460922985 311.6097950355277 0.4974044554155046
  endloop
endfacet
facet normal 0.8620834080341715 0.5067664125626149 -2.6279381775090474e-05
  outer loop
    vertex 312.88904976905513 310.44353879255056 -0.3025344703097133
    vertex 313.016354167298 310.28033704129035 0.49747415383225413
    vertex 313.016354483174 310.2802950183458 -0.30252584506397884
  endloop
endfacet
facet normal 0.701547829069582 0.7126223699458081 -3.715611031774767e-05
  outer loop
    vertex 313.016354167298 310.28033704129035 0.49747415383225413
    vertex 312.88904976905513 310.44353879255056 -0.3025344703097133
    vertex 312.8890494531791 310.4435808154951 0.4974655285865197
  endloop
endfacet
facet normal 0.701547829069582 0.7126223699458081 -3.715611031774767e-05
  outer loop
    vertex 313.016354167298 310.28033704129035 0.49747415383225413
    vertex 313.1815719921673 310.15556252536123 -0.3025192277953638
    vertex 313.016354483174 310.2802950183458 -0.30252584506397884
  endloop
endfacet
facet normal 0.493202924916733 0.8699142904811166 -4.5500711345613945e-05
  outer loop
    vertex 313.1815719921673 310.15556252536123 -0.3025192277953638
    vertex 313.016354167298 310.28033704129035 0.49747415383225413
    vertex 313.1815716762913 310.1556045483058 0.4974807711008692
  endloop
endfacet
facet normal -0.00010121806748625326 4.746731908599573e-05 -0.9999999937508783
  outer loop
    vertex 317.6557439802206 310.08105610284235 -0.30251507623819346
    vertex 318.25220899396567 310.0524288736455 -0.30259696627797134
    vertex 317.4507183674929 310.0524288736455 -0.30251365344095044
  endloop
endfacet
facet normal -0.00010121806748625326 4.746731908599573e-05 -0.9999999937508783
  outer loop
    vertex 318.25220899396567 310.0524288736455 -0.30259696627797134
    vertex 317.6557439802206 310.08105610284235 -0.30251507623819346
    vertex 317.8463742424713 310.1617724160932 -0.30251924089023663
  endloop
endfacet
facet normal -0.00010121806748625326 4.746731908599573e-05 -0.9999999937508783
  outer loop
    vertex 318.25220899396567 310.0524288736455 -0.30259696627797134
    vertex 317.8463742424713 310.1617724160932 -0.30251924089023663
    vertex 318.0096180169039 310.2890771300397 -0.3025258635829256
  endloop
endfacet
facet normal -0.00010121806748625326 4.746731908599573e-05 -0.9999999937508783
  outer loop
    vertex 318.25220899396567 310.0524288736455 -0.30259696627797134
    vertex 318.0096180169039 310.2890771300397 -0.3025258635829256
    vertex 318.134350510064 310.4542946388077 -0.30253449299069807
  endloop
endfacet
facet normal -0.00010121806748625326 4.746731908599573e-05 -0.9999999937508783
  outer loop
    vertex 318.25220899396567 310.0524288736455 -0.30259696627797134
    vertex 318.134350510064 310.4542946388077 -0.30253449299069807
    vertex 318.2120714086729 310.6461656422093 -0.30254454103367534
  endloop
endfacet
facet normal -0.00010121806748625326 4.746731908599573e-05 -0.9999999937508783
  outer loop
    vertex 318.25220899396567 310.0524288736455 -0.30259696627797134
    vertex 318.2120714086729 310.6461656422093 -0.30254454103367534
    vertex 318.23748416193024 310.85161444844465 -0.30255532295433357
  endloop
endfacet
facet normal -0.00010121806748625326 4.746731908599573e-05 -0.9999999937508783
  outer loop
    vertex 317.6557439802206 310.08105610284235 -0.30251507623819346
    vertex 318.25220899396567 310.0524288736455 -0.30259696627797134
    vertex 317.4507183674929 310.0524288736455 -0.30251365344095044
  endloop
endfacet
facet normal -0.00010121806748625326 4.746731908599573e-05 -0.9999999937508783
  outer loop
    vertex 318.25220899396567 310.0524288736455 -0.30259696627797134
    vertex 317.6557439802206 310.08105610284235 -0.30251507623819346
    vertex 317.8463742424713 310.1617724160932 -0.30251924089023663
  endloop
endfacet
facet normal -0.00010121806748625326 4.746731908599573e-05 -0.9999999937508783
  outer loop
    vertex 318.25220899396567 310.0524288736455 -0.30259696627797134
    vertex 317.8463742424713 310.1617724160932 -0.30251924089023663
    vertex 318.0096180169039 310.2890771300397 -0.3025258635829256
  endloop
endfacet
facet normal -0.00010121806748625326 4.746731908599573e-05 -0.9999999937508783
  outer loop
    vertex 318.25220899396567 310.0524288736455 -0.30259696627797134
    vertex 318.0096180169039 310.2890771300397 -0.3025258635829256
    vertex 318.134350510064 310.4542946388077 -0.30253449299069807
  endloop
endfacet
facet normal -0.00010121806748625326 4.746731908599573e-05 -0.9999999937508783
  outer loop
    vertex 318.25220899396567 310.0524288736455 -0.30259696627797134
    vertex 318.134350510064 310.4542946388077 -0.30253449299069807
    vertex 318.2120714086729 310.6461656422093 -0.30254454103367534
  endloop
endfacet
facet normal -0.00010121806748625326 4.746731908599573e-05 -0.9999999937508783
  outer loop
    vertex 318.25220899396567 310.0524288736455 -0.30259696627797134
    vertex 318.2120714086729 310.6461656422093 -0.30254454103367534
    vertex 318.23748416193024 310.85161444844465 -0.30255532295433357
  endloop
endfacet
endsolid FinchScopeCapMk1.0
