solid ActiveCommLinkerMk1.1
facet normal -0.0 -0.0 1.0
  outer loop
    vertex -47.99999999999997 -3.9999999999999996 7.999999999999999
    vertex -44.23585151806836 11.533403863610875 7.9999999999999964
    vertex -47.99999999999997 28.800895329408636 7.999999999999999
  endloop
endfacet
facet normal -0.0 -0.0 1.0
  outer loop
    vertex -44.23585151806836 11.533403863610875 7.9999999999999964
    vertex -47.99999999999997 -3.9999999999999996 7.999999999999999
    vertex -43.90118510267785 10.725447664704319 7.9999999999999964
  endloop
endfacet
facet normal -0.0 -0.0 1.0
  outer loop
    vertex -43.90118510267785 10.725447664704319 7.9999999999999964
    vertex -47.99999999999997 -3.9999999999999996 7.999999999999999
    vertex -43.36880771697491 10.031639947729385 7.9999999999999964
  endloop
endfacet
facet normal -0.0 -0.0 1.0
  outer loop
    vertex -43.36880771697491 10.031639947729385 7.9999999999999964
    vertex -47.99999999999997 -3.9999999999999996 7.999999999999999
    vertex -42.674999999999976 9.49926256202645 7.9999999999999964
  endloop
endfacet
facet normal -0.0 -0.0 1.0
  outer loop
    vertex -42.674999999999976 9.49926256202645 7.9999999999999964
    vertex -47.99999999999997 -3.9999999999999996 7.999999999999999
    vertex -41.86704380109342 9.164596146635938 7.9999999999999964
  endloop
endfacet
facet normal -0.0 -0.0 1.0
  outer loop
    vertex -41.86704380109342 9.164596146635938 7.9999999999999964
    vertex -47.99999999999997 -3.9999999999999996 7.999999999999999
    vertex 58.02428712581096 -3.9999999999999996 7.999999999999999
  endloop
endfacet
facet normal -0.0 -0.0 1.0
  outer loop
    vertex -47.99999999999997 28.800895329408636 7.999999999999999
    vertex -44.23585151806836 11.533403863610875 7.9999999999999964
    vertex -44.34999999999997 12.400447664704318 7.9999999999999964
  endloop
endfacet
facet normal -0.0 -0.0 1.0
  outer loop
    vertex -41.86704380109342 9.164596146635938 7.9999999999999964
    vertex 58.02428712581096 -3.9999999999999996 7.999999999999999
    vertex -40.99999999999998 9.050447664704317 7.9999999999999964
  endloop
endfacet
facet normal -0.0 -0.0 1.0
  outer loop
    vertex -40.99999999999998 9.050447664704317 7.9999999999999964
    vertex 58.02428712581096 -3.9999999999999996 7.999999999999999
    vertex -40.132956198906534 9.164596146635938 7.9999999999999964
  endloop
endfacet
facet normal -0.0 -0.0 1.0
  outer loop
    vertex -40.132956198906534 9.164596146635938 7.9999999999999964
    vertex 58.02428712581096 -3.9999999999999996 7.999999999999999
    vertex 9.167697658579229 2.768505059402263 7.999999999999999
  endloop
endfacet
facet normal -0.0 -0.0 1.0
  outer loop
    vertex -40.132956198906534 9.164596146635938 7.9999999999999964
    vertex 9.167697658579229 2.768505059402263 7.999999999999999
    vertex -39.32499999999998 9.499262562026448 7.9999999999999964
  endloop
endfacet
facet normal -0.0 -0.0 1.0
  outer loop
    vertex -39.32499999999998 9.499262562026448 7.9999999999999964
    vertex 9.167697658579229 2.768505059402263 7.999999999999999
    vertex -38.63119228302504 10.031639947729383 7.9999999999999964
  endloop
endfacet
facet normal -0.0 -0.0 1.0
  outer loop
    vertex -38.63119228302504 10.031639947729383 7.9999999999999964
    vertex 9.167697658579229 2.768505059402263 7.999999999999999
    vertex -38.09881489732211 10.725447664704317 7.9999999999999964
  endloop
endfacet
facet normal -0.0 -0.0 1.0
  outer loop
    vertex -38.09881489732211 10.725447664704317 7.9999999999999964
    vertex 9.167697658579229 2.768505059402263 7.999999999999999
    vertex -37.76414848193159 11.533403863610872 7.9999999999999964
  endloop
endfacet
facet normal -0.0 -0.0 1.0
  outer loop
    vertex -37.76414848193159 11.533403863610872 7.9999999999999964
    vertex 9.167697658579229 2.768505059402263 7.999999999999999
    vertex -37.64999999999998 12.400447664704318 7.9999999999999964
  endloop
endfacet
facet normal -0.0 -0.0 1.0
  outer loop
    vertex -37.64999999999998 12.400447664704318 7.9999999999999964
    vertex 9.167697658579229 2.768505059402263 7.999999999999999
    vertex 6.714102806719962 3.802925848395013 7.999999999999999
  endloop
endfacet
facet normal -0.0 -0.0 1.0
  outer loop
    vertex -37.64999999999998 12.400447664704318 7.9999999999999964
    vertex 6.714102806719962 3.802925848395013 7.999999999999999
    vertex 4.611839972900496 5.437136680360103 7.999999999999999
  endloop
endfacet
facet normal -0.0 -0.0 1.0
  outer loop
    vertex -37.64999999999998 12.400447664704318 7.9999999999999964
    vertex 4.611839972900496 5.437136680360103 7.999999999999999
    vertex 3.004174895092034 7.559768787760196 7.999999999999999
  endloop
endfacet
facet normal -0.0 -0.0 1.0
  outer loop
    vertex -37.64999999999998 12.400447664704318 7.9999999999999964
    vertex 3.004174895092034 7.559768787760196 7.999999999999999
    vertex 2.000667291555055 10.026168300291397 7.999999999999999
  endloop
endfacet
facet normal -0.0 -0.0 1.0
  outer loop
    vertex -37.64999999999998 12.400447664704318 7.9999999999999964
    vertex 2.000667291555055 10.026168300291397 7.999999999999999
    vertex 1.6697045470958876 12.668254167092611 7.999999999999999
  endloop
endfacet
facet normal -0.0 -0.0 1.0
  outer loop
    vertex 9.167697658579229 2.768505059402263 7.999999999999999
    vertex 58.02428712581096 -3.9999999999999996 7.999999999999999
    vertex 11.805416094081291 2.404368380690528 7.999999999999999
  endloop
endfacet
facet normal -0.0 -0.0 1.0
  outer loop
    vertex 11.805416094081291 2.404368380690528 7.999999999999999
    vertex 58.02428712581096 -3.9999999999999996 7.999999999999999
    vertex 14.447501960882507 2.7353311251496955 7.999999999999999
  endloop
endfacet
facet normal -0.0 -0.0 1.0
  outer loop
    vertex 14.447501960882507 2.7353311251496955 7.999999999999999
    vertex 58.02428712581096 -3.9999999999999996 7.999999999999999
    vertex 16.913901473413706 3.73883872868667 7.999999999999999
  endloop
endfacet
facet normal -0.0 -0.0 1.0
  outer loop
    vertex 16.913901473413706 3.73883872868667 7.999999999999999
    vertex 58.02428712581096 -3.9999999999999996 7.999999999999999
    vertex 19.036533580813803 5.346503806495135 7.999999999999999
  endloop
endfacet
facet normal -0.0 -0.0 1.0
  outer loop
    vertex 19.036533580813803 5.346503806495135 7.999999999999999
    vertex 58.02428712581096 -3.9999999999999996 7.999999999999999
    vertex 20.67074441277889 7.448766640314598 7.999999999999999
  endloop
endfacet
facet normal -0.0 -0.0 1.0
  outer loop
    vertex 20.67074441277889 7.448766640314598 7.999999999999999
    vertex 58.02428712581096 -3.9999999999999996 7.999999999999999
    vertex 21.705165201771642 9.902361492173867 7.999999999999999
  endloop
endfacet
facet normal -0.0 -0.0 1.0
  outer loop
    vertex 21.705165201771642 9.902361492173867 7.999999999999999
    vertex 58.02428712581096 -3.9999999999999996 7.999999999999999
    vertex 22.06930188048338 12.540079927675928 7.999999999999999
  endloop
endfacet
facet normal -0.0 -0.0 1.0
  outer loop
    vertex -47.99999999999997 28.800895329408636 7.999999999999999
    vertex 9.291504466696756 22.473002969618843 7.999999999999999
    vertex 58.02428712581096 28.800895329408636 7.999999999999999
  endloop
endfacet
facet normal -0.0 -0.0 1.0
  outer loop
    vertex 9.291504466696756 22.473002969618843 7.999999999999999
    vertex -47.99999999999997 28.800895329408636 7.999999999999999
    vertex -41.867043801093416 15.636299182772698 7.9999999999999964
  endloop
endfacet
facet normal -0.0 -0.0 1.0
  outer loop
    vertex -41.867043801093416 15.636299182772698 7.9999999999999964
    vertex -47.99999999999997 28.800895329408636 7.999999999999999
    vertex -42.674999999999976 15.301632767382188 7.9999999999999964
  endloop
endfacet
facet normal -0.0 -0.0 1.0
  outer loop
    vertex -42.674999999999976 15.301632767382188 7.9999999999999964
    vertex -47.99999999999997 28.800895329408636 7.999999999999999
    vertex -43.36880771697491 14.769255381679253 7.9999999999999964
  endloop
endfacet
facet normal -0.0 -0.0 1.0
  outer loop
    vertex -43.36880771697491 14.769255381679253 7.9999999999999964
    vertex -47.99999999999997 28.800895329408636 7.999999999999999
    vertex -43.90118510267785 14.075447664704319 7.9999999999999964
  endloop
endfacet
facet normal -0.0 -0.0 1.0
  outer loop
    vertex -43.90118510267785 14.075447664704319 7.9999999999999964
    vertex -47.99999999999997 28.800895329408636 7.999999999999999
    vertex -44.23585151806836 13.267491465797763 7.9999999999999964
  endloop
endfacet
facet normal -0.0 -0.0 1.0
  outer loop
    vertex -44.23585151806836 13.267491465797763 7.9999999999999964
    vertex -47.99999999999997 28.800895329408636 7.999999999999999
    vertex -44.34999999999997 12.400447664704318 7.9999999999999964
  endloop
endfacet
facet normal -0.0 -0.0 1.0
  outer loop
    vertex 9.291504466696756 22.473002969618843 7.999999999999999
    vertex -41.867043801093416 15.636299182772698 7.9999999999999964
    vertex -40.99999999999998 15.75044766470432 7.9999999999999964
  endloop
endfacet
facet normal -0.0 -0.0 1.0
  outer loop
    vertex 9.291504466696756 22.473002969618843 7.999999999999999
    vertex -40.99999999999998 15.75044766470432 7.9999999999999964
    vertex -40.132956198906534 15.636299182772698 7.9999999999999964
  endloop
endfacet
facet normal -0.0 -0.0 1.0
  outer loop
    vertex 9.291504466696756 22.473002969618843 7.999999999999999
    vertex -40.132956198906534 15.636299182772698 7.9999999999999964
    vertex -39.324999999999974 15.301632767382188 7.9999999999999964
  endloop
endfacet
facet normal -0.0 -0.0 1.0
  outer loop
    vertex 9.291504466696756 22.473002969618843 7.999999999999999
    vertex -39.324999999999974 15.301632767382188 7.9999999999999964
    vertex -38.63119228302504 14.769255381679253 7.9999999999999964
  endloop
endfacet
facet normal -0.0 -0.0 1.0
  outer loop
    vertex 9.291504466696756 22.473002969618843 7.999999999999999
    vertex -38.63119228302504 14.769255381679253 7.9999999999999964
    vertex -38.09881489732211 14.075447664704319 7.9999999999999964
  endloop
endfacet
facet normal -0.0 -0.0 1.0
  outer loop
    vertex 9.291504466696756 22.473002969618843 7.999999999999999
    vertex -38.09881489732211 14.075447664704319 7.9999999999999964
    vertex -37.76414848193159 13.267491465797763 7.9999999999999964
  endloop
endfacet
facet normal -0.0 -0.0 1.0
  outer loop
    vertex 9.291504466696756 22.473002969618843 7.999999999999999
    vertex -37.76414848193159 13.267491465797763 7.9999999999999964
    vertex -37.64999999999998 12.400447664704318 7.9999999999999964
  endloop
endfacet
facet normal -0.0 -0.0 1.0
  outer loop
    vertex 9.291504466696756 22.473002969618843 7.999999999999999
    vertex -37.64999999999998 12.400447664704318 7.9999999999999964
    vertex 6.825104954165556 21.46949536608187 7.999999999999999
  endloop
endfacet
facet normal -0.0 -0.0 1.0
  outer loop
    vertex 6.825104954165556 21.46949536608187 7.999999999999999
    vertex -37.64999999999998 12.400447664704318 7.9999999999999964
    vertex 4.70247284676546 19.861830288273406 7.999999999999999
  endloop
endfacet
facet normal -0.0 -0.0 1.0
  outer loop
    vertex 4.70247284676546 19.861830288273406 7.999999999999999
    vertex -37.64999999999998 12.400447664704318 7.9999999999999964
    vertex 3.0682620148003728 17.75956745445394 7.999999999999999
  endloop
endfacet
facet normal -0.0 -0.0 1.0
  outer loop
    vertex 3.0682620148003728 17.75956745445394 7.999999999999999
    vertex -37.64999999999998 12.400447664704318 7.9999999999999964
    vertex 2.0338412258076226 15.305972602594673 7.999999999999999
  endloop
endfacet
facet normal -0.0 -0.0 1.0
  outer loop
    vertex 2.0338412258076226 15.305972602594673 7.999999999999999
    vertex -37.64999999999998 12.400447664704318 7.9999999999999964
    vertex 1.6697045470958876 12.668254167092611 7.999999999999999
  endloop
endfacet
facet normal -0.0 -0.0 1.0
  outer loop
    vertex 58.02428712581096 28.800895329408636 7.999999999999999
    vertex 9.291504466696756 22.473002969618843 7.999999999999999
    vertex 11.93359033349797 22.803965714078018 7.999999999999999
  endloop
endfacet
facet normal -0.0 -0.0 1.0
  outer loop
    vertex 58.02428712581096 28.800895329408636 7.999999999999999
    vertex 11.93359033349797 22.803965714078018 7.999999999999999
    vertex 14.571308769000035 22.43982903536628 7.999999999999999
  endloop
endfacet
facet normal -0.0 -0.0 1.0
  outer loop
    vertex 58.02428712581096 28.800895329408636 7.999999999999999
    vertex 14.571308769000035 22.43982903536628 7.999999999999999
    vertex 17.02490362085931 21.405408246373526 7.999999999999999
  endloop
endfacet
facet normal -0.0 -0.0 1.0
  outer loop
    vertex 58.02428712581096 28.800895329408636 7.999999999999999
    vertex 17.02490362085931 21.405408246373526 7.999999999999999
    vertex 19.12716645467877 19.77119741440844 7.999999999999999
  endloop
endfacet
facet normal -0.0 -0.0 1.0
  outer loop
    vertex 58.02428712581096 28.800895329408636 7.999999999999999
    vertex 19.12716645467877 19.77119741440844 7.999999999999999
    vertex 20.73483153248723 17.648565307008347 7.999999999999999
  endloop
endfacet
facet normal -0.0 -0.0 1.0
  outer loop
    vertex 58.02428712581096 28.800895329408636 7.999999999999999
    vertex 20.73483153248723 17.648565307008347 7.999999999999999
    vertex 21.738339136024212 15.18216579447714 7.999999999999999
  endloop
endfacet
facet normal -0.0 -0.0 1.0
  outer loop
    vertex 58.02428712581096 28.800895329408636 7.999999999999999
    vertex 21.738339136024212 15.18216579447714 7.999999999999999
    vertex 22.06930188048338 12.540079927675928 7.999999999999999
  endloop
endfacet
facet normal -0.0 -0.0 1.0
  outer loop
    vertex 58.02428712581096 28.800895329408636 7.999999999999999
    vertex 22.06930188048338 12.540079927675928 7.999999999999999
    vertex 58.02428712581096 -3.9999999999999996 7.999999999999999
  endloop
endfacet
facet normal -0.0 -0.0 1.0
  outer loop
    vertex 92.09490414911895 -12.0 7.999999999999999
    vertex 58.02428712581096 -3.9999999999999996 7.999999999999999
    vertex 58.02428712581096 -12.0 7.999999999999999
  endloop
endfacet
facet normal -0.0 -0.0 1.0
  outer loop
    vertex 58.02428712581096 -3.9999999999999996 7.999999999999999
    vertex 92.09490414911895 -12.0 7.999999999999999
    vertex 68.86884566345053 3.7140925783915315 7.999999999999999
  endloop
endfacet
facet normal -0.0 -0.0 1.0
  outer loop
    vertex 58.02428712581096 -3.9999999999999996 7.999999999999999
    vertex 68.86884566345053 3.7140925783915315 7.999999999999999
    vertex 66.73831835253468 5.311279932214584 7.999999999999999
  endloop
endfacet
facet normal -0.0 -0.0 1.0
  outer loop
    vertex 58.02428712581096 -3.9999999999999996 7.999999999999999
    vertex 66.73831835253468 5.311279932214584 7.999999999999999
    vertex 65.09376950507314 7.405465490870653 7.999999999999999
  endloop
endfacet
facet normal -0.0 -0.0 1.0
  outer loop
    vertex 58.02428712581096 -3.9999999999999996 7.999999999999999
    vertex 65.09376950507314 7.405465490870653 7.999999999999999
    vertex 64.04727240727499 9.853933969342595 7.999999999999999
  endloop
endfacet
facet normal -0.0 -0.0 1.0
  outer loop
    vertex 58.02428712581096 -3.9999999999999996 7.999999999999999
    vertex 64.04727240727499 9.853933969342595 7.999999999999999
    vertex 58.02428712581096 28.800895329408636 7.999999999999999
  endloop
endfacet
facet normal -0.0 -0.0 1.0
  outer loop
    vertex 58.02428712581096 28.800895329408636 7.999999999999999
    vertex 64.04727240727499 9.853933969342595 7.999999999999999
    vertex 58.02428712581096 36.800895329408625 7.999999999999999
  endloop
endfacet
facet normal -0.0 -0.0 1.0
  outer loop
    vertex 58.02428712581096 36.800895329408625 7.999999999999999
    vertex 64.04727240727499 9.853933969342595 7.999999999999999
    vertex 63.67014410693692 12.48982628710802 7.999999999999999
  endloop
endfacet
facet normal -0.0 -0.0 1.0
  outer loop
    vertex 68.86884566345053 3.7140925783915315 7.999999999999999
    vertex 92.09490414911895 -12.0 7.999999999999999
    vertex 71.34015952244467 2.722749108087631 7.999999999999999
  endloop
endfacet
facet normal -0.0 -0.0 1.0
  outer loop
    vertex 71.34015952244467 2.722749108087631 7.999999999999999
    vertex 92.09490414911895 -12.0 7.999999999999999
    vertex 73.98384397406588 2.404807940531556 7.999999999999999
  endloop
endfacet
facet normal -0.0 -0.0 1.0
  outer loop
    vertex 73.98384397406588 2.404807940531556 7.999999999999999
    vertex 92.09490414911895 -12.0 7.999999999999999
    vertex 76.6197362918313 2.7819362408696224 7.999999999999999
  endloop
endfacet
facet normal -0.0 -0.0 1.0
  outer loop
    vertex 76.6197362918313 2.7819362408696224 7.999999999999999
    vertex 92.09490414911895 -12.0 7.999999999999999
    vertex 79.06820477030324 3.8284333386677787 7.999999999999999
  endloop
endfacet
facet normal -0.0 -0.0 1.0
  outer loop
    vertex 79.06820477030324 3.8284333386677787 7.999999999999999
    vertex 92.09490414911895 -12.0 7.999999999999999
    vertex 81.16239032895932 5.472982186129309 7.999999999999999
  endloop
endfacet
facet normal -0.0 -0.0 1.0
  outer loop
    vertex 81.16239032895932 5.472982186129309 7.999999999999999
    vertex 92.09490414911895 -12.0 7.999999999999999
    vertex 82.75957768278236 7.60350949704517 7.999999999999999
  endloop
endfacet
facet normal -0.0 -0.0 1.0
  outer loop
    vertex 82.75957768278236 7.60350949704517 7.999999999999999
    vertex 92.09490414911895 -12.0 7.999999999999999
    vertex 83.75092115308627 10.074823356039305 7.999999999999999
  endloop
endfacet
facet normal -0.0 -0.0 1.0
  outer loop
    vertex 83.75092115308627 10.074823356039305 7.999999999999999
    vertex 92.09490414911895 -12.0 7.999999999999999
    vertex 84.06886232064235 12.718507807660522 7.999999999999999
  endloop
endfacet
facet normal -0.0 -0.0 1.0
  outer loop
    vertex 58.02428712581096 36.800895329408625 7.999999999999999
    vertex 68.67080165727602 21.37990075610076 7.999999999999999
    vertex 92.09490414911895 36.800895329408625 7.999999999999999
  endloop
endfacet
facet normal -0.0 -0.0 1.0
  outer loop
    vertex 68.67080165727602 21.37990075610076 7.999999999999999
    vertex 58.02428712581096 36.800895329408625 7.999999999999999
    vertex 66.57661609861995 19.73535190863923 7.999999999999999
  endloop
endfacet
facet normal -0.0 -0.0 1.0
  outer loop
    vertex 66.57661609861995 19.73535190863923 7.999999999999999
    vertex 58.02428712581096 36.800895329408625 7.999999999999999
    vertex 64.97942874479689 17.60482459772337 7.999999999999999
  endloop
endfacet
facet normal -0.0 -0.0 1.0
  outer loop
    vertex 64.97942874479689 17.60482459772337 7.999999999999999
    vertex 58.02428712581096 36.800895329408625 7.999999999999999
    vertex 63.98808527449299 15.133510738729235 7.999999999999999
  endloop
endfacet
facet normal -0.0 -0.0 1.0
  outer loop
    vertex 63.98808527449299 15.133510738729235 7.999999999999999
    vertex 58.02428712581096 36.800895329408625 7.999999999999999
    vertex 63.67014410693692 12.48982628710802 7.999999999999999
  endloop
endfacet
facet normal -0.0 -0.0 1.0
  outer loop
    vertex 92.09490414911895 36.800895329408625 7.999999999999999
    vertex 68.67080165727602 21.37990075610076 7.999999999999999
    vertex 71.11927013574795 22.42639785389892 7.999999999999999
  endloop
endfacet
facet normal -0.0 -0.0 1.0
  outer loop
    vertex 92.09490414911895 36.800895329408625 7.999999999999999
    vertex 71.11927013574795 22.42639785389892 7.999999999999999
    vertex 73.75516245351338 22.803526154236987 7.999999999999999
  endloop
endfacet
facet normal -0.0 -0.0 1.0
  outer loop
    vertex 92.09490414911895 36.800895329408625 7.999999999999999
    vertex 73.75516245351338 22.803526154236987 7.999999999999999
    vertex 76.39884690513459 22.485584986680912 7.999999999999999
  endloop
endfacet
facet normal -0.0 -0.0 1.0
  outer loop
    vertex 92.09490414911895 36.800895329408625 7.999999999999999
    vertex 76.39884690513459 22.485584986680912 7.999999999999999
    vertex 78.87016076412873 21.494241516377013 7.999999999999999
  endloop
endfacet
facet normal -0.0 -0.0 1.0
  outer loop
    vertex 92.09490414911895 36.800895329408625 7.999999999999999
    vertex 78.87016076412873 21.494241516377013 7.999999999999999
    vertex 81.0006880750446 19.89705416255396 7.999999999999999
  endloop
endfacet
facet normal -0.0 -0.0 1.0
  outer loop
    vertex 92.09490414911895 36.800895329408625 7.999999999999999
    vertex 81.0006880750446 19.89705416255396 7.999999999999999
    vertex 82.64523692250611 17.802868603897885 7.999999999999999
  endloop
endfacet
facet normal -0.0 -0.0 1.0
  outer loop
    vertex 92.09490414911895 36.800895329408625 7.999999999999999
    vertex 82.64523692250611 17.802868603897885 7.999999999999999
    vertex 83.69173402030428 15.354400125425945 7.999999999999999
  endloop
endfacet
facet normal -0.0 -0.0 1.0
  outer loop
    vertex 92.09490414911895 36.800895329408625 7.999999999999999
    vertex 83.69173402030428 15.354400125425945 7.999999999999999
    vertex 84.06886232064235 12.718507807660522 7.999999999999999
  endloop
endfacet
facet normal -0.0 -0.0 1.0
  outer loop
    vertex 92.09490414911895 36.800895329408625 7.999999999999999
    vertex 84.06886232064235 12.718507807660522 7.999999999999999
    vertex 92.09490414911895 -12.0 7.999999999999999
  endloop
endfacet
facet normal 1.0 -0.0 -0.0
  outer loop
    vertex 92.09490414911895 36.800895329408625 -7.000000000000001
    vertex 92.09490414911895 28.800895329408636 0.0
    vertex 92.09490414911895 28.800895329408636 -7.0
  endloop
endfacet
facet normal 1.0 -0.0 -0.0
  outer loop
    vertex 92.09490414911895 -3.9999999999999996 -7.0
    vertex 92.09490414911895 -12.0 7.999999999999999
    vertex 92.09490414911895 -12.0 -7.0
  endloop
endfacet
facet normal 1.0 -0.0 -0.0
  outer loop
    vertex 92.09490414911895 -12.0 7.999999999999999
    vertex 92.09490414911895 -3.9999999999999996 -7.0
    vertex 92.09490414911895 -3.9999999999999996 0.0
  endloop
endfacet
facet normal 1.0 -0.0 -0.0
  outer loop
    vertex 92.09490414911895 -12.0 7.999999999999999
    vertex 92.09490414911895 -3.9999999999999996 0.0
    vertex 92.09490414911895 36.800895329408625 7.999999999999999
  endloop
endfacet
facet normal 1.0 -0.0 -0.0
  outer loop
    vertex 92.09490414911895 36.800895329408625 7.999999999999999
    vertex 92.09490414911895 -3.9999999999999996 0.0
    vertex 92.09490414911895 28.800895329408636 0.0
  endloop
endfacet
facet normal 1.0 -0.0 -0.0
  outer loop
    vertex 92.09490414911895 36.800895329408625 7.999999999999999
    vertex 92.09490414911895 28.800895329408636 0.0
    vertex 92.09490414911895 36.800895329408625 -7.000000000000001
  endloop
endfacet
facet normal -1.0 0.0 0.0
  outer loop
    vertex -34.99999999999998 28.800895329408636 -4.000000000000001
    vertex -34.99999999999998 22.800895329408636 -9.999999999999998
    vertex -34.99999999999998 22.800895329408636 -4.000000000000001
  endloop
endfacet
facet normal -1.0 0.0 0.0
  outer loop
    vertex -34.99999999999998 22.800895329408636 -9.999999999999998
    vertex -34.99999999999998 28.800895329408636 -4.000000000000001
    vertex -34.99999999999998 28.800895329408636 -9.999999999999998
  endloop
endfacet
facet normal 0.7149889328597735 -0.6991357707112704 0.0
  outer loop
    vertex 66.57661609861995 19.73535190863923 0.0
    vertex 64.97942874479689 17.60482459772337 7.999999999999999
    vertex 64.97942874479689 17.60482459772337 0.0
  endloop
endfacet
facet normal 0.8715759283326211 -0.490260544150893 0.0
  outer loop
    vertex 64.97942874479689 17.60482459772337 7.999999999999999
    vertex 66.57661609861995 19.73535190863923 0.0
    vertex 66.57661609861995 19.73535190863923 7.999999999999999
  endloop
endfacet
facet normal 0.8715759283326211 -0.490260544150893 0.0
  outer loop
    vertex 64.97942874479689 17.60482459772337 0.0
    vertex 63.98808527449299 15.133510738729235 7.999999999999999
    vertex 63.98808527449299 15.133510738729235 0.0
  endloop
endfacet
facet normal 0.9687664646369251 -0.24797487170048801 0.0
  outer loop
    vertex 63.98808527449299 15.133510738729235 7.999999999999999
    vertex 64.97942874479689 17.60482459772337 0.0
    vertex 64.97942874479689 17.60482459772337 7.999999999999999
  endloop
endfacet
facet normal -0.011209878458455867 0.9999371673385018 0.0
  outer loop
    vertex 73.98384397406588 2.404807940531556 7.999999999999999
    vertex 76.6197362918313 2.7819362408696224 0.0
    vertex 73.98384397406588 2.404807940531556 0.0
  endloop
endfacet
facet normal -0.2696306939256539 0.9629638045602599 0.0
  outer loop
    vertex 76.6197362918313 2.7819362408696224 0.0
    vertex 73.98384397406588 2.404807940531556 7.999999999999999
    vertex 76.6197362918313 2.7819362408696224 7.999999999999999
  endloop
endfacet
facet normal -0.5096766231876095 0.8603660498741658 0.0
  outer loop
    vertex 79.06820477030324 3.8284333386677787 7.999999999999999
    vertex 81.16239032895932 5.472982186129309 0.0
    vertex 79.06820477030324 3.8284333386677787 0.0
  endloop
endfacet
facet normal -0.7149889328597736 0.6991357707112706 0.0
  outer loop
    vertex 81.16239032895932 5.472982186129309 0.0
    vertex 79.06820477030324 3.8284333386677787 7.999999999999999
    vertex 81.16239032895932 5.472982186129309 7.999999999999999
  endloop
endfacet
facet normal -0.8715759283326211 0.49026054415089326 0.0
  outer loop
    vertex 82.75957768278236 7.60350949704517 7.999999999999999
    vertex 81.16239032895932 5.472982186129309 0.0
    vertex 81.16239032895932 5.472982186129309 7.999999999999999
  endloop
endfacet
facet normal -0.7149889328597736 0.6991357707112706 0.0
  outer loop
    vertex 81.16239032895932 5.472982186129309 0.0
    vertex 82.75957768278236 7.60350949704517 7.999999999999999
    vertex 82.75957768278236 7.60350949704517 0.0
  endloop
endfacet
facet normal -0.9687664646369251 0.2479748717004878 0.0
  outer loop
    vertex 83.75092115308627 10.074823356039305 7.999999999999999
    vertex 82.75957768278236 7.60350949704517 0.0
    vertex 82.75957768278236 7.60350949704517 7.999999999999999
  endloop
endfacet
facet normal -0.8715759283326211 0.49026054415089326 0.0
  outer loop
    vertex 82.75957768278236 7.60350949704517 0.0
    vertex 83.75092115308627 10.074823356039305 7.999999999999999
    vertex 83.75092115308627 10.074823356039305 0.0
  endloop
endfacet
facet normal -0.9999371673385016 -0.011209878458457232 0.0
  outer loop
    vertex 84.06886232064235 12.718507807660522 7.999999999999999
    vertex 83.75092115308627 10.074823356039305 0.0
    vertex 83.75092115308627 10.074823356039305 7.999999999999999
  endloop
endfacet
facet normal -0.9687664646369251 0.2479748717004878 0.0
  outer loop
    vertex 83.75092115308627 10.074823356039305 0.0
    vertex 84.06886232064235 12.718507807660522 7.999999999999999
    vertex 84.06886232064235 12.718507807660522 0.0
  endloop
endfacet
facet normal -0.9629638045602595 -0.26963069392565553 0.0
  outer loop
    vertex 83.69173402030428 15.354400125425945 7.999999999999999
    vertex 84.06886232064235 12.718507807660522 0.0
    vertex 84.06886232064235 12.718507807660522 7.999999999999999
  endloop
endfacet
facet normal -0.9999371673385016 -0.011209878458457232 0.0
  outer loop
    vertex 84.06886232064235 12.718507807660522 0.0
    vertex 83.69173402030428 15.354400125425945 7.999999999999999
    vertex 83.69173402030428 15.354400125425945 0.0
  endloop
endfacet
facet normal -0.8603660498741662 -0.5096766231876089 0.0
  outer loop
    vertex 82.64523692250611 17.802868603897885 7.999999999999999
    vertex 83.69173402030428 15.354400125425945 0.0
    vertex 83.69173402030428 15.354400125425945 7.999999999999999
  endloop
endfacet
facet normal -0.9629638045602595 -0.26963069392565553 0.0
  outer loop
    vertex 83.69173402030428 15.354400125425945 0.0
    vertex 82.64523692250611 17.802868603897885 7.999999999999999
    vertex 82.64523692250611 17.802868603897885 0.0
  endloop
endfacet
facet normal -0.49026054415089215 -0.8715759283326217 0.0
  outer loop
    vertex 78.87016076412873 21.494241516377013 7.999999999999999
    vertex 76.39884690513459 22.485584986680912 0.0
    vertex 78.87016076412873 21.494241516377013 0.0
  endloop
endfacet
facet normal -0.2479748717004864 -0.9687664646369254 0.0
  outer loop
    vertex 76.39884690513459 22.485584986680912 0.0
    vertex 78.87016076412873 21.494241516377013 7.999999999999999
    vertex 76.39884690513459 22.485584986680912 7.999999999999999
  endloop
endfacet
facet normal 0.6991357707112713 0.7149889328597728 0.0
  outer loop
    vertex 66.73831835253468 5.311279932214584 7.999999999999999
    vertex 68.86884566345053 3.7140925783915315 0.0
    vertex 66.73831835253468 5.311279932214584 0.0
  endloop
endfacet
facet normal 0.4902605441508927 0.8715759283326212 0.0
  outer loop
    vertex 68.86884566345053 3.7140925783915315 0.0
    vertex 66.73831835253468 5.311279932214584 7.999999999999999
    vertex 68.86884566345053 3.7140925783915315 7.999999999999999
  endloop
endfacet
facet normal 0.860366049874166 0.5096766231876095 0.0
  outer loop
    vertex 65.09376950507314 7.405465490870653 0.0
    vertex 66.73831835253468 5.311279932214584 7.999999999999999
    vertex 66.73831835253468 5.311279932214584 0.0
  endloop
endfacet
facet normal 0.6991357707112713 0.7149889328597728 0.0
  outer loop
    vertex 66.73831835253468 5.311279932214584 7.999999999999999
    vertex 65.09376950507314 7.405465490870653 0.0
    vertex 65.09376950507314 7.405465490870653 7.999999999999999
  endloop
endfacet
facet normal 0.9629638045602595 0.26963069392565514 0.0
  outer loop
    vertex 64.04727240727499 9.853933969342595 0.0
    vertex 65.09376950507314 7.405465490870653 7.999999999999999
    vertex 65.09376950507314 7.405465490870653 0.0
  endloop
endfacet
facet normal 0.860366049874166 0.5096766231876095 0.0
  outer loop
    vertex 65.09376950507314 7.405465490870653 7.999999999999999
    vertex 64.04727240727499 9.853933969342595 0.0
    vertex 64.04727240727499 9.853933969342595 7.999999999999999
  endloop
endfacet
facet normal 0.9999371673385016 0.011209878458457126 0.0
  outer loop
    vertex 63.67014410693692 12.48982628710802 0.0
    vertex 64.04727240727499 9.853933969342595 7.999999999999999
    vertex 64.04727240727499 9.853933969342595 0.0
  endloop
endfacet
facet normal 0.9629638045602595 0.26963069392565514 0.0
  outer loop
    vertex 64.04727240727499 9.853933969342595 7.999999999999999
    vertex 63.67014410693692 12.48982628710802 0.0
    vertex 63.67014410693692 12.48982628710802 7.999999999999999
  endloop
endfacet
facet normal 0.9687664646369251 -0.24797487170048801 0.0
  outer loop
    vertex 63.98808527449299 15.133510738729235 0.0
    vertex 63.67014410693692 12.48982628710802 7.999999999999999
    vertex 63.67014410693692 12.48982628710802 0.0
  endloop
endfacet
facet normal 0.9999371673385016 0.011209878458457126 0.0
  outer loop
    vertex 63.67014410693692 12.48982628710802 7.999999999999999
    vertex 63.98808527449299 15.133510738729235 0.0
    vertex 63.98808527449299 15.133510738729235 7.999999999999999
  endloop
endfacet
facet normal 0.5096766231876108 -0.8603660498741652 0.0
  outer loop
    vertex 68.67080165727602 21.37990075610076 7.999999999999999
    vertex 66.57661609861995 19.73535190863923 0.0
    vertex 68.67080165727602 21.37990075610076 0.0
  endloop
endfacet
facet normal 0.7149889328597735 -0.6991357707112704 0.0
  outer loop
    vertex 66.57661609861995 19.73535190863923 0.0
    vertex 68.67080165727602 21.37990075610076 7.999999999999999
    vertex 66.57661609861995 19.73535190863923 7.999999999999999
  endloop
endfacet
facet normal 0.2696306939256555 -0.9629638045602595 0.0
  outer loop
    vertex 71.11927013574795 22.42639785389892 7.999999999999999
    vertex 68.67080165727602 21.37990075610076 0.0
    vertex 71.11927013574795 22.42639785389892 0.0
  endloop
endfacet
facet normal 0.5096766231876108 -0.8603660498741652 0.0
  outer loop
    vertex 68.67080165727602 21.37990075610076 0.0
    vertex 71.11927013574795 22.42639785389892 7.999999999999999
    vertex 68.67080165727602 21.37990075610076 7.999999999999999
  endloop
endfacet
facet normal 0.011209878458456123 -0.9999371673385018 0.0
  outer loop
    vertex 73.75516245351338 22.803526154236987 7.999999999999999
    vertex 71.11927013574795 22.42639785389892 0.0
    vertex 73.75516245351338 22.803526154236987 0.0
  endloop
endfacet
facet normal 0.2696306939256555 -0.9629638045602595 0.0
  outer loop
    vertex 71.11927013574795 22.42639785389892 0.0
    vertex 73.75516245351338 22.803526154236987 7.999999999999999
    vertex 71.11927013574795 22.42639785389892 7.999999999999999
  endloop
endfacet
facet normal -0.2479748717004864 -0.9687664646369254 0.0
  outer loop
    vertex 76.39884690513459 22.485584986680912 7.999999999999999
    vertex 73.75516245351338 22.803526154236987 0.0
    vertex 76.39884690513459 22.485584986680912 0.0
  endloop
endfacet
facet normal 0.011209878458456123 -0.9999371673385018 0.0
  outer loop
    vertex 73.75516245351338 22.803526154236987 0.0
    vertex 76.39884690513459 22.485584986680912 7.999999999999999
    vertex 73.75516245351338 22.803526154236987 7.999999999999999
  endloop
endfacet
facet normal -0.6991357707112708 -0.7149889328597733 0.0
  outer loop
    vertex 81.0006880750446 19.89705416255396 7.999999999999999
    vertex 78.87016076412873 21.494241516377013 0.0
    vertex 81.0006880750446 19.89705416255396 0.0
  endloop
endfacet
facet normal -0.49026054415089215 -0.8715759283326217 0.0
  outer loop
    vertex 78.87016076412873 21.494241516377013 0.0
    vertex 81.0006880750446 19.89705416255396 7.999999999999999
    vertex 78.87016076412873 21.494241516377013 7.999999999999999
  endloop
endfacet
facet normal -0.6991357707112708 -0.7149889328597733 0.0
  outer loop
    vertex 81.0006880750446 19.89705416255396 7.999999999999999
    vertex 82.64523692250611 17.802868603897885 0.0
    vertex 82.64523692250611 17.802868603897885 7.999999999999999
  endloop
endfacet
facet normal -0.8603660498741662 -0.5096766231876089 0.0
  outer loop
    vertex 82.64523692250611 17.802868603897885 0.0
    vertex 81.0006880750446 19.89705416255396 7.999999999999999
    vertex 81.0006880750446 19.89705416255396 0.0
  endloop
endfacet
facet normal -0.2696306939256539 0.9629638045602599 0.0
  outer loop
    vertex 76.6197362918313 2.7819362408696224 7.999999999999999
    vertex 79.06820477030324 3.8284333386677787 0.0
    vertex 76.6197362918313 2.7819362408696224 0.0
  endloop
endfacet
facet normal -0.5096766231876095 0.8603660498741658 0.0
  outer loop
    vertex 79.06820477030324 3.8284333386677787 0.0
    vertex 76.6197362918313 2.7819362408696224 7.999999999999999
    vertex 79.06820477030324 3.8284333386677787 7.999999999999999
  endloop
endfacet
facet normal 0.2479748717004859 0.9687664646369257 0.0
  outer loop
    vertex 71.34015952244467 2.722749108087631 7.999999999999999
    vertex 73.98384397406588 2.404807940531556 0.0
    vertex 71.34015952244467 2.722749108087631 0.0
  endloop
endfacet
facet normal -0.011209878458455867 0.9999371673385018 0.0
  outer loop
    vertex 73.98384397406588 2.404807940531556 0.0
    vertex 71.34015952244467 2.722749108087631 7.999999999999999
    vertex 73.98384397406588 2.404807940531556 7.999999999999999
  endloop
endfacet
facet normal 0.4902605441508927 0.8715759283326212 0.0
  outer loop
    vertex 68.86884566345053 3.7140925783915315 7.999999999999999
    vertex 71.34015952244467 2.722749108087631 0.0
    vertex 68.86884566345053 3.7140925783915315 0.0
  endloop
endfacet
facet normal 0.2479748717004859 0.9687664646369257 0.0
  outer loop
    vertex 71.34015952244467 2.722749108087631 0.0
    vertex 68.86884566345053 3.7140925783915315 7.999999999999999
    vertex 71.34015952244467 2.722749108087631 7.999999999999999
  endloop
endfacet
facet normal 0.9642805870570597 -0.2648828975696472 -3.900659268265399e-18
  outer loop
    vertex 2.0338412258076226 15.305972602594673 0.0
    vertex 1.6697045470958876 12.668254167092611 7.999999999999999
    vertex 1.6697045470958876 12.668254167092611 0.0
  endloop
endfacet
facet normal 0.9999802614405632 -0.006283050951798191 -9.252405932198936e-20
  outer loop
    vertex 1.6697045470958876 12.668254167092611 7.999999999999999
    vertex 2.0338412258076226 15.305972602594673 0.0
    vertex 2.0338412258076226 15.305972602594673 7.999999999999999
  endloop
endfacet
facet normal 0.8628667842146334 -0.5054314124578106 -2.885060593536927e-18
  outer loop
    vertex 3.0682620148003728 17.75956745445394 0.0
    vertex 2.0338412258076226 15.305972602594673 7.999999999999999
    vertex 2.0338412258076226 15.305972602594673 0.0
  endloop
endfacet
facet normal 0.9642805870570597 -0.2648828975696472 -3.900659268265399e-18
  outer loop
    vertex 2.0338412258076226 15.305972602594673 7.999999999999999
    vertex 3.0682620148003728 17.75956745445394 0.0
    vertex 3.0682620148003728 17.75956745445394 7.999999999999999
  endloop
endfacet
facet normal 0.7026500359827615 -0.7115356118518762 -1.7418159285586133e-32
  outer loop
    vertex 4.70247284676546 19.861830288273406 0.0
    vertex 3.0682620148003728 17.75956745445394 7.999999999999999
    vertex 3.0682620148003728 17.75956745445394 0.0
  endloop
endfacet
facet normal 0.8628667842146334 -0.5054314124578106 -2.885060593536927e-18
  outer loop
    vertex 3.0682620148003728 17.75956745445394 7.999999999999999
    vertex 4.70247284676546 19.861830288273406 0.0
    vertex 4.70247284676546 19.861830288273406 7.999999999999999
  endloop
endfacet
facet normal 0.49454884898275236 -0.8691498351664314 2.798841895954484e-18
  outer loop
    vertex 6.825104954165556 21.46949536608187 7.999999999999999
    vertex 4.70247284676546 19.861830288273406 0.0
    vertex 6.825104954165556 21.46949536608187 0.0
  endloop
endfacet
facet normal 0.7026500359827615 -0.7115356118518762 -1.7418159285586133e-32
  outer loop
    vertex 4.70247284676546 19.861830288273406 0.0
    vertex 6.825104954165556 21.46949536608187 7.999999999999999
    vertex 4.70247284676546 19.861830288273406 7.999999999999999
  endloop
endfacet
facet normal 0.2527449752051844 -0.9675329335524093 1.875767280548004e-18
  outer loop
    vertex 9.291504466696756 22.473002969618843 7.999999999999999
    vertex 6.825104954165556 21.46949536608187 0.0
    vertex 9.291504466696756 22.473002969618843 0.0
  endloop
endfacet
facet normal 0.49454884898275236 -0.8691498351664314 2.798841895954484e-18
  outer loop
    vertex 6.825104954165556 21.46949536608187 0.0
    vertex 9.291504466696756 22.473002969618843 7.999999999999999
    vertex 6.825104954165556 21.46949536608187 7.999999999999999
  endloop
endfacet
facet normal -0.006283050951797879 -0.9999802614405632 -3.480578326697262e-21
  outer loop
    vertex 11.93359033349797 22.803965714078018 7.999999999999999
    vertex 9.291504466696756 22.473002969618843 0.0
    vertex 11.93359033349797 22.803965714078018 0.0
  endloop
endfacet
facet normal 0.2527449752051844 -0.9675329335524093 1.875767280548004e-18
  outer loop
    vertex 9.291504466696756 22.473002969618843 0.0
    vertex 11.93359033349797 22.803965714078018 7.999999999999999
    vertex 9.291504466696756 22.473002969618843 7.999999999999999
  endloop
endfacet
facet normal -0.2648828975696478 -0.9642805870570595 9.19594037079828e-19
  outer loop
    vertex 14.571308769000035 22.43982903536628 7.999999999999999
    vertex 11.93359033349797 22.803965714078018 0.0
    vertex 14.571308769000035 22.43982903536628 0.0
  endloop
endfacet
facet normal -0.006283050951797879 -0.9999802614405632 -3.480578326697262e-21
  outer loop
    vertex 11.93359033349797 22.803965714078018 0.0
    vertex 14.571308769000035 22.43982903536628 7.999999999999999
    vertex 11.93359033349797 22.803965714078018 7.999999999999999
  endloop
endfacet
facet normal -0.5054314124578109 -0.8628667842146333 -4.557910400683815e-18
  outer loop
    vertex 17.02490362085931 21.405408246373526 7.999999999999999
    vertex 14.571308769000035 22.43982903536628 0.0
    vertex 17.02490362085931 21.405408246373526 0.0
  endloop
endfacet
facet normal -0.2648828975696478 -0.9642805870570595 9.19594037079828e-19
  outer loop
    vertex 14.571308769000035 22.43982903536628 0.0
    vertex 17.02490362085931 21.405408246373526 7.999999999999999
    vertex 14.571308769000035 22.43982903536628 7.999999999999999
  endloop
endfacet
facet normal -0.711535611851876 -0.702650035982762 -4.557910400683848e-18
  outer loop
    vertex 19.12716645467877 19.77119741440844 7.999999999999999
    vertex 17.02490362085931 21.405408246373526 0.0
    vertex 19.12716645467877 19.77119741440844 0.0
  endloop
endfacet
facet normal -0.5054314124578109 -0.8628667842146333 -4.557910400683815e-18
  outer loop
    vertex 17.02490362085931 21.405408246373526 0.0
    vertex 19.12716645467877 19.77119741440844 7.999999999999999
    vertex 17.02490362085931 21.405408246373526 7.999999999999999
  endloop
endfacet
facet normal -0.711535611851876 -0.702650035982762 -4.557910400683848e-18
  outer loop
    vertex 19.12716645467877 19.77119741440844 7.999999999999999
    vertex 20.73483153248723 17.648565307008347 0.0
    vertex 20.73483153248723 17.648565307008347 7.999999999999999
  endloop
endfacet
facet normal -0.8691498351664313 -0.4945488489827527 -2.79884189595446e-18
  outer loop
    vertex 20.73483153248723 17.648565307008347 0.0
    vertex 19.12716645467877 19.77119741440844 7.999999999999999
    vertex 19.12716645467877 19.77119741440844 0.0
  endloop
endfacet
facet normal -0.8691498351664313 -0.4945488489827527 -2.79884189595446e-18
  outer loop
    vertex 20.73483153248723 17.648565307008347 7.999999999999999
    vertex 21.738339136024212 15.18216579447714 0.0
    vertex 21.738339136024212 15.18216579447714 7.999999999999999
  endloop
endfacet
facet normal -0.9675329335524093 -0.2527449752051839 -1.875767280547964e-18
  outer loop
    vertex 21.738339136024212 15.18216579447714 0.0
    vertex 20.73483153248723 17.648565307008347 7.999999999999999
    vertex 20.73483153248723 17.648565307008347 0.0
  endloop
endfacet
facet normal -0.9675329335524093 -0.2527449752051839 -1.875767280547964e-18
  outer loop
    vertex 21.738339136024212 15.18216579447714 7.999999999999999
    vertex 22.06930188048338 12.540079927675928 0.0
    vertex 22.06930188048338 12.540079927675928 7.999999999999999
  endloop
endfacet
facet normal -0.9999802614405632 0.006283050951798397 9.230746154065225e-19
  outer loop
    vertex 22.06930188048338 12.540079927675928 0.0
    vertex 21.738339136024212 15.18216579447714 7.999999999999999
    vertex 21.738339136024212 15.18216579447714 0.0
  endloop
endfacet
facet normal -0.9999802614405632 0.006283050951798397 9.230746154065225e-19
  outer loop
    vertex 22.06930188048338 12.540079927675928 7.999999999999999
    vertex 21.705165201771642 9.902361492173867 0.0
    vertex 21.705165201771642 9.902361492173867 7.999999999999999
  endloop
endfacet
facet normal -0.9642805870570595 0.2648828975696482 1.3826600164673935e-32
  outer loop
    vertex 21.705165201771642 9.902361492173867 0.0
    vertex 22.06930188048338 12.540079927675928 7.999999999999999
    vertex 22.06930188048338 12.540079927675928 0.0
  endloop
endfacet
facet normal -0.9642805870570595 0.2648828975696482 1.3826600164673935e-32
  outer loop
    vertex 21.705165201771642 9.902361492173867 7.999999999999999
    vertex 20.67074441277889 7.448766640314598 0.0
    vertex 20.67074441277889 7.448766640314598 7.999999999999999
  endloop
endfacet
facet normal -0.862866784214633 0.5054314124578109 8.929586203444367e-33
  outer loop
    vertex 20.67074441277889 7.448766640314598 0.0
    vertex 21.705165201771642 9.902361492173867 7.999999999999999
    vertex 21.705165201771642 9.902361492173867 0.0
  endloop
endfacet
facet normal -0.862866784214633 0.5054314124578109 8.929586203444367e-33
  outer loop
    vertex 20.67074441277889 7.448766640314598 7.999999999999999
    vertex 19.036533580813803 5.346503806495135 0.0
    vertex 19.036533580813803 5.346503806495135 7.999999999999999
  endloop
endfacet
facet normal -0.7026500359827617 0.7115356118518762 -4.483872726598067e-18
  outer loop
    vertex 19.036533580813803 5.346503806495135 0.0
    vertex 20.67074441277889 7.448766640314598 7.999999999999999
    vertex 20.67074441277889 7.448766640314598 0.0
  endloop
endfacet
facet normal -0.4945488489827521 0.8691498351664314 -4.483872726598078e-18
  outer loop
    vertex 16.913901473413706 3.73883872868667 7.999999999999999
    vertex 19.036533580813803 5.346503806495135 0.0
    vertex 16.913901473413706 3.73883872868667 0.0
  endloop
endfacet
facet normal -0.7026500359827617 0.7115356118518762 -4.483872726598067e-18
  outer loop
    vertex 19.036533580813803 5.346503806495135 0.0
    vertex 16.913901473413706 3.73883872868667 7.999999999999999
    vertex 19.036533580813803 5.346503806495135 7.999999999999999
  endloop
endfacet
facet normal -0.25274497520518335 0.9675329335524095 -5.289865523568749e-33
  outer loop
    vertex 14.447501960882507 2.7353311251496955 7.999999999999999
    vertex 16.913901473413706 3.73883872868667 0.0
    vertex 14.447501960882507 2.7353311251496955 0.0
  endloop
endfacet
facet normal -0.4945488489827521 0.8691498351664314 -4.483872726598078e-18
  outer loop
    vertex 16.913901473413706 3.73883872868667 0.0
    vertex 14.447501960882507 2.7353311251496955 7.999999999999999
    vertex 16.913901473413706 3.73883872868667 7.999999999999999
  endloop
endfacet
facet normal 0.006283050951798217 0.9999802614405632 -9.195940370797884e-19
  outer loop
    vertex 11.805416094081291 2.404368380690528 7.999999999999999
    vertex 14.447501960882507 2.7353311251496955 0.0
    vertex 11.805416094081291 2.404368380690528 0.0
  endloop
endfacet
facet normal -0.25274497520518335 0.9675329335524095 -5.289865523568749e-33
  outer loop
    vertex 14.447501960882507 2.7353311251496955 0.0
    vertex 11.805416094081291 2.404368380690528 7.999999999999999
    vertex 14.447501960882507 2.7353311251496955 7.999999999999999
  endloop
endfacet
facet normal 0.26488289756964734 0.9642805870570597 1.96546655645713e-18
  outer loop
    vertex 9.167697658579229 2.768505059402263 7.999999999999999
    vertex 11.805416094081291 2.404368380690528 0.0
    vertex 9.167697658579229 2.768505059402263 0.0
  endloop
endfacet
facet normal 0.006283050951798217 0.9999802614405632 -9.195940370797884e-19
  outer loop
    vertex 11.805416094081291 2.404368380690528 0.0
    vertex 9.167697658579229 2.768505059402263 7.999999999999999
    vertex 11.805416094081291 2.404368380690528 7.999999999999999
  endloop
endfacet
facet normal 0.5054314124578109 0.8628667842146333 2.8850605935369106e-18
  outer loop
    vertex 6.714102806719962 3.802925848395013 7.999999999999999
    vertex 9.167697658579229 2.768505059402263 0.0
    vertex 6.714102806719962 3.802925848395013 0.0
  endloop
endfacet
facet normal 0.26488289756964734 0.9642805870570597 1.96546655645713e-18
  outer loop
    vertex 9.167697658579229 2.768505059402263 0.0
    vertex 6.714102806719962 3.802925848395013 7.999999999999999
    vertex 9.167697658579229 2.768505059402263 7.999999999999999
  endloop
endfacet
facet normal 0.7115356118518761 0.7026500359827615 -9.25592530759005e-33
  outer loop
    vertex 4.611839972900496 5.437136680360103 7.999999999999999
    vertex 6.714102806719962 3.802925848395013 0.0
    vertex 4.611839972900496 5.437136680360103 0.0
  endloop
endfacet
facet normal 0.5054314124578109 0.8628667842146333 2.8850605935369106e-18
  outer loop
    vertex 6.714102806719962 3.802925848395013 0.0
    vertex 4.611839972900496 5.437136680360103 7.999999999999999
    vertex 6.714102806719962 3.802925848395013 7.999999999999999
  endloop
endfacet
facet normal 0.8691498351664313 0.49454884898275275 -4.971741944278718e-33
  outer loop
    vertex 3.004174895092034 7.559768787760196 0.0
    vertex 4.611839972900496 5.437136680360103 7.999999999999999
    vertex 4.611839972900496 5.437136680360103 0.0
  endloop
endfacet
facet normal 0.7115356118518761 0.7026500359827615 -9.25592530759005e-33
  outer loop
    vertex 4.611839972900496 5.437136680360103 7.999999999999999
    vertex 3.004174895092034 7.559768787760196 0.0
    vertex 3.004174895092034 7.559768787760196 7.999999999999999
  endloop
endfacet
facet normal 0.9675329335524093 0.252744975205184 9.230746154064998e-19
  outer loop
    vertex 2.000667291555055 10.026168300291397 0.0
    vertex 3.004174895092034 7.559768787760196 7.999999999999999
    vertex 3.004174895092034 7.559768787760196 0.0
  endloop
endfacet
facet normal 0.8691498351664313 0.49454884898275275 -4.971741944278718e-33
  outer loop
    vertex 3.004174895092034 7.559768787760196 7.999999999999999
    vertex 2.000667291555055 10.026168300291397 0.0
    vertex 2.000667291555055 10.026168300291397 7.999999999999999
  endloop
endfacet
facet normal 0.9999802614405632 -0.006283050951798191 -9.252405932198936e-20
  outer loop
    vertex 1.6697045470958876 12.668254167092611 0.0
    vertex 2.000667291555055 10.026168300291397 7.999999999999999
    vertex 2.000667291555055 10.026168300291397 0.0
  endloop
endfacet
facet normal 0.9675329335524093 0.252744975205184 9.230746154064998e-19
  outer loop
    vertex 2.000667291555055 10.026168300291397 7.999999999999999
    vertex 1.6697045470958876 12.668254167092611 0.0
    vertex 1.6697045470958876 12.668254167092611 7.999999999999999
  endloop
endfacet
facet normal 0.0 -1.0 0.0
  outer loop
    vertex 92.09490414911895 -12.0 7.999999999999999
    vertex 58.02428712581096 -12.0 -7.0
    vertex 92.09490414911895 -12.0 -7.0
  endloop
endfacet
facet normal 0.0 -1.0 0.0
  outer loop
    vertex 58.02428712581096 -12.0 -7.0
    vertex 92.09490414911895 -12.0 7.999999999999999
    vertex 58.02428712581096 -12.0 7.999999999999999
  endloop
endfacet
facet normal -1.0 0.0 0.0
  outer loop
    vertex 58.02428712581096 -3.9999999999999996 7.999999999999999
    vertex 58.02428712581096 -12.0 -7.0
    vertex 58.02428712581096 -12.0 7.999999999999999
  endloop
endfacet
facet normal -1.0 0.0 0.0
  outer loop
    vertex 58.02428712581096 -12.0 -7.0
    vertex 58.02428712581096 -3.9999999999999996 7.999999999999999
    vertex 58.02428712581096 -3.9999999999999996 -7.0
  endloop
endfacet
facet normal -1.0 0.0 0.0
  outer loop
    vertex 58.02428712581096 -3.9999999999999996 -7.0
    vertex 58.02428712581096 -3.9999999999999996 7.999999999999999
    vertex 58.02428712581096 -3.9999999999999996 0.0
  endloop
endfacet
facet normal 0.0 1.0 0.0
  outer loop
    vertex 58.02428712581096 36.800895329408625 7.999999999999999
    vertex 92.09490414911895 36.800895329408625 -7.000000000000001
    vertex 58.02428712581096 36.800895329408625 -7.000000000000001
  endloop
endfacet
facet normal 0.0 1.0 0.0
  outer loop
    vertex 92.09490414911895 36.800895329408625 -7.000000000000001
    vertex 58.02428712581096 36.800895329408625 7.999999999999999
    vertex 92.09490414911895 36.800895329408625 7.999999999999999
  endloop
endfacet
facet normal -1.0 0.0 0.0
  outer loop
    vertex 58.02428712581096 36.800895329408625 7.999999999999999
    vertex 58.02428712581096 28.800895329408636 0.0
    vertex 58.02428712581096 28.800895329408636 7.999999999999999
  endloop
endfacet
facet normal -1.0 0.0 0.0
  outer loop
    vertex 58.02428712581096 28.800895329408636 0.0
    vertex 58.02428712581096 36.800895329408625 7.999999999999999
    vertex 58.02428712581096 28.800895329408636 -7.0
  endloop
endfacet
facet normal -1.0 0.0 0.0
  outer loop
    vertex 58.02428712581096 28.800895329408636 -7.0
    vertex 58.02428712581096 36.800895329408625 7.999999999999999
    vertex 58.02428712581096 36.800895329408625 -7.000000000000001
  endloop
endfacet
facet normal 0.0 0.0 -1.0
  outer loop
    vertex -1.53781173789237 -3.9999999999999996 0.0
    vertex 9.167697658579229 2.768505059402263 0.0
    vertex 58.02428712581096 -3.9999999999999996 0.0
  endloop
endfacet
facet normal 0.0 0.0 -1.0
  outer loop
    vertex 9.167697658579229 2.768505059402263 0.0
    vertex -1.53781173789237 -3.9999999999999996 0.0
    vertex 6.714102806719962 3.802925848395013 0.0
  endloop
endfacet
facet normal 0.0 0.0 -1.0
  outer loop
    vertex 6.714102806719962 3.802925848395013 0.0
    vertex -1.53781173789237 -3.9999999999999996 0.0
    vertex 4.611839972900496 5.437136680360103 0.0
  endloop
endfacet
facet normal 0.0 0.0 -1.0
  outer loop
    vertex 4.611839972900496 5.437136680360103 0.0
    vertex -1.53781173789237 -3.9999999999999996 0.0
    vertex 3.004174895092034 7.559768787760196 0.0
  endloop
endfacet
facet normal 0.0 0.0 -1.0
  outer loop
    vertex 3.004174895092034 7.559768787760196 0.0
    vertex -1.53781173789237 -3.9999999999999996 0.0
    vertex 2.000667291555055 10.026168300291397 0.0
  endloop
endfacet
facet normal 0.0 0.0 -1.0
  outer loop
    vertex 2.000667291555055 10.026168300291397 0.0
    vertex -1.53781173789237 -3.9999999999999996 0.0
    vertex 1.6697045470958876 12.668254167092611 0.0
  endloop
endfacet
facet normal 0.0 0.0 -1.0
  outer loop
    vertex 58.02428712581096 -3.9999999999999996 0.0
    vertex 9.167697658579229 2.768505059402263 0.0
    vertex 11.805416094081291 2.404368380690528 0.0
  endloop
endfacet
facet normal 0.0 0.0 -1.0
  outer loop
    vertex 58.02428712581096 -3.9999999999999996 0.0
    vertex 11.805416094081291 2.404368380690528 0.0
    vertex 14.447501960882507 2.7353311251496955 0.0
  endloop
endfacet
facet normal 0.0 0.0 -1.0
  outer loop
    vertex 58.02428712581096 -3.9999999999999996 0.0
    vertex 14.447501960882507 2.7353311251496955 0.0
    vertex 16.913901473413706 3.73883872868667 0.0
  endloop
endfacet
facet normal 0.0 0.0 -1.0
  outer loop
    vertex 58.02428712581096 -3.9999999999999996 0.0
    vertex 16.913901473413706 3.73883872868667 0.0
    vertex 19.036533580813803 5.346503806495135 0.0
  endloop
endfacet
facet normal 0.0 0.0 -1.0
  outer loop
    vertex 58.02428712581096 -3.9999999999999996 0.0
    vertex 19.036533580813803 5.346503806495135 0.0
    vertex 20.67074441277889 7.448766640314598 0.0
  endloop
endfacet
facet normal 0.0 0.0 -1.0
  outer loop
    vertex 58.02428712581096 -3.9999999999999996 0.0
    vertex 20.67074441277889 7.448766640314598 0.0
    vertex 21.705165201771642 9.902361492173867 0.0
  endloop
endfacet
facet normal 0.0 0.0 -1.0
  outer loop
    vertex 58.02428712581096 -3.9999999999999996 0.0
    vertex 21.705165201771642 9.902361492173867 0.0
    vertex 22.06930188048338 12.540079927675928 0.0
  endloop
endfacet
facet normal 0.0 0.0 -1.0
  outer loop
    vertex 58.02428712581096 -3.9999999999999996 0.0
    vertex 22.06930188048338 12.540079927675928 0.0
    vertex 58.02428712581096 28.800895329408636 0.0
  endloop
endfacet
facet normal 0.0 0.0 -1.0
  outer loop
    vertex 58.02428712581096 -3.9999999999999996 0.0
    vertex 58.02428712581096 28.800895329408636 0.0
    vertex 63.98808527449299 15.133510738729235 0.0
  endloop
endfacet
facet normal 0.0 0.0 -1.0
  outer loop
    vertex 63.98808527449299 15.133510738729235 0.0
    vertex 58.02428712581096 28.800895329408636 0.0
    vertex 64.97942874479689 17.60482459772337 0.0
  endloop
endfacet
facet normal 0.0 0.0 -1.0
  outer loop
    vertex 64.97942874479689 17.60482459772337 0.0
    vertex 58.02428712581096 28.800895329408636 0.0
    vertex 66.57661609861995 19.73535190863923 0.0
  endloop
endfacet
facet normal 0.0 0.0 -1.0
  outer loop
    vertex 66.57661609861995 19.73535190863923 0.0
    vertex 58.02428712581096 28.800895329408636 0.0
    vertex 68.67080165727602 21.37990075610076 0.0
  endloop
endfacet
facet normal 0.0 0.0 -1.0
  outer loop
    vertex 68.67080165727602 21.37990075610076 0.0
    vertex 58.02428712581096 28.800895329408636 0.0
    vertex 71.11927013574795 22.42639785389892 0.0
  endloop
endfacet
facet normal 0.0 0.0 -1.0
  outer loop
    vertex 71.11927013574795 22.42639785389892 0.0
    vertex 58.02428712581096 28.800895329408636 0.0
    vertex 92.09490414911895 28.800895329408636 0.0
  endloop
endfacet
facet normal 0.0 0.0 -1.0
  outer loop
    vertex 58.02428712581096 -3.9999999999999996 0.0
    vertex 63.98808527449299 15.133510738729235 0.0
    vertex 63.67014410693692 12.48982628710802 0.0
  endloop
endfacet
facet normal 0.0 0.0 -1.0
  outer loop
    vertex 71.11927013574795 22.42639785389892 0.0
    vertex 92.09490414911895 28.800895329408636 0.0
    vertex 73.75516245351338 22.803526154236987 0.0
  endloop
endfacet
facet normal 0.0 0.0 -1.0
  outer loop
    vertex 73.75516245351338 22.803526154236987 0.0
    vertex 92.09490414911895 28.800895329408636 0.0
    vertex 76.39884690513459 22.485584986680912 0.0
  endloop
endfacet
facet normal 0.0 0.0 -1.0
  outer loop
    vertex 76.39884690513459 22.485584986680912 0.0
    vertex 92.09490414911895 28.800895329408636 0.0
    vertex 78.87016076412873 21.494241516377013 0.0
  endloop
endfacet
facet normal 0.0 0.0 -1.0
  outer loop
    vertex 78.87016076412873 21.494241516377013 0.0
    vertex 92.09490414911895 28.800895329408636 0.0
    vertex 81.0006880750446 19.89705416255396 0.0
  endloop
endfacet
facet normal 0.0 0.0 -1.0
  outer loop
    vertex 81.0006880750446 19.89705416255396 0.0
    vertex 92.09490414911895 28.800895329408636 0.0
    vertex 82.64523692250611 17.802868603897885 0.0
  endloop
endfacet
facet normal 0.0 0.0 -1.0
  outer loop
    vertex 82.64523692250611 17.802868603897885 0.0
    vertex 92.09490414911895 28.800895329408636 0.0
    vertex 83.69173402030428 15.354400125425945 0.0
  endloop
endfacet
facet normal 0.0 0.0 -1.0
  outer loop
    vertex 83.69173402030428 15.354400125425945 0.0
    vertex 92.09490414911895 28.800895329408636 0.0
    vertex 84.06886232064235 12.718507807660522 0.0
  endloop
endfacet
facet normal 0.0 0.0 -1.0
  outer loop
    vertex 58.02428712581096 -3.9999999999999996 0.0
    vertex 71.34015952244467 2.722749108087631 0.0
    vertex 92.09490414911895 -3.9999999999999996 0.0
  endloop
endfacet
facet normal 0.0 0.0 -1.0
  outer loop
    vertex 71.34015952244467 2.722749108087631 0.0
    vertex 58.02428712581096 -3.9999999999999996 0.0
    vertex 68.86884566345053 3.7140925783915315 0.0
  endloop
endfacet
facet normal 0.0 0.0 -1.0
  outer loop
    vertex 68.86884566345053 3.7140925783915315 0.0
    vertex 58.02428712581096 -3.9999999999999996 0.0
    vertex 66.73831835253468 5.311279932214584 0.0
  endloop
endfacet
facet normal 0.0 0.0 -1.0
  outer loop
    vertex 66.73831835253468 5.311279932214584 0.0
    vertex 58.02428712581096 -3.9999999999999996 0.0
    vertex 65.09376950507314 7.405465490870653 0.0
  endloop
endfacet
facet normal 0.0 0.0 -1.0
  outer loop
    vertex 65.09376950507314 7.405465490870653 0.0
    vertex 58.02428712581096 -3.9999999999999996 0.0
    vertex 64.04727240727499 9.853933969342595 0.0
  endloop
endfacet
facet normal 0.0 0.0 -1.0
  outer loop
    vertex 64.04727240727499 9.853933969342595 0.0
    vertex 58.02428712581096 -3.9999999999999996 0.0
    vertex 63.67014410693692 12.48982628710802 0.0
  endloop
endfacet
facet normal 0.0 0.0 -1.0
  outer loop
    vertex 92.09490414911895 -3.9999999999999996 0.0
    vertex 71.34015952244467 2.722749108087631 0.0
    vertex 73.98384397406588 2.404807940531556 0.0
  endloop
endfacet
facet normal 0.0 0.0 -1.0
  outer loop
    vertex 92.09490414911895 -3.9999999999999996 0.0
    vertex 73.98384397406588 2.404807940531556 0.0
    vertex 76.6197362918313 2.7819362408696224 0.0
  endloop
endfacet
facet normal 0.0 0.0 -1.0
  outer loop
    vertex 92.09490414911895 -3.9999999999999996 0.0
    vertex 76.6197362918313 2.7819362408696224 0.0
    vertex 79.06820477030324 3.8284333386677787 0.0
  endloop
endfacet
facet normal 0.0 0.0 -1.0
  outer loop
    vertex 92.09490414911895 -3.9999999999999996 0.0
    vertex 79.06820477030324 3.8284333386677787 0.0
    vertex 81.16239032895932 5.472982186129309 0.0
  endloop
endfacet
facet normal 0.0 0.0 -1.0
  outer loop
    vertex 92.09490414911895 -3.9999999999999996 0.0
    vertex 81.16239032895932 5.472982186129309 0.0
    vertex 82.75957768278236 7.60350949704517 0.0
  endloop
endfacet
facet normal 0.0 0.0 -1.0
  outer loop
    vertex 92.09490414911895 -3.9999999999999996 0.0
    vertex 82.75957768278236 7.60350949704517 0.0
    vertex 83.75092115308627 10.074823356039305 0.0
  endloop
endfacet
facet normal 0.0 0.0 -1.0
  outer loop
    vertex 92.09490414911895 -3.9999999999999996 0.0
    vertex 83.75092115308627 10.074823356039305 0.0
    vertex 84.06886232064235 12.718507807660522 0.0
  endloop
endfacet
facet normal 0.0 0.0 -1.0
  outer loop
    vertex 92.09490414911895 -3.9999999999999996 0.0
    vertex 84.06886232064235 12.718507807660522 0.0
    vertex 92.09490414911895 28.800895329408636 0.0
  endloop
endfacet
facet normal 0.0 0.0 -1.0
  outer loop
    vertex -1.53781173789237 28.800895329408636 0.0
    vertex 2.0338412258076226 15.305972602594673 0.0
    vertex -1.53781173789237 -3.9999999999999996 0.0
  endloop
endfacet
facet normal 0.0 0.0 -1.0
  outer loop
    vertex 2.0338412258076226 15.305972602594673 0.0
    vertex -1.53781173789237 28.800895329408636 0.0
    vertex 3.0682620148003728 17.75956745445394 0.0
  endloop
endfacet
facet normal 0.0 0.0 -1.0
  outer loop
    vertex 3.0682620148003728 17.75956745445394 0.0
    vertex -1.53781173789237 28.800895329408636 0.0
    vertex 4.70247284676546 19.861830288273406 0.0
  endloop
endfacet
facet normal 0.0 0.0 -1.0
  outer loop
    vertex 4.70247284676546 19.861830288273406 0.0
    vertex -1.53781173789237 28.800895329408636 0.0
    vertex 6.825104954165556 21.46949536608187 0.0
  endloop
endfacet
facet normal 0.0 0.0 -1.0
  outer loop
    vertex 6.825104954165556 21.46949536608187 0.0
    vertex -1.53781173789237 28.800895329408636 0.0
    vertex 9.291504466696756 22.473002969618843 0.0
  endloop
endfacet
facet normal 0.0 0.0 -1.0
  outer loop
    vertex 9.291504466696756 22.473002969618843 0.0
    vertex -1.53781173789237 28.800895329408636 0.0
    vertex 58.02428712581096 28.800895329408636 0.0
  endloop
endfacet
facet normal 0.0 0.0 -1.0
  outer loop
    vertex -1.53781173789237 -3.9999999999999996 0.0
    vertex 2.0338412258076226 15.305972602594673 0.0
    vertex 1.6697045470958876 12.668254167092611 0.0
  endloop
endfacet
facet normal 0.0 0.0 -1.0
  outer loop
    vertex 9.291504466696756 22.473002969618843 0.0
    vertex 58.02428712581096 28.800895329408636 0.0
    vertex 11.93359033349797 22.803965714078018 0.0
  endloop
endfacet
facet normal 0.0 0.0 -1.0
  outer loop
    vertex 11.93359033349797 22.803965714078018 0.0
    vertex 58.02428712581096 28.800895329408636 0.0
    vertex 14.571308769000035 22.43982903536628 0.0
  endloop
endfacet
facet normal 0.0 0.0 -1.0
  outer loop
    vertex 14.571308769000035 22.43982903536628 0.0
    vertex 58.02428712581096 28.800895329408636 0.0
    vertex 17.02490362085931 21.405408246373526 0.0
  endloop
endfacet
facet normal 0.0 0.0 -1.0
  outer loop
    vertex 17.02490362085931 21.405408246373526 0.0
    vertex 58.02428712581096 28.800895329408636 0.0
    vertex 19.12716645467877 19.77119741440844 0.0
  endloop
endfacet
facet normal 0.0 0.0 -1.0
  outer loop
    vertex 19.12716645467877 19.77119741440844 0.0
    vertex 58.02428712581096 28.800895329408636 0.0
    vertex 20.73483153248723 17.648565307008347 0.0
  endloop
endfacet
facet normal 0.0 0.0 -1.0
  outer loop
    vertex 20.73483153248723 17.648565307008347 0.0
    vertex 58.02428712581096 28.800895329408636 0.0
    vertex 21.738339136024212 15.18216579447714 0.0
  endloop
endfacet
facet normal 0.0 0.0 -1.0
  outer loop
    vertex 21.738339136024212 15.18216579447714 0.0
    vertex 58.02428712581096 28.800895329408636 0.0
    vertex 22.06930188048338 12.540079927675928 0.0
  endloop
endfacet
facet normal 0.0 0.0 -1.0
  outer loop
    vertex -1.53781173789237 28.800895329408636 -9.999999999999998
    vertex -34.99999999999998 22.800895329408636 -9.999999999999998
    vertex -34.99999999999998 28.800895329408636 -9.999999999999998
  endloop
endfacet
facet normal 0.0 0.0 -1.0
  outer loop
    vertex -34.99999999999998 22.800895329408636 -9.999999999999998
    vertex -1.53781173789237 28.800895329408636 -9.999999999999998
    vertex -1.53781173789237 22.800895329408636 -9.999999999999998
  endloop
endfacet
facet normal -0.0 1.0 -0.0
  outer loop
    vertex -47.99999999999997 28.800895329408636 7.999999999999999
    vertex -34.99999999999998 28.800895329408636 -4.000000000000001
    vertex -47.99999999999997 28.800895329408636 -4.000000000000001
  endloop
endfacet
facet normal -0.0 1.0 -0.0
  outer loop
    vertex -34.99999999999998 28.800895329408636 -4.000000000000001
    vertex -47.99999999999997 28.800895329408636 7.999999999999999
    vertex -1.53781173789237 28.800895329408636 0.0
  endloop
endfacet
facet normal -0.0 1.0 -0.0
  outer loop
    vertex -1.53781173789237 28.800895329408636 0.0
    vertex -47.99999999999997 28.800895329408636 7.999999999999999
    vertex 58.02428712581096 28.800895329408636 0.0
  endloop
endfacet
facet normal -0.0 1.0 -0.0
  outer loop
    vertex 58.02428712581096 28.800895329408636 0.0
    vertex -47.99999999999997 28.800895329408636 7.999999999999999
    vertex 58.02428712581096 28.800895329408636 7.999999999999999
  endloop
endfacet
facet normal -0.0 1.0 -0.0
  outer loop
    vertex -34.99999999999998 28.800895329408636 -4.000000000000001
    vertex -1.53781173789237 28.800895329408636 -9.999999999999998
    vertex -34.99999999999998 28.800895329408636 -9.999999999999998
  endloop
endfacet
facet normal -0.0 1.0 -0.0
  outer loop
    vertex -1.53781173789237 28.800895329408636 -9.999999999999998
    vertex -34.99999999999998 28.800895329408636 -4.000000000000001
    vertex -1.53781173789237 28.800895329408636 0.0
  endloop
endfacet
facet normal 0.0 0.0 -1.0
  outer loop
    vertex -1.53781173789237 1.9999999999999998 -9.999999999999998
    vertex -34.99999999999998 -3.9999999999999996 -9.999999999999998
    vertex -34.99999999999998 1.9999999999999991 -9.999999999999998
  endloop
endfacet
facet normal 0.0 0.0 -1.0
  outer loop
    vertex -34.99999999999998 -3.9999999999999996 -9.999999999999998
    vertex -1.53781173789237 1.9999999999999998 -9.999999999999998
    vertex -1.53781173789237 -3.9999999999999996 -9.999999999999998
  endloop
endfacet
facet normal -2.664147097942325e-17 1.0 -0.0
  outer loop
    vertex -34.99999999999998 1.9999999999999991 -4.000000000000001
    vertex -1.53781173789237 1.9999999999999998 -9.999999999999998
    vertex -34.99999999999998 1.9999999999999991 -9.999999999999998
  endloop
endfacet
facet normal -2.664147097942325e-17 1.0 -0.0
  outer loop
    vertex -1.53781173789237 1.9999999999999998 -9.999999999999998
    vertex -34.99999999999998 1.9999999999999991 -4.000000000000001
    vertex -1.53781173789237 1.9999999999999998 -4.000000000000001
  endloop
endfacet
facet normal 0.0 -1.0 0.0
  outer loop
    vertex -1.53781173789237 22.800895329408636 -4.000000000000001
    vertex -34.99999999999998 22.800895329408636 -9.999999999999998
    vertex -1.53781173789237 22.800895329408636 -9.999999999999998
  endloop
endfacet
facet normal 0.0 -1.0 0.0
  outer loop
    vertex -34.99999999999998 22.800895329408636 -9.999999999999998
    vertex -1.53781173789237 22.800895329408636 -4.000000000000001
    vertex -34.99999999999998 22.800895329408636 -4.000000000000001
  endloop
endfacet
facet normal 1.0 0.0 0.0
  outer loop
    vertex -1.53781173789237 28.800895329408636 -9.999999999999998
    vertex -1.53781173789237 22.800895329408636 -4.000000000000001
    vertex -1.53781173789237 22.800895329408636 -9.999999999999998
  endloop
endfacet
facet normal 1.0 0.0 0.0
  outer loop
    vertex -1.53781173789237 1.9999999999999998 -9.999999999999998
    vertex -1.53781173789237 -3.9999999999999996 0.0
    vertex -1.53781173789237 -3.9999999999999996 -9.999999999999998
  endloop
endfacet
facet normal 1.0 0.0 0.0
  outer loop
    vertex -1.53781173789237 -3.9999999999999996 0.0
    vertex -1.53781173789237 1.9999999999999998 -9.999999999999998
    vertex -1.53781173789237 1.9999999999999998 -4.000000000000001
  endloop
endfacet
facet normal 1.0 0.0 0.0
  outer loop
    vertex -1.53781173789237 -3.9999999999999996 0.0
    vertex -1.53781173789237 1.9999999999999998 -4.000000000000001
    vertex -1.53781173789237 28.800895329408636 0.0
  endloop
endfacet
facet normal 1.0 0.0 0.0
  outer loop
    vertex -1.53781173789237 28.800895329408636 0.0
    vertex -1.53781173789237 1.9999999999999998 -4.000000000000001
    vertex -1.53781173789237 22.800895329408636 -4.000000000000001
  endloop
endfacet
facet normal 1.0 0.0 0.0
  outer loop
    vertex -1.53781173789237 28.800895329408636 0.0
    vertex -1.53781173789237 22.800895329408636 -4.000000000000001
    vertex -1.53781173789237 28.800895329408636 -9.999999999999998
  endloop
endfacet
facet normal 0.0 -1.762479051592439e-16 -1.0
  outer loop
    vertex 92.09490414911895 36.800895329408625 -7.000000000000001
    vertex 58.02428712581096 28.800895329408636 -7.0
    vertex 58.02428712581096 36.800895329408625 -7.000000000000001
  endloop
endfacet
facet normal 0.0 -1.762479051592439e-16 -1.0
  outer loop
    vertex 58.02428712581096 28.800895329408636 -7.0
    vertex 92.09490414911895 36.800895329408625 -7.000000000000001
    vertex 92.09490414911895 28.800895329408636 -7.0
  endloop
endfacet
facet normal 0.0 -1.0 1.762479051592439e-16
  outer loop
    vertex 92.09490414911895 28.800895329408636 0.0
    vertex 58.02428712581096 28.800895329408636 -7.0
    vertex 92.09490414911895 28.800895329408636 -7.0
  endloop
endfacet
facet normal 0.0 -1.0 1.762479051592439e-16
  outer loop
    vertex 58.02428712581096 28.800895329408636 -7.0
    vertex 92.09490414911895 28.800895329408636 0.0
    vertex 58.02428712581096 28.800895329408636 0.0
  endloop
endfacet
facet normal 0.0 4.40619762898109e-17 -1.0
  outer loop
    vertex 92.09490414911895 -3.9999999999999996 -7.0
    vertex 58.02428712581096 -12.0 -7.0
    vertex 58.02428712581096 -3.9999999999999996 -7.0
  endloop
endfacet
facet normal 0.0 4.40619762898109e-17 -1.0
  outer loop
    vertex 58.02428712581096 -12.0 -7.0
    vertex 92.09490414911895 -3.9999999999999996 -7.0
    vertex 92.09490414911895 -12.0 -7.0
  endloop
endfacet
facet normal -0.0 1.0 4.40619762898109e-17
  outer loop
    vertex 58.02428712581096 -3.9999999999999996 0.0
    vertex 92.09490414911895 -3.9999999999999996 -7.0
    vertex 58.02428712581096 -3.9999999999999996 -7.0
  endloop
endfacet
facet normal -0.0 1.0 4.40619762898109e-17
  outer loop
    vertex 92.09490414911895 -3.9999999999999996 -7.0
    vertex 58.02428712581096 -3.9999999999999996 0.0
    vertex 92.09490414911895 -3.9999999999999996 0.0
  endloop
endfacet
facet normal 0.0 -1.0 0.0
  outer loop
    vertex 58.02428712581096 -3.9999999999999996 7.999999999999999
    vertex -1.53781173789237 -3.9999999999999996 0.0
    vertex 58.02428712581096 -3.9999999999999996 0.0
  endloop
endfacet
facet normal 0.0 -1.0 0.0
  outer loop
    vertex -1.53781173789237 -3.9999999999999996 0.0
    vertex -34.99999999999998 -3.9999999999999996 -9.999999999999998
    vertex -1.53781173789237 -3.9999999999999996 -9.999999999999998
  endloop
endfacet
facet normal 0.0 -1.0 0.0
  outer loop
    vertex -34.99999999999998 -3.9999999999999996 -9.999999999999998
    vertex -1.53781173789237 -3.9999999999999996 0.0
    vertex -34.99999999999998 -3.9999999999999996 -4.000000000000001
  endloop
endfacet
facet normal 0.0 -1.0 0.0
  outer loop
    vertex -34.99999999999998 -3.9999999999999996 -4.000000000000001
    vertex -1.53781173789237 -3.9999999999999996 0.0
    vertex -47.99999999999997 -3.9999999999999996 -4.000000000000001
  endloop
endfacet
facet normal 0.0 -1.0 0.0
  outer loop
    vertex -47.99999999999997 -3.9999999999999996 -4.000000000000001
    vertex -1.53781173789237 -3.9999999999999996 0.0
    vertex -47.99999999999997 -3.9999999999999996 7.999999999999999
  endloop
endfacet
facet normal 0.0 -1.0 0.0
  outer loop
    vertex -47.99999999999997 -3.9999999999999996 7.999999999999999
    vertex -1.53781173789237 -3.9999999999999996 0.0
    vertex 58.02428712581096 -3.9999999999999996 7.999999999999999
  endloop
endfacet
facet normal -1.0 0.0 0.0
  outer loop
    vertex -34.99999999999998 1.9999999999999991 -4.000000000000001
    vertex -34.99999999999998 -3.9999999999999996 -9.999999999999998
    vertex -34.99999999999998 -3.9999999999999996 -4.000000000000001
  endloop
endfacet
facet normal -1.0 0.0 0.0
  outer loop
    vertex -34.99999999999998 -3.9999999999999996 -9.999999999999998
    vertex -34.99999999999998 1.9999999999999991 -4.000000000000001
    vertex -34.99999999999998 1.9999999999999991 -9.999999999999998
  endloop
endfacet
facet normal -1.0 0.0 0.0
  outer loop
    vertex -47.99999999999997 28.800895329408636 7.999999999999999
    vertex -47.99999999999997 -3.9999999999999996 -4.000000000000001
    vertex -47.99999999999997 -3.9999999999999996 7.999999999999999
  endloop
endfacet
facet normal -1.0 0.0 0.0
  outer loop
    vertex -47.99999999999997 -3.9999999999999996 -4.000000000000001
    vertex -47.99999999999997 28.800895329408636 7.999999999999999
    vertex -47.99999999999997 28.800895329408636 -4.000000000000001
  endloop
endfacet
facet normal 0.0 0.0 -1.0
  outer loop
    vertex -47.99999999999997 28.800895329408636 -4.000000000000001
    vertex -44.23585151806836 13.267491465797763 -4.000000000000001
    vertex -47.99999999999997 -3.9999999999999996 -4.000000000000001
  endloop
endfacet
facet normal 0.0 0.0 -1.0
  outer loop
    vertex -44.23585151806836 13.267491465797763 -4.000000000000001
    vertex -47.99999999999997 28.800895329408636 -4.000000000000001
    vertex -43.90118510267785 14.075447664704319 -4.000000000000001
  endloop
endfacet
facet normal 0.0 0.0 -1.0
  outer loop
    vertex -43.90118510267785 14.075447664704319 -4.000000000000001
    vertex -47.99999999999997 28.800895329408636 -4.000000000000001
    vertex -34.99999999999998 28.800895329408636 -4.000000000000001
  endloop
endfacet
facet normal 0.0 0.0 -1.0
  outer loop
    vertex -47.99999999999997 -3.9999999999999996 -4.000000000000001
    vertex -44.23585151806836 13.267491465797763 -4.000000000000001
    vertex -44.34999999999997 12.400447664704318 -4.000000000000001
  endloop
endfacet
facet normal 0.0 0.0 -1.0
  outer loop
    vertex -43.90118510267785 14.075447664704319 -4.000000000000001
    vertex -34.99999999999998 28.800895329408636 -4.000000000000001
    vertex -43.36880771697491 14.769255381679253 -4.000000000000001
  endloop
endfacet
facet normal 0.0 0.0 -1.0
  outer loop
    vertex -43.36880771697491 14.769255381679253 -4.000000000000001
    vertex -34.99999999999998 28.800895329408636 -4.000000000000001
    vertex -42.674999999999976 15.301632767382188 -4.000000000000001
  endloop
endfacet
facet normal 0.0 0.0 -1.0
  outer loop
    vertex -42.674999999999976 15.301632767382188 -4.000000000000001
    vertex -34.99999999999998 28.800895329408636 -4.000000000000001
    vertex -41.867043801093416 15.636299182772698 -4.000000000000001
  endloop
endfacet
facet normal 0.0 0.0 -1.0
  outer loop
    vertex -41.867043801093416 15.636299182772698 -4.000000000000001
    vertex -34.99999999999998 28.800895329408636 -4.000000000000001
    vertex -40.99999999999998 15.75044766470432 -4.000000000000001
  endloop
endfacet
facet normal 0.0 0.0 -1.0
  outer loop
    vertex -40.99999999999998 15.75044766470432 -4.000000000000001
    vertex -34.99999999999998 28.800895329408636 -4.000000000000001
    vertex -40.132956198906534 15.636299182772698 -4.000000000000001
  endloop
endfacet
facet normal 0.0 0.0 -1.0
  outer loop
    vertex -40.132956198906534 15.636299182772698 -4.000000000000001
    vertex -34.99999999999998 28.800895329408636 -4.000000000000001
    vertex -39.324999999999974 15.301632767382188 -4.000000000000001
  endloop
endfacet
facet normal 0.0 0.0 -1.0
  outer loop
    vertex -39.324999999999974 15.301632767382188 -4.000000000000001
    vertex -34.99999999999998 28.800895329408636 -4.000000000000001
    vertex -38.63119228302504 14.769255381679253 -4.000000000000001
  endloop
endfacet
facet normal 0.0 0.0 -1.0
  outer loop
    vertex -38.63119228302504 14.769255381679253 -4.000000000000001
    vertex -34.99999999999998 28.800895329408636 -4.000000000000001
    vertex -38.09881489732211 14.075447664704319 -4.000000000000001
  endloop
endfacet
facet normal 0.0 0.0 -1.0
  outer loop
    vertex -38.09881489732211 14.075447664704319 -4.000000000000001
    vertex -34.99999999999998 28.800895329408636 -4.000000000000001
    vertex -37.76414848193159 13.267491465797763 -4.000000000000001
  endloop
endfacet
facet normal 0.0 0.0 -1.0
  outer loop
    vertex -37.76414848193159 13.267491465797763 -4.000000000000001
    vertex -34.99999999999998 28.800895329408636 -4.000000000000001
    vertex -37.64999999999998 12.400447664704318 -4.000000000000001
  endloop
endfacet
facet normal 0.0 0.0 -1.0
  outer loop
    vertex -1.53781173789237 22.800895329408636 -4.000000000000001
    vertex -34.99999999999998 1.9999999999999991 -4.000000000000001
    vertex -34.99999999999998 22.800895329408636 -4.000000000000001
  endloop
endfacet
facet normal 0.0 0.0 -1.0
  outer loop
    vertex -34.99999999999998 1.9999999999999991 -4.000000000000001
    vertex -1.53781173789237 22.800895329408636 -4.000000000000001
    vertex -1.53781173789237 1.9999999999999998 -4.000000000000001
  endloop
endfacet
facet normal 0.0 0.0 -1.0
  outer loop
    vertex -47.99999999999997 -3.9999999999999996 -4.000000000000001
    vertex -43.90118510267785 10.725447664704319 -4.000000000000001
    vertex -34.99999999999998 -3.9999999999999996 -4.000000000000001
  endloop
endfacet
facet normal 0.0 0.0 -1.0
  outer loop
    vertex -43.90118510267785 10.725447664704319 -4.000000000000001
    vertex -47.99999999999997 -3.9999999999999996 -4.000000000000001
    vertex -44.23585151806836 11.533403863610875 -4.000000000000001
  endloop
endfacet
facet normal 0.0 0.0 -1.0
  outer loop
    vertex -44.23585151806836 11.533403863610875 -4.000000000000001
    vertex -47.99999999999997 -3.9999999999999996 -4.000000000000001
    vertex -44.34999999999997 12.400447664704318 -4.000000000000001
  endloop
endfacet
facet normal 0.0 0.0 -1.0
  outer loop
    vertex -34.99999999999998 -3.9999999999999996 -4.000000000000001
    vertex -43.90118510267785 10.725447664704319 -4.000000000000001
    vertex -43.36880771697491 10.031639947729385 -4.000000000000001
  endloop
endfacet
facet normal 0.0 0.0 -1.0
  outer loop
    vertex -34.99999999999998 -3.9999999999999996 -4.000000000000001
    vertex -43.36880771697491 10.031639947729385 -4.000000000000001
    vertex -42.674999999999976 9.49926256202645 -4.000000000000001
  endloop
endfacet
facet normal 0.0 0.0 -1.0
  outer loop
    vertex -34.99999999999998 -3.9999999999999996 -4.000000000000001
    vertex -42.674999999999976 9.49926256202645 -4.000000000000001
    vertex -41.86704380109342 9.164596146635938 -4.000000000000001
  endloop
endfacet
facet normal 0.0 0.0 -1.0
  outer loop
    vertex -34.99999999999998 -3.9999999999999996 -4.000000000000001
    vertex -41.86704380109342 9.164596146635938 -4.000000000000001
    vertex -40.99999999999998 9.050447664704317 -4.000000000000001
  endloop
endfacet
facet normal 0.0 0.0 -1.0
  outer loop
    vertex -34.99999999999998 -3.9999999999999996 -4.000000000000001
    vertex -40.99999999999998 9.050447664704317 -4.000000000000001
    vertex -40.132956198906534 9.164596146635938 -4.000000000000001
  endloop
endfacet
facet normal 0.0 0.0 -1.0
  outer loop
    vertex -34.99999999999998 -3.9999999999999996 -4.000000000000001
    vertex -40.132956198906534 9.164596146635938 -4.000000000000001
    vertex -39.32499999999998 9.499262562026448 -4.000000000000001
  endloop
endfacet
facet normal 0.0 0.0 -1.0
  outer loop
    vertex -34.99999999999998 -3.9999999999999996 -4.000000000000001
    vertex -39.32499999999998 9.499262562026448 -4.000000000000001
    vertex -38.63119228302504 10.031639947729383 -4.000000000000001
  endloop
endfacet
facet normal 0.0 0.0 -1.0
  outer loop
    vertex -34.99999999999998 -3.9999999999999996 -4.000000000000001
    vertex -38.63119228302504 10.031639947729383 -4.000000000000001
    vertex -38.09881489732211 10.725447664704317 -4.000000000000001
  endloop
endfacet
facet normal 0.0 0.0 -1.0
  outer loop
    vertex -34.99999999999998 -3.9999999999999996 -4.000000000000001
    vertex -38.09881489732211 10.725447664704317 -4.000000000000001
    vertex -37.76414848193159 11.533403863610872 -4.000000000000001
  endloop
endfacet
facet normal 0.0 0.0 -1.0
  outer loop
    vertex -34.99999999999998 -3.9999999999999996 -4.000000000000001
    vertex -37.76414848193159 11.533403863610872 -4.000000000000001
    vertex -37.64999999999998 12.400447664704318 -4.000000000000001
  endloop
endfacet
facet normal 0.0 0.0 -1.0
  outer loop
    vertex -34.99999999999998 -3.9999999999999996 -4.000000000000001
    vertex -37.64999999999998 12.400447664704318 -4.000000000000001
    vertex -34.99999999999998 28.800895329408636 -4.000000000000001
  endloop
endfacet
facet normal 0.0 0.0 -1.0
  outer loop
    vertex -34.99999999999998 -3.9999999999999996 -4.000000000000001
    vertex -34.99999999999998 28.800895329408636 -4.000000000000001
    vertex -34.99999999999998 22.800895329408636 -4.000000000000001
  endloop
endfacet
facet normal 0.0 0.0 -1.0
  outer loop
    vertex -34.99999999999998 -3.9999999999999996 -4.000000000000001
    vertex -34.99999999999998 22.800895329408636 -4.000000000000001
    vertex -34.99999999999998 1.9999999999999991 -4.000000000000001
  endloop
endfacet
facet normal -4.3664438488669835e-16 1.0 0.0
  outer loop
    vertex -40.99999999999998 9.050447664704317 7.9999999999999964
    vertex -40.132956198906534 9.164596146635938 -4.000000000000001
    vertex -40.99999999999998 9.050447664704317 -4.000000000000001
  endloop
endfacet
facet normal -0.2588190451025215 0.9659258262890681 0.0
  outer loop
    vertex -40.132956198906534 9.164596146635938 -4.000000000000001
    vertex -40.99999999999998 9.050447664704317 7.9999999999999964
    vertex -40.132956198906534 9.164596146635938 7.9999999999999964
  endloop
endfacet
facet normal 0.2588190451025218 0.965925826289068 0.0
  outer loop
    vertex -41.86704380109342 9.164596146635938 7.9999999999999964
    vertex -40.99999999999998 9.050447664704317 -4.000000000000001
    vertex -41.86704380109342 9.164596146635938 -4.000000000000001
  endloop
endfacet
facet normal -4.3664438488669835e-16 1.0 0.0
  outer loop
    vertex -40.99999999999998 9.050447664704317 -4.000000000000001
    vertex -41.86704380109342 9.164596146635938 7.9999999999999964
    vertex -40.99999999999998 9.050447664704317 7.9999999999999964
  endloop
endfacet
facet normal 0.5000000000000013 0.8660254037844378 0.0
  outer loop
    vertex -42.674999999999976 9.49926256202645 7.9999999999999964
    vertex -41.86704380109342 9.164596146635938 -4.000000000000001
    vertex -42.674999999999976 9.49926256202645 -4.000000000000001
  endloop
endfacet
facet normal 0.2588190451025218 0.965925826289068 0.0
  outer loop
    vertex -41.86704380109342 9.164596146635938 -4.000000000000001
    vertex -42.674999999999976 9.49926256202645 7.9999999999999964
    vertex -41.86704380109342 9.164596146635938 7.9999999999999964
  endloop
endfacet
facet normal 0.7071067811865476 0.7071067811865475 0.0
  outer loop
    vertex -43.36880771697491 10.031639947729385 7.9999999999999964
    vertex -42.674999999999976 9.49926256202645 -4.000000000000001
    vertex -43.36880771697491 10.031639947729385 -4.000000000000001
  endloop
endfacet
facet normal 0.5000000000000013 0.8660254037844378 0.0
  outer loop
    vertex -42.674999999999976 9.49926256202645 -4.000000000000001
    vertex -43.36880771697491 10.031639947729385 7.9999999999999964
    vertex -42.674999999999976 9.49926256202645 7.9999999999999964
  endloop
endfacet
facet normal 0.8660254037844387 0.4999999999999999 0.0
  outer loop
    vertex -43.90118510267785 10.725447664704319 -4.000000000000001
    vertex -43.36880771697491 10.031639947729385 7.9999999999999964
    vertex -43.36880771697491 10.031639947729385 -4.000000000000001
  endloop
endfacet
facet normal 0.7071067811865476 0.7071067811865475 0.0
  outer loop
    vertex -43.36880771697491 10.031639947729385 7.9999999999999964
    vertex -43.90118510267785 10.725447664704319 -4.000000000000001
    vertex -43.90118510267785 10.725447664704319 7.9999999999999964
  endloop
endfacet
facet normal 0.9659258262890686 0.25881904510251913 0.0
  outer loop
    vertex -44.23585151806836 11.533403863610875 -4.000000000000001
    vertex -43.90118510267785 10.725447664704319 7.9999999999999964
    vertex -43.90118510267785 10.725447664704319 -4.000000000000001
  endloop
endfacet
facet normal 0.8660254037844387 0.4999999999999999 0.0
  outer loop
    vertex -43.90118510267785 10.725447664704319 7.9999999999999964
    vertex -44.23585151806836 11.533403863610875 -4.000000000000001
    vertex -44.23585151806836 11.533403863610875 7.9999999999999964
  endloop
endfacet
facet normal 1.0 2.0495552759987874e-16 0.0
  outer loop
    vertex -44.34999999999997 12.400447664704318 -4.000000000000001
    vertex -44.23585151806836 11.533403863610875 7.9999999999999964
    vertex -44.23585151806836 11.533403863610875 -4.000000000000001
  endloop
endfacet
facet normal 0.9659258262890686 0.25881904510251913 0.0
  outer loop
    vertex -44.23585151806836 11.533403863610875 7.9999999999999964
    vertex -44.34999999999997 12.400447664704318 -4.000000000000001
    vertex -44.34999999999997 12.400447664704318 7.9999999999999964
  endloop
endfacet
facet normal 0.9659258262890686 -0.25881904510251924 0.0
  outer loop
    vertex -44.23585151806836 13.267491465797763 -4.000000000000001
    vertex -44.34999999999997 12.400447664704318 7.9999999999999964
    vertex -44.34999999999997 12.400447664704318 -4.000000000000001
  endloop
endfacet
facet normal 1.0 2.0495552759987874e-16 0.0
  outer loop
    vertex -44.34999999999997 12.400447664704318 7.9999999999999964
    vertex -44.23585151806836 13.267491465797763 -4.000000000000001
    vertex -44.23585151806836 13.267491465797763 7.9999999999999964
  endloop
endfacet
facet normal 0.8660254037844388 -0.4999999999999998 0.0
  outer loop
    vertex -43.90118510267785 14.075447664704319 -4.000000000000001
    vertex -44.23585151806836 13.267491465797763 7.9999999999999964
    vertex -44.23585151806836 13.267491465797763 -4.000000000000001
  endloop
endfacet
facet normal 0.9659258262890686 -0.25881904510251924 0.0
  outer loop
    vertex -44.23585151806836 13.267491465797763 7.9999999999999964
    vertex -43.90118510267785 14.075447664704319 -4.000000000000001
    vertex -43.90118510267785 14.075447664704319 7.9999999999999964
  endloop
endfacet
facet normal 0.7071067811865462 -0.707106781186549 0.0
  outer loop
    vertex -43.36880771697491 14.769255381679253 -4.000000000000001
    vertex -43.90118510267785 14.075447664704319 7.9999999999999964
    vertex -43.90118510267785 14.075447664704319 -4.000000000000001
  endloop
endfacet
facet normal 0.8660254037844388 -0.4999999999999998 0.0
  outer loop
    vertex -43.90118510267785 14.075447664704319 7.9999999999999964
    vertex -43.36880771697491 14.769255381679253 -4.000000000000001
    vertex -43.36880771697491 14.769255381679253 7.9999999999999964
  endloop
endfacet
facet normal 0.49999999999999856 -0.8660254037844395 0.0
  outer loop
    vertex -42.674999999999976 15.301632767382188 7.9999999999999964
    vertex -43.36880771697491 14.769255381679253 -4.000000000000001
    vertex -42.674999999999976 15.301632767382188 -4.000000000000001
  endloop
endfacet
facet normal 0.7071067811865462 -0.707106781186549 0.0
  outer loop
    vertex -43.36880771697491 14.769255381679253 -4.000000000000001
    vertex -42.674999999999976 15.301632767382188 7.9999999999999964
    vertex -43.36880771697491 14.769255381679253 7.9999999999999964
  endloop
endfacet
facet normal 0.2588190451025215 -0.9659258262890681 0.0
  outer loop
    vertex -41.867043801093416 15.636299182772698 7.9999999999999964
    vertex -42.674999999999976 15.301632767382188 -4.000000000000001
    vertex -41.867043801093416 15.636299182772698 -4.000000000000001
  endloop
endfacet
facet normal 0.49999999999999856 -0.8660254037844395 0.0
  outer loop
    vertex -42.674999999999976 15.301632767382188 -4.000000000000001
    vertex -41.867043801093416 15.636299182772698 7.9999999999999964
    vertex -42.674999999999976 15.301632767382188 7.9999999999999964
  endloop
endfacet
facet normal 0.0 -1.0 0.0
  outer loop
    vertex -40.99999999999998 15.75044766470432 7.9999999999999964
    vertex -41.867043801093416 15.636299182772698 -4.000000000000001
    vertex -40.99999999999998 15.75044766470432 -4.000000000000001
  endloop
endfacet
facet normal 0.2588190451025215 -0.9659258262890681 0.0
  outer loop
    vertex -41.867043801093416 15.636299182772698 -4.000000000000001
    vertex -40.99999999999998 15.75044766470432 7.9999999999999964
    vertex -41.867043801093416 15.636299182772698 7.9999999999999964
  endloop
endfacet
facet normal -0.25881904510252035 -0.9659258262890684 0.0
  outer loop
    vertex -40.132956198906534 15.636299182772698 7.9999999999999964
    vertex -40.99999999999998 15.75044766470432 -4.000000000000001
    vertex -40.132956198906534 15.636299182772698 -4.000000000000001
  endloop
endfacet
facet normal 0.0 -1.0 0.0
  outer loop
    vertex -40.99999999999998 15.75044766470432 -4.000000000000001
    vertex -40.132956198906534 15.636299182772698 7.9999999999999964
    vertex -40.99999999999998 15.75044766470432 7.9999999999999964
  endloop
endfacet
facet normal -0.49999999999999917 -0.8660254037844392 0.0
  outer loop
    vertex -39.324999999999974 15.301632767382188 7.9999999999999964
    vertex -40.132956198906534 15.636299182772698 -4.000000000000001
    vertex -39.324999999999974 15.301632767382188 -4.000000000000001
  endloop
endfacet
facet normal -0.25881904510252035 -0.9659258262890684 0.0
  outer loop
    vertex -40.132956198906534 15.636299182772698 -4.000000000000001
    vertex -39.324999999999974 15.301632767382188 7.9999999999999964
    vertex -40.132956198906534 15.636299182772698 7.9999999999999964
  endloop
endfacet
facet normal -0.7071067811865476 -0.7071067811865476 0.0
  outer loop
    vertex -38.63119228302504 14.769255381679253 7.9999999999999964
    vertex -39.324999999999974 15.301632767382188 -4.000000000000001
    vertex -38.63119228302504 14.769255381679253 -4.000000000000001
  endloop
endfacet
facet normal -0.49999999999999917 -0.8660254037844392 0.0
  outer loop
    vertex -39.324999999999974 15.301632767382188 -4.000000000000001
    vertex -38.63119228302504 14.769255381679253 7.9999999999999964
    vertex -39.324999999999974 15.301632767382188 7.9999999999999964
  endloop
endfacet
facet normal -0.7071067811865476 -0.7071067811865476 0.0
  outer loop
    vertex -38.63119228302504 14.769255381679253 7.9999999999999964
    vertex -38.09881489732211 14.075447664704319 -4.000000000000001
    vertex -38.09881489732211 14.075447664704319 7.9999999999999964
  endloop
endfacet
facet normal -0.8660254037844388 -0.4999999999999998 0.0
  outer loop
    vertex -38.09881489732211 14.075447664704319 -4.000000000000001
    vertex -38.63119228302504 14.769255381679253 7.9999999999999964
    vertex -38.63119228302504 14.769255381679253 -4.000000000000001
  endloop
endfacet
facet normal -0.8660254037844388 -0.4999999999999998 0.0
  outer loop
    vertex -38.09881489732211 14.075447664704319 7.9999999999999964
    vertex -37.76414848193159 13.267491465797763 -4.000000000000001
    vertex -37.76414848193159 13.267491465797763 7.9999999999999964
  endloop
endfacet
facet normal -0.9659258262890686 -0.25881904510251924 0.0
  outer loop
    vertex -37.76414848193159 13.267491465797763 -4.000000000000001
    vertex -38.09881489732211 14.075447664704319 7.9999999999999964
    vertex -38.09881489732211 14.075447664704319 -4.000000000000001
  endloop
endfacet
facet normal -0.9659258262890686 -0.25881904510251924 0.0
  outer loop
    vertex -37.76414848193159 13.267491465797763 7.9999999999999964
    vertex -37.64999999999998 12.400447664704318 -4.000000000000001
    vertex -37.64999999999998 12.400447664704318 7.9999999999999964
  endloop
endfacet
facet normal -1.0 -1.1584442864340972e-16 0.0
  outer loop
    vertex -37.64999999999998 12.400447664704318 -4.000000000000001
    vertex -37.76414848193159 13.267491465797763 7.9999999999999964
    vertex -37.76414848193159 13.267491465797763 -4.000000000000001
  endloop
endfacet
facet normal -1.0 -1.1584442864340972e-16 0.0
  outer loop
    vertex -37.64999999999998 12.400447664704318 7.9999999999999964
    vertex -37.76414848193159 11.533403863610872 -4.000000000000001
    vertex -37.76414848193159 11.533403863610872 7.9999999999999964
  endloop
endfacet
facet normal -0.9659258262890679 0.25881904510252235 0.0
  outer loop
    vertex -37.76414848193159 11.533403863610872 -4.000000000000001
    vertex -37.64999999999998 12.400447664704318 7.9999999999999964
    vertex -37.64999999999998 12.400447664704318 -4.000000000000001
  endloop
endfacet
facet normal -0.9659258262890679 0.25881904510252235 0.0
  outer loop
    vertex -37.76414848193159 11.533403863610872 7.9999999999999964
    vertex -38.09881489732211 10.725447664704317 -4.000000000000001
    vertex -38.09881489732211 10.725447664704317 7.9999999999999964
  endloop
endfacet
facet normal -0.8660254037844385 0.5000000000000002 0.0
  outer loop
    vertex -38.09881489732211 10.725447664704317 -4.000000000000001
    vertex -37.76414848193159 11.533403863610872 7.9999999999999964
    vertex -37.76414848193159 11.533403863610872 -4.000000000000001
  endloop
endfacet
facet normal -0.8660254037844385 0.5000000000000002 0.0
  outer loop
    vertex -38.09881489732211 10.725447664704317 7.9999999999999964
    vertex -38.63119228302504 10.031639947729383 -4.000000000000001
    vertex -38.63119228302504 10.031639947729383 7.9999999999999964
  endloop
endfacet
facet normal -0.7071067811865479 0.707106781186547 0.0
  outer loop
    vertex -38.63119228302504 10.031639947729383 -4.000000000000001
    vertex -38.09881489732211 10.725447664704317 7.9999999999999964
    vertex -38.09881489732211 10.725447664704317 -4.000000000000001
  endloop
endfacet
facet normal -0.49999999999999856 0.8660254037844395 0.0
  outer loop
    vertex -39.32499999999998 9.499262562026448 7.9999999999999964
    vertex -38.63119228302504 10.031639947729383 -4.000000000000001
    vertex -39.32499999999998 9.499262562026448 -4.000000000000001
  endloop
endfacet
facet normal -0.7071067811865479 0.707106781186547 0.0
  outer loop
    vertex -38.63119228302504 10.031639947729383 -4.000000000000001
    vertex -39.32499999999998 9.499262562026448 7.9999999999999964
    vertex -38.63119228302504 10.031639947729383 7.9999999999999964
  endloop
endfacet
facet normal -0.2588190451025215 0.9659258262890681 0.0
  outer loop
    vertex -40.132956198906534 9.164596146635938 7.9999999999999964
    vertex -39.32499999999998 9.499262562026448 -4.000000000000001
    vertex -40.132956198906534 9.164596146635938 -4.000000000000001
  endloop
endfacet
facet normal -0.49999999999999856 0.8660254037844395 0.0
  outer loop
    vertex -39.32499999999998 9.499262562026448 -4.000000000000001
    vertex -40.132956198906534 9.164596146635938 7.9999999999999964
    vertex -39.32499999999998 9.499262562026448 7.9999999999999964
  endloop
endfacet
endsolid ActiveCommLinkerMk1.1
