solid CaBMI_BasePlate
facet normal -0.9999999991369916 4.1038058033473415e-05 6.472619323198835e-06
  outer loop
    vertex -5.426461236170644 4.954078426348614 8.963813752372026
    vertex -5.425850464119904 10.724104771123445 6.5408281033471
    vertex -5.426077005359184 4.952684910898301 6.5414270202210325
  endloop
endfacet
facet normal -0.9999999991369916 4.1038058033473415e-05 6.472619323198835e-06
  outer loop
    vertex -5.425850464119904 10.724104771123445 6.5408281033471
    vertex -5.426461236170644 4.954078426348614 8.963813752372026
    vertex -5.4261943780362065 10.724414513256283 8.97230310093893
  endloop
endfacet
facet normal -0.9999886030421611 -0.002059464088153082 -0.0043072489430181354
  outer loop
    vertex 1.2406282907916315 5.573980478732511 8.466061837000687
    vertex 1.2350979644400566 9.572096096897342 7.847725335216065
    vertex 1.2406766942872443 5.573938173092756 7.848061833040241
  endloop
endfacet
facet normal -0.9999886030421611 -0.002059464088153082 -0.0043072489430181354
  outer loop
    vertex 1.2350979644400566 9.572096096897342 7.847725335216065
    vertex 1.2406282907916315 5.573980478732511 8.466061837000687
    vertex 1.229571580441748 9.693970457747376 8.46517472938424
  endloop
endfacet
facet normal 1.0 6.280736105276352e-25 4.887857020415617e-21
  outer loop
    vertex -3.8251733139619826 9.296227214035682 8.465390292420665
    vertex -3.8253760122164913 6.011321694980421 8.967270452668997
    vertex -3.825161588993647 6.010842785891984 8.465891927465227
  endloop
endfacet
facet normal 1.0 6.280736105276352e-25 4.887857020415617e-21
  outer loop
    vertex -3.8253760122164913 6.011321694980421 8.967270452668997
    vertex -3.8251733139619826 9.296227214035682 8.465390292420665
    vertex -3.825387737184827 9.296706123124121 8.966768817624432
  endloop
endfacet
facet normal 0.0 -0.9999999917442961 0.00012849672212568938
  outer loop
    vertex 0.6103531328151691 9.296706123124121 8.966768817624432
    vertex -3.8251733139619826 9.296227214035682 8.465390292420665
    vertex 0.610567556038017 9.296227214035682 8.465390292420665
  endloop
endfacet
facet normal 0.0 -0.9999999917442961 0.00012849672212568938
  outer loop
    vertex -3.8251733139619826 9.296227214035682 8.465390292420665
    vertex 0.6103531328151691 9.296706123124121 8.966768817624432
    vertex -3.825387737184827 9.296706123124121 8.966768817624432
  endloop
endfacet
facet normal 0.9999999997879394 -7.95228768811904e-07 -2.05788425720386e-05
  outer loop
    vertex -4.396083372819519 5.573950622562641 6.541619844879284
    vertex -4.396040313317722 9.693979435809428 8.465781128722892
    vertex -4.39604030709703 5.573826927136134 8.465845718164314
  endloop
endfacet
facet normal 0.9999999997879394 -7.95228768811904e-07 -2.05788425720386e-05
  outer loop
    vertex -4.396040313317722 9.693979435809428 8.465781128722892
    vertex -4.396083372819519 5.573950622562641 6.541619844879284
    vertex -4.396076783111115 9.274780954452114 6.5413078749723965
  endloop
endfacet
facet normal -0.9999989908395096 -0.0013128527607863532 -0.0005428974037134413
  outer loop
    vertex 2.2145730257823306 9.69309397576156 7.845724911683931
    vertex 2.2160915755699353 9.079998489559026 6.530876623994388
    vertex 2.2146167386171087 9.07989416609681 7.845724965371789
  endloop
endfacet
facet normal -0.9999989908395096 -0.0013128527607863532 -0.0005428974037134413
  outer loop
    vertex 2.2160915755699353 9.079998489559026 6.530876623994388
    vertex 2.2145730257823306 9.69309397576156 7.845724911683931
    vertex 2.2145250795836553 9.693398891834077 6.5310806360503
  endloop
endfacet
facet normal 0.00021227642827503706 -0.9999999743405998 -7.910447397908361e-05
  outer loop
    vertex 3.7610907907521702 9.080326336056432 6.532398991516525
    vertex 2.2146167386171087 9.07989416609681 7.845724965371789
    vertex 2.2160915755699353 9.079998489559026 6.530876623994388
  endloop
endfacet
facet normal 0.00021227642827503706 -0.9999999743405998 -7.910447397908361e-05
  outer loop
    vertex 2.2146167386171087 9.07989416609681 7.845724965371789
    vertex 3.7610907907521702 9.080326336056432 6.532398991516525
    vertex 3.7596159537993836 9.080222012594238 7.847247332893907
  endloop
endfacet
facet normal -1.0 -6.280736105276352e-25 -4.887857020415617e-21
  outer loop
    vertex 0.610364857783506 6.011321694980421 8.967270452668997
    vertex 0.610567556038017 9.296227214035682 8.465390292420665
    vertex 0.6105792810063541 6.010842785891984 8.465891927465227
  endloop
endfacet
facet normal -1.0 -6.280736105276352e-25 -4.887857020415617e-21
  outer loop
    vertex 0.610567556038017 9.296227214035682 8.465390292420665
    vertex 0.610364857783506 6.011321694980421 8.967270452668997
    vertex 0.6103531328151691 9.296706123124121 8.966768817624432
  endloop
endfacet
facet normal -6.463120046440643e-05 0.9999999464016744 0.00032096644128777526
  outer loop
    vertex -4.39604030709703 5.573826927136134 8.465845718164314
    vertex 2.2173994859912507 5.574994611686245 6.544676517886478
    vertex -4.396083372819519 5.573950622562641 6.541619844879284
  endloop
endfacet
facet normal -6.463120046440643e-05 0.9999999464016744 0.00032096644128777526
  outer loop
    vertex 2.2173994859912507 5.574994611686245 6.544676517886478
    vertex -4.39604030709703 5.573826927136134 8.465845718164314
    vertex 1.2406766942872443 5.573938173092756 7.848061833040241
  endloop
endfacet
facet normal -6.463120046440643e-05 0.9999999464016744 0.00032096644128777526
  outer loop
    vertex 2.2173994859912507 5.574994611686245 6.544676517886478
    vertex 1.2406766942872443 5.573938173092756 7.848061833040241
    vertex 2.2146333013846573 5.573938263726095 7.846839907733185
  endloop
endfacet
facet normal -6.463120046440643e-05 0.9999999464016744 0.00032096644128777526
  outer loop
    vertex 1.2406766942872443 5.573938173092756 7.848061833040241
    vertex -4.39604030709703 5.573826927136134 8.465845718164314
    vertex 1.2406282907916315 5.573980478732511 8.466061837000687
  endloop
endfacet
facet normal -0.9999982058618873 -0.00016533639626829387 -0.0018870444834624476
  outer loop
    vertex 2.21470416426527 7.01803229889331 7.845725094583691
    vertex 2.2173994859912507 5.574994611686245 6.544676517886478
    vertex 2.2146333013846573 5.573938263726095 7.846839907733185
  endloop
endfacet
facet normal -0.9999982058618873 -0.00016533639626829387 -0.0018870444834624476
  outer loop
    vertex 2.2173994859912507 5.574994611686245 6.544676517886478
    vertex 2.21470416426527 7.01803229889331 7.845725094583691
    vertex 2.216879197723939 7.0181367064928635 6.530876639652982
  endloop
endfacet
facet normal -0.00021227637992700466 0.9999999743444898 7.905541376743578e-05
  outer loop
    vertex 2.21470416426527 7.01803229889331 7.845725094583691
    vertex 3.7618784129061793 7.0184645529902685 6.532399007175106
    vertex 2.216879197723939 7.0181367064928635 6.530876639652982
  endloop
endfacet
facet normal -0.00021227637992700466 0.9999999743444898 7.905541376743578e-05
  outer loop
    vertex 3.7618784129061793 7.0184645529902685 6.532399007175106
    vertex 2.21470416426527 7.01803229889331 7.845725094583691
    vertex 3.759703379447487 7.018360145390715 7.847247462105815
  endloop
endfacet
facet normal -2.988946618992149e-22 0.9999999996003943 -2.8270328717397996e-05
  outer loop
    vertex -3.8253760122164913 6.011321694980421 8.967270452668997
    vertex 0.6105792810063541 6.010842785891984 8.465891927465227
    vertex -3.825161588993647 6.010842785891984 8.465891927465227
  endloop
endfacet
facet normal -2.988946618992149e-22 0.9999999996003943 -2.8270328717397996e-05
  outer loop
    vertex 0.6105792810063541 6.010842785891984 8.465891927465227
    vertex -3.8253760122164913 6.011321694980421 8.967270452668997
    vertex 0.610364857783506 6.011321694980421 8.967270452668997
  endloop
endfacet
facet normal 0.001334746767696965 -0.9774737620937582 0.21105274902104715
  outer loop
    vertex 1.2350979644400566 9.572096096897342 7.847725335216065
    vertex -4.396040313317722 9.693979435809428 8.465781128722892
    vertex -4.396076783111115 9.274780954452114 6.5413078749723965
  endloop
endfacet
facet normal 0.001334746767696965 -0.9774737620937582 0.21105274902104715
  outer loop
    vertex -4.396040313317722 9.693979435809428 8.465781128722892
    vertex 1.2350979644400566 9.572096096897342 7.847725335216065
    vertex 1.229571580441748 9.693970457747376 8.46517472938424
  endloop
endfacet
facet normal 0.006877432488399634 -0.9810517440251502 0.19362380139739777
  outer loop
    vertex 1.2350979644400566 9.572096096897342 7.847725335216065
    vertex -4.396076783111115 9.274780954452114 6.5413078749723965
    vertex 1.230365696104572 9.313966059188752 6.540001925201982
  endloop
endfacet
facet normal -0.00010779319010694276 -0.0003742077431974308 -0.9999999241745938
  outer loop
    vertex 1.229571580441748 9.693970457747376 8.46517472938424
    vertex 0.610567556038017 9.296227214035682 8.465390292420665
    vertex -4.396040313317722 9.693979435809428 8.465781128722892
  endloop
endfacet
facet normal -2.2128334862879808e-05 -0.000131261690505523 -0.9999999911403527
  outer loop
    vertex -4.396040313317722 9.693979435809428 8.465781128722892
    vertex -3.8251733139619826 9.296227214035682 8.465390292420665
    vertex -4.39604030709703 5.573826927136134 8.465845718164314
  endloop
endfacet
facet normal -2.2128334862879808e-05 -0.000131261690505523 -0.9999999911403527
  outer loop
    vertex -3.8251733139619826 9.296227214035682 8.465390292420665
    vertex -4.396040313317722 9.693979435809428 8.465781128722892
    vertex 0.610567556038017 9.296227214035682 8.465390292420665
  endloop
endfacet
facet normal -2.2128334862879808e-05 -0.000131261690505523 -0.9999999911403527
  outer loop
    vertex 1.229571580441748 9.693970457747376 8.46517472938424
    vertex 0.6105792810063541 6.010842785891984 8.465891927465227
    vertex 0.610567556038017 9.296227214035682 8.465390292420665
  endloop
endfacet
facet normal -2.2128334862879808e-05 -0.000131261690505523 -0.9999999911403527
  outer loop
    vertex -4.39604030709703 5.573826927136134 8.465845718164314
    vertex -3.825161588993647 6.010842785891984 8.465891927465227
    vertex 1.2406282907916315 5.573980478732511 8.466061837000687
  endloop
endfacet
facet normal -2.2128334862879808e-05 -0.000131261690505523 -0.9999999911403527
  outer loop
    vertex -3.825161588993647 6.010842785891984 8.465891927465227
    vertex -4.39604030709703 5.573826927136134 8.465845718164314
    vertex -3.8251733139619826 9.296227214035682 8.465390292420665
  endloop
endfacet
facet normal -2.2128334862879808e-05 -0.000131261690505523 -0.9999999911403527
  outer loop
    vertex 1.2406282907916315 5.573980478732511 8.466061837000687
    vertex -3.825161588993647 6.010842785891984 8.465891927465227
    vertex 0.6105792810063541 6.010842785891984 8.465891927465227
  endloop
endfacet
facet normal -2.2128334862879808e-05 -0.000131261690505523 -0.9999999911403527
  outer loop
    vertex 1.2406282907916315 5.573980478732511 8.466061837000687
    vertex 0.6105792810063541 6.010842785891984 8.465891927465227
    vertex 1.229571580441748 9.693970457747376 8.46517472938424
  endloop
endfacet
facet normal -2.0351036310392764e-05 -0.9999999376867846 0.00035243760060643534
  outer loop
    vertex 3.7603454569775523 4.953353123627986 8.965255042109533
    vertex -5.426077005359184 4.952684910898301 6.5414270202210325
    vertex 3.7626684371730743 4.953034060579861 6.534089420964753
  endloop
endfacet
facet normal -2.0351036310392764e-05 -0.9999999376867846 0.00035243760060643534
  outer loop
    vertex -5.426077005359184 4.952684910898301 6.5414270202210325
    vertex 3.7603454569775523 4.953353123627986 8.965255042109533
    vertex -5.426461236170644 4.954078426348614 8.963813752372026
  endloop
endfacet
facet normal 0.999562087986709 -0.029566029847576652 0.0012174311903526533
  outer loop
    vertex 1.2409727168082167 9.693719171297712 6.53258159551705
    vertex 1.2350979644400566 9.572096096897342 7.847725335216065
    vertex 1.230365696104572 9.313966059188752 6.540001925201982
  endloop
endfacet
facet normal 0.999562087986709 -0.029566029847576652 0.0012174311903526533
  outer loop
    vertex 1.2350979644400566 9.572096096897342 7.847725335216065
    vertex 1.2409727168082167 9.693719171297712 6.53258159551705
    vertex 1.2406840303703501 9.693938214594587 7.847714528269663
  endloop
endfacet
facet normal -0.0005979242296676757 -0.9999998198197717 5.335765919829269e-05
  outer loop
    vertex 2.2145730257823306 9.69309397576156 7.845724911683931
    vertex 1.2409727168082167 9.693719171297712 6.53258159551705
    vertex 2.2145250795836553 9.693398891834077 6.5310806360503
  endloop
endfacet
facet normal -0.0005979242296676757 -0.9999998198197717 5.335765919829269e-05
  outer loop
    vertex 1.2409727168082167 9.693719171297712 6.53258159551705
    vertex 2.2145730257823306 9.69309397576156 7.845724911683931
    vertex 1.2406840303703501 9.693938214594587 7.847714528269663
  endloop
endfacet
facet normal -0.00022555035494859404 -9.14865344793274e-05 -0.9999999703786253
  outer loop
    vertex 1.2406840303703501 9.693938214594587 7.847714528269663
    vertex 1.2406766942872443 5.573938173092756 7.848061833040241
    vertex 1.2350979644400566 9.572096096897342 7.847725335216065
  endloop
endfacet
facet normal -0.00022555035494859404 -9.14865344793274e-05 -0.9999999703786253
  outer loop
    vertex 1.2406766942872443 5.573938173092756 7.848061833040241
    vertex 1.2406840303703501 9.693938214594587 7.847714528269663
    vertex 2.2146333013846573 5.573938263726095 7.846839907733185
  endloop
endfacet
facet normal -0.00022555035494859404 -9.14865344793274e-05 -0.9999999703786253
  outer loop
    vertex 2.2146333013846573 5.573938263726095 7.846839907733185
    vertex 1.2406840303703501 9.693938214594587 7.847714528269663
    vertex 2.2145730257823306 9.69309397576156 7.845724911683931
  endloop
endfacet
facet normal -0.00022555035494859404 -9.14865344793274e-05 -0.9999999703786253
  outer loop
    vertex 2.2146333013846573 5.573938263726095 7.846839907733185
    vertex 2.2145730257823306 9.69309397576156 7.845724911683931
    vertex 2.2146167386171087 9.07989416609681 7.845724965371789
  endloop
endfacet
facet normal -0.00022555035494859404 -9.14865344793274e-05 -0.9999999703786253
  outer loop
    vertex 2.2146333013846573 5.573938263726095 7.846839907733185
    vertex 2.2146167386171087 9.07989416609681 7.845724965371789
    vertex 2.21470416426527 7.01803229889331 7.845725094583691
  endloop
endfacet
facet normal -0.00022555035494859404 -9.14865344793274e-05 -0.9999999703786253
  outer loop
    vertex 2.21470416426527 7.01803229889331 7.845725094583691
    vertex 2.2146167386171087 9.07989416609681 7.845724965371789
    vertex 3.7596159537993836 9.080222012594238 7.847247332893907
  endloop
endfacet
facet normal -0.00022555035494859404 -9.14865344793274e-05 -0.9999999703786253
  outer loop
    vertex 2.21470416426527 7.01803229889331 7.845725094583691
    vertex 3.7596159537993836 9.080222012594238 7.847247332893907
    vertex 3.759703379447487 7.018360145390715 7.847247462105815
  endloop
endfacet
facet normal 0.0002259891331610684 0.9999999718057383 -7.292074109646565e-05
  outer loop
    vertex -5.425850464119904 10.724104771123445 6.5408281033471
    vertex 3.7604631777379676 10.722205559094505 8.964775054712273
    vertex 3.7604631671111015 10.722160442312713 6.531955074452817
  endloop
endfacet
facet normal 0.0002259891331610684 0.9999999718057383 -7.292074109646565e-05
  outer loop
    vertex 3.7604631777379676 10.722205559094505 8.964775054712273
    vertex -5.425850464119904 10.724104771123445 6.5408281033471
    vertex -5.4261943780362065 10.724414513256283 8.97230310093893
  endloop
endfacet
facet normal 0.0003311648167667398 -0.0006942116656308922 0.99999970419997
  outer loop
    vertex -5.426461236170644 4.954078426348614 8.963813752372026
    vertex -3.8253760122164913 6.011321694980421 8.967270452668997
    vertex -5.4261943780362065 10.724414513256283 8.97230310093893
  endloop
endfacet
facet normal 0.0003311648167667398 -0.0006942116656308922 0.99999970419997
  outer loop
    vertex -3.8253760122164913 6.011321694980421 8.967270452668997
    vertex -5.426461236170644 4.954078426348614 8.963813752372026
    vertex 3.7603454569775523 4.953353123627986 8.965255042109533
  endloop
endfacet
facet normal 0.0003311648167667398 -0.0006942116656308922 0.99999970419997
  outer loop
    vertex -5.4261943780362065 10.724414513256283 8.97230310093893
    vertex -3.8253760122164913 6.011321694980421 8.967270452668997
    vertex -3.825387737184827 9.296706123124121 8.966768817624432
  endloop
endfacet
facet normal 0.0003311648167667398 -0.0006942116656308922 0.99999970419997
  outer loop
    vertex -3.8253760122164913 6.011321694980421 8.967270452668997
    vertex 3.7603454569775523 4.953353123627986 8.965255042109533
    vertex 0.610364857783506 6.011321694980421 8.967270452668997
  endloop
endfacet
facet normal 0.0003311648167667398 -0.0006942116656308922 0.99999970419997
  outer loop
    vertex -3.825387737184827 9.296706123124121 8.966768817624432
    vertex 3.7604631777379676 10.722205559094505 8.964775054712273
    vertex -5.4261943780362065 10.724414513256283 8.97230310093893
  endloop
endfacet
facet normal 0.0003311648167667398 -0.0006942116656308922 0.99999970419997
  outer loop
    vertex 3.7604631777379676 10.722205559094505 8.964775054712273
    vertex -3.825387737184827 9.296706123124121 8.966768817624432
    vertex 0.6103531328151691 9.296706123124121 8.966768817624432
  endloop
endfacet
facet normal 0.0003311648167667398 -0.0006942116656308922 0.99999970419997
  outer loop
    vertex 3.7604631777379676 10.722205559094505 8.964775054712273
    vertex 0.6103531328151691 9.296706123124121 8.966768817624432
    vertex 0.610364857783506 6.011321694980421 8.967270452668997
  endloop
endfacet
facet normal 0.0003311648167667398 -0.0006942116656308922 0.99999970419997
  outer loop
    vertex 3.7604631777379676 10.722205559094505 8.964775054712273
    vertex 0.610364857783506 6.011321694980421 8.967270452668997
    vertex 3.7603454569775523 4.953353123627986 8.965255042109533
  endloop
endfacet
facet normal 0.9999997742853851 0.0002208399970923443 0.0006345540754159687
  outer loop
    vertex 3.7618784129061793 7.0184645529902685 6.532399007175106
    vertex 3.759703379447487 7.018360145390715 7.847247462105815
    vertex 3.762396504908085 5.6635817105703 6.5336370008634805
  endloop
endfacet
facet normal 0.9999997742853851 0.0002208399970923443 0.0006345540754159687
  outer loop
    vertex 3.762396504908085 5.6635817105703 6.5336370008634805
    vertex 3.7603454569775523 4.953353123627986 8.965255042109533
    vertex 3.7626684371730743 4.953034060579861 6.534089420964753
  endloop
endfacet
facet normal 0.9999997742853851 0.0002208399970923443 0.0006345540754159687
  outer loop
    vertex 3.7603454569775523 4.953353123627986 8.965255042109533
    vertex 3.762396504908085 5.6635817105703 6.5336370008634805
    vertex 3.759703379447487 7.018360145390715 7.847247462105815
  endloop
endfacet
facet normal 0.9999997742853851 0.0002208399970923443 0.0006345540754159687
  outer loop
    vertex 3.7603454569775523 4.953353123627986 8.965255042109533
    vertex 3.759703379447487 7.018360145390715 7.847247462105815
    vertex 3.7604631777379676 10.722205559094505 8.964775054712273
  endloop
endfacet
facet normal 0.9999997742853851 0.0002208399970923443 0.0006345540754159687
  outer loop
    vertex 3.7604631777379676 10.722205559094505 8.964775054712273
    vertex 3.759703379447487 7.018360145390715 7.847247462105815
    vertex 3.7596159537993836 9.080222012594238 7.847247332893907
  endloop
endfacet
facet normal 0.9999997742853851 0.0002208399970923443 0.0006345540754159687
  outer loop
    vertex 3.7604631777379676 10.722205559094505 8.964775054712273
    vertex 3.7596159537993836 9.080222012594238 7.847247332893907
    vertex 3.7610907907521702 9.080326336056432 6.532398991516525
  endloop
endfacet
facet normal 0.9999997742853851 0.0002208399970923443 0.0006345540754159687
  outer loop
    vertex 3.7604631777379676 10.722205559094505 8.964775054712273
    vertex 3.7610907907521702 9.080326336056432 6.532398991516525
    vertex 3.7604631671111015 10.722160442312713 6.531955074452817
  endloop
endfacet
facet normal 0.0010041243997558822 -0.0009748780988902571 -0.9999990206729615
  outer loop
    vertex 3.762396504908085 5.6635817105703 6.5336370008634805
    vertex 2.216879197723939 7.0181367064928635 6.530876639652982
    vertex 3.7618784129061793 7.0184645529902685 6.532399007175106
  endloop
endfacet
facet normal -0.0009306570281740089 -0.0006478455914962165 -0.999999357086586
  outer loop
    vertex -5.425850464119904 10.724104771123445 6.5408281033471
    vertex -4.396076783111115 9.274780954452114 6.5413078749723965
    vertex -4.396083372819519 5.573950622562641 6.541619844879284
  endloop
endfacet
facet normal -0.0009306570281740089 -0.0006478455914962165 -0.999999357086586
  outer loop
    vertex -4.396076783111115 9.274780954452114 6.5413078749723965
    vertex -5.425850464119904 10.724104771123445 6.5408281033471
    vertex 3.7604631671111015 10.722160442312713 6.531955074452817
  endloop
endfacet
facet normal -0.0009306570281740089 -0.0006478455914962165 -0.999999357086586
  outer loop
    vertex -4.396076783111115 9.274780954452114 6.5413078749723965
    vertex 3.7604631671111015 10.722160442312713 6.531955074452817
    vertex 1.2409727168082167 9.693719171297712 6.53258159551705
  endloop
endfacet
facet normal -0.0009306570281740089 -0.0006478455914962165 -0.999999357086586
  outer loop
    vertex -4.396076783111115 9.274780954452114 6.5413078749723965
    vertex 1.2409727168082167 9.693719171297712 6.53258159551705
    vertex 1.230365696104572 9.313966059188752 6.540001925201982
  endloop
endfacet
facet normal -0.0009306570281740089 -0.0006478455914962165 -0.999999357086586
  outer loop
    vertex 1.2409727168082167 9.693719171297712 6.53258159551705
    vertex 3.7604631671111015 10.722160442312713 6.531955074452817
    vertex 2.2145250795836553 9.693398891834077 6.5310806360503
  endloop
endfacet
facet normal -0.0009306570281740089 -0.0006478455914962165 -0.999999357086586
  outer loop
    vertex 2.2145250795836553 9.693398891834077 6.5310806360503
    vertex 3.7604631671111015 10.722160442312713 6.531955074452817
    vertex 2.2160915755699353 9.079998489559026 6.530876623994388
  endloop
endfacet
facet normal -0.0009306570281740089 -0.0006478455914962165 -0.999999357086586
  outer loop
    vertex 2.2160915755699353 9.079998489559026 6.530876623994388
    vertex 3.7604631671111015 10.722160442312713 6.531955074452817
    vertex 3.7610907907521702 9.080326336056432 6.532398991516525
  endloop
endfacet
facet normal -0.0009306570281740089 -0.0006478455914962165 -0.999999357086586
  outer loop
    vertex 3.762396504908085 5.6635817105703 6.5336370008634805
    vertex 2.2173994859912507 5.574994611686245 6.544676517886478
    vertex 2.216879197723939 7.0181367064928635 6.530876639652982
  endloop
endfacet
facet normal -0.0009306570281740089 -0.0006478455914962165 -0.999999357086586
  outer loop
    vertex -5.426077005359184 4.952684910898301 6.5414270202210325
    vertex -4.396083372819519 5.573950622562641 6.541619844879284
    vertex 3.7626684371730743 4.953034060579861 6.534089420964753
  endloop
endfacet
facet normal -0.0009306570281740089 -0.0006478455914962165 -0.999999357086586
  outer loop
    vertex -4.396083372819519 5.573950622562641 6.541619844879284
    vertex -5.426077005359184 4.952684910898301 6.5414270202210325
    vertex -5.425850464119904 10.724104771123445 6.5408281033471
  endloop
endfacet
facet normal -0.0009306570281740089 -0.0006478455914962165 -0.999999357086586
  outer loop
    vertex 3.7626684371730743 4.953034060579861 6.534089420964753
    vertex -4.396083372819519 5.573950622562641 6.541619844879284
    vertex 2.2173994859912507 5.574994611686245 6.544676517886478
  endloop
endfacet
facet normal -0.0009306570281740089 -0.0006478455914962165 -0.999999357086586
  outer loop
    vertex 3.7626684371730743 4.953034060579861 6.534089420964753
    vertex 2.2173994859912507 5.574994611686245 6.544676517886478
    vertex 3.762396504908085 5.6635817105703 6.5336370008634805
  endloop
endfacet
endsolid CaBMI_BasePlate
