solid FS_122016_2pt0mm_parts
facet normal 0.0 0.0 1.0
  outer loop
    vertex 113.41878959099616 -2.3088224344821975 19.632525379469737
    vertex 113.55497788369566 -3.6246882626108534 19.63252537946973
    vertex 113.81792612167278 -2.0387147056661745 19.632525379469737
  endloop
endfacet
facet normal 0.0 0.0 1.0
  outer loop
    vertex 113.60890277371017 -3.3449916168575275 19.63252537946973
    vertex 113.81792612167278 -2.0387147056661745 19.632525379469737
    vertex 113.55497788369566 -3.6246882626108534 19.63252537946973
  endloop
endfacet
facet normal 0.0 0.0 1.0
  outer loop
    vertex 113.73338103642723 -3.0887821917387783 19.63252537946973
    vertex 113.81792612167278 -2.0387147056661745 19.632525379469737
    vertex 113.60890277371017 -3.3449916168575275 19.63252537946973
  endloop
endfacet
facet normal 0.0 0.0 1.0
  outer loop
    vertex 113.91992968395276 -2.873520236170357 19.63252537946973
    vertex 113.81792612167278 -2.0387147056661745 19.632525379469737
    vertex 113.73338103642723 -3.0887821917387783 19.63252537946973
  endloop
endfacet
facet normal 0.0 0.0 1.0
  outer loop
    vertex 114.27337142931576 -1.8811148102577546 19.632525379469737
    vertex 113.81792612167278 -2.0387147056661745 19.632525379469737
    vertex 113.91992968395276 -2.873520236170357 19.63252537946973
  endloop
endfacet
facet normal 0.0 0.0 1.0
  outer loop
    vertex 114.15583573424406 -2.71387549668705 19.63252537946973
    vertex 114.27337142931576 -1.8811148102577546 19.632525379469737
    vertex 113.91992968395276 -2.873520236170357 19.63252537946973
  endloop
endfacet
facet normal 0.0 0.0 1.0
  outer loop
    vertex 114.425022579827 -2.6207274984592375 19.63252537946973
    vertex 114.27337142931576 -1.8811148102577546 19.632525379469737
    vertex 114.15583573424406 -2.71387549668705 19.63252537946973
  endloop
endfacet
facet normal 0.0 0.0 1.0
  outer loop
    vertex 114.75408766886814 -1.8467629206828857 19.632525379469737
    vertex 114.27337142931576 -1.8811148102577546 19.632525379469737
    vertex 114.425022579827 -2.6207274984592375 19.63252537946973
  endloop
endfacet
facet normal 0.0 0.0 1.0
  outer loop
    vertex 114.70914558202738 -2.6004241236318015 19.63252537946973
    vertex 114.75408766886814 -1.8467629206828857 19.632525379469737
    vertex 114.425022579827 -2.6207274984592375 19.63252537946973
  endloop
endfacet
facet normal 0.0 0.0 1.0
  outer loop
    vertex 114.98884222778071 -2.6543490136463164 19.63252537946973
    vertex 114.75408766886814 -1.8467629206828857 19.632525379469737
    vertex 114.70914558202738 -2.6004241236318015 19.63252537946973
  endloop
endfacet
facet normal 0.0 0.0 1.0
  outer loop
    vertex 115.22731482302558 -1.938000061446909 19.632525379469737
    vertex 114.75408766886814 -1.8467629206828857 19.632525379469737
    vertex 114.98884222778071 -2.6543490136463164 19.63252537946973
  endloop
endfacet
facet normal 0.0 0.0 1.0
  outer loop
    vertex 115.24505165289945 -2.7788272763633888 19.63252537946973
    vertex 115.22731482302558 -1.938000061446909 19.632525379469737
    vertex 114.98884222778071 -2.6543490136463164 19.63252537946973
  endloop
endfacet
facet normal 0.0 0.0 1.0
  outer loop
    vertex 115.66080324327709 -2.148608572183263 19.632525379469737
    vertex 115.22731482302558 -1.938000061446909 19.632525379469737
    vertex 115.24505165289945 -2.7788272763633888 19.63252537946973
  endloop
endfacet
facet normal 0.0 0.0 1.0
  outer loop
    vertex 115.46031360846787 -2.965375923888904 19.63252537946973
    vertex 115.66080324327709 -2.148608572183263 19.632525379469737
    vertex 115.24505165289945 -2.7788272763633888 19.63252537946973
  endloop
endfacet
facet normal 0.0 0.0 1.0
  outer loop
    vertex 115.61995834795118 -3.2012819741802154 19.63252537946973
    vertex 115.66080324327709 -2.148608572183263 19.632525379469737
    vertex 115.46031360846787 -2.965375923888904 19.63252537946973
  endloop
endfacet
facet normal 0.0 0.0 1.0
  outer loop
    vertex 115.71310634617899 -3.470468819763153 19.63252537946973
    vertex 115.66080324327709 -2.148608572183263 19.632525379469737
    vertex 115.61995834795118 -3.2012819741802154 19.63252537946973
  endloop
endfacet
facet normal 0.0 0.0 1.0
  outer loop
    vertex 116.02501141015604 -2.4642358309322843 19.632525379469737
    vertex 115.66080324327709 -2.148608572183263 19.632525379469737
    vertex 115.71310634617899 -3.470468819763153 19.63252537946973
  endloop
endfacet
facet normal 0.0 0.0 1.0
  outer loop
    vertex 115.73340972100642 -3.754591821963531 19.63252537946973
    vertex 116.02501141015604 -2.4642358309322843 19.632525379469737
    vertex 115.71310634617899 -3.470468819763153 19.63252537946973
  endloop
endfacet
facet normal 0.0 0.0 1.0
  outer loop
    vertex 115.86959801370595 -5.070457650092187 19.632525379469737
    vertex 116.02501141015604 -2.4642358309322843 19.632525379469737
    vertex 115.73340972100642 -3.754591821963531 19.63252537946973
  endloop
endfacet
facet normal 0.0 0.0 1.0
  outer loop
    vertex 116.18522527245499 -4.70624948321324 19.632525379469737
    vertex 116.02501141015604 -2.4642358309322843 19.632525379469737
    vertex 115.86959801370595 -5.070457650092187 19.632525379469737
  endloop
endfacet
facet normal 0.0 0.0 1.0
  outer loop
    vertex 116.29511913897207 -2.863372361608933 19.632525379469737
    vertex 116.02501141015604 -2.4642358309322843 19.632525379469737
    vertex 116.18522527245499 -4.70624948321324 19.632525379469737
  endloop
endfacet
facet normal 0.0 0.0 1.0
  outer loop
    vertex 116.39583378319132 -4.272761062961722 19.632525379469737
    vertex 116.29511913897207 -2.863372361608933 19.632525379469737
    vertex 116.18522527245499 -4.70624948321324 19.632525379469737
  endloop
endfacet
facet normal 0.0 0.0 1.0
  outer loop
    vertex 116.4527190343805 -3.318817669251904 19.632525379469737
    vertex 116.29511913897207 -2.863372361608933 19.632525379469737
    vertex 116.39583378319132 -4.272761062961722 19.632525379469737
  endloop
endfacet
facet normal 0.0 0.0 1.0
  outer loop
    vertex 116.48707092395536 -3.7995339088042837 19.632525379469737
    vertex 116.4527190343805 -3.318817669251904 19.632525379469737
    vertex 116.39583378319132 -4.272761062961722 19.632525379469737
  endloop
endfacet
facet normal 0.0 0.0 1.0
  outer loop
    vertex 112.80131668074675 -3.5797461757701066 19.632525379469737
    vertex 112.83566857032162 -4.060462415322483 19.632525379469737
    vertex 112.89255382151076 -3.106519021612665 19.632525379469737
  endloop
endfacet
facet normal 0.0 0.0 1.0
  outer loop
    vertex 112.99326846573003 -4.515907722965451 19.632525379469737
    vertex 112.89255382151076 -3.106519021612665 19.632525379469737
    vertex 112.83566857032162 -4.060462415322483 19.632525379469737
  endloop
endfacet
facet normal 0.0 0.0 1.0
  outer loop
    vertex 113.10316233224711 -2.6730306013611447 19.632525379469737
    vertex 112.89255382151076 -3.106519021612665 19.632525379469737
    vertex 112.99326846573003 -4.515907722965451 19.632525379469737
  endloop
endfacet
facet normal 0.0 0.0 1.0
  outer loop
    vertex 113.26337619454604 -4.915044253642103 19.632525379469737
    vertex 113.10316233224711 -2.6730306013611447 19.632525379469737
    vertex 112.99326846573003 -4.515907722965451 19.632525379469737
  endloop
endfacet
facet normal 0.0 0.0 1.0
  outer loop
    vertex 113.41878959099616 -2.3088224344821975 19.632525379469737
    vertex 113.10316233224711 -2.6730306013611447 19.632525379469737
    vertex 113.26337619454604 -4.915044253642103 19.632525379469737
  endloop
endfacet
facet normal 0.0 0.0 1.0
  outer loop
    vertex 113.627584361425 -5.230671512391124 19.632525379469737
    vertex 113.41878959099616 -2.3088224344821975 19.632525379469737
    vertex 113.26337619454604 -4.915044253642103 19.632525379469737
  endloop
endfacet
facet normal 0.0 0.0 1.0
  outer loop
    vertex 113.55497788369566 -3.6246882626108534 19.63252537946973
    vertex 113.41878959099616 -2.3088224344821975 19.632525379469737
    vertex 113.627584361425 -5.230671512391124 19.632525379469737
  endloop
endfacet
facet normal 0.0 0.0 1.0
  outer loop
    vertex 113.57528125852309 -3.9088112648112348 19.63252537946973
    vertex 113.55497788369566 -3.6246882626108534 19.63252537946973
    vertex 113.627584361425 -5.230671512391124 19.632525379469737
  endloop
endfacet
facet normal 0.0 0.0 1.0
  outer loop
    vertex 113.6684292567509 -4.177998110394169 19.63252537946973
    vertex 113.57528125852309 -3.9088112648112348 19.63252537946973
    vertex 113.627584361425 -5.230671512391124 19.632525379469737
  endloop
endfacet
facet normal 0.0 0.0 1.0
  outer loop
    vertex 114.06107278167653 -5.441280023127476 19.632525379469737
    vertex 113.6684292567509 -4.177998110394169 19.63252537946973
    vertex 113.627584361425 -5.230671512391124 19.632525379469737
  endloop
endfacet
facet normal 0.0 0.0 1.0
  outer loop
    vertex 113.82807399623421 -4.4139041606854805 19.63252537946973
    vertex 113.6684292567509 -4.177998110394169 19.63252537946973
    vertex 114.06107278167653 -5.441280023127476 19.632525379469737
  endloop
endfacet
facet normal 0.0 0.0 1.0
  outer loop
    vertex 114.04333595180263 -4.600452808210996 19.63252537946973
    vertex 113.82807399623421 -4.4139041606854805 19.63252537946973
    vertex 114.06107278167653 -5.441280023127476 19.632525379469737
  endloop
endfacet
facet normal 0.0 0.0 1.0
  outer loop
    vertex 114.29954537692137 -4.7249310709280685 19.63252537946973
    vertex 114.04333595180263 -4.600452808210996 19.63252537946973
    vertex 114.06107278167653 -5.441280023127476 19.632525379469737
  endloop
endfacet
facet normal 0.0 0.0 1.0
  outer loop
    vertex 114.53429993583394 -5.532517163891499 19.632525379469737
    vertex 114.29954537692137 -4.7249310709280685 19.63252537946973
    vertex 114.06107278167653 -5.441280023127476 19.632525379469737
  endloop
endfacet
facet normal 0.0 0.0 1.0
  outer loop
    vertex 114.5792420226747 -4.7788559609425825 19.63252537946973
    vertex 114.29954537692137 -4.7249310709280685 19.63252537946973
    vertex 114.53429993583394 -5.532517163891499 19.632525379469737
  endloop
endfacet
facet normal 0.0 0.0 1.0
  outer loop
    vertex 115.01501617538635 -5.49816527431663 19.632525379469737
    vertex 114.5792420226747 -4.7788559609425825 19.63252537946973
    vertex 114.53429993583394 -5.532517163891499 19.632525379469737
  endloop
endfacet
facet normal 0.0 0.0 1.0
  outer loop
    vertex 114.8633650248751 -4.7585525861151465 19.63252537946973
    vertex 114.5792420226747 -4.7788559609425825 19.63252537946973
    vertex 115.01501617538635 -5.49816527431663 19.632525379469737
  endloop
endfacet
facet normal 0.0 0.0 1.0
  outer loop
    vertex 115.13255187045802 -4.665404587887335 19.63252537946973
    vertex 114.8633650248751 -4.7585525861151465 19.63252537946973
    vertex 115.01501617538635 -5.49816527431663 19.632525379469737
  endloop
endfacet
facet normal 0.0 0.0 1.0
  outer loop
    vertex 115.47046148302931 -5.34056537890821 19.632525379469737
    vertex 115.13255187045802 -4.665404587887335 19.63252537946973
    vertex 115.01501617538635 -5.49816527431663 19.632525379469737
  endloop
endfacet
facet normal 0.0 0.0 1.0
  outer loop
    vertex 115.36845792074932 -4.505759848404027 19.63252537946973
    vertex 115.13255187045802 -4.665404587887335 19.63252537946973
    vertex 115.47046148302931 -5.34056537890821 19.632525379469737
  endloop
endfacet
facet normal 0.0 0.0 1.0
  outer loop
    vertex 115.55500656827485 -4.290497892835606 19.63252537946973
    vertex 115.36845792074932 -4.505759848404027 19.63252537946973
    vertex 115.47046148302931 -5.34056537890821 19.632525379469737
  endloop
endfacet
facet normal 0.0 0.0 1.0
  outer loop
    vertex 115.86959801370595 -5.070457650092187 19.632525379469737
    vertex 115.55500656827485 -4.290497892835606 19.63252537946973
    vertex 115.47046148302931 -5.34056537890821 19.632525379469737
  endloop
endfacet
facet normal 0.0 0.0 1.0
  outer loop
    vertex 115.67948483099192 -4.034288467716857 19.63252537946973
    vertex 115.55500656827485 -4.290497892835606 19.63252537946973
    vertex 115.86959801370595 -5.070457650092187 19.632525379469737
  endloop
endfacet
facet normal 0.0 0.0 1.0
  outer loop
    vertex 115.73340972100642 -3.754591821963531 19.63252537946973
    vertex 115.67948483099192 -4.034288467716857 19.63252537946973
    vertex 115.86959801370595 -5.070457650092187 19.632525379469737
  endloop
endfacet
facet normal 0.5604568426236317 -0.828183631543361 0.0
  outer loop
    vertex 115.86959801370595 -5.070457650092187 19.632525379469737
    vertex 115.47046148302931 -5.34056537890821 19.632525379469737
    vertex 115.86959801370595 -5.070457650092187 19.13252537946974
  endloop
endfacet
facet normal 0.5604568426236317 -0.828183631543361 0.0
  outer loop
    vertex 115.47046148302931 -5.34056537890821 19.13252537946974
    vertex 115.86959801370595 -5.070457650092187 19.13252537946974
    vertex 115.47046148302931 -5.34056537890821 19.632525379469737
  endloop
endfacet
facet normal 0.755709435496184 -0.6549070537885807 0.0
  outer loop
    vertex 115.86959801370595 -5.070457650092187 19.632525379469737
    vertex 115.86959801370595 -5.070457650092187 19.13252537946974
    vertex 116.18522527245499 -4.70624948321324 19.632525379469737
  endloop
endfacet
facet normal 0.755709435496184 -0.6549070537885807 0.0
  outer loop
    vertex 116.18522527245499 -4.70624948321324 19.13252537946974
    vertex 116.18522527245499 -4.70624948321324 19.632525379469737
    vertex 115.86959801370595 -5.070457650092187 19.13252537946974
  endloop
endfacet
facet normal 0.8994616792085582 -0.43699964260319574 0.0
  outer loop
    vertex 116.18522527245499 -4.70624948321324 19.632525379469737
    vertex 116.18522527245499 -4.70624948321324 19.13252537946974
    vertex 116.39583378319132 -4.272761062961722 19.632525379469737
  endloop
endfacet
facet normal 0.8994616792085582 -0.43699964260319574 0.0
  outer loop
    vertex 116.39583378319132 -4.272761062961722 19.13252537946974
    vertex 116.39583378319132 -4.272761062961722 19.632525379469737
    vertex 116.18522527245499 -4.70624948321324 19.13252537946974
  endloop
endfacet
facet normal 0.9819170959135831 -0.18931142795044156 0.0
  outer loop
    vertex 116.39583378319132 -4.272761062961722 19.632525379469737
    vertex 116.39583378319132 -4.272761062961722 19.13252537946974
    vertex 116.48707092395536 -3.7995339088042837 19.632525379469737
  endloop
endfacet
facet normal 0.9819170959135831 -0.18931142795044156 0.0
  outer loop
    vertex 116.48707092395536 -3.7995339088042837 19.13252537946974
    vertex 116.48707092395536 -3.7995339088042837 19.632525379469737
    vertex 116.39583378319132 -4.272761062961722 19.13252537946974
  endloop
endfacet
facet normal 0.9974564852268201 0.07127804766517339 4.85288868915551e-15
  outer loop
    vertex 116.48707092395536 -3.7995339088042837 19.632525379469737
    vertex 116.48707092395536 -3.7995339088042837 19.13252537946974
    vertex 116.4527190343805 -3.318817669251904 19.632525379469737
  endloop
endfacet
facet normal 0.9974564852268201 0.07127804766517339 4.85288868915551e-15
  outer loop
    vertex 116.47136493502907 -3.5797461757701066 19.13252537946974
    vertex 116.4527190343805 -3.318817669251904 19.632525379469737
    vertex 116.48707092395536 -3.7995339088042837 19.13252537946974
  endloop
endfacet
facet normal 0.9974564852268201 0.07127804766517339 4.85288868915551e-15
  outer loop
    vertex 116.4527190343805 -3.318817669251904 19.13252537946974
    vertex 116.4527190343805 -3.318817669251904 19.632525379469737
    vertex 116.47136493502907 -3.5797461757701066 19.13252537946974
  endloop
endfacet
facet normal 0.9450208634466228 0.3270100421250081 0.0
  outer loop
    vertex 116.4527190343805 -3.318817669251904 19.632525379469737
    vertex 116.4527190343805 -3.318817669251904 19.13252537946974
    vertex 116.29511913897207 -2.863372361608933 19.632525379469737
  endloop
endfacet
facet normal 0.9450208634466228 0.3270100421250081 0.0
  outer loop
    vertex 116.29511913897207 -2.863372361608933 19.13252537946974
    vertex 116.29511913897207 -2.863372361608933 19.632525379469737
    vertex 116.4527190343805 -3.318817669251904 19.13252537946974
  endloop
endfacet
facet normal 0.8281836315433603 0.560456842623633 0.0
  outer loop
    vertex 116.29511913897207 -2.863372361608933 19.632525379469737
    vertex 116.29511913897207 -2.863372361608933 19.13252537946974
    vertex 116.02501141015604 -2.4642358309322843 19.632525379469737
  endloop
endfacet
facet normal 0.8281836315433603 0.560456842623633 0.0
  outer loop
    vertex 116.02501141015604 -2.4642358309322843 19.13252537946974
    vertex 116.02501141015604 -2.4642358309322843 19.632525379469737
    vertex 116.29511913897207 -2.863372361608933 19.13252537946974
  endloop
endfacet
facet normal 0.6549070537885866 0.7557094354961791 0.0
  outer loop
    vertex 115.66080324327709 -2.148608572183263 19.632525379469737
    vertex 116.02501141015604 -2.4642358309322843 19.632525379469737
    vertex 115.66080324327709 -2.148608572183263 19.13252537946974
  endloop
endfacet
facet normal 0.6549070537885866 0.7557094354961791 0.0
  outer loop
    vertex 116.02501141015604 -2.4642358309322843 19.13252537946974
    vertex 115.66080324327709 -2.148608572183263 19.13252537946974
    vertex 116.02501141015604 -2.4642358309322843 19.632525379469737
  endloop
endfacet
facet normal 0.43699964260318874 0.8994616792085617 0.0
  outer loop
    vertex 115.22731482302558 -1.938000061446909 19.632525379469737
    vertex 115.66080324327709 -2.148608572183263 19.632525379469737
    vertex 115.22731482302558 -1.938000061446909 19.13252537946974
  endloop
endfacet
facet normal 0.43699964260318874 0.8994616792085617 0.0
  outer loop
    vertex 115.66080324327709 -2.148608572183263 19.13252537946974
    vertex 115.22731482302558 -1.938000061446909 19.13252537946974
    vertex 115.66080324327709 -2.148608572183263 19.632525379469737
  endloop
endfacet
facet normal 0.18931142795043943 0.9819170959135837 0.0
  outer loop
    vertex 114.75408766886814 -1.8467629206828857 19.632525379469737
    vertex 115.22731482302558 -1.938000061446909 19.632525379469737
    vertex 114.75408766886814 -1.8467629206828857 19.13252537946974
  endloop
endfacet
facet normal 0.18931142795043943 0.9819170959135837 0.0
  outer loop
    vertex 115.22731482302558 -1.938000061446909 19.13252537946974
    vertex 114.75408766886814 -1.8467629206828857 19.13252537946974
    vertex 115.22731482302558 -1.938000061446909 19.632525379469737
  endloop
endfacet
facet normal -0.07127804766519708 0.9974564852268183 0.0
  outer loop
    vertex 114.27337142931576 -1.8811148102577546 19.632525379469737
    vertex 114.75408766886814 -1.8467629206828857 19.632525379469737
    vertex 114.27337142931576 -1.8811148102577546 19.13252537946974
  endloop
endfacet
facet normal -0.07127804766519708 0.9974564852268183 0.0
  outer loop
    vertex 114.75408766886814 -1.8467629206828857 19.13252537946974
    vertex 114.27337142931576 -1.8811148102577546 19.13252537946974
    vertex 114.75408766886814 -1.8467629206828857 19.632525379469737
  endloop
endfacet
facet normal -0.3270100421250029 0.9450208634466247 0.0
  outer loop
    vertex 113.81792612167278 -2.0387147056661745 19.632525379469737
    vertex 114.27337142931576 -1.8811148102577546 19.632525379469737
    vertex 113.81792612167278 -2.0387147056661745 19.13252537946974
  endloop
endfacet
facet normal -0.3270100421250029 0.9450208634466247 0.0
  outer loop
    vertex 114.27337142931576 -1.8811148102577546 19.13252537946974
    vertex 113.81792612167278 -2.0387147056661745 19.13252537946974
    vertex 114.27337142931576 -1.8811148102577546 19.632525379469737
  endloop
endfacet
facet normal -0.560456842623629 0.8281836315433629 0.0
  outer loop
    vertex 113.41878959099616 -2.3088224344821975 19.632525379469737
    vertex 113.81792612167278 -2.0387147056661745 19.632525379469737
    vertex 113.41878959099616 -2.3088224344821975 19.13252537946974
  endloop
endfacet
facet normal -0.560456842623629 0.8281836315433629 0.0
  outer loop
    vertex 113.81792612167278 -2.0387147056661745 19.13252537946974
    vertex 113.41878959099616 -2.3088224344821975 19.13252537946974
    vertex 113.81792612167278 -2.0387147056661745 19.632525379469737
  endloop
endfacet
facet normal -0.755709435496184 0.6549070537885807 0.0
  outer loop
    vertex 113.10316233224711 -2.6730306013611447 19.13252537946974
    vertex 113.10316233224711 -2.6730306013611447 19.632525379469737
    vertex 113.41878959099616 -2.3088224344821975 19.13252537946974
  endloop
endfacet
facet normal -0.755709435496184 0.6549070537885807 0.0
  outer loop
    vertex 113.41878959099616 -2.3088224344821975 19.632525379469737
    vertex 113.41878959099616 -2.3088224344821975 19.13252537946974
    vertex 113.10316233224711 -2.6730306013611447 19.632525379469737
  endloop
endfacet
facet normal -0.8994616792085617 0.43699964260318874 0.0
  outer loop
    vertex 112.89255382151076 -3.106519021612665 19.13252537946974
    vertex 112.89255382151076 -3.106519021612665 19.632525379469737
    vertex 113.10316233224711 -2.6730306013611447 19.13252537946974
  endloop
endfacet
facet normal -0.8994616792085617 0.43699964260318874 0.0
  outer loop
    vertex 113.10316233224711 -2.6730306013611447 19.632525379469737
    vertex 113.10316233224711 -2.6730306013611447 19.13252537946974
    vertex 112.89255382151076 -3.106519021612665 19.632525379469737
  endloop
endfacet
facet normal -0.9819170959135833 0.1893114279504405 0.0
  outer loop
    vertex 112.80131668074675 -3.5797461757701066 19.13252537946974
    vertex 112.80131668074675 -3.5797461757701066 19.632525379469737
    vertex 112.84693525112876 -3.343132598691386 19.13252537946974
  endloop
endfacet
facet normal -0.9819170959135833 0.1893114279504405 0.0
  outer loop
    vertex 112.89255382151076 -3.106519021612665 19.632525379469737
    vertex 112.84693525112876 -3.343132598691386 19.13252537946974
    vertex 112.80131668074675 -3.5797461757701066 19.632525379469737
  endloop
endfacet
facet normal -0.9819170959135833 0.1893114279504405 0.0
  outer loop
    vertex 112.89255382151076 -3.106519021612665 19.13252537946974
    vertex 112.84693525112876 -3.343132598691386 19.13252537946974
    vertex 112.89255382151076 -3.106519021612665 19.632525379469737
  endloop
endfacet
facet normal -0.9974564852268184 -0.07127804766519667 0.0
  outer loop
    vertex 112.83566857032162 -4.060462415322483 19.13252537946974
    vertex 112.83566857032162 -4.060462415322483 19.632525379469737
    vertex 112.80131668074675 -3.5797461757701066 19.13252537946974
  endloop
endfacet
facet normal -0.9974564852268184 -0.07127804766519667 0.0
  outer loop
    vertex 112.80131668074675 -3.5797461757701066 19.632525379469737
    vertex 112.80131668074675 -3.5797461757701066 19.13252537946974
    vertex 112.83566857032162 -4.060462415322483 19.632525379469737
  endloop
endfacet
facet normal -0.945020863446624 -0.3270100421250047 0.0
  outer loop
    vertex 112.99326846573003 -4.515907722965451 19.13252537946974
    vertex 112.99326846573003 -4.515907722965451 19.632525379469737
    vertex 112.83566857032162 -4.060462415322483 19.13252537946974
  endloop
endfacet
facet normal -0.945020863446624 -0.3270100421250047 0.0
  outer loop
    vertex 112.83566857032162 -4.060462415322483 19.632525379469737
    vertex 112.83566857032162 -4.060462415322483 19.13252537946974
    vertex 112.99326846573003 -4.515907722965451 19.632525379469737
  endloop
endfacet
facet normal -0.8281836315433647 -0.5604568426236263 0.0
  outer loop
    vertex 113.26337619454604 -4.915044253642103 19.13252537946974
    vertex 113.26337619454604 -4.915044253642103 19.632525379469737
    vertex 112.99326846573003 -4.515907722965451 19.13252537946974
  endloop
endfacet
facet normal -0.8281836315433647 -0.5604568426236263 0.0
  outer loop
    vertex 112.99326846573003 -4.515907722965451 19.632525379469737
    vertex 112.99326846573003 -4.515907722965451 19.13252537946974
    vertex 113.26337619454604 -4.915044253642103 19.632525379469737
  endloop
endfacet
facet normal -0.6549070537885807 -0.755709435496184 0.0
  outer loop
    vertex 113.627584361425 -5.230671512391124 19.632525379469737
    vertex 113.26337619454604 -4.915044253642103 19.632525379469737
    vertex 113.627584361425 -5.230671512391124 19.13252537946974
  endloop
endfacet
facet normal -0.6549070537885807 -0.755709435496184 0.0
  outer loop
    vertex 113.26337619454604 -4.915044253642103 19.13252537946974
    vertex 113.627584361425 -5.230671512391124 19.13252537946974
    vertex 113.26337619454604 -4.915044253642103 19.632525379469737
  endloop
endfacet
facet normal -0.43699964260318397 -0.899461679208564 0.0
  outer loop
    vertex 114.06107278167653 -5.441280023127476 19.632525379469737
    vertex 113.627584361425 -5.230671512391124 19.632525379469737
    vertex 114.06107278167653 -5.441280023127476 19.13252537946974
  endloop
endfacet
facet normal -0.43699964260318397 -0.899461679208564 0.0
  outer loop
    vertex 113.627584361425 -5.230671512391124 19.13252537946974
    vertex 114.06107278167653 -5.441280023127476 19.13252537946974
    vertex 113.627584361425 -5.230671512391124 19.632525379469737
  endloop
endfacet
facet normal -0.1893114279504405 -0.9819170959135833 0.0
  outer loop
    vertex 114.53429993583394 -5.532517163891499 19.632525379469737
    vertex 114.06107278167653 -5.441280023127476 19.632525379469737
    vertex 114.53429993583394 -5.532517163891499 19.13252537946974
  endloop
endfacet
facet normal -0.1893114279504405 -0.9819170959135833 0.0
  outer loop
    vertex 114.06107278167653 -5.441280023127476 19.13252537946974
    vertex 114.53429993583394 -5.532517163891499 19.13252537946974
    vertex 114.06107278167653 -5.441280023127476 19.632525379469737
  endloop
endfacet
facet normal 0.07127804766519667 -0.9974564852268184 0.0
  outer loop
    vertex 115.01501617538635 -5.49816527431663 19.632525379469737
    vertex 114.53429993583394 -5.532517163891499 19.632525379469737
    vertex 115.01501617538635 -5.49816527431663 19.13252537946974
  endloop
endfacet
facet normal 0.07127804766519667 -0.9974564852268184 0.0
  outer loop
    vertex 114.53429993583394 -5.532517163891499 19.13252537946974
    vertex 115.01501617538635 -5.49816527431663 19.13252537946974
    vertex 114.53429993583394 -5.532517163891499 19.632525379469737
  endloop
endfacet
facet normal 0.3270100421250029 -0.9450208634466247 0.0
  outer loop
    vertex 115.47046148302931 -5.34056537890821 19.632525379469737
    vertex 115.01501617538635 -5.49816527431663 19.632525379469737
    vertex 115.47046148302931 -5.34056537890821 19.13252537946974
  endloop
endfacet
facet normal 0.3270100421250029 -0.9450208634466247 0.0
  outer loop
    vertex 115.01501617538635 -5.49816527431663 19.13252537946974
    vertex 115.47046148302931 -5.34056537890821 19.13252537946974
    vertex 115.01501617538635 -5.49816527431663 19.632525379469737
  endloop
endfacet
facet normal 0.0 0.0 1.0
  outer loop
    vertex 113.55497788369566 -3.6246882626108534 20.882525379469737
    vertex 113.57528125852309 -3.9088112648112348 20.882525379469737
    vertex 113.60890277371017 -3.3449916168575275 20.882525379469737
  endloop
endfacet
facet normal 0.0 0.0 1.0
  outer loop
    vertex 113.6684292567509 -4.177998110394169 20.882525379469737
    vertex 113.60890277371017 -3.3449916168575275 20.882525379469737
    vertex 113.57528125852309 -3.9088112648112348 20.882525379469737
  endloop
endfacet
facet normal 0.0 0.0 1.0
  outer loop
    vertex 113.73338103642723 -3.0887821917387783 20.882525379469737
    vertex 113.60890277371017 -3.3449916168575275 20.882525379469737
    vertex 113.6684292567509 -4.177998110394169 20.882525379469737
  endloop
endfacet
facet normal 0.0 0.0 1.0
  outer loop
    vertex 113.82807399623421 -4.4139041606854805 20.882525379469737
    vertex 113.73338103642723 -3.0887821917387783 20.882525379469737
    vertex 113.6684292567509 -4.177998110394169 20.882525379469737
  endloop
endfacet
facet normal 0.0 0.0 1.0
  outer loop
    vertex 113.91992968395276 -2.873520236170357 20.882525379469737
    vertex 113.73338103642723 -3.0887821917387783 20.882525379469737
    vertex 113.82807399623421 -4.4139041606854805 20.882525379469737
  endloop
endfacet
facet normal 0.0 0.0 1.0
  outer loop
    vertex 114.04333595180263 -4.600452808210996 20.882525379469737
    vertex 113.91992968395276 -2.873520236170357 20.882525379469737
    vertex 113.82807399623421 -4.4139041606854805 20.882525379469737
  endloop
endfacet
facet normal 0.0 0.0 1.0
  outer loop
    vertex 114.04419380235105 -3.6896400422871922 20.882525379469737
    vertex 113.91992968395276 -2.873520236170357 20.882525379469737
    vertex 114.04333595180263 -4.600452808210996 20.882525379469737
  endloop
endfacet
facet normal 0.0 0.0 1.0
  outer loop
    vertex 114.15583573424406 -2.71387549668705 20.882525379469737
    vertex 113.91992968395276 -2.873520236170357 20.882525379469737
    vertex 114.04419380235105 -3.6896400422871922 20.882525379469737
  endloop
endfacet
facet normal 0.0 0.0 1.0
  outer loop
    vertex 114.0646383065776 -3.53434861522568 20.882525379469733
    vertex 114.15583573424406 -2.71387549668705 20.882525379469737
    vertex 114.04419380235105 -3.6896400422871922 20.882525379469737
  endloop
endfacet
facet normal 0.0 0.0 1.0
  outer loop
    vertex 114.12457856008037 -3.389640042287192 20.882525379469733
    vertex 114.15583573424406 -2.71387549668705 20.882525379469737
    vertex 114.0646383065776 -3.53434861522568 20.882525379469733
  endloop
endfacet
facet normal 0.0 0.0 1.0
  outer loop
    vertex 114.21992973363912 -3.265375973575263 20.882525379469737
    vertex 114.15583573424406 -2.71387549668705 20.882525379469737
    vertex 114.12457856008037 -3.389640042287192 20.882525379469733
  endloop
endfacet
facet normal 0.0 0.0 1.0
  outer loop
    vertex 114.425022579827 -2.6207274984592375 20.882525379469737
    vertex 114.15583573424406 -2.71387549668705 20.882525379469737
    vertex 114.21992973363912 -3.265375973575263 20.882525379469737
  endloop
endfacet
facet normal 0.0 0.0 1.0
  outer loop
    vertex 114.34419380235104 -3.1700248000165288 20.882525379469733
    vertex 114.425022579827 -2.6207274984592375 20.882525379469737
    vertex 114.21992973363912 -3.265375973575263 20.882525379469737
  endloop
endfacet
facet normal 0.0 0.0 1.0
  outer loop
    vertex 114.48890237528953 -3.1100845465137508 20.882525379469737
    vertex 114.425022579827 -2.6207274984592375 20.882525379469737
    vertex 114.34419380235104 -3.1700248000165288 20.882525379469733
  endloop
endfacet
facet normal 0.0 0.0 1.0
  outer loop
    vertex 114.70914558202738 -2.6004241236318015 20.882525379469737
    vertex 114.425022579827 -2.6207274984592375 20.882525379469737
    vertex 114.48890237528953 -3.1100845465137508 20.882525379469737
  endloop
endfacet
facet normal 0.0 0.0 1.0
  outer loop
    vertex 114.64419380235104 -3.089640042287192 20.882525379469737
    vertex 114.70914558202738 -2.6004241236318015 20.882525379469737
    vertex 114.48890237528953 -3.1100845465137508 20.882525379469737
  endloop
endfacet
facet normal 0.0 0.0 1.0
  outer loop
    vertex 114.79948522941257 -3.110084546513751 20.88252537946974
    vertex 114.70914558202738 -2.6004241236318015 20.882525379469737
    vertex 114.64419380235104 -3.089640042287192 20.882525379469737
  endloop
endfacet
facet normal 0.0 0.0 1.0
  outer loop
    vertex 114.98884222778071 -2.6543490136463164 20.882525379469737
    vertex 114.70914558202738 -2.6004241236318015 20.882525379469737
    vertex 114.79948522941257 -3.110084546513751 20.88252537946974
  endloop
endfacet
facet normal 0.0 0.0 1.0
  outer loop
    vertex 114.94419380235104 -3.170024800016529 20.882525379469744
    vertex 114.98884222778071 -2.6543490136463164 20.882525379469737
    vertex 114.79948522941257 -3.110084546513751 20.88252537946974
  endloop
endfacet
facet normal 0.0 0.0 1.0
  outer loop
    vertex 115.06845787106296 -3.265375973575264 20.882525379469747
    vertex 114.98884222778071 -2.6543490136463164 20.882525379469737
    vertex 114.94419380235104 -3.170024800016529 20.882525379469744
  endloop
endfacet
facet normal 0.0 0.0 1.0
  outer loop
    vertex 115.24505165289945 -2.7788272763633888 20.882525379469737
    vertex 114.98884222778071 -2.6543490136463164 20.882525379469737
    vertex 115.06845787106296 -3.265375973575264 20.882525379469747
  endloop
endfacet
facet normal 0.0 0.0 1.0
  outer loop
    vertex 115.16380904462171 -3.389640042287193 20.88252537946975
    vertex 115.24505165289945 -2.7788272763633888 20.882525379469737
    vertex 115.06845787106296 -3.265375973575264 20.882525379469747
  endloop
endfacet
facet normal 0.0 0.0 1.0
  outer loop
    vertex 115.22374929812449 -3.5343486152256802 20.88252537946975
    vertex 115.24505165289945 -2.7788272763633888 20.882525379469737
    vertex 115.16380904462171 -3.389640042287193 20.88252537946975
  endloop
endfacet
facet normal 0.0 0.0 1.0
  outer loop
    vertex 115.24419380235103 -3.6896400422871922 20.88252537946975
    vertex 115.24505165289945 -2.7788272763633888 20.882525379469737
    vertex 115.22374929812449 -3.5343486152256802 20.88252537946975
  endloop
endfacet
facet normal 0.0 0.0 1.0
  outer loop
    vertex 114.29954537692137 -4.7249310709280685 20.882525379469737
    vertex 114.0646383065776 -3.8449314693487042 20.882525379469737
    vertex 114.04333595180263 -4.600452808210996 20.882525379469737
  endloop
endfacet
facet normal 0.0 0.0 1.0
  outer loop
    vertex 114.04419380235105 -3.6896400422871922 20.882525379469737
    vertex 114.04333595180263 -4.600452808210996 20.882525379469737
    vertex 114.0646383065776 -3.8449314693487042 20.882525379469737
  endloop
endfacet
facet normal 0.0 0.0 1.0
  outer loop
    vertex 114.12457856008037 -3.9896400422871925 20.882525379469737
    vertex 114.0646383065776 -3.8449314693487042 20.882525379469737
    vertex 114.29954537692137 -4.7249310709280685 20.882525379469737
  endloop
endfacet
facet normal 0.0 0.0 1.0
  outer loop
    vertex 114.21992973363912 -4.113904110999122 20.88252537946974
    vertex 114.12457856008037 -3.9896400422871925 20.882525379469737
    vertex 114.29954537692137 -4.7249310709280685 20.882525379469737
  endloop
endfacet
facet normal 0.0 0.0 1.0
  outer loop
    vertex 114.34419380235104 -4.209255284557856 20.882525379469744
    vertex 114.21992973363912 -4.113904110999122 20.88252537946974
    vertex 114.29954537692137 -4.7249310709280685 20.882525379469737
  endloop
endfacet
facet normal 0.0 0.0 1.0
  outer loop
    vertex 114.5792420226747 -4.7788559609425825 20.882525379469737
    vertex 114.34419380235104 -4.209255284557856 20.882525379469744
    vertex 114.29954537692137 -4.7249310709280685 20.882525379469737
  endloop
endfacet
facet normal 0.0 0.0 1.0
  outer loop
    vertex 114.48890237528953 -4.269195538060633 20.882525379469747
    vertex 114.34419380235104 -4.209255284557856 20.882525379469744
    vertex 114.5792420226747 -4.7788559609425825 20.882525379469737
  endloop
endfacet
facet normal 0.0 0.0 1.0
  outer loop
    vertex 114.64419380235104 -4.289640042287193 20.88252537946975
    vertex 114.48890237528953 -4.269195538060633 20.882525379469747
    vertex 114.5792420226747 -4.7788559609425825 20.882525379469737
  endloop
endfacet
facet normal 0.0 0.0 1.0
  outer loop
    vertex 114.8633650248751 -4.7585525861151465 20.882525379469737
    vertex 114.64419380235104 -4.289640042287193 20.88252537946975
    vertex 114.5792420226747 -4.7788559609425825 20.882525379469737
  endloop
endfacet
facet normal 0.0 0.0 1.0
  outer loop
    vertex 114.79948522941257 -4.269195538060633 20.88252537946975
    vertex 114.64419380235104 -4.289640042287193 20.88252537946975
    vertex 114.8633650248751 -4.7585525861151465 20.882525379469737
  endloop
endfacet
facet normal 0.0 0.0 1.0
  outer loop
    vertex 114.94419380235104 -4.209255284557855 20.882525379469755
    vertex 114.79948522941257 -4.269195538060633 20.88252537946975
    vertex 114.8633650248751 -4.7585525861151465 20.882525379469737
  endloop
endfacet
facet normal 0.0 0.0 1.0
  outer loop
    vertex 115.13255187045802 -4.665404587887335 20.882525379469737
    vertex 114.94419380235104 -4.209255284557855 20.882525379469755
    vertex 114.8633650248751 -4.7585525861151465 20.882525379469737
  endloop
endfacet
facet normal 0.0 0.0 1.0
  outer loop
    vertex 115.06845787106296 -4.113904110999121 20.88252537946975
    vertex 114.94419380235104 -4.209255284557855 20.882525379469755
    vertex 115.13255187045802 -4.665404587887335 20.882525379469737
  endloop
endfacet
facet normal 0.0 0.0 1.0
  outer loop
    vertex 115.16380904462171 -3.9896400422871925 20.882525379469755
    vertex 115.06845787106296 -4.113904110999121 20.88252537946975
    vertex 115.13255187045802 -4.665404587887335 20.882525379469737
  endloop
endfacet
facet normal 0.0 0.0 1.0
  outer loop
    vertex 115.36845792074932 -4.505759848404027 20.882525379469737
    vertex 115.16380904462171 -3.9896400422871925 20.882525379469755
    vertex 115.13255187045802 -4.665404587887335 20.882525379469737
  endloop
endfacet
facet normal 0.0 0.0 1.0
  outer loop
    vertex 115.22374929812449 -3.844931469348705 20.882525379469755
    vertex 115.16380904462171 -3.9896400422871925 20.882525379469755
    vertex 115.36845792074932 -4.505759848404027 20.882525379469737
  endloop
endfacet
facet normal 0.0 0.0 1.0
  outer loop
    vertex 115.24419380235103 -3.6896400422871922 20.88252537946975
    vertex 115.22374929812449 -3.844931469348705 20.882525379469755
    vertex 115.36845792074932 -4.505759848404027 20.882525379469737
  endloop
endfacet
facet normal 0.0 0.0 1.0
  outer loop
    vertex 115.24505165289945 -2.7788272763633888 20.882525379469737
    vertex 115.24419380235103 -3.6896400422871922 20.88252537946975
    vertex 115.36845792074932 -4.505759848404027 20.882525379469737
  endloop
endfacet
facet normal 0.0 0.0 1.0
  outer loop
    vertex 115.46031360846787 -2.965375923888904 20.882525379469737
    vertex 115.24505165289945 -2.7788272763633888 20.882525379469737
    vertex 115.36845792074932 -4.505759848404027 20.882525379469737
  endloop
endfacet
facet normal 0.0 0.0 1.0
  outer loop
    vertex 115.55500656827485 -4.290497892835606 20.882525379469737
    vertex 115.46031360846787 -2.965375923888904 20.882525379469737
    vertex 115.36845792074932 -4.505759848404027 20.882525379469737
  endloop
endfacet
facet normal 0.0 0.0 1.0
  outer loop
    vertex 115.61995834795118 -3.2012819741802154 20.882525379469737
    vertex 115.46031360846787 -2.965375923888904 20.882525379469737
    vertex 115.55500656827485 -4.290497892835606 20.882525379469737
  endloop
endfacet
facet normal 0.0 0.0 1.0
  outer loop
    vertex 115.67948483099192 -4.034288467716857 20.882525379469737
    vertex 115.61995834795118 -3.2012819741802154 20.882525379469737
    vertex 115.55500656827485 -4.290497892835606 20.882525379469737
  endloop
endfacet
facet normal 0.0 0.0 1.0
  outer loop
    vertex 115.71310634617899 -3.470468819763153 20.882525379469737
    vertex 115.61995834795118 -3.2012819741802154 20.882525379469737
    vertex 115.67948483099192 -4.034288467716857 20.882525379469737
  endloop
endfacet
facet normal 0.0 0.0 1.0
  outer loop
    vertex 115.73340972100642 -3.754591821963531 20.882525379469737
    vertex 115.71310634617899 -3.470468819763153 20.882525379469737
    vertex 115.67948483099192 -4.034288467716857 20.882525379469737
  endloop
endfacet
facet normal -0.07127804766519266 0.9974564852268186 0.0
  outer loop
    vertex 114.425022579827 -2.6207274984592375 20.882525379469737
    vertex 114.70914558202738 -2.6004241236318015 20.882525379469737
    vertex 114.425022579827 -2.6207274984592375 19.63252537946973
  endloop
endfacet
facet normal -0.07127804766519266 0.9974564852268186 0.0
  outer loop
    vertex 114.70914558202738 -2.6004241236318015 19.63252537946973
    vertex 114.425022579827 -2.6207274984592375 19.63252537946973
    vertex 114.70914558202738 -2.6004241236318015 20.882525379469737
  endloop
endfacet
facet normal -0.8994616792085549 0.43699964260320245 0.0
  outer loop
    vertex 113.60890277371017 -3.3449916168575275 19.63252537946973
    vertex 113.60890277371017 -3.3449916168575275 20.882525379469737
    vertex 113.73338103642723 -3.0887821917387783 19.63252537946973
  endloop
endfacet
facet normal -0.8994616792085549 0.43699964260320245 0.0
  outer loop
    vertex 113.73338103642723 -3.0887821917387783 20.882525379469737
    vertex 113.73338103642723 -3.0887821917387783 19.63252537946973
    vertex 113.60890277371017 -3.3449916168575275 20.882525379469737
  endloop
endfacet
facet normal 0.5604568426236335 -0.8281836315433602 0.0
  outer loop
    vertex 115.36845792074932 -4.505759848404027 20.882525379469737
    vertex 115.13255187045802 -4.665404587887335 20.882525379469737
    vertex 115.36845792074932 -4.505759848404027 19.63252537946973
  endloop
endfacet
facet normal 0.5604568426236335 -0.8281836315433602 0.0
  outer loop
    vertex 115.13255187045802 -4.665404587887335 19.63252537946973
    vertex 115.36845792074932 -4.505759848404027 19.63252537946973
    vertex 115.13255187045802 -4.665404587887335 20.882525379469737
  endloop
endfacet
facet normal -0.6549070537885823 -0.7557094354961829 0.0
  outer loop
    vertex 114.04333595180263 -4.600452808210996 20.882525379469737
    vertex 113.82807399623421 -4.4139041606854805 20.882525379469737
    vertex 114.04333595180263 -4.600452808210996 19.63252537946973
  endloop
endfacet
facet normal -0.6549070537885823 -0.7557094354961829 0.0
  outer loop
    vertex 113.82807399623421 -4.4139041606854805 19.63252537946973
    vertex 114.04333595180263 -4.600452808210996 19.63252537946973
    vertex 113.82807399623421 -4.4139041606854805 20.882525379469737
  endloop
endfacet
facet normal 0.32701004212500523 -0.9450208634466237 0.0
  outer loop
    vertex 115.13255187045802 -4.665404587887335 20.882525379469737
    vertex 114.8633650248751 -4.7585525861151465 20.882525379469737
    vertex 115.13255187045802 -4.665404587887335 19.63252537946973
  endloop
endfacet
facet normal 0.32701004212500523 -0.9450208634466237 0.0
  outer loop
    vertex 114.8633650248751 -4.7585525861151465 19.63252537946973
    vertex 115.13255187045802 -4.665404587887335 19.63252537946973
    vertex 114.8633650248751 -4.7585525861151465 20.882525379469737
  endloop
endfacet
facet normal 0.9974564852268193 0.07127804766518528 0.0
  outer loop
    vertex 115.73340972100642 -3.754591821963531 20.882525379469737
    vertex 115.73340972100642 -3.754591821963531 19.63252537946973
    vertex 115.71310634617899 -3.470468819763153 20.882525379469737
  endloop
endfacet
facet normal 0.9974564852268193 0.07127804766518528 0.0
  outer loop
    vertex 115.71310634617899 -3.470468819763153 19.63252537946973
    vertex 115.71310634617899 -3.470468819763153 20.882525379469737
    vertex 115.73340972100642 -3.754591821963531 19.63252537946973
  endloop
endfacet
facet normal -0.32701004212500523 0.9450208634466237 0.0
  outer loop
    vertex 114.15583573424406 -2.71387549668705 20.882525379469737
    vertex 114.425022579827 -2.6207274984592375 20.882525379469737
    vertex 114.15583573424406 -2.71387549668705 19.63252537946973
  endloop
endfacet
facet normal -0.32701004212500523 0.9450208634466237 0.0
  outer loop
    vertex 114.425022579827 -2.6207274984592375 19.63252537946973
    vertex 114.15583573424406 -2.71387549668705 19.63252537946973
    vertex 114.425022579827 -2.6207274984592375 20.882525379469737
  endloop
endfacet
facet normal 0.4369996426032003 0.8994616792085561 0.0
  outer loop
    vertex 114.98884222778071 -2.6543490136463164 20.882525379469737
    vertex 115.24505165289945 -2.7788272763633888 20.882525379469737
    vertex 114.98884222778071 -2.6543490136463164 19.63252537946973
  endloop
endfacet
facet normal 0.4369996426032003 0.8994616792085561 0.0
  outer loop
    vertex 115.24505165289945 -2.7788272763633888 19.63252537946973
    vertex 114.98884222778071 -2.6543490136463164 19.63252537946973
    vertex 115.24505165289945 -2.7788272763633888 20.882525379469737
  endloop
endfacet
facet normal 0.18931142795044456 0.9819170959135826 0.0
  outer loop
    vertex 114.70914558202738 -2.6004241236318015 20.882525379469737
    vertex 114.98884222778071 -2.6543490136463164 20.882525379469737
    vertex 114.70914558202738 -2.6004241236318015 19.63252537946973
  endloop
endfacet
facet normal 0.18931142795044456 0.9819170959135826 0.0
  outer loop
    vertex 114.98884222778071 -2.6543490136463164 19.63252537946973
    vertex 114.70914558202738 -2.6004241236318015 19.63252537946973
    vertex 114.98884222778071 -2.6543490136463164 20.882525379469737
  endloop
endfacet
facet normal 0.07127804766519266 -0.9974564852268186 0.0
  outer loop
    vertex 114.8633650248751 -4.7585525861151465 20.882525379469737
    vertex 114.5792420226747 -4.7788559609425825 20.882525379469737
    vertex 114.8633650248751 -4.7585525861151465 19.63252537946973
  endloop
endfacet
facet normal 0.07127804766519266 -0.9974564852268186 0.0
  outer loop
    vertex 114.5792420226747 -4.7788559609425825 19.63252537946973
    vertex 114.8633650248751 -4.7585525861151465 19.63252537946973
    vertex 114.5792420226747 -4.7788559609425825 20.882525379469737
  endloop
endfacet
facet normal 0.9819170959135856 -0.18931142795042935 0.0
  outer loop
    vertex 115.67948483099192 -4.034288467716857 20.882525379469737
    vertex 115.67948483099192 -4.034288467716857 19.63252537946973
    vertex 115.73340972100642 -3.754591821963531 20.882525379469737
  endloop
endfacet
facet normal 0.9819170959135856 -0.18931142795042935 0.0
  outer loop
    vertex 115.73340972100642 -3.754591821963531 19.63252537946973
    vertex 115.73340972100642 -3.754591821963531 20.882525379469737
    vertex 115.67948483099192 -4.034288467716857 19.63252537946973
  endloop
endfacet
facet normal 0.9450208634466276 0.32701004212499474 0.0
  outer loop
    vertex 115.71310634617899 -3.470468819763153 20.882525379469737
    vertex 115.71310634617899 -3.470468819763153 19.63252537946973
    vertex 115.61995834795118 -3.2012819741802154 20.882525379469737
  endloop
endfacet
facet normal 0.9450208634466276 0.32701004212499474 0.0
  outer loop
    vertex 115.61995834795118 -3.2012819741802154 19.63252537946973
    vertex 115.61995834795118 -3.2012819741802154 20.882525379469737
    vertex 115.71310634617899 -3.470468819763153 19.63252537946973
  endloop
endfacet
facet normal -0.9819170959135856 0.18931142795042935 0.0
  outer loop
    vertex 113.55497788369566 -3.6246882626108534 19.63252537946973
    vertex 113.55497788369566 -3.6246882626108534 20.882525379469737
    vertex 113.60890277371017 -3.3449916168575275 19.63252537946973
  endloop
endfacet
facet normal -0.9819170959135856 0.18931142795042935 0.0
  outer loop
    vertex 113.60890277371017 -3.3449916168575275 20.882525379469737
    vertex 113.60890277371017 -3.3449916168575275 19.63252537946973
    vertex 113.55497788369566 -3.6246882626108534 20.882525379469737
  endloop
endfacet
facet normal -0.9450208634466264 -0.3270100421249978 0.0
  outer loop
    vertex 113.6684292567509 -4.177998110394169 19.63252537946973
    vertex 113.6684292567509 -4.177998110394169 20.882525379469737
    vertex 113.57528125852309 -3.9088112648112348 19.63252537946973
  endloop
endfacet
facet normal -0.9450208634466264 -0.3270100421249978 0.0
  outer loop
    vertex 113.57528125852309 -3.9088112648112348 20.882525379469737
    vertex 113.57528125852309 -3.9088112648112348 19.63252537946973
    vertex 113.6684292567509 -4.177998110394169 20.882525379469737
  endloop
endfacet
facet normal 0.6549070537885823 0.7557094354961829 0.0
  outer loop
    vertex 115.24505165289945 -2.7788272763633888 20.882525379469737
    vertex 115.46031360846787 -2.965375923888904 20.882525379469737
    vertex 115.24505165289945 -2.7788272763633888 19.63252537946973
  endloop
endfacet
facet normal 0.6549070537885823 0.7557094354961829 0.0
  outer loop
    vertex 115.46031360846787 -2.965375923888904 19.63252537946973
    vertex 115.24505165289945 -2.7788272763633888 19.63252537946973
    vertex 115.46031360846787 -2.965375923888904 20.882525379469737
  endloop
endfacet
facet normal -0.9974564852268192 -0.07127804766518456 0.0
  outer loop
    vertex 113.57528125852309 -3.9088112648112348 19.63252537946973
    vertex 113.57528125852309 -3.9088112648112348 20.882525379469737
    vertex 113.55497788369566 -3.6246882626108534 19.63252537946973
  endloop
endfacet
facet normal -0.9974564852268192 -0.07127804766518456 0.0
  outer loop
    vertex 113.55497788369566 -3.6246882626108534 20.882525379469737
    vertex 113.55497788369566 -3.6246882626108534 19.63252537946973
    vertex 113.57528125852309 -3.9088112648112348 20.882525379469737
  endloop
endfacet
facet normal -0.8281836315433562 -0.560456842623639 0.0
  outer loop
    vertex 113.82807399623421 -4.4139041606854805 19.63252537946973
    vertex 113.82807399623421 -4.4139041606854805 20.882525379469737
    vertex 113.6684292567509 -4.177998110394169 19.63252537946973
  endloop
endfacet
facet normal -0.8281836315433562 -0.560456842623639 0.0
  outer loop
    vertex 113.6684292567509 -4.177998110394169 20.882525379469737
    vertex 113.6684292567509 -4.177998110394169 19.63252537946973
    vertex 113.82807399623421 -4.4139041606854805 20.882525379469737
  endloop
endfacet
facet normal -0.4369996426032003 -0.8994616792085561 0.0
  outer loop
    vertex 114.29954537692137 -4.7249310709280685 20.882525379469737
    vertex 114.04333595180263 -4.600452808210996 20.882525379469737
    vertex 114.29954537692137 -4.7249310709280685 19.63252537946973
  endloop
endfacet
facet normal -0.4369996426032003 -0.8994616792085561 0.0
  outer loop
    vertex 114.04333595180263 -4.600452808210996 19.63252537946973
    vertex 114.29954537692137 -4.7249310709280685 19.63252537946973
    vertex 114.04333595180263 -4.600452808210996 20.882525379469737
  endloop
endfacet
facet normal 0.7557094354961853 -0.6549070537885794 0.0
  outer loop
    vertex 115.36845792074932 -4.505759848404027 20.882525379469737
    vertex 115.36845792074932 -4.505759848404027 19.63252537946973
    vertex 115.55500656827485 -4.290497892835606 20.882525379469737
  endloop
endfacet
facet normal 0.7557094354961853 -0.6549070537885794 0.0
  outer loop
    vertex 115.55500656827485 -4.290497892835606 19.63252537946973
    vertex 115.55500656827485 -4.290497892835606 20.882525379469737
    vertex 115.36845792074932 -4.505759848404027 19.63252537946973
  endloop
endfacet
facet normal -0.18931142795044456 -0.9819170959135826 0.0
  outer loop
    vertex 114.5792420226747 -4.7788559609425825 20.882525379469737
    vertex 114.29954537692137 -4.7249310709280685 20.882525379469737
    vertex 114.5792420226747 -4.7788559609425825 19.63252537946973
  endloop
endfacet
facet normal -0.18931142795044456 -0.9819170959135826 0.0
  outer loop
    vertex 114.29954537692137 -4.7249310709280685 19.63252537946973
    vertex 114.5792420226747 -4.7788559609425825 19.63252537946973
    vertex 114.29954537692137 -4.7249310709280685 20.882525379469737
  endloop
endfacet
facet normal 0.8994616792085549 -0.43699964260320245 0.0
  outer loop
    vertex 115.55500656827485 -4.290497892835606 20.882525379469737
    vertex 115.55500656827485 -4.290497892835606 19.63252537946973
    vertex 115.67948483099192 -4.034288467716857 20.882525379469737
  endloop
endfacet
facet normal 0.8994616792085549 -0.43699964260320245 0.0
  outer loop
    vertex 115.67948483099192 -4.034288467716857 19.63252537946973
    vertex 115.67948483099192 -4.034288467716857 20.882525379469737
    vertex 115.55500656827485 -4.290497892835606 19.63252537946973
  endloop
endfacet
facet normal -0.5604568426236335 0.8281836315433602 0.0
  outer loop
    vertex 113.91992968395276 -2.873520236170357 20.882525379469737
    vertex 114.15583573424406 -2.71387549668705 20.882525379469737
    vertex 113.91992968395276 -2.873520236170357 19.63252537946973
  endloop
endfacet
facet normal -0.5604568426236335 0.8281836315433602 0.0
  outer loop
    vertex 114.15583573424406 -2.71387549668705 19.63252537946973
    vertex 113.91992968395276 -2.873520236170357 19.63252537946973
    vertex 114.15583573424406 -2.71387549668705 20.882525379469737
  endloop
endfacet
facet normal -0.7557094354961853 0.6549070537885794 0.0
  outer loop
    vertex 113.73338103642723 -3.0887821917387783 19.63252537946973
    vertex 113.73338103642723 -3.0887821917387783 20.882525379469737
    vertex 113.91992968395276 -2.873520236170357 19.63252537946973
  endloop
endfacet
facet normal -0.7557094354961853 0.6549070537885794 0.0
  outer loop
    vertex 113.91992968395276 -2.873520236170357 20.882525379469737
    vertex 113.91992968395276 -2.873520236170357 19.63252537946973
    vertex 113.73338103642723 -3.0887821917387783 20.882525379469737
  endloop
endfacet
facet normal 0.8281836315433562 0.560456842623639 0.0
  outer loop
    vertex 115.61995834795118 -3.2012819741802154 20.882525379469737
    vertex 115.61995834795118 -3.2012819741802154 19.63252537946973
    vertex 115.46031360846787 -2.965375923888904 20.882525379469737
  endloop
endfacet
facet normal 0.8281836315433562 0.560456842623639 0.0
  outer loop
    vertex 115.46031360846787 -2.965375923888904 19.63252537946973
    vertex 115.46031360846787 -2.965375923888904 20.882525379469737
    vertex 115.61995834795118 -3.2012819741802154 19.63252537946973
  endloop
endfacet
facet normal -0.38268343236510965 0.9238795325112786 -1.4669066910229178e-14
  outer loop
    vertex 114.94419380235104 -4.209255284557855 20.882525379469755
    vertex 114.94419380235104 -4.209255284557872 19.13252537946977
    vertex 114.79948522941257 -4.269195538060633 20.88252537946975
  endloop
endfacet
facet normal -0.38268343236510965 0.9238795325112786 -1.4669066910229178e-14
  outer loop
    vertex 114.79948522941257 -4.26919553806065 19.13252537946977
    vertex 114.79948522941257 -4.269195538060633 20.88252537946975
    vertex 114.94419380235104 -4.209255284557872 19.13252537946977
  endloop
endfacet
facet normal -0.13052619222004694 0.991444861373811 -1.1498303145747845e-14
  outer loop
    vertex 114.79948522941257 -4.269195538060633 20.88252537946975
    vertex 114.79948522941257 -4.26919553806065 19.13252537946977
    vertex 114.64419380235104 -4.289640042287193 20.88252537946975
  endloop
endfacet
facet normal -0.13052619222004694 0.991444861373811 -1.1498303145747845e-14
  outer loop
    vertex 114.64419380235104 -4.28964004228721 19.132525379469765
    vertex 114.64419380235104 -4.289640042287193 20.88252537946975
    vertex 114.79948522941257 -4.26919553806065 19.13252537946977
  endloop
endfacet
facet normal 0.13052619222004694 0.991444861373811 -7.543949023728607e-15
  outer loop
    vertex 114.64419380235104 -4.289640042287193 20.88252537946975
    vertex 114.64419380235104 -4.28964004228721 19.132525379469765
    vertex 114.48890237528953 -4.269195538060633 20.882525379469747
  endloop
endfacet
facet normal 0.13052619222004694 0.991444861373811 -7.543949023728607e-15
  outer loop
    vertex 114.48890237528953 -4.26919553806065 19.13252537946976
    vertex 114.48890237528953 -4.269195538060633 20.882525379469747
    vertex 114.64419380235104 -4.28964004228721 19.132525379469765
  endloop
endfacet
facet normal 0.3826834323651059 0.9238795325112803 -3.0754872427069674e-15
  outer loop
    vertex 114.48890237528953 -4.269195538060633 20.882525379469747
    vertex 114.48890237528953 -4.26919553806065 19.13252537946976
    vertex 114.34419380235104 -4.209255284557856 20.882525379469744
  endloop
endfacet
facet normal 0.3826834323651059 0.9238795325112803 -3.0754872427069674e-15
  outer loop
    vertex 114.34419380235104 -4.209255284557873 19.132525379469758
    vertex 114.34419380235104 -4.209255284557856 20.882525379469744
    vertex 114.48890237528953 -4.26919553806065 19.13252537946976
  endloop
endfacet
facet normal 0.608761429008744 0.7933533402912174 1.602563911422034e-15
  outer loop
    vertex 114.34419380235104 -4.209255284557856 20.882525379469744
    vertex 114.34419380235104 -4.209255284557873 19.132525379469758
    vertex 114.21992973363912 -4.113904110999122 20.88252537946974
  endloop
endfacet
facet normal 0.608761429008744 0.7933533402912174 1.602563911422034e-15
  outer loop
    vertex 114.21992973363912 -4.1139041109991386 19.132525379469755
    vertex 114.21992973363912 -4.113904110999122 20.88252537946974
    vertex 114.34419380235104 -4.209255284557873 19.132525379469758
  endloop
endfacet
facet normal 0.7933533402911792 0.6087614290087937 6.1714029833474495e-15
  outer loop
    vertex 114.21992973363912 -4.1139041109991386 19.132525379469755
    vertex 114.12457856008037 -3.9896400422872094 19.132525379469755
    vertex 114.21992973363912 -4.113904110999122 20.88252537946974
  endloop
endfacet
facet normal 0.7933533402911792 0.6087614290087937 6.1714029833474495e-15
  outer loop
    vertex 114.12457856008037 -3.9896400422871925 20.882525379469737
    vertex 114.21992973363912 -4.113904110999122 20.88252537946974
    vertex 114.12457856008037 -3.9896400422872094 19.132525379469755
  endloop
endfacet
facet normal 0.9238795325113109 0.3826834323650313 1.0319671140687823e-14
  outer loop
    vertex 114.12457856008037 -3.9896400422872094 19.132525379469755
    vertex 114.0646383065776 -3.844931469348721 19.132525379469755
    vertex 114.12457856008037 -3.9896400422871925 20.882525379469737
  endloop
endfacet
facet normal 0.9238795325113109 0.3826834323650313 1.0319671140687823e-14
  outer loop
    vertex 114.0646383065776 -3.8449314693487042 20.882525379469737
    vertex 114.12457856008037 -3.9896400422871925 20.882525379469737
    vertex 114.0646383065776 -3.844931469348721 19.132525379469755
  endloop
endfacet
facet normal 0.9914448613738113 0.13052619222004505 1.3764670763849961e-14
  outer loop
    vertex 114.0646383065776 -3.844931469348721 19.132525379469755
    vertex 114.04419380235105 -3.689640042287209 19.13252537946975
    vertex 114.0646383065776 -3.8449314693487042 20.882525379469737
  endloop
endfacet
facet normal 0.9914448613738113 0.13052619222004505 1.3764670763849961e-14
  outer loop
    vertex 114.04419380235105 -3.6896400422871922 20.882525379469737
    vertex 114.0646383065776 -3.8449314693487042 20.882525379469737
    vertex 114.04419380235105 -3.689640042287209 19.13252537946975
  endloop
endfacet
facet normal 0.9914448613738107 -0.1305261922200493 2.3071558717985356e-15
  outer loop
    vertex 114.04419380235105 -3.689640042287209 19.13252537946975
    vertex 114.05866160434756 -3.5797461757701066 19.132525379469744
    vertex 114.04419380235105 -3.6896400422871922 20.882525379469737
  endloop
endfacet
facet normal 0.9914448613738107 -0.1305261922200493 2.3071558717985356e-15
  outer loop
    vertex 114.0646383065776 -3.53434861522568 20.882525379469733
    vertex 114.04419380235105 -3.6896400422871922 20.882525379469737
    vertex 114.05866160434756 -3.5797461757701066 19.132525379469744
  endloop
endfacet
facet normal 0.9914448613738107 -0.1305261922200493 2.3071558717985356e-15
  outer loop
    vertex 114.0646383065776 -3.5343486152256967 19.132525379469747
    vertex 114.0646383065776 -3.53434861522568 20.882525379469733
    vertex 114.05866160434756 -3.5797461757701066 19.132525379469744
  endloop
endfacet
facet normal 0.9238795325113103 -0.3826834323650329 1.7669706129096722e-14
  outer loop
    vertex 114.0646383065776 -3.5343486152256967 19.132525379469747
    vertex 114.12457856008037 -3.389640042287209 19.132525379469747
    vertex 114.0646383065776 -3.53434861522568 20.882525379469733
  endloop
endfacet
facet normal 0.9238795325113103 -0.3826834323650329 1.7669706129096722e-14
  outer loop
    vertex 114.12457856008037 -3.389640042287192 20.882525379469733
    vertex 114.0646383065776 -3.53434861522568 20.882525379469733
    vertex 114.12457856008037 -3.389640042287209 19.132525379469747
  endloop
endfacet
facet normal 0.7933533402911792 -0.6087614290087937 1.786362016441528e-14
  outer loop
    vertex 114.12457856008037 -3.389640042287209 19.132525379469747
    vertex 114.21992973363912 -3.26537597357528 19.13252537946975
    vertex 114.12457856008037 -3.389640042287192 20.882525379469733
  endloop
endfacet
facet normal 0.7933533402911792 -0.6087614290087937 1.786362016441528e-14
  outer loop
    vertex 114.21992973363912 -3.265375973575263 20.882525379469737
    vertex 114.12457856008037 -3.389640042287192 20.882525379469733
    vertex 114.21992973363912 -3.26537597357528 19.13252537946975
  endloop
endfacet
facet normal 0.6087614290087425 -0.7933533402912184 1.6840158006557328e-14
  outer loop
    vertex 114.21992973363912 -3.265375973575263 20.882525379469737
    vertex 114.21992973363912 -3.26537597357528 19.13252537946975
    vertex 114.34419380235104 -3.1700248000165288 20.882525379469733
  endloop
endfacet
facet normal 0.6087614290087425 -0.7933533402912184 1.6840158006557328e-14
  outer loop
    vertex 114.34419380235104 -3.170024800016545 19.132525379469747
    vertex 114.34419380235104 -3.1700248000165288 20.882525379469733
    vertex 114.21992973363912 -3.26537597357528 19.13252537946975
  endloop
endfacet
facet normal 0.38268343236510965 -0.9238795325112786 1.4669066910229178e-14
  outer loop
    vertex 114.48890237528953 -3.1100845465137508 20.882525379469737
    vertex 114.34419380235104 -3.1700248000165288 20.882525379469733
    vertex 114.48890237528953 -3.110084546513767 19.13252537946975
  endloop
endfacet
facet normal 0.38268343236510965 -0.9238795325112786 1.4669066910229178e-14
  outer loop
    vertex 114.34419380235104 -3.170024800016545 19.132525379469747
    vertex 114.48890237528953 -3.110084546513767 19.13252537946975
    vertex 114.34419380235104 -3.1700248000165288 20.882525379469733
  endloop
endfacet
facet normal 0.13052619222004472 -0.9914448613738114 1.1498303145747815e-14
  outer loop
    vertex 114.64419380235104 -3.089640042287192 20.882525379469737
    vertex 114.48890237528953 -3.1100845465137508 20.882525379469737
    vertex 114.64419380235104 -3.089640042287208 19.132525379469755
  endloop
endfacet
facet normal 0.13052619222004472 -0.9914448613738114 1.1498303145747815e-14
  outer loop
    vertex 114.48890237528953 -3.110084546513767 19.13252537946975
    vertex 114.64419380235104 -3.089640042287208 19.132525379469755
    vertex 114.48890237528953 -3.1100845465137508 20.882525379469737
  endloop
endfacet
facet normal -0.13052619222004694 -0.991444861373811 7.543949023728607e-15
  outer loop
    vertex 114.79948522941257 -3.110084546513751 20.88252537946974
    vertex 114.64419380235104 -3.089640042287192 20.882525379469737
    vertex 114.79948522941257 -3.1100845465137676 19.132525379469755
  endloop
endfacet
facet normal -0.13052619222004694 -0.991444861373811 7.543949023728607e-15
  outer loop
    vertex 114.64419380235104 -3.089640042287208 19.132525379469755
    vertex 114.79948522941257 -3.1100845465137676 19.132525379469755
    vertex 114.64419380235104 -3.089640042287192 20.882525379469737
  endloop
endfacet
facet normal -0.38268343236510965 -0.9238795325112786 3.075487242706893e-15
  outer loop
    vertex 114.94419380235104 -3.170024800016529 20.882525379469744
    vertex 114.79948522941257 -3.110084546513751 20.88252537946974
    vertex 114.94419380235104 -3.170024800016545 19.132525379469758
  endloop
endfacet
facet normal -0.38268343236510965 -0.9238795325112786 3.075487242706893e-15
  outer loop
    vertex 114.79948522941257 -3.1100845465137676 19.132525379469755
    vertex 114.94419380235104 -3.170024800016545 19.132525379469758
    vertex 114.79948522941257 -3.110084546513751 20.88252537946974
  endloop
endfacet
facet normal -0.608761429008744 -0.7933533402912174 -1.602563911422034e-15
  outer loop
    vertex 115.06845787106296 -3.265375973575264 20.882525379469747
    vertex 114.94419380235104 -3.170024800016529 20.882525379469744
    vertex 115.06845787106296 -3.265375973575281 19.13252537946976
  endloop
endfacet
facet normal -0.608761429008744 -0.7933533402912174 -1.602563911422034e-15
  outer loop
    vertex 114.94419380235104 -3.170024800016545 19.132525379469758
    vertex 115.06845787106296 -3.265375973575281 19.13252537946976
    vertex 114.94419380235104 -3.170024800016529 20.882525379469744
  endloop
endfacet
facet normal -0.7933533402911792 -0.6087614290087937 -6.1714029833474495e-15
  outer loop
    vertex 115.16380904462171 -3.3896400422872097 19.132525379469765
    vertex 115.16380904462171 -3.389640042287193 20.88252537946975
    vertex 115.06845787106296 -3.265375973575281 19.13252537946976
  endloop
endfacet
facet normal -0.7933533402911792 -0.6087614290087937 -6.1714029833474495e-15
  outer loop
    vertex 115.06845787106296 -3.265375973575264 20.882525379469747
    vertex 115.06845787106296 -3.265375973575281 19.13252537946976
    vertex 115.16380904462171 -3.389640042287193 20.88252537946975
  endloop
endfacet
facet normal -0.9238795325113103 -0.3826834323650329 -1.0319671140687798e-14
  outer loop
    vertex 115.22374929812449 -3.534348615225697 19.132525379469765
    vertex 115.22374929812449 -3.5343486152256802 20.88252537946975
    vertex 115.16380904462171 -3.3896400422872097 19.132525379469765
  endloop
endfacet
facet normal -0.9238795325113103 -0.3826834323650329 -1.0319671140687798e-14
  outer loop
    vertex 115.16380904462171 -3.389640042287193 20.88252537946975
    vertex 115.16380904462171 -3.3896400422872097 19.132525379469765
    vertex 115.22374929812449 -3.5343486152256802 20.88252537946975
  endloop
endfacet
facet normal -0.9914448613738107 -0.13052619222004985 2.2949876984293577e-15
  outer loop
    vertex 115.24419380235103 -3.689640042287209 19.13252537946977
    vertex 115.24419380235103 -3.6896400422871922 20.88252537946975
    vertex 115.22972600035452 -3.5797461757701066 19.132525379469755
  endloop
endfacet
facet normal -0.9914448613738107 -0.13052619222004985 2.2949876984293577e-15
  outer loop
    vertex 115.22374929812449 -3.5343486152256802 20.88252537946975
    vertex 115.22972600035452 -3.5797461757701066 19.132525379469755
    vertex 115.24419380235103 -3.6896400422871922 20.88252537946975
  endloop
endfacet
facet normal -0.9914448613738107 -0.13052619222004985 2.2949876984293577e-15
  outer loop
    vertex 115.22374929812449 -3.534348615225697 19.132525379469765
    vertex 115.22972600035452 -3.5797461757701066 19.132525379469755
    vertex 115.22374929812449 -3.5343486152256802 20.88252537946975
  endloop
endfacet
facet normal -0.9914448613738114 0.1305261922200445 -1.6271630821650413e-14
  outer loop
    vertex 115.22374929812449 -3.844931469348722 19.13252537946977
    vertex 115.22374929812449 -3.844931469348705 20.882525379469755
    vertex 115.24419380235103 -3.689640042287209 19.13252537946977
  endloop
endfacet
facet normal -0.9914448613738114 0.1305261922200445 -1.6271630821650413e-14
  outer loop
    vertex 115.24419380235103 -3.6896400422871922 20.88252537946975
    vertex 115.24419380235103 -3.689640042287209 19.13252537946977
    vertex 115.22374929812449 -3.844931469348705 20.882525379469755
  endloop
endfacet
facet normal -0.9238795325113103 0.3826834323650329 -1.7669706129096722e-14
  outer loop
    vertex 115.16380904462171 -3.9896400422872094 19.13252537946977
    vertex 115.16380904462171 -3.9896400422871925 20.882525379469755
    vertex 115.22374929812449 -3.844931469348722 19.13252537946977
  endloop
endfacet
facet normal -0.9238795325113103 0.3826834323650329 -1.7669706129096722e-14
  outer loop
    vertex 115.22374929812449 -3.844931469348705 20.882525379469755
    vertex 115.22374929812449 -3.844931469348722 19.13252537946977
    vertex 115.16380904462171 -3.9896400422871925 20.882525379469755
  endloop
endfacet
facet normal -0.7933533402911774 0.6087614290087958 -1.7863620164415277e-14
  outer loop
    vertex 115.06845787106296 -4.113904110999138 19.13252537946977
    vertex 115.06845787106296 -4.113904110999121 20.88252537946975
    vertex 115.16380904462171 -3.9896400422872094 19.13252537946977
  endloop
endfacet
facet normal -0.7933533402911774 0.6087614290087958 -1.7863620164415277e-14
  outer loop
    vertex 115.16380904462171 -3.9896400422871925 20.882525379469755
    vertex 115.16380904462171 -3.9896400422872094 19.13252537946977
    vertex 115.06845787106296 -4.113904110999121 20.88252537946975
  endloop
endfacet
facet normal -0.608761429008744 0.7933533402912174 -1.6840158006557344e-14
  outer loop
    vertex 114.94419380235104 -4.209255284557855 20.882525379469755
    vertex 115.06845787106296 -4.113904110999121 20.88252537946975
    vertex 114.94419380235104 -4.209255284557872 19.13252537946977
  endloop
endfacet
facet normal -0.608761429008744 0.7933533402912174 -1.6840158006557344e-14
  outer loop
    vertex 115.06845787106296 -4.113904110999138 19.13252537946977
    vertex 114.94419380235104 -4.209255284557872 19.13252537946977
    vertex 115.06845787106296 -4.113904110999121 20.88252537946975
  endloop
endfacet
facet normal 1.0220742438202081e-15 -1.0059339484576612e-15 -1.0
  outer loop
    vertex 112.80131668074675 -3.5797461757701066 19.13252537946974
    vertex 112.84693525112876 -3.343132598691386 19.13252537946974
    vertex 112.83566857032162 -4.060462415322483 19.13252537946974
  endloop
endfacet
facet normal 1.0220742438202081e-15 -1.0059339484576612e-15 -1.0
  outer loop
    vertex 112.99326846573003 -4.515907722965451 19.13252537946974
    vertex 112.83566857032162 -4.060462415322483 19.13252537946974
    vertex 112.84693525112876 -3.343132598691386 19.13252537946974
  endloop
endfacet
facet normal 1.0220742438202081e-15 -1.0059339484576612e-15 -1.0
  outer loop
    vertex 112.89255382151076 -3.106519021612665 19.13252537946974
    vertex 112.99326846573003 -4.515907722965451 19.13252537946974
    vertex 112.84693525112876 -3.343132598691386 19.13252537946974
  endloop
endfacet
facet normal 1.0220742438202081e-15 -1.0059339484576612e-15 -1.0
  outer loop
    vertex 113.10316233224711 -2.6730306013611447 19.13252537946974
    vertex 112.99326846573003 -4.515907722965451 19.13252537946974
    vertex 112.89255382151076 -3.106519021612665 19.13252537946974
  endloop
endfacet
facet normal 1.0220742438202081e-15 -1.0059339484576612e-15 -1.0
  outer loop
    vertex 113.26337619454604 -4.915044253642103 19.13252537946974
    vertex 112.99326846573003 -4.515907722965451 19.13252537946974
    vertex 113.10316233224711 -2.6730306013611447 19.13252537946974
  endloop
endfacet
facet normal 1.0220742438202081e-15 -1.0059339484576612e-15 -1.0
  outer loop
    vertex 113.41878959099616 -2.3088224344821975 19.13252537946974
    vertex 113.26337619454604 -4.915044253642103 19.13252537946974
    vertex 113.10316233224711 -2.6730306013611447 19.13252537946974
  endloop
endfacet
facet normal 1.0220742438202081e-15 -1.0059339484576612e-15 -1.0
  outer loop
    vertex 113.627584361425 -5.230671512391124 19.13252537946974
    vertex 113.26337619454604 -4.915044253642103 19.13252537946974
    vertex 113.41878959099616 -2.3088224344821975 19.13252537946974
  endloop
endfacet
facet normal 1.0220742438202081e-15 -1.0059339484576612e-15 -1.0
  outer loop
    vertex 113.81792612167278 -2.0387147056661745 19.13252537946974
    vertex 113.627584361425 -5.230671512391124 19.13252537946974
    vertex 113.41878959099616 -2.3088224344821975 19.13252537946974
  endloop
endfacet
facet normal 1.0220742438202081e-15 -1.0059339484576612e-15 -1.0
  outer loop
    vertex 114.06107278167653 -5.441280023127476 19.13252537946974
    vertex 113.627584361425 -5.230671512391124 19.13252537946974
    vertex 113.81792612167278 -2.0387147056661745 19.13252537946974
  endloop
endfacet
facet normal 1.0220742438202081e-15 -1.0059339484576612e-15 -1.0
  outer loop
    vertex 114.04419380235105 -3.689640042287209 19.13252537946975
    vertex 114.06107278167653 -5.441280023127476 19.13252537946974
    vertex 113.81792612167278 -2.0387147056661745 19.13252537946974
  endloop
endfacet
facet normal 1.0220742438202081e-15 -1.0059339484576612e-15 -1.0
  outer loop
    vertex 114.0646383065776 -3.844931469348721 19.132525379469755
    vertex 114.06107278167653 -5.441280023127476 19.13252537946974
    vertex 114.04419380235105 -3.689640042287209 19.13252537946975
  endloop
endfacet
facet normal 1.0220742438202081e-15 -1.0059339484576612e-15 -1.0
  outer loop
    vertex 114.53429993583394 -5.532517163891499 19.13252537946974
    vertex 114.06107278167653 -5.441280023127476 19.13252537946974
    vertex 114.0646383065776 -3.844931469348721 19.132525379469755
  endloop
endfacet
facet normal 1.0220742438202081e-15 -1.0059339484576612e-15 -1.0
  outer loop
    vertex 114.12457856008037 -3.9896400422872094 19.132525379469755
    vertex 114.53429993583394 -5.532517163891499 19.13252537946974
    vertex 114.0646383065776 -3.844931469348721 19.132525379469755
  endloop
endfacet
facet normal 1.0220742438202081e-15 -1.0059339484576612e-15 -1.0
  outer loop
    vertex 114.21992973363912 -4.1139041109991386 19.132525379469755
    vertex 114.53429993583394 -5.532517163891499 19.13252537946974
    vertex 114.12457856008037 -3.9896400422872094 19.132525379469755
  endloop
endfacet
facet normal 1.0220742438202081e-15 -1.0059339484576612e-15 -1.0
  outer loop
    vertex 114.34419380235104 -4.209255284557873 19.132525379469758
    vertex 114.53429993583394 -5.532517163891499 19.13252537946974
    vertex 114.21992973363912 -4.1139041109991386 19.132525379469755
  endloop
endfacet
facet normal 1.0220742438202081e-15 -1.0059339484576612e-15 -1.0
  outer loop
    vertex 114.48890237528953 -4.26919553806065 19.13252537946976
    vertex 114.53429993583394 -5.532517163891499 19.13252537946974
    vertex 114.34419380235104 -4.209255284557873 19.132525379469758
  endloop
endfacet
facet normal 1.0220742438202081e-15 -1.0059339484576612e-15 -1.0
  outer loop
    vertex 114.64419380235104 -4.28964004228721 19.132525379469765
    vertex 114.53429993583394 -5.532517163891499 19.13252537946974
    vertex 114.48890237528953 -4.26919553806065 19.13252537946976
  endloop
endfacet
facet normal 1.0220742438202081e-15 -1.0059339484576612e-15 -1.0
  outer loop
    vertex 115.01501617538635 -5.49816527431663 19.13252537946974
    vertex 114.53429993583394 -5.532517163891499 19.13252537946974
    vertex 114.64419380235104 -4.28964004228721 19.132525379469765
  endloop
endfacet
facet normal 1.0220742438202081e-15 -1.0059339484576612e-15 -1.0
  outer loop
    vertex 114.79948522941257 -4.26919553806065 19.13252537946977
    vertex 115.01501617538635 -5.49816527431663 19.13252537946974
    vertex 114.64419380235104 -4.28964004228721 19.132525379469765
  endloop
endfacet
facet normal 1.0220742438202081e-15 -1.0059339484576612e-15 -1.0
  outer loop
    vertex 114.94419380235104 -4.209255284557872 19.13252537946977
    vertex 115.01501617538635 -5.49816527431663 19.13252537946974
    vertex 114.79948522941257 -4.26919553806065 19.13252537946977
  endloop
endfacet
facet normal 1.0220742438202081e-15 -1.0059339484576612e-15 -1.0
  outer loop
    vertex 115.06845787106296 -4.113904110999138 19.13252537946977
    vertex 115.01501617538635 -5.49816527431663 19.13252537946974
    vertex 114.94419380235104 -4.209255284557872 19.13252537946977
  endloop
endfacet
facet normal 1.0220742438202081e-15 -1.0059339484576612e-15 -1.0
  outer loop
    vertex 115.47046148302931 -5.34056537890821 19.13252537946974
    vertex 115.01501617538635 -5.49816527431663 19.13252537946974
    vertex 115.06845787106296 -4.113904110999138 19.13252537946977
  endloop
endfacet
facet normal 1.0220742438202081e-15 -1.0059339484576612e-15 -1.0
  outer loop
    vertex 115.16380904462171 -3.9896400422872094 19.13252537946977
    vertex 115.47046148302931 -5.34056537890821 19.13252537946974
    vertex 115.06845787106296 -4.113904110999138 19.13252537946977
  endloop
endfacet
facet normal 1.0220742438202081e-15 -1.0059339484576612e-15 -1.0
  outer loop
    vertex 115.22374929812449 -3.844931469348722 19.13252537946977
    vertex 115.47046148302931 -5.34056537890821 19.13252537946974
    vertex 115.16380904462171 -3.9896400422872094 19.13252537946977
  endloop
endfacet
facet normal 1.0220742438202081e-15 -1.0059339484576612e-15 -1.0
  outer loop
    vertex 115.24419380235103 -3.689640042287209 19.13252537946977
    vertex 115.47046148302931 -5.34056537890821 19.13252537946974
    vertex 115.22374929812449 -3.844931469348722 19.13252537946977
  endloop
endfacet
facet normal 1.0220742438202081e-15 -1.0059339484576612e-15 -1.0
  outer loop
    vertex 113.81792612167278 -2.0387147056661745 19.13252537946974
    vertex 114.27337142931576 -1.8811148102577546 19.13252537946974
    vertex 114.04419380235105 -3.689640042287209 19.13252537946975
  endloop
endfacet
facet normal 1.0220742438202081e-15 -1.0059339484576612e-15 -1.0
  outer loop
    vertex 114.05866160434756 -3.5797461757701066 19.132525379469744
    vertex 114.04419380235105 -3.689640042287209 19.13252537946975
    vertex 114.27337142931576 -1.8811148102577546 19.13252537946974
  endloop
endfacet
facet normal 1.0220742438202081e-15 -1.0059339484576612e-15 -1.0
  outer loop
    vertex 114.0646383065776 -3.5343486152256967 19.132525379469747
    vertex 114.05866160434756 -3.5797461757701066 19.132525379469744
    vertex 114.27337142931576 -1.8811148102577546 19.13252537946974
  endloop
endfacet
facet normal 1.0220742438202081e-15 -1.0059339484576612e-15 -1.0
  outer loop
    vertex 114.12457856008037 -3.389640042287209 19.132525379469747
    vertex 114.0646383065776 -3.5343486152256967 19.132525379469747
    vertex 114.27337142931576 -1.8811148102577546 19.13252537946974
  endloop
endfacet
facet normal 1.0220742438202081e-15 -1.0059339484576612e-15 -1.0
  outer loop
    vertex 114.21992973363912 -3.26537597357528 19.13252537946975
    vertex 114.12457856008037 -3.389640042287209 19.132525379469747
    vertex 114.27337142931576 -1.8811148102577546 19.13252537946974
  endloop
endfacet
facet normal 1.0220742438202081e-15 -1.0059339484576612e-15 -1.0
  outer loop
    vertex 114.34419380235104 -3.170024800016545 19.132525379469747
    vertex 114.21992973363912 -3.26537597357528 19.13252537946975
    vertex 114.27337142931576 -1.8811148102577546 19.13252537946974
  endloop
endfacet
facet normal 1.0220742438202081e-15 -1.0059339484576612e-15 -1.0
  outer loop
    vertex 114.75408766886814 -1.8467629206828857 19.13252537946974
    vertex 114.34419380235104 -3.170024800016545 19.132525379469747
    vertex 114.27337142931576 -1.8811148102577546 19.13252537946974
  endloop
endfacet
facet normal 1.0220742438202081e-15 -1.0059339484576612e-15 -1.0
  outer loop
    vertex 114.48890237528953 -3.110084546513767 19.13252537946975
    vertex 114.34419380235104 -3.170024800016545 19.132525379469747
    vertex 114.75408766886814 -1.8467629206828857 19.13252537946974
  endloop
endfacet
facet normal 1.0220742438202081e-15 -1.0059339484576612e-15 -1.0
  outer loop
    vertex 114.64419380235104 -3.089640042287208 19.132525379469755
    vertex 114.48890237528953 -3.110084546513767 19.13252537946975
    vertex 114.75408766886814 -1.8467629206828857 19.13252537946974
  endloop
endfacet
facet normal 1.0220742438202081e-15 -1.0059339484576612e-15 -1.0
  outer loop
    vertex 114.79948522941257 -3.1100845465137676 19.132525379469755
    vertex 114.64419380235104 -3.089640042287208 19.132525379469755
    vertex 114.75408766886814 -1.8467629206828857 19.13252537946974
  endloop
endfacet
facet normal 1.0220742438202081e-15 -1.0059339484576612e-15 -1.0
  outer loop
    vertex 115.22731482302558 -1.938000061446909 19.13252537946974
    vertex 114.79948522941257 -3.1100845465137676 19.132525379469755
    vertex 114.75408766886814 -1.8467629206828857 19.13252537946974
  endloop
endfacet
facet normal 1.0220742438202081e-15 -1.0059339484576612e-15 -1.0
  outer loop
    vertex 114.94419380235104 -3.170024800016545 19.132525379469758
    vertex 114.79948522941257 -3.1100845465137676 19.132525379469755
    vertex 115.22731482302558 -1.938000061446909 19.13252537946974
  endloop
endfacet
facet normal 1.0220742438202081e-15 -1.0059339484576612e-15 -1.0
  outer loop
    vertex 115.06845787106296 -3.265375973575281 19.13252537946976
    vertex 114.94419380235104 -3.170024800016545 19.132525379469758
    vertex 115.22731482302558 -1.938000061446909 19.13252537946974
  endloop
endfacet
facet normal 1.0220742438202081e-15 -1.0059339484576612e-15 -1.0
  outer loop
    vertex 115.16380904462171 -3.3896400422872097 19.132525379469765
    vertex 115.06845787106296 -3.265375973575281 19.13252537946976
    vertex 115.22731482302558 -1.938000061446909 19.13252537946974
  endloop
endfacet
facet normal 1.0220742438202081e-15 -1.0059339484576612e-15 -1.0
  outer loop
    vertex 115.22374929812449 -3.534348615225697 19.132525379469765
    vertex 115.16380904462171 -3.3896400422872097 19.132525379469765
    vertex 115.22731482302558 -1.938000061446909 19.13252537946974
  endloop
endfacet
facet normal 1.0220742438202081e-15 -1.0059339484576612e-15 -1.0
  outer loop
    vertex 115.22972600035452 -3.5797461757701066 19.132525379469755
    vertex 115.22374929812449 -3.534348615225697 19.132525379469765
    vertex 115.22731482302558 -1.938000061446909 19.13252537946974
  endloop
endfacet
facet normal 1.0220742438202081e-15 -1.0059339484576612e-15 -1.0
  outer loop
    vertex 115.66080324327709 -2.148608572183263 19.13252537946974
    vertex 115.22972600035452 -3.5797461757701066 19.132525379469755
    vertex 115.22731482302558 -1.938000061446909 19.13252537946974
  endloop
endfacet
facet normal 1.0220742438202081e-15 -1.0059339484576612e-15 -1.0
  outer loop
    vertex 115.24419380235103 -3.689640042287209 19.13252537946977
    vertex 115.22972600035452 -3.5797461757701066 19.132525379469755
    vertex 115.66080324327709 -2.148608572183263 19.13252537946974
  endloop
endfacet
facet normal 1.0220742438202081e-15 -1.0059339484576612e-15 -1.0
  outer loop
    vertex 115.47046148302931 -5.34056537890821 19.13252537946974
    vertex 115.24419380235103 -3.689640042287209 19.13252537946977
    vertex 115.66080324327709 -2.148608572183263 19.13252537946974
  endloop
endfacet
facet normal 1.0220742438202081e-15 -1.0059339484576612e-15 -1.0
  outer loop
    vertex 115.86959801370595 -5.070457650092187 19.13252537946974
    vertex 115.47046148302931 -5.34056537890821 19.13252537946974
    vertex 115.66080324327709 -2.148608572183263 19.13252537946974
  endloop
endfacet
facet normal 1.0220742438202081e-15 -1.0059339484576612e-15 -1.0
  outer loop
    vertex 116.02501141015604 -2.4642358309322843 19.13252537946974
    vertex 115.86959801370595 -5.070457650092187 19.13252537946974
    vertex 115.66080324327709 -2.148608572183263 19.13252537946974
  endloop
endfacet
facet normal 1.0220742438202081e-15 -1.0059339484576612e-15 -1.0
  outer loop
    vertex 116.18522527245499 -4.70624948321324 19.13252537946974
    vertex 115.86959801370595 -5.070457650092187 19.13252537946974
    vertex 116.02501141015604 -2.4642358309322843 19.13252537946974
  endloop
endfacet
facet normal 1.0220742438202081e-15 -1.0059339484576612e-15 -1.0
  outer loop
    vertex 116.29511913897207 -2.863372361608933 19.13252537946974
    vertex 116.18522527245499 -4.70624948321324 19.13252537946974
    vertex 116.02501141015604 -2.4642358309322843 19.13252537946974
  endloop
endfacet
facet normal 1.0220742438202081e-15 -1.0059339484576612e-15 -1.0
  outer loop
    vertex 116.39583378319132 -4.272761062961722 19.13252537946974
    vertex 116.18522527245499 -4.70624948321324 19.13252537946974
    vertex 116.29511913897207 -2.863372361608933 19.13252537946974
  endloop
endfacet
facet normal 1.0220742438202081e-15 -1.0059339484576612e-15 -1.0
  outer loop
    vertex 116.4527190343805 -3.318817669251904 19.13252537946974
    vertex 116.39583378319132 -4.272761062961722 19.13252537946974
    vertex 116.29511913897207 -2.863372361608933 19.13252537946974
  endloop
endfacet
facet normal 1.0220742438202081e-15 -1.0059339484576612e-15 -1.0
  outer loop
    vertex 116.48707092395536 -3.7995339088042837 19.13252537946974
    vertex 116.39583378319132 -4.272761062961722 19.13252537946974
    vertex 116.4527190343805 -3.318817669251904 19.13252537946974
  endloop
endfacet
facet normal 1.0220742438202081e-15 -1.0059339484576612e-15 -1.0
  outer loop
    vertex 116.47136493502907 -3.5797461757701066 19.13252537946974
    vertex 116.48707092395536 -3.7995339088042837 19.13252537946974
    vertex 116.4527190343805 -3.318817669251904 19.13252537946974
  endloop
endfacet
endsolid FS_122016_2pt0mm_parts
