solid baseplate_surround_cover_v7_20180321
facet normal -0.8657116336979628 -1.4475810088528505e-15 -0.5005430723524242
  outer loop
    vertex 21.203719637017535 6.878424953735706 8.242068884232445
    vertex 22.943748270706358 14.646249135355482 5.232611524046174
    vertex 22.943741232741406 6.874689351561082 5.232623700575507
  endloop
endfacet
facet normal -0.8657116336979628 -1.4475810088528505e-15 -0.5005430723524242
  outer loop
    vertex 22.943748270706358 14.646249135355482 5.232611524046174
    vertex 21.203719637017535 6.878424953735706 8.242068884232445
    vertex 21.203726674982484 14.64998473753011 8.242056707703112
  endloop
endfacet
facet normal -0.865704550080785 -1.4011683758783655e-06 -0.5005553235831804
  outer loop
    vertex 8.378800548921905 5.355925111073508 0.8394360071224708
    vertex 10.655654282598615 16.167617542729968 -3.0981870607733133
    vertex 10.64478117011381 5.351388214353718 -3.079351859769816
  endloop
endfacet
facet normal -0.865704550080785 -1.4011683758783655e-06 -0.5005553235831804
  outer loop
    vertex 10.655654282598615 16.167617542729968 -3.0981870607733133
    vertex 8.378800548921905 5.355925111073508 0.8394360071224708
    vertex 8.389673990462702 16.172481773971153 0.8206002361041083
  endloop
endfacet
facet normal -0.5005544150795335 0.0011196475156801829 0.8657043513427818
  outer loop
    vertex 11.491933690591297 14.646248953479697 -1.3983074956769832
    vertex 22.943741232741406 6.874689351561082 5.232623700575507
    vertex 22.943748270706358 14.646249135355482 5.232611524046174
  endloop
endfacet
facet normal -0.5005544150795335 0.0011196475156801829 0.8657043513427818
  outer loop
    vertex 22.943741232741406 6.874689351561082 5.232623700575507
    vertex 11.491933690591297 14.646248953479697 -1.3983074956769832
    vertex 11.483589260745223 6.874689533437007 -1.3838547806356711
  endloop
endfacet
facet normal 0.8657116133791325 1.3176284276310942e-06 0.5005431074930141
  outer loop
    vertex 11.491933690591297 14.646248953479697 -1.3983074956769832
    vertex 9.74356766502135 6.878425135611631 1.6255904030212678
    vertex 11.483589260745223 6.874689533437007 -1.3838547806356711
  endloop
endfacet
facet normal 0.8657116133791325 1.3176284276310942e-06 0.5005431074930141
  outer loop
    vertex 9.74356766502135 6.878425135611631 1.6255904030212678
    vertex 11.491933690591297 14.646248953479697 -1.3983074956769832
    vertex 10.325244323358909 10.237852126980636 0.6194131490107604
  endloop
endfacet
facet normal 0.8657116133791325 1.3176284276310942e-06 0.5005431074930141
  outer loop
    vertex 10.325244323358909 10.237852126980636 0.6194131490107604
    vertex 11.491933690591297 14.646248953479697 -1.3983074956769832
    vertex 10.325808095655455 11.287104389064972 0.6184366855305251
  endloop
endfacet
facet normal 0.8657116133791325 1.3176284276310942e-06 0.5005431074930141
  outer loop
    vertex 10.325808095655455 11.287104389064972 0.6184366855305251
    vertex 11.491933690591297 14.646248953479697 -1.3983074956769832
    vertex 9.747739551516002 11.288458383480968 1.6183636858364623
  endloop
endfacet
facet normal 0.8657116133791325 1.3176284276310942e-06 0.5005431074930141
  outer loop
    vertex 9.747739551516002 11.288458383480968 1.6183636858364623
    vertex 11.491933690591297 14.646248953479697 -1.3983074956769832
    vertex 9.751912094867425 14.649984555654319 1.6111376879799544
  endloop
endfacet
facet normal 0.8657116133791325 1.3176284276310942e-06 0.5005431074930141
  outer loop
    vertex 9.747175779219452 10.239206121396634 1.6193401493166975
    vertex 9.74356766502135 6.878425135611631 1.6255904030212678
    vertex 10.325244323358909 10.237852126980636 0.6194131490107604
  endloop
endfacet
facet normal -0.5005427840603595 0.0010732766034905797 0.8657111350805399
  outer loop
    vertex 8.389673990462702 16.172481773971153 0.8206002361041083
    vertex 21.203726674982484 14.64998473753011 8.242056707703112
    vertex 22.47667362841071 16.17248461293019 8.977244032046878
  endloop
endfacet
facet normal -0.5005427840603595 0.0010732766034905797 0.8657111350805399
  outer loop
    vertex 21.203726674982484 14.64998473753011 8.242056707703112
    vertex 8.389673990462702 16.172481773971153 0.8206002361041083
    vertex 9.751912094867425 14.649984555654319 1.6111376879799544
  endloop
endfacet
facet normal -0.5005427840603595 0.0010732766034905797 0.8657111350805399
  outer loop
    vertex 9.751912094867425 14.649984555654319 1.6111376879799544
    vertex 8.389673990462702 16.172481773971153 0.8206002361041083
    vertex 9.747739551516002 11.288458383480968 1.6183636858364623
  endloop
endfacet
facet normal -0.5005427840603595 0.0010732766034905797 0.8657111350805399
  outer loop
    vertex 9.747739551516002 11.288458383480968 1.6183636858364623
    vertex 8.389673990462702 16.172481773971153 0.8206002361041083
    vertex 9.747175779219452 10.239206121396634 1.6193401493166975
  endloop
endfacet
facet normal -0.5005427840603595 0.0010732766034905797 0.8657111350805399
  outer loop
    vertex 9.747175779219452 10.239206121396634 1.6193401493166975
    vertex 8.389673990462702 16.172481773971153 0.8206002361041083
    vertex 8.378800548921905 5.355925111073508 0.8394360071224708
  endloop
endfacet
facet normal -0.5005427840603595 0.0010732766034905797 0.8657111350805399
  outer loop
    vertex 22.475952389050644 5.3559251028642745 8.978497641277187
    vertex 21.203719637017535 6.878424953735706 8.242068884232445
    vertex 8.378800548921905 5.355925111073508 0.8394360071224708
  endloop
endfacet
facet normal -0.5005427840603595 0.0010732766034905797 0.8657111350805399
  outer loop
    vertex 21.203719637017535 6.878424953735706 8.242068884232445
    vertex 22.475952389050644 5.3559251028642745 8.978497641277187
    vertex 22.47667362841071 16.17248461293019 8.977244032046878
  endloop
endfacet
facet normal -0.5005427840603595 0.0010732766034905797 0.8657111350805399
  outer loop
    vertex 21.203719637017535 6.878424953735706 8.242068884232445
    vertex 22.47667362841071 16.17248461293019 8.977244032046878
    vertex 21.203726674982484 14.64998473753011 8.242056707703112
  endloop
endfacet
facet normal -0.5005427840603595 0.0010732766034905797 0.8657111350805399
  outer loop
    vertex 8.378800548921905 5.355925111073508 0.8394360071224708
    vertex 21.203719637017535 6.878424953735706 8.242068884232445
    vertex 9.74356766502135 6.878425135611631 1.6255904030212678
  endloop
endfacet
facet normal -0.5005427840603595 0.0010732766034905797 0.8657111350805399
  outer loop
    vertex 8.378800548921905 5.355925111073508 0.8394360071224708
    vertex 9.74356766502135 6.878425135611631 1.6255904030212678
    vertex 9.747175779219452 10.239206121396634 1.6193401493166975
  endloop
endfacet
facet normal 0.0005373009353508756 0.999999422615243 -0.0009306325189946178
  outer loop
    vertex 21.203719637017535 6.878424953735706 8.242068884232445
    vertex 11.483589260745223 6.874689533437007 -1.3838547806356711
    vertex 9.74356766502135 6.878425135611631 1.6255904030212678
  endloop
endfacet
facet normal 0.0005373009353508756 0.999999422615243 -0.0009306325189946178
  outer loop
    vertex 11.483589260745223 6.874689533437007 -1.3838547806356711
    vertex 21.203719637017535 6.878424953735706 8.242068884232445
    vertex 22.943741232741406 6.874689351561082 5.232623700575507
  endloop
endfacet
facet normal -0.0005385770589942161 -0.999999422309032 0.000930223819065034
  outer loop
    vertex 9.751912094867425 14.649984555654319 1.6111376879799544
    vertex 22.943748270706358 14.646249135355482 5.232611524046174
    vertex 21.203726674982484 14.64998473753011 8.242056707703112
  endloop
endfacet
facet normal -0.0005385770589942161 -0.999999422309032 0.000930223819065034
  outer loop
    vertex 22.943748270706358 14.646249135355482 5.232611524046174
    vertex 9.751912094867425 14.649984555654319 1.6111376879799544
    vertex 11.491933690591297 14.646248953479697 -1.3983074956769832
  endloop
endfacet
facet normal -0.0005231410884936839 -0.9999994526546203 0.0009060981520387631
  outer loop
    vertex 8.378800548921905 5.355925111073508 0.8394360071224708
    vertex 24.741363475438945 5.351388206144811 5.059380950596814
    vertex 22.475952389050644 5.3559251028642745 8.978497641277187
  endloop
endfacet
facet normal -0.0005231410884936839 -0.9999994526546203 0.0009060981520387631
  outer loop
    vertex 24.741363475438945 5.351388206144811 5.059380950596814
    vertex 8.378800548921905 5.355925111073508 0.8394360071224708
    vertex 10.64478117011381 5.351388214353718 -3.079351859769816
  endloop
endfacet
facet normal -0.00031556376909401134 -0.9999992638141927 0.0011716614615505702
  outer loop
    vertex 10.325244323358909 10.237852126980636 0.6194131490107604
    vertex 10.394962545182338 10.238303456881821 1.0233951261528875
    vertex 9.747175779219452 10.239206121396634 1.6193401493166975
  endloop
endfacet
facet normal 0.00031556376909401193 0.9999992638141927 -0.0011716614615505706
  outer loop
    vertex 10.325808095655455 11.287104389064972 0.6184366855305251
    vertex 9.747739551516002 11.288458383480968 1.6183636858364623
    vertex 10.395526317478888 11.287555718966159 1.022418662672655
  endloop
endfacet
facet normal 0.8657401784710274 6.037548639311039e-07 0.5004936996412532
  outer loop
    vertex 10.325808095655455 11.287104389064972 0.6184366855305251
    vertex 9.747175779219452 10.239206121396634 1.6193401493166975
    vertex 10.325244323358909 10.237852126980636 0.6194131490107604
  endloop
endfacet
facet normal 0.8657401784710274 6.037548639311039e-07 0.5004936996412532
  outer loop
    vertex 9.747175779219452 10.239206121396634 1.6193401493166975
    vertex 10.325808095655455 11.287104389064972 0.6184366855305251
    vertex 9.747739551516002 11.288458383480968 1.6183636858364623
  endloop
endfacet
facet normal 0.9854329787217048 -0.000687746881901563 -0.17006284559507617
  outer loop
    vertex 10.325808095655455 11.287104389064972 0.6184366855305251
    vertex 10.394962545182338 10.238303456881821 1.0233951261528875
    vertex 10.325244323358909 10.237852126980636 0.6194131490107604
  endloop
endfacet
facet normal 0.9854329787217048 -0.000687746881901563 -0.17006284559507617
  outer loop
    vertex 10.394962545182338 10.238303456881821 1.0233951261528875
    vertex 10.325808095655455 11.287104389064972 0.6184366855305251
    vertex 10.395526317478888 11.287555718966159 1.022418662672655
  endloop
endfacet
facet normal 0.6770451696351756 0.0003211054163992902 0.7359413938385228
  outer loop
    vertex 10.395526317478888 11.287555718966159 1.022418662672655
    vertex 9.747175779219452 10.239206121396634 1.6193401493166975
    vertex 10.394962545182338 10.238303456881821 1.0233951261528875
  endloop
endfacet
facet normal 0.6770451696351756 0.0003211054163992902 0.7359413938385228
  outer loop
    vertex 9.747175779219452 10.239206121396634 1.6193401493166975
    vertex 10.395526317478888 11.287555718966159 1.022418662672655
    vertex 9.747739551516002 11.288458383480968 1.6183636858364623
  endloop
endfacet
facet normal 0.8657203777035241 -1.6911583260274674e-05 0.5005279486131279
  outer loop
    vertex 24.74205050930804 15.642126417481288 5.058188777433605
    vertex 22.475952389050644 5.3559251028642745 8.978497641277187
    vertex 24.741363475438945 5.351388206144811 5.059380950596814
  endloop
endfacet
facet normal 0.8657203777035241 -1.6911583260274674e-05 0.5005279486131279
  outer loop
    vertex 22.475952389050644 5.3559251028642745 8.978497641277187
    vertex 24.74205050930804 15.642126417481288 5.058188777433605
    vertex 22.47667362841071 16.17248461293019 8.977244032046878
  endloop
endfacet
facet normal 0.8657203777035241 -1.6911583260274674e-05 0.5005279486131279
  outer loop
    vertex 22.47667362841071 16.17248461293019 8.977244032046878
    vertex 24.74205050930804 15.642126417481288 5.058188777433605
    vertex 24.742513268892683 16.16762038166067 5.058375295155971
  endloop
endfacet
facet normal 0.46314594073658755 0.3816903462726343 -0.7998801892418002
  outer loop
    vertex 24.659395202184207 15.777955422688065 4.424746667083075
    vertex 11.110135898115766 15.90462904202783 -3.360087152766616
    vertex 24.742802058081082 15.904631789424855 4.533488818960864
  endloop
endfacet
facet normal 0.46314594073658755 0.3816903462726343 -0.7998801892418002
  outer loop
    vertex 11.110135898115766 15.90462904202783 -3.360087152766616
    vertex 24.659395202184207 15.777955422688065 4.424746667083075
    vertex 11.24588275704794 15.777952719457183 -3.341935087681211
  endloop
endfacet
facet normal 0.3978632580101941 0.6079084648416704 -0.6871332667680683
  outer loop
    vertex 24.742802058081082 15.904631789424855 4.533488818960864
    vertex 10.974359763517487 16.013449724976805 -3.342430200862223
    vertex 24.795217643797482 16.01345251030019 4.660112397358057
  endloop
endfacet
facet normal 0.3978632580101941 0.6079084648416704 -0.6871332667680683
  outer loop
    vertex 10.974359763517487 16.013449724976805 -3.342430200862223
    vertex 24.742802058081082 15.904631789424855 4.533488818960864
    vertex 11.110135898115766 15.90462904202783 -3.360087152766616
  endloop
endfacet
facet normal 0.3054668469562423 0.7926986494220468 -0.5275593394255043
  outer loop
    vertex 24.795217643797482 16.01345251030019 4.660112397358057
    vertex 10.847807272445294 16.096998818595825 -3.290167524060827
    vertex 24.813069923787683 16.097001633021165 4.795988214662248
  endloop
endfacet
facet normal 0.3054668469562423 0.7926986494220468 -0.5275593394255043
  outer loop
    vertex 10.847807272445294 16.096998818595825 -3.290167524060827
    vertex 24.795217643797482 16.01345251030019 4.660112397358057
    vertex 10.974359763517487 16.013449724976805 -3.342430200862223
  endloop
endfacet
facet normal 0.19225336345350671 0.923467740732557 -0.3320330948371272
  outer loop
    vertex 24.813069923787683 16.097001633021165 4.795988214662248
    vertex 10.739102768027886 16.149582590226153 -3.206860737418286
    vertex 24.795142294672637 16.149585422945794 4.93185655846956
  endloop
endfacet
facet normal 0.19225336345350671 0.923467740732557 -0.3320330948371272
  outer loop
    vertex 10.739102768027886 16.149582590226153 -3.206860737418286
    vertex 24.813069923787683 16.097001633021165 4.795988214662248
    vertex 10.847807272445294 16.096998818595825 -3.290167524060827
  endloop
endfacet
facet normal 0.06593811928288419 0.991304022046862 -0.11387932340486878
  outer loop
    vertex 24.795142294672637 16.149585422945794 4.93185655846956
    vertex 10.655654282598615 16.167617542729968 -3.0981870607733133
    vertex 24.742513268892683 16.16762038166067 5.058375295155971
  endloop
endfacet
facet normal 0.06593811928288419 0.991304022046862 -0.11387932340486878
  outer loop
    vertex 10.655654282598615 16.167617542729968 -3.0981870607733133
    vertex 24.795142294672637 16.149585422945794 4.93185655846956
    vertex 10.739102768027886 16.149582590226153 -3.206860737418286
  endloop
endfacet
facet normal 0.4968659978430068 0.12946068460101 -0.8581166070704556
  outer loop
    vertex 24.550681115499874 15.642056195140338 4.341296539670262
    vertex 11.24588275704794 15.777952719457183 -3.341935087681211
    vertex 24.659395202184207 15.777955422688065 4.424746667083075
  endloop
endfacet
facet normal 0.4968659978430068 0.12946068460101 -0.8581166070704556
  outer loop
    vertex 11.24588275704794 15.777952719457183 -3.341935087681211
    vertex 24.550681115499874 15.642056195140338 4.341296539670262
    vertex 11.372349416210064 15.64205353930553 -3.289211038843875
  endloop
endfacet
facet normal 0.13083647977399468 -0.0018579358164331483 -0.9914022209148268
  outer loop
    vertex 11.099790260029529 5.613114607175965 -3.3421656815102403
    vertex 11.24588275704794 15.777952719457183 -3.341935087681211
    vertex 11.235791657353346 5.739645047685828 -3.3244545464507516
  endloop
endfacet
facet normal 0.13083647977399468 -0.0018579358164331483 -0.9914022209148268
  outer loop
    vertex 11.24588275704794 15.777952719457183 -3.341935087681211
    vertex 11.099790260029529 5.613114607175965 -3.3421656815102403
    vertex 11.110135898115766 15.90462904202783 -3.360087152766616
  endloop
endfacet
facet normal -0.13021604859562452 -0.0015956534324537666 -0.9914843592201872
  outer loop
    vertex 10.963795572480537 5.504525708592719 -3.3241301361936775
    vertex 11.110135898115766 15.90462904202783 -3.360087152766616
    vertex 11.099790260029529 5.613114607175965 -3.3421656815102403
  endloop
endfacet
facet normal -0.13021604859562452 -0.0015956534324537666 -0.9914843592201872
  outer loop
    vertex 11.110135898115766 15.90462904202783 -3.360087152766616
    vertex 10.963795572480537 5.504525708592719 -3.3241301361936775
    vertex 10.974359763517487 16.013449724976805 -3.342430200862223
  endloop
endfacet
facet normal -0.3823942786745416 -0.0012246301298105573 -0.9239984393482611
  outer loop
    vertex 10.847807272445294 16.096998818595825 -3.290167524060827
    vertex 10.963795572480537 5.504525708592719 -3.3241301361936775
    vertex 10.837075407920986 5.421278505922908 -3.2715770031092415
  endloop
endfacet
facet normal -0.3823942786745416 -0.0012246301298105573 -0.9239984393482611
  outer loop
    vertex 10.963795572480537 5.504525708592719 -3.3241301361936775
    vertex 10.847807272445294 16.096998818595825 -3.290167524060827
    vertex 10.974359763517487 16.013449724976805 -3.342430200862223
  endloop
endfacet
facet normal -0.6085127391112887 -0.0007701508508282729 -0.7935437311244691
  outer loop
    vertex 10.739102768027886 16.149582590226153 -3.206860737418286
    vertex 10.837075407920986 5.421278505922908 -3.2715770031092415
    vertex 10.728265536150632 5.36904615845596 -3.1880876914284757
  endloop
endfacet
facet normal -0.6085127391112887 -0.0007701508508282729 -0.7935437311244691
  outer loop
    vertex 10.837075407920986 5.421278505922908 -3.2715770031092415
    vertex 10.739102768027886 16.149582590226153 -3.206860737418286
    vertex 10.847807272445294 16.096998818595825 -3.290167524060827
  endloop
endfacet
facet normal -0.7931620243911506 -0.00026318760649609327 -0.6090106187875673
  outer loop
    vertex 10.655654282598615 16.167617542729968 -3.0981870607733133
    vertex 10.728265536150632 5.36904615845596 -3.1880876914284757
    vertex 10.64478117011381 5.351388214353718 -3.079351859769816
  endloop
endfacet
facet normal -0.7931620243911506 -0.00026318760649609327 -0.6090106187875673
  outer loop
    vertex 10.728265536150632 5.36904615845596 -3.1880876914284757
    vertex 10.655654282598615 16.167617542729968 -3.0981870607733133
    vertex 10.739102768027886 16.149582590226153 -3.206860737418286
  endloop
endfacet
facet normal 0.38297289657563216 -0.0019936027210468725 -0.9237574281361208
  outer loop
    vertex 11.235791657353346 5.739645047685828 -3.3244545464507516
    vertex 11.372349416210064 15.64205353930553 -3.289211038843875
    vertex 11.362531493977299 5.875494189702995 -3.2722037156004826
  endloop
endfacet
facet normal 0.38297289657563216 -0.0019936027210468725 -0.9237574281361208
  outer loop
    vertex 11.372349416210064 15.64205353930553 -3.289211038843875
    vertex 11.235791657353346 5.739645047685828 -3.3244545464507516
    vertex 11.24588275704794 15.777952719457183 -3.341935087681211
  endloop
endfacet
facet normal 0.4616166140090147 -0.38425377824517054 -0.7995368256529298
  outer loop
    vertex 11.099790260029529 5.613114607175965 -3.3421656815102403
    vertex 24.65895256143302 5.7396450398690755 4.4254750253146256
    vertex 24.742205415689412 5.613114599231534 4.534351436973759
  endloop
endfacet
facet normal 0.4616166140090147 -0.38425377824517054 -0.7995368256529298
  outer loop
    vertex 24.65895256143302 5.7396450398690755 4.4254750253146256
    vertex 11.099790260029529 5.613114607175965 -3.3421656815102403
    vertex 11.235791657353346 5.739645047685828 -3.3244545464507516
  endloop
endfacet
facet normal 0.3961609191130213 -0.6101097290046784 -0.6861651730752325
  outer loop
    vertex 10.963795572480537 5.504525708592719 -3.3241301361936775
    vertex 24.742205415689412 5.613114599231534 4.534351436973759
    vertex 24.794446902313993 5.5045257005386725 4.6610660857539745
  endloop
endfacet
facet normal 0.3961609191130213 -0.6101097290046784 -0.6861651730752325
  outer loop
    vertex 24.742205415689412 5.613114599231534 4.534351436973759
    vertex 10.963795572480537 5.504525708592719 -3.3241301361936775
    vertex 11.099790260029529 5.613114607175965 -3.3421656815102403
  endloop
endfacet
facet normal 0.3037075657333308 -0.7943874547394159 -0.5260325905007853
  outer loop
    vertex 10.837075407920986 5.421278505922908 -3.2715770031092415
    vertex 24.794446902313993 5.5045257005386725 4.6610660857539745
    vertex 24.81211685032644 5.421278497784779 4.796983577746764
  endloop
endfacet
facet normal 0.3037075657333308 -0.7943874547394159 -0.5260325905007853
  outer loop
    vertex 24.794446902313993 5.5045257005386725 4.6610660857539745
    vertex 10.837075407920986 5.421278505922908 -3.2715770031092415
    vertex 10.963795572480537 5.504525708592719 -3.3241301361936775
  endloop
endfacet
facet normal 0.19055717170016692 -0.9245288833474165 -0.3300519779822754
  outer loop
    vertex 10.728265536150632 5.36904615845596 -3.1880876914284757
    vertex 24.81211685032644 5.421278497784779 4.796983577746764
    vertex 24.794011081970677 5.36904615026501 4.932841360487098
  endloop
endfacet
facet normal 0.19055717170016692 -0.9245288833474165 -0.3300519779822754
  outer loop
    vertex 24.81211685032644 5.421278497784779 4.796983577746764
    vertex 10.728265536150632 5.36904615845596 -3.1880876914284757
    vertex 10.837075407920986 5.421278505922908 -3.2715770031092415
  endloop
endfacet
facet normal 0.06442074895029369 -0.9916653033445604 -0.11157908965045428
  outer loop
    vertex 10.64478117011381 5.351388214353718 -3.079351859769816
    vertex 24.794011081970677 5.36904615026501 4.932841360487098
    vertex 24.741363475438945 5.351388206144811 5.059380950596814
  endloop
endfacet
facet normal 0.06442074895029369 -0.9916653033445604 -0.11157908965045428
  outer loop
    vertex 24.794011081970677 5.36904615026501 4.932841360487098
    vertex 10.64478117011381 5.351388214353718 -3.079351859769816
    vertex 10.728265536150632 5.36904615845596 -3.1880876914284757
  endloop
endfacet
facet normal 0.49561384708057593 -0.13221131140711279 -0.8584212740362407
  outer loop
    vertex 11.235791657353346 5.739645047685828 -3.3244545464507516
    vertex 24.550361883980553 5.875494182023285 4.341856598304378
    vertex 24.65895256143302 5.7396450398690755 4.4254750253146256
  endloop
endfacet
facet normal 0.49561384708057593 -0.13221131140711279 -0.8584212740362407
  outer loop
    vertex 24.550361883980553 5.875494182023285 4.341856598304378
    vertex 11.235791657353346 5.739645047685828 -3.3244545464507516
    vertex 11.362531493977299 5.875494189702995 -3.2722037156004826
  endloop
endfacet
facet normal 0.7943082561658897 -0.00012340996663170672 -0.6075149207687688
  outer loop
    vertex 24.65895256143302 5.7396450398690755 4.4254750253146256
    vertex 24.74287497200785 15.64206528237912 4.533189591670337
    vertex 24.742205415689412 5.613114599231534 4.534351436973759
  endloop
endfacet
facet normal 0.7943082561658897 -0.00012340996663170672 -0.6075149207687688
  outer loop
    vertex 24.74287497200785 15.64206528237912 4.533189591670337
    vertex 24.65895256143302 5.7396450398690755 4.4254750253146256
    vertex 24.659613669802635 15.642058104300295 4.424327839285405
  endloop
endfacet
facet normal 0.9244794029986937 -0.00010588581438182896 -0.3812319795339486
  outer loop
    vertex 24.742205415689412 5.613114599231534 4.534351436973759
    vertex 24.795123709036776 15.642076579982415 4.659891659211297
    vertex 24.794446902313993 5.5045257005386725 4.6610660857539745
  endloop
endfacet
facet normal 0.9244794029986937 -0.00010588581438182896 -0.3812319795339486
  outer loop
    vertex 24.795123709036776 15.642076579982415 4.659891659211297
    vertex 24.742205415689412 5.613114599231534 4.534351436973759
    vertex 24.74287497200785 15.64206528237912 4.533189591670337
  endloop
endfacet
facet normal 0.991648630249718 -8.114573390958412e-05 -0.1289689402113078
  outer loop
    vertex 24.794446902313993 5.5045257005386725 4.6610660857539745
    vertex 24.81279921580602 15.64209122719718 4.795799505390441
    vertex 24.81211685032644 5.421278497784779 4.796983577746764
  endloop
endfacet
facet normal 0.991648630249718 -8.114573390958412e-05 -0.1289689402113078
  outer loop
    vertex 24.81279921580602 15.64209122719718 4.795799505390441
    vertex 24.794446902313993 5.5045257005386725 4.6610660857539745
    vertex 24.795123709036776 15.642076579982415 4.659891659211297
  endloop
endfacet
facet normal 0.991238681200683 -5.08757417484016e-05 0.1320828312203743
  outer loop
    vertex 24.81211685032644 5.421278497784779 4.796983577746764
    vertex 24.794696935739406 15.642108225839948 4.931651235089001
    vertex 24.794011081970677 5.36904615026501 4.932841360487098
  endloop
endfacet
facet normal 0.991238681200683 -5.08757417484016e-05 0.1320828312203743
  outer loop
    vertex 24.794696935739406 15.642108225839948 4.931651235089001
    vertex 24.81211685032644 5.421278497784779 4.796983577746764
    vertex 24.81279921580602 15.64209122719718 4.795799505390441
  endloop
endfacet
facet normal 0.9232776854283532 -1.7138687699651593e-05 0.3841331999402398
  outer loop
    vertex 24.794011081970677 5.36904615026501 4.932841360487098
    vertex 24.74205050930804 15.642126417481288 5.058188777433605
    vertex 24.741363475438945 5.351388206144811 5.059380950596814
  endloop
endfacet
facet normal 0.9232776854283532 -1.7138687699651593e-05 0.3841331999402398
  outer loop
    vertex 24.74205050930804 15.642126417481288 5.058188777433605
    vertex 24.794011081970677 5.36904615026501 4.932841360487098
    vertex 24.794696935739406 15.642108225839948 4.931651235089001
  endloop
endfacet
facet normal 0.6100060262960427 -0.00013252391889704133 -0.792396763193744
  outer loop
    vertex 24.550361883980553 5.875494182023285 4.341856598304378
    vertex 24.659613669802635 15.642058104300295 4.424327839285405
    vertex 24.65895256143302 5.7396450398690755 4.4254750253146256
  endloop
endfacet
facet normal 0.6100060262960427 -0.00013252391889704133 -0.792396763193744
  outer loop
    vertex 24.659613669802635 15.642058104300295 4.424327839285405
    vertex 24.550361883980553 5.875494182023285 4.341856598304378
    vertex 24.550681115499874 15.642056195140338 4.341296539670262
  endloop
endfacet
facet normal 0.0005382874636645707 0.9999994226713655 -0.0009300019043287763
  outer loop
    vertex 24.742513268892683 16.16762038166067 5.058375295155971
    vertex 8.389673990462702 16.172481773971153 0.8206002361041083
    vertex 22.47667362841071 16.17248461293019 8.977244032046878
  endloop
endfacet
facet normal 0.0005382874636645707 0.9999994226713655 -0.0009300019043287763
  outer loop
    vertex 8.389673990462702 16.172481773971153 0.8206002361041083
    vertex 24.742513268892683 16.16762038166067 5.058375295155971
    vertex 10.655654282598615 16.167617542729968 -3.0981870607733133
  endloop
endfacet
facet normal 0.6062015991802128 0.003425606177767783 -0.7953036441345328
  outer loop
    vertex 24.550681115499874 15.642056195140338 4.341296539670262
    vertex 24.659395202184207 15.777955422688065 4.424746667083075
    vertex 24.659613669802635 15.642058104300295 4.424327839285405
  endloop
endfacet
facet normal 0.7935000567384327 0.001386630781729095 -0.6085685969643677
  outer loop
    vertex 24.74287497200785 15.64206528237912 4.533189591670337
    vertex 24.659395202184207 15.777955422688065 4.424746667083075
    vertex 24.742802058081082 15.904631789424855 4.533488818960864
  endloop
endfacet
facet normal 0.7935000567384327 0.001386630781729095 -0.6085685969643677
  outer loop
    vertex 24.659395202184207 15.777955422688065 4.424746667083075
    vertex 24.74287497200785 15.64206528237912 4.533189591670337
    vertex 24.659613669802635 15.642058104300295 4.424327839285405
  endloop
endfacet
facet normal 0.9241886515954594 0.00022611040840299343 -0.3819362317668355
  outer loop
    vertex 24.795123709036776 15.642076579982415 4.659891659211297
    vertex 24.742802058081082 15.904631789424855 4.533488818960864
    vertex 24.795217643797482 16.01345251030019 4.660112397358057
  endloop
endfacet
facet normal 0.9241886515954594 0.00022611040840299343 -0.3819362317668355
  outer loop
    vertex 24.742802058081082 15.904631789424855 4.533488818960864
    vertex 24.795123709036776 15.642076579982415 4.659891659211297
    vertex 24.74287497200785 15.64206528237912 4.533189591670337
  endloop
endfacet
facet normal 0.991579420402733 -0.00039138111718894903 -0.12949942028673705
  outer loop
    vertex 24.795217643797482 16.01345251030019 4.660112397358057
    vertex 24.81279921580602 15.64209122719718 4.795799505390441
    vertex 24.795123709036776 15.642076579982415 4.659891659211297
  endloop
endfacet
facet normal 0.991579420402733 -0.00039138111718894903 -0.12949942028673705
  outer loop
    vertex 24.81279921580602 15.64209122719718 4.795799505390441
    vertex 24.795217643797482 16.01345251030019 4.660112397358057
    vertex 24.813069923787683 16.097001633021165 4.795988214662248
  endloop
endfacet
facet normal 0.9913024592410121 -0.0007990313750818949 0.13160089608958997
  outer loop
    vertex 24.813069923787683 16.097001633021165 4.795988214662248
    vertex 24.794696935739406 15.642108225839948 4.931651235089001
    vertex 24.81279921580602 15.64209122719718 4.795799505390441
  endloop
endfacet
facet normal 0.9913024592410121 -0.0007990313750818949 0.13160089608958997
  outer loop
    vertex 24.794696935739406 15.642108225839948 4.931651235089001
    vertex 24.813069923787683 16.097001633021165 4.795988214662248
    vertex 24.795142294672637 16.149585422945794 4.93185655846956
  endloop
endfacet
facet normal 0.9232654354178021 -0.0009572562146922073 0.38416144968400423
  outer loop
    vertex 24.795142294672637 16.149585422945794 4.93185655846956
    vertex 24.74205050930804 15.642126417481288 5.058188777433605
    vertex 24.794696935739406 15.642108225839948 4.931651235089001
  endloop
endfacet
facet normal 0.9232654354178021 -0.0009572562146922073 0.38416144968400423
  outer loop
    vertex 24.74205050930804 15.642126417481288 5.058188777433605
    vertex 24.795142294672637 16.149585422945794 4.93185655846956
    vertex 24.742513268892683 16.16762038166067 5.058375295155971
  endloop
endfacet
facet normal 0.5010818395836922 -0.00201070591679132 -0.8653975659205075
  outer loop
    vertex 11.372349416210064 15.64205353930553 -3.289211038843875
    vertex 24.550681115499874 15.642056195140338 4.341296539670262
    vertex 11.362531493977299 5.875494189702995 -3.2722037156004826
  endloop
endfacet
facet normal 0.5000030962332931 -6.600487964792666e-05 -0.8660236136506186
  outer loop
    vertex 11.362531493977299 5.875494189702995 -3.2722037156004826
    vertex 24.550681115499874 15.642056195140338 4.341296539670262
    vertex 24.550361883980553 5.875494182023285 4.341856598304378
  endloop
endfacet
endsolid baseplate_surround_cover_v7_20180321
