solid Baseplate_20180709
facet normal -2.0316095408897945e-05 -0.999999999710057 1.2928349246920174e-05
  outer loop
    vertex 55.75647589393303 29.77587351629266 3.2663697171079433
    vertex 63.526331234545985 29.775812801119123 4.312958223447956
    vertex 62.95319215702247 29.775812801119123 5.887644897150888
  endloop
endfacet
facet normal -2.0316095408897945e-05 -0.999999999710057 1.2928349246920174e-05
  outer loop
    vertex 63.526331234545985 29.775812801119123 4.312958223447956
    vertex 55.75647589393303 29.77587351629266 3.2663697171079433
    vertex 56.328597444102755 29.77589556974978 1.6939902965031493
  endloop
endfacet
facet normal 1.5011087016332395e-05 -0.9999999700184437 -0.00024441313217516444
  outer loop
    vertex 55.17980611108476 29.129517010967746 3.3604132408528575
    vertex 56.3284073784408 29.129975059644657 1.6944489536799923
    vertex 55.65372884183506 29.129478094738616 3.5479512817444983
  endloop
endfacet
facet normal 1.5011087016332395e-05 -0.9999999700184437 -0.00024441313217516444
  outer loop
    vertex 56.3284073784408 29.129975059644657 1.6944489536799923
    vertex 55.17980611108476 29.129517010967746 3.3604132408528575
    vertex 55.42392895160577 29.129563087288375 2.6671814148366546
  endloop
endfacet
facet normal 1.5011087016332395e-05 -0.9999999700184437 -0.00024441313217516444
  outer loop
    vertex 56.3284073784408 29.129975059644657 1.6944489536799923
    vertex 55.42392895160577 29.129563087288375 2.6671814148366546
    vertex 54.51643418279736 29.129909206534666 1.99254882550934
  endloop
endfacet
facet normal 1.5011087016332395e-05 -0.9999999700184437 -0.00024441313217516444
  outer loop
    vertex 56.3284073784408 29.129975059644657 1.6944489536799923
    vertex 54.51643418279736 29.129909206534666 1.99254882550934
    vertex 54.82448934045099 29.12998455630308 1.1469117967384914
  endloop
endfacet
facet normal 0.939566192229558 -0.00014178230871725789 0.3423672740158243
  outer loop
    vertex 54.824270035691086 26.778256459420568 1.146774112723203
    vertex 54.51643418279736 29.129909206534666 1.99254882550934
    vertex 54.51606408503586 26.778178722998287 1.9923562079423383
  endloop
endfacet
facet normal 0.939566192229558 -0.00014178230871725789 0.3423672740158243
  outer loop
    vertex 54.51643418279736 29.129909206534666 1.99254882550934
    vertex 54.824270035691086 26.778256459420568 1.146774112723203
    vertex 54.82448934045099 29.12998455630308 1.1469117967384914
  endloop
endfacet
facet normal 2.1883437042665018e-05 0.9999999803157525 0.00019720448773167994
  outer loop
    vertex 55.65697180328054 26.777728373442955 3.5338229721136485
    vertex 55.4348674487105 26.777886746852055 2.682147754579846
    vertex 55.187040645403115 26.777988965221972 3.36304639600352
  endloop
endfacet
facet normal 2.1883437042665018e-05 0.9999999803157525 0.00019720448773167994
  outer loop
    vertex 55.4348674487105 26.777886746852055 2.682147754579846
    vertex 55.65697180328054 26.777728373442955 3.5338229721136485
    vertex 56.32817374292358 26.778225391312862 1.69242511060216
  endloop
endfacet
facet normal 2.1883437042665018e-05 0.9999999803157525 0.00019720448773167994
  outer loop
    vertex 55.4348674487105 26.777886746852055 2.682147754579846
    vertex 56.32817374292358 26.778225391312862 1.69242511060216
    vertex 54.51606408503586 26.778178722998287 1.9923562079423383
  endloop
endfacet
facet normal 2.1883437042665018e-05 0.9999999803157525 0.00019720448773167994
  outer loop
    vertex 54.51606408503586 26.778178722998287 1.9923562079423383
    vertex 56.32817374292358 26.778225391312862 1.69242511060216
    vertex 54.824270035691086 26.778256459420568 1.146774112723203
  endloop
endfacet
facet normal -0.939686778676492 1.6248200358052863e-05 -0.342036193576928
  outer loop
    vertex 53.30329038159089 23.975908778021246 2.6935828449950487
    vertex 54.01306171211286 31.126275443984962 0.7439818331777275
    vertex 54.013143156018124 23.974976043023343 0.7435325053455892
  endloop
endfacet
facet normal -0.939686778676492 1.6248200358052863e-05 -0.342036193576928
  outer loop
    vertex 54.01306171211286 31.126275443984962 0.7439818331777275
    vertex 53.30329038159089 23.975908778021246 2.6935828449950487
    vertex 53.303153453007525 31.1259017508086 2.694527016276406
  endloop
endfacet
facet normal -0.34205633920832806 -6.293716794216672e-05 0.939679443664865
  outer loop
    vertex 66.27893735232728 31.92623292399106 5.208984120948308
    vertex 65.52714741638258 31.126273583376538 4.93526858715399
    vertex 66.27809356407185 23.175115244422173 5.20809084432034
  endloop
endfacet
facet normal -0.34205633920832806 -6.293716794216672e-05 0.939679443664865
  outer loop
    vertex 65.52714741638258 31.126273583376538 4.93526858715399
    vertex 66.27893735232728 31.92623292399106 5.208984120948308
    vertex 53.26130604565643 31.92627875539642 0.4703859350895979
  endloop
endfacet
facet normal -0.34205633920832806 -6.293716794216672e-05 0.939679443664865
  outer loop
    vertex 65.52714741638258 31.126273583376538 4.93526858715399
    vertex 53.26130604565643 31.92627875539642 0.4703859350895979
    vertex 54.01306171211286 31.126275443984962 0.7439818331777275
  endloop
endfacet
facet normal -0.34205633920832806 -6.293716794216672e-05 0.939679443664865
  outer loop
    vertex 54.01306171211286 31.126275443984962 0.7439818331777275
    vertex 53.26130604565643 31.92627875539642 0.4703859350895979
    vertex 54.013143156018124 23.974976043023343 0.7435325053455892
  endloop
endfacet
facet normal -0.34205633920832806 -6.293716794216672e-05 0.939679443664865
  outer loop
    vertex 66.27809356407185 23.175115244422173 5.20809084432034
    vertex 65.52639236415503 23.975148776658575 4.934514774831519
    vertex 53.26141572664882 23.174972232565274 0.46983972183244854
  endloop
endfacet
facet normal -0.34205633920832806 -6.293716794216672e-05 0.939679443664865
  outer loop
    vertex 65.52639236415503 23.975148776658575 4.934514774831519
    vertex 66.27809356407185 23.175115244422173 5.20809084432034
    vertex 65.52714741638258 31.126273583376538 4.93526858715399
  endloop
endfacet
facet normal -0.34205633920832806 -6.293716794216672e-05 0.939679443664865
  outer loop
    vertex 53.26141572664882 23.174972232565274 0.46983972183244854
    vertex 65.52639236415503 23.975148776658575 4.934514774831519
    vertex 54.013143156018124 23.974976043023343 0.7435325053455892
  endloop
endfacet
facet normal -0.34205633920832806 -6.293716794216672e-05 0.939679443664865
  outer loop
    vertex 53.26141572664882 23.174972232565274 0.46983972183244854
    vertex 54.013143156018124 23.974976043023343 0.7435325053455892
    vertex 53.26130604565643 31.92627875539642 0.4703859350895979
  endloop
endfacet
facet normal -0.9396794457035311 1.0790244580955102e-05 -0.34205633922772893
  outer loop
    vertex 53.26130604565643 31.92627875539642 0.4703859350895979
    vertex 53.432443896252984 23.175003701149244 1.127986593019159e-14
    vertex 53.26141572664882 23.174972232565274 0.46983972183244854
  endloop
endfacet
facet normal -0.9396794457035311 1.0790244580955102e-05 -0.34205633922772893
  outer loop
    vertex 53.432443896252984 23.175003701149244 1.127986593019159e-14
    vertex 53.26130604565643 31.92627875539642 0.4703859350895979
    vertex 53.432334215260596 31.92631022398039 0.0005462132571663059
  endloop
endfacet
facet normal -2.138537012026774e-05 0.999999998019445 5.919270318920675e-05
  outer loop
    vertex 66.44996552193142 31.92626439257503 4.73914439911587
    vertex 53.26130604565643 31.92627875539642 0.4703859350895979
    vertex 66.27893735232728 31.92623292399106 5.208984120948308
  endloop
endfacet
facet normal -2.138537012026774e-05 0.999999998019445 5.919270318920675e-05
  outer loop
    vertex 53.26130604565643 31.92627875539642 0.4703859350895979
    vertex 66.44996552193142 31.92626439257503 4.73914439911587
    vertex 53.432334215260596 31.92631022398039 0.0005462132571663059
  endloop
endfacet
facet normal 0.9396794398406215 -0.00013527289146605243 0.34205632875604064
  outer loop
    vertex 66.4491217336761 23.175146713006143 4.7382511224879345
    vertex 66.27893735232728 31.92623292399106 5.208984120948308
    vertex 66.27809356407185 23.175115244422173 5.20809084432034
  endloop
endfacet
facet normal 0.9396794398406215 -0.00013527289146605243 0.34205632875604064
  outer loop
    vertex 66.27893735232728 31.92623292399106 5.208984120948308
    vertex 66.4491217336761 23.175146713006143 4.7382511224879345
    vertex 66.44996552193142 31.92626439257503 4.73914439911587
  endloop
endfacet
facet normal 3.477569563271743e-05 -0.9999999979200791 -5.431843913806747e-05
  outer loop
    vertex 53.26141572664882 23.174972232565274 0.46983972183244854
    vertex 66.4491217336761 23.175146713006143 4.7382511224879345
    vertex 66.27809356407185 23.175115244422173 5.20809084432034
  endloop
endfacet
facet normal 3.477569563271743e-05 -0.9999999979200791 -5.431843913806747e-05
  outer loop
    vertex 66.4491217336761 23.175146713006143 4.7382511224879345
    vertex 53.26141572664882 23.174972232565274 0.46983972183244854
    vertex 53.432443896252984 23.175003701149244 1.127986593019159e-14
  endloop
endfacet
facet normal -5.879666800646657e-05 0.9999999886833194 0.00013847856455926656
  outer loop
    vertex 64.63775182842753 31.12583725607191 7.37720762156531
    vertex 62.95319215702247 31.12606462680304 5.887644897150888
    vertex 62.67145856768719 31.126056642828424 6.661701592913084
  endloop
endfacet
facet normal -5.879666800646657e-05 0.9999999886833194 0.00013847856455926656
  outer loop
    vertex 62.95319215702247 31.12606462680304 5.887644897150888
    vertex 64.63775182842753 31.12583725607191 7.37720762156531
    vertex 65.52714741638258 31.126273583376538 4.93526858715399
  endloop
endfacet
facet normal -5.879666800646657e-05 0.9999999886833194 0.00013847856455926656
  outer loop
    vertex 62.95319215702247 31.12606462680304 5.887644897150888
    vertex 65.52714741638258 31.126273583376538 4.93526858715399
    vertex 55.756207495039384 31.125939802594118 3.2671042923581206
  endloop
endfacet
facet normal -5.879666800646657e-05 0.9999999886833194 0.00013847856455926656
  outer loop
    vertex 55.65389648198569 31.125854322748197 3.548809292418324
    vertex 54.01306171211286 31.126275443984962 0.7439818331777275
    vertex 53.303153453007525 31.1259017508086 2.694527016276406
  endloop
endfacet
facet normal -5.879666800646657e-05 0.9999999886833194 0.00013847856455926656
  outer loop
    vertex 54.01306171211286 31.126275443984962 0.7439818331777275
    vertex 55.65389648198569 31.125854322748197 3.548809292418324
    vertex 55.756207495039384 31.125939802594118 3.2671042923581206
  endloop
endfacet
facet normal -5.879666800646657e-05 0.9999999886833194 0.00013847856455926656
  outer loop
    vertex 54.01306171211286 31.126275443984962 0.7439818331777275
    vertex 55.756207495039384 31.125939802594118 3.2671042923581206
    vertex 65.52714741638258 31.126273583376538 4.93526858715399
  endloop
endfacet
facet normal -0.0001788963049618413 -0.9999997662224189 0.0006599630442039791
  outer loop
    vertex 54.013143156018124 23.974976043023343 0.7435325053455892
    vertex 55.657048335988215 23.976294255147472 3.5336061545020336
    vertex 53.30329038159089 23.975908778021246 2.6935828449950487
  endloop
endfacet
facet normal -0.0001788963049618413 -0.9999997662224189 0.0006599630442039791
  outer loop
    vertex 55.657048335988215 23.976294255147472 3.5336061545020336
    vertex 54.013143156018124 23.974976043023343 0.7435325053455892
    vertex 55.754333188445884 23.976303287200544 3.2663883280444717
  endloop
endfacet
facet normal -0.0001788963049618413 -0.9999997662224189 0.0006599630442039791
  outer loop
    vertex 55.754333188445884 23.976303287200544 3.2663883280444717
    vertex 54.013143156018124 23.974976043023343 0.7435325053455892
    vertex 62.95354143120669 23.976538286713446 5.886685605632428
  endloop
endfacet
facet normal -0.0001788963049618413 -0.9999997662224189 0.0006599630442039791
  outer loop
    vertex 62.95354143120669 23.976538286713446 5.886685605632428
    vertex 54.013143156018124 23.974976043023343 0.7435325053455892
    vertex 65.52639236415503 23.975148776658575 4.934514774831519
  endloop
endfacet
facet normal -0.0001788963049618413 -0.9999997662224189 0.0006599630442039791
  outer loop
    vertex 62.67158057409417 23.977541576499803 6.661366693719238
    vertex 65.52639236415503 23.975148776658575 4.934514774831519
    vertex 64.6359348762287 23.97771342339946 7.376617049023438
  endloop
endfacet
facet normal -0.0001788963049618413 -0.9999997662224189 0.0006599630442039791
  outer loop
    vertex 65.52639236415503 23.975148776658575 4.934514774831519
    vertex 62.67158057409417 23.977541576499803 6.661366693719238
    vertex 62.95354143120669 23.976538286713446 5.886685605632428
  endloop
endfacet
facet normal 7.555787837152965e-05 0.9999999971453093 -6.234678958186177e-07
  outer loop
    vertex 63.52642356279713 25.325654843366095 4.312704803874717
    vertex 55.754240107188394 25.32618228110413 3.2666792633145203
    vertex 62.95336465632445 25.32589059909775 5.887171214457535
  endloop
endfacet
facet normal 7.555787837152965e-05 0.9999999971453093 -6.234678958186177e-07
  outer loop
    vertex 55.754240107188394 25.32618228110413 3.2666792633145203
    vertex 63.52642356279713 25.325654843366095 4.312704803874717
    vertex 56.3280782267209 25.326390256525713 1.6924305466525946
  endloop
endfacet
facet normal 0.9395354021875263 -2.5354564052160534e-05 0.3424517884220627
  outer loop
    vertex 55.754333188445884 23.976303287200544 3.2663883280444717
    vertex 55.65697180328054 26.777728373442955 3.5338229721136485
    vertex 55.657048335988215 23.976294255147472 3.5336061545020336
  endloop
endfacet
facet normal 0.9395354021875263 -2.5354564052160534e-05 0.3424517884220627
  outer loop
    vertex 55.65697180328054 26.777728373442955 3.5338229721136485
    vertex 55.754333188445884 23.976303287200544 3.2663883280444717
    vertex 55.754240107188394 25.32618228110413 3.2666792633145203
  endloop
endfacet
facet normal 0.9395354021875263 -2.5354564052160534e-05 0.3424517884220627
  outer loop
    vertex 55.65697180328054 26.777728373442955 3.5338229721136485
    vertex 55.754240107188394 25.32618228110413 3.2666792633145203
    vertex 56.3280782267209 25.326390256525713 1.6924305466525946
  endloop
endfacet
facet normal 0.9395354021875263 -2.5354564052160534e-05 0.3424517884220627
  outer loop
    vertex 55.65697180328054 26.777728373442955 3.5338229721136485
    vertex 56.3280782267209 25.326390256525713 1.6924305466525946
    vertex 56.32817374292358 26.778225391312862 1.69242511060216
  endloop
endfacet
facet normal -0.3421894277713592 -0.0002896026052125743 0.9396309443881896
  outer loop
    vertex 55.756207495039384 31.125939802594118 3.2671042923581206
    vertex 62.95319215702247 29.775812801119123 5.887644897150888
    vertex 62.95319215702247 31.12606462680304 5.887644897150888
  endloop
endfacet
facet normal -0.3421894277713592 -0.0002896026052125743 0.9396309443881896
  outer loop
    vertex 62.95319215702247 29.775812801119123 5.887644897150888
    vertex 55.756207495039384 31.125939802594118 3.2671042923581206
    vertex 55.75647589393303 29.77587351629266 3.2663697171079433
  endloop
endfacet
facet normal 0.9397021147687502 -0.00014369198785792173 0.3419940275088897
  outer loop
    vertex 56.328597444102755 29.77589556974978 1.6939902965031493
    vertex 55.75647589393303 29.77587351629266 3.2663697171079433
    vertex 56.3284073784408 29.129975059644657 1.6944489536799923
  endloop
endfacet
facet normal 0.9397021147687502 -0.00014369198785792173 0.3419940275088897
  outer loop
    vertex 55.65372884183506 29.129478094738616 3.5479512817444983
    vertex 55.75647589393303 29.77587351629266 3.2663697171079433
    vertex 55.65389648198569 31.125854322748197 3.548809292418324
  endloop
endfacet
facet normal 0.9397021147687502 -0.00014369198785792173 0.3419940275088897
  outer loop
    vertex 55.75647589393303 29.77587351629266 3.2663697171079433
    vertex 55.65372884183506 29.129478094738616 3.5479512817444983
    vertex 56.3284073784408 29.129975059644657 1.6944489536799923
  endloop
endfacet
facet normal 0.9397021147687502 -0.00014369198785792173 0.3419940275088897
  outer loop
    vertex 55.65389648198569 31.125854322748197 3.548809292418324
    vertex 55.75647589393303 29.77587351629266 3.2663697171079433
    vertex 55.756207495039384 31.125939802594118 3.2671042923581206
  endloop
endfacet
facet normal -0.3420330759506985 -0.0003045190957580075 0.9396878642527124
  outer loop
    vertex 62.95336465632445 25.32589059909775 5.887171214457535
    vertex 55.754333188445884 23.976303287200544 3.2663883280444717
    vertex 62.95354143120669 23.976538286713446 5.886685605632428
  endloop
endfacet
facet normal -0.3420330759506985 -0.0003045190957580075 0.9396878642527124
  outer loop
    vertex 55.754333188445884 23.976303287200544 3.2663883280444717
    vertex 62.95336465632445 25.32589059909775 5.887171214457535
    vertex 55.754240107188394 25.32618228110413 3.2666792633145203
  endloop
endfacet
facet normal -0.3420449366039904 -2.027851150468587e-05 0.9396835961813712
  outer loop
    vertex 62.67145856768719 31.126056642828424 6.661701592913084
    vertex 64.6359348762287 23.97771342339946 7.376617049023438
    vertex 64.63775182842753 31.12583725607191 7.37720762156531
  endloop
endfacet
facet normal -0.3420449366039904 -2.027851150468587e-05 0.9396835961813712
  outer loop
    vertex 64.6359348762287 23.97771342339946 7.376617049023438
    vertex 62.67145856768719 31.126056642828424 6.661701592913084
    vertex 62.67158057409417 23.977541576499803 6.661366693719238
  endloop
endfacet
facet normal 0.9395560178899378 -0.00020117527883518478 0.34239516464942993
  outer loop
    vertex 65.52639236415503 23.975148776658575 4.934514774831519
    vertex 65.39840280055836 27.624428791395093 5.286302719938073
    vertex 64.6359348762287 23.97771342339946 7.376617049023438
  endloop
endfacet
facet normal 0.9395560178899378 -0.00020117527883518478 0.34239516464942993
  outer loop
    vertex 65.39840280055836 27.624428791395093 5.286302719938073
    vertex 65.52639236415503 23.975148776658575 4.934514774831519
    vertex 65.42210874658791 27.812602810684822 5.221171158137772
  endloop
endfacet
facet normal 0.9395560178899378 -0.00020117527883518478 0.34239516464942993
  outer loop
    vertex 65.42210874658791 27.812602810684822 5.221171158137772
    vertex 65.52639236415503 23.975148776658575 4.934514774831519
    vertex 65.42906441843584 28.012102080933268 5.202060596795066
  endloop
endfacet
facet normal 0.9395560178899378 -0.00020117527883518478 0.34239516464942993
  outer loop
    vertex 65.42906441843584 28.012102080933268 5.202060596795066
    vertex 65.52639236415503 23.975148776658575 4.934514774831519
    vertex 65.52714741638258 31.126273583376538 4.93526858715399
  endloop
endfacet
facet normal 0.9395560178899378 -0.00020117527883518478 0.34239516464942993
  outer loop
    vertex 64.6359348762287 23.97771342339946 7.376617049023438
    vertex 65.39840280055836 27.624428791395093 5.286302719938073
    vertex 65.35943611212063 27.459403688751685 5.393362826630899
  endloop
endfacet
facet normal 0.9395560178899378 -0.00020117527883518478 0.34239516464942993
  outer loop
    vertex 64.6359348762287 23.97771342339946 7.376617049023438
    vertex 65.35943611212063 27.459403688751685 5.393362826630899
    vertex 65.30765710161872 27.327896636873565 5.5356244979732585
  endloop
endfacet
facet normal 0.9395560178899378 -0.00020117527883518478 0.34239516464942993
  outer loop
    vertex 64.6359348762287 23.97771342339946 7.376617049023438
    vertex 65.30765710161872 27.327896636873565 5.5356244979732585
    vertex 65.24631923471232 27.23817070747933 5.704148909952851
  endloop
endfacet
facet normal 0.9395560178899378 -0.00020117527883518478 0.34239516464942993
  outer loop
    vertex 64.6359348762287 23.97771342339946 7.376617049023438
    vertex 65.24631923471232 27.23817070747933 5.704148909952851
    vertex 65.17927659516405 27.195863710701712 5.888347053975553
  endloop
endfacet
facet normal 0.9395560178899378 -0.00020117527883518478 0.34239516464942993
  outer loop
    vertex 65.42906441843584 28.012102080933268 5.202060596795066
    vertex 65.52714741638258 31.126273583376538 4.93526858715399
    vertex 65.41883276565888 28.210391329283734 5.230171822762858
  endloop
endfacet
facet normal 0.9395560178899378 -0.00020117527883518478 0.34239516464942993
  outer loop
    vertex 65.41883276565888 28.210391329283734 5.230171822762858
    vertex 65.52714741638258 31.126273583376538 4.93526858715399
    vertex 65.39205668063018 28.395011313005508 5.3037385043276934
  endloop
endfacet
facet normal 0.9395560178899378 -0.00020117527883518478 0.34239516464942993
  outer loop
    vertex 65.39205668063018 28.395011313005508 5.3037385043276934
    vertex 65.52714741638258 31.126273583376538 4.93526858715399
    vertex 65.35041860324783 28.55436167953655 5.4181381763275525
  endloop
endfacet
facet normal 0.9395560178899378 -0.00020117527883518478 0.34239516464942993
  outer loop
    vertex 65.35041860324783 28.55436167953655 5.4181381763275525
    vertex 65.52714741638258 31.126273583376538 4.93526858715399
    vertex 65.29653480704785 28.678429859298063 5.566182686638128
  endloop
endfacet
facet normal 0.9395560178899378 -0.00020117527883518478 0.34239516464942993
  outer loop
    vertex 65.29653480704785 28.678429859298063 5.566182686638128
    vertex 65.52714741638258 31.126273583376538 4.93526858715399
    vertex 65.23379100911622 28.759420192264784 5.738569854206959
  endloop
endfacet
facet normal 0.9395560178899378 -0.00020117527883518478 0.34239516464942993
  outer loop
    vertex 65.23379100911622 28.759420192264784 5.738569854206959
    vertex 65.52714741638258 31.126273583376538 4.93526858715399
    vertex 65.16612963303253 28.792243757954804 5.924467959300066
  endloop
endfacet
facet normal 0.9395560178899378 -0.00020117527883518478 0.34239516464942993
  outer loop
    vertex 65.16612963303253 28.792243757954804 5.924467959300066
    vertex 65.52714741638258 31.126273583376538 4.93526858715399
    vertex 64.63775182842753 31.12583725607191 7.37720762156531
  endloop
endfacet
facet normal 0.9395560178899378 -0.00020117527883518478 0.34239516464942993
  outer loop
    vertex 64.6359348762287 23.97771342339946 7.376617049023438
    vertex 64.88497319537008 27.873501325070045 6.696938982865162
    vertex 64.63775182842753 31.12583725607191 7.37720762156531
  endloop
endfacet
facet normal 0.9395560178899378 -0.00020117527883518478 0.34239516464942993
  outer loop
    vertex 64.88497319537008 27.873501325070045 6.696938982865162
    vertex 64.6359348762287 23.97771342339946 7.376617049023438
    vertex 64.90362413248282 27.680525033334362 6.645695962578318
  endloop
endfacet
facet normal 0.9395560178899378 -0.00020117527883518478 0.34239516464942993
  outer loop
    vertex 64.90362413248282 27.680525033334362 6.645695962578318
    vertex 64.6359348762287 23.97771342339946 7.376617049023438
    vertex 64.93810309057127 27.507172925056423 6.550965810250356
  endloop
endfacet
facet normal 0.9395560178899378 -0.00020117527883518478 0.34239516464942993
  outer loop
    vertex 64.93810309057127 27.507172925056423 6.550965810250356
    vertex 64.6359348762287 23.97771342339946 7.376617049023438
    vertex 64.98624362989382 27.364337350743764 6.418700769745095
  endloop
endfacet
facet normal 0.9395560178899378 -0.00020117527883518478 0.34239516464942993
  outer loop
    vertex 64.98624362989382 27.364337350743764 6.418700769745095
    vertex 64.6359348762287 23.97771342339946 7.376617049023438
    vertex 65.04502090331648 27.26099319484297 6.257211539994315
  endloop
endfacet
facet normal 0.9395560178899378 -0.00020117527883518478 0.34239516464942993
  outer loop
    vertex 65.04502090331648 27.26099319484297 6.257211539994315
    vertex 64.6359348762287 23.97771342339946 7.376617049023438
    vertex 65.11074171858236 27.20363395074249 6.076645083219082
  endloop
endfacet
facet normal 0.9395560178899378 -0.00020117527883518478 0.34239516464942993
  outer loop
    vertex 65.11074171858236 27.20363395074249 6.076645083219082
    vertex 64.6359348762287 23.97771342339946 7.376617049023438
    vertex 65.17927659516405 27.195863710701712 5.888347053975553
  endloop
endfacet
facet normal 0.9395560178899378 -0.00020117527883518478 0.34239516464942993
  outer loop
    vertex 64.63775182842753 31.12583725607191 7.37720762156531
    vertex 64.88497319537008 27.873501325070045 6.696938982865162
    vertex 64.88332218620513 28.07397639013655 6.701475083687543
  endloop
endfacet
facet normal 0.9395560178899378 -0.00020117527883518478 0.34239516464942993
  outer loop
    vertex 64.63775182842753 31.12583725607191 7.37720762156531
    vertex 64.88332218620513 28.07397639013655 6.701475083687543
    vertex 64.89877484396581 28.269353642900036 6.659019245148218
  endloop
endfacet
facet normal 0.9395560178899378 -0.00020117527883518478 0.34239516464942993
  outer loop
    vertex 64.63775182842753 31.12583725607191 7.37720762156531
    vertex 64.89877484396581 28.269353642900036 6.659019245148218
    vertex 64.93036022133408 28.447356812022093 6.572239123724258
  endloop
endfacet
facet normal 0.9395560178899378 -0.00020117527883518478 0.34239516464942993
  outer loop
    vertex 64.63775182842753 31.12583725607191 7.37720762156531
    vertex 64.93036022133408 28.447356812022093 6.572239123724258
    vertex 64.97609369288703 28.596801303736935 6.446587433599683
  endloop
endfacet
facet normal 0.9395560178899378 -0.00020117527883518478 0.34239516464942993
  outer loop
    vertex 64.63775182842753 31.12583725607191 7.37720762156531
    vertex 64.97609369288703 28.596801303736935 6.446587433599683
    vertex 65.03310165641103 28.70829697101172 6.28995933257963
  endloop
endfacet
facet normal 0.9395560178899378 -0.00020117527883518478 0.34239516464942993
  outer loop
    vertex 64.63775182842753 31.12583725607191 7.37720762156531
    vertex 65.03310165641103 28.70829697101172 6.28995933257963
    vertex 65.09780209189725 28.774838131019195 6.112196340289031
  endloop
endfacet
facet normal 0.9395560178899378 -0.00020117527883518478 0.34239516464942993
  outer loop
    vertex 64.63775182842753 31.12583725607191 7.37720762156531
    vertex 65.09780209189725 28.774838131019195 6.112196340289031
    vertex 65.16612963303253 28.792243757954804 5.924467959300066
  endloop
endfacet
facet normal -0.9396926230153076 -1.6495452377944677e-08 -0.34202013720044455
  outer loop
    vertex 62.67158057409417 23.977541576499803 6.661366693719238
    vertex 62.95336465632445 25.32589059909775 5.887171214457535
    vertex 62.95354143120669 23.976538286713446 5.886685605632428
  endloop
endfacet
facet normal -0.9396926230153076 -1.6495452377944677e-08 -0.34202013720044455
  outer loop
    vertex 62.95336465632445 25.32589059909775 5.887171214457535
    vertex 62.67158057409417 23.977541576499803 6.661366693719238
    vertex 62.67145856768719 31.126056642828424 6.661701592913084
  endloop
endfacet
facet normal -0.9396926230153076 -1.6495452377944677e-08 -0.34202013720044455
  outer loop
    vertex 62.95336465632445 25.32589059909775 5.887171214457535
    vertex 62.67145856768719 31.126056642828424 6.661701592913084
    vertex 62.91906554523558 27.873501290562086 5.981407129206576
  endloop
endfacet
facet normal -0.9396926230153076 -1.6495452377944677e-08 -0.34202013720044455
  outer loop
    vertex 62.95336465632445 25.32589059909775 5.887171214457535
    vertex 62.91906554523558 27.873501290562086 5.981407129206576
    vertex 62.93771648234832 27.680524998826403 5.930164108919755
  endloop
endfacet
facet normal -0.9396926230153076 -1.6495452377944677e-08 -0.34202013720044455
  outer loop
    vertex 62.95336465632445 25.32589059909775 5.887171214457535
    vertex 62.93771648234832 27.680524998826403 5.930164108919755
    vertex 62.972195440436714 27.507172890548464 5.83543395659177
  endloop
endfacet
facet normal -0.9396926230153076 -1.6495452377944677e-08 -0.34202013720044455
  outer loop
    vertex 62.95336465632445 25.32589059909775 5.887171214457535
    vertex 62.972195440436714 27.507172890548464 5.83543395659177
    vertex 63.02033597975934 27.364337316235808 5.703168916086514
  endloop
endfacet
facet normal -0.9396926230153076 -1.6495452377944677e-08 -0.34202013720044455
  outer loop
    vertex 62.95336465632445 25.32589059909775 5.887171214457535
    vertex 63.02033597975934 27.364337316235808 5.703168916086514
    vertex 63.07911325318198 27.260993160335016 5.541679686335725
  endloop
endfacet
facet normal -0.9396926230153076 -1.6495452377944677e-08 -0.34202013720044455
  outer loop
    vertex 62.95336465632445 25.32589059909775 5.887171214457535
    vertex 63.07911325318198 27.260993160335016 5.541679686335725
    vertex 63.144834068447864 27.20363391623453 5.3611132295605035
  endloop
endfacet
facet normal -0.9396926230153076 -1.6495452377944677e-08 -0.34202013720044455
  outer loop
    vertex 62.95336465632445 25.32589059909775 5.887171214457535
    vertex 63.144834068447864 27.20363391623453 5.3611132295605035
    vertex 63.21336894502957 27.195863676193753 5.172815200316985
  endloop
endfacet
facet normal -0.9396926230153076 -1.6495452377944677e-08 -0.34202013720044455
  outer loop
    vertex 62.91906554523558 27.873501290562086 5.981407129206576
    vertex 62.67145856768719 31.126056642828424 6.661701592913084
    vertex 62.91741453607064 28.07397635562859 5.985943230028965
  endloop
endfacet
facet normal -0.9396926230153076 -1.6495452377944677e-08 -0.34202013720044455
  outer loop
    vertex 62.91741453607064 28.07397635562859 5.985943230028965
    vertex 62.67145856768719 31.126056642828424 6.661701592913084
    vertex 62.93286719383131 28.269353608392077 5.943487391489626
  endloop
endfacet
facet normal -0.9396926230153076 -1.6495452377944677e-08 -0.34202013720044455
  outer loop
    vertex 62.93286719383131 28.269353608392077 5.943487391489626
    vertex 62.67145856768719 31.126056642828424 6.661701592913084
    vertex 62.964452571199594 28.447356777514138 5.856707270065661
  endloop
endfacet
facet normal -0.9396926230153076 -1.6495452377944677e-08 -0.34202013720044455
  outer loop
    vertex 62.964452571199594 28.447356777514138 5.856707270065661
    vertex 62.67145856768719 31.126056642828424 6.661701592913084
    vertex 63.01018604275254 28.596801269228976 5.731055579941106
  endloop
endfacet
facet normal -0.9396926230153076 -1.6495452377944677e-08 -0.34202013720044455
  outer loop
    vertex 63.01018604275254 28.596801269228976 5.731055579941106
    vertex 62.67145856768719 31.126056642828424 6.661701592913084
    vertex 63.06719400627655 28.70829693650376 5.574427478921057
  endloop
endfacet
facet normal -0.9396926230153076 -1.6495452377944677e-08 -0.34202013720044455
  outer loop
    vertex 63.06719400627655 28.70829693650376 5.574427478921057
    vertex 62.67145856768719 31.126056642828424 6.661701592913084
    vertex 63.131894441762746 28.774838096511235 5.396664486630446
  endloop
endfacet
facet normal -0.9396926230153076 -1.6495452377944677e-08 -0.34202013720044455
  outer loop
    vertex 63.131894441762746 28.774838096511235 5.396664486630446
    vertex 62.67145856768719 31.126056642828424 6.661701592913084
    vertex 62.95319215702247 29.775812801119123 5.887644897150888
  endloop
endfacet
facet normal -0.9396926230153076 -1.6495452377944677e-08 -0.34202013720044455
  outer loop
    vertex 63.131894441762746 28.774838096511235 5.396664486630446
    vertex 62.95319215702247 29.775812801119123 5.887644897150888
    vertex 63.20022198289803 28.79224372344685 5.20893610564149
  endloop
endfacet
facet normal -0.9396926230153076 -1.6495452377944677e-08 -0.34202013720044455
  outer loop
    vertex 62.95319215702247 29.775812801119123 5.887644897150888
    vertex 62.67145856768719 31.126056642828424 6.661701592913084
    vertex 62.95319215702247 31.12606462680304 5.887644897150888
  endloop
endfacet
facet normal -0.9396926230153076 -1.6495452377944677e-08 -0.34202013720044455
  outer loop
    vertex 63.52642356279713 25.325654843366095 4.312704803874717
    vertex 63.456201096453405 27.812602776176863 4.505639304479187
    vertex 63.526331234545985 29.775812801119123 4.312958223447956
  endloop
endfacet
facet normal -0.9396926230153076 -1.6495452377944677e-08 -0.34202013720044455
  outer loop
    vertex 63.456201096453405 27.812602776176863 4.505639304479187
    vertex 63.52642356279713 25.325654843366095 4.312704803874717
    vertex 63.43249515042388 27.624428756887134 4.5707708662794975
  endloop
endfacet
facet normal -0.9396926230153076 -1.6495452377944677e-08 -0.34202013720044455
  outer loop
    vertex 63.43249515042388 27.624428756887134 4.5707708662794975
    vertex 63.52642356279713 25.325654843366095 4.312704803874717
    vertex 62.95336465632445 25.32589059909775 5.887171214457535
  endloop
endfacet
facet normal -0.9396926230153076 -1.6495452377944677e-08 -0.34202013720044455
  outer loop
    vertex 63.43249515042388 27.624428756887134 4.5707708662794975
    vertex 62.95336465632445 25.32589059909775 5.887171214457535
    vertex 63.393528461986136 27.459403654243726 4.677830972972332
  endloop
endfacet
facet normal -0.9396926230153076 -1.6495452377944677e-08 -0.34202013720044455
  outer loop
    vertex 63.393528461986136 27.459403654243726 4.677830972972332
    vertex 62.95336465632445 25.32589059909775 5.887171214457535
    vertex 63.34174945148422 27.32789660236561 4.820092644314692
  endloop
endfacet
facet normal -0.9396926230153076 -1.6495452377944677e-08 -0.34202013720044455
  outer loop
    vertex 63.34174945148422 27.32789660236561 4.820092644314692
    vertex 62.95336465632445 25.32589059909775 5.887171214457535
    vertex 63.28041158457782 27.23817067297137 4.98861705629427
  endloop
endfacet
facet normal -0.9396926230153076 -1.6495452377944677e-08 -0.34202013720044455
  outer loop
    vertex 63.28041158457782 27.23817067297137 4.98861705629427
    vertex 62.95336465632445 25.32589059909775 5.887171214457535
    vertex 63.21336894502957 27.195863676193753 5.172815200316985
  endloop
endfacet
facet normal -0.9396926230153076 -1.6495452377944677e-08 -0.34202013720044455
  outer loop
    vertex 63.526331234545985 29.775812801119123 4.312958223447956
    vertex 63.456201096453405 27.812602776176863 4.505639304479187
    vertex 63.463156768301346 28.012102046425312 4.486528743136497
  endloop
endfacet
facet normal -0.9396926230153076 -1.6495452377944677e-08 -0.34202013720044455
  outer loop
    vertex 63.526331234545985 29.775812801119123 4.312958223447956
    vertex 63.463156768301346 28.012102046425312 4.486528743136497
    vertex 63.452925115524316 28.210391294775775 4.514639969104278
  endloop
endfacet
facet normal -0.9396926230153076 -1.6495452377944677e-08 -0.34202013720044455
  outer loop
    vertex 63.526331234545985 29.775812801119123 4.312958223447956
    vertex 63.452925115524316 28.210391294775775 4.514639969104278
    vertex 63.42614903049568 28.39501127849755 4.588206650669127
  endloop
endfacet
facet normal -0.9396926230153076 -1.6495452377944677e-08 -0.34202013720044455
  outer loop
    vertex 63.526331234545985 29.775812801119123 4.312958223447956
    vertex 63.42614903049568 28.39501127849755 4.588206650669127
    vertex 63.38451095311334 28.554361645028592 4.702606322668988
  endloop
endfacet
facet normal -0.9396926230153076 -1.6495452377944677e-08 -0.34202013720044455
  outer loop
    vertex 63.526331234545985 29.775812801119123 4.312958223447956
    vertex 63.38451095311334 28.554361645028592 4.702606322668988
    vertex 63.33062715691335 28.678429824790108 4.8506508329795555
  endloop
endfacet
facet normal -0.9396926230153076 -1.6495452377944677e-08 -0.34202013720044455
  outer loop
    vertex 63.526331234545985 29.775812801119123 4.312958223447956
    vertex 63.33062715691335 28.678429824790108 4.8506508329795555
    vertex 63.26788335898171 28.759420157756825 5.023038000548376
  endloop
endfacet
facet normal -0.9396926230153076 -1.6495452377944677e-08 -0.34202013720044455
  outer loop
    vertex 63.526331234545985 29.775812801119123 4.312958223447956
    vertex 63.26788335898171 28.759420157756825 5.023038000548376
    vertex 63.20022198289803 28.79224372344685 5.20893610564149
  endloop
endfacet
facet normal -0.9396926230153076 -1.6495452377944677e-08 -0.34202013720044455
  outer loop
    vertex 63.526331234545985 29.775812801119123 4.312958223447956
    vertex 63.20022198289803 28.79224372344685 5.20893610564149
    vertex 62.95319215702247 29.775812801119123 5.887644897150888
  endloop
endfacet
facet normal -0.33819153776918137 -0.0012645248150492225 0.941076450007282
  outer loop
    vertex 53.303153453007525 31.1259017508086 2.694527016276406
    vertex 55.65372884183506 29.129478094738616 3.5479512817444983
    vertex 55.65389648198569 31.125854322748197 3.548809292418324
  endloop
endfacet
facet normal -0.33819153776918137 -0.0012645248150492225 0.941076450007282
  outer loop
    vertex 55.65372884183506 29.129478094738616 3.5479512817444983
    vertex 53.303153453007525 31.1259017508086 2.694527016276406
    vertex 55.17980611108476 29.129517010967746 3.3604132408528575
  endloop
endfacet
facet normal -0.33819153776918137 -0.0012645248150492225 0.941076450007282
  outer loop
    vertex 55.187040645403115 26.777988965221972 3.36304639600352
    vertex 55.657048335988215 23.976294255147472 3.5336061545020336
    vertex 55.65697180328054 26.777728373442955 3.5338229721136485
  endloop
endfacet
facet normal -0.33819153776918137 -0.0012645248150492225 0.941076450007282
  outer loop
    vertex 55.657048335988215 23.976294255147472 3.5336061545020336
    vertex 55.187040645403115 26.777988965221972 3.36304639600352
    vertex 53.30329038159089 23.975908778021246 2.6935828449950487
  endloop
endfacet
facet normal -0.33819153776918137 -0.0012645248150492225 0.941076450007282
  outer loop
    vertex 53.30329038159089 23.975908778021246 2.6935828449950487
    vertex 55.187040645403115 26.777988965221972 3.36304639600352
    vertex 55.17980611108476 29.129517010967746 3.3604132408528575
  endloop
endfacet
facet normal -0.33819153776918137 -0.0012645248150492225 0.941076450007282
  outer loop
    vertex 53.30329038159089 23.975908778021246 2.6935828449950487
    vertex 55.17980611108476 29.129517010967746 3.3604132408528575
    vertex 53.303153453007525 31.1259017508086 2.694527016276406
  endloop
endfacet
facet normal 0.9414882599192652 0.004899031477884827 0.3370101718417009
  outer loop
    vertex 55.42392895160577 29.129563087288375 2.6671814148366546
    vertex 55.187040645403115 26.777988965221972 3.36304639600352
    vertex 55.4348674487105 26.777886746852055 2.682147754579846
  endloop
endfacet
facet normal 0.9414882599192652 0.004899031477884827 0.3370101718417009
  outer loop
    vertex 55.187040645403115 26.777988965221972 3.36304639600352
    vertex 55.42392895160577 29.129563087288375 2.6671814148366546
    vertex 55.17980611108476 29.129517010967746 3.3604132408528575
  endloop
endfacet
facet normal 0.5985222197884467 -0.001171452913767238 -0.8011053489507991
  outer loop
    vertex 54.51606408503586 26.778178722998287 1.9923562079423383
    vertex 55.42392895160577 29.129563087288375 2.6671814148366546
    vertex 55.4348674487105 26.777886746852055 2.682147754579846
  endloop
endfacet
facet normal 0.5985222197884467 -0.001171452913767238 -0.8011053489507991
  outer loop
    vertex 55.42392895160577 29.129563087288375 2.6671814148366546
    vertex 54.51606408503586 26.778178722998287 1.9923562079423383
    vertex 54.51643418279736 29.129909206534666 1.99254882550934
  endloop
endfacet
facet normal 0.32913146353109607 0.2719334821656887 -0.9042812952788098
  outer loop
    vertex 62.93771648234832 27.680524998826403 5.930164108919755
    vertex 64.88497319537008 27.873501325070045 6.696938982865162
    vertex 64.90362413248282 27.680525033334362 6.645695962578318
  endloop
endfacet
facet normal 0.32913146353109607 0.2719334821656887 -0.9042812952788098
  outer loop
    vertex 64.88497319537008 27.873501325070045 6.696938982865162
    vertex 62.93771648234832 27.680524998826403 5.930164108919755
    vertex 62.91906554523558 27.873501290562086 5.981407129206576
  endloop
endfacet
facet normal 0.2956613572452905 0.502708461817941 -0.8123229433227356
  outer loop
    vertex 62.972195440436714 27.507172890548464 5.83543395659177
    vertex 64.90362413248282 27.680525033334362 6.645695962578318
    vertex 64.93810309057127 27.507172925056423 6.550965810250356
  endloop
endfacet
facet normal 0.2956613572452905 0.502708461817941 -0.8123229433227356
  outer loop
    vertex 64.90362413248282 27.680525033334362 6.645695962578318
    vertex 62.972195440436714 27.507172890548464 5.83543395659177
    vertex 62.93771648234832 27.680524998826403 5.930164108919755
  endloop
endfacet
facet normal 0.24361376051737288 0.7018964199816919 -0.6693233533229426
  outer loop
    vertex 63.02033597975934 27.364337316235808 5.703168916086514
    vertex 64.93810309057127 27.507172925056423 6.550965810250356
    vertex 64.98624362989382 27.364337350743764 6.418700769745095
  endloop
endfacet
facet normal 0.24361376051737288 0.7018964199816919 -0.6693233533229426
  outer loop
    vertex 64.93810309057127 27.507172925056423 6.550965810250356
    vertex 63.02033597975934 27.364337316235808 5.703168916086514
    vertex 62.972195440436714 27.507172890548464 5.83543395659177
  endloop
endfacet
facet normal 0.17625901526738455 0.8569816446836136 -0.48426771543469677
  outer loop
    vertex 64.98624362989382 27.364337350743764 6.418700769745095
    vertex 63.07911325318198 27.260993160335016 5.541679686335725
    vertex 63.02033597975934 27.364337316235808 5.703168916086514
  endloop
endfacet
facet normal 0.17625901526738455 0.8569816446836136 -0.48426771543469677
  outer loop
    vertex 63.07911325318198 27.260993160335016 5.541679686335725
    vertex 64.98624362989382 27.364337350743764 6.418700769745095
    vertex 65.04502090331648 27.26099319484297 6.257211539994315
  endloop
endfacet
facet normal 0.097829267852864 0.9582195608919928 -0.2687837559736993
  outer loop
    vertex 65.04502090331648 27.26099319484297 6.257211539994315
    vertex 63.144834068447864 27.20363391623453 5.3611132295605035
    vertex 63.07911325318198 27.260993160335016 5.541679686335725
  endloop
endfacet
facet normal 0.097829267852864 0.9582195608919928 -0.2687837559736993
  outer loop
    vertex 63.144834068447864 27.20363391623453 5.3611132295605035
    vertex 65.04502090331648 27.26099319484297 6.257211539994315
    vertex 65.11074171858236 27.20363395074249 6.076645083219082
  endloop
endfacet
facet normal 0.013252547748230087 0.9992490180045289 -0.036411124607262396
  outer loop
    vertex 65.11074171858236 27.20363395074249 6.076645083219082
    vertex 63.21336894502957 27.195863676193753 5.172815200316985
    vertex 63.144834068447864 27.20363391623453 5.3611132295605035
  endloop
endfacet
facet normal 0.013252547748230087 0.9992490180045289 -0.036411124607262396
  outer loop
    vertex 63.21336894502957 27.195863676193753 5.172815200316985
    vertex 65.11074171858236 27.20363395074249 6.076645083219082
    vertex 65.17927659516405 27.195863710701712 5.888347053975553
  endloop
endfacet
facet normal -0.07215687867085462 0.9774919843350103 0.19824935162891072
  outer loop
    vertex 65.17927659516405 27.195863710701712 5.888347053975553
    vertex 63.28041158457782 27.23817067297137 4.98861705629427
    vertex 63.21336894502957 27.195863676193753 5.172815200316985
  endloop
endfacet
facet normal -0.07215687867085462 0.9774919843350103 0.19824935162891072
  outer loop
    vertex 63.28041158457782 27.23817067297137 4.98861705629427
    vertex 65.17927659516405 27.195863710701712 5.888347053975553
    vertex 65.24631923471232 27.23817070747933 5.704148909952851
  endloop
endfacet
facet normal -0.1530324230286268 0.8943155343256743 0.4204530919921641
  outer loop
    vertex 65.24631923471232 27.23817070747933 5.704148909952851
    vertex 63.34174945148422 27.32789660236561 4.820092644314692
    vertex 63.28041158457782 27.23817067297137 4.98861705629427
  endloop
endfacet
facet normal -0.1530324230286268 0.8943155343256743 0.4204530919921641
  outer loop
    vertex 63.34174945148422 27.32789660236561 4.820092644314692
    vertex 65.24631923471232 27.23817070747933 5.704148909952851
    vertex 65.30765710161872 27.327896636873565 5.5356244979732585
  endloop
endfacet
facet normal -0.22429237743361982 0.7549459502322102 0.6162382182672215
  outer loop
    vertex 65.30765710161872 27.327896636873565 5.5356244979732585
    vertex 63.393528461986136 27.459403654243726 4.677830972972332
    vertex 63.34174945148422 27.32789660236561 4.820092644314692
  endloop
endfacet
facet normal -0.22429237743361982 0.7549459502322102 0.6162382182672215
  outer loop
    vertex 63.393528461986136 27.459403654243726 4.677830972972332
    vertex 65.30765710161872 27.327896636873565 5.5356244979732585
    vertex 65.35943611212063 27.459403688751685 5.393362826630899
  endloop
endfacet
facet normal -0.2814592168748105 0.5681403355886281 0.773302830922957
  outer loop
    vertex 65.39840280055836 27.624428791395093 5.286302719938073
    vertex 63.393528461986136 27.459403654243726 4.677830972972332
    vertex 65.35943611212063 27.459403688751685 5.393362826630899
  endloop
endfacet
facet normal -0.2814592168748105 0.5681403355886281 0.773302830922957
  outer loop
    vertex 63.393528461986136 27.459403654243726 4.677830972972332
    vertex 65.39840280055836 27.624428791395093 5.286302719938073
    vertex 63.43249515042388 27.624428756887134 4.5707708662794975
  endloop
endfacet
facet normal -0.3209409385851527 0.34563637418606935 0.881777982702896
  outer loop
    vertex 65.42210874658791 27.812602810684822 5.221171158137772
    vertex 63.43249515042388 27.624428756887134 4.5707708662794975
    vertex 65.39840280055836 27.624428791395093 5.286302719938073
  endloop
endfacet
facet normal -0.3209409385851527 0.34563637418606935 0.881777982702896
  outer loop
    vertex 63.43249515042388 27.624428756887134 4.5707708662794975
    vertex 65.42210874658791 27.812602810684822 5.221171158137772
    vertex 63.456201096453405 27.812602776176863 4.505639304479187
  endloop
endfacet
facet normal -0.3402567607859887 0.1014148082317104 0.9348477808770538
  outer loop
    vertex 65.42906441843584 28.012102080933268 5.202060596795066
    vertex 63.456201096453405 27.812602776176863 4.505639304479187
    vertex 65.42210874658791 27.812602810684822 5.221171158137772
  endloop
endfacet
facet normal -0.3402567607859887 0.1014148082317104 0.9348477808770538
  outer loop
    vertex 63.456201096453405 27.812602776176863 4.505639304479187
    vertex 65.42906441843584 28.012102080933268 5.202060596795066
    vertex 63.463156768301346 28.012102046425312 4.486528743136497
  endloop
endfacet
facet normal -0.33819299932980973 -0.14917902310141676 0.9291776548490683
  outer loop
    vertex 65.41883276565888 28.210391329283734 5.230171822762858
    vertex 63.463156768301346 28.012102046425312 4.486528743136497
    vertex 65.42906441843584 28.012102080933268 5.202060596795066
  endloop
endfacet
facet normal -0.33819299932980973 -0.14917902310141676 0.9291776548490683
  outer loop
    vertex 63.463156768301346 28.012102046425312 4.486528743136497
    vertex 65.41883276565888 28.210391329283734 5.230171822762858
    vertex 63.452925115524316 28.210391294775775 4.514639969104278
  endloop
endfacet
facet normal -0.3148793279388912 -0.39039938777101835 0.8651238794905423
  outer loop
    vertex 65.39205668063018 28.395011313005508 5.3037385043276934
    vertex 63.452925115524316 28.210391294775775 4.514639969104278
    vertex 65.41883276565888 28.210391329283734 5.230171822762858
  endloop
endfacet
facet normal -0.3148793279388912 -0.39039938777101835 0.8651238794905423
  outer loop
    vertex 63.452925115524316 28.210391294775775 4.514639969104278
    vertex 65.39205668063018 28.395011313005508 5.3037385043276934
    vertex 63.42614903049568 28.39501127849755 4.588206650669127
  endloop
endfacet
facet normal -0.2717806303284104 -0.607089523118451 0.74671118908056
  outer loop
    vertex 65.35041860324783 28.55436167953655 5.4181381763275525
    vertex 63.42614903049568 28.39501127849755 4.588206650669127
    vertex 65.39205668063018 28.395011313005508 5.3037385043276934
  endloop
endfacet
facet normal -0.2717806303284104 -0.607089523118451 0.74671118908056
  outer loop
    vertex 63.42614903049568 28.39501127849755 4.588206650669127
    vertex 65.35041860324783 28.55436167953655 5.4181381763275525
    vertex 63.38451095311334 28.554361645028592 4.702606322668988
  endloop
endfacet
facet normal -0.2116049561751561 -0.785633991009265 0.5813798884489939
  outer loop
    vertex 63.38451095311334 28.554361645028592 4.702606322668988
    vertex 65.29653480704785 28.678429859298063 5.566182686638128
    vertex 63.33062715691335 28.678429824790108 4.8506508329795555
  endloop
endfacet
facet normal -0.2116049561751561 -0.785633991009265 0.5813798884489939
  outer loop
    vertex 65.29653480704785 28.678429859298063 5.566182686638128
    vertex 63.38451095311334 28.554361645028592 4.702606322668988
    vertex 65.35041860324783 28.55436167953655 5.4181381763275525
  endloop
endfacet
facet normal -0.13813336439682522 -0.914814185885263 0.37951835126051253
  outer loop
    vertex 63.33062715691335 28.678429824790108 4.8506508329795555
    vertex 65.23379100911622 28.759420192264784 5.738569854206959
    vertex 63.26788335898171 28.759420157756825 5.023038000548376
  endloop
endfacet
facet normal -0.13813336439682522 -0.914814185885263 0.37951835126051253
  outer loop
    vertex 65.23379100911622 28.759420192264784 5.738569854206959
    vertex 63.33062715691335 28.678429824790108 4.8506508329795555
    vertex 65.29653480704785 28.678429859298063 5.566182686638128
  endloop
endfacet
facet normal -0.05598234531446852 -0.9865132410108576 0.15381028029148544
  outer loop
    vertex 63.26788335898171 28.759420157756825 5.023038000548376
    vertex 65.16612963303253 28.792243757954804 5.924467959300066
    vertex 63.20022198289803 28.79224372344685 5.20893610564149
  endloop
endfacet
facet normal -0.05598234531446852 -0.9865132410108576 0.15381028029148544
  outer loop
    vertex 65.16612963303253 28.792243757954804 5.924467959300066
    vertex 63.26788335898171 28.759420157756825 5.023038000548376
    vertex 65.23379100911622 28.759420192264784 5.738569854206959
  endloop
endfacet
facet normal 0.02968625041265943 -0.9962260410618379 -0.08156225626289511
  outer loop
    vertex 63.20022198289803 28.79224372344685 5.20893610564149
    vertex 65.09780209189725 28.774838131019195 6.112196340289031
    vertex 63.131894441762746 28.774838096511235 5.396664486630446
  endloop
endfacet
facet normal 0.02968625041265943 -0.9962260410618379 -0.08156225626289511
  outer loop
    vertex 65.09780209189725 28.774838131019195 6.112196340289031
    vertex 63.20022198289803 28.79224372344685 5.20893610564149
    vertex 65.16612963303253 28.792243757954804 5.924467959300066
  endloop
endfacet
facet normal 0.11348954984798804 -0.9433422950898012 -0.311809936291337
  outer loop
    vertex 63.131894441762746 28.774838096511235 5.396664486630446
    vertex 65.03310165641103 28.70829697101172 6.28995933257963
    vertex 63.06719400627655 28.70829693650376 5.574427478921057
  endloop
endfacet
facet normal 0.11348954984798804 -0.9433422950898012 -0.311809936291337
  outer loop
    vertex 65.03310165641103 28.70829697101172 6.28995933257963
    vertex 63.131894441762746 28.774838096511235 5.396664486630446
    vertex 65.09780209189725 28.774838131019195 6.112196340289031
  endloop
endfacet
facet normal 0.19016188348097568 -0.8311848833470158 -0.5224654512657996
  outer loop
    vertex 63.06719400627655 28.70829693650376 5.574427478921057
    vertex 64.97609369288703 28.596801303736935 6.446587433599683
    vertex 63.01018604275254 28.596801269228976 5.731055579941106
  endloop
endfacet
facet normal 0.19016188348097568 -0.8311848833470158 -0.5224654512657996
  outer loop
    vertex 64.97609369288703 28.596801303736935 6.446587433599683
    vertex 63.06719400627655 28.70829693650376 5.574427478921057
    vertex 65.03310165641103 28.70829697101172 6.28995933257963
  endloop
endfacet
facet normal 0.25488564660837426 -0.6668010684993669 -0.7002925404437303
  outer loop
    vertex 62.964452571199594 28.447356777514138 5.856707270065661
    vertex 64.97609369288703 28.596801303736935 6.446587433599683
    vertex 64.93036022133408 28.447356812022093 6.572239123724258
  endloop
endfacet
facet normal 0.25488564660837426 -0.6668010684993669 -0.7002925404437303
  outer loop
    vertex 64.97609369288703 28.596801303736935 6.446587433599683
    vertex 62.964452571199594 28.447356777514138 5.856707270065661
    vertex 63.01018604275254 28.596801269228976 5.731055579941106
  endloop
endfacet
facet normal 0.3035940071555322 -0.46051969019512756 -0.8341176738097751
  outer loop
    vertex 62.93286719383131 28.269353608392077 5.943487391489626
    vertex 64.93036022133408 28.447356812022093 6.572239123724258
    vertex 64.89877484396581 28.269353642900036 6.659019245148218
  endloop
endfacet
facet normal 0.3035940071555322 -0.46051969019512756 -0.8341176738097751
  outer loop
    vertex 64.93036022133408 28.447356812022093 6.572239123724258
    vertex 62.93286719383131 28.269353608392077 5.943487391489626
    vertex 62.964452571199594 28.447356777514138 5.856707270065661
  endloop
endfacet
facet normal 0.3332264396924599 -0.2253021660829368 -0.9155321260601532
  outer loop
    vertex 62.91741453607064 28.07397635562859 5.985943230028965
    vertex 64.89877484396581 28.269353642900036 6.659019245148218
    vertex 64.88332218620513 28.07397639013655 6.701475083687543
  endloop
endfacet
facet normal 0.3332264396924599 -0.2253021660829368 -0.9155321260601532
  outer loop
    vertex 64.89877484396581 28.269353642900036 6.659019245148218
    vertex 62.91741453607064 28.07397635562859 5.985943230028965
    vertex 62.93286719383131 28.269353608392077 5.943487391489626
  endloop
endfacet
facet normal 0.3419210295023868 0.02407192172760814 -0.9394203277385305
  outer loop
    vertex 62.91906554523558 27.873501290562086 5.981407129206576
    vertex 64.88332218620513 28.07397639013655 6.701475083687543
    vertex 64.88497319537008 27.873501325070045 6.696938982865162
  endloop
endfacet
facet normal 0.3419210295023868 0.02407192172760814 -0.9394203277385305
  outer loop
    vertex 64.88332218620513 28.07397639013655 6.701475083687543
    vertex 62.91906554523558 27.873501290562086 5.981407129206576
    vertex 62.91741453607064 28.07397635562859 5.985943230028965
  endloop
endfacet
facet normal 0.3420563392083278 6.293716794288483e-05 -0.9396794436648651
  outer loop
    vertex 66.4491217336761 23.175146713006143 4.7382511224879345
    vertex 63.55873332568354 27.215653617921078 3.6863803102336057
    vertex 63.59148317181347 27.736997225339607 3.6983366262334516
  endloop
endfacet
facet normal 0.3420563392083278 6.293716794288483e-05 -0.9396794436648651
  outer loop
    vertex 63.55873332568354 27.215653617921078 3.6863803102336057
    vertex 66.4491217336761 23.175146713006143 4.7382511224879345
    vertex 63.44091967614502 26.829944270880027 3.6434686754248173
  endloop
endfacet
facet normal 0.3420563392083278 6.293716794288483e-05 -0.9396794436648651
  outer loop
    vertex 63.44091967614502 26.829944270880027 3.6434686754248173
    vertex 66.4491217336761 23.175146713006143 4.7382511224879345
    vertex 63.15042972429309 26.288894279082747 3.53769006939955
  endloop
endfacet
facet normal 0.3420563392083278 6.293716794288483e-05 -0.9396794436648651
  outer loop
    vertex 63.15042972429309 26.288894279082747 3.53769006939955
    vertex 66.4491217336761 23.175146713006143 4.7382511224879345
    vertex 62.80309551184691 25.946592020669293 3.4112326763736647
  endloop
endfacet
facet normal 0.3420563392083278 6.293716794288483e-05 -0.9396794436648651
  outer loop
    vertex 62.80309551184691 25.946592020669293 3.4112326763736647
    vertex 66.4491217336761 23.175146713006143 4.7382511224879345
    vertex 62.38968696768198 25.71818408283518 3.2607309393007733
  endloop
endfacet
facet normal 0.3420563392083278 6.293716794288483e-05 -0.9396794436648651
  outer loop
    vertex 62.38968696768198 25.71818408283518 3.2607309393007733
    vertex 66.4491217336761 23.175146713006143 4.7382511224879345
    vertex 53.432443896252984 23.175003701149244 1.127986593019159e-14
  endloop
endfacet
facet normal 0.3420563392083278 6.293716794288483e-05 -0.9396794436648651
  outer loop
    vertex 62.38968696768198 25.71818408283518 3.2607309393007733
    vertex 53.432443896252984 23.175003701149244 1.127986593019159e-14
    vertex 61.93837724361199 25.61923609877889 3.096441318397404
  endloop
endfacet
facet normal 0.3420563392083278 6.293716794288483e-05 -0.9396794436648651
  outer loop
    vertex 61.93837724361199 25.61923609877889 3.096441318397404
    vertex 53.432443896252984 23.175003701149244 1.127986593019159e-14
    vertex 58.2942317386908 25.656391041100456 1.769924343983788
  endloop
endfacet
facet normal 0.3420563392083278 6.293716794288483e-05 -0.9396794436648651
  outer loop
    vertex 58.2942317386908 25.656391041100456 1.769924343983788
    vertex 53.432443896252984 23.175003701149244 1.127986593019159e-14
    vertex 57.859874541452214 25.827310360386967 1.6118237527450479
  endloop
endfacet
facet normal 0.3420563392083278 6.293716794288483e-05 -0.9396794436648651
  outer loop
    vertex 57.859874541452214 25.827310360386967 1.6118237527450479
    vertex 53.432443896252984 23.175003701149244 1.127986593019159e-14
    vertex 57.47921581976146 26.120246050021027 1.473278323062329
  endloop
endfacet
facet normal 0.3420563392083278 6.293716794288483e-05 -0.9396794436648651
  outer loop
    vertex 57.47921581976146 26.120246050021027 1.473278323062329
    vertex 53.432443896252984 23.175003701149244 1.127986593019159e-14
    vertex 57.17819681657524 26.515234983620196 1.363729689779802
  endloop
endfacet
facet normal 0.3420563392083278 6.293716794288483e-05 -0.9396794436648651
  outer loop
    vertex 57.17819681657524 26.515234983620196 1.363729689779802
    vertex 53.432443896252984 23.175003701149244 1.127986593019159e-14
    vertex 56.97733150436566 26.985359365251455 1.2906434202714177
  endloop
endfacet
facet normal 0.3420563392083278 6.293716794288483e-05 -0.9396794436648651
  outer loop
    vertex 56.97733150436566 26.985359365251455 1.2906434202714177
    vertex 53.432443896252984 23.175003701149244 1.127986593019159e-14
    vertex 56.89030853139672 27.498580972655507 1.259000226364443
  endloop
endfacet
facet normal 0.3420563392083278 6.293716794288483e-05 -0.9396794436648651
  outer loop
    vertex 56.89030853139672 27.498580972655507 1.259000226364443
    vertex 53.432443896252984 23.175003701149244 1.127986593019159e-14
    vertex 53.432334215260596 31.92631022398039 0.0005462132571663059
  endloop
endfacet
facet normal 0.3420563392083278 6.293716794288483e-05 -0.9396794436648651
  outer loop
    vertex 66.44996552193142 31.92626439257503 4.73914439911587
    vertex 62.187136842341744 29.57923410126242 3.18725848942217
    vertex 53.432334215260596 31.92631022398039 0.0005462132571663059
  endloop
endfacet
facet normal 0.3420563392083278 6.293716794288483e-05 -0.9396794436648651
  outer loop
    vertex 62.187136842341744 29.57923410126242 3.18725848942217
    vertex 66.44996552193142 31.92626439257503 4.73914439911587
    vertex 62.6214940552474 29.408314727898897 3.3453590863603355
  endloop
endfacet
facet normal 0.3420563392083278 6.293716794288483e-05 -0.9396794436648651
  outer loop
    vertex 62.6214940552474 29.408314727898897 3.3453590863603355
    vertex 66.44996552193142 31.92626439257503 4.73914439911587
    vertex 63.002152776938104 29.11537903826484 3.483904516043035
  endloop
endfacet
facet normal 0.3420563392083278 6.293716794288483e-05 -0.9396794436648651
  outer loop
    vertex 63.002152776938104 29.11537903826484 3.483904516043035
    vertex 66.44996552193142 31.92626439257503 4.73914439911587
    vertex 63.303171738253184 28.72039005454359 3.593453134080521
  endloop
endfacet
facet normal 0.3420563392083278 6.293716794288483e-05 -0.9396794436648651
  outer loop
    vertex 63.303171738253184 28.72039005454359 3.593453134080521
    vertex 66.44996552193142 31.92626439257503 4.73914439911587
    vertex 66.4491217336761 23.175146713006143 4.7382511224879345
  endloop
endfacet
facet normal 0.3420563392083278 6.293716794288483e-05 -0.9396794436648651
  outer loop
    vertex 63.303171738253184 28.72039005454359 3.593453134080521
    vertex 66.4491217336761 23.175146713006143 4.7382511224879345
    vertex 63.50446019894289 28.250218832368727 3.666693432362254
  endloop
endfacet
facet normal 0.3420563392083278 6.293716794288483e-05 -0.9396794436648651
  outer loop
    vertex 63.50446019894289 28.250218832368727 3.666693432362254
    vertex 66.4491217336761 23.175146713006143 4.7382511224879345
    vertex 63.59148317181347 27.736997225339607 3.6983366262334516
  endloop
endfacet
facet normal 0.3420563392083278 6.293716794288483e-05 -0.9396794436648651
  outer loop
    vertex 63.303171738253184 28.72039005454359 3.593453134080521
    vertex 63.50446019894289 28.250218832368727 3.666693432362254
    vertex 63.43771897619017 28.40527941086524 3.642409087941126
  endloop
endfacet
facet normal 0.3420563392083278 6.293716794288483e-05 -0.9396794436648651
  outer loop
    vertex 53.432334215260596 31.92631022398039 0.0005462132571663059
    vertex 62.187136842341744 29.57923410126242 3.18725848942217
    vertex 58.54299131120741 29.616389066065047 1.8607415054681233
  endloop
endfacet
facet normal 0.3420563392083278 6.293716794288483e-05 -0.9396794436648651
  outer loop
    vertex 53.432334215260596 31.92631022398039 0.0005462132571663059
    vertex 58.54299131120741 29.616389066065047 1.8607415054681233
    vertex 58.091681540215866 29.517441081008077 1.6964518674845877
  endloop
endfacet
facet normal 0.3420563392083278 6.293716794288483e-05 -0.9396794436648651
  outer loop
    vertex 53.432334215260596 31.92631022398039 0.0005462132571663059
    vertex 58.091681540215866 29.517441081008077 1.6964518674845877
    vertex 57.67827299605085 29.289033143173945 1.545950130411681
  endloop
endfacet
facet normal 0.3420563392083278 6.293716794288483e-05 -0.9396794436648651
  outer loop
    vertex 53.432334215260596 31.92631022398039 0.0005462132571663059
    vertex 57.67827299605085 29.289033143173945 1.545950130411681
    vertex 57.33093875227531 28.94673084534488 1.4194927259788224
  endloop
endfacet
facet normal 0.3420563392083278 6.293716794288483e-05 -0.9396794436648651
  outer loop
    vertex 53.432334215260596 31.92631022398039 0.0005462132571663059
    vertex 57.33093875227531 28.94673084534488 1.4194927259788224
    vertex 57.07334909919273 28.513861577289383 1.3256975302752367
  endloop
endfacet
facet normal 0.3420563392083278 6.293716794288483e-05 -0.9396794436648651
  outer loop
    vertex 53.432334215260596 31.92631022398039 0.0005462132571663059
    vertex 57.07334909919273 28.513861577289383 1.3256975302752367
    vertex 56.92305833972998 28.019924606768857 1.270956528607559
  endloop
endfacet
facet normal 0.3420563392083278 6.293716794288483e-05 -0.9396794436648651
  outer loop
    vertex 53.432334215260596 31.92631022398039 0.0005462132571663059
    vertex 56.92305833972998 28.019924606768857 1.270956528607559
    vertex 56.89030853139672 27.498580972655507 1.259000226364443
  endloop
endfacet
facet normal -0.3419432550279536 -0.00018411730178223974 0.9397205842385847
  outer loop
    vertex 63.526331234545985 29.775812801119123 4.312958223447956
    vertex 63.299327458683564 28.250218683076067 4.230291177975027
    vertex 63.38637551359687 27.736997076065304 4.261865459480677
  endloop
endfacet
facet normal -0.3419432550279536 -0.00018411730178223974 0.9397205842385847
  outer loop
    vertex 63.299327458683564 28.250218683076067 4.230291177975027
    vertex 63.526331234545985 29.775812801119123 4.312958223447956
    vertex 63.0980106876777 28.72038990458523 4.1571286374646546
  endloop
endfacet
facet normal -0.3419432550279536 -0.00018411730178223974 0.9397205842385847
  outer loop
    vertex 63.0980106876777 28.72038990458523 4.1571286374646546
    vertex 63.526331234545985 29.775812801119123 4.312958223447956
    vertex 62.796962161193484 29.11537887576106 4.047661216521516
  endloop
endfacet
facet normal -0.3419432550279536 -0.00018411730178223974 0.9397205842385847
  outer loop
    vertex 62.796962161193484 29.11537887576106 4.047661216521516
    vertex 63.526331234545985 29.775812801119123 4.312958223447956
    vertex 62.416274626258584 29.408314565372358 3.909194950593248
  endloop
endfacet
facet normal -0.3419432550279536 -0.00018411730178223974 0.9397205842385847
  outer loop
    vertex 62.416274626258584 29.408314565372358 3.909194950593248
    vertex 63.526331234545985 29.775812801119123 4.312958223447956
    vertex 61.98199418454665 29.579196355732165 3.7508157647966587
  endloop
endfacet
facet normal -0.3419432550279536 -0.00018411730178223974 0.9397205842385847
  outer loop
    vertex 61.98199418454665 29.579196355732165 3.7508157647966587
    vertex 63.526331234545985 29.775812801119123 4.312958223447956
    vertex 56.328597444102755 29.77589556974978 1.6939902965031493
  endloop
endfacet
facet normal -0.3419432550279536 -0.00018411730178223974 0.9397205842385847
  outer loop
    vertex 63.299327458683564 28.250218683076067 4.230291177975027
    vertex 63.0980106876777 28.72038990458523 4.1571286374646546
    vertex 63.23257687844837 28.405279260920775 4.20603251882914
  endloop
endfacet
facet normal -0.3419432550279536 -0.00018411730178223974 0.9397205842385847
  outer loop
    vertex 61.98199418454665 29.579196355732165 3.7508157647966587
    vertex 56.328597444102755 29.77589556974978 1.6939902965031493
    vertex 58.33758463760435 29.616388883062417 2.4250918626328883
  endloop
endfacet
facet normal -0.3419432550279536 -0.00018411730178223974 0.9397205842385847
  outer loop
    vertex 58.33758463760435 29.616388883062417 2.4250918626328883
    vertex 56.328597444102755 29.77589556974978 1.6939902965031493
    vertex 57.8862592091411 29.517440899411 2.2608452698582484
  endloop
endfacet
facet normal -0.3419432550279536 -0.00018411730178223974 0.9397205842385847
  outer loop
    vertex 57.8862592091411 29.517440899411 2.2608452698582484
    vertex 56.328597444102755 29.77589556974978 1.6939902965031493
    vertex 57.47284202445964 29.289032961567276 2.1103672724200293
  endloop
endfacet
facet normal -0.3419432550279536 -0.00018411730178223974 0.9397205842385847
  outer loop
    vertex 57.47284202445964 29.289032961567276 2.1103672724200293
    vertex 56.328597444102755 29.77589556974978 1.6939902965031493
    vertex 57.12550676374205 28.94673067768704 1.9839126907052598
  endloop
endfacet
facet normal -0.3419432550279536 -0.00018411730178223974 0.9397205842385847
  outer loop
    vertex 57.12550676374205 28.94673067768704 1.9839126907052598
    vertex 56.328597444102755 29.77589556974978 1.6939902965031493
    vertex 56.86792376878347 28.5138614096357 1.8900992019552112
  endloop
endfacet
facet normal -0.3419432550279536 -0.00018411730178223974 0.9397205842385847
  outer loop
    vertex 56.86792376878347 28.5138614096357 1.8900992019552112
    vertex 56.328597444102755 29.77589556974978 1.6939902965031493
    vertex 56.71764689189769 28.019924453952395 1.8353200392544253
  endloop
endfacet
facet normal -0.3419432550279536 -0.00018411730178223974 0.9397205842385847
  outer loop
    vertex 56.71764689189769 28.019924453952395 1.8353200392544253
    vertex 56.328597444102755 29.77589556974978 1.6939902965031493
    vertex 56.684917249214024 27.49858082317599 1.8233083103138419
  endloop
endfacet
facet normal -0.3419432550279536 -0.00018411730178223974 0.9397205842385847
  outer loop
    vertex 54.82448934045099 29.12998455630308 1.1469117967384914
    vertex 56.32817374292358 26.778225391312862 1.69242511060216
    vertex 56.3284073784408 29.129975059644657 1.6944489536799923
  endloop
endfacet
facet normal -0.3419432550279536 -0.00018411730178223974 0.9397205842385847
  outer loop
    vertex 56.32817374292358 26.778225391312862 1.69242511060216
    vertex 54.82448934045099 29.12998455630308 1.1469117967384914
    vertex 54.824270035691086 26.778256459420568 1.146774112723203
  endloop
endfacet
facet normal -0.3419432550279536 -0.00018411730178223974 0.9397205842385847
  outer loop
    vertex 63.52642356279713 25.325654843366095 4.312704803874717
    vertex 61.73328494076862 25.619235918384792 3.6599279290205953
    vertex 56.3280782267209 25.326390256525713 1.6924305466525946
  endloop
endfacet
facet normal -0.3419432550279536 -0.00018411730178223974 0.9397205842385847
  outer loop
    vertex 61.73328494076862 25.619235918384792 3.6599279290205953
    vertex 63.52642356279713 25.325654843366095 4.312704803874717
    vertex 62.18461034576687 25.718183901540012 3.8241745132567346
  endloop
endfacet
facet normal -0.3419432550279536 -0.00018411730178223974 0.9397205842385847
  outer loop
    vertex 62.18461034576687 25.718183901540012 3.8241745132567346
    vertex 63.52642356279713 25.325654843366095 4.312704803874717
    vertex 62.59802753044826 25.946591839383725 3.9746525106949266
  endloop
endfacet
facet normal -0.3419432550279536 -0.00018411730178223974 0.9397205842385847
  outer loop
    vertex 62.59802753044826 25.946591839383725 3.9746525106949266
    vertex 63.52642356279713 25.325654843366095 4.312704803874717
    vertex 62.94528706649804 26.288856533552494 4.101247344774036
  endloop
endfacet
facet normal -0.3419432550279536 -0.00018411730178223974 0.9397205842385847
  outer loop
    vertex 62.94528706649804 26.288856533552494 4.101247344774036
    vertex 63.52642356279713 25.325654843366095 4.312704803874717
    vertex 63.23584303627662 26.829944106829853 4.206912348637183
  endloop
endfacet
facet normal -0.3419432550279536 -0.00018411730178223974 0.9397205842385847
  outer loop
    vertex 63.23584303627662 26.829944106829853 4.206912348637183
    vertex 63.52642356279713 25.325654843366095 4.312704803874717
    vertex 63.353645852042185 27.21565345881196 4.249853723676005
  endloop
endfacet
facet normal -0.3419432550279536 -0.00018411730178223974 0.9397205842385847
  outer loop
    vertex 63.353645852042185 27.21565345881196 4.249853723676005
    vertex 63.52642356279713 25.325654843366095 4.312704803874717
    vertex 63.526331234545985 29.775812801119123 4.312958223447956
  endloop
endfacet
facet normal -0.3419432550279536 -0.00018411730178223974 0.9397205842385847
  outer loop
    vertex 63.353645852042185 27.21565345881196 4.249853723676005
    vertex 63.526331234545985 29.775812801119123 4.312958223447956
    vertex 63.38637551359687 27.736997076065304 4.261865459480677
  endloop
endfacet
facet normal -0.3419432550279536 -0.00018411730178223974 0.9397205842385847
  outer loop
    vertex 56.3280782267209 25.326390256525713 1.6924305466525946
    vertex 61.73328494076862 25.619235918384792 3.6599279290205953
    vertex 58.08908908089572 25.656353295570202 2.333481619358277
  endloop
endfacet
facet normal -0.3419432550279536 -0.00018411730178223974 0.9397205842385847
  outer loop
    vertex 56.3280782267209 25.326390256525713 1.6924305466525946
    vertex 58.08908908089572 25.656353295570202 2.333481619358277
    vertex 57.6545949730503 25.827310197802955 2.1758248486708256
  endloop
endfacet
facet normal -0.3419432550279536 -0.00018411730178223974 0.9397205842385847
  outer loop
    vertex 56.3280782267209 25.326390256525713 1.6924305466525946
    vertex 57.6545949730503 25.827310197802955 2.1758248486708256
    vertex 57.27390743811533 26.12024588741426 2.037358582742542
  endloop
endfacet
facet normal -0.3419432550279536 -0.00018411730178223974 0.9397205842385847
  outer loop
    vertex 56.3280782267209 25.326390256525713 1.6924305466525946
    vertex 57.27390743811533 26.12024588741426 2.037358582742542
    vertex 56.97285889069731 26.51523483353107 1.9278911541771446
  endloop
endfacet
facet normal -0.3419432550279536 -0.00018411730178223974 0.9397205842385847
  outer loop
    vertex 56.3280782267209 25.326390256525713 1.6924305466525946
    vertex 56.97285889069731 26.51523483353107 1.9278911541771446
    vertex 56.7719653042258 26.985359215790318 1.8548825918552614
  endloop
endfacet
facet normal -0.3419432550279536 -0.00018411730178223974 0.9397205842385847
  outer loop
    vertex 56.3280782267209 25.326390256525713 1.6924305466525946
    vertex 56.7719653042258 26.985359215790318 1.8548825918552614
    vertex 56.684917249214024 27.49858082317599 1.8233083103138419
  endloop
endfacet
facet normal -0.3419432550279536 -0.00018411730178223974 0.9397205842385847
  outer loop
    vertex 56.3280782267209 25.326390256525713 1.6924305466525946
    vertex 56.684917249214024 27.49858082317599 1.8233083103138419
    vertex 56.3284073784408 29.129975059644657 1.6944489536799923
  endloop
endfacet
facet normal -0.3419432550279536 -0.00018411730178223974 0.9397205842385847
  outer loop
    vertex 56.3284073784408 29.129975059644657 1.6944489536799923
    vertex 56.684917249214024 27.49858082317599 1.8233083103138419
    vertex 56.328597444102755 29.77589556974978 1.6939902965031493
  endloop
endfacet
facet normal -0.3419432550279536 -0.00018411730178223974 0.9397205842385847
  outer loop
    vertex 56.3280782267209 25.326390256525713 1.6924305466525946
    vertex 56.3284073784408 29.129975059644657 1.6944489536799923
    vertex 56.32817374292358 26.778225391312862 1.69242511060216
  endloop
endfacet
facet normal -0.9375985007746528 0.06672448984815599 -0.3412578113386222
  outer loop
    vertex 63.38637551359687 27.736997076065304 4.261865459480677
    vertex 63.55873332568354 27.215653617921078 3.6863803102336057
    vertex 63.353645852042185 27.21565345881196 4.249853723676005
  endloop
endfacet
facet normal -0.9375985007746528 0.06672448984815599 -0.3412578113386222
  outer loop
    vertex 63.55873332568354 27.215653617921078 3.6863803102336057
    vertex 63.38637551359687 27.736997076065304 4.261865459480677
    vertex 63.59148317181347 27.736997225339607 3.6983366262334516
  endloop
endfacet
facet normal -0.8936595246447916 0.30915234399964026 -0.3252652490063661
  outer loop
    vertex 63.353645852042185 27.21565345881196 4.249853723676005
    vertex 63.44091967614502 26.829944270880027 3.6434686754248173
    vertex 63.23584303627662 26.829944106829853 4.206912348637183
  endloop
endfacet
facet normal -0.8936595246447916 0.30915234399964026 -0.3252652490063661
  outer loop
    vertex 63.44091967614502 26.829944270880027 3.6434686754248173
    vertex 63.353645852042185 27.21565345881196 4.249853723676005
    vertex 63.55873332568354 27.215653617921078 3.6863803102336057
  endloop
endfacet
facet normal -0.8158949075288845 0.4961136648881595 -0.29696250837382154
  outer loop
    vertex 63.23584303627662 26.829944106829853 4.206912348637183
    vertex 63.15042972429309 26.288894279082747 3.53769006939955
    vertex 62.94528706649804 26.288856533552494 4.101247344774036
  endloop
endfacet
facet normal -0.8158949075288845 0.4961136648881595 -0.29696250837382154
  outer loop
    vertex 63.15042972429309 26.288894279082747 3.53769006939955
    vertex 63.23584303627662 26.829944106829853 4.206912348637183
    vertex 63.44091967614502 26.829944270880027 3.6434686754248173
  endloop
endfacet
facet normal -0.6384747928476308 0.7337246015996084 -0.23237501566577878
  outer loop
    vertex 63.15042972429309 26.288894279082747 3.53769006939955
    vertex 62.59802753044826 25.946591839383725 3.9746525106949266
    vertex 62.94528706649804 26.288856533552494 4.101247344774036
  endloop
endfacet
facet normal -0.6384747928476308 0.7337246015996084 -0.23237501566577878
  outer loop
    vertex 62.59802753044826 25.946591839383725 3.9746525106949266
    vertex 63.15042972429309 26.288894279082747 3.53769006939955
    vertex 62.80309551184691 25.946592020669293 3.4112326763736647
  endloop
endfacet
facet normal -0.43298232110293755 0.8875195570915185 -0.1575923392566636
  outer loop
    vertex 62.80309551184691 25.946592020669293 3.4112326763736647
    vertex 62.18461034576687 25.718183901540012 3.8241745132567346
    vertex 62.59802753044826 25.946591839383725 3.9746525106949266
  endloop
endfacet
facet normal -0.43298232110293755 0.8875195570915185 -0.1575923392566636
  outer loop
    vertex 62.18461034576687 25.718183901540012 3.8241745132567346
    vertex 62.80309551184691 25.946592020669293 3.4112326763736647
    vertex 62.38968696768198 25.71818408283518 3.2607309393007733
  endloop
endfacet
facet normal -0.18961362949858057 0.9794303571438763 -0.0690133828571975
  outer loop
    vertex 62.18461034576687 25.718183901540012 3.8241745132567346
    vertex 61.93837724361199 25.61923609877889 3.096441318397404
    vertex 61.73328494076862 25.619235918384792 3.6599279290205953
  endloop
endfacet
facet normal -0.18961362949858057 0.9794303571438763 -0.0690133828571975
  outer loop
    vertex 61.93837724361199 25.61923609877889 3.096441318397404
    vertex 62.18461034576687 25.718183901540012 3.8241745132567346
    vertex 62.38968696768198 25.71818408283518 3.2607309393007733
  endloop
endfacet
facet normal 0.008987115191363944 0.9999541536815479 0.003304889643608212
  outer loop
    vertex 61.93837724361199 25.61923609877889 3.096441318397404
    vertex 58.08908908089572 25.656353295570202 2.333481619358277
    vertex 61.73328494076862 25.619235918384792 3.6599279290205953
  endloop
endfacet
facet normal 0.008987115191363944 0.9999541536815479 0.003304889643608212
  outer loop
    vertex 58.08908908089572 25.656353295570202 2.333481619358277
    vertex 61.93837724361199 25.61923609877889 3.096441318397404
    vertex 58.2942317386908 25.656391041100456 1.769924343983788
  endloop
endfacet
facet normal 0.32592694630404057 0.9379178698166936 0.11866631852147143
  outer loop
    vertex 58.08908908089572 25.656353295570202 2.333481619358277
    vertex 57.859874541452214 25.827310360386967 1.6118237527450479
    vertex 57.6545949730503 25.827310197802955 2.1758248486708256
  endloop
endfacet
facet normal 0.32592694630404057 0.9379178698166936 0.11866631852147143
  outer loop
    vertex 57.859874541452214 25.827310360386967 1.6118237527450479
    vertex 58.08908908089572 25.656353295570202 2.333481619358277
    vertex 58.2942317386908 25.656391041100456 1.769924343983788
  endloop
endfacet
facet normal 0.5506411401792002 0.8103254222802767 0.20041717677994048
  outer loop
    vertex 57.6545949730503 25.827310197802955 2.1758248486708256
    vertex 57.47921581976146 26.120246050021027 1.473278323062329
    vertex 57.27390743811533 26.12024588741426 2.037358582742542
  endloop
endfacet
facet normal 0.5506411401792002 0.8103254222802767 0.20041717677994048
  outer loop
    vertex 57.47921581976146 26.120246050021027 1.473278323062329
    vertex 57.6545949730503 25.827310197802955 2.1758248486708256
    vertex 57.859874541452214 25.827310360386967 1.6118237527450479
  endloop
endfacet
facet normal 0.7298466420264202 0.6298872174935881 0.2656425650398364
  outer loop
    vertex 57.47921581976146 26.120246050021027 1.473278323062329
    vertex 56.97285889069731 26.51523483353107 1.9278911541771446
    vertex 57.27390743811533 26.12024588741426 2.037358582742542
  endloop
endfacet
facet normal 0.7298466420264202 0.6298872174935881 0.2656425650398364
  outer loop
    vertex 56.97285889069731 26.51523483353107 1.9278911541771446
    vertex 57.47921581976146 26.120246050021027 1.473278323062329
    vertex 57.17819681657524 26.515234983620196 1.363729689779802
  endloop
endfacet
facet normal 0.855426454675404 0.41389236566823995 0.311349787671386
  outer loop
    vertex 57.17819681657524 26.515234983620196 1.363729689779802
    vertex 56.7719653042258 26.985359215790318 1.8548825918552614
    vertex 56.97285889069731 26.51523483353107 1.9278911541771446
  endloop
endfacet
facet normal 0.855426454675404 0.41389236566823995 0.311349787671386
  outer loop
    vertex 56.7719653042258 26.985359215790318 1.8548825918552614
    vertex 57.17819681657524 26.515234983620196 1.363729689779802
    vertex 56.97733150436566 26.985359365251455 1.2906434202714177
  endloop
endfacet
facet normal 0.9247613970691101 0.17755707683299174 0.3365855655807463
  outer loop
    vertex 56.97733150436566 26.985359365251455 1.2906434202714177
    vertex 56.684917249214024 27.49858082317599 1.8233083103138419
    vertex 56.7719653042258 26.985359215790318 1.8548825918552614
  endloop
endfacet
facet normal 0.9247613970691101 0.17755707683299174 0.3365855655807463
  outer loop
    vertex 56.684917249214024 27.49858082317599 1.8233083103138419
    vertex 56.97733150436566 26.985359365251455 1.2906434202714177
    vertex 56.89030853139672 27.498580972655507 1.259000226364443
  endloop
endfacet
facet normal 0.937598502975784 -0.06672442983814415 0.34125781702452396
  outer loop
    vertex 56.89030853139672 27.498580972655507 1.259000226364443
    vertex 56.71764689189769 28.019924453952395 1.8353200392544253
    vertex 56.684917249214024 27.49858082317599 1.8233083103138419
  endloop
endfacet
facet normal 0.937598502975784 -0.06672442983814415 0.34125781702452396
  outer loop
    vertex 56.71764689189769 28.019924453952395 1.8353200392544253
    vertex 56.89030853139672 27.498580972655507 1.259000226364443
    vertex 56.92305833972998 28.019924606768857 1.270956528607559
  endloop
endfacet
facet normal 0.8939877647205431 -0.3080757275081523 0.32538473020455266
  outer loop
    vertex 56.92305833972998 28.019924606768857 1.270956528607559
    vertex 56.86792376878347 28.5138614096357 1.8900992019552112
    vertex 56.71764689189769 28.019924453952395 1.8353200392544253
  endloop
endfacet
facet normal 0.8939877647205431 -0.3080757275081523 0.32538473020455266
  outer loop
    vertex 56.86792376878347 28.5138614096357 1.8900992019552112
    vertex 56.92305833972998 28.019924606768857 1.270956528607559
    vertex 57.07334909919273 28.513861577289383 1.3256975302752367
  endloop
endfacet
facet normal 0.7938832649474691 -0.5350303590800818 0.28894960892686
  outer loop
    vertex 57.07334909919273 28.513861577289383 1.3256975302752367
    vertex 57.12550676374205 28.94673067768704 1.9839126907052598
    vertex 56.86792376878347 28.5138614096357 1.8900992019552112
  endloop
endfacet
facet normal 0.7938832649474691 -0.5350303590800818 0.28894960892686
  outer loop
    vertex 57.12550676374205 28.94673067768704 1.9839126907052598
    vertex 57.07334909919273 28.513861577289383 1.3256975302752367
    vertex 57.33093875227531 28.94673084534488 1.4194927259788224
  endloop
endfacet
facet normal 0.6384795140983822 -0.7337166251469271 0.2323872286931821
  outer loop
    vertex 57.12550676374205 28.94673067768704 1.9839126907052598
    vertex 57.67827299605085 29.289033143173945 1.545950130411681
    vertex 57.47284202445964 29.289032961567276 2.1103672724200293
  endloop
endfacet
facet normal 0.6384795140983822 -0.7337166251469271 0.2323872286931821
  outer loop
    vertex 57.67827299605085 29.289033143173945 1.545950130411681
    vertex 57.12550676374205 28.94673067768704 1.9839126907052598
    vertex 57.33093875227531 28.94673084534488 1.4194927259788224
  endloop
endfacet
facet normal 0.432982321101788 -0.8875195570915348 0.15759233925973043
  outer loop
    vertex 57.47284202445964 29.289032961567276 2.1103672724200293
    vertex 58.091681540215866 29.517441081008077 1.6964518674845877
    vertex 57.8862592091411 29.517440899411 2.2608452698582484
  endloop
endfacet
facet normal 0.432982321101788 -0.8875195570915348 0.15759233925973043
  outer loop
    vertex 58.091681540215866 29.517441081008077 1.6964518674845877
    vertex 57.47284202445964 29.289032961567276 2.1103672724200293
    vertex 57.67827299605085 29.289033143173945 1.545950130411681
  endloop
endfacet
facet normal 0.18961361772831503 -0.979430359951925 0.06901337534437099
  outer loop
    vertex 58.091681540215866 29.517441081008077 1.6964518674845877
    vertex 58.33758463760435 29.616388883062417 2.4250918626328883
    vertex 57.8862592091411 29.517440899411 2.2608452698582484
  endloop
endfacet
facet normal 0.18961361772831503 -0.979430359951925 0.06901337534437099
  outer loop
    vertex 58.33758463760435 29.616388883062417 2.4250918626328883
    vertex 58.091681540215866 29.517441081008077 1.6964518674845877
    vertex 58.54299131120741 29.616389066065047 1.8607415054681233
  endloop
endfacet
facet normal -0.008996293812209804 -0.9999540602620051 -0.0033081812488022964
  outer loop
    vertex 58.54299131120741 29.616389066065047 1.8607415054681233
    vertex 61.98199418454665 29.579196355732165 3.7508157647966587
    vertex 58.33758463760435 29.616388883062417 2.4250918626328883
  endloop
endfacet
facet normal -0.008996293812209804 -0.9999540602620051 -0.0033081812488022964
  outer loop
    vertex 61.98199418454665 29.579196355732165 3.7508157647966587
    vertex 58.54299131120741 29.616389066065047 1.8607415054681233
    vertex 62.187136842341744 29.57923410126242 3.18725848942217
  endloop
endfacet
facet normal -0.3258496034484484 -0.9379483026851282 -0.11863817860442792
  outer loop
    vertex 61.98199418454665 29.579196355732165 3.7508157647966587
    vertex 62.6214940552474 29.408314727898897 3.3453590863603355
    vertex 62.416274626258584 29.408314565372358 3.909194950593248
  endloop
endfacet
facet normal -0.3258496034484484 -0.9379483026851282 -0.11863817860442792
  outer loop
    vertex 62.6214940552474 29.408314727898897 3.3453590863603355
    vertex 61.98199418454665 29.579196355732165 3.7508157647966587
    vertex 62.187136842341744 29.57923410126242 3.18725848942217
  endloop
endfacet
facet normal -0.5506411401861229 -0.8103254222802465 -0.20041717676104237
  outer loop
    vertex 62.6214940552474 29.408314727898897 3.3453590863603355
    vertex 62.796962161193484 29.11537887576106 4.047661216521516
    vertex 62.416274626258584 29.408314565372358 3.909194950593248
  endloop
endfacet
facet normal -0.5506411401861229 -0.8103254222802465 -0.20041717676104237
  outer loop
    vertex 62.796962161193484 29.11537887576106 4.047661216521516
    vertex 62.6214940552474 29.408314727898897 3.3453590863603355
    vertex 63.002152776938104 29.11537903826484 3.483904516043035
  endloop
endfacet
facet normal -0.7298466997980676 -0.629887141690552 -0.2656425860564826
  outer loop
    vertex 62.796962161193484 29.11537887576106 4.047661216521516
    vertex 63.303171738253184 28.72039005454359 3.593453134080521
    vertex 63.0980106876777 28.72038990458523 4.1571286374646546
  endloop
endfacet
facet normal -0.7298466997980676 -0.629887141690552 -0.2656425860564826
  outer loop
    vertex 63.303171738253184 28.72039005454359 3.593453134080521
    vertex 62.796962161193484 29.11537887576106 4.047661216521516
    vertex 63.002152776938104 29.11537903826484 3.483904516043035
  endloop
endfacet
facet normal -0.8555210405524627 -0.4136709031360825 -0.3113842209724342
  outer loop
    vertex 63.0980106876777 28.72038990458523 4.1571286374646546
    vertex 63.43771897619017 28.40527941086524 3.642409087941126
    vertex 63.23257687844837 28.405279260920775 4.20603251882914
  endloop
endfacet
facet normal -0.8555210405524627 -0.4136709031360825 -0.3113842209724342
  outer loop
    vertex 63.43771897619017 28.40527941086524 3.642409087941126
    vertex 63.0980106876777 28.72038990458523 4.1571286374646546
    vertex 63.303171738253184 28.72039005454359 3.593453134080521
  endloop
endfacet
facet normal -0.8543405116813748 -0.41642474192436857 -0.3109545375343952
  outer loop
    vertex 63.23257687844837 28.405279260920775 4.20603251882914
    vertex 63.50446019894289 28.250218832368727 3.666693432362254
    vertex 63.299327458683564 28.250218683076067 4.230291177975027
  endloop
endfacet
facet normal -0.8543405116813748 -0.41642474192436857 -0.3109545375343952
  outer loop
    vertex 63.50446019894289 28.250218832368727 3.666693432362254
    vertex 63.23257687844837 28.405279260920775 4.20603251882914
    vertex 63.43771897619017 28.40527941086524 3.642409087941126
  endloop
endfacet
facet normal -0.9247613970765709 -0.17755707676412374 -0.3365855655965775
  outer loop
    vertex 63.299327458683564 28.250218683076067 4.230291177975027
    vertex 63.59148317181347 27.736997225339607 3.6983366262334516
    vertex 63.38637551359687 27.736997076065304 4.261865459480677
  endloop
endfacet
facet normal -0.9247613970765709 -0.17755707676412374 -0.3365855655965775
  outer loop
    vertex 63.59148317181347 27.736997225339607 3.6983366262334516
    vertex 63.299327458683564 28.250218683076067 4.230291177975027
    vertex 63.50446019894289 28.250218832368727 3.666693432362254
  endloop
endfacet
endsolid Baseplate_20180709
