solid DummyEndoscopeV1
facet normal -7.51590077702995e-18 -1.0 -1.74589502020417e-17
  outer loop
    vertex -15.7325052209293 -3.67237417164783 -1.0
    vertex -24.0325052209293 -3.67237417164783 -14.3
    vertex -15.7325052209293 -3.67237417164783 -14.3
  endloop
endfacet
facet normal -7.51590077702995e-18 -1.0 -1.74589502020417e-17
  outer loop
    vertex -24.0325052209293 -3.67237417164783 -14.3
    vertex -15.7325052209293 -3.67237417164783 -1.0
    vertex -24.0325052209293 -3.67237417164783 -1.0
  endloop
endfacet
facet normal 0.0 0.0 1.0
  outer loop
    vertex -15.7325052209293 -3.67237417164783 -1.0
    vertex -24.0325052209293 -2.67237417164783 -1.0
    vertex -24.0325052209293 -3.67237417164783 -1.0
  endloop
endfacet
facet normal 0.0 0.0 1.0
  outer loop
    vertex -24.0325052209293 -2.67237417164783 -1.0
    vertex -15.7325052209293 -3.67237417164783 -1.0
    vertex -15.7325052209293 -2.67237417164783 -1.0
  endloop
endfacet
facet normal 0.0 -1.0 0.0
  outer loop
    vertex -15.7325052209293 -2.67237417164783 0.0
    vertex -24.0325052209293 -2.67237417164783 -1.0
    vertex -15.7325052209293 -2.67237417164783 -1.0
  endloop
endfacet
facet normal 0.0 -1.0 0.0
  outer loop
    vertex -24.0325052209293 -2.67237417164783 -1.0
    vertex -15.7325052209293 -2.67237417164783 0.0
    vertex -23.7498515575795 -2.67237417164783 -0.8
  endloop
endfacet
facet normal 0.0 -1.0 0.0
  outer loop
    vertex -23.7498515575795 -2.67237417164783 -0.8
    vertex -15.7325052209293 -2.67237417164783 0.0
    vertex -18.2773487900786 -2.67237417164783 0.0
  endloop
endfacet
facet normal 0.0 -1.0 0.0
  outer loop
    vertex -23.7498515575795 -2.67237417164783 -0.8
    vertex -18.2773487900786 -2.67237417164783 0.0
    vertex -23.7498515575795 -2.67237417164783 0.2
  endloop
endfacet
facet normal 0.0 -1.0 0.0
  outer loop
    vertex -23.7498515575795 -2.67237417164783 0.2
    vertex -18.2773487900786 -2.67237417164783 0.0
    vertex -18.2773487900786 -2.67237417164783 0.2
  endloop
endfacet
facet normal 0.0 -1.0 0.0
  outer loop
    vertex -24.0325052209293 -2.67237417164783 -0.8
    vertex -24.0325052209293 -2.67237417164783 -1.0
    vertex -23.7498515575795 -2.67237417164783 -0.8
  endloop
endfacet
facet normal -0.0 -0.0 1.0
  outer loop
    vertex -15.7325052209293 1.32762582835217 -1.0
    vertex -24.0325052209293 3.32762582835217 -1.0
    vertex -24.0325052209293 1.32762582835217 -1.0
  endloop
endfacet
facet normal -0.0 -0.0 1.0
  outer loop
    vertex -24.0325052209293 3.32762582835217 -1.0
    vertex -15.7325052209293 1.32762582835217 -1.0
    vertex -15.7325052209293 3.32762582835217 -1.0
  endloop
endfacet
facet normal -0.0 1.0 -0.0
  outer loop
    vertex -23.7498515575795 1.32762582835217 0.2
    vertex -18.2773487900786 1.32762582835217 0.0
    vertex -23.7498515575795 1.32762582835217 -0.8
  endloop
endfacet
facet normal -0.0 1.0 -0.0
  outer loop
    vertex -18.2773487900786 1.32762582835217 0.0
    vertex -23.7498515575795 1.32762582835217 0.2
    vertex -18.2773487900786 1.32762582835217 0.2
  endloop
endfacet
facet normal -0.0 1.0 -0.0
  outer loop
    vertex -24.0325052209293 1.32762582835217 -0.8
    vertex -15.7325052209293 1.32762582835217 -1.0
    vertex -24.0325052209293 1.32762582835217 -1.0
  endloop
endfacet
facet normal -0.0 1.0 -0.0
  outer loop
    vertex -15.7325052209293 1.32762582835217 -1.0
    vertex -24.0325052209293 1.32762582835217 -0.8
    vertex -23.7498515575795 1.32762582835217 -0.8
  endloop
endfacet
facet normal -0.0 1.0 -0.0
  outer loop
    vertex -15.7325052209293 1.32762582835217 -1.0
    vertex -23.7498515575795 1.32762582835217 -0.8
    vertex -15.7325052209293 1.32762582835217 0.0
  endloop
endfacet
facet normal -0.0 1.0 -0.0
  outer loop
    vertex -15.7325052209293 1.32762582835217 0.0
    vertex -23.7498515575795 1.32762582835217 -0.8
    vertex -18.2773487900786 1.32762582835217 0.0
  endloop
endfacet
facet normal -0.0 -0.0 1.0
  outer loop
    vertex -23.7498515575795 -2.67237417164783 -0.8
    vertex -24.0325052209293 1.32762582835217 -0.8
    vertex -24.0325052209293 -2.67237417164783 -0.8
  endloop
endfacet
facet normal -0.0 -0.0 1.0
  outer loop
    vertex -24.0325052209293 1.32762582835217 -0.8
    vertex -23.7498515575795 -2.67237417164783 -0.8
    vertex -23.7498515575795 1.32762582835217 -0.8
  endloop
endfacet
facet normal -0.0 -0.0 1.0
  outer loop
    vertex -15.7325052209293 -2.67237417164783 0.0
    vertex -18.2773487900786 1.32762582835217 0.0
    vertex -18.2773487900786 -2.67237417164783 0.0
  endloop
endfacet
facet normal -0.0 -0.0 1.0
  outer loop
    vertex -18.2773487900786 1.32762582835217 0.0
    vertex -15.7325052209293 -2.67237417164783 0.0
    vertex -15.7325052209293 1.32762582835217 0.0
  endloop
endfacet
facet normal 1.0 -0.0 -0.0
  outer loop
    vertex -18.2773487900786 1.32762582835217 0.0
    vertex -18.2773487900786 -2.67237417164783 0.2
    vertex -18.2773487900786 -2.67237417164783 0.0
  endloop
endfacet
facet normal 1.0 -0.0 -0.0
  outer loop
    vertex -18.2773487900786 -2.67237417164783 0.2
    vertex -18.2773487900786 1.32762582835217 0.0
    vertex -18.2773487900786 1.32762582835217 0.2
  endloop
endfacet
facet normal 1.35632750399258e-47 2.54268191052592e-32 1.0
  outer loop
    vertex -22.0183516228669 -0.93188298201108 2.2
    vertex -22.0183516228669 -0.412865361284583 2.2
    vertex -22.0525166058971 -0.672374171647831 2.2
  endloop
endfacet
facet normal 1.35632750399258e-47 2.54268191052592e-32 1.0
  outer loop
    vertex -22.0183516228669 -0.412865361284583 2.2
    vertex -22.0183516228669 -0.93188298201108 2.2
    vertex -21.9181849609093 -1.17370669580666 2.2
  endloop
endfacet
facet normal 1.35632750399258e-47 2.54268191052592e-32 1.0
  outer loop
    vertex -22.0183516228669 -0.412865361284583 2.2
    vertex -21.9181849609093 -1.17370669580666 2.2
    vertex -21.9181849609093 -0.171041647489003 2.2
  endloop
endfacet
facet normal 1.35632750399258e-47 2.54268191052592e-32 1.0
  outer loop
    vertex -21.9181849609093 -0.171041647489003 2.2
    vertex -21.9181849609093 -1.17370669580666 2.2
    vertex -21.7588428125036 -1.38136542657198 2.2
  endloop
endfacet
facet normal 1.35632750399258e-47 2.54268191052592e-32 1.0
  outer loop
    vertex -21.9181849609093 -0.171041647489003 2.2
    vertex -21.7588428125036 -1.38136542657198 2.2
    vertex -21.7588428125036 0.0366170832763205 2.2
  endloop
endfacet
facet normal 1.35632750399258e-47 2.54268191052592e-32 1.0
  outer loop
    vertex -21.7588428125036 0.0366170832763205 2.2
    vertex -21.7588428125036 -1.38136542657198 2.2
    vertex -21.5511840817383 0.19595923168201 2.2
  endloop
endfacet
facet normal 1.35632750399258e-47 2.54268191052592e-32 1.0
  outer loop
    vertex -21.5511840817383 0.19595923168201 2.2
    vertex -21.7588428125036 -1.38136542657198 2.2
    vertex -21.5511840817383 -1.54070757497767 2.2
  endloop
endfacet
facet normal 1.35632750399258e-47 2.54268191052592e-32 1.0
  outer loop
    vertex -21.5511840817383 0.19595923168201 2.2
    vertex -21.5511840817383 -1.54070757497767 2.2
    vertex -21.3093603679427 0.296125893639569 2.2
  endloop
endfacet
facet normal 1.35632750399258e-47 2.54268191052592e-32 1.0
  outer loop
    vertex -21.3093603679427 0.296125893639569 2.2
    vertex -21.5511840817383 -1.54070757497767 2.2
    vertex -21.3093603679427 -1.64087423693523 2.2
  endloop
endfacet
facet normal 1.35632750399258e-47 2.54268191052592e-32 1.0
  outer loop
    vertex -21.3093603679427 0.296125893639569 2.2
    vertex -21.3093603679427 -1.64087423693523 2.2
    vertex -21.0498515575795 -1.67503921996549 2.2
  endloop
endfacet
facet normal 1.35632750399258e-47 2.54268191052592e-32 1.0
  outer loop
    vertex -21.3093603679427 0.296125893639569 2.2
    vertex -21.0498515575795 -1.67503921996549 2.2
    vertex -21.0498515575795 0.330290876669825 2.2
  endloop
endfacet
facet normal 1.35632750399258e-47 2.54268191052592e-32 1.0
  outer loop
    vertex -21.0498515575795 0.330290876669825 2.2
    vertex -21.0498515575795 -1.67503921996549 2.2
    vertex -20.7903427472162 -1.64087423693523 2.2
  endloop
endfacet
facet normal 1.35632750399258e-47 2.54268191052592e-32 1.0
  outer loop
    vertex -21.0498515575795 0.330290876669825 2.2
    vertex -20.7903427472162 -1.64087423693523 2.2
    vertex -20.7903427472162 0.29612589363957 2.2
  endloop
endfacet
facet normal 1.35632750399258e-47 2.54268191052592e-32 1.0
  outer loop
    vertex -20.7903427472162 0.29612589363957 2.2
    vertex -20.7903427472162 -1.64087423693523 2.2
    vertex -20.5485190334206 0.195959231682011 2.2
  endloop
endfacet
facet normal 1.35632750399258e-47 2.54268191052592e-32 1.0
  outer loop
    vertex -20.5485190334206 0.195959231682011 2.2
    vertex -20.7903427472162 -1.64087423693523 2.2
    vertex -20.5485190334206 -1.54070757497767 2.2
  endloop
endfacet
facet normal 1.35632750399258e-47 2.54268191052592e-32 1.0
  outer loop
    vertex -20.5485190334206 0.195959231682011 2.2
    vertex -20.5485190334206 -1.54070757497767 2.2
    vertex -20.3408603026553 0.0366170832763211 2.2
  endloop
endfacet
facet normal 1.35632750399258e-47 2.54268191052592e-32 1.0
  outer loop
    vertex -20.3408603026553 0.0366170832763211 2.2
    vertex -20.5485190334206 -1.54070757497767 2.2
    vertex -20.3408603026553 -1.38136542657198 2.2
  endloop
endfacet
facet normal 1.35632750399258e-47 2.54268191052592e-32 1.0
  outer loop
    vertex -20.3408603026553 0.0366170832763211 2.2
    vertex -20.3408603026553 -1.38136542657198 2.2
    vertex -20.1815181542496 -1.17370669580666 2.2
  endloop
endfacet
facet normal 1.35632750399258e-47 2.54268191052592e-32 1.0
  outer loop
    vertex -20.3408603026553 0.0366170832763211 2.2
    vertex -20.1815181542496 -1.17370669580666 2.2
    vertex -20.1815181542496 -0.171041647489003 2.2
  endloop
endfacet
facet normal 1.35632750399258e-47 2.54268191052592e-32 1.0
  outer loop
    vertex -20.1815181542496 -0.171041647489003 2.2
    vertex -20.1815181542496 -1.17370669580666 2.2
    vertex -20.0813514922921 -0.93188298201108 2.2
  endloop
endfacet
facet normal 1.35632750399258e-47 2.54268191052592e-32 1.0
  outer loop
    vertex -20.1815181542496 -0.171041647489003 2.2
    vertex -20.0813514922921 -0.93188298201108 2.2
    vertex -20.0813514922921 -0.412865361284582 2.2
  endloop
endfacet
facet normal 1.35632750399258e-47 2.54268191052592e-32 1.0
  outer loop
    vertex -20.0813514922921 -0.412865361284582 2.2
    vertex -20.0813514922921 -0.93188298201108 2.2
    vertex -20.0471865092618 -0.672374171647831 2.2
  endloop
endfacet
facet normal 0.866025403784438 -0.500000000000001 1.27134095526296e-32
  outer loop
    vertex -20.1815181542496 -1.17370669580666 0.2
    vertex -20.3408603026553 -1.38136542657198 2.2
    vertex -20.3408603026553 -1.38136542657198 0.2
  endloop
endfacet
facet normal 0.707106781186547 -0.707106781186548 1.79794762133324e-32
  outer loop
    vertex -20.3408603026553 -1.38136542657198 2.2
    vertex -20.1815181542496 -1.17370669580666 0.2
    vertex -20.1815181542496 -1.17370669580666 2.2
  endloop
endfacet
facet normal 0.965925826289069 -0.258819045102519 6.58094504081766e-33
  outer loop
    vertex -20.0813514922921 -0.93188298201108 0.2
    vertex -20.1815181542496 -1.17370669580666 2.2
    vertex -20.1815181542496 -1.17370669580666 0.2
  endloop
endfacet
facet normal 0.866025403784438 -0.500000000000001 1.27134095526296e-32
  outer loop
    vertex -20.1815181542496 -1.17370669580666 2.2
    vertex -20.0813514922921 -0.93188298201108 0.2
    vertex -20.0813514922921 -0.93188298201108 2.2
  endloop
endfacet
facet normal 1.0 -2.13866637495526e-16 -8.56735695416729e-48
  outer loop
    vertex -20.0471865092618 -0.672374171647831 0.2
    vertex -20.0813514922921 -0.93188298201108 2.2
    vertex -20.0813514922921 -0.93188298201108 0.2
  endloop
endfacet
facet normal 0.965925826289069 -0.258819045102519 6.58094504081766e-33
  outer loop
    vertex -20.0813514922921 -0.93188298201108 2.2
    vertex -20.0471865092618 -0.672374171647831 0.2
    vertex -20.0471865092618 -0.672374171647831 2.2
  endloop
endfacet
facet normal 0.965925826289069 0.258819045102519 -6.58094504081768e-33
  outer loop
    vertex -20.0813514922921 -0.412865361284582 0.2
    vertex -20.0471865092618 -0.672374171647831 2.2
    vertex -20.0471865092618 -0.672374171647831 0.2
  endloop
endfacet
facet normal 1.0 -2.13866637495526e-16 -8.56735695416729e-48
  outer loop
    vertex -20.0471865092618 -0.672374171647831 2.2
    vertex -20.0813514922921 -0.412865361284582 0.2
    vertex -20.0813514922921 -0.412865361284582 2.2
  endloop
endfacet
facet normal 0.866025403784438 0.500000000000002 -1.27134095526296e-32
  outer loop
    vertex -20.1815181542496 -0.171041647489003 0.2
    vertex -20.0813514922921 -0.412865361284582 2.2
    vertex -20.0813514922921 -0.412865361284582 0.2
  endloop
endfacet
facet normal 0.965925826289069 0.258819045102519 -6.58094504081768e-33
  outer loop
    vertex -20.0813514922921 -0.412865361284582 2.2
    vertex -20.1815181542496 -0.171041647489003 0.2
    vertex -20.1815181542496 -0.171041647489003 2.2
  endloop
endfacet
facet normal 0.707106781186545 0.70710678118655 -1.79794762133325e-32
  outer loop
    vertex -20.3408603026553 0.0366170832763211 0.2
    vertex -20.1815181542496 -0.171041647489003 2.2
    vertex -20.1815181542496 -0.171041647489003 0.2
  endloop
endfacet
facet normal 0.866025403784438 0.500000000000002 -1.27134095526296e-32
  outer loop
    vertex -20.1815181542496 -0.171041647489003 2.2
    vertex -20.3408603026553 0.0366170832763211 0.2
    vertex -20.3408603026553 0.0366170832763211 2.2
  endloop
endfacet
facet normal 0.5 0.866025403784439 -2.2020271282586e-32
  outer loop
    vertex -20.5485190334206 0.195959231682011 2.2
    vertex -20.3408603026553 0.0366170832763211 0.2
    vertex -20.5485190334206 0.195959231682011 0.2
  endloop
endfacet
facet normal 0.707106781186545 0.70710678118655 -1.79794762133325e-32
  outer loop
    vertex -20.3408603026553 0.0366170832763211 0.2
    vertex -20.5485190334206 0.195959231682011 2.2
    vertex -20.3408603026553 0.0366170832763211 2.2
  endloop
endfacet
facet normal 0.25881904510252 0.965925826289068 -2.45604212541502e-32
  outer loop
    vertex -20.7903427472162 0.29612589363957 2.2
    vertex -20.5485190334206 0.195959231682011 0.2
    vertex -20.7903427472162 0.29612589363957 0.2
  endloop
endfacet
facet normal 0.5 0.866025403784439 -2.2020271282586e-32
  outer loop
    vertex -20.5485190334206 0.195959231682011 0.2
    vertex -20.7903427472162 0.29612589363957 2.2
    vertex -20.5485190334206 0.195959231682011 2.2
  endloop
endfacet
facet normal 4.45555494782345e-17 1.0 -2.54268191052592e-32
  outer loop
    vertex -21.0498515575795 0.330290876669825 2.2
    vertex -20.7903427472162 0.29612589363957 0.2
    vertex -21.0498515575795 0.330290876669825 0.2
  endloop
endfacet
facet normal 0.25881904510252 0.965925826289068 -2.45604212541502e-32
  outer loop
    vertex -20.7903427472162 0.29612589363957 0.2
    vertex -21.0498515575795 0.330290876669825 2.2
    vertex -20.7903427472162 0.29612589363957 2.2
  endloop
endfacet
facet normal -0.258819045102521 0.965925826289068 -2.45604212541501e-32
  outer loop
    vertex -21.3093603679427 0.296125893639569 2.2
    vertex -21.0498515575795 0.330290876669825 0.2
    vertex -21.3093603679427 0.296125893639569 0.2
  endloop
endfacet
facet normal 4.45555494782345e-17 1.0 -2.54268191052592e-32
  outer loop
    vertex -21.0498515575795 0.330290876669825 0.2
    vertex -21.3093603679427 0.296125893639569 2.2
    vertex -21.0498515575795 0.330290876669825 2.2
  endloop
endfacet
facet normal -0.5 0.866025403784439 -2.2020271282586e-32
  outer loop
    vertex -21.5511840817383 0.19595923168201 2.2
    vertex -21.3093603679427 0.296125893639569 0.2
    vertex -21.5511840817383 0.19595923168201 0.2
  endloop
endfacet
facet normal -0.258819045102521 0.965925826289068 -2.45604212541501e-32
  outer loop
    vertex -21.3093603679427 0.296125893639569 0.2
    vertex -21.5511840817383 0.19595923168201 2.2
    vertex -21.3093603679427 0.296125893639569 2.2
  endloop
endfacet
facet normal -0.707106781186548 0.707106781186547 -1.79794762133324e-32
  outer loop
    vertex -21.7588428125036 0.0366170832763205 2.2
    vertex -21.5511840817383 0.19595923168201 0.2
    vertex -21.7588428125036 0.0366170832763205 0.2
  endloop
endfacet
facet normal -0.5 0.866025403784439 -2.2020271282586e-32
  outer loop
    vertex -21.5511840817383 0.19595923168201 0.2
    vertex -21.7588428125036 0.0366170832763205 2.2
    vertex -21.5511840817383 0.19595923168201 2.2
  endloop
endfacet
facet normal -0.707106781186548 0.707106781186547 -1.79794762133324e-32
  outer loop
    vertex -21.7588428125036 0.0366170832763205 2.2
    vertex -21.9181849609093 -0.171041647489003 0.2
    vertex -21.9181849609093 -0.171041647489003 2.2
  endloop
endfacet
facet normal -0.86602540378444 0.499999999999998 -1.27134095526295e-32
  outer loop
    vertex -21.9181849609093 -0.171041647489003 0.2
    vertex -21.7588428125036 0.0366170832763205 2.2
    vertex -21.7588428125036 0.0366170832763205 0.2
  endloop
endfacet
facet normal -0.86602540378444 0.499999999999998 -1.27134095526295e-32
  outer loop
    vertex -21.9181849609093 -0.171041647489003 2.2
    vertex -22.0183516228669 -0.412865361284583 0.2
    vertex -22.0183516228669 -0.412865361284583 2.2
  endloop
endfacet
facet normal -0.965925826289069 0.258819045102519 -6.58094504081766e-33
  outer loop
    vertex -22.0183516228669 -0.412865361284583 0.2
    vertex -21.9181849609093 -0.171041647489003 2.2
    vertex -21.9181849609093 -0.171041647489003 0.2
  endloop
endfacet
facet normal -0.965925826289069 0.258819045102519 -6.58094504081766e-33
  outer loop
    vertex -22.0183516228669 -0.412865361284583 2.2
    vertex -22.0525166058971 -0.672374171647831 0.2
    vertex -22.0525166058971 -0.672374171647831 2.2
  endloop
endfacet
facet normal -1.0 8.01999890608221e-17 1.09837909668811e-47
  outer loop
    vertex -22.0525166058971 -0.672374171647831 0.2
    vertex -22.0183516228669 -0.412865361284583 2.2
    vertex -22.0183516228669 -0.412865361284583 0.2
  endloop
endfacet
facet normal -1.0 8.01999890608221e-17 1.09837909668811e-47
  outer loop
    vertex -22.0525166058971 -0.672374171647831 2.2
    vertex -22.0183516228669 -0.93188298201108 0.2
    vertex -22.0183516228669 -0.93188298201108 2.2
  endloop
endfacet
facet normal -0.965925826289069 -0.258819045102519 6.58094504081768e-33
  outer loop
    vertex -22.0183516228669 -0.93188298201108 0.2
    vertex -22.0525166058971 -0.672374171647831 2.2
    vertex -22.0525166058971 -0.672374171647831 0.2
  endloop
endfacet
facet normal -0.965925826289069 -0.258819045102519 6.58094504081768e-33
  outer loop
    vertex -22.0183516228669 -0.93188298201108 2.2
    vertex -21.9181849609093 -1.17370669580666 0.2
    vertex -21.9181849609093 -1.17370669580666 2.2
  endloop
endfacet
facet normal -0.866025403784438 -0.500000000000001 1.27134095526296e-32
  outer loop
    vertex -21.9181849609093 -1.17370669580666 0.2
    vertex -22.0183516228669 -0.93188298201108 2.2
    vertex -22.0183516228669 -0.93188298201108 0.2
  endloop
endfacet
facet normal -0.866025403784438 -0.500000000000001 1.27134095526296e-32
  outer loop
    vertex -21.9181849609093 -1.17370669580666 2.2
    vertex -21.7588428125036 -1.38136542657198 0.2
    vertex -21.7588428125036 -1.38136542657198 2.2
  endloop
endfacet
facet normal -0.707106781186545 -0.70710678118655 1.79794762133325e-32
  outer loop
    vertex -21.7588428125036 -1.38136542657198 0.2
    vertex -21.9181849609093 -1.17370669580666 2.2
    vertex -21.9181849609093 -1.17370669580666 0.2
  endloop
endfacet
facet normal -0.500000000000001 -0.866025403784438 2.2020271282586e-32
  outer loop
    vertex -21.5511840817383 -1.54070757497767 2.2
    vertex -21.7588428125036 -1.38136542657198 0.2
    vertex -21.5511840817383 -1.54070757497767 0.2
  endloop
endfacet
facet normal -0.707106781186545 -0.70710678118655 1.79794762133325e-32
  outer loop
    vertex -21.7588428125036 -1.38136542657198 0.2
    vertex -21.5511840817383 -1.54070757497767 2.2
    vertex -21.7588428125036 -1.38136542657198 2.2
  endloop
endfacet
facet normal -0.258819045102522 -0.965925826289068 2.45604212541501e-32
  outer loop
    vertex -21.3093603679427 -1.64087423693523 2.2
    vertex -21.5511840817383 -1.54070757497767 0.2
    vertex -21.3093603679427 -1.64087423693523 0.2
  endloop
endfacet
facet normal -0.500000000000001 -0.866025403784438 2.2020271282586e-32
  outer loop
    vertex -21.5511840817383 -1.54070757497767 0.2
    vertex -21.3093603679427 -1.64087423693523 2.2
    vertex -21.5511840817383 -1.54070757497767 2.2
  endloop
endfacet
facet normal 6.68333242173518e-16 -1.0 2.54268191052592e-32
  outer loop
    vertex -21.0498515575795 -1.67503921996549 2.2
    vertex -21.3093603679427 -1.64087423693523 0.2
    vertex -21.0498515575795 -1.67503921996549 0.2
  endloop
endfacet
facet normal -0.258819045102522 -0.965925826289068 2.45604212541501e-32
  outer loop
    vertex -21.3093603679427 -1.64087423693523 0.2
    vertex -21.0498515575795 -1.67503921996549 2.2
    vertex -21.3093603679427 -1.64087423693523 2.2
  endloop
endfacet
facet normal 0.25881904510252 -0.965925826289068 2.45604212541502e-32
  outer loop
    vertex -20.7903427472162 -1.64087423693523 2.2
    vertex -21.0498515575795 -1.67503921996549 0.2
    vertex -20.7903427472162 -1.64087423693523 0.2
  endloop
endfacet
facet normal 6.68333242173518e-16 -1.0 2.54268191052592e-32
  outer loop
    vertex -21.0498515575795 -1.67503921996549 0.2
    vertex -20.7903427472162 -1.64087423693523 2.2
    vertex -21.0498515575795 -1.67503921996549 2.2
  endloop
endfacet
facet normal 0.500000000000002 -0.866025403784438 2.20202712825859e-32
  outer loop
    vertex -20.5485190334206 -1.54070757497767 2.2
    vertex -20.7903427472162 -1.64087423693523 0.2
    vertex -20.5485190334206 -1.54070757497767 0.2
  endloop
endfacet
facet normal 0.25881904510252 -0.965925826289068 2.45604212541502e-32
  outer loop
    vertex -20.7903427472162 -1.64087423693523 0.2
    vertex -20.5485190334206 -1.54070757497767 2.2
    vertex -20.7903427472162 -1.64087423693523 2.2
  endloop
endfacet
facet normal 0.707106781186547 -0.707106781186548 1.79794762133324e-32
  outer loop
    vertex -20.3408603026553 -1.38136542657198 2.2
    vertex -20.5485190334206 -1.54070757497767 0.2
    vertex -20.3408603026553 -1.38136542657198 0.2
  endloop
endfacet
facet normal 0.500000000000002 -0.866025403784438 2.20202712825859e-32
  outer loop
    vertex -20.5485190334206 -1.54070757497767 0.2
    vertex -20.3408603026553 -1.38136542657198 2.2
    vertex -20.5485190334206 -1.54070757497767 2.2
  endloop
endfacet
facet normal -0.0 -0.0 1.0
  outer loop
    vertex -23.7498515575795 -2.67237417164783 0.2
    vertex -21.9181849609093 -1.17370669580666 0.2
    vertex -23.7498515575795 1.32762582835217 0.2
  endloop
endfacet
facet normal -0.0 -0.0 1.0
  outer loop
    vertex -21.9181849609093 -1.17370669580666 0.2
    vertex -23.7498515575795 -2.67237417164783 0.2
    vertex -21.7588428125036 -1.38136542657198 0.2
  endloop
endfacet
facet normal -0.0 -0.0 1.0
  outer loop
    vertex -21.7588428125036 -1.38136542657198 0.2
    vertex -23.7498515575795 -2.67237417164783 0.2
    vertex -21.5511840817383 -1.54070757497767 0.2
  endloop
endfacet
facet normal -0.0 -0.0 1.0
  outer loop
    vertex -21.5511840817383 -1.54070757497767 0.2
    vertex -23.7498515575795 -2.67237417164783 0.2
    vertex -21.3093603679427 -1.64087423693523 0.2
  endloop
endfacet
facet normal -0.0 -0.0 1.0
  outer loop
    vertex -21.3093603679427 -1.64087423693523 0.2
    vertex -23.7498515575795 -2.67237417164783 0.2
    vertex -18.2773487900786 -2.67237417164783 0.2
  endloop
endfacet
facet normal -0.0 -0.0 1.0
  outer loop
    vertex -23.7498515575795 1.32762582835217 0.2
    vertex -21.9181849609093 -1.17370669580666 0.2
    vertex -22.0183516228669 -0.93188298201108 0.2
  endloop
endfacet
facet normal -0.0 -0.0 1.0
  outer loop
    vertex -23.7498515575795 1.32762582835217 0.2
    vertex -22.0183516228669 -0.93188298201108 0.2
    vertex -22.0525166058971 -0.672374171647831 0.2
  endloop
endfacet
facet normal -0.0 -0.0 1.0
  outer loop
    vertex -21.3093603679427 -1.64087423693523 0.2
    vertex -18.2773487900786 -2.67237417164783 0.2
    vertex -21.0498515575795 -1.67503921996549 0.2
  endloop
endfacet
facet normal -0.0 -0.0 1.0
  outer loop
    vertex -21.0498515575795 -1.67503921996549 0.2
    vertex -18.2773487900786 -2.67237417164783 0.2
    vertex -20.7903427472162 -1.64087423693523 0.2
  endloop
endfacet
facet normal -0.0 -0.0 1.0
  outer loop
    vertex -20.7903427472162 -1.64087423693523 0.2
    vertex -18.2773487900786 -2.67237417164783 0.2
    vertex -20.5485190334206 -1.54070757497767 0.2
  endloop
endfacet
facet normal -0.0 -0.0 1.0
  outer loop
    vertex -20.5485190334206 -1.54070757497767 0.2
    vertex -18.2773487900786 -2.67237417164783 0.2
    vertex -20.3408603026553 -1.38136542657198 0.2
  endloop
endfacet
facet normal -0.0 -0.0 1.0
  outer loop
    vertex -20.3408603026553 -1.38136542657198 0.2
    vertex -18.2773487900786 -2.67237417164783 0.2
    vertex -20.1815181542496 -1.17370669580666 0.2
  endloop
endfacet
facet normal -0.0 -0.0 1.0
  outer loop
    vertex -20.1815181542496 -1.17370669580666 0.2
    vertex -18.2773487900786 -2.67237417164783 0.2
    vertex -20.0813514922921 -0.93188298201108 0.2
  endloop
endfacet
facet normal -0.0 -0.0 1.0
  outer loop
    vertex -20.0813514922921 -0.93188298201108 0.2
    vertex -18.2773487900786 -2.67237417164783 0.2
    vertex -20.0471865092618 -0.672374171647831 0.2
  endloop
endfacet
facet normal -0.0 -0.0 1.0
  outer loop
    vertex -23.7498515575795 1.32762582835217 0.2
    vertex -21.3093603679427 0.296125893639569 0.2
    vertex -18.2773487900786 1.32762582835217 0.2
  endloop
endfacet
facet normal -0.0 -0.0 1.0
  outer loop
    vertex -21.3093603679427 0.296125893639569 0.2
    vertex -23.7498515575795 1.32762582835217 0.2
    vertex -21.5511840817383 0.19595923168201 0.2
  endloop
endfacet
facet normal -0.0 -0.0 1.0
  outer loop
    vertex -21.5511840817383 0.19595923168201 0.2
    vertex -23.7498515575795 1.32762582835217 0.2
    vertex -21.7588428125036 0.0366170832763205 0.2
  endloop
endfacet
facet normal -0.0 -0.0 1.0
  outer loop
    vertex -21.7588428125036 0.0366170832763205 0.2
    vertex -23.7498515575795 1.32762582835217 0.2
    vertex -21.9181849609093 -0.171041647489003 0.2
  endloop
endfacet
facet normal -0.0 -0.0 1.0
  outer loop
    vertex -21.9181849609093 -0.171041647489003 0.2
    vertex -23.7498515575795 1.32762582835217 0.2
    vertex -22.0183516228669 -0.412865361284583 0.2
  endloop
endfacet
facet normal -0.0 -0.0 1.0
  outer loop
    vertex -22.0183516228669 -0.412865361284583 0.2
    vertex -23.7498515575795 1.32762582835217 0.2
    vertex -22.0525166058971 -0.672374171647831 0.2
  endloop
endfacet
facet normal -0.0 -0.0 1.0
  outer loop
    vertex -18.2773487900786 1.32762582835217 0.2
    vertex -21.3093603679427 0.296125893639569 0.2
    vertex -21.0498515575795 0.330290876669825 0.2
  endloop
endfacet
facet normal -0.0 -0.0 1.0
  outer loop
    vertex -18.2773487900786 1.32762582835217 0.2
    vertex -21.0498515575795 0.330290876669825 0.2
    vertex -20.7903427472162 0.29612589363957 0.2
  endloop
endfacet
facet normal -0.0 -0.0 1.0
  outer loop
    vertex -18.2773487900786 1.32762582835217 0.2
    vertex -20.7903427472162 0.29612589363957 0.2
    vertex -20.5485190334206 0.195959231682011 0.2
  endloop
endfacet
facet normal -0.0 -0.0 1.0
  outer loop
    vertex -18.2773487900786 1.32762582835217 0.2
    vertex -20.5485190334206 0.195959231682011 0.2
    vertex -20.3408603026553 0.0366170832763211 0.2
  endloop
endfacet
facet normal -0.0 -0.0 1.0
  outer loop
    vertex -18.2773487900786 1.32762582835217 0.2
    vertex -20.3408603026553 0.0366170832763211 0.2
    vertex -20.1815181542496 -0.171041647489003 0.2
  endloop
endfacet
facet normal -0.0 -0.0 1.0
  outer loop
    vertex -18.2773487900786 1.32762582835217 0.2
    vertex -20.1815181542496 -0.171041647489003 0.2
    vertex -20.0813514922921 -0.412865361284582 0.2
  endloop
endfacet
facet normal -0.0 -0.0 1.0
  outer loop
    vertex -18.2773487900786 1.32762582835217 0.2
    vertex -20.0813514922921 -0.412865361284582 0.2
    vertex -20.0471865092618 -0.672374171647831 0.2
  endloop
endfacet
facet normal -0.0 -0.0 1.0
  outer loop
    vertex -18.2773487900786 1.32762582835217 0.2
    vertex -20.0471865092618 -0.672374171647831 0.2
    vertex -18.2773487900786 -2.67237417164783 0.2
  endloop
endfacet
facet normal -0.0 -1.0 -0.0
  outer loop
    vertex -15.7325052209293 -5.17237417164783 -14.3
    vertex -26.2623131505708 -5.17237417164783 -19.3
    vertex -15.7325052209293 -5.17237417164783 -19.3
  endloop
endfacet
facet normal -0.0 -1.0 -0.0
  outer loop
    vertex -26.2623131505708 -5.17237417164783 -19.3
    vertex -15.7325052209293 -5.17237417164783 -14.3
    vertex -26.2623131505708 -5.17237417164783 -14.3
  endloop
endfacet
facet normal -1.0 0.0 0.0
  outer loop
    vertex -26.2623131505708 4.82762582835217 -14.3
    vertex -26.2623131505708 -5.17237417164783 -19.3
    vertex -26.2623131505708 -5.17237417164783 -14.3
  endloop
endfacet
facet normal -1.0 0.0 0.0
  outer loop
    vertex -26.2623131505708 -5.17237417164783 -19.3
    vertex -26.2623131505708 4.82762582835217 -14.3
    vertex -26.2623131505708 4.82762582835217 -19.3
  endloop
endfacet
facet normal -0.0 1.0 0.0
  outer loop
    vertex -26.2623131505708 4.82762582835217 -14.3
    vertex -15.7325052209293 4.82762582835217 -19.3
    vertex -26.2623131505708 4.82762582835217 -19.3
  endloop
endfacet
facet normal -0.0 1.0 0.0
  outer loop
    vertex -15.7325052209293 4.82762582835217 -19.3
    vertex -26.2623131505708 4.82762582835217 -14.3
    vertex -15.7325052209293 4.82762582835217 -14.3
  endloop
endfacet
facet normal -0.0 -0.0 -1.0
  outer loop
    vertex -12.2325052209293 1.32762582835217 -14.2
    vertex -15.7325052209293 -1.67237417164783 -14.2
    vertex -15.7325052209293 1.32762582835217 -14.2
  endloop
endfacet
facet normal -0.0 -0.0 -1.0
  outer loop
    vertex -15.7325052209293 -1.67237417164783 -14.2
    vertex -12.2325052209293 1.32762582835217 -14.2
    vertex -12.2325052209293 -1.67237417164783 -14.2
  endloop
endfacet
facet normal 0.0 -1.0 0.0
  outer loop
    vertex -12.2325052209293 -1.67237417164783 -2.3
    vertex -15.7325052209293 -1.67237417164783 -14.2
    vertex -12.2325052209293 -1.67237417164783 -14.2
  endloop
endfacet
facet normal 0.0 -1.0 0.0
  outer loop
    vertex -15.7325052209293 -1.67237417164783 -14.2
    vertex -12.2325052209293 -1.67237417164783 -2.3
    vertex -15.7325052209293 -1.67237417164783 -2.3
  endloop
endfacet
facet normal 1.0 -0.0 0.0
  outer loop
    vertex -12.2325052209293 1.32762582835217 -14.2
    vertex -12.2325052209293 -1.67237417164783 -2.3
    vertex -12.2325052209293 -1.67237417164783 -14.2
  endloop
endfacet
facet normal 1.0 -0.0 0.0
  outer loop
    vertex -12.2325052209293 -1.67237417164783 -2.3
    vertex -12.2325052209293 1.32762582835217 -14.2
    vertex -12.2325052209293 1.32762582835217 -2.3
  endloop
endfacet
facet normal 0.130526192220052 -0.99144486137381 1.57960149723959e-18
  outer loop
    vertex -20.99740918575 3.32762582835217 -16.1
    vertex -21.9032758436088 3.20836622036391 -19.3
    vertex -20.99740918575 3.32762582835217 -19.3
  endloop
endfacet
facet normal 0.258819045102521 -0.965925826289068 7.96615908145744e-19
  outer loop
    vertex -21.9032758436088 3.20836622036391 -19.3
    vertex -20.99740918575 3.32762582835217 -16.1
    vertex -21.9032758436088 3.20836622036391 -16.1
  endloop
endfacet
facet normal -0.258819045102522 -0.965925826289068 -9.40147332718831e-32
  outer loop
    vertex -20.0915425278912 3.20836622036391 -16.1
    vertex -20.99740918575 3.32762582835217 -19.3
    vertex -20.0915425278912 3.20836622036391 -19.3
  endloop
endfacet
facet normal -0.130526192220053 -0.99144486137381 0.0
  outer loop
    vertex -20.99740918575 3.32762582835217 -19.3
    vertex -20.0915425278912 3.20836622036391 -16.1
    vertex -20.99740918575 3.32762582835217 -16.1
  endloop
endfacet
facet normal -0.5 -0.866025403784439 -1.85259029814065e-31
  outer loop
    vertex -19.24740918575 2.8587147415977 -16.1
    vertex -20.0915425278912 3.20836622036391 -19.3
    vertex -19.24740918575 2.8587147415977 -19.3
  endloop
endfacet
facet normal -0.258819045102522 -0.965925826289068 -9.40147332718831e-32
  outer loop
    vertex -20.0915425278912 3.20836622036391 -19.3
    vertex -19.24740918575 2.8587147415977 -16.1
    vertex -20.0915425278912 3.20836622036391 -16.1
  endloop
endfacet
facet normal -0.707106781186547 -0.707106781186548 -1.73500008333642e-31
  outer loop
    vertex -18.5225354515971 2.30249956250509 -16.1
    vertex -19.24740918575 2.8587147415977 -19.3
    vertex -18.5225354515971 2.30249956250509 -19.3
  endloop
endfacet
facet normal -0.5 -0.866025403784439 -1.85259029814065e-31
  outer loop
    vertex -19.24740918575 2.8587147415977 -19.3
    vertex -18.5225354515971 2.30249956250509 -16.1
    vertex -19.24740918575 2.8587147415977 -16.1
  endloop
endfacet
facet normal -0.707106781186547 -0.707106781186548 -1.73500008333642e-31
  outer loop
    vertex -18.5225354515971 2.30249956250509 -16.1
    vertex -17.9663202725045 1.57762582835217 -19.3
    vertex -17.9663202725045 1.57762582835217 -16.1
  endloop
endfacet
facet normal -0.866025403784439 -0.499999999999999 -1.49917248007602e-31
  outer loop
    vertex -17.9663202725045 1.57762582835217 -19.3
    vertex -18.5225354515971 2.30249956250509 -16.1
    vertex -18.5225354515971 2.30249956250509 -19.3
  endloop
endfacet
facet normal -0.866025403784439 -0.499999999999999 -1.49917248007602e-31
  outer loop
    vertex -17.9663202725045 1.57762582835217 -16.1
    vertex -17.6166687937383 0.733492486210991 -19.3
    vertex -17.6166687937383 0.733492486210991 -16.1
  endloop
endfacet
facet normal -0.965925826289069 -0.25881904510252 -1.1611787497981e-31
  outer loop
    vertex -17.6166687937383 0.733492486210991 -19.3
    vertex -17.9663202725045 1.57762582835217 -16.1
    vertex -17.9663202725045 1.57762582835217 -19.3
  endloop
endfacet
facet normal -0.965925826289069 -0.25881904510252 -1.1611787497981e-31
  outer loop
    vertex -17.6166687937383 0.733492486210991 -16.1
    vertex -17.49740918575 -0.172374171647831 -19.3
    vertex -17.49740918575 -0.172374171647831 -16.1
  endloop
endfacet
facet normal -1.0 -1.96044417704232e-16 -7.44052606660062e-32
  outer loop
    vertex -17.49740918575 -0.172374171647831 -19.3
    vertex -17.6166687937383 0.733492486210991 -16.1
    vertex -17.6166687937383 0.733492486210991 -19.3
  endloop
endfacet
facet normal -1.0 -1.96044417704232e-16 -7.44052606660062e-32
  outer loop
    vertex -17.49740918575 -0.172374171647831 -16.1
    vertex -17.6166687937383 -1.07824082950666 -19.3
    vertex -17.6166687937383 -1.07824082950666 -16.1
  endloop
endfacet
facet normal -0.965925826289068 0.258819045102521 -2.76220507983205e-32
  outer loop
    vertex -17.6166687937383 -1.07824082950666 -19.3
    vertex -17.49740918575 -0.172374171647831 -16.1
    vertex -17.49740918575 -0.172374171647831 -19.3
  endloop
endfacet
facet normal -0.965925826289068 0.258819045102521 -2.76220507983205e-32
  outer loop
    vertex -17.6166687937383 -1.07824082950666 -16.1
    vertex -17.9663202725045 -1.92237417164783 -19.3
    vertex -17.9663202725045 -1.92237417164783 -16.1
  endloop
endfacet
facet normal -0.866025403784438 0.500000000000001 2.10435561836736e-32
  outer loop
    vertex -17.9663202725045 -1.92237417164783 -19.3
    vertex -17.6166687937383 -1.07824082950666 -16.1
    vertex -17.6166687937383 -1.07824082950666 -19.3
  endloop
endfacet
facet normal -0.866025403784438 0.500000000000001 2.10435561836736e-32
  outer loop
    vertex -17.9663202725045 -1.92237417164783 -16.1
    vertex -18.5225354515971 -2.64724790580075 -19.3
    vertex -18.5225354515971 -2.64724790580075 -16.1
  endloop
endfacet
facet normal -0.707106781186547 0.707106781186548 6.82750795878709e-32
  outer loop
    vertex -18.5225354515971 -2.64724790580075 -19.3
    vertex -17.9663202725045 -1.92237417164783 -16.1
    vertex -17.9663202725045 -1.92237417164783 -19.3
  endloop
endfacet
facet normal -0.5 0.866025403784439 1.10853769148059e-31
  outer loop
    vertex -19.24740918575 -3.20346308489337 -16.1
    vertex -18.5225354515971 -2.64724790580075 -19.3
    vertex -19.24740918575 -3.20346308489337 -19.3
  endloop
endfacet
facet normal -0.707106781186547 0.707106781186548 6.82750795878709e-32
  outer loop
    vertex -18.5225354515971 -2.64724790580075 -19.3
    vertex -19.24740918575 -3.20346308489337 -16.1
    vertex -18.5225354515971 -2.64724790580075 -16.1
  endloop
endfacet
facet normal 0.5 0.866025403784439 1.85259029814065e-31
  outer loop
    vertex -22.74740918575 -3.20346308489336 -16.1
    vertex -21.9032758436089 -3.55311456365957 -19.3
    vertex -22.74740918575 -3.20346308489336 -19.3
  endloop
endfacet
facet normal 0.258819045102521 0.965925826289068 9.40147332718831e-32
  outer loop
    vertex -21.9032758436089 -3.55311456365957 -19.3
    vertex -22.74740918575 -3.20346308489336 -16.1
    vertex -21.9032758436089 -3.55311456365957 -16.1
  endloop
endfacet
facet normal 0.707106781186548 0.707106781186547 9.12442965421818e-32
  outer loop
    vertex -23.4722829199029 -2.64724790580075 -16.1
    vertex -22.74740918575 -3.20346308489336 -19.3
    vertex -23.4722829199029 -2.64724790580075 -19.3
  endloop
endfacet
facet normal 0.5 0.866025403784439 1.85259029814065e-31
  outer loop
    vertex -22.74740918575 -3.20346308489336 -19.3
    vertex -23.4722829199029 -2.64724790580075 -16.1
    vertex -22.74740918575 -3.20346308489336 -16.1
  endloop
endfacet
facet normal 0.793353340291236 0.60876142900872 -0.0
  outer loop
    vertex -24.0284980989956 -1.92237417164783 -19.3
    vertex -23.4722829199029 -2.64724790580075 -16.1
    vertex -23.4722829199029 -2.64724790580075 -19.3
  endloop
endfacet
facet normal 0.707106781186548 0.707106781186547 9.12442965421818e-32
  outer loop
    vertex -23.4722829199029 -2.64724790580075 -16.1
    vertex -24.0284980989956 -1.92237417164783 -19.3
    vertex -24.0284980989956 -1.92237417164783 -16.1
  endloop
endfacet
facet normal 0.707106781186548 -0.707106781186548 -2.73303908488821e-18
  outer loop
    vertex -23.4722829199029 2.30249956250509 -19.3
    vertex -24.0284980989956 1.57762582835217 -16.1
    vertex -24.0284980989956 1.57762582835217 -19.3
  endloop
endfacet
facet normal 0.793353340291234 -0.608761429008722 -5.4193151132923e-18
  outer loop
    vertex -24.0284980989956 1.57762582835217 -16.1
    vertex -23.4722829199029 2.30249956250509 -19.3
    vertex -23.4722829199029 2.30249956250509 -16.1
  endloop
endfacet
facet normal 0.5 -0.866025403784438 -1.10853769148059e-31
  outer loop
    vertex -22.74740918575 2.8587147415977 -16.1
    vertex -23.4722829199029 2.30249956250509 -19.3
    vertex -22.74740918575 2.8587147415977 -19.3
  endloop
endfacet
facet normal 0.707106781186548 -0.707106781186548 -2.73303908488821e-18
  outer loop
    vertex -23.4722829199029 2.30249956250509 -19.3
    vertex -22.74740918575 2.8587147415977 -16.1
    vertex -23.4722829199029 2.30249956250509 -16.1
  endloop
endfacet
facet normal 0.258819045102521 -0.965925826289068 7.96615908145744e-19
  outer loop
    vertex -21.9032758436088 3.20836622036391 -16.1
    vertex -22.74740918575 2.8587147415977 -19.3
    vertex -21.9032758436088 3.20836622036391 -19.3
  endloop
endfacet
facet normal 0.5 -0.866025403784438 -1.10853769148059e-31
  outer loop
    vertex -22.74740918575 2.8587147415977 -19.3
    vertex -21.9032758436088 3.20836622036391 -16.1
    vertex -22.74740918575 2.8587147415977 -16.1
  endloop
endfacet
facet normal 3.93701113908239e-16 -1.28621302588447e-31 -1.0
  outer loop
    vertex -24.3781495777618 0.733492486210993 -16.1
    vertex -24.3781495777618 -1.07824082950665 -16.1
    vertex -24.49740918575 -0.17237417164783 -16.1
  endloop
endfacet
facet normal 3.93701113908239e-16 -1.28621302588447e-31 -1.0
  outer loop
    vertex -24.3781495777618 -1.07824082950665 -16.1
    vertex -24.3781495777618 0.733492486210993 -16.1
    vertex -24.0284980989956 1.57762582835217 -16.1
  endloop
endfacet
facet normal 3.93701113908239e-16 -1.28621302588447e-31 -1.0
  outer loop
    vertex -24.3781495777618 -1.07824082950665 -16.1
    vertex -24.0284980989956 1.57762582835217 -16.1
    vertex -24.0284980989956 -1.92237417164783 -16.1
  endloop
endfacet
facet normal 3.93701113908239e-16 -1.28621302588447e-31 -1.0
  outer loop
    vertex -24.0284980989956 -1.92237417164783 -16.1
    vertex -24.0284980989956 1.57762582835217 -16.1
    vertex -23.4722829199029 2.30249956250509 -16.1
  endloop
endfacet
facet normal 3.93701113908239e-16 -1.28621302588447e-31 -1.0
  outer loop
    vertex -24.0284980989956 -1.92237417164783 -16.1
    vertex -23.4722829199029 2.30249956250509 -16.1
    vertex -23.4722829199029 -2.64724790580075 -16.1
  endloop
endfacet
facet normal 3.93701113908239e-16 -1.28621302588447e-31 -1.0
  outer loop
    vertex -23.4722829199029 -2.64724790580075 -16.1
    vertex -23.4722829199029 2.30249956250509 -16.1
    vertex -22.74740918575 -3.20346308489336 -16.1
  endloop
endfacet
facet normal 3.93701113908239e-16 -1.28621302588447e-31 -1.0
  outer loop
    vertex -22.74740918575 -3.20346308489336 -16.1
    vertex -23.4722829199029 2.30249956250509 -16.1
    vertex -22.74740918575 2.8587147415977 -16.1
  endloop
endfacet
facet normal 3.93701113908239e-16 -1.28621302588447e-31 -1.0
  outer loop
    vertex -22.74740918575 -3.20346308489336 -16.1
    vertex -22.74740918575 2.8587147415977 -16.1
    vertex -21.9032758436088 3.20836622036391 -16.1
  endloop
endfacet
facet normal 3.93701113908239e-16 -1.28621302588447e-31 -1.0
  outer loop
    vertex -22.74740918575 -3.20346308489336 -16.1
    vertex -21.9032758436088 3.20836622036391 -16.1
    vertex -21.9032758436089 -3.55311456365957 -16.1
  endloop
endfacet
facet normal 3.93701113908239e-16 -1.28621302588447e-31 -1.0
  outer loop
    vertex -21.9032758436089 -3.55311456365957 -16.1
    vertex -21.9032758436088 3.20836622036391 -16.1
    vertex -20.99740918575 -3.67237417164783 -16.1
  endloop
endfacet
facet normal 3.93701113908239e-16 -1.28621302588447e-31 -1.0
  outer loop
    vertex -20.99740918575 -3.67237417164783 -16.1
    vertex -21.9032758436088 3.20836622036391 -16.1
    vertex -20.99740918575 3.32762582835217 -16.1
  endloop
endfacet
facet normal 3.93701113908239e-16 -1.28621302588447e-31 -1.0
  outer loop
    vertex -20.99740918575 -3.67237417164783 -16.1
    vertex -20.99740918575 3.32762582835217 -16.1
    vertex -20.0915425278912 3.20836622036391 -16.1
  endloop
endfacet
facet normal 3.93701113908239e-16 -1.28621302588447e-31 -1.0
  outer loop
    vertex -20.99740918575 -3.67237417164783 -16.1
    vertex -20.0915425278912 3.20836622036391 -16.1
    vertex -20.0915425278912 -3.55311456365957 -16.1
  endloop
endfacet
facet normal 3.93701113908239e-16 -1.28621302588447e-31 -1.0
  outer loop
    vertex -20.0915425278912 -3.55311456365957 -16.1
    vertex -20.0915425278912 3.20836622036391 -16.1
    vertex -19.24740918575 -3.20346308489337 -16.1
  endloop
endfacet
facet normal 3.93701113908239e-16 -1.28621302588447e-31 -1.0
  outer loop
    vertex -19.24740918575 -3.20346308489337 -16.1
    vertex -20.0915425278912 3.20836622036391 -16.1
    vertex -19.24740918575 2.8587147415977 -16.1
  endloop
endfacet
facet normal 3.93701113908239e-16 -1.28621302588447e-31 -1.0
  outer loop
    vertex -19.24740918575 -3.20346308489337 -16.1
    vertex -19.24740918575 2.8587147415977 -16.1
    vertex -18.5225354515971 2.30249956250509 -16.1
  endloop
endfacet
facet normal 3.93701113908239e-16 -1.28621302588447e-31 -1.0
  outer loop
    vertex -19.24740918575 -3.20346308489337 -16.1
    vertex -18.5225354515971 2.30249956250509 -16.1
    vertex -18.5225354515971 -2.64724790580075 -16.1
  endloop
endfacet
facet normal 3.93701113908239e-16 -1.28621302588447e-31 -1.0
  outer loop
    vertex -18.5225354515971 -2.64724790580075 -16.1
    vertex -18.5225354515971 2.30249956250509 -16.1
    vertex -17.9663202725045 -1.92237417164783 -16.1
  endloop
endfacet
facet normal 3.93701113908239e-16 -1.28621302588447e-31 -1.0
  outer loop
    vertex -17.9663202725045 -1.92237417164783 -16.1
    vertex -18.5225354515971 2.30249956250509 -16.1
    vertex -17.9663202725045 1.57762582835217 -16.1
  endloop
endfacet
facet normal 3.93701113908239e-16 -1.28621302588447e-31 -1.0
  outer loop
    vertex -17.9663202725045 -1.92237417164783 -16.1
    vertex -17.9663202725045 1.57762582835217 -16.1
    vertex -17.6166687937383 -1.07824082950666 -16.1
  endloop
endfacet
facet normal 3.93701113908239e-16 -1.28621302588447e-31 -1.0
  outer loop
    vertex -17.6166687937383 -1.07824082950666 -16.1
    vertex -17.9663202725045 1.57762582835217 -16.1
    vertex -17.6166687937383 0.733492486210991 -16.1
  endloop
endfacet
facet normal 3.93701113908239e-16 -1.28621302588447e-31 -1.0
  outer loop
    vertex -17.6166687937383 -1.07824082950666 -16.1
    vertex -17.6166687937383 0.733492486210991 -16.1
    vertex -17.49740918575 -0.172374171647831 -16.1
  endloop
endfacet
facet normal 0.965925826289068 0.258819045102521 2.64994454730022e-19
  outer loop
    vertex -24.3781495777618 -1.07824082950665 -19.3
    vertex -24.0284980989956 -1.92237417164783 -16.1
    vertex -24.0284980989956 -1.92237417164783 -19.3
  endloop
endfacet
facet normal 0.923879532511287 0.38268343236509 5.25454780869271e-19
  outer loop
    vertex -24.0284980989956 -1.92237417164783 -16.1
    vertex -24.3781495777618 -1.07824082950665 -19.3
    vertex -24.3781495777618 -1.07824082950665 -16.1
  endloop
endfacet
facet normal 1.0 6.23777692695283e-17 0.0
  outer loop
    vertex -24.49740918575 -0.17237417164783 -19.3
    vertex -24.3781495777618 -1.07824082950665 -16.1
    vertex -24.3781495777618 -1.07824082950665 -19.3
  endloop
endfacet
facet normal 0.965925826289068 0.258819045102521 2.64994454730023e-19
  outer loop
    vertex -24.3781495777618 -1.07824082950665 -16.1
    vertex -24.49740918575 -0.17237417164783 -19.3
    vertex -24.49740918575 -0.17237417164783 -16.1
  endloop
endfacet
facet normal 0.965925826289068 -0.258819045102521 2.64994454730042e-19
  outer loop
    vertex -24.3781495777618 0.733492486210993 -19.3
    vertex -24.49740918575 -0.17237417164783 -16.1
    vertex -24.49740918575 -0.17237417164783 -19.3
  endloop
endfacet
facet normal 1.0 6.23777692695283e-17 0.0
  outer loop
    vertex -24.49740918575 -0.17237417164783 -16.1
    vertex -24.3781495777618 0.733492486210993 -19.3
    vertex -24.3781495777618 0.733492486210993 -16.1
  endloop
endfacet
facet normal 0.923879532511287 -0.38268343236509 5.25454780869311e-19
  outer loop
    vertex -24.0284980989956 1.57762582835217 -19.3
    vertex -24.3781495777618 0.733492486210993 -16.1
    vertex -24.3781495777618 0.733492486210993 -19.3
  endloop
endfacet
facet normal 0.965925826289068 -0.258819045102521 2.64994454730043e-19
  outer loop
    vertex -24.3781495777618 0.733492486210993 -16.1
    vertex -24.0284980989956 1.57762582835217 -19.3
    vertex -24.0284980989956 1.57762582835217 -16.1
  endloop
endfacet
facet normal -0.999999987934985 -4.37798160747178e-06 -0.00015527673352757
  outer loop
    vertex -24.0325052209293 1.32762582835217 -0.8
    vertex -24.0325052209293 -2.67237417164783 -1.0
    vertex -24.0325052209293 -2.67237417164783 -0.8
  endloop
endfacet
facet normal -0.999999987934985 -4.37798160747178e-06 -0.00015527673352757
  outer loop
    vertex -24.0325052209293 -2.67237417164783 -1.0
    vertex -24.0325052209293 -3.67237417164783 -14.3
    vertex -24.0325052209293 -3.67237417164783 -1.0
  endloop
endfacet
facet normal -0.999999987934985 -4.37798160747178e-06 -0.00015527673352757
  outer loop
    vertex -24.0325052209293 -3.67237417164783 -14.3
    vertex -24.0325052209293 -2.67237417164783 -1.0
    vertex -24.0325052209293 3.32762582835217 -14.3
  endloop
endfacet
facet normal -0.999999987934985 -4.37798160747178e-06 -0.00015527673352757
  outer loop
    vertex -24.0325052209293 3.32762582835217 -14.3
    vertex -24.0325052209293 -2.67237417164783 -1.0
    vertex -24.0325052209293 1.32762582835217 -1.0
  endloop
endfacet
facet normal -0.999999987934985 -4.37798160747178e-06 -0.00015527673352757
  outer loop
    vertex -24.0325052209293 1.32762582835217 -1.0
    vertex -24.0325052209293 -2.67237417164783 -1.0
    vertex -24.0325052209293 1.32762582835217 -0.8
  endloop
endfacet
facet normal -0.999999987934985 -4.37798160747178e-06 -0.00015527673352757
  outer loop
    vertex -24.0325052209293 3.32762582835217 -14.3
    vertex -24.0325052209293 1.32762582835217 -1.0
    vertex -24.0325052209293 3.32762582835217 -1.0
  endloop
endfacet
facet normal -1.0 -0.0 -0.0
  outer loop
    vertex -23.7498515575795 1.32762582835217 0.2
    vertex -23.7498515575795 -2.67237417164783 -0.8
    vertex -23.7498515575795 -2.67237417164783 0.2
  endloop
endfacet
facet normal -1.0 -0.0 -0.0
  outer loop
    vertex -23.7498515575795 -2.67237417164783 -0.8
    vertex -23.7498515575795 1.32762582835217 0.2
    vertex -23.7498515575795 1.32762582835217 -0.8
  endloop
endfacet
facet normal 0.0 0.0 1.0
  outer loop
    vertex -12.2325052209293 -1.67237417164783 -2.3
    vertex -15.7325052209293 1.32762582835217 -2.3
    vertex -15.7325052209293 -1.67237417164783 -2.3
  endloop
endfacet
facet normal 0.0 0.0 1.0
  outer loop
    vertex -15.7325052209293 1.32762582835217 -2.3
    vertex -12.2325052209293 -1.67237417164783 -2.3
    vertex -12.2325052209293 1.32762582835217 -2.3
  endloop
endfacet
facet normal 1.0 -0.0 -0.0
  outer loop
    vertex -15.7325052209293 -2.67237417164783 0.0
    vertex -15.7325052209293 -1.67237417164783 -2.3
    vertex -15.7325052209293 1.32762582835217 0.0
  endloop
endfacet
facet normal 1.0 -0.0 -0.0
  outer loop
    vertex -15.7325052209293 -1.67237417164783 -2.3
    vertex -15.7325052209293 -2.67237417164783 0.0
    vertex -15.7325052209293 -1.67237417164783 -14.2
  endloop
endfacet
facet normal 1.0 -0.0 -0.0
  outer loop
    vertex -15.7325052209293 1.32762582835217 0.0
    vertex -15.7325052209293 -1.67237417164783 -2.3
    vertex -15.7325052209293 1.32762582835217 -2.3
  endloop
endfacet
facet normal 1.0 -0.0 -0.0
  outer loop
    vertex -15.7325052209293 1.32762582835217 0.0
    vertex -15.7325052209293 1.32762582835217 -2.3
    vertex -15.7325052209293 1.32762582835217 -1.0
  endloop
endfacet
facet normal 1.0 -0.0 -0.0
  outer loop
    vertex -15.7325052209293 4.82762582835217 -19.3
    vertex -15.7325052209293 -5.17237417164783 -14.3
    vertex -15.7325052209293 -5.17237417164783 -19.3
  endloop
endfacet
facet normal 1.0 -0.0 -0.0
  outer loop
    vertex -15.7325052209293 -5.17237417164783 -14.3
    vertex -15.7325052209293 4.82762582835217 -19.3
    vertex -15.7325052209293 -3.67237417164783 -14.3
  endloop
endfacet
facet normal 1.0 -0.0 -0.0
  outer loop
    vertex -15.7325052209293 -3.67237417164783 -14.3
    vertex -15.7325052209293 4.82762582835217 -19.3
    vertex -15.7325052209293 -1.67237417164783 -14.2
  endloop
endfacet
facet normal 1.0 -0.0 -0.0
  outer loop
    vertex -15.7325052209293 -3.67237417164783 -14.3
    vertex -15.7325052209293 -1.67237417164783 -14.2
    vertex -15.7325052209293 -3.67237417164783 -1.0
  endloop
endfacet
facet normal 1.0 -0.0 -0.0
  outer loop
    vertex -15.7325052209293 -3.67237417164783 -1.0
    vertex -15.7325052209293 -1.67237417164783 -14.2
    vertex -15.7325052209293 -2.67237417164783 -1.0
  endloop
endfacet
facet normal 1.0 -0.0 -0.0
  outer loop
    vertex -15.7325052209293 -2.67237417164783 -1.0
    vertex -15.7325052209293 -1.67237417164783 -14.2
    vertex -15.7325052209293 -2.67237417164783 0.0
  endloop
endfacet
facet normal 1.0 -0.0 -0.0
  outer loop
    vertex -15.7325052209293 -1.67237417164783 -14.2
    vertex -15.7325052209293 4.82762582835217 -19.3
    vertex -15.7325052209293 1.32762582835217 -14.2
  endloop
endfacet
facet normal 1.0 -0.0 -0.0
  outer loop
    vertex -15.7325052209293 1.32762582835217 -14.2
    vertex -15.7325052209293 4.82762582835217 -19.3
    vertex -15.7325052209293 3.32762582835217 -14.3
  endloop
endfacet
facet normal 1.0 -0.0 -0.0
  outer loop
    vertex -15.7325052209293 1.32762582835217 -14.2
    vertex -15.7325052209293 3.32762582835217 -14.3
    vertex -15.7325052209293 1.32762582835217 -2.3
  endloop
endfacet
facet normal 1.0 -0.0 -0.0
  outer loop
    vertex -15.7325052209293 1.32762582835217 -2.3
    vertex -15.7325052209293 3.32762582835217 -14.3
    vertex -15.7325052209293 1.32762582835217 -1.0
  endloop
endfacet
facet normal 1.0 -0.0 -0.0
  outer loop
    vertex -15.7325052209293 3.32762582835217 -14.3
    vertex -15.7325052209293 4.82762582835217 -19.3
    vertex -15.7325052209293 4.82762582835217 -14.3
  endloop
endfacet
facet normal 1.0 -0.0 -0.0
  outer loop
    vertex -15.7325052209293 3.32762582835217 -1.0
    vertex -15.7325052209293 1.32762582835217 -1.0
    vertex -15.7325052209293 3.32762582835217 -14.3
  endloop
endfacet
facet normal -0.0 1.0 -0.0
  outer loop
    vertex -15.7325052209293 1.32762582835217 -2.3
    vertex -12.2325052209293 1.32762582835217 -14.2
    vertex -15.7325052209293 1.32762582835217 -14.2
  endloop
endfacet
facet normal -0.0 1.0 -0.0
  outer loop
    vertex -12.2325052209293 1.32762582835217 -14.2
    vertex -15.7325052209293 1.32762582835217 -2.3
    vertex -12.2325052209293 1.32762582835217 -2.3
  endloop
endfacet
facet normal -0.0 -0.0 1.0
  outer loop
    vertex -26.2623131505708 -5.17237417164783 -14.3
    vertex -24.0325052209293 -3.67237417164783 -14.3
    vertex -26.2623131505708 4.82762582835217 -14.3
  endloop
endfacet
facet normal -0.0 -0.0 1.0
  outer loop
    vertex -24.0325052209293 -3.67237417164783 -14.3
    vertex -26.2623131505708 -5.17237417164783 -14.3
    vertex -15.7325052209293 -5.17237417164783 -14.3
  endloop
endfacet
facet normal -0.0 -0.0 1.0
  outer loop
    vertex -24.0325052209293 -3.67237417164783 -14.3
    vertex -15.7325052209293 -5.17237417164783 -14.3
    vertex -15.7325052209293 -3.67237417164783 -14.3
  endloop
endfacet
facet normal -0.0 -0.0 1.0
  outer loop
    vertex -26.2623131505708 4.82762582835217 -14.3
    vertex -24.0325052209293 3.32762582835217 -14.3
    vertex -15.7325052209293 4.82762582835217 -14.3
  endloop
endfacet
facet normal -0.0 -0.0 1.0
  outer loop
    vertex -24.0325052209293 3.32762582835217 -14.3
    vertex -26.2623131505708 4.82762582835217 -14.3
    vertex -24.0325052209293 -3.67237417164783 -14.3
  endloop
endfacet
facet normal -0.0 -0.0 1.0
  outer loop
    vertex -15.7325052209293 4.82762582835217 -14.3
    vertex -24.0325052209293 3.32762582835217 -14.3
    vertex -20.99740918575 3.32762582835217 -14.3
  endloop
endfacet
facet normal -0.0 -0.0 1.0
  outer loop
    vertex -15.7325052209293 4.82762582835217 -14.3
    vertex -20.99740918575 3.32762582835217 -14.3
    vertex -15.7325052209293 3.32762582835217 -14.3
  endloop
endfacet
facet normal 0.0 0.0 -1.0
  outer loop
    vertex -26.2623131505708 4.82762582835217 -19.3
    vertex -24.3781495777618 0.733492486210993 -19.3
    vertex -26.2623131505708 -5.17237417164783 -19.3
  endloop
endfacet
facet normal 0.0 0.0 -1.0
  outer loop
    vertex -24.3781495777618 0.733492486210993 -19.3
    vertex -26.2623131505708 4.82762582835217 -19.3
    vertex -24.0284980989956 1.57762582835217 -19.3
  endloop
endfacet
facet normal 0.0 0.0 -1.0
  outer loop
    vertex -24.0284980989956 1.57762582835217 -19.3
    vertex -26.2623131505708 4.82762582835217 -19.3
    vertex -23.4722829199029 2.30249956250509 -19.3
  endloop
endfacet
facet normal 0.0 0.0 -1.0
  outer loop
    vertex -23.4722829199029 2.30249956250509 -19.3
    vertex -26.2623131505708 4.82762582835217 -19.3
    vertex -22.74740918575 2.8587147415977 -19.3
  endloop
endfacet
facet normal 0.0 0.0 -1.0
  outer loop
    vertex -22.74740918575 2.8587147415977 -19.3
    vertex -26.2623131505708 4.82762582835217 -19.3
    vertex -21.9032758436088 3.20836622036391 -19.3
  endloop
endfacet
facet normal 0.0 0.0 -1.0
  outer loop
    vertex -21.9032758436088 3.20836622036391 -19.3
    vertex -26.2623131505708 4.82762582835217 -19.3
    vertex -15.7325052209293 4.82762582835217 -19.3
  endloop
endfacet
facet normal 0.0 0.0 -1.0
  outer loop
    vertex -26.2623131505708 -5.17237417164783 -19.3
    vertex -24.3781495777618 0.733492486210993 -19.3
    vertex -24.49740918575 -0.17237417164783 -19.3
  endloop
endfacet
facet normal 0.0 0.0 -1.0
  outer loop
    vertex -21.9032758436088 3.20836622036391 -19.3
    vertex -15.7325052209293 4.82762582835217 -19.3
    vertex -20.99740918575 3.32762582835217 -19.3
  endloop
endfacet
facet normal 0.0 0.0 -1.0
  outer loop
    vertex -20.99740918575 3.32762582835217 -19.3
    vertex -15.7325052209293 4.82762582835217 -19.3
    vertex -20.0915425278912 3.20836622036391 -19.3
  endloop
endfacet
facet normal 0.0 0.0 -1.0
  outer loop
    vertex -20.0915425278912 3.20836622036391 -19.3
    vertex -15.7325052209293 4.82762582835217 -19.3
    vertex -19.24740918575 2.8587147415977 -19.3
  endloop
endfacet
facet normal 0.0 0.0 -1.0
  outer loop
    vertex -19.24740918575 2.8587147415977 -19.3
    vertex -15.7325052209293 4.82762582835217 -19.3
    vertex -18.5225354515971 2.30249956250509 -19.3
  endloop
endfacet
facet normal 0.0 0.0 -1.0
  outer loop
    vertex -18.5225354515971 2.30249956250509 -19.3
    vertex -15.7325052209293 4.82762582835217 -19.3
    vertex -17.9663202725045 1.57762582835217 -19.3
  endloop
endfacet
facet normal 0.0 0.0 -1.0
  outer loop
    vertex -17.9663202725045 1.57762582835217 -19.3
    vertex -15.7325052209293 4.82762582835217 -19.3
    vertex -17.6166687937383 0.733492486210991 -19.3
  endloop
endfacet
facet normal 0.0 0.0 -1.0
  outer loop
    vertex -17.6166687937383 0.733492486210991 -19.3
    vertex -15.7325052209293 4.82762582835217 -19.3
    vertex -17.49740918575 -0.172374171647831 -19.3
  endloop
endfacet
facet normal 0.0 0.0 -1.0
  outer loop
    vertex -26.2623131505708 -5.17237417164783 -19.3
    vertex -21.9032758436089 -3.55311456365957 -19.3
    vertex -15.7325052209293 -5.17237417164783 -19.3
  endloop
endfacet
facet normal 0.0 0.0 -1.0
  outer loop
    vertex -21.9032758436089 -3.55311456365957 -19.3
    vertex -26.2623131505708 -5.17237417164783 -19.3
    vertex -22.74740918575 -3.20346308489336 -19.3
  endloop
endfacet
facet normal 0.0 0.0 -1.0
  outer loop
    vertex -22.74740918575 -3.20346308489336 -19.3
    vertex -26.2623131505708 -5.17237417164783 -19.3
    vertex -23.4722829199029 -2.64724790580075 -19.3
  endloop
endfacet
facet normal 0.0 0.0 -1.0
  outer loop
    vertex -23.4722829199029 -2.64724790580075 -19.3
    vertex -26.2623131505708 -5.17237417164783 -19.3
    vertex -24.0284980989956 -1.92237417164783 -19.3
  endloop
endfacet
facet normal 0.0 0.0 -1.0
  outer loop
    vertex -24.0284980989956 -1.92237417164783 -19.3
    vertex -26.2623131505708 -5.17237417164783 -19.3
    vertex -24.3781495777618 -1.07824082950665 -19.3
  endloop
endfacet
facet normal 0.0 0.0 -1.0
  outer loop
    vertex -24.3781495777618 -1.07824082950665 -19.3
    vertex -26.2623131505708 -5.17237417164783 -19.3
    vertex -24.49740918575 -0.17237417164783 -19.3
  endloop
endfacet
facet normal 0.0 0.0 -1.0
  outer loop
    vertex -15.7325052209293 -5.17237417164783 -19.3
    vertex -21.9032758436089 -3.55311456365957 -19.3
    vertex -20.99740918575 -3.67237417164783 -19.3
  endloop
endfacet
facet normal 0.0 0.0 -1.0
  outer loop
    vertex -15.7325052209293 -5.17237417164783 -19.3
    vertex -20.99740918575 -3.67237417164783 -19.3
    vertex -20.0915425278912 -3.55311456365957 -19.3
  endloop
endfacet
facet normal 0.0 0.0 -1.0
  outer loop
    vertex -15.7325052209293 -5.17237417164783 -19.3
    vertex -20.0915425278912 -3.55311456365957 -19.3
    vertex -19.24740918575 -3.20346308489337 -19.3
  endloop
endfacet
facet normal 0.0 0.0 -1.0
  outer loop
    vertex -15.7325052209293 -5.17237417164783 -19.3
    vertex -19.24740918575 -3.20346308489337 -19.3
    vertex -18.5225354515971 -2.64724790580075 -19.3
  endloop
endfacet
facet normal 0.0 0.0 -1.0
  outer loop
    vertex -15.7325052209293 -5.17237417164783 -19.3
    vertex -18.5225354515971 -2.64724790580075 -19.3
    vertex -17.9663202725045 -1.92237417164783 -19.3
  endloop
endfacet
facet normal 0.0 0.0 -1.0
  outer loop
    vertex -15.7325052209293 -5.17237417164783 -19.3
    vertex -17.9663202725045 -1.92237417164783 -19.3
    vertex -17.6166687937383 -1.07824082950666 -19.3
  endloop
endfacet
facet normal 0.0 0.0 -1.0
  outer loop
    vertex -15.7325052209293 -5.17237417164783 -19.3
    vertex -17.6166687937383 -1.07824082950666 -19.3
    vertex -17.49740918575 -0.172374171647831 -19.3
  endloop
endfacet
facet normal 0.0 0.0 -1.0
  outer loop
    vertex -15.7325052209293 -5.17237417164783 -19.3
    vertex -17.49740918575 -0.172374171647831 -19.3
    vertex -15.7325052209293 4.82762582835217 -19.3
  endloop
endfacet
facet normal -0.25881904510252 0.965925826289068 7.96615908145865e-19
  outer loop
    vertex -20.0915425278912 -3.55311456365957 -16.1
    vertex -19.24740918575 -3.20346308489337 -19.3
    vertex -20.0915425278912 -3.55311456365957 -19.3
  endloop
endfacet
facet normal -0.5 0.866025403784439 1.10853769148059e-31
  outer loop
    vertex -19.24740918575 -3.20346308489337 -19.3
    vertex -20.0915425278912 -3.55311456365957 -16.1
    vertex -19.24740918575 -3.20346308489337 -16.1
  endloop
endfacet
facet normal -0.13052619222005 0.991444861373811 1.57960149723957e-18
  outer loop
    vertex -20.99740918575 -3.67237417164783 -16.1
    vertex -20.0915425278912 -3.55311456365957 -19.3
    vertex -20.99740918575 -3.67237417164783 -19.3
  endloop
endfacet
facet normal -0.25881904510252 0.965925826289068 7.96615908145865e-19
  outer loop
    vertex -20.0915425278912 -3.55311456365957 -19.3
    vertex -20.99740918575 -3.67237417164783 -16.1
    vertex -20.0915425278912 -3.55311456365957 -16.1
  endloop
endfacet
facet normal 0.258819045102521 0.965925826289068 9.40147332718831e-32
  outer loop
    vertex -21.9032758436089 -3.55311456365957 -16.1
    vertex -20.99740918575 -3.67237417164783 -19.3
    vertex -21.9032758436089 -3.55311456365957 -19.3
  endloop
endfacet
facet normal 0.130526192220052 0.99144486137381 -0.0
  outer loop
    vertex -20.99740918575 -3.67237417164783 -19.3
    vertex -21.9032758436089 -3.55311456365957 -16.1
    vertex -20.99740918575 -3.67237417164783 -16.1
  endloop
endfacet
facet normal -0.0 1.0 -0.0
  outer loop
    vertex -24.0325052209293 3.32762582835217 -1.0
    vertex -20.99740918575 3.32762582835217 -14.3
    vertex -24.0325052209293 3.32762582835217 -14.3
  endloop
endfacet
facet normal -0.0 1.0 -0.0
  outer loop
    vertex -20.99740918575 3.32762582835217 -14.3
    vertex -24.0325052209293 3.32762582835217 -1.0
    vertex -15.7325052209293 3.32762582835217 -14.3
  endloop
endfacet
facet normal -0.0 1.0 -0.0
  outer loop
    vertex -15.7325052209293 3.32762582835217 -14.3
    vertex -24.0325052209293 3.32762582835217 -1.0
    vertex -15.7325052209293 3.32762582835217 -1.0
  endloop
endfacet
endsolid DummyEndoscopeV1
