solid FinchScopeCapMk1.0
facet normal 1.40791175913161e-21 3.72931614961037e-05 0.99999999930461
  outer loop
    vertex 320.552208993965 308.752636551124 2.99750552575664
    vertex 311.652208993966 315.152636546633 2.99726578161767
    vertex 311.652208993966 308.752636551084 2.99750445785124
  endloop
endfacet
facet normal 1.40791175913161e-21 3.72931614961037e-05 0.99999999930461
  outer loop
    vertex 311.652208993966 315.152636546633 2.99726578161767
    vertex 320.552208993965 308.752636551124 2.99750552575664
    vertex 320.552208993965 315.152636546673 2.99726684952306
  endloop
endfacet
facet normal 0.999999999999604 3.31879736041047e-11 8.89921161135493e-07
  outer loop
    vertex 320.552211485744 315.152447457178 -1.40273314637219
    vertex 320.552163419385 314.052504063223 -0.602812610793524
    vertex 320.552211485744 314.052447503811 -1.40281260735019
  endloop
endfacet
facet normal 0.999999999999604 3.31879736041047e-11 8.89921161135493e-07
  outer loop
    vertex 320.552211485744 310.052447459727 -1.40258420274997
    vertex 320.552208993965 308.752636551124 2.99750552575664
    vertex 320.552211485744 308.752447461629 -1.40249447013862
  endloop
endfacet
facet normal 0.999999999999604 3.31879736041047e-11 8.89921161135493e-07
  outer loop
    vertex 320.552208993965 308.752636551124 2.99750552575664
    vertex 320.552211485744 310.052447459727 -1.40258420274997
    vertex 320.552163419385 310.052504019139 -0.602584206193305
  endloop
endfacet
facet normal 0.999999999999604 3.31879736041047e-11 8.89921161135493e-07
  outer loop
    vertex 320.552208993965 308.752636551124 2.99750552575664
    vertex 320.552163419385 310.052504019139 -0.602584206193305
    vertex 320.552208993965 315.152636546673 2.99726684952306
  endloop
endfacet
facet normal 0.999999999999604 3.31879736041047e-11 8.89921161135493e-07
  outer loop
    vertex 320.552208993965 315.152636546673 2.99726684952306
    vertex 320.552163419385 310.052504019139 -0.602584206193305
    vertex 320.552163419385 314.052504063223 -0.602812610793524
  endloop
endfacet
facet normal 0.999999999999604 3.31879736041047e-11 8.89921161135493e-07
  outer loop
    vertex 320.552208993965 315.152636546673 2.99726684952306
    vertex 320.552163419385 314.052504063223 -0.602812610793524
    vertex 320.552211485744 315.152447457178 -1.40273314637219
  endloop
endfacet
facet normal -0.999882875212181 0.000695304788598188 -0.0152889636232743
  outer loop
    vertex 318.23748416193 310.851614448445 -0.302555322954334
    vertex 318.252163419386 310.052504018396 -0.602596973055074
    vertex 318.252208993966 310.052428873646 -0.302596966277971
  endloop
endfacet
facet normal -0.999882875212181 0.000695304788598188 -0.0152889636232743
  outer loop
    vertex 318.252163419386 310.052504018396 -0.602596973055074
    vertex 318.23748416193 310.851614448445 -0.302555322954334
    vertex 318.252170541796 314.052504058689 -0.602934162152678
  endloop
endfacet
facet normal -0.999882875212181 0.000695304788598188 -0.0152889636232743
  outer loop
    vertex 318.252170541796 314.052504058689 -0.602934162152678
    vertex 318.23748416193 310.851614448445 -0.302555322954334
    vertex 318.252216116376 314.052428913939 -0.302934155375575
  endloop
endfacet
facet normal 2.70476611340287e-06 -0.999999999993104 2.54478288333698e-06
  outer loop
    vertex 320.552163419385 314.052504063223 -0.602812610793524
    vertex 318.252170541796 314.052504058689 -0.602934162152678
    vertex 320.552211485744 314.052447503811 -1.40281260735019
  endloop
endfacet
facet normal 2.70476611340287e-06 -0.999999999993104 2.54478288333698e-06
  outer loop
    vertex 320.552211485744 314.052447503811 -1.40281260735019
    vertex 312.779713348876 314.052428913939 -0.302934155375575
    vertex 312.779674565763 314.05245914371 -1.40282789930871
  endloop
endfacet
facet normal 2.70476611340287e-06 -0.999999999993104 2.54478288333698e-06
  outer loop
    vertex 312.779713348876 314.052428913939 -0.302934155375575
    vertex 320.552211485744 314.052447503811 -1.40281260735019
    vertex 318.252170541796 314.052504058689 -0.602934162152678
  endloop
endfacet
facet normal 2.70476611340287e-06 -0.999999999993104 2.54478288333698e-06
  outer loop
    vertex 312.779713348876 314.052428913939 -0.302934155375575
    vertex 318.252170541796 314.052504058689 -0.602934162152678
    vertex 318.252216116376 314.052428913939 -0.302934155375575
  endloop
endfacet
facet normal -0.999999999999762 2.59998103987979e-10 -6.90765577823245e-07
  outer loop
    vertex 311.652208993966 308.752636551084 2.99750445785124
    vertex 311.652211485744 315.152447457138 -1.40273421427758
    vertex 311.652211485744 308.752447461589 -1.40249553804401
  endloop
endfacet
facet normal -0.999999999999762 2.59998103987979e-10 -6.90765577823245e-07
  outer loop
    vertex 311.652211485744 315.152447457138 -1.40273421427758
    vertex 311.652208993966 308.752636551084 2.99750445785124
    vertex 311.652208993966 315.152636546633 2.99726578161767
  endloop
endfacet
facet normal 6.00829480378877e-05 -7.0699264663294e-05 -0.999999995695827
  outer loop
    vertex 318.252170541796 314.052504058689 -0.602934162152678
    vertex 320.552163419385 310.052504019139 -0.602584206193305
    vertex 318.252163419386 310.052504018396 -0.602596973055074
  endloop
endfacet
facet normal 6.00829480378877e-05 -7.0699264663294e-05 -0.999999995695827
  outer loop
    vertex 320.552163419385 310.052504019139 -0.602584206193305
    vertex 318.252170541796 314.052504058689 -0.602934162152678
    vertex 320.552163419385 314.052504063223 -0.602812610793524
  endloop
endfacet
facet normal -6.54722255255809e-13 -0.99999999907658 4.29748852920688e-05
  outer loop
    vertex 320.552211485744 308.752447461629 -1.40249447013862
    vertex 311.652208993966 308.752636551084 2.99750445785124
    vertex 311.652211485744 308.752447461589 -1.40249553804401
  endloop
endfacet
facet normal -6.54722255255809e-13 -0.99999999907658 4.29748852920688e-05
  outer loop
    vertex 311.652208993966 308.752636551084 2.99750445785124
    vertex 320.552211485744 308.752447461629 -1.40249447013862
    vertex 320.552208993965 308.752636551124 2.99750552575664
  endloop
endfacet
facet normal -0.957822618256781 0.287360108497553 5.61548557071695e-10
  outer loop
    vertex 314.482486853869 313.452387844202 1.99728462286002
    vertex 314.182486853869 312.452434212197 -0.302715372698412
    vertex 314.182486853869 312.452434207703 1.99728462090586
  endloop
endfacet
facet normal -0.957822618256781 0.287360108497553 5.61548557071695e-10
  outer loop
    vertex 314.182486853869 312.452434212197 -0.302715372698412
    vertex 314.482486853869 313.452387844202 1.99728462286002
    vertex 314.482486853869 313.452387848697 -0.302715370744254
  endloop
endfacet
facet normal -0.957816616994791 -0.287380110861552 9.47920784053273e-06
  outer loop
    vertex 314.482486853869 311.45263231079 1.997284618952
    vertex 314.182486853869 312.452434212197 -0.302715372698412
    vertex 314.482486853869 311.452480575698 -0.30271537465257
  endloop
endfacet
facet normal -0.957816616994791 -0.287380110861552 9.47920784053273e-06
  outer loop
    vertex 314.182486853869 312.452434212197 -0.302715372698412
    vertex 314.482486853869 311.45263231079 1.997284618952
    vertex 314.182486853869 312.452434207703 1.99728462090586
  endloop
endfacet
facet normal -0.287414551160199 -0.95780628249307 3.15940923733144e-05
  outer loop
    vertex 315.482486853869 311.152480575698 1.997284618952
    vertex 314.482486853869 311.452480575698 -0.30271537465257
    vertex 315.482486853869 311.152480575698 -0.30271537465257
  endloop
endfacet
facet normal -0.287414551160199 -0.95780628249307 3.15940923733144e-05
  outer loop
    vertex 314.482486853869 311.452480575698 -0.30271537465257
    vertex 315.482486853869 311.152480575698 1.997284618952
    vertex 314.482486853869 311.45263231079 1.997284618952
  endloop
endfacet
facet normal 0.287414551160199 -0.95780628249307 3.15940923733144e-05
  outer loop
    vertex 316.482486853869 311.45263231079 1.997284618952
    vertex 315.482486853869 311.152480575698 -0.30271537465257
    vertex 316.482486853869 311.452480575698 -0.30271537465257
  endloop
endfacet
facet normal 0.287414551160199 -0.95780628249307 3.15940923733144e-05
  outer loop
    vertex 315.482486853869 311.152480575698 -0.30271537465257
    vertex 316.482486853869 311.45263231079 1.997284618952
    vertex 315.482486853869 311.152480575698 1.997284618952
  endloop
endfacet
facet normal 0.287347885566365 0.957826285221145 -0.0
  outer loop
    vertex 315.482486853869 313.752387848697 1.99728462286002
    vertex 316.482486853869 313.452387848697 -0.302715370744254
    vertex 315.482486853869 313.752387848697 -0.302715370744254
  endloop
endfacet
facet normal 0.287347885566365 0.957826285221145 -0.0
  outer loop
    vertex 316.482486853869 313.452387848697 -0.302715370744254
    vertex 315.482486853869 313.752387848697 1.99728462286002
    vertex 316.482486853869 313.452387848697 1.99728462286002
  endloop
endfacet
facet normal -0.287347887541146 0.957826284628711 9.35874442986448e-10
  outer loop
    vertex 314.482486853869 313.452387844202 1.99728462286002
    vertex 315.482486853869 313.752387848697 -0.302715370744254
    vertex 314.482486853869 313.452387848697 -0.302715370744254
  endloop
endfacet
facet normal -0.287347887541146 0.957826284628711 9.35874442986448e-10
  outer loop
    vertex 315.482486853869 313.752387848697 -0.302715370744254
    vertex 314.482486853869 313.452387844202 1.99728462286002
    vertex 315.482486853869 313.752387848697 1.99728462286002
  endloop
endfacet
facet normal -6.10285020374837e-17 -1.74762303913546e-09 1.0
  outer loop
    vertex 314.482486853869 311.45263231079 1.997284618952
    vertex 314.482486853869 313.452387844202 1.99728462286002
    vertex 314.182486853869 312.452434207703 1.99728462090586
  endloop
endfacet
facet normal -6.10285020374837e-17 -1.74762303913546e-09 1.0
  outer loop
    vertex 314.482486853869 313.452387844202 1.99728462286002
    vertex 314.482486853869 311.45263231079 1.997284618952
    vertex 315.482486853869 311.152480575698 1.997284618952
  endloop
endfacet
facet normal -6.10285020374837e-17 -1.74762303913546e-09 1.0
  outer loop
    vertex 314.482486853869 313.452387844202 1.99728462286002
    vertex 315.482486853869 311.152480575698 1.997284618952
    vertex 315.482486853869 313.752387848697 1.99728462286002
  endloop
endfacet
facet normal -6.10285020374837e-17 -1.74762303913546e-09 1.0
  outer loop
    vertex 315.482486853869 313.752387848697 1.99728462286002
    vertex 315.482486853869 311.152480575698 1.997284618952
    vertex 316.482486853869 311.45263231079 1.997284618952
  endloop
endfacet
facet normal -6.10285020374837e-17 -1.74762303913546e-09 1.0
  outer loop
    vertex 315.482486853869 313.752387848697 1.99728462286002
    vertex 316.482486853869 311.45263231079 1.997284618952
    vertex 316.482486853869 313.452387848697 1.99728462286002
  endloop
endfacet
facet normal -6.10285020374837e-17 -1.74762303913546e-09 1.0
  outer loop
    vertex 316.482486853869 313.452387848697 1.99728462286002
    vertex 316.482486853869 311.45263231079 1.997284618952
    vertex 316.782486853869 312.452434207703 1.99728462090586
  endloop
endfacet
facet normal 0.957816616994781 -0.287380110861587 9.47920782362156e-06
  outer loop
    vertex 316.782486853869 312.452434212197 -0.302715372698412
    vertex 316.482486853869 311.45263231079 1.997284618952
    vertex 316.482486853869 311.452480575698 -0.30271537465257
  endloop
endfacet
facet normal 0.957816616994781 -0.287380110861587 9.47920782362156e-06
  outer loop
    vertex 316.482486853869 311.45263231079 1.997284618952
    vertex 316.782486853869 312.452434212197 -0.302715372698412
    vertex 316.782486853869 312.452434207703 1.99728462090586
  endloop
endfacet
facet normal 0.957822618434544 0.287360107905035 2.80791195827993e-10
  outer loop
    vertex 316.782486853869 312.452434212197 -0.302715372698412
    vertex 316.482486853869 313.452387848697 1.99728462286002
    vertex 316.782486853869 312.452434207703 1.99728462090586
  endloop
endfacet
facet normal 0.957822618434544 0.287360107905035 2.80791195827993e-10
  outer loop
    vertex 316.482486853869 313.452387848697 1.99728462286002
    vertex 316.782486853869 312.452434212197 -0.302715372698412
    vertex 316.482486853869 313.452387848697 -0.302715370744254
  endloop
endfacet
facet normal 1.26698301251954e-05 3.96841699486892e-05 0.999999999132321
  outer loop
    vertex 316.680170156704 310.634200801873 0.497455483569533
    vertex 316.676955680729 311.044675220552 0.497433920620611
    vertex 316.651542927472 310.839226414317 0.497444702541269
  endloop
endfacet
facet normal 1.26698301251954e-05 3.96841699486892e-05 0.999999999132321
  outer loop
    vertex 316.676955680729 311.044675220552 0.497433920620611
    vertex 316.680170156704 310.634200801873 0.497455483569533
    vertex 316.754676579338 311.236546223954 0.497423872577633
  endloop
endfacet
facet normal 1.26698301251954e-05 3.96841699486892e-05 0.999999999132321
  outer loop
    vertex 316.754676579338 311.236546223954 0.497423872577633
    vertex 316.680170156704 310.634200801873 0.497455483569533
    vertex 316.760886470062 310.443570539887 0.497465528996144
  endloop
endfacet
facet normal 1.26698301251954e-05 3.96841699486892e-05 0.999999999132321
  outer loop
    vertex 316.754676579338 311.236546223954 0.497423872577633
    vertex 316.760886470062 310.443570539887 0.497465528996144
    vertex 316.879409072498 311.401763732722 0.497415243169861
  endloop
endfacet
facet normal 1.26698301251954e-05 3.96841699486892e-05 0.999999999132321
  outer loop
    vertex 316.879409072498 311.401763732722 0.497415243169861
    vertex 316.760886470062 310.443570539887 0.497465528996144
    vertex 316.888191184181 310.280326765682 0.497474154241878
  endloop
endfacet
facet normal 1.26698301251954e-05 3.96841699486892e-05 0.999999999132321
  outer loop
    vertex 316.879409072498 311.401763732722 0.497415243169861
    vertex 316.888191184181 310.280326765682 0.497474154241878
    vertex 317.042652846931 311.529068446668 0.497408620477172
  endloop
endfacet
facet normal 1.26698301251954e-05 3.96841699486892e-05 0.999999999132321
  outer loop
    vertex 317.042652846931 311.529068446668 0.497408620477172
    vertex 316.888191184181 310.280326765682 0.497474154241878
    vertex 317.053408693174 310.155594272697 0.497480771510493
  endloop
endfacet
facet normal 1.26698301251954e-05 3.96841699486892e-05 0.999999999132321
  outer loop
    vertex 317.042652846931 311.529068446668 0.497408620477172
    vertex 317.053408693174 310.155594272697 0.497480771510493
    vertex 317.233283109181 311.609784759919 0.497404455825129
  endloop
endfacet
facet normal 1.26698301251954e-05 3.96841699486892e-05 0.999999999132321
  outer loop
    vertex 317.233283109181 311.609784759919 0.497404455825129
    vertex 317.053408693174 310.155594272697 0.497480771510493
    vertex 317.245279696839 310.077873374199 0.497484929846069
  endloop
endfacet
facet normal 1.26698301251954e-05 3.96841699486892e-05 0.999999999132321
  outer loop
    vertex 317.233283109181 311.609784759919 0.497404455825129
    vertex 317.245279696839 310.077873374199 0.497484929846069
    vertex 317.438308721909 311.638411989116 0.497403033027886
  endloop
endfacet
facet normal 1.26698301251954e-05 3.96841699486892e-05 0.999999999132321
  outer loop
    vertex 317.438308721909 311.638411989116 0.497403033027886
    vertex 317.245279696839 310.077873374199 0.497484929846069
    vertex 317.450728503357 310.052460620981 0.497486345864907
  endloop
endfacet
facet normal 1.26698301251954e-05 3.96841699486892e-05 0.999999999132321
  outer loop
    vertex 317.438308721909 311.638411989116 0.497403033027886
    vertex 317.450728503357 310.052460620981 0.497486345864907
    vertex 317.643757528427 311.612999235898 0.497404449046724
  endloop
endfacet
facet normal 1.26698301251954e-05 3.96841699486892e-05 0.999999999132321
  outer loop
    vertex 317.643757528427 311.612999235898 0.497404449046724
    vertex 317.450728503357 310.052460620981 0.497486345864907
    vertex 317.655754116085 310.081087850178 0.497484923067664
  endloop
endfacet
facet normal 1.26698301251954e-05 3.96841699486892e-05 0.999999999132321
  outer loop
    vertex 317.643757528427 311.612999235898 0.497404449046724
    vertex 317.655754116085 310.081087850178 0.497484923067664
    vertex 317.835628532092 311.5352783374 0.497408607382299
  endloop
endfacet
facet normal 1.26698301251954e-05 3.96841699486892e-05 0.999999999132321
  outer loop
    vertex 317.835628532092 311.5352783374 0.497408607382299
    vertex 317.655754116085 310.081087850178 0.497484923067664
    vertex 317.846384378335 310.161804163429 0.49748075841562
  endloop
endfacet
facet normal 1.26698301251954e-05 3.96841699486892e-05 0.999999999132321
  outer loop
    vertex 317.835628532092 311.5352783374 0.497408607382299
    vertex 317.846384378335 310.161804163429 0.49748075841562
    vertex 318.000846041085 311.410545844416 0.497415224650914
  endloop
endfacet
facet normal 1.26698301251954e-05 3.96841699486892e-05 0.999999999132321
  outer loop
    vertex 318.000846041085 311.410545844416 0.497415224650914
    vertex 317.846384378335 310.161804163429 0.49748075841562
    vertex 318.009628152768 310.289108877376 0.497474135722932
  endloop
endfacet
facet normal 1.26698301251954e-05 3.96841699486892e-05 0.999999999132321
  outer loop
    vertex 318.000846041085 311.410545844416 0.497415224650914
    vertex 318.009628152768 310.289108877376 0.497474135722932
    vertex 318.128150755204 311.247302070211 0.497423849896649
  endloop
endfacet
facet normal 1.26698301251954e-05 3.96841699486892e-05 0.999999999132321
  outer loop
    vertex 318.128150755204 311.247302070211 0.497423849896649
    vertex 318.009628152768 310.289108877376 0.497474135722932
    vertex 318.134360645928 310.454326386144 0.497465506315159
  endloop
endfacet
facet normal 1.26698301251954e-05 3.96841699486892e-05 0.999999999132321
  outer loop
    vertex 318.128150755204 311.247302070211 0.497423849896649
    vertex 318.134360645928 310.454326386144 0.497465506315159
    vertex 318.208867068562 311.056671808225 0.497433895323259
  endloop
endfacet
facet normal 1.26698301251954e-05 3.96841699486892e-05 0.999999999132321
  outer loop
    vertex 318.208867068562 311.056671808225 0.497433895323259
    vertex 318.134360645928 310.454326386144 0.497465506315159
    vertex 318.212081544537 310.646197389545 0.497455458272182
  endloop
endfacet
facet normal 1.26698301251954e-05 3.96841699486892e-05 0.999999999132321
  outer loop
    vertex 318.208867068562 311.056671808225 0.497433895323259
    vertex 318.212081544537 310.646197389545 0.497455458272182
    vertex 318.237494297794 310.851646195781 0.497444676351524
  endloop
endfacet
facet normal -0.122758300692751 -0.992436596430723 4.09393494078125e-05
  outer loop
    vertex 317.450718367493 310.052428873646 -0.30251365344095
    vertex 317.245279696839 310.077873374199 0.497484929846069
    vertex 317.245269560975 310.077841626863 -0.302515069459789
  endloop
endfacet
facet normal -0.25124577982764 -0.967923321543964 4.15944749756295e-05
  outer loop
    vertex 317.245279696839 310.077873374199 0.497484929846069
    vertex 317.450718367493 310.052428873646 -0.30251365344095
    vertex 317.450728503357 310.052460620981 0.497486345864907
  endloop
endfacet
facet normal 0.266375896503239 -0.963869223777687 3.48754127568229e-05
  outer loop
    vertex 317.655754116085 310.081087850178 0.497484923067664
    vertex 317.450718367493 310.052428873646 -0.30251365344095
    vertex 317.655743980221 310.081056102842 -0.302515076238193
  endloop
endfacet
facet normal 0.138286079379628 -0.990392325717312 3.75508362678063e-05
  outer loop
    vertex 317.450718367493 310.052428873646 -0.30251365344095
    vertex 317.655754116085 310.081087850178 0.497484923067664
    vertex 317.450728503357 310.052460620981 0.497486345864907
  endloop
endfacet
facet normal 0.506766753701599 -0.862083207451831 2.77904078560467e-05
  outer loop
    vertex 317.846384378335 310.161804163429 0.49748075841562
    vertex 317.655743980221 310.081056102842 -0.302515076238193
    vertex 317.846374242471 310.161772416093 -0.302519240890237
  endloop
endfacet
facet normal 0.266374427403373 -0.963869629778441 3.48754474818716e-05
  outer loop
    vertex 317.655743980221 310.081056102842 -0.302515076238193
    vertex 317.846384378335 310.161804163429 0.49748075841562
    vertex 317.655754116085 310.081087850178 0.497484923067664
  endloop
endfacet
facet normal 0.712622371513579 -0.701547828208803 1.88115388676035e-05
  outer loop
    vertex 318.009628152768 310.289108877376 0.497474135722932
    vertex 317.846374242471 310.161772416093 -0.302519240890237
    vertex 318.009618016904 310.28907713004 -0.302525863582926
  endloop
endfacet
facet normal 0.506766072640021 -0.862083607806517 2.77904323727247e-05
  outer loop
    vertex 317.846374242471 310.161772416093 -0.302519240890237
    vertex 318.009628152768 310.289108877376 0.497474135722932
    vertex 317.846384378335 310.161804163429 0.49748075841562
  endloop
endfacet
facet normal 0.869914485395116 -0.493202583150815 8.55066638290586e-06
  outer loop
    vertex 318.134350510064 310.454294638808 -0.302534492990698
    vertex 318.009628152768 310.289108877376 0.497474135722932
    vertex 318.009618016904 310.28907713004 -0.302525863582926
  endloop
endfacet
facet normal 0.712622371513579 -0.701547828208803 1.88115388676035e-05
  outer loop
    vertex 318.009628152768 310.289108877376 0.497474135722932
    vertex 318.134350510064 310.454294638808 -0.302534492990698
    vertex 318.134360645928 310.454326386144 0.497465506315159
  endloop
endfacet
facet normal 0.967923181966122 -0.251246320982657 -2.29292059088016e-06
  outer loop
    vertex 318.212071408673 310.646165642209 -0.302544541033675
    vertex 318.134360645928 310.454326386144 0.497465506315159
    vertex 318.134350510064 310.454294638808 -0.302534492990698
  endloop
endfacet
facet normal 0.869914097689044 -0.493203266989121 8.55069843263151e-06
  outer loop
    vertex 318.134360645928 310.454326386144 0.497465506315159
    vertex 318.212071408673 310.646165642209 -0.302544541033675
    vertex 318.212081544537 310.646197389545 0.497455458272182
  endloop
endfacet
facet normal 0.862082662939247 0.506767679806559 -3.10330956501895e-05
  outer loop
    vertex 318.12814061934 311.247270322875 -0.302576149409209
    vertex 318.208867068562 311.056671808225 0.497433895323259
    vertex 318.208856932698 311.056640060889 -0.302566103982598
  endloop
endfacet
facet normal 0.963869778429607 0.26637389082078 -2.27828931285065e-05
  outer loop
    vertex 318.208867068562 311.056671808225 0.497433895323259
    vertex 318.12814061934 311.247270322875 -0.302576149409209
    vertex 318.128150755204 311.247302070211 0.497423849896649
  endloop
endfacet
facet normal 0.701546744164123 0.71262343798898 -3.71683477282674e-05
  outer loop
    vertex 318.000835905221 311.41051409708 -0.302584774654943
    vertex 318.128150755204 311.247302070211 0.497423849896649
    vertex 318.12814061934 311.247270322875 -0.302576149409209
  endloop
endfacet
facet normal 0.862084153110525 0.506765144808382 -3.10330139311079e-05
  outer loop
    vertex 318.128150755204 311.247302070211 0.497423849896649
    vertex 318.000835905221 311.41051409708 -0.302584774654943
    vertex 318.000846041085 311.410545844416 0.497415224650914
  endloop
endfacet
facet normal 0.493204204379016 0.869913565315899 -4.07706112885564e-05
  outer loop
    vertex 317.835628532092 311.5352783374 0.497408607382299
    vertex 318.000835905221 311.41051409708 -0.302584774654943
    vertex 317.835618396228 311.535246590064 -0.302591391923558
  endloop
endfacet
facet normal 0.701546744164123 0.71262343798898 -3.71683477282674e-05
  outer loop
    vertex 318.000835905221 311.41051409708 -0.302584774654943
    vertex 317.835628532092 311.5352783374 0.497408607382299
    vertex 318.000846041085 311.410545844416 0.497415224650914
  endloop
endfacet
facet normal 0.251248333120501 0.967922658777068 -4.15944810240622e-05
  outer loop
    vertex 317.643757528427 311.612999235898 0.497404449046724
    vertex 317.835618396228 311.535246590064 -0.302591391923558
    vertex 317.643747392563 311.612967488562 -0.302595550259133
  endloop
endfacet
facet normal 0.493201645440088 0.869915016121084 -4.07706364412344e-05
  outer loop
    vertex 317.835618396228 311.535246590064 -0.302591391923558
    vertex 317.643757528427 311.612999235898 0.497404449046724
    vertex 317.835628532092 311.5352783374 0.497408607382299
  endloop
endfacet
facet normal -0.00782980644764673 0.99996934581222 -3.95837511794329e-05
  outer loop
    vertex 317.438308721909 311.638411989116 0.497403033027886
    vertex 317.643747392563 311.612967488562 -0.302595550259133
    vertex 317.438298586045 311.63838024178 -0.302596966277971
  endloop
endfacet
facet normal 0.25124577982764 0.967923321543964 -4.15944749756295e-05
  outer loop
    vertex 317.643747392563 311.612967488562 -0.302595550259133
    vertex 317.438308721909 311.638411989116 0.497403033027886
    vertex 317.643757528427 311.612999235898 0.497404449046724
  endloop
endfacet
facet normal -0.266375896503239 0.963869223777687 -3.48754127568229e-05
  outer loop
    vertex 317.233272973317 311.609753012583 -0.302595543480728
    vertex 317.438308721909 311.638411989116 0.497403033027886
    vertex 317.438298586045 311.63838024178 -0.302596966277971
  endloop
endfacet
facet normal -0.00782980644764673 0.99996934581222 -3.95837511794329e-05
  outer loop
    vertex 317.438308721909 311.638411989116 0.497403033027886
    vertex 317.233272973317 311.609753012583 -0.302595543480728
    vertex 317.233283109181 311.609784759919 0.497404455825129
  endloop
endfacet
facet normal -0.506766753701599 0.862083207451831 -2.77904078560467e-05
  outer loop
    vertex 317.042642711066 311.529036699332 -0.302591378828685
    vertex 317.233283109181 311.609784759919 0.497404455825129
    vertex 317.233272973317 311.609753012583 -0.302595543480728
  endloop
endfacet
facet normal -0.266374427403373 0.963869629778441 -3.48754474818716e-05
  outer loop
    vertex 317.233283109181 311.609784759919 0.497404455825129
    vertex 317.042642711066 311.529036699332 -0.302591378828685
    vertex 317.042652846931 311.529068446668 0.497408620477172
  endloop
endfacet
facet normal -0.712622371513579 0.701547828208803 -1.88115388676035e-05
  outer loop
    vertex 316.879398936634 311.401731985386 -0.302584756135996
    vertex 317.042652846931 311.529068446668 0.497408620477172
    vertex 317.042642711066 311.529036699332 -0.302591378828685
  endloop
endfacet
facet normal -0.506766072640021 0.862083607806517 -2.77904323727247e-05
  outer loop
    vertex 317.042652846931 311.529068446668 0.497408620477172
    vertex 316.879398936634 311.401731985386 -0.302584756135996
    vertex 316.879409072498 311.401763732722 0.497415243169861
  endloop
endfacet
facet normal -0.869914485395116 0.493202583150815 -8.55066638290586e-06
  outer loop
    vertex 316.754676579338 311.236546223954 0.497423872577633
    vertex 316.879398936634 311.401731985386 -0.302584756135996
    vertex 316.754666443474 311.236514476618 -0.302576126728224
  endloop
endfacet
facet normal -0.712622371513579 0.701547828208803 -1.88115388676035e-05
  outer loop
    vertex 316.879398936634 311.401731985386 -0.302584756135996
    vertex 316.754676579338 311.236546223954 0.497423872577633
    vertex 316.879409072498 311.401763732722 0.497415243169861
  endloop
endfacet
facet normal -0.967923181966122 0.251246320982657 2.29292059088016e-06
  outer loop
    vertex 316.676955680729 311.044675220552 0.497433920620611
    vertex 316.754666443474 311.236514476618 -0.302576126728224
    vertex 316.676945544865 311.044643473216 -0.302566078685246
  endloop
endfacet
facet normal -0.869914097689044 0.493203266989121 -8.55069843263151e-06
  outer loop
    vertex 316.754666443474 311.236514476618 -0.302576126728224
    vertex 316.676955680729 311.044675220552 0.497433920620611
    vertex 316.754676579338 311.236546223954 0.497423872577633
  endloop
endfacet
facet normal -0.999969329656692 -0.0078319587243426 1.29802463294664e-05
  outer loop
    vertex 316.651542927472 310.839226414317 0.497444702541269
    vertex 316.676945544865 311.044643473216 -0.302566078685246
    vertex 316.651532791608 310.839194666981 -0.302555296764588
  endloop
endfacet
facet normal -0.967922799906117 0.251247792859251 2.29285734004384e-06
  outer loop
    vertex 316.676945544865 311.044643473216 -0.302566078685246
    vertex 316.651542927472 310.839226414317 0.497444702541269
    vertex 316.676955680729 311.044675220552 0.497433920620611
  endloop
endfacet
facet normal -0.963869076296642 -0.266376431464935 2.27829850559556e-05
  outer loop
    vertex 316.680170156704 310.634200801873 0.497455483569533
    vertex 316.651532791608 310.839194666981 -0.302555296764588
    vertex 316.68016002084 310.634169054537 -0.302544515736324
  endloop
endfacet
facet normal -0.99996934650547 -0.00782980720960504 1.2980161161861e-05
  outer loop
    vertex 316.651532791608 310.839194666981 -0.302555296764588
    vertex 316.680170156704 310.634200801873 0.497455483569533
    vertex 316.651542927472 310.839226414317 0.497444702541269
  endloop
endfacet
facet normal -0.862082662939305 -0.50676767980646 3.10330956501863e-05
  outer loop
    vertex 316.760886470062 310.443570539887 0.497465528996144
    vertex 316.68016002084 310.634169054537 -0.302544515736324
    vertex 316.760876334198 310.443538792551 -0.302534470309713
  endloop
endfacet
facet normal -0.963869778429632 -0.26637389082069 2.27828931285032e-05
  outer loop
    vertex 316.68016002084 310.634169054537 -0.302544515736324
    vertex 316.760886470062 310.443570539887 0.497465528996144
    vertex 316.680170156704 310.634200801873 0.497455483569533
  endloop
endfacet
facet normal -0.701546744164061 -0.71262343798904 3.7168347728269e-05
  outer loop
    vertex 316.888191184181 310.280326765682 0.497474154241878
    vertex 316.760876334198 310.443538792551 -0.302534470309713
    vertex 316.888181048317 310.280295018346 -0.302525845063979
  endloop
endfacet
facet normal -0.862084153110584 -0.506765144808283 3.10330139311047e-05
  outer loop
    vertex 316.760876334198 310.443538792551 -0.302534470309713
    vertex 316.888191184181 310.280326765682 0.497474154241878
    vertex 316.760886470062 310.443570539887 0.497465528996144
  endloop
endfacet
facet normal -0.493204204379016 -0.869913565315899 4.07706112885564e-05
  outer loop
    vertex 317.05339855731 310.155562525361 -0.302519227795364
    vertex 316.888191184181 310.280326765682 0.497474154241878
    vertex 316.888181048317 310.280295018346 -0.302525845063979
  endloop
endfacet
facet normal -0.701546744164061 -0.71262343798904 3.7168347728269e-05
  outer loop
    vertex 316.888191184181 310.280326765682 0.497474154241878
    vertex 317.05339855731 310.155562525361 -0.302519227795364
    vertex 317.053408693174 310.155594272697 0.497480771510493
  endloop
endfacet
facet normal -0.251248333120501 -0.967922658777068 4.15944810240622e-05
  outer loop
    vertex 317.245269560975 310.077841626863 -0.302515069459789
    vertex 317.053408693174 310.155594272697 0.497480771510493
    vertex 317.05339855731 310.155562525361 -0.302519227795364
  endloop
endfacet
facet normal -0.493201645440088 -0.869915016121084 4.07706364412344e-05
  outer loop
    vertex 317.053408693174 310.155594272697 0.497480771510493
    vertex 317.245269560975 310.077841626863 -0.302515069459789
    vertex 317.245279696839 310.077873374199 0.497484929846069
  endloop
endfacet
facet normal -1.70656514991492e-06 -4.78725810797833e-05 -0.999999998852652
  outer loop
    vertex 311.652211485744 315.152447457138 -1.40273421427758
    vertex 312.779674565763 314.05245914371 -1.40282789930871
    vertex 311.652211485744 308.752447461589 -1.40249553804401
  endloop
endfacet
facet normal -1.70656514991492e-06 -4.78725810797833e-05 -0.999999998852652
  outer loop
    vertex 312.779674565763 314.05245914371 -1.40282789930871
    vertex 311.652211485744 315.152447457138 -1.40273421427758
    vertex 320.552211485744 315.152447457178 -1.40273314637219
  endloop
endfacet
facet normal -1.70656514991492e-06 -4.78725810797833e-05 -0.999999998852652
  outer loop
    vertex 311.652211485744 308.752447461589 -1.40249553804401
    vertex 312.779674565763 314.05245914371 -1.40282789930871
    vertex 312.779667443352 310.052459103417 -1.40249071021111
  endloop
endfacet
facet normal -1.70656514991492e-06 -4.78725810797833e-05 -0.999999998852652
  outer loop
    vertex 312.779674565763 314.05245914371 -1.40282789930871
    vertex 320.552211485744 315.152447457178 -1.40273314637219
    vertex 320.552211485744 314.052447503811 -1.40281260735019
  endloop
endfacet
facet normal -1.70656514991492e-06 -4.78725810797833e-05 -0.999999998852652
  outer loop
    vertex 312.779667443352 310.052459103417 -1.40249071021111
    vertex 320.552211485744 308.752447461629 -1.40249447013862
    vertex 311.652211485744 308.752447461589 -1.40249553804401
  endloop
endfacet
facet normal -1.70656514991492e-06 -4.78725810797833e-05 -0.999999998852652
  outer loop
    vertex 320.552211485744 308.752447461629 -1.40249447013862
    vertex 312.779667443352 310.052459103417 -1.40249071021111
    vertex 320.552211485744 310.052447459727 -1.40258420274997
  endloop
endfacet
facet normal 0.992436597174316 -0.122758301266094 -7.70244181285269e-06
  outer loop
    vertex 318.23748416193 310.851614448445 -0.302555322954334
    vertex 318.212081544537 310.646197389545 0.497455458272182
    vertex 318.212071408673 310.646165642209 -0.302544541033675
  endloop
endfacet
facet normal 0.967922799906117 -0.251247792859251 -2.29285734004384e-06
  outer loop
    vertex 318.212081544537 310.646197389545 0.497455458272182
    vertex 318.23748416193 310.851614448445 -0.302555322954334
    vertex 318.237494297794 310.851646195781 0.497444676351524
  endloop
endfacet
facet normal 0.963869076296618 0.266376431465024 -2.27829850559588e-05
  outer loop
    vertex 318.208856932698 311.056640060889 -0.302566103982598
    vertex 318.237494297794 310.851646195781 0.497444676351524
    vertex 318.23748416193 310.851614448445 -0.302555322954334
  endloop
endfacet
facet normal 0.990392326370545 0.138286078623439 -1.80358707936915e-05
  outer loop
    vertex 318.237494297794 310.851646195781 0.497444676351524
    vertex 318.208856932698 311.056640060889 -0.302566103982598
    vertex 318.208867068562 311.056671808225 0.497433895323259
  endloop
endfacet
facet normal 0.0 0.999999998931783 -4.62215847439383e-05
  outer loop
    vertex 311.652208993966 315.152636546633 2.99726578161767
    vertex 320.552211485744 315.152447457178 -1.40273314637219
    vertex 311.652211485744 315.152447457138 -1.40273421427758
  endloop
endfacet
facet normal 0.0 0.999999998931783 -4.62215847439383e-05
  outer loop
    vertex 320.552211485744 315.152447457178 -1.40273314637219
    vertex 311.652208993966 315.152636546633 2.99726578161767
    vertex 320.552208993965 315.152636546673 2.99726684952306
  endloop
endfacet
facet normal 0.99999999939069 -1.85044450365501e-06 -3.485966305148e-05
  outer loop
    vertex 312.779667443352 310.052459103417 -1.40249071021111
    vertex 312.779706226465 310.839194666981 -0.302555296764588
    vertex 312.779706226465 310.052428873646 -0.302596966277971
  endloop
endfacet
facet normal 0.99999999939069 -1.85044450365501e-06 -3.485966305148e-05
  outer loop
    vertex 312.779706226465 310.839194666981 -0.302555296764588
    vertex 312.779667443352 310.052459103417 -1.40249071021111
    vertex 312.779674565763 314.05245914371 -1.40282789930871
  endloop
endfacet
facet normal 0.99999999939069 -1.85044450365501e-06 -3.485966305148e-05
  outer loop
    vertex 312.779706226465 310.839194666981 -0.302555296764588
    vertex 312.779674565763 314.05245914371 -1.40282789930871
    vertex 312.779713348876 314.052428913939 -0.302934155375575
  endloop
endfacet
facet normal -4.30551440474446e-06 0.999999999886929 1.44085161471308e-05
  outer loop
    vertex 312.779706226465 310.052428873646 -0.302596966277971
    vertex 318.252163419386 310.052504018396 -0.602596973055074
    vertex 312.779667443352 310.052459103417 -1.40249071021111
  endloop
endfacet
facet normal -4.30551440474446e-06 0.999999999886929 1.44085161471308e-05
  outer loop
    vertex 318.252163419386 310.052504018396 -0.602596973055074
    vertex 312.779706226465 310.052428873646 -0.302596966277971
    vertex 318.252208993966 310.052428873646 -0.302596966277971
  endloop
endfacet
facet normal -4.30551440474446e-06 0.999999999886929 1.44085161471308e-05
  outer loop
    vertex 318.252208993966 310.052428873646 -0.302596966277971
    vertex 312.779706226465 310.052428873646 -0.302596966277971
    vertex 313.57889180235 310.052428873646 -0.30251365344095
  endloop
endfacet
facet normal -4.30551440474446e-06 0.999999999886929 1.44085161471308e-05
  outer loop
    vertex 318.252208993966 310.052428873646 -0.302596966277971
    vertex 313.57889180235 310.052428873646 -0.30251365344095
    vertex 317.450718367493 310.052428873646 -0.30251365344095
  endloop
endfacet
facet normal -4.30551440474446e-06 0.999999999886929 1.44085161471308e-05
  outer loop
    vertex 312.779667443352 310.052459103417 -1.40249071021111
    vertex 320.552163419385 310.052504019139 -0.602584206193305
    vertex 320.552211485744 310.052447459727 -1.40258420274997
  endloop
endfacet
facet normal -4.30551440474446e-06 0.999999999886929 1.44085161471308e-05
  outer loop
    vertex 320.552163419385 310.052504019139 -0.602584206193305
    vertex 312.779667443352 310.052459103417 -1.40249071021111
    vertex 318.252163419386 310.052504018396 -0.602596973055074
  endloop
endfacet
facet normal -3.94845013007257e-07 5.25286806966555e-05 0.999999998620291
  outer loop
    vertex 312.808333139821 310.634211077481 0.497455483159909
    vertex 312.805118663846 311.044685496161 0.497433920210986
    vertex 312.779705910589 310.839236689925 0.497444702131645
  endloop
endfacet
facet normal -3.94845013007257e-07 5.25286806966555e-05 0.999999998620291
  outer loop
    vertex 312.805118663846 311.044685496161 0.497433920210986
    vertex 312.808333139821 310.634211077481 0.497455483159909
    vertex 312.882839562455 311.236556499562 0.497423872168009
  endloop
endfacet
facet normal -3.94845013007257e-07 5.25286806966555e-05 0.999999998620291
  outer loop
    vertex 312.882839562455 311.236556499562 0.497423872168009
    vertex 312.808333139821 310.634211077481 0.497455483159909
    vertex 312.889049453179 310.443580815495 0.49746552858652
  endloop
endfacet
facet normal -3.94845013007257e-07 5.25286806966555e-05 0.999999998620291
  outer loop
    vertex 312.882839562455 311.236556499562 0.497423872168009
    vertex 312.889049453179 310.443580815495 0.49746552858652
    vertex 313.007572055615 311.40177400833 0.497415242760237
  endloop
endfacet
facet normal -3.94845013007257e-07 5.25286806966555e-05 0.999999998620291
  outer loop
    vertex 313.007572055615 311.40177400833 0.497415242760237
    vertex 312.889049453179 310.443580815495 0.49746552858652
    vertex 313.016354167298 310.28033704129 0.497474153832254
  endloop
endfacet
facet normal -3.94845013007257e-07 5.25286806966555e-05 0.999999998620291
  outer loop
    vertex 313.007572055615 311.40177400833 0.497415242760237
    vertex 313.016354167298 310.28033704129 0.497474153832254
    vertex 313.170815830048 311.529078722277 0.497408620067548
  endloop
endfacet
facet normal -3.94845013007257e-07 5.25286806966555e-05 0.999999998620291
  outer loop
    vertex 313.170815830048 311.529078722277 0.497408620067548
    vertex 313.016354167298 310.28033704129 0.497474153832254
    vertex 313.181571676291 310.155604548306 0.497480771100869
  endloop
endfacet
facet normal -3.94845013007257e-07 5.25286806966555e-05 0.999999998620291
  outer loop
    vertex 313.170815830048 311.529078722277 0.497408620067548
    vertex 313.181571676291 310.155604548306 0.497480771100869
    vertex 313.361446092298 311.609795035528 0.497404455415505
  endloop
endfacet
facet normal -3.94845013007257e-07 5.25286806966555e-05 0.999999998620291
  outer loop
    vertex 313.361446092298 311.609795035528 0.497404455415505
    vertex 313.181571676291 310.155604548306 0.497480771100869
    vertex 313.373442679956 310.077883649808 0.497484929436444
  endloop
endfacet
facet normal -3.94845013007257e-07 5.25286806966555e-05 0.999999998620291
  outer loop
    vertex 313.361446092298 311.609795035528 0.497404455415505
    vertex 313.373442679956 310.077883649808 0.497484929436444
    vertex 313.566471705026 311.638422264725 0.497403032618262
  endloop
endfacet
facet normal -3.94845013007257e-07 5.25286806966555e-05 0.999999998620291
  outer loop
    vertex 313.566471705026 311.638422264725 0.497403032618262
    vertex 313.373442679956 310.077883649808 0.497484929436444
    vertex 313.578891486474 310.05247089659 0.497486345455283
  endloop
endfacet
facet normal -3.94845013007257e-07 5.25286806966555e-05 0.999999998620291
  outer loop
    vertex 313.566471705026 311.638422264725 0.497403032618262
    vertex 313.578891486474 310.05247089659 0.497486345455283
    vertex 313.771920511544 311.613009511507 0.4974044486371
  endloop
endfacet
facet normal -3.94845013007257e-07 5.25286806966555e-05 0.999999998620291
  outer loop
    vertex 313.771920511544 311.613009511507 0.4974044486371
    vertex 313.578891486474 310.05247089659 0.497486345455283
    vertex 313.783917099202 310.081098125787 0.49748492265804
  endloop
endfacet
facet normal -3.94845013007257e-07 5.25286806966555e-05 0.999999998620291
  outer loop
    vertex 313.771920511544 311.613009511507 0.4974044486371
    vertex 313.783917099202 310.081098125787 0.49748492265804
    vertex 313.963791515209 311.535288613009 0.497408606972675
  endloop
endfacet
facet normal -3.94845013007257e-07 5.25286806966555e-05 0.999999998620291
  outer loop
    vertex 313.963791515209 311.535288613009 0.497408606972675
    vertex 313.783917099202 310.081098125787 0.49748492265804
    vertex 313.974547361453 310.161814439038 0.497480758005996
  endloop
endfacet
facet normal -3.94845013007257e-07 5.25286806966555e-05 0.999999998620291
  outer loop
    vertex 313.963791515209 311.535288613009 0.497408606972675
    vertex 313.974547361453 310.161814439038 0.497480758005996
    vertex 314.129009024202 311.410556120024 0.49741522424129
  endloop
endfacet
facet normal -3.94845013007257e-07 5.25286806966555e-05 0.999999998620291
  outer loop
    vertex 314.129009024202 311.410556120024 0.49741522424129
    vertex 313.974547361453 310.161814439038 0.497480758005996
    vertex 314.137791135885 310.289119152984 0.497474135313307
  endloop
endfacet
facet normal -3.94845013007257e-07 5.25286806966555e-05 0.999999998620291
  outer loop
    vertex 314.129009024202 311.410556120024 0.49741522424129
    vertex 314.137791135885 310.289119152984 0.497474135313307
    vertex 314.256313738321 311.247312345819 0.497423849487024
  endloop
endfacet
facet normal -3.94845013007257e-07 5.25286806966555e-05 0.999999998620291
  outer loop
    vertex 314.256313738321 311.247312345819 0.497423849487024
    vertex 314.137791135885 310.289119152984 0.497474135313307
    vertex 314.262523629045 310.454336661752 0.497465505905535
  endloop
endfacet
facet normal -3.94845013007257e-07 5.25286806966555e-05 0.999999998620291
  outer loop
    vertex 314.256313738321 311.247312345819 0.497423849487024
    vertex 314.262523629045 310.454336661752 0.497465505905535
    vertex 314.337030051679 311.056682083834 0.497433894913635
  endloop
endfacet
facet normal -3.94845013007257e-07 5.25286806966555e-05 0.999999998620291
  outer loop
    vertex 314.337030051679 311.056682083834 0.497433894913635
    vertex 314.262523629045 310.454336661752 0.497465505905535
    vertex 314.340244527654 310.646207665154 0.497455457862558
  endloop
endfacet
facet normal -3.94845013007257e-07 5.25286806966555e-05 0.999999998620291
  outer loop
    vertex 314.337030051679 311.056682083834 0.497433894913635
    vertex 314.340244527654 310.646207665154 0.497455457862558
    vertex 314.365657280912 310.851656471389 0.497444675941899
  endloop
endfacet
facet normal 0.000100966744244017 4.94068261248859e-05 -0.999999993682341
  outer loop
    vertex 312.808333455697 310.634169054537 -0.302544515736324
    vertex 312.779706226465 310.052428873646 -0.302596966277971
    vertex 312.779706226465 310.839194666981 -0.302555296764588
  endloop
endfacet
facet normal 0.000100966744244017 4.94068261248859e-05 -0.999999993682341
  outer loop
    vertex 312.779706226465 310.052428873646 -0.302596966277971
    vertex 312.808333455697 310.634169054537 -0.302544515736324
    vertex 312.889049769055 310.443538792551 -0.302534470309713
  endloop
endfacet
facet normal 0.000100966744244017 4.94068261248859e-05 -0.999999993682341
  outer loop
    vertex 312.779706226465 310.052428873646 -0.302596966277971
    vertex 312.889049769055 310.443538792551 -0.302534470309713
    vertex 313.016354483174 310.280295018346 -0.302525845063979
  endloop
endfacet
facet normal 0.000100966744244017 4.94068261248859e-05 -0.999999993682341
  outer loop
    vertex 312.779706226465 310.052428873646 -0.302596966277971
    vertex 313.016354483174 310.280295018346 -0.302525845063979
    vertex 313.181571992167 310.155562525361 -0.302519227795364
  endloop
endfacet
facet normal 0.000100966744244017 4.94068261248859e-05 -0.999999993682341
  outer loop
    vertex 312.779706226465 310.052428873646 -0.302596966277971
    vertex 313.181571992167 310.155562525361 -0.302519227795364
    vertex 313.373442995832 310.077841626863 -0.302515069459789
  endloop
endfacet
facet normal 0.000100966744244017 4.94068261248859e-05 -0.999999993682341
  outer loop
    vertex 312.779706226465 310.052428873646 -0.302596966277971
    vertex 313.373442995832 310.077841626863 -0.302515069459789
    vertex 313.57889180235 310.052428873646 -0.30251365344095
  endloop
endfacet
facet normal 2.47130805163488e-08 9.46499497815022e-05 0.999999995520693
  outer loop
    vertex 314.256314054197 311.247270322875 -0.302576149409209
    vertex 314.182486853869 312.452434212197 -0.302715372698412
    vertex 314.129009340078 311.41051409708 -0.302584774654943
  endloop
endfacet
facet normal 2.47130805163488e-08 9.46499497815022e-05 0.999999995520693
  outer loop
    vertex 314.182486853869 312.452434212197 -0.302715372698412
    vertex 314.256314054197 311.247270322875 -0.302576149409209
    vertex 314.482486853869 311.452480575698 -0.30271537465257
  endloop
endfacet
facet normal 2.47130805163488e-08 9.46499497815022e-05 0.999999995520693
  outer loop
    vertex 314.482486853869 311.452480575698 -0.30271537465257
    vertex 314.256314054197 311.247270322875 -0.302576149409209
    vertex 314.337030367555 311.056640060889 -0.302566103982598
  endloop
endfacet
facet normal 2.47130805163488e-08 9.46499497815022e-05 0.999999995520693
  outer loop
    vertex 314.482486853869 311.452480575698 -0.30271537465257
    vertex 314.337030367555 311.056640060889 -0.302566103982598
    vertex 314.365657596788 310.851614448445 -0.302555322954334
  endloop
endfacet
facet normal 2.47130805163488e-08 9.46499497815022e-05 0.999999995520693
  outer loop
    vertex 317.450718367493 310.052428873646 -0.30251365344095
    vertex 313.783917415078 310.081056102842 -0.302515076238193
    vertex 313.57889180235 310.052428873646 -0.30251365344095
  endloop
endfacet
facet normal 2.47130805163488e-08 9.46499497815022e-05 0.999999995520693
  outer loop
    vertex 313.783917415078 310.081056102842 -0.302515076238193
    vertex 317.450718367493 310.052428873646 -0.30251365344095
    vertex 313.974547677329 310.161772416093 -0.302519240890237
  endloop
endfacet
facet normal 2.47130805163488e-08 9.46499497815022e-05 0.999999995520693
  outer loop
    vertex 313.974547677329 310.161772416093 -0.302519240890237
    vertex 317.450718367493 310.052428873646 -0.30251365344095
    vertex 314.137791451761 310.28907713004 -0.302525863582926
  endloop
endfacet
facet normal 2.47130805163488e-08 9.46499497815022e-05 0.999999995520693
  outer loop
    vertex 314.137791451761 310.28907713004 -0.302525863582926
    vertex 317.450718367493 310.052428873646 -0.30251365344095
    vertex 317.245269560975 310.077841626863 -0.302515069459789
  endloop
endfacet
facet normal 2.47130805163488e-08 9.46499497815022e-05 0.999999995520693
  outer loop
    vertex 314.137791451761 310.28907713004 -0.302525863582926
    vertex 317.245269560975 310.077841626863 -0.302515069459789
    vertex 314.262523944921 310.454294638808 -0.302534492990698
  endloop
endfacet
facet normal 2.47130805163488e-08 9.46499497815022e-05 0.999999995520693
  outer loop
    vertex 314.262523944921 310.454294638808 -0.302534492990698
    vertex 317.245269560975 310.077841626863 -0.302515069459789
    vertex 314.34024484353 310.646165642209 -0.302544541033675
  endloop
endfacet
facet normal 2.47130805163488e-08 9.46499497815022e-05 0.999999995520693
  outer loop
    vertex 314.34024484353 310.646165642209 -0.302544541033675
    vertex 317.245269560975 310.077841626863 -0.302515069459789
    vertex 314.365657596788 310.851614448445 -0.302555322954334
  endloop
endfacet
facet normal 2.47130805163488e-08 9.46499497815022e-05 0.999999995520693
  outer loop
    vertex 314.365657596788 310.851614448445 -0.302555322954334
    vertex 317.245269560975 310.077841626863 -0.302515069459789
    vertex 317.05339855731 310.155562525361 -0.302519227795364
  endloop
endfacet
facet normal 2.47130805163488e-08 9.46499497815022e-05 0.999999995520693
  outer loop
    vertex 314.365657596788 310.851614448445 -0.302555322954334
    vertex 317.05339855731 310.155562525361 -0.302519227795364
    vertex 314.482486853869 311.452480575698 -0.30271537465257
  endloop
endfacet
facet normal 2.47130805163488e-08 9.46499497815022e-05 0.999999995520693
  outer loop
    vertex 314.482486853869 311.452480575698 -0.30271537465257
    vertex 317.05339855731 310.155562525361 -0.302519227795364
    vertex 315.482486853869 311.152480575698 -0.30271537465257
  endloop
endfacet
facet normal 2.47130805163488e-08 9.46499497815022e-05 0.999999995520693
  outer loop
    vertex 315.482486853869 311.152480575698 -0.30271537465257
    vertex 317.05339855731 310.155562525361 -0.302519227795364
    vertex 316.888181048317 310.280295018346 -0.302525845063979
  endloop
endfacet
facet normal 2.47130805163488e-08 9.46499497815022e-05 0.999999995520693
  outer loop
    vertex 315.482486853869 311.152480575698 -0.30271537465257
    vertex 316.888181048317 310.280295018346 -0.302525845063979
    vertex 316.760876334198 310.443538792551 -0.302534470309713
  endloop
endfacet
facet normal 2.47130805163488e-08 9.46499497815022e-05 0.999999995520693
  outer loop
    vertex 315.482486853869 311.152480575698 -0.30271537465257
    vertex 316.760876334198 310.443538792551 -0.302534470309713
    vertex 316.68016002084 310.634169054537 -0.302544515736324
  endloop
endfacet
facet normal 2.47130805163488e-08 9.46499497815022e-05 0.999999995520693
  outer loop
    vertex 315.482486853869 311.152480575698 -0.30271537465257
    vertex 316.68016002084 310.634169054537 -0.302544515736324
    vertex 316.482486853869 311.452480575698 -0.30271537465257
  endloop
endfacet
facet normal 2.47130805163488e-08 9.46499497815022e-05 0.999999995520693
  outer loop
    vertex 316.482486853869 311.452480575698 -0.30271537465257
    vertex 316.68016002084 310.634169054537 -0.302544515736324
    vertex 316.651532791608 310.839194666981 -0.302555296764588
  endloop
endfacet
facet normal 2.47130805163488e-08 9.46499497815022e-05 0.999999995520693
  outer loop
    vertex 316.651532791608 310.839194666981 -0.302555296764588
    vertex 316.782486853869 312.452434212197 -0.302715372698412
    vertex 316.482486853869 311.452480575698 -0.30271537465257
  endloop
endfacet
facet normal 2.47130805163488e-08 9.46499497815022e-05 0.999999995520693
  outer loop
    vertex 316.782486853869 312.452434212197 -0.302715372698412
    vertex 316.651532791608 310.839194666981 -0.302555296764588
    vertex 316.676945544865 311.044643473216 -0.302566078685246
  endloop
endfacet
facet normal 2.47130805163488e-08 9.46499497815022e-05 0.999999995520693
  outer loop
    vertex 316.782486853869 312.452434212197 -0.302715372698412
    vertex 316.676945544865 311.044643473216 -0.302566078685246
    vertex 316.754666443474 311.236514476618 -0.302576126728224
  endloop
endfacet
facet normal 2.47130805163488e-08 9.46499497815022e-05 0.999999995520693
  outer loop
    vertex 316.782486853869 312.452434212197 -0.302715372698412
    vertex 316.754666443474 311.236514476618 -0.302576126728224
    vertex 316.879398936634 311.401731985386 -0.302584756135996
  endloop
endfacet
facet normal 2.47130805163488e-08 9.46499497815022e-05 0.999999995520693
  outer loop
    vertex 312.805118979722 311.044643473216 -0.302566078685246
    vertex 312.779713348876 314.052428913939 -0.302934155375575
    vertex 312.779706226465 310.839194666981 -0.302555296764588
  endloop
endfacet
facet normal 2.47130805163488e-08 9.46499497815022e-05 0.999999995520693
  outer loop
    vertex 312.779713348876 314.052428913939 -0.302934155375575
    vertex 312.805118979722 311.044643473216 -0.302566078685246
    vertex 312.882839878331 311.236514476618 -0.302576126728224
  endloop
endfacet
facet normal 2.47130805163488e-08 9.46499497815022e-05 0.999999995520693
  outer loop
    vertex 312.779713348876 314.052428913939 -0.302934155375575
    vertex 312.882839878331 311.236514476618 -0.302576126728224
    vertex 314.482486853869 313.452387848697 -0.302715370744254
  endloop
endfacet
facet normal 2.47130805163488e-08 9.46499497815022e-05 0.999999995520693
  outer loop
    vertex 312.779713348876 314.052428913939 -0.302934155375575
    vertex 314.482486853869 313.452387848697 -0.302715370744254
    vertex 315.482486853869 313.752387848697 -0.302715370744254
  endloop
endfacet
facet normal 2.47130805163488e-08 9.46499497815022e-05 0.999999995520693
  outer loop
    vertex 312.779713348876 314.052428913939 -0.302934155375575
    vertex 315.482486853869 313.752387848697 -0.302715370744254
    vertex 318.252216116376 314.052428913939 -0.302934155375575
  endloop
endfacet
facet normal 2.47130805163488e-08 9.46499497815022e-05 0.999999995520693
  outer loop
    vertex 314.482486853869 313.452387848697 -0.302715370744254
    vertex 312.882839878331 311.236514476618 -0.302576126728224
    vertex 313.007572371491 311.401731985386 -0.302584756135996
  endloop
endfacet
facet normal 2.47130805163488e-08 9.46499497815022e-05 0.999999995520693
  outer loop
    vertex 314.482486853869 313.452387848697 -0.302715370744254
    vertex 313.007572371491 311.401731985386 -0.302584756135996
    vertex 313.170816145924 311.529036699332 -0.302591378828685
  endloop
endfacet
facet normal 2.47130805163488e-08 9.46499497815022e-05 0.999999995520693
  outer loop
    vertex 314.482486853869 313.452387848697 -0.302715370744254
    vertex 313.170816145924 311.529036699332 -0.302591378828685
    vertex 313.361446408174 311.609753012583 -0.302595543480728
  endloop
endfacet
facet normal 2.47130805163488e-08 9.46499497815022e-05 0.999999995520693
  outer loop
    vertex 314.482486853869 313.452387848697 -0.302715370744254
    vertex 313.361446408174 311.609753012583 -0.302595543480728
    vertex 313.566472020902 311.63838024178 -0.302596966277971
  endloop
endfacet
facet normal 2.47130805163488e-08 9.46499497815022e-05 0.999999995520693
  outer loop
    vertex 314.482486853869 313.452387848697 -0.302715370744254
    vertex 313.566472020902 311.63838024178 -0.302596966277971
    vertex 313.77192082742 311.612967488562 -0.302595550259133
  endloop
endfacet
facet normal 2.47130805163488e-08 9.46499497815022e-05 0.999999995520693
  outer loop
    vertex 314.482486853869 313.452387848697 -0.302715370744254
    vertex 313.77192082742 311.612967488562 -0.302595550259133
    vertex 314.182486853869 312.452434212197 -0.302715372698412
  endloop
endfacet
facet normal 2.47130805163488e-08 9.46499497815022e-05 0.999999995520693
  outer loop
    vertex 314.182486853869 312.452434212197 -0.302715372698412
    vertex 313.77192082742 311.612967488562 -0.302595550259133
    vertex 313.963791831085 311.535246590064 -0.302591391923558
  endloop
endfacet
facet normal 2.47130805163488e-08 9.46499497815022e-05 0.999999995520693
  outer loop
    vertex 314.182486853869 312.452434212197 -0.302715372698412
    vertex 313.963791831085 311.535246590064 -0.302591391923558
    vertex 314.129009340078 311.41051409708 -0.302584774654943
  endloop
endfacet
facet normal 2.47130805163488e-08 9.46499497815022e-05 0.999999995520693
  outer loop
    vertex 318.252216116376 314.052428913939 -0.302934155375575
    vertex 315.482486853869 313.752387848697 -0.302715370744254
    vertex 316.482486853869 313.452387848697 -0.302715370744254
  endloop
endfacet
facet normal 2.47130805163488e-08 9.46499497815022e-05 0.999999995520693
  outer loop
    vertex 318.252216116376 314.052428913939 -0.302934155375575
    vertex 316.482486853869 313.452387848697 -0.302715370744254
    vertex 316.782486853869 312.452434212197 -0.302715372698412
  endloop
endfacet
facet normal 2.47130805163488e-08 9.46499497815022e-05 0.999999995520693
  outer loop
    vertex 318.252216116376 314.052428913939 -0.302934155375575
    vertex 316.782486853869 312.452434212197 -0.302715372698412
    vertex 316.879398936634 311.401731985386 -0.302584756135996
  endloop
endfacet
facet normal 2.47130805163488e-08 9.46499497815022e-05 0.999999995520693
  outer loop
    vertex 318.252216116376 314.052428913939 -0.302934155375575
    vertex 316.879398936634 311.401731985386 -0.302584756135996
    vertex 317.042642711066 311.529036699332 -0.302591378828685
  endloop
endfacet
facet normal 2.47130805163488e-08 9.46499497815022e-05 0.999999995520693
  outer loop
    vertex 318.252216116376 314.052428913939 -0.302934155375575
    vertex 317.042642711066 311.529036699332 -0.302591378828685
    vertex 317.233272973317 311.609753012583 -0.302595543480728
  endloop
endfacet
facet normal 2.47130805163488e-08 9.46499497815022e-05 0.999999995520693
  outer loop
    vertex 318.252216116376 314.052428913939 -0.302934155375575
    vertex 317.233272973317 311.609753012583 -0.302595543480728
    vertex 317.438298586045 311.63838024178 -0.302596966277971
  endloop
endfacet
facet normal 2.47130805163488e-08 9.46499497815022e-05 0.999999995520693
  outer loop
    vertex 318.252216116376 314.052428913939 -0.302934155375575
    vertex 317.438298586045 311.63838024178 -0.302596966277971
    vertex 317.643747392563 311.612967488562 -0.302595550259133
  endloop
endfacet
facet normal 2.47130805163488e-08 9.46499497815022e-05 0.999999995520693
  outer loop
    vertex 318.252216116376 314.052428913939 -0.302934155375575
    vertex 317.643747392563 311.612967488562 -0.302595550259133
    vertex 317.835618396228 311.535246590064 -0.302591391923558
  endloop
endfacet
facet normal 2.47130805163488e-08 9.46499497815022e-05 0.999999995520693
  outer loop
    vertex 318.252216116376 314.052428913939 -0.302934155375575
    vertex 317.835618396228 311.535246590064 -0.302591391923558
    vertex 318.000835905221 311.41051409708 -0.302584774654943
  endloop
endfacet
facet normal 2.47130805163488e-08 9.46499497815022e-05 0.999999995520693
  outer loop
    vertex 318.252216116376 314.052428913939 -0.302934155375575
    vertex 318.000835905221 311.41051409708 -0.302584774654943
    vertex 318.12814061934 311.247270322875 -0.302576149409209
  endloop
endfacet
facet normal 2.47130805163488e-08 9.46499497815022e-05 0.999999995520693
  outer loop
    vertex 318.252216116376 314.052428913939 -0.302934155375575
    vertex 318.12814061934 311.247270322875 -0.302576149409209
    vertex 318.208856932698 311.056640060889 -0.302566103982598
  endloop
endfacet
facet normal 2.47130805163488e-08 9.46499497815022e-05 0.999999995520693
  outer loop
    vertex 318.252216116376 314.052428913939 -0.302934155375575
    vertex 318.208856932698 311.056640060889 -0.302566103982598
    vertex 318.23748416193 310.851614448445 -0.302555322954334
  endloop
endfacet
facet normal -0.963869427401282 -0.266375161634575 1.36117567932033e-05
  outer loop
    vertex 312.808333139821 310.634211077481 0.497455483159909
    vertex 312.779706226465 310.839194666981 -0.302555296764588
    vertex 312.808333455697 310.634169054537 -0.302544515736324
  endloop
endfacet
facet normal -0.990392326427814 -0.138286079218643 6.87293383854047e-06
  outer loop
    vertex 312.779706226465 310.839194666981 -0.302555296764588
    vertex 312.808333139821 310.634211077481 0.497455483159909
    vertex 312.779705910589 310.839236689925 0.497444702131645
  endloop
endfacet
facet normal 0.506766413243927 -0.862083406834323 4.5484198265269e-05
  outer loop
    vertex 313.974547361453 310.161814439038 0.497480758005996
    vertex 313.783917415078 310.081056102842 -0.302515076238193
    vertex 313.974547677329 310.161772416093 -0.302519240890237
  endloop
endfacet
facet normal 0.266375161982044 -0.963869426066052 5.07359662893907e-05
  outer loop
    vertex 313.783917415078 310.081056102842 -0.302515076238193
    vertex 313.974547361453 310.161814439038 0.497480758005996
    vertex 313.783917099202 310.081098125787 0.49748492265804
  endloop
endfacet
facet normal 0.999969338160581 0.00783088364679234 -1.65130803449274e-08
  outer loop
    vertex 314.365657596788 310.851614448445 -0.302555322954334
    vertex 314.340244527654 310.646207665154 0.497455457862558
    vertex 314.34024484353 310.646165642209 -0.302544541033675
  endloop
endfacet
facet normal 0.967922991051694 -0.251247056120325 1.35798559716473e-05
  outer loop
    vertex 314.340244527654 310.646207665154 0.497455457862558
    vertex 314.365657596788 310.851614448445 -0.302555322954334
    vertex 314.365657280912 310.851656471389 0.497444675941899
  endloop
endfacet
facet normal 0.967922991051693 -0.251247056120328 1.35798559716475e-05
  outer loop
    vertex 314.34024484353 310.646165642209 -0.302544541033675
    vertex 314.262523629045 310.454336661752 0.497465505905535
    vertex 314.262523944921 310.454294638808 -0.302534492990698
  endloop
endfacet
facet normal 0.86991429167101 -0.493202924218238 2.62507802809451e-05
  outer loop
    vertex 314.262523629045 310.454336661752 0.497465505905535
    vertex 314.34024484353 310.646165642209 -0.302544541033675
    vertex 314.340244527654 310.646207665154 0.497455457862558
  endloop
endfacet
facet normal -0.992436597273518 0.12275830051517 -6.84019022122224e-06
  outer loop
    vertex 312.779705910589 310.839236689925 0.497444702131645
    vertex 312.805118979722 311.044643473216 -0.302566078685246
    vertex 312.779706226465 310.839194666981 -0.302555296764588
  endloop
endfacet
facet normal -0.967922991051694 0.251247056120325 -1.35798559716473e-05
  outer loop
    vertex 312.805118979722 311.044643473216 -0.302566078685246
    vertex 312.779705910589 310.839236689925 0.497444702131645
    vertex 312.805118663846 311.044685496161 0.497433920210986
  endloop
endfacet
facet normal -0.869914291671008 0.493202924218242 -2.62507802809453e-05
  outer loop
    vertex 312.882839562455 311.236556499562 0.497423872168009
    vertex 313.007572371491 311.401731985386 -0.302584756135996
    vertex 312.882839878331 311.236514476618 -0.302576126728224
  endloop
endfacet
facet normal -0.712622370914233 0.701547828087106 -3.7132757295565e-05
  outer loop
    vertex 313.007572371491 311.401731985386 -0.302584756135996
    vertex 312.882839562455 311.236556499562 0.497423872168009
    vertex 313.007572055615 311.40177400833 0.497415242760237
  endloop
endfacet
facet normal -0.967922991051693 0.251247056120328 -1.35798559716475e-05
  outer loop
    vertex 312.805118663846 311.044685496161 0.497433920210986
    vertex 312.882839878331 311.236514476618 -0.302576126728224
    vertex 312.805118979722 311.044643473216 -0.302566078685246
  endloop
endfacet
facet normal -0.86991429167101 0.493202924218238 -2.62507802809451e-05
  outer loop
    vertex 312.882839878331 311.236514476618 -0.302576126728224
    vertex 312.805118663846 311.044685496161 0.497433920210986
    vertex 312.882839562455 311.236556499562 0.497423872168009
  endloop
endfacet
facet normal 0.266375161982047 -0.963869426066052 5.07359662893907e-05
  outer loop
    vertex 313.783917099202 310.081098125787 0.49748492265804
    vertex 313.57889180235 310.052428873646 -0.30251365344095
    vertex 313.783917415078 310.081056102842 -0.302515076238193
  endloop
endfacet
facet normal 0.138286079388485 -0.990392325058702 5.20786038480949e-05
  outer loop
    vertex 313.57889180235 310.052428873646 -0.30251365344095
    vertex 313.783917099202 310.081098125787 0.49748492265804
    vertex 313.578891486474 310.05247089659 0.497486345455283
  endloop
endfacet
facet normal 0.493202924916733 0.869914290481117 -4.55007113456139e-05
  outer loop
    vertex 313.963791515209 311.535288613009 0.497408606972675
    vertex 314.129009340078 311.41051409708 -0.302584774654943
    vertex 313.963791831085 311.535246590064 -0.302591391923558
  endloop
endfacet
facet normal 0.701547829069643 0.712622369945748 -3.71561103177445e-05
  outer loop
    vertex 314.129009340078 311.41051409708 -0.302584774654943
    vertex 313.963791515209 311.535288613009 0.497408606972675
    vertex 314.129009024202 311.410556120024 0.49741522424129
  endloop
endfacet
facet normal 0.251247056486996 0.967922989721607 -5.07445140887645e-05
  outer loop
    vertex 313.771920511544 311.613009511507 0.4974044486371
    vertex 313.963791831085 311.535246590064 -0.302591391923558
    vertex 313.77192082742 311.612967488562 -0.302595550259133
  endloop
endfacet
facet normal 0.493202924916732 0.869914290481117 -4.5500711345614e-05
  outer loop
    vertex 313.963791831085 311.535246590064 -0.302591391923558
    vertex 313.771920511544 311.613009511507 0.4974044486371
    vertex 313.963791515209 311.535288613009 0.497408606972675
  endloop
endfacet
facet normal 0.701547829069643 0.712622369945748 -3.71561103177445e-05
  outer loop
    vertex 314.129009340078 311.41051409708 -0.302584774654943
    vertex 314.256313738321 311.247312345819 0.497423849487024
    vertex 314.256314054197 311.247270322875 -0.302576149409209
  endloop
endfacet
facet normal 0.862083408034113 0.506766412562714 -2.62793817750957e-05
  outer loop
    vertex 314.256313738321 311.247312345819 0.497423849487024
    vertex 314.129009340078 311.41051409708 -0.302584774654943
    vertex 314.129009024202 311.410556120024 0.49741522424129
  endloop
endfacet
facet normal 0.963869427401257 0.266375161634664 -1.3611756793208e-05
  outer loop
    vertex 314.337030367555 311.056640060889 -0.302566103982598
    vertex 314.365657280912 310.851656471389 0.497444675941899
    vertex 314.365657596788 310.851614448445 -0.302555322954334
  endloop
endfacet
facet normal 0.999969338160581 0.00783088364679473 -1.65130803450531e-08
  outer loop
    vertex 314.365657280912 310.851656471389 0.497444675941899
    vertex 314.337030367555 311.056640060889 -0.302566103982598
    vertex 314.337030051679 311.056682083834 0.497433894913635
  endloop
endfacet
facet normal 0.862083408034113 0.506766412562713 -2.62793817750957e-05
  outer loop
    vertex 314.256314054197 311.247270322875 -0.302576149409209
    vertex 314.337030051679 311.056682083834 0.497433894913635
    vertex 314.337030367555 311.056640060889 -0.302566103982598
  endloop
endfacet
facet normal 0.963869427401256 0.266375161634666 -1.36117567932081e-05
  outer loop
    vertex 314.337030051679 311.056682083834 0.497433894913635
    vertex 314.256314054197 311.247270322875 -0.302576149409209
    vertex 314.256313738321 311.247312345819 0.497423849487024
  endloop
endfacet
facet normal -0.122758300704773 -0.992436595906986 5.20829146270945e-05
  outer loop
    vertex 313.57889180235 310.052428873646 -0.30251365344095
    vertex 313.373442679956 310.077883649808 0.497484929436444
    vertex 313.373442995832 310.077841626863 -0.302515069459789
  endloop
endfacet
facet normal -0.251247056486994 -0.967922989721608 5.07445140887645e-05
  outer loop
    vertex 313.373442679956 310.077883649808 0.497484929436444
    vertex 313.57889180235 310.052428873646 -0.30251365344095
    vertex 313.578891486474 310.05247089659 0.497486345455283
  endloop
endfacet
facet normal -0.251247056486996 -0.967922989721607 5.07445140887645e-05
  outer loop
    vertex 313.373442995832 310.077841626863 -0.302515069459789
    vertex 313.181571676291 310.155604548306 0.497480771100869
    vertex 313.181571992167 310.155562525361 -0.302519227795364
  endloop
endfacet
facet normal -0.493202924916732 -0.869914290481117 4.5500711345614e-05
  outer loop
    vertex 313.181571676291 310.155604548306 0.497480771100869
    vertex 313.373442995832 310.077841626863 -0.302515069459789
    vertex 313.373442679956 310.077883649808 0.497484929436444
  endloop
endfacet
facet normal 0.712622370914233 -0.701547828087106 3.7132757295565e-05
  outer loop
    vertex 314.137791135885 310.289119152984 0.497474135313307
    vertex 313.974547677329 310.161772416093 -0.302519240890237
    vertex 314.137791451761 310.28907713004 -0.302525863582926
  endloop
endfacet
facet normal 0.506766413243923 -0.862083406834325 4.54841982652691e-05
  outer loop
    vertex 313.974547677329 310.161772416093 -0.302519240890237
    vertex 314.137791135885 310.289119152984 0.497474135313307
    vertex 313.974547361453 310.161814439038 0.497480758005996
  endloop
endfacet
facet normal 0.869914291671008 -0.493202924218242 2.62507802809453e-05
  outer loop
    vertex 314.262523944921 310.454294638808 -0.302534492990698
    vertex 314.137791135885 310.289119152984 0.497474135313307
    vertex 314.137791451761 310.28907713004 -0.302525863582926
  endloop
endfacet
facet normal 0.712622370914233 -0.701547828087106 3.7132757295565e-05
  outer loop
    vertex 314.137791135885 310.289119152984 0.497474135313307
    vertex 314.262523944921 310.454294638808 -0.302534492990698
    vertex 314.262523629045 310.454336661752 0.497465505905535
  endloop
endfacet
facet normal -0.712622370914233 0.701547828087106 -3.7132757295565e-05
  outer loop
    vertex 313.007572371491 311.401731985386 -0.302584756135996
    vertex 313.170815830048 311.529078722277 0.497408620067548
    vertex 313.170816145924 311.529036699332 -0.302591378828685
  endloop
endfacet
facet normal -0.506766413243923 0.862083406834325 -4.54841982652691e-05
  outer loop
    vertex 313.170815830048 311.529078722277 0.497408620067548
    vertex 313.007572371491 311.401731985386 -0.302584756135996
    vertex 313.007572055615 311.40177400833 0.497415242760237
  endloop
endfacet
facet normal -0.862083408034172 -0.506766412562614 2.62793817750904e-05
  outer loop
    vertex 312.889049453179 310.443580815495 0.49746552858652
    vertex 312.808333455697 310.634169054537 -0.302544515736324
    vertex 312.889049769055 310.443538792551 -0.302534470309713
  endloop
endfacet
facet normal -0.963869427401281 -0.266375161634576 1.36117567932034e-05
  outer loop
    vertex 312.808333455697 310.634169054537 -0.302544515736324
    vertex 312.889049453179 310.443580815495 0.49746552858652
    vertex 312.808333139821 310.634211077481 0.497455483159909
  endloop
endfacet
facet normal -0.506766413243927 0.862083406834323 -4.5484198265269e-05
  outer loop
    vertex 313.170816145924 311.529036699332 -0.302591378828685
    vertex 313.361446092298 311.609795035528 0.497404455415505
    vertex 313.361446408174 311.609753012583 -0.302595543480728
  endloop
endfacet
facet normal -0.266375161982044 0.963869426066052 -5.07359662893907e-05
  outer loop
    vertex 313.361446092298 311.609795035528 0.497404455415505
    vertex 313.170816145924 311.529036699332 -0.302591378828685
    vertex 313.170815830048 311.529078722277 0.497408620067548
  endloop
endfacet
facet normal -0.00783088363693344 0.999969336780907 -5.25301620560384e-05
  outer loop
    vertex 313.566471705026 311.638422264725 0.497403032618262
    vertex 313.77192082742 311.612967488562 -0.302595550259133
    vertex 313.566472020902 311.63838024178 -0.302596966277971
  endloop
endfacet
facet normal 0.251247056486994 0.967922989721608 -5.07445140887645e-05
  outer loop
    vertex 313.77192082742 311.612967488562 -0.302595550259133
    vertex 313.566471705026 311.638422264725 0.497403032618262
    vertex 313.771920511544 311.613009511507 0.4974044486371
  endloop
endfacet
facet normal -0.266375161982047 0.963869426066052 -5.07359662893907e-05
  outer loop
    vertex 313.361446408174 311.609753012583 -0.302595543480728
    vertex 313.566471705026 311.638422264725 0.497403032618262
    vertex 313.566472020902 311.63838024178 -0.302596966277971
  endloop
endfacet
facet normal -0.00783088363693344 0.999969336780907 -5.25301620560384e-05
  outer loop
    vertex 313.566471705026 311.638422264725 0.497403032618262
    vertex 313.361446408174 311.609753012583 -0.302595543480728
    vertex 313.361446092298 311.609795035528 0.497404455415505
  endloop
endfacet
facet normal -0.701547829069582 -0.712622369945808 3.71561103177477e-05
  outer loop
    vertex 313.016354167298 310.28033704129 0.497474153832254
    vertex 312.889049769055 310.443538792551 -0.302534470309713
    vertex 313.016354483174 310.280295018346 -0.302525845063979
  endloop
endfacet
facet normal -0.862083408034171 -0.506766412562615 2.62793817750905e-05
  outer loop
    vertex 312.889049769055 310.443538792551 -0.302534470309713
    vertex 313.016354167298 310.28033704129 0.497474153832254
    vertex 312.889049453179 310.443580815495 0.49746552858652
  endloop
endfacet
facet normal -0.493202924916733 -0.869914290481117 4.55007113456139e-05
  outer loop
    vertex 313.181571992167 310.155562525361 -0.302519227795364
    vertex 313.016354167298 310.28033704129 0.497474153832254
    vertex 313.016354483174 310.280295018346 -0.302525845063979
  endloop
endfacet
facet normal -0.701547829069582 -0.712622369945808 3.71561103177477e-05
  outer loop
    vertex 313.016354167298 310.28033704129 0.497474153832254
    vertex 313.181571992167 310.155562525361 -0.302519227795364
    vertex 313.181571676291 310.155604548306 0.497480771100869
  endloop
endfacet
facet normal -0.000101218067486253 4.74673190859957e-05 -0.999999993750878
  outer loop
    vertex 317.655743980221 310.081056102842 -0.302515076238193
    vertex 318.252208993966 310.052428873646 -0.302596966277971
    vertex 317.450718367493 310.052428873646 -0.30251365344095
  endloop
endfacet
facet normal -0.000101218067486253 4.74673190859957e-05 -0.999999993750878
  outer loop
    vertex 318.252208993966 310.052428873646 -0.302596966277971
    vertex 317.655743980221 310.081056102842 -0.302515076238193
    vertex 317.846374242471 310.161772416093 -0.302519240890237
  endloop
endfacet
facet normal -0.000101218067486253 4.74673190859957e-05 -0.999999993750878
  outer loop
    vertex 318.252208993966 310.052428873646 -0.302596966277971
    vertex 317.846374242471 310.161772416093 -0.302519240890237
    vertex 318.009618016904 310.28907713004 -0.302525863582926
  endloop
endfacet
facet normal -0.000101218067486253 4.74673190859957e-05 -0.999999993750878
  outer loop
    vertex 318.252208993966 310.052428873646 -0.302596966277971
    vertex 318.009618016904 310.28907713004 -0.302525863582926
    vertex 318.134350510064 310.454294638808 -0.302534492990698
  endloop
endfacet
facet normal -0.000101218067486253 4.74673190859957e-05 -0.999999993750878
  outer loop
    vertex 318.252208993966 310.052428873646 -0.302596966277971
    vertex 318.134350510064 310.454294638808 -0.302534492990698
    vertex 318.212071408673 310.646165642209 -0.302544541033675
  endloop
endfacet
facet normal -0.000101218067486253 4.74673190859957e-05 -0.999999993750878
  outer loop
    vertex 318.252208993966 310.052428873646 -0.302596966277971
    vertex 318.212071408673 310.646165642209 -0.302544541033675
    vertex 318.23748416193 310.851614448445 -0.302555322954334
  endloop
endfacet
facet normal -0.000101218067486253 4.74673190859957e-05 -0.999999993750878
  outer loop
    vertex 317.655743980221 310.081056102842 -0.302515076238193
    vertex 318.252208993966 310.052428873646 -0.302596966277971
    vertex 317.450718367493 310.052428873646 -0.30251365344095
  endloop
endfacet
facet normal -0.000101218067486253 4.74673190859957e-05 -0.999999993750878
  outer loop
    vertex 318.252208993966 310.052428873646 -0.302596966277971
    vertex 317.655743980221 310.081056102842 -0.302515076238193
    vertex 317.846374242471 310.161772416093 -0.302519240890237
  endloop
endfacet
facet normal -0.000101218067486253 4.74673190859957e-05 -0.999999993750878
  outer loop
    vertex 318.252208993966 310.052428873646 -0.302596966277971
    vertex 317.846374242471 310.161772416093 -0.302519240890237
    vertex 318.009618016904 310.28907713004 -0.302525863582926
  endloop
endfacet
facet normal -0.000101218067486253 4.74673190859957e-05 -0.999999993750878
  outer loop
    vertex 318.252208993966 310.052428873646 -0.302596966277971
    vertex 318.009618016904 310.28907713004 -0.302525863582926
    vertex 318.134350510064 310.454294638808 -0.302534492990698
  endloop
endfacet
facet normal -0.000101218067486253 4.74673190859957e-05 -0.999999993750878
  outer loop
    vertex 318.252208993966 310.052428873646 -0.302596966277971
    vertex 318.134350510064 310.454294638808 -0.302534492990698
    vertex 318.212071408673 310.646165642209 -0.302544541033675
  endloop
endfacet
facet normal -0.000101218067486253 4.74673190859957e-05 -0.999999993750878
  outer loop
    vertex 318.252208993966 310.052428873646 -0.302596966277971
    vertex 318.212071408673 310.646165642209 -0.302544541033675
    vertex 318.23748416193 310.851614448445 -0.302555322954334
  endloop
endfacet
endsolid FinchScopeCapMk1.0
