*
*
G04 PADS Layout (Build Number 2008.43.1) generated Gerber (RS-274-X) file*
G04 PC Version=2.1*
*
%IN "bird_cable1.pcb"*%
*
%MOIN*%
*
%FSLAX35Y35*%
*
*
*
*
G04 PC Standard Apertures*
*
*
G04 Thermal Relief Aperture macro.*
%AMTER*
1,1,$1,0,0*
1,0,$1-$2,0,0*
21,0,$3,$4,0,0,45*
21,0,$3,$4,0,0,135*
%
*
*
G04 Annular Aperture macro.*
%AMANN*
1,1,$1,0,0*
1,0,$2,0,0*
%
*
*
G04 Odd Aperture macro.*
%AMODD*
1,1,$1,0,0*
1,0,$1-0.005,0,0*
%
*
*
G04 PC Custom Aperture Macros*
*
*
*
*
*
*
G04 PC Aperture Table*
*
%ADD011C,0.00984*%
%ADD013C,0.00787*%
%ADD018C,0.001*%
%ADD022C,0.00591*%
%ADD023C,0.00984*%
%ADD024C,0.00984*%
*
*
*
*
G04 PC Circuitry*
G04 Layer Name bird_cable1.pcb - circuitry*
%LPD*%
*
*
G04 PC Custom Flashes*
G04 Layer Name bird_cable1.pcb - flashes*
%LPD*%
*
*
G04 PC Circuitry*
G04 Layer Name bird_cable1.pcb - circuitry*
%LPD*%
*
G54D11*
G01X382735Y279134D02*
Y271383D01*
Y279134D02*
X385151D01*
X385956Y278765*
X386225Y278396*
X386225D02*
X386493Y277658D01*
Y276920*
X386225Y276181*
X386225D02*
X385956Y275812D01*
X385151Y275443*
X382735D02*
X385151D01*
X385956Y275074*
X386225Y274705*
X386225D02*
X386493Y273967D01*
Y272860*
X386225Y272121*
X386225D02*
X385956Y271752D01*
X385151Y271383*
X382735*
X390251Y276551D02*
X389714Y276181D01*
X389177Y275443*
X388909Y274336*
Y273598*
X389177Y272491*
X389714Y271752*
X390251Y271383*
X391056*
X391593Y271752*
X392130Y272491*
X392398Y273598*
Y274336*
X392130Y275443*
X391593Y276181*
X391056Y276551*
X390251*
X397767Y275443D02*
X397499Y276181D01*
X396693Y276551*
X395888*
X395083Y276181*
X394814Y275443*
X395083Y274705*
X395620Y274336*
X396962Y273967*
X397499Y273598*
X397767Y272860*
Y272491*
X397499Y271752*
X396693Y271383*
X395888*
X395083Y271752*
X394814Y272491*
X400988Y279134D02*
Y272860D01*
X401257Y271752*
X401794Y271383*
X402330*
X400183Y276551D02*
X402062D01*
X406088D02*
X405552Y276181D01*
X405015Y275443*
X404746Y274336*
Y273598*
X405015Y272491*
X405552Y271752*
X406088Y271383*
X406894*
X407431Y271752*
X407968Y272491*
X408236Y273598*
Y274336*
X407968Y275443*
X407431Y276181*
X406894Y276551*
X406088*
X410652D02*
Y271383D01*
Y275074D02*
X411457Y276181D01*
X411994Y276551*
X412799*
X413336Y276181*
X413605Y275074*
Y271383*
X422194Y279134D02*
Y273598D01*
X422463Y272491*
X423000Y271752*
X423805Y271383*
X424342*
X425147Y271752*
X425684Y272491*
X425952Y273598*
Y279134*
X428368Y276551D02*
Y271383D01*
Y275074D02*
X429174Y276181D01*
X429711Y276551*
X430516*
X431053Y276181*
X431321Y275074*
Y271383*
X433737Y279134D02*
X434005Y278765D01*
X434274Y279134*
X434005Y279503*
X433737Y279134*
X434005Y276551D02*
Y271383D01*
X436690Y276551D02*
X438300Y271383D01*
X439911Y276551D02*
X438300Y271383D01*
X442327Y274336D02*
X445548D01*
Y275074*
X445280Y275812*
X445011Y276181*
X444474Y276551*
X443669*
X443132Y276181*
X442595Y275443*
X442327Y274336*
Y273598*
X442595Y272491*
X443132Y271752*
X443669Y271383*
X444474*
X445011Y271752*
X445548Y272491*
X447964Y276551D02*
Y271383D01*
Y274336D02*
X448232Y275443D01*
X448769Y276181*
X449306Y276551*
X450111*
X455480Y275443D02*
X455212Y276181D01*
X454406Y276551*
X453601*
X452796Y276181*
X452527Y275443*
X452796Y274705*
X453333Y274336*
X454675Y273967*
X455212Y273598*
X455480Y272860*
Y272491*
X455212Y271752*
X454406Y271383*
X453601*
X452796Y271752*
X452527Y272491*
X457896Y279134D02*
X458164Y278765D01*
X458433Y279134*
X458164Y279503*
X457896Y279134*
X458164Y276551D02*
Y271383D01*
X461654Y279134D02*
Y272860D01*
X461922Y271752*
X462459Y271383*
X462996*
X460849Y276551D02*
X462728D01*
X465680D02*
X467291Y271383D01*
X468902Y276551D02*
X467291Y271383D01*
X466754Y269907*
X466217Y269169*
X465680Y268800*
X465412*
X477492Y279134D02*
Y271383D01*
Y279134D02*
X480981D01*
X477492Y275443D02*
X479639D01*
X477492Y271383D02*
X480981D01*
X483397Y279134D02*
Y271383D01*
X485813Y274336D02*
X489034D01*
Y275074*
X488766Y275812*
X488497Y276181*
X487960Y276551*
X487155*
X486618Y276181*
X486081Y275443*
X485813Y274336*
Y273598*
X486081Y272491*
X486618Y271752*
X487155Y271383*
X487960*
X488497Y271752*
X489034Y272491*
X494671Y275443D02*
X494134Y276181D01*
X493597Y276551*
X492792*
X492255Y276181*
X491718Y275443*
X491450Y274336*
Y273598*
X491718Y272491*
X492255Y271752*
X492792Y271383*
X493597*
X494134Y271752*
X494671Y272491*
X497892Y279134D02*
Y272860D01*
X498161Y271752*
X498698Y271383*
X499235*
X497087Y276551D02*
X498966D01*
X501650D02*
Y271383D01*
Y274336D02*
X501919Y275443D01*
X502456Y276181*
X502993Y276551*
X503798*
X507556D02*
X507019Y276181D01*
X506482Y275443*
X506214Y274336*
Y273598*
X506482Y272491*
X507019Y271752*
X507556Y271383*
X508361*
X508898Y271752*
X509435Y272491*
X509703Y273598*
Y274336*
X509435Y275443*
X508898Y276181*
X508361Y276551*
X507556*
X512119D02*
Y271383D01*
Y275074D02*
X512925Y276181D01*
X513461Y276551*
X514267*
X514804Y276181*
X515072Y275074*
Y271383*
X517488Y279134D02*
X517756Y278765D01*
X518025Y279134*
X517756Y279503*
X517488Y279134*
X517756Y276551D02*
Y271383D01*
X523662Y275443D02*
X523125Y276181D01*
X522588Y276551*
X521783*
X521246Y276181*
X520709Y275443*
X520441Y274336*
Y273598*
X520709Y272491*
X521246Y271752*
X521783Y271383*
X522588*
X523125Y271752*
X523662Y272491*
X529031Y275443D02*
X528762Y276181D01*
X527957Y276551*
X527151*
X526346Y276181*
X526078Y275443*
X526346Y274705*
X526883Y274336*
X528225Y273967*
X528762Y273598*
X529031Y272860*
Y272491*
X528762Y271752*
X527957Y271383*
X527151*
X526346Y271752*
X526078Y272491*
X537620Y279134D02*
Y271383D01*
Y279134D02*
X539499D01*
X540305Y278765*
X540842Y278027*
X541110Y277289*
X541378Y276181*
Y274336*
X541110Y273229*
X540842Y272491*
X540305Y271752*
X539499Y271383*
X537620*
X543794Y274336D02*
X547015D01*
Y275074*
X546747Y275812*
X546479Y276181*
X545942Y276551*
X545136*
X544600Y276181*
X544063Y275443*
X543794Y274336*
Y273598*
X544063Y272491*
X544600Y271752*
X545136Y271383*
X545942*
X546479Y271752*
X547015Y272491*
X552384Y275443D02*
X552116Y276181D01*
X551310Y276551*
X550505*
X549700Y276181*
X549431Y275443*
X549700Y274705*
X550237Y274336*
X551579Y273967*
X552116Y273598*
X552384Y272860*
Y272491*
X552116Y271752*
X551310Y271383*
X550505*
X549700Y271752*
X549431Y272491*
X554800Y279134D02*
X555068Y278765D01*
X555337Y279134*
X555068Y279503*
X554800Y279134*
X555068Y276551D02*
Y271383D01*
X560974Y276551D02*
Y270645D01*
X560706Y269538*
X560437Y269169*
X559900Y268800*
X559095*
X558558Y269169*
X560974Y275443D02*
X560437Y276181D01*
X559900Y276551*
X559095*
X558558Y276181*
X558021Y275443*
X557753Y274336*
Y273598*
X558021Y272491*
X558558Y271752*
X559095Y271383*
X559900*
X560437Y271752*
X560974Y272491*
X563390Y276551D02*
Y271383D01*
Y275074D02*
X564195Y276181D01*
X564732Y276551*
X565537*
X566074Y276181*
X566343Y275074*
Y271383*
X574932Y279134D02*
Y271383D01*
Y279134D02*
X578422D01*
X574932Y275443D02*
X577080D01*
X584059Y276551D02*
Y271383D01*
Y275443D02*
X583522Y276181D01*
X582985Y276551*
X582180*
X581643Y276181*
X581106Y275443*
X580838Y274336*
Y273598*
X581106Y272491*
X581643Y271752*
X582180Y271383*
X582985*
X583522Y271752*
X584059Y272491*
X589696Y275443D02*
X589159Y276181D01*
X588622Y276551*
X588622D02*
X587817D01*
X587280Y276181*
X586743Y275443*
X586475Y274336*
Y273598*
X586743Y272491*
X587280Y271752*
X587817Y271383*
X588622*
X588622D02*
X589159Y271752D01*
X589696Y272491*
X592112Y279134D02*
X592381Y278765D01*
X592649Y279134*
X592381Y279503*
X592112Y279134*
X592381Y276551D02*
Y271383D01*
X595065Y279134D02*
Y271383D01*
X597481Y279134D02*
X597749Y278765D01*
X598018Y279134*
X597749Y279503*
X597481Y279134*
X597749Y276551D02*
Y271383D01*
X601239Y279134D02*
Y272860D01*
X601507Y271752*
X602044Y271383*
X602581*
X600434Y276551D02*
X602313D01*
X605265D02*
X606876Y271383D01*
X608486Y276551D02*
X606876Y271383D01*
X606339Y269907*
X605802Y269169*
X605265Y268800*
X604997*
X382735Y266634D02*
Y258883D01*
Y262574D02*
X383540Y263681D01*
X384077Y264051*
X384882*
X385419Y263681*
X385688Y262574*
Y258883*
X388909Y266634D02*
Y260360D01*
X389177Y259252*
X389714Y258883*
X390251*
X388104Y264051D02*
X389983D01*
X393472Y266634D02*
Y260360D01*
X393741Y259252*
X394277Y258883*
X394814*
X392667Y264051D02*
X394546D01*
X397230D02*
Y256300D01*
Y262943D02*
X397767Y263681D01*
X398304Y264051*
X399109*
X399646Y263681*
X400183Y262943*
X400451Y261836*
Y261098*
X400183Y259991*
X399646Y259252*
X399109Y258883*
X398304*
X397767Y259252*
X397230Y259991*
X403136Y264051D02*
X402867Y263681D01*
X403136Y263312*
X403404Y263681*
X403136Y264051*
Y259621D02*
X402867Y259252D01*
X403136Y258883*
X403404Y259252*
X403136Y259621*
X410652Y268111D02*
X405820Y256300D01*
X417900Y268111D02*
X413068Y256300D01*
X420315Y261836D02*
X423537D01*
Y262574*
X423268Y263312*
X423000Y263681*
X422463Y264051*
X421658*
X421121Y263681*
X420584Y262943*
X420315Y261836*
Y261098*
X420584Y259991*
X421121Y259252*
X421658Y258883*
X422463*
X423000Y259252*
X423537Y259991*
X429174Y266634D02*
Y258883D01*
Y262943D02*
X428637Y263681D01*
X428100Y264051*
X427295*
X426758Y263681*
X426221Y262943*
X425952Y261836*
Y261098*
X426221Y259991*
X426758Y259252*
X427295Y258883*
X428100*
X428637Y259252*
X429174Y259991*
X433737Y266634D02*
X433200D01*
X432663Y266265*
X432395Y265158*
Y258883*
X431590Y264051D02*
X433469D01*
X436421Y259621D02*
X436153Y259252D01*
X436421Y258883*
X436690Y259252*
X436421Y259621*
X439106Y266634D02*
Y258883D01*
Y262943D02*
X439643Y263681D01*
X440179Y264051*
X440985*
X441522Y263681*
X442058Y262943*
X442327Y261836*
Y261098*
X442058Y259991*
X441522Y259252*
X440985Y258883*
X440179*
X439643Y259252*
X439106Y259991*
X444743Y264051D02*
Y260360D01*
X445011Y259252*
X445548Y258883*
X446353*
X446890Y259252*
X447696Y260360*
Y264051D02*
Y258883D01*
X450380Y259621D02*
X450111Y259252D01*
X450380Y258883*
X450648Y259252*
X450380Y259621*
X453064Y261836D02*
X456285D01*
Y262574*
X456017Y263312*
X455748Y263681*
X455212Y264051*
X454406*
X453869Y263681*
X453333Y262943*
X453064Y261836*
Y261098*
X453333Y259991*
X453869Y259252*
X454406Y258883*
X455212*
X455748Y259252*
X456285Y259991*
X461922Y266634D02*
Y258883D01*
Y262943D02*
X461386Y263681D01*
X460849Y264051*
X460043*
X459507Y263681*
X458970Y262943*
X458701Y261836*
Y261098*
X458970Y259991*
X459507Y259252*
X460043Y258883*
X460849*
X461386Y259252*
X461922Y259991*
X464338Y264051D02*
Y260360D01*
X464607Y259252*
X465144Y258883*
X465949*
X466486Y259252*
X467291Y260360*
Y264051D02*
Y258883D01*
X474539Y268111D02*
X469707Y256300D01*
X381890Y419291D02*
X952577D01*
X381890D02*
X391732Y421260D01*
Y417323*
X381890Y419291*
X1562992D02*
X992305D01*
X1562992D02*
X1553150Y417323D01*
Y421260*
X1562992Y419291*
X381890Y415354D02*
Y423228D01*
X1562992Y415354D02*
Y423228D01*
X954993Y422060D02*
X957453D01*
X956111Y419599*
X956782*
X957230Y419291*
X957453Y418984*
X957677Y418061*
Y417446*
X957453Y416523*
X957006Y415908*
X956335Y415600*
X955664*
X954993Y415908*
X954769Y416216*
X954545Y416831*
X961033Y422060D02*
X960361Y421752D01*
X959914Y420829*
X959690Y419291*
Y418369*
X959914Y416831*
X960361Y415908*
X961033Y415600*
X961480*
X962151Y415908*
X962598Y416831*
X962822Y418369*
Y419291*
X962598Y420829*
X962151Y421752*
X961480Y422060*
X961033*
X966178D02*
X965506Y421752D01*
X965059Y420829*
X964835Y419291*
Y418369*
X965059Y416831*
X965506Y415908*
X966178Y415600*
X966625*
X967296Y415908*
X967743Y416831*
X967967Y418369*
Y419291*
X967743Y420829*
X967296Y421752*
X966625Y422060*
X966178*
X970204Y416216D02*
X969980Y415908D01*
X970204Y415600*
X970428Y415908*
X970204Y416216*
X973783Y422060D02*
X973112Y421752D01*
X972665Y420829*
X972441Y419291*
Y418369*
X972665Y416831*
X973112Y415908*
X973783Y415600*
X974230*
X974902Y415908*
X975349Y416831*
X975573Y418369*
Y419291*
X975349Y420829*
X974902Y421752*
X974230Y422060*
X973783*
X977586Y419906D02*
Y415600D01*
Y418676D02*
X978257Y419599D01*
X978704Y419906*
X979375*
X979823Y419599*
X980047Y418676*
Y415600*
Y418676D02*
X980718Y419599D01*
X981165Y419906*
X981836*
X982283Y419599*
X982507Y418676*
Y415600*
X984520Y419906D02*
Y415600D01*
Y418676D02*
X985191Y419599D01*
X985639Y419906*
X986310*
X986757Y419599*
X986981Y418676*
Y415600*
Y418676D02*
X987652Y419599D01*
X988099Y419906*
X988099D02*
X988771D01*
X989218Y419599*
X989442Y418676*
Y415600*
X98425Y417323D02*
X352362D01*
X98425Y393701D02*
X352362D01*
X98425Y417323D02*
Y393701D01*
X181102Y417323D02*
Y393701D01*
X216535Y417323D02*
Y393701D01*
X251969Y417323D02*
Y393701D01*
X305118Y417323D02*
Y393701D01*
X352362Y417323D02*
Y393701D01*
G54D13*
X381890Y322096D02*
Y316929D01*
Y322096D02*
X383500D01*
X384037Y321850*
X384216Y321604*
X384395Y321112*
Y320620*
X384216Y320128*
X384037Y319882*
X383500Y319636*
X381890D02*
X383500D01*
X384037Y319390*
X384216Y319144*
X384395Y318652*
Y317913*
X384216Y317421*
X384037Y317175*
X383500Y316929*
X381890*
X386006Y322096D02*
Y316929D01*
X387616Y322096D02*
Y316929D01*
Y322096D02*
X389227D01*
X389764Y321850*
X389943Y321604*
X390122Y321112*
Y320620*
X389943Y320128*
X389764Y319882*
X389227Y319636*
X387616*
X388869D02*
X390122Y316929D01*
X391732Y322096D02*
Y316929D01*
Y322096D02*
X392985D01*
X393522Y321850*
X393880Y321358*
X394059Y320866*
X394238Y320128*
Y318898*
X394059Y318159*
X393880Y317667*
X393522Y317175*
X392985Y316929*
X391732*
X398533Y320866D02*
X398354Y321358D01*
X397996Y321850*
X397638Y322096*
X396922*
X396564Y321850*
X396206Y321358*
X396027Y320866*
X395848Y320128*
Y318898*
X396027Y318159*
X396206Y317667*
X396564Y317175*
X396922Y316929*
X397638*
X397996Y317175*
X398354Y317667*
X398533Y318159*
X401575Y322096D02*
X400143Y316929D01*
X401575Y322096D02*
X403006Y316929D01*
X400680Y318652D02*
X402470D01*
X404617Y322096D02*
Y316929D01*
Y322096D02*
X406228D01*
X406764Y321850*
X406943Y321604*
X407122Y321112*
Y320620*
X406943Y320128*
X406764Y319882*
X406228Y319636*
X404617D02*
X406228D01*
X406764Y319390*
X406943Y319144*
X407122Y318652*
Y317913*
X406943Y317421*
X406764Y317175*
X406228Y316929*
X404617*
X408733Y322096D02*
Y316929D01*
X410880*
X412491Y322096D02*
Y316929D01*
Y322096D02*
X414817D01*
X412491Y319636D02*
X413923D01*
X412491Y316929D02*
X414817D01*
X416428Y321112D02*
X416786Y321358D01*
X417323Y322096*
Y316929*
X418933Y315945D02*
X422691D01*
X423765Y322096D02*
Y316929D01*
Y322096D02*
X425018D01*
X425555Y321850*
X425913Y321358*
X426092Y320866*
X426271Y320128*
Y318898*
X426092Y318159*
X425913Y317667*
X425555Y317175*
X425018Y316929*
X423765*
X427881Y322096D02*
Y316929D01*
Y322096D02*
X429134D01*
X429671Y321850*
X430029Y321358*
X430208Y320866*
X430387Y320128*
Y318898*
X430208Y318159*
X430029Y317667*
X429671Y317175*
X429134Y316929*
X427881*
X432176Y317421D02*
X431997Y317175D01*
X432176Y316929*
X432355Y317175*
X432176Y317421*
X433966Y322096D02*
Y316929D01*
Y322096D02*
X435576D01*
X436113Y321850*
X436292Y321604*
X436471Y321112*
Y320374*
X436292Y319882*
X436113Y319636*
X435576Y319390*
X433966*
X438082Y322096D02*
Y316929D01*
X440587Y322096D02*
Y316929D01*
X438082Y319636D02*
X440587D01*
X443271Y322096D02*
X442913Y321850D01*
X442555Y321358*
X442377Y320866*
X442198Y320128*
Y318898*
X442377Y318159*
X442555Y317667*
X442913Y317175*
X443271Y316929*
X443987*
X444345Y317175*
X444703Y317667*
X444882Y318159*
X445061Y318898*
Y320128*
X444882Y320866*
X444703Y321358*
X444345Y321850*
X443987Y322096*
X443271*
X450787Y319144D02*
X454009D01*
X459735Y322096D02*
Y316929D01*
Y322096D02*
X460988D01*
X461525Y321850*
X461883Y321358*
X462062Y320866*
X462241Y320128*
Y318898*
X462062Y318159*
X461883Y317667*
X461525Y317175*
X460988Y316929*
X459735*
X463851Y322096D02*
Y316929D01*
Y322096D02*
X465462D01*
X465999Y321850*
X466178Y321604*
X466356Y321112*
Y320620*
X466178Y320128*
X465999Y319882*
X465462Y319636*
X463851*
X465104D02*
X466356Y316929D01*
X467967Y322096D02*
Y316929D01*
X469578Y322096D02*
Y316929D01*
X471725*
X473336Y322096D02*
Y316929D01*
X475483*
X481210Y322096D02*
Y316929D01*
Y322096D02*
X482462D01*
X482999Y321850*
X483357Y321358*
X483536Y320866*
X483715Y320128*
Y318898*
X483536Y318159*
X483357Y317667*
X482999Y317175*
X482462Y316929*
X481210*
X485326Y322096D02*
Y316929D01*
Y322096D02*
X486936D01*
X487473Y321850*
X487652Y321604*
X487831Y321112*
Y320620*
X487652Y320128*
X487473Y319882*
X486936Y319636*
X485326*
X486578D02*
X487831Y316929D01*
X490873Y322096D02*
X489442Y316929D01*
X490873Y322096D02*
X492305Y316929D01*
X489979Y318652D02*
X491768D01*
X493916Y322096D02*
X494810Y316929D01*
X495705Y322096D02*
X494810Y316929D01*
X495705Y322096D02*
X496600Y316929D01*
X497495Y322096D02*
X496600Y316929D01*
X499105Y322096D02*
Y316929D01*
X500716Y322096D02*
Y316929D01*
Y322096D02*
X503221Y316929D01*
Y322096D02*
Y316929D01*
X507516Y320866D02*
X507337Y321358D01*
X506979Y321850*
X506621Y322096*
X505906*
X505548Y321850*
X505190Y321358*
X505011Y320866*
X504832Y320128*
Y318898*
X505011Y318159*
X505190Y317667*
X505548Y317175*
X505906Y316929*
X506621*
X506979Y317175*
X507337Y317667*
X507516Y318159*
Y318898*
X506621D02*
X507516D01*
G54D18*
X381890Y411417D02*
X381892D01*
X1562992D02*
X1562995D01*
G54D22*
X381890D02*
Y375984D01*
X417323*
X433066Y388779D02*
G75*
G03X417323Y375985I1437J-17850D01*
G01X433071Y388780D02*
X1511811D01*
X1527559Y375985D02*
G03X1511816Y388779I-17180J-5056D01*
G01X1527559Y375984D02*
X1562992D01*
Y411417*
X1527559*
X1511789Y400591D02*
G03X1527555Y411407I562J16081D01*
G01X1511811Y400591D02*
X433071D01*
X417316Y411434D02*
G03X433064Y400591I15808J6100D01*
G01X417323Y411417D02*
X381890D01*
X133563Y406250D02*
X133026Y406988D01*
X132221Y407357*
X131147*
X130342Y406988*
X129805Y406250*
Y405512*
X130073Y404774*
X130342Y404405*
X130879Y404035*
X132489Y403297*
X133026Y402928*
X133295Y402559*
X133563Y401821*
Y400714*
X133026Y399975*
X132221Y399606*
X131147*
X130342Y399975*
X129805Y400714*
X135979Y407357D02*
Y399606D01*
X142153Y407357D02*
X138395Y399606D01*
Y407357D02*
X142153D01*
X138395Y399606D02*
X142153D01*
X144569Y407357D02*
Y399606D01*
Y407357D02*
X148058D01*
X144569Y403666D02*
X146716D01*
X144569Y399606D02*
X148058D01*
X191008Y407357D02*
X190471Y406988D01*
X189934Y406250*
X189665Y405512*
X189397Y404405*
Y402559*
X189665Y401452*
X189934Y400714*
X190471Y399975*
X191008Y399606*
X192081*
X192618Y399975*
X193155Y400714*
X193423Y401452*
X193692Y402559*
Y404405*
X193423Y405512*
X193155Y406250*
X192618Y406988*
X192081Y407357*
X191008*
X191813Y401083D02*
X193423Y398868D01*
X197987Y407357D02*
Y399606D01*
X196108Y407357D02*
X199866D01*
X202282D02*
X204429Y403666D01*
Y399606*
X206577Y407357D02*
X204429Y403666D01*
X228588Y406250D02*
X228051Y406988D01*
X227246Y407357*
X226172*
X225367Y406988*
X224830Y406250*
Y405512*
X225098Y404774*
X225367Y404405*
X225904Y404035*
X227514Y403297*
X228051Y402928*
X228320Y402559*
X228588Y401821*
Y400714*
X228051Y399975*
X227246Y399606*
X226172*
X225367Y399975*
X224830Y400714*
X231004Y407357D02*
X233151Y403666D01*
Y399606*
X235299Y407357D02*
X233151Y403666D01*
X237715Y407357D02*
Y399606D01*
Y407357D02*
X239862Y399606D01*
X242010Y407357D02*
X239862Y399606D01*
X242010Y407357D02*
Y399606D01*
X263484Y407357D02*
Y399606D01*
Y407357D02*
X265900D01*
X266705Y406988*
X266974Y406619*
X267242Y405881*
Y404774*
X266974Y404035*
X266705Y403666*
X265900Y403297*
X263484*
X269658Y407357D02*
Y399606D01*
X272879*
X277443Y407357D02*
X275295Y399606D01*
X277443Y407357D02*
X279590Y399606D01*
X276101Y402190D02*
X278785D01*
X283885Y407357D02*
Y399606D01*
X282006Y407357D02*
X285764D01*
X288180D02*
Y399606D01*
Y407357D02*
X291670D01*
X288180Y403666D02*
X290327D01*
X288180Y399606D02*
X291670D01*
X294086Y407357D02*
Y399606D01*
Y407357D02*
X295965D01*
X296770Y406988*
X297307Y406250*
X297575Y405512*
X297844Y404405*
Y402559*
X297575Y401452*
X297307Y400714*
X296770Y399975*
X295965Y399606*
X294086*
X321734Y407357D02*
Y399606D01*
X319855Y407357D02*
X323613D01*
X327640D02*
X327103Y406988D01*
X326566Y406250*
X326297Y405512*
X326029Y404405*
Y402559*
X326297Y401452*
X326566Y400714*
X327103Y399975*
X327640Y399606*
X328713*
X329250Y399975*
X329787Y400714*
X330055Y401452*
X330324Y402559*
Y404405*
X330055Y405512*
X329787Y406250*
X329250Y406988*
X328713Y407357*
X327640*
X332740D02*
Y399606D01*
X335961*
G54D23*
X384345Y294134D02*
X383809Y293765D01*
X383272Y293027*
X383003Y292289*
X382735Y291181*
Y289336*
X383003Y288229*
X383272Y287491*
X383809Y286752*
X384345Y286383*
X385419*
X385956Y286752*
X386493Y287491*
X386761Y288229*
X387030Y289336*
Y291181*
X386761Y292289*
X386493Y293027*
X385956Y293765*
X385419Y294134*
X384345*
X389446D02*
Y286383D01*
Y294134D02*
X391862D01*
X392667Y293765*
X392935Y293396*
X393204Y292658*
Y291920*
X392935Y291181*
X392667Y290812*
X391862Y290443*
X389446*
X391325D02*
X393204Y286383D01*
X399646Y292289D02*
X399378Y293027D01*
X398841Y293765*
X398304Y294134*
X397230*
X396693Y293765*
X396156Y293027*
X395888Y292289*
X395620Y291181*
Y289336*
X395888Y288229*
X396156Y287491*
X396693Y286752*
X397230Y286383*
X398304*
X398841Y286752*
X399378Y287491*
X399646Y288229*
Y289336*
X398304D02*
X399646D01*
X404209Y294134D02*
X402062Y286383D01*
X404209Y294134D02*
X406357Y286383D01*
X402867Y288967D02*
X405552D01*
X408773Y294134D02*
Y286383D01*
Y294134D02*
X412531Y286383D01*
Y294134D02*
Y286383D01*
X414947Y294134D02*
Y286383D01*
X421121Y294134D02*
X417363Y286383D01*
Y294134D02*
X421121D01*
X417363Y286383D02*
X421121D01*
X425684Y294134D02*
X423537Y286383D01*
X425684Y294134D02*
X427831Y286383D01*
X424342Y288967D02*
X427026D01*
X432126Y294134D02*
Y286383D01*
X430247Y294134D02*
X434005D01*
X436421D02*
Y286383D01*
X440448Y294134D02*
X439911Y293765D01*
X439374Y293027*
X439106Y292289*
X438837Y291181*
Y289336*
X439106Y288229*
X439374Y287491*
X439911Y286752*
X440448Y286383*
X441521*
X442058Y286752*
X442595Y287491*
X442864Y288229*
X443132Y289336*
Y291181*
X442864Y292289*
X442595Y293027*
X442058Y293765*
X441521Y294134*
X440448*
X445548D02*
Y286383D01*
Y294134D02*
X449306Y286383D01*
Y294134D02*
Y286383D01*
X451990Y291551D02*
X451722Y291181D01*
X451990Y290812*
X452259Y291181*
X451990Y291551*
Y287121D02*
X451722Y286752D01*
X451990Y286383*
X452259Y286752*
X451990Y287121*
X386224Y254134D02*
X383540D01*
X383272Y250812*
X383540Y251181*
X384345Y251551*
X385151*
X385956Y251181*
X386493Y250443*
X386761Y249336*
X386493Y248598*
X386224Y247491*
X385688Y246752*
X384882Y246383*
X384077*
X383272Y246752*
X383003Y247121*
X382735Y247860*
X392667Y251551D02*
X392398Y250443D01*
X391862Y249705*
X391056Y249336*
X390788*
X389983Y249705*
X389446Y250443*
X389177Y251551*
Y251920*
X389446Y253027*
X389983Y253765*
X390788Y254134*
X391056*
X391862Y253765*
X392398Y253027*
X392667Y251551*
Y249705*
X392398Y247860*
X391862Y246752*
X391056Y246383*
X390519*
X389714Y246752*
X389446Y247491*
X396693Y254134D02*
X395888Y253765D01*
X395351Y252658*
X395083Y250812*
Y249705*
X395351Y247860*
X395888Y246752*
X396693Y246383*
X397230*
X398035Y246752*
X398572Y247860*
X398841Y249705*
Y250812*
X398572Y252658*
X398035Y253765*
X397230Y254134*
X396693*
X411457Y252289D02*
X411189Y253027D01*
X410652Y253765*
X410115Y254134*
X409041*
X408504Y253765*
X407967Y253027*
X407699Y252289*
X407431Y251181*
Y249336*
X407699Y248229*
X407967Y247491*
X408504Y246752*
X409041Y246383*
X410115*
X410652Y246752*
X411189Y247491*
X411457Y248229*
X415215Y251551D02*
X414678Y251181D01*
X414141Y250443*
X413873Y249336*
Y248598*
X414141Y247491*
X414678Y246752*
X415215Y246383*
X416020*
X416557Y246752*
X417094Y247491*
X417363Y248598*
Y249336*
X417094Y250443*
X416557Y251181*
X416020Y251551*
X415215*
X419778D02*
Y246383D01*
Y250074D02*
X420584Y251181D01*
X421121Y251551*
X421926*
X422463Y251181*
X422731Y250074*
Y246383*
Y250074D02*
X423537Y251181D01*
X424073Y251551*
X424879*
X425416Y251181*
X425684Y250074*
Y246383*
X428100Y251551D02*
Y246383D01*
Y250074D02*
X428905Y251181D01*
X429442Y251551*
X430247*
X430784Y251181*
X431053Y250074*
Y246383*
Y250074D02*
X431858Y251181D01*
X432395Y251551*
X433200*
X433737Y251181*
X434005Y250074*
Y246383*
X437763Y251551D02*
X437227Y251181D01*
X436690Y250443*
X436421Y249336*
Y248598*
X436690Y247491*
X437227Y246752*
X437763Y246383*
X438569*
X439106Y246752*
X439642Y247491*
X439911Y248598*
Y249336*
X439642Y250443*
X439106Y251181*
X438569Y251551*
X437763*
X442327D02*
Y246383D01*
Y250074D02*
X443132Y251181D01*
X443669Y251551*
X444474*
X445011Y251181*
X445279Y250074*
Y246383*
X447695Y251551D02*
X448769Y246383D01*
X449843Y251551D02*
X448769Y246383D01*
X449843Y251551D02*
X450917Y246383D01*
X451990Y251551D02*
X450917Y246383D01*
X454406Y249336D02*
X457627D01*
Y250074*
X457359Y250812*
X457090Y251181*
X456554Y251551*
X455748*
X455211Y251181*
X454675Y250443*
X454406Y249336*
Y248598*
X454675Y247491*
X455211Y246752*
X455748Y246383*
X456554*
X457090Y246752*
X457627Y247491*
X463264Y251551D02*
Y246383D01*
Y250443D02*
X462728Y251181D01*
X462191Y251551*
X461385*
X460849Y251181*
X460312Y250443*
X460043Y249336*
Y248598*
X460312Y247491*
X460849Y246752*
X461385Y246383*
X462191*
X462728Y246752*
X463264Y247491*
X465680Y254134D02*
Y246383D01*
X468901Y254134D02*
Y247860D01*
X469170Y246752*
X469707Y246383*
X470244*
X468096Y251551D02*
X469975D01*
X472660Y254134D02*
Y246383D01*
Y250074D02*
X473465Y251181D01*
X474002Y251551*
X474807*
X475344Y251181*
X475612Y250074*
Y246383*
X486350Y254134D02*
X484202Y246383D01*
X486350Y254134D02*
X488497Y246383D01*
X485007Y248967D02*
X487692D01*
X490913Y251551D02*
X492523Y246383D01*
X494134Y251551D02*
X492523Y246383D01*
X496550Y249336D02*
X499771D01*
Y250074*
X499503Y250812*
X499234Y251181*
X498697Y251551*
X497892*
X497355Y251181*
X496818Y250443*
X496550Y249336*
Y248598*
X496818Y247491*
X497355Y246752*
X497892Y246383*
X498697*
X499234Y246752*
X499771Y247491*
X502187Y251551D02*
Y246383D01*
Y250074D02*
X502992Y251181D01*
X503529Y251551*
X504334*
X504871Y251181*
X505140Y250074*
Y246383*
X507556Y251551D02*
Y247860D01*
X507824Y246752*
X508361Y246383*
X509166*
X509703Y246752*
X510508Y247860*
Y251551D02*
Y246383D01*
X512924Y249336D02*
X516145D01*
Y250074*
X515877Y250812*
X515609Y251181*
X515072Y251551*
X514266*
X513730Y251181*
X513193Y250443*
X512924Y249336*
Y248598*
X513193Y247491*
X513730Y246752*
X514266Y246383*
X515072*
X515609Y246752*
X516145Y247491*
X519098Y246752D02*
X518830Y246383D01*
X518561Y246752*
X518830Y247121*
X519098Y246752*
Y246014*
X518830Y245276*
X518561Y244907*
X527688Y254134D02*
Y246383D01*
Y254134D02*
X530104D01*
X530909Y253765*
X531178Y253396*
X531446Y252658*
Y251551*
X531178Y250812*
X530909Y250443*
X530104Y250074*
X527688*
X533862Y254134D02*
Y246383D01*
Y250074D02*
X534667Y251181D01*
X535204Y251551*
X536009*
X536546Y251181*
X536815Y250074*
Y246383*
X539499Y251551D02*
X541110Y246383D01*
X542720Y251551D02*
X541110Y246383D01*
X540573Y244907*
X540036Y244169*
X539499Y243800*
X539231*
X548089Y250443D02*
X547820Y251181D01*
X547015Y251551*
X546210*
X545405Y251181*
X545136Y250443*
X545405Y249705*
X545941Y249336*
X547284Y248967*
X547820Y248598*
X548089Y247860*
Y247491*
X547820Y246752*
X547015Y246383*
X546210*
X545405Y246752*
X545136Y247491*
X550505Y254134D02*
X550773Y253765D01*
X551042Y254134*
X550773Y254503*
X550505Y254134*
X550773Y251551D02*
Y246383D01*
X556679Y250443D02*
X556142Y251181D01*
X555605Y251551*
X554800*
X554263Y251181*
X553726Y250443*
X553457Y249336*
Y248598*
X553726Y247491*
X554263Y246752*
X554800Y246383*
X555605*
X556142Y246752*
X556679Y247491*
X562047Y250443D02*
X561779Y251181D01*
X560974Y251551*
X560168*
X559363Y251181*
X559095Y250443*
X559363Y249705*
X559900Y249336*
X561242Y248967*
X561779Y248598*
X562047Y247860*
Y247491*
X561779Y246752*
X560974Y246383*
X560168*
X559363Y246752*
X559095Y247491*
X570637Y254134D02*
Y246383D01*
Y254134D02*
X573053D01*
X573858Y253765*
X574127Y253396*
X574395Y252658*
Y251920*
X574127Y251181*
X573858Y250812*
X573053Y250443*
X570637*
X572516D02*
X574395Y246383D01*
X576811Y251551D02*
Y246383D01*
Y250074D02*
X577616Y251181D01*
X578153Y251551*
X578958*
X578958D02*
X579495Y251181D01*
X579764Y250074*
Y246383*
Y250074D02*
X580569Y251181D01*
X581106Y251551*
X581911*
X582448Y251181*
X582717Y250074*
Y246383*
X585401Y247121D02*
X585132Y246752D01*
X585401Y246383*
X585669Y246752*
X585401Y247121*
X594528Y252289D02*
Y252658D01*
X594796Y253396*
X595064Y253765*
X595601Y254134*
X596675*
X597212Y253765*
X597480Y253396*
X597749Y252658*
Y251920*
X597480Y251181*
X596943Y250074*
X594259Y246383*
X598017*
X603923Y254134D02*
X601238D01*
X600970Y250812*
X601238Y251181*
X602044Y251551*
X602849*
X603654Y251181*
X604191Y250443*
X604460Y249336*
X604191Y248598*
X603923Y247491*
X603386Y246752*
X602580Y246383*
X601775*
X600970Y246752*
X600701Y247121*
X600433Y247860*
X610365Y254134D02*
X607681D01*
X607412Y250812*
X607681Y251181*
X608486Y251551*
X609291*
X610097Y251181*
X610633Y250443*
X610902Y249336*
X610633Y248598*
X610365Y247491*
X609828Y246752*
X609023Y246383*
X608218*
X607412Y246752*
X607144Y247121*
X606875Y247860*
X382735Y241634D02*
Y233883D01*
Y241634D02*
X385151D01*
X385956Y241265*
X386224Y240896*
X386493Y240158*
Y239420*
X386224Y238681*
X385956Y238312*
X385151Y237943*
X382735D02*
X385151D01*
X385956Y237574*
X386224Y237205*
X386493Y236467*
Y235360*
X386224Y234621*
X385956Y234252*
X385151Y233883*
X382735*
X390251Y239051D02*
X389714Y238681D01*
X389177Y237943*
X388909Y236836*
Y236098*
X389177Y234991*
X389714Y234252*
X390251Y233883*
X391056*
X391593Y234252*
X392130Y234991*
X392398Y236098*
Y236836*
X392130Y237943*
X391593Y238681*
X391056Y239051*
X390251*
X397767Y237943D02*
X397499Y238681D01*
X396693Y239051*
X395888*
X395083Y238681*
X394814Y237943*
X395083Y237205*
X395620Y236836*
X396962Y236467*
X397499Y236098*
X397767Y235360*
Y234991*
X397499Y234252*
X396693Y233883*
X395888*
X395083Y234252*
X394814Y234991*
X400988Y241634D02*
Y235360D01*
X401257Y234252*
X401794Y233883*
X402330*
X400183Y239051D02*
X402062D01*
X406088D02*
X405552Y238681D01*
X405015Y237943*
X404746Y236836*
Y236098*
X405015Y234991*
X405552Y234252*
X406088Y233883*
X406894*
X407431Y234252*
X407967Y234991*
X408236Y236098*
Y236836*
X407967Y237943*
X407431Y238681*
X406894Y239051*
X406088*
X410652D02*
Y233883D01*
Y237574D02*
X411457Y238681D01*
X411994Y239051*
X412799*
X413336Y238681*
X413605Y237574*
Y233883*
X416557Y234252D02*
X416289Y233883D01*
X416020Y234252*
X416289Y234621*
X416557Y234252*
Y233514*
X416289Y232776*
X416020Y232407*
X425147Y241634D02*
Y233883D01*
Y241634D02*
X427295Y233883D01*
X429442Y241634D02*
X427295Y233883D01*
X429442Y241634D02*
Y233883D01*
X434005Y241634D02*
X431858Y233883D01*
X434005Y241634D02*
X436153Y233883D01*
X432663Y236467D02*
X435348D01*
X446353Y241634D02*
X445548Y241265D01*
X445011Y240158*
X444743Y238312*
Y237205*
X445011Y235360*
X445548Y234252*
X446353Y233883*
X446890*
X447695Y234252*
X448232Y235360*
X448501Y237205*
Y238312*
X448232Y240158*
X447695Y241265*
X446890Y241634*
X446353*
X451185Y239789D02*
Y240158D01*
X451453Y240896*
X451722Y241265*
X452259Y241634*
X453332*
X453869Y241265*
X454138Y240896*
X454406Y240158*
Y239420*
X454138Y238681*
X453601Y237574*
X450917Y233883*
X454675*
X457359Y239789D02*
Y240158D01*
X457627Y240896*
X457896Y241265*
X458433Y241634*
X459506*
X460043Y241265*
X460312Y240896*
X460580Y240158*
Y239420*
X460312Y238681*
X459775Y237574*
X457090Y233883*
X460849*
X463264Y240158D02*
X463801Y240527D01*
X464607Y241634*
Y233883*
X470512Y241634D02*
X467828D01*
X467559Y238312*
X467828Y238681*
X468633Y239051*
X469438*
X470244Y238681*
X470780Y237943*
X470780D02*
X471049Y236836D01*
X470780Y236098*
X470780D02*
X470512Y234991D01*
X469975Y234252*
X469170Y233883*
X468365*
X467559Y234252*
X467291Y234621*
X467022Y235360*
X381890Y219673D02*
Y211922D01*
Y219673D02*
X385379D01*
X381890Y215982D02*
X384037D01*
X381890Y211922D02*
X385379D01*
X387795Y219673D02*
Y211922D01*
Y219673D02*
X391553Y211922D01*
Y219673D02*
Y211922D01*
X397996Y217827D02*
X397727Y218565D01*
X397190Y219304*
X396654Y219673*
X395580*
X395043Y219304*
X394506Y218565*
X394238Y217827*
X393969Y216720*
Y214875*
X394238Y213767*
X394506Y213029*
X395043Y212291*
X395580Y211922*
X396654*
X397190Y212291*
X397727Y213029*
X397996Y213767*
Y214875*
X396654D02*
X397996D01*
X400412Y219673D02*
Y211922D01*
X402827Y219673D02*
Y211922D01*
Y219673D02*
X406585Y211922D01*
Y219673D02*
Y211922D01*
X409001Y219673D02*
Y211922D01*
Y219673D02*
X412491D01*
X409001Y215982D02*
X411149D01*
X409001Y211922D02*
X412491D01*
X414907Y219673D02*
Y211922D01*
Y219673D02*
X418396D01*
X414907Y215982D02*
X417054D01*
X414907Y211922D02*
X418396D01*
X420812Y219673D02*
Y211922D01*
Y219673D02*
X423228D01*
X424034Y219304*
X424302Y218935*
X424570Y218196*
Y217458*
X424302Y216720*
X424034Y216351*
X423228Y215982*
X420812*
X422691D02*
X424570Y211922D01*
X426986Y219673D02*
Y211922D01*
X429402Y219673D02*
Y211922D01*
Y219673D02*
X433160Y211922D01*
Y219673D02*
Y211922D01*
X439603Y217827D02*
X439334Y218565D01*
X438797Y219304*
X438260Y219673*
X437187*
X436650Y219304*
X436113Y218565*
X435845Y217827*
X435576Y216720*
Y214875*
X435845Y213767*
X436113Y213029*
X436650Y212291*
X437187Y211922*
X438260*
X438797Y212291*
X439334Y213029*
X439603Y213767*
Y214875*
X438260D02*
X439603D01*
X452219Y217827D02*
X451950Y218565D01*
X451414Y219304*
X450877Y219673*
X449803*
X449266Y219304*
X448729Y218565*
X448461Y217827*
X448192Y216720*
Y214875*
X448461Y213767*
X448729Y213029*
X449266Y212291*
X449803Y211922*
X450877*
X451414Y212291*
X451950Y213029*
X452219Y213767*
X456245Y219673D02*
X455708Y219304D01*
X455708D02*
X455172Y218565D01*
X454903Y217827*
X454635Y216720*
Y214875*
X454903Y213767*
X455172Y213029*
X455708Y212291*
X455708D02*
X456245Y211922D01*
X457319*
X457856Y212291*
X458393Y213029*
X458661Y213767*
X458930Y214875*
Y216720*
X458661Y217827*
X458393Y218565*
X457856Y219304*
X457319Y219673*
X456245*
X461346D02*
Y211922D01*
Y219673D02*
X465104Y211922D01*
Y219673D02*
Y211922D01*
X469399Y219673D02*
Y211922D01*
X467519Y219673D02*
X471278D01*
X475841D02*
X473693Y211922D01*
X475841Y219673D02*
X477988Y211922D01*
X474499Y214505D02*
X477183D01*
X484431Y217827D02*
X484162Y218565D01*
X483625Y219304*
X483089Y219673*
X482015*
X481478Y219304*
X480941Y218565*
X480673Y217827*
X480404Y216720*
Y214875*
X480673Y213767*
X480941Y213029*
X481478Y212291*
X482015Y211922*
X483089*
X483625Y212291*
X484162Y213029*
X484431Y213767*
X488726Y219673D02*
Y211922D01*
X486847Y219673D02*
X490605D01*
X499194D02*
Y211922D01*
X501610Y219673D02*
Y211922D01*
Y219673D02*
X505368Y211922D01*
Y219673D02*
Y211922D01*
X507784Y219673D02*
Y211922D01*
Y219673D02*
X511274D01*
X507784Y215982D02*
X509932D01*
X515300Y219673D02*
X514763Y219304D01*
X514227Y218565*
X513958Y217827*
X513690Y216720*
Y214875*
X513958Y213767*
X514227Y213029*
X514763Y212291*
X515300Y211922*
X516374*
X516911Y212291*
X517448Y213029*
X517716Y213767*
X517985Y214875*
Y216720*
X517716Y217827*
X517448Y218565*
X516911Y219304*
X516374Y219673*
X515300*
X520401D02*
Y211922D01*
Y219673D02*
X522816D01*
X523622Y219304*
X523890Y218935*
X524159Y218196*
Y217458*
X523890Y216720*
X523622Y216351*
X522816Y215982*
X520401*
X522280D02*
X524159Y211922D01*
X526574Y219673D02*
Y211922D01*
Y219673D02*
X528722Y211922D01*
X530869Y219673D02*
X528722Y211922D01*
X530869Y219673D02*
Y211922D01*
X535433Y219673D02*
X533285Y211922D01*
X535433Y219673D02*
X537580Y211922D01*
X534091Y214505D02*
X536775D01*
X541875Y219673D02*
Y211922D01*
X539996Y219673D02*
X543754D01*
X546170D02*
Y211922D01*
X550196Y219673D02*
X549660Y219304D01*
X549123Y218565*
X548854Y217827*
X548586Y216720*
Y214875*
X548854Y213767*
X549123Y213029*
X549660Y212291*
X550196Y211922*
X551270*
X551807Y212291*
X552344Y213029*
X552612Y213767*
X552881Y214875*
Y216720*
X552612Y217827*
X552344Y218565*
X551807Y219304*
X551270Y219673*
X550196*
X555297D02*
Y211922D01*
Y219673D02*
X559055Y211922D01*
Y219673D02*
Y211922D01*
X561739Y217089D02*
X561471Y216720D01*
X561739Y216351*
X562007Y216720*
X561739Y217089*
Y212660D02*
X561471Y212291D01*
X561739Y211922*
X562007Y212291*
X561739Y212660*
X381890Y203925D02*
Y196174D01*
Y203925D02*
X384306D01*
X385111Y203556*
X385379Y203187*
X385648Y202448*
Y201341*
X385379Y200603*
X385111Y200234*
X384306Y199865*
X381890*
X391285Y201341D02*
Y196174D01*
Y200234D02*
X390748Y200972D01*
X390211Y201341*
X389406*
X388869Y200972*
X388332Y200234*
X388064Y199126*
Y198388*
X388332Y197281*
X388869Y196543*
X389406Y196174*
X390211*
X390748Y196543*
X391285Y197281*
X393701Y201341D02*
Y197650D01*
X393969Y196543*
X394506Y196174*
X395311*
X395848Y196543*
X396654Y197650*
Y201341D02*
Y196174D01*
X399069Y203925D02*
Y196174D01*
X407659Y203925D02*
Y196174D01*
Y203925D02*
X410075D01*
X410880Y203556*
X411149Y203187*
X411417Y202448*
Y201710*
X411149Y200972*
X410880Y200603*
X410075Y200234*
X407659D02*
X410075D01*
X410880Y199865*
X411149Y199496*
X411417Y198757*
Y197650*
X411149Y196912*
X410880Y196543*
X410075Y196174*
X407659*
X415175Y201341D02*
X414638Y200972D01*
X414102Y200234*
X413833Y199126*
Y198388*
X414102Y197281*
X414638Y196543*
X415175Y196174*
X415981*
X416517Y196543*
X417054Y197281*
X417323Y198388*
Y199126*
X417054Y200234*
X416517Y200972*
X415981Y201341*
X415175*
X419739Y203925D02*
Y196174D01*
Y199865D02*
X420544Y200972D01*
X421081Y201341*
X421886*
X422423Y200972*
X422691Y199865*
Y196174*
X425107Y201341D02*
Y196174D01*
Y199865D02*
X425913Y200972D01*
X426449Y201341*
X427255*
X427792Y200972*
X428060Y199865*
Y196174*
X431013Y196543D02*
X430744Y196174D01*
X430476Y196543*
X430744Y196912*
X431013Y196543*
Y195805*
X430744Y195066*
X430476Y194697*
X439603Y203925D02*
Y196174D01*
Y203925D02*
X442018D01*
X442824Y203556*
X443092Y203187*
X443361Y202448*
Y201341*
X443092Y200603*
X442824Y200234*
X442018Y199865*
X439603*
X445777Y201341D02*
Y196174D01*
Y199126D02*
X446045Y200234D01*
X446582Y200972*
X447119Y201341*
X447924*
X451682D02*
X451145Y200972D01*
X450608Y200234*
X450340Y199126*
Y198388*
X450608Y197281*
X451145Y196543*
X451682Y196174*
X452487*
X453024Y196543*
X453561Y197281*
X453829Y198388*
Y199126*
X453561Y200234*
X453024Y200972*
X452487Y201341*
X451682*
X459467Y203925D02*
Y196174D01*
Y200234D02*
X458930Y200972D01*
X458393Y201341*
X457588*
X457051Y200972*
X456514Y200234*
X456245Y199126*
Y198388*
X456514Y197281*
X457051Y196543*
X457588Y196174*
X458393*
X458930Y196543*
X459467Y197281*
X461882Y201341D02*
Y197650D01*
X462151Y196543*
X462688Y196174*
X463493*
X464030Y196543*
X464835Y197650*
Y201341D02*
Y196174D01*
X470472Y200234D02*
X469935Y200972D01*
X469399Y201341*
X468593*
X468056Y200972*
X467519Y200234*
X467251Y199126*
Y198388*
X467519Y197281*
X468056Y196543*
X468593Y196174*
X469399*
X469935Y196543*
X470472Y197281*
X473693Y203925D02*
Y197650D01*
X473962Y196543*
X474499Y196174*
X475036*
X472888Y201341D02*
X474767D01*
X477451Y203925D02*
X477720Y203556D01*
X477988Y203925*
X477720Y204294*
X477451Y203925*
X477720Y201341D02*
Y196174D01*
X481746Y201341D02*
X481210Y200972D01*
X480673Y200234*
X480404Y199126*
Y198388*
X480673Y197281*
X481210Y196543*
X481746Y196174*
X482552*
X483089Y196543*
X483625Y197281*
X483894Y198388*
Y199126*
X483625Y200234*
X483089Y200972*
X482552Y201341*
X481746*
X486310D02*
Y196174D01*
Y199865D02*
X487115Y200972D01*
X487652Y201341*
X488457*
X488994Y200972*
X489262Y199865*
Y196174*
X497852Y203925D02*
Y196174D01*
Y203925D02*
X501342D01*
X497852Y200234D02*
X500000D01*
X497852Y196174D02*
X501342D01*
X503758Y201341D02*
Y196174D01*
Y199865D02*
X504563Y200972D01*
X505100Y201341*
X505905*
X506442Y200972*
X506711Y199865*
Y196174*
X512348Y201341D02*
Y195436D01*
X512079Y194328*
X511811Y193959*
X511274Y193590*
X510469*
X509932Y193959*
X512348Y200234D02*
X511811Y200972D01*
X511274Y201341*
X510469*
X509932Y200972*
X509395Y200234*
X509126Y199126*
Y198388*
X509395Y197281*
X509932Y196543*
X510469Y196174*
X511274*
X511811Y196543*
X512348Y197281*
X514763Y203925D02*
X515032Y203556D01*
X515300Y203925*
X515032Y204294*
X514763Y203925*
X515032Y201341D02*
Y196174D01*
X517716Y201341D02*
Y196174D01*
Y199865D02*
X518522Y200972D01*
X519058Y201341*
X519864*
X520401Y200972*
X520669Y199865*
Y196174*
X523085Y199126D02*
X526306D01*
Y199865*
X526038Y200603*
X525769Y200972*
X525232Y201341*
X524427*
X523890Y200972*
X523353Y200234*
X523085Y199126*
Y198388*
X523353Y197281*
X523890Y196543*
X524427Y196174*
X525232*
X525769Y196543*
X526306Y197281*
X528722Y199126D02*
X531943D01*
Y199865*
X531675Y200603*
X531406Y200972*
X530869Y201341*
X530064*
X529527Y200972*
X528990Y200234*
X528722Y199126*
Y198388*
X528990Y197281*
X529527Y196543*
X530064Y196174*
X530869*
X531406Y196543*
X531943Y197281*
X534359Y201341D02*
Y196174D01*
Y199126D02*
X534627Y200234D01*
X535164Y200972*
X535701Y201341*
X536506*
X383500Y192114D02*
X382963Y191745D01*
X382427Y191006*
X382158Y190268*
X381890Y189161*
Y187315*
X382158Y186208*
X382427Y185470*
X382963Y184732*
X383500Y184363*
X384574*
X385111Y184732*
X385648Y185470*
X385916Y186208*
X386185Y187315*
Y189161*
X385916Y190268*
X385648Y191006*
X385111Y191745*
X384574Y192114*
X383500*
X390748D02*
X390211D01*
X389674Y191745*
X389406Y190637*
Y184363*
X388601Y189530D02*
X390480D01*
X395311Y192114D02*
X394774D01*
X394238Y191745*
X393969Y190637*
Y184363*
X393164Y189530D02*
X395043D01*
X397727Y192114D02*
X397996Y191745D01*
X398264Y192114*
X397996Y192483*
X397727Y192114*
X397996Y189530D02*
Y184363D01*
X403901Y188423D02*
X403364Y189161D01*
X402827Y189530*
X402022*
X401485Y189161*
X400948Y188423*
X400680Y187315*
Y186577*
X400948Y185470*
X401485Y184732*
X402022Y184363*
X402827*
X403364Y184732*
X403901Y185470*
X406317Y187315D02*
X409538D01*
Y188054*
X409270Y188792*
X409001Y189161*
X408465Y189530*
X407659*
X407122Y189161*
X406585Y188423*
X406317Y187315*
Y186577*
X406585Y185470*
X407122Y184732*
X407659Y184363*
X408465*
X409001Y184732*
X409538Y185470*
X412223Y189530D02*
X411954Y189161D01*
X412223Y188792*
X412491Y189161*
X412223Y189530*
Y185101D02*
X411954Y184732D01*
X412223Y184363*
X412491Y184732*
X412223Y185101*
X422960Y193590D02*
X422423Y192852D01*
X421886Y191745*
X421349Y190268*
X421081Y188423*
Y186946*
X421349Y185101*
X421886Y183625*
X422423Y182517*
X422960Y181779*
X428597Y191006D02*
X428328Y191745D01*
X427523Y192114*
X426986*
X426181Y191745*
X425644Y190637*
X425376Y188792*
Y186946*
X425644Y185470*
X426181Y184732*
X426986Y184363*
X427255*
X428060Y184732*
X428597Y185470*
X428865Y186577*
Y186946*
X428597Y188054*
X428060Y188792*
X427255Y189161*
X426986*
X426181Y188792*
X425644Y188054*
X425376Y186946*
X431281Y190637D02*
X431818Y191006D01*
X432623Y192114*
Y184363*
X438797Y192114D02*
X436113Y184363D01*
X435039Y192114D02*
X438797D01*
X441213Y193590D02*
X441750Y192852D01*
X442287Y191745*
X442824Y190268*
X443092Y188423*
Y186946*
X442824Y185101*
X442287Y183625*
X441750Y182517*
X441213Y181779*
X452219Y192114D02*
X455172D01*
X453561Y189161*
X454366*
X454903Y188792*
X455172Y188423*
X455440Y187315*
Y186577*
X455172Y185470*
X454635Y184732*
X453829Y184363*
X453024*
X452219Y184732*
X451950Y185101*
X451682Y185839*
X461346Y192114D02*
X458661D01*
X458393Y188792*
X458661Y189161*
X459467Y189530*
X460272*
X461077Y189161*
X461614Y188423*
X461882Y187315*
X461614Y186577*
X461346Y185470*
X460809Y184732*
X460003Y184363*
X459198*
X458393Y184732*
X458124Y185101*
X457856Y185839*
X464835Y192114D02*
X467788D01*
X466177Y189161*
X466983*
X467519Y188792*
X467788Y188423*
X468056Y187315*
Y186577*
X467788Y185470*
X467251Y184732*
X466446Y184363*
X465640*
X464835Y184732*
X464567Y185101*
X464298Y185839*
X470472Y187685D02*
X475304D01*
X480941Y191006D02*
X480673Y191745D01*
X479867Y192114*
X479330*
X478525Y191745*
X477988Y190637*
X477720Y188792*
Y186946*
X477988Y185470*
X478525Y184732*
X479330Y184363*
X479599*
X480404Y184732*
X480941Y185470*
X481210Y186577*
Y186946*
X480941Y188054*
X480404Y188792*
X479599Y189161*
X479330*
X478525Y188792*
X477988Y188054*
X477720Y186946*
X485236Y192114D02*
X484431Y191745D01*
X483894Y190637*
X483625Y188792*
Y187685*
X483894Y185839*
X484431Y184732*
X485236Y184363*
X485773*
X486578Y184732*
X487115Y185839*
X487383Y187685*
Y188792*
X487115Y190637*
X486578Y191745*
X485773Y192114*
X485236*
X493289D02*
X490605D01*
X490336Y188792*
X490605Y189161*
X491410Y189530*
X492215*
X493021Y189161*
X493557Y188423*
X493826Y187315*
X493557Y186577*
X493289Y185470*
X492752Y184732*
X491947Y184363*
X491141*
X490336Y184732*
X490068Y185101*
X489799Y185839*
X500000Y192114D02*
X497315Y184363D01*
X496242Y192114D02*
X500000D01*
X384037Y178334D02*
X383500D01*
X382963Y177965*
X382695Y176858*
Y170583*
X381890Y175750D02*
X383769D01*
X389674D02*
Y170583D01*
Y174643D02*
X389137Y175381D01*
X388601Y175750*
X387795*
X387258Y175381*
X386722Y174643*
X386453Y173536*
Y172798*
X386722Y171690*
X387258Y170952*
X387795Y170583*
X388601*
X389137Y170952*
X389674Y171690*
X392090Y175750D02*
X395043Y170583D01*
Y175750D02*
X392090Y170583D01*
X397727Y175750D02*
X397459Y175381D01*
X397727Y175012*
X397996Y175381*
X397727Y175750*
Y171321D02*
X397459Y170952D01*
X397727Y170583*
X397996Y170952*
X397727Y171321*
X408465Y179811D02*
X407928Y179072D01*
X407391Y177965*
X406854Y176489*
X406585Y174643*
Y173167*
X406854Y171321*
X407391Y169845*
X407928Y168738*
X408465Y168000*
X414102Y177227D02*
X413833Y177965D01*
X413028Y178334*
X412491*
X411686Y177965*
X411149Y176858*
X410880Y175012*
Y173167*
X411149Y171690*
X411686Y170952*
X412491Y170583*
X412759*
X413565Y170952*
X414102Y171690*
X414370Y172798*
Y173167*
X414102Y174274*
X413565Y175012*
X412759Y175381*
X412491*
X411686Y175012*
X411149Y174274*
X410880Y173167*
X416786Y176858D02*
X417323Y177227D01*
X418128Y178334*
Y170583*
X424302Y178334D02*
X421618Y170583D01*
X420544Y178334D02*
X424302D01*
X426718Y179811D02*
X427255Y179072D01*
X427792Y177965*
X428328Y176489*
X428597Y174643*
Y173167*
X428328Y171321*
X427792Y169845*
X427255Y168738*
X426718Y168000*
X437724Y178334D02*
X440676D01*
X439066Y175381*
X439871*
X440408Y175012*
X440676Y174643*
X440945Y173536*
Y172798*
X440676Y171690*
X440139Y170952*
X439334Y170583*
X438529*
X437724Y170952*
X437455Y171321*
X437187Y172060*
X446850Y178334D02*
X444166D01*
X443898Y175012*
X443898D02*
X444166Y175381D01*
X444971Y175750*
X445777*
X446582Y175381*
X447119Y174643*
X447387Y173536*
X447119Y172798*
X446850Y171690*
X446313Y170952*
X445508Y170583*
X444703*
X443898Y170952*
X443898D02*
X443629Y171321D01*
X443361Y172060*
X450340Y178334D02*
X453293D01*
X451682Y175381*
X452487*
X453024Y175012*
X453293Y174643*
X453561Y173536*
Y172798*
X453293Y171690*
X452756Y170952*
X451950Y170583*
X451145*
X450340Y170952*
X450071Y171321*
X449803Y172060*
X455977Y173905D02*
X460809D01*
X463761Y178334D02*
X466714D01*
X465104Y175381*
X465909*
X466446Y175012*
X466714Y174643*
X466983Y173536*
Y172798*
X466714Y171690*
X466177Y170952*
X465372Y170583*
X464567*
X463761Y170952*
X463493Y171321*
X463225Y172060*
X469935Y178334D02*
X472888D01*
X471278Y175381*
X472083*
X472620Y175012*
X472888Y174643*
X473157Y173536*
Y172798*
X472888Y171690*
X472351Y170952*
X471546Y170583*
X470741*
X469935Y170952*
X469667Y171321*
X469399Y172060*
X476109Y178334D02*
X479062D01*
X477451Y175381*
X478257*
X478794Y175012*
X479062Y174643*
X479330Y173536*
Y172798*
X479062Y171690*
X478525Y170952*
X477720Y170583*
X476915*
X476109Y170952*
X475841Y171321*
X475572Y172060*
X481746Y176858D02*
X482283Y177227D01*
X483089Y178334*
Y170583*
X381890Y163939D02*
Y156188D01*
Y162832D02*
X382427Y163570D01*
X382963Y163939*
X383769*
X384306Y163570*
X384843Y162832*
X385111Y161725*
Y160987*
X384843Y159879*
X384306Y159141*
X383769Y158772*
X382963*
X382427Y159141*
X381890Y159879*
X387527Y166523D02*
Y158772D01*
Y162832D02*
X388064Y163570D01*
X388601Y163939*
X389406*
X389943Y163570*
X390480Y162832*
X390748Y161725*
Y160987*
X390480Y159879*
X389943Y159141*
X389406Y158772*
X388601*
X388064Y159141*
X387527Y159879*
X394506Y163939D02*
X393969Y163570D01*
X393432Y162832*
X393164Y161725*
Y160987*
X393432Y159879*
X393969Y159141*
X394506Y158772*
X395311*
X395848Y159141*
X396385Y159879*
X396654Y160987*
Y161725*
X396385Y162832*
X395848Y163570*
X395311Y163939*
X394506*
X399069Y166523D02*
Y158772D01*
Y162463D02*
X399875Y163570D01*
X400412Y163939*
X401217*
X401754Y163570*
X402022Y162463*
Y158772*
X404438Y163939D02*
Y158772D01*
Y162463D02*
X405243Y163570D01*
X405780Y163939*
X406585*
X407122Y163570*
X407391Y162463*
Y158772*
X413296Y159141D02*
X412223D01*
X410880Y159510*
X410344Y160249*
X409807Y161725*
Y163570*
X410344Y165416*
X410880Y166154*
X413296*
X414102Y165416*
X414638Y164309*
X414907Y162463*
X414638Y160987*
X414370Y160618*
X413296Y160249D02*
X413028Y160618D01*
Y164309*
Y163570D02*
X412491Y163939D01*
X411954*
X411417Y163570*
X411149Y162832*
Y162094*
X411417Y161356*
X411954Y160987*
X412491*
X413028Y161356*
X413296Y160249D02*
X414102D01*
X414370Y160618*
X417323Y166523D02*
Y158772D01*
Y162832D02*
X417860Y163570D01*
X418396Y163939*
X419202*
X419739Y163570*
X420276Y162832*
X420544Y161725*
Y160987*
X420276Y159879*
X419739Y159141*
X419202Y158772*
X418396*
X417860Y159141*
X417323Y159879*
X422960Y163939D02*
Y160249D01*
X423228Y159141*
X423765Y158772*
X424570*
X425107Y159141*
X425913Y160249*
Y163939D02*
Y158772D01*
X428597Y159510D02*
X428328Y159141D01*
X428597Y158772*
X428865Y159141*
X428597Y159510*
X431281Y161725D02*
X434502D01*
Y162463*
X434234Y163201*
X433966Y163570*
X433429Y163939*
X432623*
X432087Y163570*
X431550Y162832*
X431281Y161725*
Y160987*
X431550Y159879*
X432087Y159141*
X432623Y158772*
X433429*
X433966Y159141*
X434502Y159879*
X440139Y166523D02*
Y158772D01*
Y162832D02*
X439603Y163570D01*
X439066Y163939*
X438260*
X437724Y163570*
X437187Y162832*
X436918Y161725*
Y160987*
X437187Y159879*
X437724Y159141*
X438260Y158772*
X439066*
X439603Y159141*
X440139Y159879*
X442555Y163939D02*
Y160249D01*
X442824Y159141*
X443361Y158772*
X444166*
X444703Y159141*
X445508Y160249*
Y163939D02*
Y158772D01*
X645235Y294134D02*
Y286383D01*
Y294134D02*
X648724D01*
X645235Y290443D02*
X647382D01*
X653288Y294134D02*
X651140Y286383D01*
X653288Y294134D02*
X655435Y286383D01*
X651946Y288967D02*
X654630D01*
X657851Y294134D02*
Y286383D01*
Y294134D02*
X660267D01*
X661072Y293765*
X661341Y293396*
X661609Y292658*
Y291920*
X661341Y291181*
X661072Y290812*
X660267Y290443*
X657851D02*
X660267D01*
X661072Y290074*
X661341Y289705*
X661609Y288967*
Y287860*
X661341Y287121*
X661072Y286752*
X660267Y286383*
X657851*
X664025Y294134D02*
Y286383D01*
Y294134D02*
X666441D01*
X667246Y293765*
X667515Y293396*
X667783Y292658*
Y291920*
X667515Y291181*
X667246Y290812*
X666441Y290443*
X664025*
X665904D02*
X667783Y286383D01*
X670199Y294134D02*
Y286383D01*
X676641Y292289D02*
X676373Y293027D01*
X675836Y293765*
X675299Y294134*
X674226*
X673689Y293765*
X673152Y293027*
X672883Y292289*
X672615Y291181*
Y289336*
X672883Y288229*
X673152Y287491*
X673689Y286752*
X674226Y286383*
X675299*
X675836Y286752*
X676373Y287491*
X676641Y288229*
X681205Y294134D02*
X679057Y286383D01*
X681205Y294134D02*
X683352Y286383D01*
X679863Y288967D02*
X682547D01*
X687647Y294134D02*
Y286383D01*
X685768Y294134D02*
X689526D01*
X691942D02*
Y286383D01*
X695968Y294134D02*
X695432Y293765D01*
X694895Y293027*
X694626Y292289*
X694358Y291181*
Y289336*
X694626Y288229*
X694895Y287491*
X695432Y286752*
X695968Y286383*
X697042*
X697579Y286752*
X698116Y287491*
X698384Y288229*
X698653Y289336*
Y291181*
X698384Y292289*
X698116Y293027*
X697579Y293765*
X697042Y294134*
X695968*
X701069D02*
Y286383D01*
Y294134D02*
X704827Y286383D01*
Y294134D02*
Y286383D01*
X713417Y294134D02*
Y286383D01*
X715832Y294134D02*
Y286383D01*
Y294134D02*
X719590Y286383D01*
Y294134D02*
Y286383D01*
X722006Y294134D02*
Y286383D01*
Y294134D02*
X725496D01*
X722006Y290443D02*
X724154D01*
X729522Y294134D02*
X728986Y293765D01*
X728449Y293027*
X728180Y292289*
X727912Y291181*
Y289336*
X728180Y288229*
X728449Y287491*
X728986Y286752*
X729522Y286383*
X730596*
X731133Y286752*
X731670Y287491*
X731938Y288229*
X732207Y289336*
Y291181*
X731938Y292289*
X731670Y293027*
X731133Y293765*
X730596Y294134*
X729522*
X734623D02*
Y286383D01*
Y294134D02*
X737039D01*
X737844Y293765*
X738112Y293396*
X738381Y292658*
Y291920*
X738112Y291181*
X737844Y290812*
X737039Y290443*
X734623*
X736502D02*
X738381Y286383D01*
X740797Y294134D02*
Y286383D01*
Y294134D02*
X742944Y286383D01*
X745091Y294134D02*
X742944Y286383D01*
X745091Y294134D02*
Y286383D01*
X749655Y294134D02*
X747507Y286383D01*
X749655Y294134D02*
X751802Y286383D01*
X748313Y288967D02*
X750997D01*
X756097Y294134D02*
Y286383D01*
X754218Y294134D02*
X757976D01*
X760392D02*
Y286383D01*
X764419Y294134D02*
X763882Y293765D01*
X763345Y293027*
X763076Y292289*
X762808Y291181*
Y289336*
X763076Y288229*
X763345Y287491*
X763882Y286752*
X764419Y286383*
X765492*
X766029Y286752*
X766566Y287491*
X766834Y288229*
X767103Y289336*
Y291181*
X766834Y292289*
X766566Y293027*
X766029Y293765*
X765492Y294134*
X764419*
X769519D02*
Y286383D01*
Y294134D02*
X773277Y286383D01*
Y294134D02*
Y286383D01*
X775961Y291551D02*
X775693Y291181D01*
X775961Y290812*
X776230Y291181*
X775961Y291551*
Y287121D02*
X775693Y286752D01*
X775961Y286383*
X776230Y286752*
X775961Y287121*
X645669Y160618D02*
Y152867D01*
Y160618D02*
X647817Y152867D01*
X649964Y160618D02*
X647817Y152867D01*
X649964Y160618D02*
Y152867D01*
X652380Y160618D02*
X652649Y160249D01*
X652917Y160618*
X652649Y160987*
X652380Y160618*
X652649Y158034D02*
Y152867D01*
X655333Y158034D02*
Y152867D01*
Y156558D02*
X656138Y157665D01*
X656675Y158034*
X657480*
X658017Y157665*
X658286Y156558*
Y152867*
X660701Y160618D02*
X660970Y160249D01*
X661238Y160618*
X660970Y160987*
X660701Y160618*
X660970Y158034D02*
Y152867D01*
X663654Y158034D02*
Y152867D01*
Y156558D02*
X664460Y157665D01*
X664996Y158034*
X665802*
X666339Y157665*
X666607Y156558*
Y152867*
Y156558D02*
X667412Y157665D01*
X667949Y158034*
X668754*
X669291Y157665*
X669560Y156558*
Y152867*
X671976Y158034D02*
Y154343D01*
X672244Y153236*
X672781Y152867*
X673586*
X674123Y153236*
X674928Y154343*
Y158034D02*
Y152867D01*
X677344Y158034D02*
Y152867D01*
Y156558D02*
X678150Y157665D01*
X678686Y158034*
X679492*
X680029Y157665*
X680297Y156558*
Y152867*
Y156558D02*
X681102Y157665D01*
X681639Y158034*
X682444*
X682981Y157665*
X683250Y156558*
Y152867*
X691840Y160618D02*
Y152867D01*
Y160618D02*
X693719D01*
X694524Y160249*
X695061Y159510*
X695329Y158772*
X695598Y157665*
Y155819*
X695329Y154712*
X695061Y153974*
X694524Y153236*
X693719Y152867*
X691840*
X698013Y155819D02*
X701235D01*
Y156558*
X700966Y157296*
X700698Y157665*
X700161Y158034*
X699356*
X698819Y157665*
X698282Y156927*
X698013Y155819*
Y155081*
X698282Y153974*
X698819Y153236*
X699356Y152867*
X700161*
X700698Y153236*
X701235Y153974*
X706603Y156927D02*
X706335Y157665D01*
X705530Y158034*
X704724*
X703919Y157665*
X703651Y156927*
X703919Y156188*
X704456Y155819*
X705798Y155450*
X706335Y155081*
X706603Y154343*
Y153974*
X706335Y153236*
X705530Y152867*
X704724*
X703919Y153236*
X703651Y153974*
X709019Y160618D02*
X709288Y160249D01*
X709556Y160618*
X709288Y160987*
X709019Y160618*
X709288Y158034D02*
Y152867D01*
X715193Y158034D02*
Y152128D01*
X714925Y151021*
X714656Y150652*
X714119Y150283*
X713314*
X712777Y150652*
X715193Y156927D02*
X714656Y157665D01*
X714119Y158034*
X713314*
X712777Y157665*
X712240Y156927*
X711972Y155819*
Y155081*
X712240Y153974*
X712777Y153236*
X713314Y152867*
X714119*
X714656Y153236*
X715193Y153974*
X717609Y158034D02*
Y152867D01*
Y156558D02*
X718414Y157665D01*
X718951Y158034*
X719756*
X720293Y157665*
X720562Y156558*
Y152867*
X729152Y160618D02*
Y152867D01*
X732373*
X734789Y160618D02*
X735057Y160249D01*
X735325Y160618*
X735325D02*
X735057Y160987D01*
X734789Y160618*
X735057Y158034D02*
Y152867D01*
X737741Y158034D02*
Y152867D01*
Y156558D02*
X738547Y157665D01*
X739084Y158034*
X739889*
X740426Y157665*
X740694Y156558*
Y152867*
X743110Y155819D02*
X746331D01*
Y156558*
X746063Y157296*
X745794Y157665*
X745257Y158034*
X744452*
X743915Y157665*
X743378Y156927*
X743110Y155819*
Y155081*
X743378Y153974*
X743915Y153236*
X744452Y152867*
X745257*
X745794Y153236*
X746331Y153974*
X754921Y160618D02*
X756263Y152867D01*
X757605Y160618D02*
X756263Y152867D01*
X757605Y160618D02*
X758947Y152867D01*
X760290Y160618D02*
X758947Y152867D01*
X762706Y160618D02*
X762974Y160249D01*
X763242Y160618*
X762974Y160987*
X762706Y160618*
X762974Y158034D02*
Y152867D01*
X768879Y160618D02*
Y152867D01*
Y156927D02*
X768343Y157665D01*
X767806Y158034*
X767000*
X766464Y157665*
X765927Y156927*
X765658Y155819*
Y155081*
X765927Y153974*
X766464Y153236*
X767000Y152867*
X767806*
X768343Y153236*
X768879Y153974*
X772101Y160618D02*
Y154343D01*
X772369Y153236*
X772906Y152867*
X773443*
X771295Y158034D02*
X773174D01*
X775859Y160618D02*
Y152867D01*
Y156558D02*
X776664Y157665D01*
X777201Y158034*
X778006*
X778543Y157665*
X778811Y156558*
Y152867*
X781496Y158034D02*
X781227Y157665D01*
X781496Y157296*
X781764Y157665*
X781496Y158034*
Y153605D02*
X781227Y153236D01*
X781496Y152867*
X781764Y153236*
X781496Y153605*
X793844Y160618D02*
X791159D01*
X790891Y157296*
X791159Y157665*
X791965Y158034*
X792770*
X793575Y157665*
X794112Y156927*
X794380Y155819*
X794112Y155081*
X793844Y153974*
X793307Y153236*
X792501Y152867*
X791696*
X790891Y153236*
X790622Y153605*
X790354Y154343*
X802970Y158034D02*
Y152867D01*
Y156558D02*
X803776Y157665D01*
X804312Y158034*
X805118*
X805655Y157665*
X805923Y156558*
Y152867*
Y156558D02*
X806728Y157665D01*
X807265Y158034*
X808071*
X808607Y157665*
X808876Y156558*
Y152867*
X811292Y160618D02*
X811560Y160249D01*
X811829Y160618*
X811560Y160987*
X811292Y160618*
X811560Y158034D02*
Y152867D01*
X814244Y160618D02*
Y152867D01*
X819613Y156927D02*
X819345Y157665D01*
X818539Y158034*
X817734*
X816929Y157665*
X816660Y156927*
X816929Y156188*
X817466Y155819*
X818808Y155450*
X819345Y155081*
X819613Y154343*
Y153974*
X819345Y153236*
X818539Y152867*
X817734*
X816929Y153236*
X816660Y153974*
X645669Y148807D02*
Y141056D01*
Y148807D02*
X647817Y141056D01*
X649964Y148807D02*
X647817Y141056D01*
X649964Y148807D02*
Y141056D01*
X652380Y148807D02*
X652649Y148437D01*
X652917Y148807*
X652649Y149176*
X652380Y148807*
X652649Y146223D02*
Y141056D01*
X655333Y146223D02*
Y141056D01*
Y144747D02*
X656138Y145854D01*
X656675Y146223*
X657480*
X658017Y145854*
X658286Y144747*
Y141056*
X660701Y148807D02*
X660970Y148437D01*
X661238Y148807*
X660970Y149176*
X660701Y148807*
X660970Y146223D02*
Y141056D01*
X663654Y146223D02*
Y141056D01*
Y144747D02*
X664460Y145854D01*
X664996Y146223*
X665802*
X666339Y145854*
X666607Y144747*
Y141056*
Y144747D02*
X667412Y145854D01*
X667949Y146223*
X668754*
X669291Y145854*
X669560Y144747*
Y141056*
X671976Y146223D02*
Y142532D01*
X672244Y141425*
X672781Y141056*
X673586*
X674123Y141425*
X674928Y142532*
Y146223D02*
Y141056D01*
X677344Y146223D02*
Y141056D01*
Y144747D02*
X678150Y145854D01*
X678686Y146223*
X679492*
X680029Y145854*
X680297Y144747*
Y141056*
Y144747D02*
X681102Y145854D01*
X681639Y146223*
X682444*
X682981Y145854*
X683250Y144747*
Y141056*
X691840Y148807D02*
Y141056D01*
Y148807D02*
X693719D01*
X694524Y148437*
X695061Y147699*
X695329Y146961*
X695598Y145854*
Y144008*
X695329Y142901*
X695061Y142163*
X694524Y141425*
X693719Y141056*
X691840*
X698013Y144008D02*
X701235D01*
Y144747*
X700966Y145485*
X700698Y145854*
X700161Y146223*
X699356*
X698819Y145854*
X698282Y145116*
X698013Y144008*
Y143270*
X698282Y142163*
X698819Y141425*
X699356Y141056*
X700161*
X700698Y141425*
X701235Y142163*
X706603Y145116D02*
X706335Y145854D01*
X705530Y146223*
X704724*
X703919Y145854*
X703651Y145116*
X703919Y144377*
X704456Y144008*
X705798Y143639*
X706335Y143270*
X706603Y142532*
Y142163*
X706335Y141425*
X705530Y141056*
X704724*
X703919Y141425*
X703651Y142163*
X709019Y148807D02*
X709288Y148437D01*
X709556Y148807*
X709288Y149176*
X709019Y148807*
X709288Y146223D02*
Y141056D01*
X715193Y146223D02*
Y140317D01*
X714925Y139210*
X714656Y138841*
X714119Y138472*
X713314*
X712777Y138841*
X715193Y145116D02*
X714656Y145854D01*
X714119Y146223*
X713314*
X712777Y145854*
X712240Y145116*
X711972Y144008*
Y143270*
X712240Y142163*
X712777Y141425*
X713314Y141056*
X714119*
X714656Y141425*
X715193Y142163*
X717609Y146223D02*
Y141056D01*
Y144747D02*
X718414Y145854D01*
X718951Y146223*
X719756*
X720293Y145854*
X720562Y144747*
Y141056*
X732910Y147699D02*
X732373Y148437D01*
X731567Y148807*
X730494*
X729688Y148437*
X729152Y147699*
Y146961*
X729420Y146223*
X729688Y145854*
X730225Y145485*
X731836Y144747*
X732373Y144377*
X732641Y144008*
X732910Y143270*
Y142163*
X732373Y141425*
X731567Y141056*
X730494*
X729688Y141425*
X729152Y142163*
X735325Y146223D02*
Y138472D01*
Y145116D02*
X735862Y145854D01*
X736399Y146223*
X737205*
X737741Y145854*
X738278Y145116*
X738547Y144008*
Y143270*
X738278Y142163*
X737741Y141425*
X737205Y141056*
X736399*
X735862Y141425*
X735325Y142163*
X744184Y146223D02*
Y141056D01*
Y145116D02*
X743647Y145854D01*
X743110Y146223*
X742305*
X741768Y145854*
X741231Y145116*
X740963Y144008*
Y143270*
X741231Y142163*
X741768Y141425*
X742305Y141056*
X743110*
X743647Y141425*
X744184Y142163*
X749821Y145116D02*
X749284Y145854D01*
X748747Y146223*
X747942*
X747405Y145854*
X746868Y145116*
X746600Y144008*
Y143270*
X746868Y142163*
X747405Y141425*
X747942Y141056*
X748747*
X749284Y141425*
X749821Y142163*
X752237Y148807D02*
X752505Y148437D01*
X752774Y148807*
X752505Y149176*
X752237Y148807*
X752505Y146223D02*
Y141056D01*
X755189Y146223D02*
Y141056D01*
Y144747D02*
X755995Y145854D01*
X756532Y146223*
X757337*
X757874Y145854*
X758142Y144747*
Y141056*
X763779Y146223D02*
Y140317D01*
X763511Y139210*
X763242Y138841*
X762706Y138472*
X761900*
X761363Y138841*
X763779Y145116D02*
X763242Y145854D01*
X762706Y146223*
X761900*
X761363Y145854*
X760827Y145116*
X760558Y144008*
Y143270*
X760827Y142163*
X761363Y141425*
X761900Y141056*
X762706*
X763242Y141425*
X763779Y142163*
X766464Y146223D02*
X766195Y145854D01*
X766464Y145485*
X766732Y145854*
X766464Y146223*
Y141794D02*
X766195Y141425D01*
X766464Y141056*
X766732Y141425*
X766464Y141794*
X778811Y148807D02*
X776127D01*
X775859Y145485*
X776127Y145854*
X776932Y146223*
X777738*
X778543Y145854*
X779080Y145116*
X779348Y144008*
X779080Y143270*
X778811Y142163*
X778275Y141425*
X777469Y141056*
X776664*
X775859Y141425*
X775590Y141794*
X775322Y142532*
X787938Y146223D02*
Y141056D01*
Y144747D02*
X788743Y145854D01*
X789280Y146223*
X790086*
X790622Y145854*
X790891Y144747*
Y141056*
Y144747D02*
X791696Y145854D01*
X792233Y146223*
X793038*
X793575Y145854*
X793844Y144747*
Y141056*
X796260Y148807D02*
X796528Y148437D01*
X796796Y148807*
X796528Y149176*
X796260Y148807*
X796528Y146223D02*
Y141056D01*
X799212Y148807D02*
Y141056D01*
X804581Y145116D02*
X804312Y145854D01*
X803507Y146223*
X802702*
X801897Y145854*
X801628Y145116*
X801897Y144377*
X802433Y144008*
X803776Y143639*
X804312Y143270*
X804581Y142532*
Y142163*
X804312Y141425*
X803507Y141056*
X802702*
X801897Y141425*
X801628Y142163*
G54D24*
X645235Y279134D02*
Y271383D01*
Y279134D02*
X648724D01*
X645235Y275443D02*
X647382D01*
X651140Y279134D02*
Y271383D01*
X653556Y274336D02*
X656777D01*
Y275074*
X656509Y275812*
X656241Y276181*
X655704Y276551*
X654898*
X654362Y276181*
X653825Y275443*
X653556Y274336*
Y273598*
X653825Y272491*
X654362Y271752*
X654898Y271383*
X655704*
X656241Y271752*
X656777Y272491*
X659193Y276551D02*
X662146Y271383D01*
Y276551D02*
X659193Y271383D01*
X670736Y279134D02*
Y271383D01*
Y279134D02*
X673152D01*
X673957Y278765*
X674225Y278396*
X674494Y277658*
Y276551*
X674225Y275812*
X673957Y275443*
X673152Y275074*
X670736*
X676910Y276551D02*
Y271383D01*
Y274336D02*
X677178Y275443D01*
X677715Y276181*
X678252Y276551*
X679057*
X681473Y279134D02*
X681742Y278765D01*
X682010Y279134*
X681742Y279503*
X681473Y279134*
X681742Y276551D02*
Y271383D01*
X684426Y276551D02*
Y271383D01*
Y275074D02*
X685231Y276181D01*
X685768Y276551*
X686573*
X687110Y276181*
X687379Y275074*
Y271383*
X690600Y279134D02*
Y272860D01*
X690868Y271752*
X691405Y271383*
X691942*
X689794Y276551D02*
X691674D01*
X694358Y274336D02*
X697579D01*
Y275074*
X697311Y275812*
X697042Y276181*
X696505Y276551*
X695700*
X695163Y276181*
X694626Y275443*
X694358Y274336*
Y273598*
X694626Y272491*
X695163Y271752*
X695700Y271383*
X696505*
X697042Y271752*
X697579Y272491*
X703216Y279134D02*
Y271383D01*
Y275443D02*
X702679Y276181D01*
X702142Y276551*
X701337*
X700800Y276181*
X700263Y275443*
X699995Y274336*
Y273598*
X700263Y272491*
X700800Y271752*
X701337Y271383*
X702142*
X702679Y271752*
X703216Y272491*
X715832Y277289D02*
X715564Y278027D01*
X715027Y278765*
X714490Y279134*
X713416*
X712880Y278765*
X712343Y278027*
X712074Y277289*
X711806Y276181*
Y274336*
X712074Y273229*
X712343Y272491*
X712880Y271752*
X713416Y271383*
X714490*
X715027Y271752*
X715564Y272491*
X715832Y273229*
X718248Y279134D02*
X718517Y278765D01*
X718785Y279134*
X718517Y279503*
X718248Y279134*
X718517Y276551D02*
Y271383D01*
X721201Y276551D02*
Y271383D01*
Y274336D02*
X721469Y275443D01*
X722006Y276181*
X722543Y276551*
X723348*
X728985Y275443D02*
X728449Y276181D01*
X727912Y276551*
X727106*
X726570Y276181*
X726033Y275443*
X725764Y274336*
Y273598*
X726033Y272491*
X726570Y271752*
X727106Y271383*
X727912*
X728449Y271752*
X728985Y272491*
X731401Y276551D02*
Y272860D01*
X731670Y271752*
X732207Y271383*
X733012*
X733549Y271752*
X734354Y272860*
Y276551D02*
Y271383D01*
X736770Y279134D02*
X737038Y278765D01*
X737307Y279134*
X737038Y279503*
X736770Y279134*
X737038Y276551D02*
Y271383D01*
X740528Y279134D02*
Y272860D01*
X740796Y271752*
X741333Y271383*
X741870*
X739723Y276551D02*
X741602D01*
X750460Y279134D02*
Y271383D01*
Y279134D02*
X752876D01*
X753681Y278765*
X753950Y278396*
X754218Y277658*
Y276920*
X753950Y276181*
X753681Y275812*
X752876Y275443*
X750460D02*
X752876D01*
X753681Y275074*
X753950Y274705*
X754218Y273967*
Y272860*
X753950Y272121*
X753681Y271752*
X752876Y271383*
X750460*
X757976Y276551D02*
X757439Y276181D01*
X756902Y275443*
X756634Y274336*
Y273598*
X756902Y272491*
X757439Y271752*
X757976Y271383*
X758781*
X759318Y271752*
X759855Y272491*
X760124Y273598*
Y274336*
X759855Y275443*
X759318Y276181*
X758781Y276551*
X757976*
X765761D02*
Y271383D01*
Y275443D02*
X765224Y276181D01*
X764687Y276551*
X763882*
X763345Y276181*
X762808Y275443*
X762539Y274336*
Y273598*
X762808Y272491*
X763345Y271752*
X763882Y271383*
X764687*
X765224Y271752*
X765761Y272491*
X768176Y276551D02*
Y271383D01*
Y274336D02*
X768445Y275443D01*
X768982Y276181*
X769519Y276551*
X770324*
X775961Y279134D02*
Y271383D01*
Y275443D02*
X775424Y276181D01*
X774887Y276551*
X774082*
X773545Y276181*
X773008Y275443*
X772740Y274336*
Y273598*
X773008Y272491*
X773545Y271752*
X774082Y271383*
X774887*
X775424Y271752*
X775961Y272491*
X645235Y266634D02*
Y258883D01*
Y266634D02*
X647651D01*
X648456Y266265*
X648724Y265896*
X648993Y265158*
Y264420*
X648724Y263681*
X648456Y263312*
X647651Y262943*
X645235D02*
X647651D01*
X648456Y262574*
X648724Y262205*
X648993Y261467*
Y260360*
X648724Y259621*
X648456Y259252*
X647651Y258883*
X645235*
X652751Y264051D02*
X652214Y263681D01*
X651677Y262943*
X651409Y261836*
Y261098*
X651677Y259991*
X652214Y259252*
X652751Y258883*
X653556*
X654093Y259252*
X654630Y259991*
X654898Y261098*
Y261836*
X654630Y262943*
X654093Y263681*
X653556Y264051*
X652751*
X660535D02*
Y258883D01*
Y262943D02*
X659999Y263681D01*
X659462Y264051*
X658656*
X658120Y263681*
X657583Y262943*
X657314Y261836*
Y261098*
X657583Y259991*
X658120Y259252*
X658656Y258883*
X659462*
X659999Y259252*
X660535Y259991*
X662951Y264051D02*
Y258883D01*
Y261836D02*
X663220Y262943D01*
X663757Y263681*
X664294Y264051*
X665099*
X670736Y266634D02*
Y258883D01*
Y262943D02*
X670199Y263681D01*
X669662Y264051*
X668857*
X668320Y263681*
X667783Y262943*
X667515Y261836*
Y261098*
X667783Y259991*
X668320Y259252*
X668857Y258883*
X669662*
X670199Y259252*
X670736Y259991*
X683352Y264789D02*
X683084Y265527D01*
X682547Y266265*
X682010Y266634*
X680936*
X680399Y266265*
X679863Y265527*
X679594Y264789*
X679326Y263681*
Y261836*
X679594Y260729*
X679863Y259991*
X680399Y259252*
X680936Y258883*
X682010*
X682547Y259252*
X683084Y259991*
X683352Y260729*
X687110Y264051D02*
X686573Y263681D01*
X686036Y262943*
X685768Y261836*
Y261098*
X686036Y259991*
X686573Y259252*
X687110Y258883*
X687915*
X688452Y259252*
X688989Y259991*
X689258Y261098*
Y261836*
X688989Y262943*
X688452Y263681*
X687915Y264051*
X687110*
X691674D02*
Y256300D01*
Y262943D02*
X692210Y263681D01*
X692747Y264051*
X693553*
X694089Y263681*
X694626Y262943*
X694895Y261836*
Y261098*
X694626Y259991*
X694089Y259252*
X693553Y258883*
X692747*
X692210Y259252*
X691674Y259991*
X697311Y264051D02*
Y256300D01*
Y262943D02*
X697847Y263681D01*
X698384Y264051*
X699190*
X699726Y263681*
X700263Y262943*
X700532Y261836*
Y261098*
X700263Y259991*
X699726Y259252*
X699190Y258883*
X698384*
X697847Y259252*
X697311Y259991*
X702948Y261836D02*
X706169D01*
Y262574*
X705900Y263312*
X705632Y263681*
X705095Y264051*
X704290*
X703753Y263681*
X703216Y262943*
X702948Y261836*
Y261098*
X703216Y259991*
X703753Y259252*
X704290Y258883*
X705095*
X705632Y259252*
X706169Y259991*
X708585Y264051D02*
Y258883D01*
Y261836D02*
X708853Y262943D01*
X709390Y263681*
X709927Y264051*
X710732*
X719322Y266634D02*
Y258883D01*
X722543*
X728180Y264051D02*
Y258883D01*
Y262943D02*
X727643Y263681D01*
X727106Y264051*
X726301*
X725764Y263681*
X725227Y262943*
X724959Y261836*
Y261098*
X725227Y259991*
X725764Y259252*
X726301Y258883*
X727106*
X727643Y259252*
X728180Y259991*
X730864Y264051D02*
X732475Y258883D01*
X734086Y264051D02*
X732475Y258883D01*
X731938Y257407*
X731401Y256669*
X730864Y256300*
X730864D02*
X730596D01*
X736502Y261836D02*
X739723D01*
Y262574*
X739454Y263312*
X739186Y263681*
X738649Y264051*
X737844*
X737307Y263681*
X736770Y262943*
X736502Y261836*
Y261098*
X736770Y259991*
X737307Y259252*
X737844Y258883*
X738649*
X739186Y259252*
X739723Y259991*
X742139Y264051D02*
Y258883D01*
Y261836D02*
X742407Y262943D01*
X742944Y263681*
X743481Y264051*
X744286*
X749655Y262943D02*
X749386Y263681D01*
X748581Y264051*
X747776*
X746970Y263681*
X746702Y262943*
X746970Y262205*
X747507Y261836*
X748849Y261467*
X749386Y261098*
X749655Y260360*
Y259991*
X749386Y259252*
X748581Y258883*
X747776*
X746970Y259252*
X746702Y259991*
X752339Y264051D02*
X752071Y263681D01*
X752339Y263312*
X752607Y263681*
X752339Y264051*
Y259621D02*
X752071Y259252D01*
X752339Y258883*
X752607Y259252*
X752339Y259621*
X761197Y265158D02*
X761734Y265527D01*
X762539Y266634*
Y258883*
X645235Y254134D02*
Y246383D01*
Y254134D02*
X647651D01*
X648456Y253765*
X648724Y253396*
X648993Y252658*
Y251920*
X648724Y251181*
X648456Y250812*
X647651Y250443*
X645235D02*
X647651D01*
X648456Y250074*
X648724Y249705*
X648993Y248967*
Y247860*
X648724Y247121*
X648456Y246752*
X647651Y246383*
X645235*
X652751Y251551D02*
X652214Y251181D01*
X651677Y250443*
X651409Y249336*
Y248598*
X651677Y247491*
X652214Y246752*
X652751Y246383*
X653556*
X654093Y246752*
X654630Y247491*
X654898Y248598*
Y249336*
X654630Y250443*
X654093Y251181*
X653556Y251551*
X652751*
X660535D02*
Y246383D01*
Y250443D02*
X659999Y251181D01*
X659462Y251551*
X658656*
X658120Y251181*
X657583Y250443*
X657314Y249336*
Y248598*
X657583Y247491*
X658120Y246752*
X658656Y246383*
X659462*
X659999Y246752*
X660535Y247491*
X662951Y251551D02*
Y246383D01*
Y249336D02*
X663220Y250443D01*
X663757Y251181*
X664294Y251551*
X665099*
X670736Y254134D02*
Y246383D01*
Y250443D02*
X670199Y251181D01*
X669662Y251551*
X668857*
X668320Y251181*
X667783Y250443*
X667515Y249336*
Y248598*
X667783Y247491*
X668320Y246752*
X668857Y246383*
X669662*
X670199Y246752*
X670736Y247491*
X679326Y254134D02*
Y246383D01*
Y254134D02*
X681473Y246383D01*
X683621Y254134D02*
X681473Y246383D01*
X683621Y254134D02*
Y246383D01*
X689258Y251551D02*
Y246383D01*
Y250443D02*
X688721Y251181D01*
X688184Y251551*
X687379*
X686842Y251181*
X686305Y250443*
X686036Y249336*
Y248598*
X686305Y247491*
X686842Y246752*
X687379Y246383*
X688184*
X688721Y246752*
X689258Y247491*
X692479Y254134D02*
Y247860D01*
X692747Y246752*
X693284Y246383*
X693821*
X691674Y251551D02*
X693553D01*
X696237Y249336D02*
X699458D01*
Y250074*
X699190Y250812*
X698921Y251181*
X698384Y251551*
X697579*
X697042Y251181*
X696505Y250443*
X696237Y249336*
Y248598*
X696505Y247491*
X697042Y246752*
X697579Y246383*
X698384*
X698921Y246752*
X699458Y247491*
X701874Y251551D02*
Y246383D01*
Y249336D02*
X702142Y250443D01*
X702679Y251181*
X703216Y251551*
X704021*
X706437Y254134D02*
X706706Y253765D01*
X706974Y254134*
X706706Y254503*
X706437Y254134*
X706706Y251551D02*
Y246383D01*
X712611Y251551D02*
Y246383D01*
Y250443D02*
X712074Y251181D01*
X711537Y251551*
X710732*
X710195Y251181*
X709658Y250443*
X709390Y249336*
Y248598*
X709658Y247491*
X710195Y246752*
X710732Y246383*
X711537*
X712074Y246752*
X712611Y247491*
X715027Y254134D02*
Y246383D01*
X717711Y251551D02*
X717443Y251181D01*
X717711Y250812*
X717980Y251181*
X717711Y251551*
Y247121D02*
X717443Y246752D01*
X717711Y246383*
X717980Y246752*
X717711Y247121*
X726570Y254134D02*
Y246383D01*
Y254134D02*
X728985D01*
X729791Y253765*
X730059Y253396*
X730328Y252658*
Y251551*
X730059Y250812*
X729791Y250443*
X728985Y250074*
X726570*
X734086Y251551D02*
X733549Y251181D01*
X733012Y250443*
X732744Y249336*
Y248598*
X733012Y247491*
X733549Y246752*
X734086Y246383*
X734891*
X735428Y246752*
X735965Y247491*
X736233Y248598*
Y249336*
X735965Y250443*
X735428Y251181*
X734891Y251551*
X734086*
X738649Y254134D02*
Y246383D01*
X741333Y251551D02*
X742944Y246383D01*
X744555Y251551D02*
X742944Y246383D01*
X742407Y244907*
X741870Y244169*
X741333Y243800*
X741065*
X746970Y251551D02*
Y246383D01*
Y250074D02*
X747776Y251181D01*
X748313Y251551*
X749118*
X749655Y251181*
X749923Y250074*
Y246383*
Y250074D02*
X750728Y251181D01*
X751265Y251551*
X752071*
X752607Y251181*
X752876Y250074*
Y246383*
X755292Y254134D02*
X755560Y253765D01*
X755829Y254134*
X755560Y254503*
X755292Y254134*
X755560Y251551D02*
Y246383D01*
X761466Y254134D02*
Y246383D01*
Y250443D02*
X760929Y251181D01*
X760392Y251551*
X759587*
X759050Y251181*
X758513Y250443*
X758245Y249336*
X758245D02*
Y248598D01*
X758245D02*
X758513Y247491D01*
X759050Y246752*
X759587Y246383*
X760392*
X760929Y246752*
X761466Y247491*
X763882Y249336D02*
X767103D01*
Y250074*
X766834Y250812*
X766566Y251181*
X766029Y251551*
X765224*
X764687Y251181*
X764150Y250443*
X763882Y249336*
Y248598*
X764150Y247491*
X764687Y246752*
X765224Y246383*
X766029*
X766566Y246752*
X767103Y247491*
X649427Y202817D02*
X648890Y203556D01*
X648085Y203925*
X647011*
X646206Y203556*
X645669Y202817*
Y202079*
X645938Y201341*
X646206Y200972*
X646743Y200603*
X648354Y199865*
X648890Y199496*
X649159Y199126*
X649427Y198388*
Y197281*
X648890Y196543*
X648085Y196174*
X647011*
X646206Y196543*
X645669Y197281*
X652649Y203925D02*
Y197650D01*
X652917Y196543*
X653454Y196174*
X653991*
X651843Y201341D02*
X653722D01*
X656407Y203925D02*
X656675Y203556D01*
X656943Y203925*
X656675Y204294*
X656407Y203925*
X656675Y201341D02*
Y196174D01*
X661507Y203925D02*
X660970D01*
X660433Y203556*
X660165Y202448*
Y196174*
X659359Y201341D02*
X661238D01*
X666070Y203925D02*
X665533D01*
X664996Y203556*
X664728Y202448*
Y196174*
X663923Y201341D02*
X665802D01*
X668486Y199126D02*
X671707D01*
Y199865*
X671439Y200603*
X671170Y200972*
X670633Y201341*
X669828*
X669291Y200972*
X668754Y200234*
X668486Y199126*
Y198388*
X668754Y197281*
X669291Y196543*
X669828Y196174*
X670633*
X671170Y196543*
X671707Y197281*
X674123Y201341D02*
Y196174D01*
Y199865D02*
X674928Y200972D01*
X675465Y201341*
X676270*
X676807Y200972*
X677076Y199865*
Y196174*
X679492Y199126D02*
X682713D01*
Y199865*
X682444Y200603*
X682176Y200972*
X681639Y201341*
X680834*
X680297Y200972*
X679760Y200234*
X679492Y199126*
Y198388*
X679760Y197281*
X680297Y196543*
X680834Y196174*
X681639*
X682176Y196543*
X682713Y197281*
X685129Y201341D02*
Y196174D01*
Y199126D02*
X685397Y200234D01*
X685934Y200972*
X686471Y201341*
X687276*
X697745Y203925D02*
Y196174D01*
X695866Y203925D02*
X699624D01*
X702040D02*
Y196174D01*
Y199865D02*
X702845Y200972D01*
X703382Y201341*
X704187*
X704724Y200972*
X704993Y199865*
Y196174*
X707409Y203925D02*
X707677Y203556D01*
X707945Y203925*
X707677Y204294*
X707409Y203925*
X707677Y201341D02*
Y196174D01*
X713582Y200234D02*
X713046Y200972D01*
X712509Y201341*
X711703*
X711167Y200972*
X710630Y200234*
X710361Y199126*
Y198388*
X710630Y197281*
X711167Y196543*
X711703Y196174*
X712509*
X713046Y196543*
X713582Y197281*
X715998Y203925D02*
Y196174D01*
X718683Y201341D02*
X715998Y197650D01*
X717072Y199126D02*
X718951Y196174D01*
X721367Y201341D02*
Y196174D01*
Y199865D02*
X722172Y200972D01*
X722709Y201341*
X723514*
X724051Y200972*
X724320Y199865*
Y196174*
X726736Y199126D02*
X729957D01*
Y199865*
X729688Y200603*
X729420Y200972*
X728883Y201341*
X728078*
X727541Y200972*
X727004Y200234*
X726736Y199126*
Y198388*
X727004Y197281*
X727541Y196543*
X728078Y196174*
X728883*
X729420Y196543*
X729957Y197281*
X735325Y200234D02*
X735057Y200972D01*
X734252Y201341*
X733446*
X732641Y200972*
X732373Y200234*
X732641Y199496*
X733178Y199126*
X734520Y198757*
X735057Y198388*
X735325Y197650*
Y197281*
X735057Y196543*
X734252Y196174*
X733446*
X732641Y196543*
X732373Y197281*
X740694Y200234D02*
X740426Y200972D01*
X739620Y201341*
X738815*
X738010Y200972*
X737741Y200234*
X738010Y199496*
X738547Y199126*
X739889Y198757*
X740426Y198388*
X740694Y197650*
Y197281*
X740426Y196543*
X739620Y196174*
X738815*
X738010Y196543*
X737741Y197281*
X743378Y201341D02*
X743110Y200972D01*
X743378Y200603*
X743647Y200972*
X743378Y201341*
Y196912D02*
X743110Y196543D01*
X743378Y196174*
X743647Y196543*
X743378Y196912*
X752773Y203925D02*
X755726D01*
X754116Y200972*
X754921*
X755458Y200603*
X755726Y200234*
X755995Y199126*
Y198388*
X755726Y197281*
X755189Y196543*
X754384Y196174*
X753579*
X752773Y196543*
X752505Y196912*
X752237Y197650*
X760021Y203925D02*
X759216Y203556D01*
X758679Y202448*
X758410Y200603*
Y199496*
X758679Y197650*
X759216Y196543*
X760021Y196174*
X760558*
X761363Y196543*
X761900Y197650*
X762169Y199496*
Y200603*
X761900Y202448*
X761363Y203556*
X760558Y203925*
X760021*
X770758Y201341D02*
Y196174D01*
Y199865D02*
X771564Y200972D01*
X772100Y201341*
X772906*
X773443Y200972*
X773711Y199865*
Y196174*
Y199865D02*
X774516Y200972D01*
X775053Y201341*
X775859*
X776395Y200972*
X776664Y199865*
Y196174*
X779080Y203925D02*
X779348Y203556D01*
X779617Y203925*
X779348Y204294*
X779080Y203925*
X779348Y201341D02*
Y196174D01*
X782032Y203925D02*
Y196174D01*
X787401Y200234D02*
X787133Y200972D01*
X786327Y201341*
X785522*
X784717Y200972*
X784448Y200234*
X784717Y199496*
X785254Y199126*
X786596Y198757*
X787133Y198388*
X787401Y197650*
Y197281*
X787133Y196543*
X786327Y196174*
X785522*
X784717Y196543*
X784448Y197281*
X649696Y190268D02*
X649427Y191006D01*
X648890Y191745*
X648354Y192114*
X647280*
X646743Y191745*
X646206Y191006*
X645938Y190268*
X645669Y189161*
Y187315*
X645938Y186208*
X646206Y185470*
X646743Y184732*
X647280Y184363*
X648354*
X648890Y184732*
X649427Y185470*
X649696Y186208*
X652112Y192114D02*
Y184363D01*
X657749Y189530D02*
Y184363D01*
Y188423D02*
X657212Y189161D01*
X656675Y189530*
X655870*
X655333Y189161*
X654796Y188423*
X654528Y187315*
Y186577*
X654796Y185470*
X655333Y184732*
X655870Y184363*
X656675*
X657212Y184732*
X657749Y185470*
X663386Y192114D02*
Y184363D01*
Y188423D02*
X662849Y189161D01*
X662312Y189530*
X661507*
X660970Y189161*
X660433Y188423*
X660165Y187315*
Y186577*
X660433Y185470*
X660970Y184732*
X661507Y184363*
X662312*
X662849Y184732*
X663386Y185470*
X669023Y192114D02*
Y184363D01*
Y188423D02*
X668486Y189161D01*
X667949Y189530*
X667144*
X666607Y189161*
X666070Y188423*
X665802Y187315*
Y186577*
X666070Y185470*
X666607Y184732*
X667144Y184363*
X667949*
X668486Y184732*
X669023Y185470*
X671439Y192114D02*
X671707Y191745D01*
X671976Y192114*
X671707Y192483*
X671439Y192114*
X671707Y189530D02*
Y184363D01*
X674391Y189530D02*
Y184363D01*
Y188054D02*
X675197Y189161D01*
X675734Y189530*
X676539*
X677076Y189161*
X677344Y188054*
Y184363*
X682981Y189530D02*
Y183625D01*
X682713Y182517*
X682444Y182148*
X681908Y181779*
X681102*
X680565Y182148*
X682981Y188423D02*
X682444Y189161D01*
X681908Y189530*
X681102*
X680565Y189161*
X680029Y188423*
X679760Y187315*
Y186577*
X680029Y185470*
X680565Y184732*
X681102Y184363*
X681908*
X682444Y184732*
X682981Y185470*
X685666Y189530D02*
X685397Y189161D01*
X685666Y188792*
X685934Y189161*
X685666Y189530*
Y185101D02*
X685397Y184732D01*
X685666Y184363*
X685934Y184732*
X685666Y185101*
X694524Y190637D02*
X695061Y191006D01*
X695866Y192114*
Y184363*
X699624Y189530D02*
X699087Y189161D01*
X698550Y188423*
X698282Y187315*
Y186577*
X698550Y185470*
X699087Y184732*
X699624Y184363*
X700429*
X700966Y184732*
X701503Y185470*
X701771Y186577*
Y187315*
X701503Y188423*
X700966Y189161*
X700429Y189530*
X699624*
X707140D02*
X704187Y184363D01*
Y189530D02*
X707140D01*
X704187Y184363D02*
X707140D01*
X715730Y192114D02*
X715998Y191745D01*
X716267Y192114*
X715998Y192483*
X715730Y192114*
X715998Y189530D02*
Y184363D01*
X718683Y189530D02*
Y184363D01*
Y188054D02*
X719488Y189161D01*
X720025Y189530*
X720830*
X721367Y189161*
X721635Y188054*
Y184363*
X724051Y192114D02*
X724320Y191745D01*
X724588Y192114*
X724320Y192483*
X724051Y192114*
X724320Y189530D02*
Y184363D01*
X727809Y192114D02*
Y185839D01*
X728078Y184732*
X728615Y184363*
X729151*
X727004Y189530D02*
X728883D01*
X731567Y192114D02*
X731836Y191745D01*
X732104Y192114*
X731836Y192483*
X731567Y192114*
X731836Y189530D02*
Y184363D01*
X737741Y189530D02*
Y184363D01*
Y188423D02*
X737204Y189161D01*
X736668Y189530*
X735862*
X735325Y189161*
X734789Y188423*
X734520Y187315*
Y186577*
X734789Y185470*
X735325Y184732*
X735862Y184363*
X736668*
X737204Y184732*
X737741Y185470*
X740157Y192114D02*
Y184363D01*
X751968Y188423D02*
X751431Y189161D01*
X750894Y189530*
X750089*
X749552Y189161*
X749015Y188423*
X748747Y187315*
Y186577*
X749015Y185470*
X749552Y184732*
X750089Y184363*
X750894*
X751431Y184732*
X751968Y185470*
X755726Y189530D02*
X755189Y189161D01*
X754652Y188423*
X754384Y187315*
Y186577*
X754652Y185470*
X755189Y184732*
X755726Y184363*
X756531*
X757068Y184732*
X757605Y185470*
X757874Y186577*
Y187315*
X757605Y188423*
X757068Y189161*
X756531Y189530*
X755726*
X760289D02*
Y181779D01*
Y188423D02*
X760826Y189161D01*
X761363Y189530*
X762169*
X762705Y189161*
X763242Y188423*
X763511Y187315*
Y186577*
X763242Y185470*
X762705Y184732*
X762169Y184363*
X761363*
X760826Y184732*
X760289Y185470*
X765927Y189530D02*
Y181779D01*
Y188423D02*
X766463Y189161D01*
X767000Y189530*
X767806*
X768342Y189161*
X768879Y188423*
X769148Y187315*
Y186577*
X768879Y185470*
X768342Y184732*
X767806Y184363*
X767000*
X766463Y184732*
X765927Y185470*
X771564Y187315D02*
X774785D01*
Y188054*
X774516Y188792*
X774248Y189161*
X773711Y189530*
X772906*
X772369Y189161*
X771832Y188423*
X771564Y187315*
Y186577*
X771832Y185470*
X772369Y184732*
X772906Y184363*
X773711*
X774248Y184732*
X774785Y185470*
X777201Y189530D02*
Y184363D01*
Y187315D02*
X777469Y188423D01*
X778006Y189161*
X778543Y189530*
X779348*
X789280D02*
X788743Y189161D01*
X788206Y188423*
X787938Y187315*
Y186577*
X788206Y185470*
X788743Y184732*
X789280Y184363*
X790085*
X790622Y184732*
X791159Y185470*
X791428Y186577*
Y187315*
X791159Y188423*
X790622Y189161*
X790085Y189530*
X789280*
X793843D02*
Y184363D01*
Y188054D02*
X794649Y189161D01*
X795186Y189530*
X795991*
X796528Y189161*
X796796Y188054*
Y184363*
X808607Y189530D02*
Y184363D01*
Y188423D02*
X808070Y189161D01*
X807533Y189530*
X806728*
X806191Y189161*
X805654Y188423*
X805386Y187315*
Y186577*
X805654Y185470*
X806191Y184732*
X806728Y184363*
X807533*
X808070Y184732*
X808607Y185470*
X811023Y192114D02*
Y184363D01*
X813439Y192114D02*
Y184363D01*
X822029Y192114D02*
Y184363D01*
X827666Y189530D02*
Y184363D01*
Y188423D02*
X827129Y189161D01*
X826592Y189530*
X825787*
X825250Y189161*
X824713Y188423*
X824445Y187315*
Y186577*
X824713Y185470*
X825250Y184732*
X825787Y184363*
X826592*
X827129Y184732*
X827666Y185470*
X830350Y189530D02*
X831961Y184363D01*
X833571Y189530D02*
X831961Y184363D01*
X831424Y182886*
X830887Y182148*
X830350Y181779*
X830082*
X835987Y187315D02*
X839208D01*
Y188054*
X838940Y188792*
X838671Y189161*
X838135Y189530*
X837329*
X836792Y189161*
X836256Y188423*
X835987Y187315*
Y186577*
X836256Y185470*
X836792Y184732*
X837329Y184363*
X838135*
X838671Y184732*
X839208Y185470*
X841624Y189530D02*
Y184363D01*
Y187315D02*
X841893Y188423D01*
X842430Y189161*
X842966Y189530*
X843772*
X849140Y188423D02*
X848872Y189161D01*
X848067Y189530*
X847261*
X846456Y189161*
X846188Y188423*
X846456Y187685*
X846993Y187315*
X848335Y186946*
X848872Y186577*
X849140Y185839*
Y185470*
X848872Y184732*
X848067Y184363*
X847261*
X846456Y184732*
X846188Y185470*
X645669Y180303D02*
Y172552D01*
Y180303D02*
X649159D01*
X645669Y176612D02*
X647817D01*
X651575Y180303D02*
X651843Y179934D01*
X652112Y180303*
X651843Y180672*
X651575Y180303*
X651843Y177719D02*
Y172552D01*
X654528Y177719D02*
Y172552D01*
Y176243D02*
X655333Y177350D01*
X655870Y177719*
X656675*
X657212Y177350*
X657480Y176243*
Y172552*
X659896Y180303D02*
X660165Y179934D01*
X660433Y180303*
X660165Y180672*
X659896Y180303*
X660165Y177719D02*
Y172552D01*
X665802Y176612D02*
X665533Y177350D01*
X664728Y177719*
X663923*
X663117Y177350*
X662849Y176612*
X663117Y175874*
X663654Y175504*
X664996Y175135*
X665533Y174766*
X665802Y174028*
Y173659*
X665533Y172921*
X664728Y172552*
X663923*
X663117Y172921*
X662849Y173659*
X668218Y180303D02*
Y172552D01*
Y176243D02*
X669023Y177350D01*
X669560Y177719*
X670365*
X670902Y177350*
X671170Y176243*
Y172552*
X678418Y181779D02*
X673586Y169968D01*
X680834Y180303D02*
Y172552D01*
Y180303D02*
X683250D01*
X684055Y179934*
X684323Y179564*
X684592Y178826*
Y177719*
X684323Y176981*
X684055Y176612*
X683250Y176243*
X680834*
X687008Y180303D02*
Y172552D01*
X692645Y177719D02*
Y172552D01*
Y176612D02*
X692108Y177350D01*
X691571Y177719*
X690766*
X690229Y177350*
X689692Y176612*
X689424Y175504*
Y174766*
X689692Y173659*
X690229Y172921*
X690766Y172552*
X691571*
X692108Y172921*
X692645Y173659*
X695866Y180303D02*
Y174028D01*
X696134Y172921*
X696671Y172552*
X697208*
X695061Y177719D02*
X696940D01*
X699624Y180303D02*
X699892Y179934D01*
X700161Y180303*
X699892Y180672*
X699624Y180303*
X699892Y177719D02*
Y172552D01*
X702577Y177719D02*
Y172552D01*
Y176243D02*
X703382Y177350D01*
X703919Y177719*
X704724*
X705261Y177350*
X705529Y176243*
Y172552*
X711167Y177719D02*
Y171814D01*
X711167D02*
X710898Y170706D01*
X710630Y170337*
X710093Y169968*
X709288*
X708751Y170337*
X711167Y176612D02*
X710630Y177350D01*
X710093Y177719*
X709288*
X708751Y177350*
X708214Y176612*
X707945Y175504*
Y174766*
X708214Y173659*
X708751Y172921*
X709288Y172552*
X710093*
X710630Y172921*
X711167Y173659*
X713851Y177719D02*
X713582Y177350D01*
X713851Y176981*
X714119Y177350*
X713851Y177719*
Y173290D02*
X713582Y172921D01*
X713851Y172552*
X714119Y172921*
X713851Y173290*
X722709Y180303D02*
Y172552D01*
X726467Y180303D02*
Y172552D01*
X722709Y176612D02*
X726467D01*
X731030Y180303D02*
X728883Y172552D01*
X731030Y180303D02*
X733178Y172552D01*
X729688Y175135D02*
X732373D01*
X739352Y179195D02*
X738815Y179934D01*
X738010Y180303*
X736936*
X736131Y179934*
X735594Y179195*
Y178457*
X735862Y177719*
X736131Y177350*
X736668Y176981*
X738278Y176243*
X738815Y175874*
X739083Y175504*
X739352Y174766*
Y173659*
X738815Y172921*
X738010Y172552*
X736936*
X736131Y172921*
X735594Y173659*
X741768Y180303D02*
Y172552D01*
X744989*
X752237Y181779D02*
X747405Y169968D01*
X754652Y180303D02*
Y172552D01*
X757874*
X760289Y175504D02*
X763511D01*
Y176243*
X763242Y176981*
X762974Y177350*
X762437Y177719*
X761632*
X761095Y177350*
X760558Y176612*
X760289Y175504*
X760289D02*
Y174766D01*
X760289D02*
X760558Y173659D01*
X761095Y172921*
X761632Y172552*
X762437*
X762974Y172921*
X763511Y173659*
X769148Y177719D02*
Y172552D01*
Y176612D02*
X768611Y177350D01*
X768074Y177719*
X767269*
X766732Y177350*
X766195Y176612*
X765927Y175504*
Y174766*
X766195Y173659*
X766732Y172921*
X767269Y172552*
X768074*
X768611Y172921*
X769148Y173659*
X774785Y180303D02*
Y172552D01*
Y176612D02*
X774248Y177350D01*
X773711Y177719*
X772906*
X772369Y177350*
X771832Y176612*
X771564Y175504*
Y174766*
X771832Y173659*
X772369Y172921*
X772906Y172552*
X773711*
X774248Y172921*
X774785Y173659*
X777201Y175504D02*
X780422D01*
Y176243*
X780153Y176981*
X779885Y177350*
X779348Y177719*
X778543*
X778006Y177350*
X777469Y176612*
X777201Y175504*
Y174766*
X777469Y173659*
X778006Y172921*
X778543Y172552*
X779348*
X779885Y172921*
X780422Y173659*
X786059Y180303D02*
Y172552D01*
Y176612D02*
X785522Y177350D01*
X784985Y177719*
X784180*
X783643Y177350*
X783106Y176612*
X782838Y175504*
Y174766*
X783106Y173659*
X783643Y172921*
X784180Y172552*
X784985*
X785522Y172921*
X786059Y173659*
X798407Y179195D02*
X797870Y179934D01*
X797065Y180303*
X795991*
X795186Y179934*
X794649Y179195*
Y178457*
X794917Y177719*
X795186Y177350*
X795722Y176981*
X797333Y176243*
X797870Y175874*
X798138Y175504*
X798407Y174766*
Y173659*
X797870Y172921*
X797065Y172552*
X795991*
X795186Y172921*
X794649Y173659*
X802165Y177719D02*
X801628Y177350D01*
X801091Y176612*
X800823Y175504*
Y174766*
X801091Y173659*
X801628Y172921*
X802165Y172552*
X802970*
X803507Y172921*
X804044Y173659*
X804312Y174766*
Y175504*
X804044Y176612*
X803507Y177350*
X802970Y177719*
X802165*
X806728Y180303D02*
Y172552D01*
X812365Y180303D02*
Y172552D01*
Y176612D02*
X811828Y177350D01*
X811291Y177719*
X810486*
X809949Y177350*
X809412Y176612*
X809144Y175504*
Y174766*
X809412Y173659*
X809949Y172921*
X810486Y172552*
X811291*
X811828Y172921*
X812365Y173659*
X814781Y175504D02*
X818002D01*
Y176243*
X817734Y176981*
X817465Y177350*
X816929Y177719*
X816123*
X815586Y177350*
X815050Y176612*
X814781Y175504*
Y174766*
X815050Y173659*
X815586Y172921*
X816123Y172552*
X816929*
X817465Y172921*
X818002Y173659*
X820418Y177719D02*
Y172552D01*
Y175504D02*
X820687Y176612D01*
X821223Y177350*
X821760Y177719*
X822566*
X645669Y241326D02*
Y233575D01*
Y241326D02*
X648085D01*
X648890Y240957*
X649159Y240588*
X649427Y239850*
Y238743*
X649159Y238004*
X648890Y237635*
X648085Y237266*
X645669*
X653185Y238743D02*
X652649Y238374D01*
X652112Y237635*
X651843Y236528*
Y235790*
X652112Y234683*
X652649Y233944*
X653185Y233575*
X653991*
X654528Y233944*
X655064Y234683*
X655333Y235790*
Y236528*
X655064Y237635*
X654528Y238374*
X653991Y238743*
X653185*
X657749Y241326D02*
Y233575D01*
X660433Y238743D02*
X662044Y233575D01*
X663654Y238743D02*
X662044Y233575D01*
X661507Y232099*
X660970Y231361*
X660433Y230992*
X660165*
X666070Y238743D02*
Y233575D01*
Y237266D02*
X666875Y238374D01*
X667412Y238743*
X668218*
X668754Y238374*
X669023Y237266*
Y233575*
Y237266D02*
X669828Y238374D01*
X670365Y238743*
X671170*
X671707Y238374*
X671976Y237266*
Y233575*
X674391Y241326D02*
X674660Y240957D01*
X674928Y241326*
X674660Y241695*
X674391Y241326*
X674660Y238743D02*
Y233575D01*
X680565Y241326D02*
Y233575D01*
Y237635D02*
X680029Y238374D01*
X679492Y238743*
X678686*
X678149Y238374*
X677613Y237635*
X677344Y236528*
Y235790*
X677613Y234683*
X678149Y233944*
X678686Y233575*
X679492*
X680029Y233944*
X680565Y234683*
X682981Y236528D02*
X686202D01*
Y237266*
X685934Y238004*
X685666Y238374*
X685129Y238743*
X684323*
X683787Y238374*
X683250Y237635*
X682981Y236528*
Y235790*
X683250Y234683*
X683787Y233944*
X684323Y233575*
X685129*
X685666Y233944*
X686202Y234683*
X696671Y241326D02*
Y233575D01*
X694792Y241326D02*
X698550D01*
X700966D02*
Y233575D01*
Y237266D02*
X701771Y238374D01*
X702308Y238743*
X703114*
X703650Y238374*
X703919Y237266*
Y233575*
X706335Y241326D02*
X706603Y240957D01*
X706872Y241326*
X706603Y241695*
X706335Y241326*
X706603Y238743D02*
Y233575D01*
X712509Y237635D02*
X711972Y238374D01*
X711435Y238743*
X710630*
X710093Y238374*
X709556Y237635*
X709288Y236528*
Y235790*
X709556Y234683*
X710093Y233944*
X710630Y233575*
X711435*
X711972Y233944*
X712509Y234683*
X714925Y241326D02*
Y233575D01*
X717609Y238743D02*
X714925Y235052D01*
X715998Y236528D02*
X717877Y233575D01*
X720293Y238743D02*
Y233575D01*
Y237266D02*
X721099Y238374D01*
X721635Y238743*
X722441*
X722978Y238374*
X723246Y237266*
Y233575*
X725662Y236528D02*
X728883D01*
Y237266*
X728615Y238004*
X728346Y238374*
X727809Y238743*
X727004*
X726467Y238374*
X725930Y237635*
X725662Y236528*
Y235790*
X725930Y234683*
X726467Y233944*
X727004Y233575*
X727809*
X728346Y233944*
X728883Y234683*
X734252Y237635D02*
X733983Y238374D01*
X733178Y238743*
X732373*
X731567Y238374*
X731299Y237635*
X731567Y236897*
X732104Y236528*
X733446Y236159*
X733983Y235790*
X734252Y235052*
Y234683*
X733983Y233944*
X733178Y233575*
X732373*
X731567Y233944*
X731299Y234683*
X739620Y237635D02*
X739352Y238374D01*
X738547Y238743*
X737741*
X736936Y238374*
X736668Y237635*
X736936Y236897*
X737473Y236528*
X738815Y236159*
X739352Y235790*
X739620Y235052*
Y234683*
X739352Y233944*
X738547Y233575*
X737741*
X736936Y233944*
X736668Y234683*
X748210Y241326D02*
Y233575D01*
X751431*
X757068Y238743D02*
Y233575D01*
Y237635D02*
X756531Y238374D01*
X755995Y238743*
X755189*
X754652Y238374*
X754116Y237635*
X753847Y236528*
Y235790*
X754116Y234683*
X754652Y233944*
X755189Y233575*
X755995*
X756531Y233944*
X757068Y234683*
X759753Y238743D02*
X761363Y233575D01*
X762974Y238743D02*
X761363Y233575D01*
X760826Y232099*
X760289Y231361*
X760289D02*
X759753Y230992D01*
X759484*
X765390Y236528D02*
X768611D01*
Y237266*
X768342Y238004*
X768074Y238374*
X767537Y238743*
X766732*
X766195Y238374*
X765658Y237635*
X765390Y236528*
Y235790*
X765658Y234683*
X766195Y233944*
X766732Y233575*
X767537*
X768074Y233944*
X768611Y234683*
X771027Y238743D02*
Y233575D01*
Y236528D02*
X771295Y237635D01*
X771832Y238374*
X772369Y238743*
X773174*
X775590Y239850D02*
X776127Y240219D01*
X776932Y241326*
Y233575*
X779617Y238743D02*
X779348Y238374D01*
X779617Y238004*
X779885Y238374*
X779617Y238743*
Y234313D02*
X779348Y233944D01*
X779617Y233575*
X779885Y233944*
X779617Y234313*
X788475Y239850D02*
X789012Y240219D01*
X789817Y241326*
Y233575*
X798407Y238743D02*
Y233575D01*
Y237266D02*
X799212Y238374D01*
X799749Y238743*
X800554*
X801091Y238374*
X801360Y237266*
Y233575*
Y237266D02*
X802165Y238374D01*
X802702Y238743*
X803507*
X804044Y238374*
X804312Y237266*
Y233575*
X806728Y241326D02*
X806997Y240957D01*
X807265Y241326*
X806997Y241695*
X806728Y241326*
X806997Y238743D02*
Y233575D01*
X809681Y241326D02*
Y233575D01*
X645669Y229515D02*
Y221764D01*
Y229515D02*
X648085D01*
X648890Y229146*
X649159Y228777*
X649427Y228039*
Y226932*
X649159Y226193*
X648890Y225824*
X648085Y225455*
X645669*
X653185Y226932D02*
X652649Y226562D01*
X652649D02*
X652112Y225824D01*
X651843Y224717*
Y223979*
X652112Y222872*
X652649Y222133*
X653185Y221764*
X653991*
X654528Y222133*
X655064Y222872*
X655333Y223979*
Y224717*
X655064Y225824*
X654528Y226562*
X654528D02*
X653991Y226932D01*
X653185*
X657749Y229515D02*
Y221764D01*
X660433Y226932D02*
X662044Y221764D01*
X663654Y226932D02*
X662044Y221764D01*
X661507Y220288*
X660970Y219550*
X660433Y219181*
X660165*
X666070Y226932D02*
Y221764D01*
Y225455D02*
X666875Y226562D01*
X666875D02*
X667412Y226932D01*
X668218*
X668754Y226562*
X668754D02*
X669023Y225455D01*
Y221764*
Y225455D02*
X669828Y226562D01*
X669828D02*
X670365Y226932D01*
X671170*
X671707Y226562*
X671707D02*
X671976Y225455D01*
Y221764*
X674391Y229515D02*
X674660Y229146D01*
X674928Y229515*
X674660Y229884*
X674391Y229515*
X674660Y226932D02*
Y221764D01*
X680565Y229515D02*
Y221764D01*
Y225824D02*
X680029Y226562D01*
X680029D02*
X679492Y226932D01*
X678686*
X678149Y226562*
X678149D02*
X677613Y225824D01*
X677344Y224717*
Y223979*
X677613Y222872*
X678149Y222133*
X678686Y221764*
X679492*
X680029Y222133*
X680565Y222872*
X682981Y224717D02*
X686202D01*
Y225455*
X685934Y226193*
X685666Y226562*
X685666D02*
X685129Y226932D01*
X684323*
X683787Y226562*
X683787D02*
X683250Y225824D01*
X682981Y224717*
Y223979*
X683250Y222872*
X683787Y222133*
X684323Y221764*
X685129*
X685666Y222133*
X686202Y222872*
X696671Y229515D02*
Y221764D01*
X694792Y229515D02*
X698550D01*
X700966D02*
Y221764D01*
Y225455D02*
X701771Y226562D01*
X701771D02*
X702308Y226932D01*
X703114*
X703650Y226562*
X703650D02*
X703919Y225455D01*
Y221764*
X706335Y229515D02*
X706603Y229146D01*
X706872Y229515*
X706603Y229884*
X706335Y229515*
X706603Y226932D02*
Y221764D01*
X712509Y225824D02*
X711972Y226562D01*
X711972D02*
X711435Y226932D01*
X710630*
X710093Y226562*
X710093D02*
X709556Y225824D01*
X709288Y224717*
Y223979*
X709556Y222872*
X710093Y222133*
X710630Y221764*
X711435*
X711972Y222133*
X712509Y222872*
X714925Y229515D02*
Y221764D01*
X717609Y226932D02*
X714925Y223241D01*
X715998Y224717D02*
X717877Y221764D01*
X720293Y226932D02*
Y221764D01*
Y225455D02*
X721099Y226562D01*
X721099D02*
X721635Y226932D01*
X722441*
X722978Y226562*
X722978D02*
X723246Y225455D01*
Y221764*
X725662Y224717D02*
X728883D01*
Y225455*
X728615Y226193*
X728346Y226562*
X728346D02*
X727809Y226932D01*
X727004*
X726467Y226562*
X726467D02*
X725930Y225824D01*
X725662Y224717*
Y223979*
X725930Y222872*
X726467Y222133*
X727004Y221764*
X727809*
X728346Y222133*
X728883Y222872*
X734252Y225824D02*
X733983Y226562D01*
X733983D02*
X733178Y226932D01*
X732373*
X731567Y226562*
X731567D02*
X731299Y225824D01*
X731567Y225086*
X732104Y224717*
X733446Y224348*
X733983Y223979*
X734252Y223241*
Y222872*
X733983Y222133*
X733178Y221764*
X732373*
X731567Y222133*
X731299Y222872*
X739620Y225824D02*
X739352Y226562D01*
X739352D02*
X738547Y226932D01*
X737741*
X736936Y226562*
X736936D02*
X736668Y225824D01*
X736936Y225086*
X737473Y224717*
X738815Y224348*
X739352Y223979*
X739620Y223241*
Y222872*
X739352Y222133*
X738547Y221764*
X737741*
X736936Y222133*
X736668Y222872*
X748210Y229515D02*
Y221764D01*
X751431*
X757068Y226932D02*
Y221764D01*
Y225824D02*
X756531Y226562D01*
X756531D02*
X755995Y226932D01*
X755189*
X754652Y226562*
X754652D02*
X754116Y225824D01*
X753847Y224717*
Y223979*
X754116Y222872*
X754652Y222133*
X755189Y221764*
X755995*
X756531Y222133*
X757068Y222872*
X759753Y226932D02*
X761363Y221764D01*
X762974Y226932D02*
X761363Y221764D01*
X760826Y220288*
X760289Y219550*
X760289D02*
X759753Y219181D01*
X759484*
X765390Y224717D02*
X768611D01*
Y225455*
X768342Y226193*
X768074Y226562*
X768074D02*
X767537Y226932D01*
X766732*
X766195Y226562*
X766195D02*
X765658Y225824D01*
X765390Y224717*
Y223979*
X765658Y222872*
X766195Y222133*
X766732Y221764*
X767537*
X768074Y222133*
X768611Y222872*
X771027Y226932D02*
Y221764D01*
Y224717D02*
X771295Y225824D01*
X771832Y226562*
X771832D02*
X772369Y226932D01*
X773174*
X776127Y229515D02*
X779080D01*
X777469Y226562*
X777469D02*
X778274D01*
X778274D02*
X778811Y226193D01*
X779080Y225824*
X779348Y224717*
Y223979*
X779080Y222872*
X778543Y222133*
X777738Y221764*
X776932*
X776127Y222133*
X775859Y222502*
X775590Y223241*
X782032Y226932D02*
X781764Y226562D01*
X781764D02*
X782032Y226193D01*
X782301Y226562*
X782301D02*
X782032Y226932D01*
Y222502D02*
X781764Y222133D01*
X782032Y221764*
X782301Y222133*
X782032Y222502*
X791159Y227670D02*
Y228039D01*
X791428Y228777*
X791696Y229146*
X792233Y229515*
X793307*
X793843Y229146*
X794112Y228777*
X794380Y228039*
Y227301*
X794112Y226562*
X794112D02*
X793575Y225455D01*
X790891Y221764*
X794649*
X803239Y226932D02*
Y221764D01*
Y225455D02*
X804044Y226562D01*
X804044D02*
X804581Y226932D01*
X805386*
X805923Y226562*
X805923D02*
X806191Y225455D01*
Y221764*
Y225455D02*
X806997Y226562D01*
X806997D02*
X807533Y226932D01*
X808339*
X808876Y226562*
X808876D02*
X809144Y225455D01*
Y221764*
X811560Y229515D02*
X811828Y229146D01*
X812097Y229515*
X811828Y229884*
X811560Y229515*
X811828Y226932D02*
Y221764D01*
X814513Y229515D02*
Y221764D01*
X819881Y225824D02*
X819613Y226562D01*
X819613D02*
X818808Y226932D01*
X818002*
X817197Y226562*
X817197D02*
X816929Y225824D01*
X817197Y225086*
X817734Y224717*
X819076Y224348*
X819613Y223979*
X819881Y223241*
Y222872*
X819613Y222133*
X818808Y221764*
X818002*
X817197Y222133*
X816929Y222872*
X649427Y216597D02*
X648890Y217335D01*
X648085Y217704*
X647011*
X646206Y217335*
X645669Y216597*
Y215859*
X645938Y215121*
X646206Y214751*
X646743Y214382*
X648354Y213644*
X648890Y213275*
X649159Y212906*
X649427Y212168*
Y211061*
X648890Y210322*
X648085Y209953*
X647011*
X646206Y210322*
X645669Y211061*
X652649Y217704D02*
Y211430D01*
X652917Y210322*
X653454Y209953*
X653991*
X651843Y215121D02*
X653722D01*
X656407Y217704D02*
X656675Y217335D01*
X656943Y217704*
X656675Y218073*
X656407Y217704*
X656675Y215121D02*
Y209953D01*
X661507Y217704D02*
X660970D01*
X660433Y217335*
X660165Y216228*
Y209953*
X659359Y215121D02*
X661238D01*
X666070Y217704D02*
X665533D01*
X664996Y217335*
X664728Y216228*
Y209953*
X663923Y215121D02*
X665802D01*
X668486Y212906D02*
X671707D01*
Y213644*
X671439Y214382*
X671170Y214751*
X670633Y215121*
X669828*
X669291Y214751*
X668754Y214013*
X668486Y212906*
Y212168*
X668754Y211061*
X669291Y210322*
X669828Y209953*
X670633*
X671170Y210322*
X671707Y211061*
X674123Y215121D02*
Y209953D01*
Y213644D02*
X674928Y214751D01*
X675465Y215121*
X676270*
X676807Y214751*
X677076Y213644*
Y209953*
X679492Y212906D02*
X682713D01*
Y213644*
X682444Y214382*
X682176Y214751*
X681639Y215121*
X680834*
X680297Y214751*
X679760Y214013*
X679492Y212906*
Y212168*
X679760Y211061*
X680297Y210322*
X680834Y209953*
X681639*
X682176Y210322*
X682713Y211061*
X685129Y215121D02*
Y209953D01*
Y212906D02*
X685397Y214013D01*
X685934Y214751*
X686471Y215121*
X687276*
X695866Y217704D02*
Y209953D01*
Y217704D02*
X698013Y209953D01*
X700161Y217704D02*
X698013Y209953D01*
X700161Y217704D02*
Y209953D01*
X705798Y215121D02*
Y209953D01*
Y214013D02*
X705261Y214751D01*
X704724Y215121*
X703919*
X703382Y214751*
X702845Y214013*
X702577Y212906*
Y212168*
X702845Y211061*
X703382Y210322*
X703919Y209953*
X704724*
X705261Y210322*
X705798Y211061*
X709019Y217704D02*
Y211430D01*
X709288Y210322*
X709824Y209953*
X710361*
X708214Y215121D02*
X710093D01*
X712777Y212906D02*
X715998D01*
Y213644*
X715730Y214382*
X715461Y214751*
X714925Y215121*
X714119*
X713582Y214751*
X713046Y214013*
X712777Y212906*
Y212168*
X713046Y211061*
X713582Y210322*
X714119Y209953*
X714925*
X715461Y210322*
X715998Y211061*
X718414Y215121D02*
Y209953D01*
Y212906D02*
X718683Y214013D01*
X719219Y214751*
X719756Y215121*
X720562*
X722978Y217704D02*
X723246Y217335D01*
X723514Y217704*
X723246Y218073*
X722978Y217704*
X723246Y215121D02*
Y209953D01*
X729151Y215121D02*
Y209953D01*
Y214013D02*
X728615Y214751D01*
X728078Y215121*
X727272*
X726736Y214751*
X726199Y214013*
X725930Y212906*
Y212168*
X726199Y211061*
X726736Y210322*
X727272Y209953*
X728078*
X728615Y210322*
X729151Y211061*
X731567Y217704D02*
Y209953D01*
X734252Y215121D02*
X733983Y214751D01*
X734252Y214382*
X734520Y214751*
X734252Y215121*
Y210691D02*
X733983Y210322D01*
X734252Y209953*
X734520Y210322*
X734252Y210691*
X743110Y217704D02*
Y209953D01*
Y217704D02*
X746599D01*
X743110Y214013D02*
X745257D01*
X749015Y217704D02*
Y209953D01*
Y217704D02*
X751431D01*
X752237Y217335*
X752505Y216966*
X752773Y216228*
Y215490*
X752505Y214751*
X752237Y214382*
X751431Y214013*
X749015*
X750894D02*
X752773Y209953D01*
X757874Y217704D02*
X755189Y212537D01*
X759216*
X757874Y217704D02*
Y209953D01*
X771564Y216597D02*
X771027Y217335D01*
X770221Y217704*
X769148*
X768342Y217335*
X767806Y216597*
Y215859*
X768074Y215121*
X768342Y214751*
X768879Y214382*
X770490Y213644*
X771027Y213275*
X771295Y212906*
X771564Y212168*
Y211061*
X771027Y210322*
X770221Y209953*
X769148*
X768342Y210322*
X767806Y211061*
X774785Y217704D02*
Y211430D01*
X775053Y210322*
X775590Y209953*
X776127*
X773980Y215121D02*
X775859D01*
X781764D02*
Y209953D01*
Y214013D02*
X781227Y214751D01*
X780690Y215121*
X779885*
X779348Y214751*
X778811Y214013*
X778543Y212906*
Y212168*
X778811Y211061*
X779348Y210322*
X779885Y209953*
X780690*
X781227Y210322*
X781764Y211061*
X784180Y215121D02*
Y209953D01*
Y213644D02*
X784985Y214751D01*
X785522Y215121*
X786327*
X786864Y214751*
X787133Y213644*
Y209953*
X792770Y217704D02*
Y209953D01*
Y214013D02*
X792233Y214751D01*
X791696Y215121*
X790891*
X790354Y214751*
X789817Y214013*
X789549Y212906*
Y212168*
X789817Y211061*
X790354Y210322*
X790891Y209953*
X791696*
X792233Y210322*
X792770Y211061*
X798407Y215121D02*
Y209953D01*
Y214013D02*
X797870Y214751D01*
X797333Y215121*
X796528*
X795991Y214751*
X795454Y214013*
X795186Y212906*
Y212168*
X795454Y211061*
X795991Y210322*
X796528Y209953*
X797333*
X797870Y210322*
X798407Y211061*
X800823Y215121D02*
Y209953D01*
Y212906D02*
X801091Y214013D01*
X801628Y214751*
X802165Y215121*
X802970*
X808607Y217704D02*
Y209953D01*
Y214013D02*
X808070Y214751D01*
X807533Y215121*
X806728*
X806191Y214751*
X805654Y214013*
X805386Y212906*
Y212168*
X805654Y211061*
X806191Y210322*
X806728Y209953*
X807533*
X808070Y210322*
X808607Y211061*
X856299Y292507D02*
Y284756D01*
Y292507D02*
X858715D01*
X859520Y292138*
X859789Y291769*
X860057Y291031*
Y289924*
X859789Y289186*
X859520Y288816*
X858715Y288447*
X856299*
X864621Y292507D02*
X862473Y284756D01*
X864621Y292507D02*
X866768Y284756D01*
X863278Y287340D02*
X865963D01*
X869184Y292507D02*
Y284756D01*
Y292507D02*
X871600D01*
X872405Y292138*
X872674Y291769*
X872942Y291031*
Y290293*
X872674Y289555*
X872405Y289186*
X871600Y288816*
X869184*
X871063D02*
X872942Y284756D01*
X877237Y292507D02*
Y284756D01*
X875358Y292507D02*
X879116D01*
X889853Y293984D02*
X887974Y282173D01*
X891464Y293984D02*
X889585Y282173D01*
X887974Y289186D02*
X891732D01*
X887706Y286971D02*
X891464D01*
X894416Y289924D02*
X894148Y289555D01*
X894416Y289186*
X894685Y289555*
X894416Y289924*
Y285495D02*
X894148Y285126D01*
X894416Y284756*
X894685Y285126*
X894416Y285495*
X903275Y292507D02*
Y284756D01*
Y292507D02*
X905691D01*
X906496Y292138*
X906764Y291769*
X907033Y291031*
Y290293*
X906764Y289555*
X906496Y289186*
X905691Y288816*
X903275D02*
X905691D01*
X906496Y288447*
X906764Y288078*
X907033Y287340*
Y286233*
X906764Y285495*
X906496Y285126*
X905691Y284756*
X903275*
X909449Y292507D02*
Y284756D01*
X911865Y292507D02*
Y284756D01*
Y292507D02*
X914280D01*
X915086Y292138*
X915354Y291769*
X915623Y291031*
Y290293*
X915354Y289555*
X915086Y289186*
X914280Y288816*
X911865*
X913744D02*
X915623Y284756D01*
X918038Y292507D02*
Y284756D01*
Y292507D02*
X919917D01*
X920723Y292138*
X921260Y291400*
X921528Y290662*
X921796Y289555*
Y287709*
X921528Y286602*
X921260Y285864*
X920723Y285126*
X919917Y284756*
X918038*
X928239Y290662D02*
X927970Y291400D01*
X927434Y292138*
X926897Y292507*
X925823*
X925286Y292138*
X924749Y291400*
X924481Y290662*
X924212Y289555*
Y287709*
X924481Y286602*
X924749Y285864*
X925286Y285126*
X925823Y284756*
X926897*
X927434Y285126*
X927970Y285864*
X928239Y286602*
X932802Y292507D02*
X930655Y284756D01*
X932802Y292507D02*
X934950Y284756D01*
X931460Y287340D02*
X934144D01*
X937365Y292507D02*
Y284756D01*
Y292507D02*
X939781D01*
X940587Y292138*
X940855Y291769*
X941124Y291031*
Y290293*
X940855Y289555*
X940587Y289186*
X939781Y288816*
X937365D02*
X939781D01*
X940587Y288447*
X940855Y288078*
X941124Y287340*
Y286233*
X940855Y285495*
X940587Y285126*
X939781Y284756*
X937365*
X943539Y292507D02*
Y284756D01*
X946761*
X949176Y292507D02*
Y284756D01*
Y292507D02*
X952666D01*
X949176Y288816D02*
X951324D01*
X949176Y284756D02*
X952666D01*
X955082Y291031D02*
X955619Y291400D01*
X956424Y292507*
Y284756*
X856299Y278728D02*
Y270977D01*
Y278728D02*
X858715D01*
X859520Y278359*
X859789Y277990*
X860057Y277251*
Y276513*
X859789Y275775*
X859520Y275406*
X858715Y275037*
X856299*
X858178D02*
X860057Y270977D01*
X862473Y278728D02*
Y270977D01*
Y278728D02*
X865963D01*
X862473Y275037D02*
X864621D01*
X862473Y270977D02*
X865963D01*
X868379Y278728D02*
X870526Y270977D01*
X872674Y278728D02*
X870526Y270977D01*
X875089Y278728D02*
Y270977D01*
X881263Y277621D02*
X880726Y278359D01*
X879921Y278728*
X878847*
X878042Y278359*
X877505Y277621*
Y276882*
X877774Y276144*
X878042Y275775*
X878579Y275406*
X880190Y274668*
X880726Y274299*
X880995Y273930*
X881263Y273191*
Y272084*
X880726Y271346*
X879921Y270977*
X878847*
X878042Y271346*
X877505Y272084*
X883679Y278728D02*
Y270977D01*
X887706Y278728D02*
X887169Y278359D01*
X886632Y277621*
X886364Y276882*
X886095Y275775*
Y273930*
X886364Y272822*
X886632Y272084*
X887169Y271346*
X887706Y270977*
X888779*
X889316Y271346*
X889853Y272084*
X890122Y272822*
X890390Y273930*
Y275775*
X890122Y276882*
X889853Y277621*
X889316Y278359*
X888779Y278728*
X887706*
X892806D02*
Y270977D01*
Y278728D02*
X896564Y270977D01*
Y278728D02*
Y270977D01*
X899248Y276144D02*
X898980Y275775D01*
X899248Y275406*
X899517Y275775*
X899248Y276144*
Y271715D02*
X898980Y271346D01*
X899248Y270977*
X899517Y271346*
X899248Y271715*
X910254Y278728D02*
X908106Y270977D01*
X910254Y278728D02*
X912401Y270977D01*
X908912Y273561D02*
X911596D01*
G74*
X0Y0D02*
M02*
