*
*
G04 PADS Layout (Build Number 2008.43.1) generated Gerber (RS-274-X) file*
G04 PC Version=2.1*
*
%IN "bird_cable1.pcb"*%
*
%MOIN*%
*
%FSLAX35Y35*%
*
*
*
*
G04 PC Standard Apertures*
*
*
G04 Thermal Relief Aperture macro.*
%AMTER*
1,1,$1,0,0*
1,0,$1-$2,0,0*
21,0,$3,$4,0,0,45*
21,0,$3,$4,0,0,135*
%
*
*
G04 Annular Aperture macro.*
%AMANN*
1,1,$1,0,0*
1,0,$2,0,0*
%
*
*
G04 Odd Aperture macro.*
%AMODD*
1,1,$1,0,0*
1,0,$1-0.005,0,0*
%
*
*
G04 PC Custom Aperture Macros*
*
*
*
*
*
*
G04 PC Aperture Table*
*
%ADD013C,0.00787*%
%ADD018C,0.001*%
*
*
*
*
G04 PC Circuitry*
G04 Layer Name bird_cable1.pcb - circuitry*
%LPD*%
*
*
G04 PC Custom Flashes*
G04 Layer Name bird_cable1.pcb - flashes*
%LPD*%
*
*
G04 PC Circuitry*
G04 Layer Name bird_cable1.pcb - circuitry*
%LPD*%
*
G54D13*
G01X381890Y345719D02*
Y340551D01*
Y345719D02*
X383500D01*
X384037Y345472*
X384216Y345226*
X384395Y344734*
Y344242*
X384216Y343750*
X384037Y343504*
X383500Y343258*
X381890D02*
X383500D01*
X384037Y343012*
X384216Y342766*
X384395Y342274*
Y341535*
X384216Y341043*
X384037Y340797*
X383500Y340551*
X381890*
X386006Y345719D02*
Y340551D01*
X387616Y345719D02*
Y340551D01*
Y345719D02*
X389227D01*
X389764Y345472*
X389943Y345226*
X390122Y344734*
Y344242*
X389943Y343750*
X389764Y343504*
X389227Y343258*
X387616*
X388869D02*
X390122Y340551D01*
X391732Y345719D02*
Y340551D01*
Y345719D02*
X392985D01*
X393522Y345472*
X393880Y344980*
X394059Y344488*
X394238Y343750*
Y342520*
X394059Y341781*
X393880Y341289*
X393522Y340797*
X392985Y340551*
X391732*
X398533Y344488D02*
X398354Y344980D01*
X397996Y345472*
X397638Y345719*
X396922*
X396564Y345472*
X396206Y344980*
X396027Y344488*
X395848Y343750*
Y342520*
X396027Y341781*
X396206Y341289*
X396564Y340797*
X396922Y340551*
X397638*
X397996Y340797*
X398354Y341289*
X398533Y341781*
X401575Y345719D02*
X400143Y340551D01*
X401575Y345719D02*
X403006Y340551D01*
X400680Y342274D02*
X402470D01*
X404617Y345719D02*
Y340551D01*
Y345719D02*
X406228D01*
X406764Y345472*
X406943Y345226*
X407122Y344734*
Y344242*
X406943Y343750*
X406764Y343504*
X406228Y343258*
X404617D02*
X406228D01*
X406764Y343012*
X406943Y342766*
X407122Y342274*
Y341535*
X406943Y341043*
X406764Y340797*
X406228Y340551*
X404617*
X408733Y345719D02*
Y340551D01*
X410880*
X412491Y345719D02*
Y340551D01*
Y345719D02*
X414817D01*
X412491Y343258D02*
X413923D01*
X412491Y340551D02*
X414817D01*
X416428Y344734D02*
X416786Y344980D01*
X417323Y345719*
Y340551*
X418933Y339567D02*
X422691D01*
X423765Y345719D02*
Y340551D01*
X425913*
X427881Y345719D02*
X429850D01*
X428776Y343750*
X429313*
X429671Y343504*
X429850Y343258*
X430029Y342520*
Y342028*
X429850Y341289*
X429492Y340797*
X428955Y340551*
X428418*
X427881Y340797*
X427702Y341043*
X427523Y341535*
X431818Y341043D02*
X431639Y340797D01*
X431818Y340551*
X431997Y340797*
X431818Y341043*
X433608Y345719D02*
Y340551D01*
Y345719D02*
X435218D01*
X435755Y345472*
X435934Y345226*
X436113Y344734*
Y343996*
X435934Y343504*
X435755Y343258*
X435218Y343012*
X433608*
X437724Y345719D02*
Y340551D01*
X440229Y345719D02*
Y340551D01*
X437724Y343258D02*
X440229D01*
X442913Y345719D02*
X442555Y345472D01*
X442198Y344980*
X442019Y344488*
X441840Y343750*
Y342520*
X442019Y341781*
X442198Y341289*
X442555Y340797*
X442913Y340551*
X443629*
X443987Y340797*
X444345Y341289*
X444524Y341781*
X444703Y342520*
Y343750*
X444524Y344488*
X444345Y344980*
X443987Y345472*
X443629Y345719*
X442913*
X450429Y342766D02*
X453651D01*
X459377Y345719D02*
Y340551D01*
X461525*
X464567Y345719D02*
X463135Y340551D01*
X464567Y345719D02*
X465999Y340551D01*
X463672Y342274D02*
X465462D01*
X467609Y345719D02*
X469041Y343258D01*
Y340551*
X470472Y345719D02*
X469041Y343258D01*
X472083Y345719D02*
Y340551D01*
Y345719D02*
X474409D01*
X472083Y343258D02*
X473515D01*
X472083Y340551D02*
X474409D01*
X476020Y345719D02*
Y340551D01*
Y345719D02*
X477631D01*
X478168Y345472*
X478168D02*
X478346Y345226D01*
X478525Y344734*
Y344242*
X478346Y343750*
X478168Y343504*
X478168D02*
X477631Y343258D01*
X476020*
X477273D02*
X478525Y340551D01*
X484610Y345719D02*
X486578D01*
X485505Y343750*
X486042*
X486399Y343504*
X486578Y343258*
X486757Y342520*
Y342028*
X486578Y341289*
X486220Y340797*
X485684Y340551*
X485147*
X484610Y340797*
X484431Y341043*
X484252Y341535*
X493737Y346703D02*
X493379Y346211D01*
X493021Y345472*
X492663Y344488*
X492484Y343258*
Y342274*
X492663Y341043*
X493021Y340059*
X493379Y339321*
X493737Y338829*
X495347Y345719D02*
Y340551D01*
Y345719D02*
X496958D01*
X497495Y345472*
X497674Y345226*
X497853Y344734*
Y343996*
X497674Y343504*
X497495Y343258*
X496958Y343012*
X495347*
X500537Y345719D02*
X500179Y345472D01*
X499821Y344980*
X499642Y344488*
X499463Y343750*
Y342520*
X499642Y341781*
X499821Y341289*
X500179Y340797*
X500537Y340551*
X501253*
X501611Y340797*
X501969Y341289*
X502147Y341781*
X502326Y342520*
Y343750*
X502147Y344488*
X501969Y344980*
X501611Y345472*
X501253Y345719*
X500537*
X503937D02*
Y340551D01*
X506084*
X507695Y345719D02*
X509127Y343258D01*
Y340551*
X510558Y345719D02*
X509127Y343258D01*
X512169Y345719D02*
Y340551D01*
Y345719D02*
X513601Y340551D01*
X515032Y345719D02*
X513601Y340551D01*
X515032Y345719D02*
Y340551D01*
X516643Y345719D02*
Y340551D01*
X518253Y345719D02*
Y340551D01*
Y345719D02*
X519506D01*
X520043Y345472*
X520401Y344980*
X520580Y344488*
X520759Y343750*
Y342520*
X520580Y341781*
X520401Y341289*
X520043Y340797*
X519506Y340551*
X518253*
X522369Y345719D02*
Y340551D01*
Y345719D02*
X524696D01*
X522369Y343258D02*
X523801D01*
X522369Y340551D02*
X524696D01*
X530422Y345719D02*
Y340551D01*
Y345719D02*
X532033D01*
X532570Y345472*
X532749Y345226*
X532928Y344734*
Y344242*
X532749Y343750*
X532570Y343504*
X532033Y343258*
X530422D02*
X532033D01*
X532570Y343012*
X532749Y342766*
X532928Y342274*
Y341535*
X532749Y341043*
X532570Y340797*
X532033Y340551*
X530422*
X535612Y345719D02*
X535254Y345472D01*
X534896Y344980*
X534717Y344488*
X534538Y343750*
Y342520*
X534717Y341781*
X534896Y341289*
X535254Y340797*
X535612Y340551*
X536328*
X536686Y340797*
X537044Y341289*
X537223Y341781*
X537402Y342520*
Y343750*
X537223Y344488*
X537044Y344980*
X536686Y345472*
X536328Y345719*
X535612*
X540265D02*
Y340551D01*
X539012Y345719D02*
X541518D01*
X544381D02*
Y340551D01*
X543128Y345719D02*
X545634D01*
X548318D02*
X547960Y345472D01*
X547602Y344980*
X547423Y344488*
X547244Y343750*
Y342520*
X547423Y341781*
X547602Y341289*
X547960Y340797*
X548318Y340551*
X549034*
X549392Y340797*
X549749Y341289*
X549928Y341781*
X550107Y342520*
Y343750*
X549928Y344488*
X549749Y344980*
X549392Y345472*
X549034Y345719*
X548318*
X551718D02*
Y340551D01*
Y345719D02*
X553150Y340551D01*
X554581Y345719D02*
X553150Y340551D01*
X554581Y345719D02*
Y340551D01*
X562813Y344980D02*
X562455Y345472D01*
X561918Y345719*
X561203*
X560666Y345472*
X560308Y344980*
Y344488*
X560487Y343996*
X560666Y343750*
X561024Y343504*
X562097Y343012*
X562455Y342766*
X562634Y342520*
X562813Y342028*
Y341289*
X562455Y340797*
X561918Y340551*
X561203*
X560666Y340797*
X560308Y341289*
X564424Y345719D02*
Y342028D01*
X564603Y341289*
X564961Y340797*
X565497Y340551*
X565855*
X566392Y340797*
X566750Y341289*
X566929Y342028*
Y345719*
X568540D02*
Y340551D01*
Y345719D02*
X570150D01*
X570687Y345472*
X570866Y345226*
X571045Y344734*
Y344242*
X570866Y343750*
X570687Y343504*
X570150Y343258*
X568540D02*
X570150D01*
X570687Y343012*
X570866Y342766*
X571045Y342274*
Y341535*
X570866Y341043*
X570687Y340797*
X570150Y340551*
X568540*
X575161Y344980D02*
X574803Y345472D01*
X574266Y345719*
X573550*
X573014Y345472*
X572656Y344980*
Y344488*
X572835Y343996*
X573014Y343750*
X573372Y343504*
X574445Y343012*
X574803Y342766*
X574982Y342520*
X575161Y342028*
Y341289*
X574803Y340797*
X574266Y340551*
X573550*
X573014Y340797*
X572656Y341289*
X578024Y345719D02*
Y340551D01*
X576772Y345719D02*
X579277D01*
X580888D02*
Y340551D01*
Y345719D02*
X582498D01*
X583035Y345472*
X583214Y345226*
X583393Y344734*
Y344242*
X583214Y343750*
X583035Y343504*
X582498Y343258*
X580888*
X582140D02*
X583393Y340551D01*
X586435Y345719D02*
X585004Y340551D01*
X586435Y345719D02*
X587867Y340551D01*
X585540Y342274D02*
X587330D01*
X590730Y345719D02*
Y340551D01*
X589477Y345719D02*
X591983D01*
X593593D02*
Y340551D01*
Y345719D02*
X595920D01*
X593593Y343258D02*
X595025D01*
X593593Y340551D02*
X595920D01*
X597530Y346703D02*
X597888Y346211D01*
X598246Y345472*
X598604Y344488*
X598783Y343258*
Y342274*
X598604Y341043*
X598246Y340059*
X597888Y339321*
X597530Y338829*
X605762Y345719D02*
Y340551D01*
X604510Y345719D02*
X607015D01*
X608626D02*
Y340551D01*
X611131Y345719D02*
Y340551D01*
X608626Y343258D02*
X611131D01*
X612742Y345719D02*
Y340551D01*
X617037Y344488D02*
X616858Y344980D01*
X616500Y345472*
X616142Y345719*
X615426*
X615068Y345472*
X614710Y344980*
X614531Y344488*
X614352Y343750*
Y342520*
X614531Y341781*
X614710Y341289*
X615068Y340797*
X615426Y340551*
X616142*
X616500Y340797*
X616858Y341289*
X617037Y341781*
X618647Y345719D02*
Y340551D01*
X621152Y345719D02*
X618647Y342274D01*
X619542Y343504D02*
X621152Y340551D01*
X622763Y345719D02*
Y340551D01*
Y345719D02*
X625268Y340551D01*
Y345719D02*
Y340551D01*
X626879Y345719D02*
Y340551D01*
Y345719D02*
X629205D01*
X626879Y343258D02*
X628311D01*
X626879Y340551D02*
X629205D01*
X633321Y344980D02*
X632963Y345472D01*
X632427Y345719*
X631711*
X631174Y345472*
X630816Y344980*
Y344488*
X630995Y343996*
X631174Y343750*
X631532Y343504*
X632606Y343012*
X632963Y342766*
X633142Y342520*
X633321Y342028*
Y341289*
X632963Y340797*
X632427Y340551*
X631711*
X631174Y340797*
X630816Y341289*
X637437Y344980D02*
X637079Y345472D01*
X636543Y345719*
X635827*
X635290Y345472*
X634932Y344980*
Y344488*
X635111Y343996*
X635290Y343750*
X635648Y343504*
X636722Y343012*
X637079Y342766*
X637258Y342520*
X637437Y342028*
Y341289*
X637079Y340797*
X636543Y340551*
X635827*
X635290Y340797*
X634932Y341289*
X639227Y343996D02*
X639048Y343750D01*
X639227Y343504*
X639406Y343750*
X639227Y343996*
Y341043D02*
X639048Y340797D01*
X639227Y340551*
X639406Y340797*
X639227Y341043*
X645311Y344488D02*
Y344734D01*
X645490Y345226*
X645669Y345472*
X646027Y345719*
X646743*
X647101Y345472*
X647280Y345226*
X647459Y344734*
Y344242*
X647280Y343750*
X646922Y343012*
X645132Y340551*
X647638*
X653364Y343996D02*
Y340551D01*
Y343012D02*
X653901Y343750D01*
X654259Y343996*
X654796*
X655154Y343750*
X655333Y343012*
Y340551*
Y343012D02*
X655870Y343750D01*
X656228Y343996*
X656764*
X657122Y343750*
X657301Y343012*
Y340551*
X658912Y345719D02*
X659091Y345472D01*
X659270Y345719*
X659091Y345965*
X658912Y345719*
X659091Y343996D02*
Y340551D01*
X660880Y345719D02*
Y340551D01*
X664460Y343258D02*
X664281Y343750D01*
X663744Y343996*
X663207*
X662670Y343750*
X662491Y343258*
X662670Y342766*
X663028Y342520*
X663923Y342274*
X664281Y342028*
X664460Y341535*
Y341289*
X664281Y340797*
X663744Y340551*
X663207*
X662670Y340797*
X662491Y341289*
X670186Y342766D02*
X673407D01*
X679134Y345719D02*
Y340551D01*
Y345719D02*
X681639Y340551D01*
Y345719D02*
Y340551D01*
X684324Y345719D02*
X683966Y345472D01*
X683608Y344980*
X683429Y344488*
X683250Y343750*
Y342520*
X683429Y341781*
X683608Y341289*
X683966Y340797*
X684324Y340551*
X685039*
X685397Y340797*
X685755Y341289*
X685934Y341781*
X686113Y342520*
Y343750*
X685934Y344488*
X685755Y344980*
X685397Y345472*
X685039Y345719*
X684324*
X691840D02*
Y340551D01*
Y345719D02*
X693092D01*
X693629Y345472*
X693987Y344980*
X694166Y344488*
X694345Y343750*
Y342520*
X694166Y341781*
X693987Y341289*
X693629Y340797*
X693092Y340551*
X691840*
X695956Y345719D02*
Y340551D01*
Y345719D02*
X698282D01*
X695956Y343258D02*
X697387D01*
X695956Y340551D02*
X698282D01*
X702398Y344980D02*
X702040Y345472D01*
X701503Y345719*
X700787*
X700251Y345472*
X699893Y344980*
Y344488*
X700072Y343996*
X700251Y343750*
X700608Y343504*
X701682Y343012*
X702040Y342766*
X702219Y342520*
X702398Y342028*
Y341289*
X702040Y340797*
X701503Y340551*
X700787*
X700251Y340797*
X699893Y341289*
X704009Y345719D02*
Y340551D01*
X708304Y344488D02*
X708125Y344980D01*
X707767Y345472*
X707409Y345719*
X706693*
X706335Y345472*
X705977Y344980*
X705798Y344488*
X705619Y343750*
Y342520*
X705798Y341781*
X705977Y341289*
X706335Y340797*
X706693Y340551*
X707409*
X707767Y340797*
X708125Y341289*
X708304Y341781*
Y342520*
X707409D02*
X708304D01*
X709914Y345719D02*
Y340551D01*
Y345719D02*
X712419Y340551D01*
Y345719D02*
Y340551D01*
X718146Y345719D02*
Y340551D01*
Y345719D02*
X719399D01*
X719936Y345472*
X720293Y344980*
X720472Y344488*
X720651Y343750*
Y342520*
X720472Y341781*
X720293Y341289*
X719936Y340797*
X719399Y340551*
X718146*
X722262Y345719D02*
Y340551D01*
Y345719D02*
X724588D01*
X722262Y343258D02*
X723694D01*
X722262Y340551D02*
X724588D01*
X727452Y345719D02*
Y340551D01*
X726199Y345719D02*
X728704D01*
X731747D02*
X730315Y340551D01*
X731747Y345719D02*
X733178Y340551D01*
X730852Y342274D02*
X732641D01*
X734789Y345719D02*
Y340551D01*
X736399Y345719D02*
Y340551D01*
X738547*
X742663Y344980D02*
X742305Y345472D01*
X741768Y345719*
X741052*
X740515Y345472*
X740157Y344980*
Y344488*
X740336Y343996*
X740515Y343750*
X740873Y343504*
X741947Y343012*
X742305Y342766*
X742484Y342520*
X742663Y342028*
Y341289*
X742305Y340797*
X741768Y340551*
X741052*
X740515Y340797*
X740157Y341289*
X749463Y345719D02*
X749105Y345472D01*
X748747Y344980*
X748568Y344488*
X748389Y343750*
Y342520*
X748568Y341781*
X748747Y341289*
X749105Y340797*
X749463Y340551*
X750179*
X750537Y340797*
X750895Y341289*
X751074Y341781*
X751253Y342520*
Y343750*
X751074Y344488*
X750895Y344980*
X750537Y345472*
X750179Y345719*
X749463*
X752863D02*
Y340551D01*
Y345719D02*
X755369Y340551D01*
Y345719D02*
Y340551D01*
X762348Y345719D02*
Y340551D01*
X761095Y345719D02*
X763601D01*
X765211D02*
Y340551D01*
X767717Y345719D02*
Y340551D01*
X765211Y343258D02*
X767717D01*
X769327Y345719D02*
Y340551D01*
X773443Y344980D02*
X773085Y345472D01*
X772548Y345719*
X771832*
X771832D02*
X771296Y345472D01*
X770938Y344980*
Y344488*
X771117Y343996*
X771296Y343750*
X771654Y343504*
X772727Y343012*
X773085Y342766*
X773264Y342520*
X773443Y342028*
Y341289*
X773085Y340797*
X772548Y340551*
X771832*
X771832D02*
X771296Y340797D01*
X770938Y341289*
X779170Y345719D02*
Y340551D01*
X781317*
X784359Y345719D02*
X782928Y340551D01*
X784359Y345719D02*
X785791Y340551D01*
X783465Y342274D02*
X785254D01*
X787402Y345719D02*
X788833Y343258D01*
Y340551*
X790265Y345719D02*
X788833Y343258D01*
X791875Y345719D02*
Y340551D01*
Y345719D02*
X794202D01*
X791875Y343258D02*
X793307D01*
X791875Y340551D02*
X794202D01*
X795812Y345719D02*
Y340551D01*
Y345719D02*
X797423D01*
X797960Y345472*
X798139Y345226*
X798318Y344734*
Y344242*
X798139Y343750*
X797960Y343504*
X797423Y343258*
X795812*
X797065D02*
X798318Y340551D01*
G54D18*
X0Y0D02*
M02*
