*
*
G04 PADS Layout (Build Number 2008.43.1) generated Gerber (RS-274-X) file*
G04 PC Version=2.1*
*
%IN "bird_cable1.pcb"*%
*
%MOIN*%
*
%FSLAX35Y35*%
*
*
*
*
G04 PC Standard Apertures*
*
*
G04 Thermal Relief Aperture macro.*
%AMTER*
1,1,$1,0,0*
1,0,$1-$2,0,0*
21,0,$3,$4,0,0,45*
21,0,$3,$4,0,0,135*
%
*
*
G04 Annular Aperture macro.*
%AMANN*
1,1,$1,0,0*
1,0,$2,0,0*
%
*
*
G04 Odd Aperture macro.*
%AMODD*
1,1,$1,0,0*
1,0,$1-0.005,0,0*
%
*
*
G04 PC Custom Aperture Macros*
*
*
*
*
*
*
G04 PC Aperture Table*
*
%ADD011C,0.00984*%
%ADD013C,0.00787*%
%ADD014C,0.00394*%
%ADD018C,0.001*%
%ADD022C,0.00591*%
%ADD025C,0.01*%
*
*
*
*
G04 PC Circuitry*
G04 Layer Name bird_cable1.pcb - circuitry*
%LPD*%
*
*
G04 PC Custom Flashes*
G04 Layer Name bird_cable1.pcb - flashes*
%LPD*%
*
*
G04 PC Circuitry*
G04 Layer Name bird_cable1.pcb - circuitry*
%LPD*%
*
G54D11*
G01X386043Y408780D02*
G75*
G03X386043I-492J0D01*
G01X1543543D02*
G03X1543543I-492J0D01*
G01X381890Y419291D02*
X952577D01*
X381890D02*
X391732Y421260D01*
Y417323*
X381890Y419291*
X1562992D02*
X992305D01*
X1562992D02*
X1553150Y417323D01*
Y421260*
X1562992Y419291*
X381890Y415354D02*
Y423228D01*
X1562992Y415354D02*
Y423228D01*
X954993Y422060D02*
X957453D01*
X956111Y419599*
X956782*
X957230Y419291*
X957453Y418984*
X957677Y418061*
Y417446*
X957453Y416523*
X957006Y415908*
X956335Y415600*
X955664*
X954993Y415908*
X954769Y416216*
X954545Y416831*
X961033Y422060D02*
X960361Y421752D01*
X959914Y420829*
X959690Y419291*
Y418369*
X959914Y416831*
X960361Y415908*
X961033Y415600*
X961480*
X962151Y415908*
X962598Y416831*
X962822Y418369*
Y419291*
X962598Y420829*
X962151Y421752*
X961480Y422060*
X961033*
X966178D02*
X965506Y421752D01*
X965059Y420829*
X964835Y419291*
Y418369*
X965059Y416831*
X965506Y415908*
X966178Y415600*
X966625*
X967296Y415908*
X967743Y416831*
X967967Y418369*
Y419291*
X967743Y420829*
X967296Y421752*
X966625Y422060*
X966178*
X970204Y416216D02*
X969980Y415908D01*
X970204Y415600*
X970428Y415908*
X970204Y416216*
X973783Y422060D02*
X973112Y421752D01*
X972665Y420829*
X972441Y419291*
Y418369*
X972665Y416831*
X973112Y415908*
X973783Y415600*
X974230*
X974902Y415908*
X975349Y416831*
X975573Y418369*
Y419291*
X975349Y420829*
X974902Y421752*
X974230Y422060*
X973783*
X977586Y419906D02*
Y415600D01*
Y418676D02*
X978257Y419599D01*
X978704Y419906*
X979375*
X979823Y419599*
X980047Y418676*
Y415600*
Y418676D02*
X980718Y419599D01*
X981165Y419906*
X981836*
X982283Y419599*
X982507Y418676*
Y415600*
X984520Y419906D02*
Y415600D01*
Y418676D02*
X985191Y419599D01*
X985639Y419906*
X986310*
X986757Y419599*
X986981Y418676*
Y415600*
Y418676D02*
X987652Y419599D01*
X988099Y419906*
X988099D02*
X988771D01*
X989218Y419599*
X989442Y418676*
Y415600*
G54D13*
X381890Y314222D02*
Y309055D01*
Y314222D02*
X383500D01*
X384037Y313976*
X384216Y313730*
X384395Y313238*
Y312746*
X384216Y312254*
X384037Y312008*
X383500Y311762*
X381890D02*
X383500D01*
X384037Y311516*
X384216Y311270*
X384395Y310778*
Y310039*
X384216Y309547*
X384037Y309301*
X383500Y309055*
X381890*
X386006Y314222D02*
Y309055D01*
X387616Y314222D02*
Y309055D01*
Y314222D02*
X389227D01*
X389764Y313976*
X389943Y313730*
X390122Y313238*
Y312746*
X389943Y312254*
X389764Y312008*
X389227Y311762*
X387616*
X388869D02*
X390122Y309055D01*
X391732Y314222D02*
Y309055D01*
Y314222D02*
X392985D01*
X393522Y313976*
X393880Y313484*
X394059Y312992*
X394238Y312254*
Y311024*
X394059Y310285*
X393880Y309793*
X393522Y309301*
X392985Y309055*
X391732*
X398533Y312992D02*
X398354Y313484D01*
X397996Y313976*
X397638Y314222*
X396922*
X396564Y313976*
X396206Y313484*
X396027Y312992*
X395848Y312254*
Y311024*
X396027Y310285*
X396206Y309793*
X396564Y309301*
X396922Y309055*
X397638*
X397996Y309301*
X398354Y309793*
X398533Y310285*
X401575Y314222D02*
X400143Y309055D01*
X401575Y314222D02*
X403006Y309055D01*
X400680Y310778D02*
X402470D01*
X404617Y314222D02*
Y309055D01*
Y314222D02*
X406228D01*
X406764Y313976*
X406943Y313730*
X407122Y313238*
Y312746*
X406943Y312254*
X406764Y312008*
X406228Y311762*
X404617D02*
X406228D01*
X406764Y311516*
X406943Y311270*
X407122Y310778*
Y310039*
X406943Y309547*
X406764Y309301*
X406228Y309055*
X404617*
X408733Y314222D02*
Y309055D01*
X410880*
X412491Y314222D02*
Y309055D01*
Y314222D02*
X414817D01*
X412491Y311762D02*
X413923D01*
X412491Y309055D02*
X414817D01*
X416428Y313238D02*
X416786Y313484D01*
X417323Y314222*
Y309055*
X418933Y308071D02*
X422691D01*
X425197Y314222D02*
X423765Y309055D01*
X425197Y314222D02*
X426628Y309055D01*
X424302Y310778D02*
X426092D01*
X429492Y314222D02*
Y309055D01*
X428239Y314222D02*
X430744D01*
X432534Y309547D02*
X432355Y309301D01*
X432534Y309055*
X432713Y309301*
X432534Y309547*
X434324Y314222D02*
Y309055D01*
Y314222D02*
X435934D01*
X436471Y313976*
X436650Y313730*
X436829Y313238*
Y312500*
X436650Y312008*
X436471Y311762*
X435934Y311516*
X434324*
X438440Y314222D02*
Y309055D01*
X440945Y314222D02*
Y309055D01*
X438440Y311762D02*
X440945D01*
X443629Y314222D02*
X443271Y313976D01*
X442913Y313484*
X442734Y312992*
X442555Y312254*
Y311024*
X442734Y310285*
X442913Y309793*
X443271Y309301*
X443629Y309055*
X444345*
X444703Y309301*
X445061Y309793*
X445240Y310285*
X445419Y311024*
Y312254*
X445240Y312992*
X445061Y313484*
X444703Y313976*
X444345Y314222*
X443629*
X451145Y311270D02*
X454366D01*
X461525Y314222D02*
X460093Y309055D01*
X461525Y314222D02*
X462956Y309055D01*
X460630Y310778D02*
X462419D01*
X467072Y313484D02*
X466714Y313976D01*
X466178Y314222*
X465462*
X464925Y313976*
X464567Y313484*
Y312992*
X464746Y312500*
X464925Y312254*
X465283Y312008*
X466356Y311516*
X466714Y311270*
X466893Y311024*
X467072Y310531*
Y309793*
X466714Y309301*
X466178Y309055*
X465462*
X464925Y309301*
X464567Y309793*
X471188Y313484D02*
X470830Y313976D01*
X470293Y314222*
X469578*
X469041Y313976*
X468683Y313484*
Y312992*
X468862Y312500*
X469041Y312254*
X469399Y312008*
X470472Y311516*
X470830Y311270*
X471009Y311024*
X471188Y310531*
Y309793*
X470830Y309301*
X470293Y309055*
X469578*
X469041Y309301*
X468683Y309793*
X472799Y314222D02*
Y309055D01*
Y314222D02*
X475125D01*
X472799Y311762D02*
X474230D01*
X472799Y309055D02*
X475125D01*
X476736Y314222D02*
Y309055D01*
Y314222D02*
X478168Y309055D01*
X479599Y314222D02*
X478168Y309055D01*
X479599Y314222D02*
Y309055D01*
X481210Y314222D02*
Y309055D01*
Y314222D02*
X482820D01*
X483357Y313976*
X483536Y313730*
X483715Y313238*
Y312746*
X483536Y312254*
X483357Y312008*
X482820Y311762*
X481210D02*
X482820D01*
X483357Y311516*
X483536Y311270*
X483715Y310778*
Y310039*
X483536Y309547*
X483357Y309301*
X482820Y309055*
X481210*
X485326Y314222D02*
Y309055D01*
X487473*
X489084Y314222D02*
X490515Y311762D01*
Y309055*
X491947Y314222D02*
X490515Y311762D01*
X498926Y314222D02*
Y309055D01*
X497674Y314222D02*
X500179D01*
X502863D02*
X502505Y313976D01*
X502147Y313484*
X501969Y312992*
X501790Y312254*
Y311024*
X501969Y310285*
X502147Y309793*
X502505Y309301*
X502863Y309055*
X503579*
X503937Y309301*
X504295Y309793*
X504474Y310285*
X504653Y311024*
Y312254*
X504474Y312992*
X504295Y313484*
X503937Y313976*
X503579Y314222*
X502863*
X506263D02*
Y309055D01*
Y314222D02*
X507874D01*
X508411Y313976*
X508590Y313730*
X508769Y313238*
Y312500*
X508590Y312008*
X508411Y311762*
X507874Y311516*
X506263*
G54D14*
X389193Y409449D02*
X398209D01*
Y377953*
X389193*
Y409449*
X1546693D02*
X1555709D01*
Y377953*
X1546693*
Y409449*
G54D18*
X381890Y411417D02*
X381892D01*
X1562992D02*
X1562995D01*
G54D22*
X381890D02*
Y375984D01*
X417323*
X433066Y388779D02*
G03X417323Y375985I1437J-17850D01*
G01X433071Y388780D02*
X1511811D01*
X1527559Y375985D02*
G03X1511816Y388779I-17180J-5056D01*
G01X1527559Y375984D02*
X1562992D01*
Y411417*
X1527559*
X1511789Y400591D02*
G03X1527555Y411407I562J16081D01*
G01X1511811Y400591D02*
X433071D01*
X417316Y411434D02*
G03X433064Y400591I15808J6100D01*
G01X417323Y411417D02*
X381890D01*
G54D25*
X392685Y396357D02*
Y391357D01*
X392458Y390420*
X392231Y390107*
X391776Y389795*
X391322*
X390867Y390107*
X390640Y390420*
X390413Y391357*
Y391982*
X394731Y395107D02*
X395185Y395420D01*
X395867Y396357*
Y389795*
X1549556Y396357D02*
Y391357D01*
X1549329Y390420*
X1549102Y390107*
X1548647Y389795*
X1548193*
X1547738Y390107*
X1547511Y390420*
X1547284Y391357*
Y391982*
X1551829Y394795D02*
Y395107D01*
X1552056Y395732*
X1552284Y396045*
X1552738Y396357*
X1553647*
X1554102Y396045*
X1554329Y395732*
X1554556Y395107*
Y394482*
X1554329Y393857*
X1553875Y392920*
X1551602Y389795*
X1554784*
G74*
X0Y0D02*
M02*
