*
*
G04 PADS Layout (Build Number 2008.43.1) generated Gerber (RS-274-X) file*
G04 PC Version=2.1*
*
%IN "bird_cable1.pcb"*%
*
%MOIN*%
*
%FSLAX35Y35*%
*
*
*
*
G04 PC Standard Apertures*
*
*
G04 Thermal Relief Aperture macro.*
%AMTER*
1,1,$1,0,0*
1,0,$1-$2,0,0*
21,0,$3,$4,0,0,45*
21,0,$3,$4,0,0,135*
%
*
*
G04 Annular Aperture macro.*
%AMANN*
1,1,$1,0,0*
1,0,$2,0,0*
%
*
*
G04 Odd Aperture macro.*
%AMODD*
1,1,$1,0,0*
1,0,$1-0.005,0,0*
%
*
*
G04 PC Custom Aperture Macros*
*
*
*
*
*
*
G04 PC Aperture Table*
*
%ADD013C,0.00787*%
%ADD018C,0.001*%
%ADD020R,0.02402X0.02402*%
%ADD021C,0.005*%
*
*
*
*
G04 PC Circuitry*
G04 Layer Name bird_cable1.pcb - circuitry*
%LPD*%
*
*
G04 PC Custom Flashes*
G04 Layer Name bird_cable1.pcb - flashes*
%LPD*%
*
*
G04 PC Circuitry*
G04 Layer Name bird_cable1.pcb - circuitry*
%LPD*%
*
G54D13*
G01X381890Y353593D02*
Y348425D01*
Y353593D02*
X383500D01*
X384037Y353346*
X384216Y353100*
X384395Y352608*
Y352116*
X384216Y351624*
X384037Y351378*
X383500Y351132*
X381890D02*
X383500D01*
X384037Y350886*
X384216Y350640*
X384395Y350148*
Y349409*
X384216Y348917*
X384037Y348671*
X383500Y348425*
X381890*
X386006Y353593D02*
Y348425D01*
X387616Y353593D02*
Y348425D01*
Y353593D02*
X389227D01*
X389764Y353346*
X389943Y353100*
X390122Y352608*
Y352116*
X389943Y351624*
X389764Y351378*
X389227Y351132*
X387616*
X388869D02*
X390122Y348425D01*
X391732Y353593D02*
Y348425D01*
Y353593D02*
X392985D01*
X393522Y353346*
X393880Y352854*
X394059Y352362*
X394238Y351624*
Y350394*
X394059Y349656*
X393880Y349163*
X393522Y348671*
X392985Y348425*
X391732*
X398533Y352362D02*
X398354Y352854D01*
X397996Y353346*
X397638Y353593*
X396922*
X396564Y353346*
X396206Y352854*
X396027Y352362*
X395848Y351624*
Y350394*
X396027Y349656*
X396206Y349163*
X396564Y348671*
X396922Y348425*
X397638*
X397996Y348671*
X398354Y349163*
X398533Y349656*
X401575Y353593D02*
X400143Y348425D01*
X401575Y353593D02*
X403006Y348425D01*
X400680Y350148D02*
X402470D01*
X404617Y353593D02*
Y348425D01*
Y353593D02*
X406228D01*
X406764Y353346*
X406943Y353100*
X407122Y352608*
Y352116*
X406943Y351624*
X406764Y351378*
X406228Y351132*
X404617D02*
X406228D01*
X406764Y350886*
X406943Y350640*
X407122Y350148*
Y349409*
X406943Y348917*
X406764Y348671*
X406228Y348425*
X404617*
X408733Y353593D02*
Y348425D01*
X410880*
X412491Y353593D02*
Y348425D01*
Y353593D02*
X414817D01*
X412491Y351132D02*
X413923D01*
X412491Y348425D02*
X414817D01*
X416428Y352608D02*
X416786Y352854D01*
X417323Y353593*
Y348425*
X418933Y347441D02*
X422691D01*
X423765Y353593D02*
Y348425D01*
X425913*
X427702Y352362D02*
Y352608D01*
X427881Y353100*
X428060Y353346*
X428418Y353593*
X429134*
X429492Y353346*
X429671Y353100*
X429850Y352608*
Y352116*
X429671Y351624*
X429313Y350886*
X427523Y348425*
X430029*
X431818Y348917D02*
X431639Y348671D01*
X431818Y348425*
X431997Y348671*
X431818Y348917*
X433608Y353593D02*
Y348425D01*
Y353593D02*
X435218D01*
X435755Y353346*
X435934Y353100*
X436113Y352608*
Y351870*
X435934Y351378*
X435755Y351132*
X435218Y350886*
X433608*
X437724Y353593D02*
Y348425D01*
X440229Y353593D02*
Y348425D01*
X437724Y351132D02*
X440229D01*
X442913Y353593D02*
X442555Y353346D01*
X442198Y352854*
X442019Y352362*
X441840Y351624*
Y350394*
X442019Y349656*
X442198Y349163*
X442555Y348671*
X442913Y348425*
X443629*
X443987Y348671*
X444345Y349163*
X444524Y349656*
X444703Y350394*
Y351624*
X444524Y352362*
X444345Y352854*
X443987Y353346*
X443629Y353593*
X442913*
X450429Y350640D02*
X453651D01*
X459377Y353593D02*
Y348425D01*
X461525*
X464567Y353593D02*
X463135Y348425D01*
X464567Y353593D02*
X465999Y348425D01*
X463672Y350148D02*
X465462D01*
X467609Y353593D02*
X469041Y351132D01*
Y348425*
X470472Y353593D02*
X469041Y351132D01*
X472083Y353593D02*
Y348425D01*
Y353593D02*
X474409D01*
X472083Y351132D02*
X473515D01*
X472083Y348425D02*
X474409D01*
X476020Y353593D02*
Y348425D01*
Y353593D02*
X477631D01*
X478168Y353346*
X478168D02*
X478346Y353100D01*
X478525Y352608*
Y352116*
X478346Y351624*
X478168Y351378*
X478168D02*
X477631Y351132D01*
X476020*
X477273D02*
X478525Y348425D01*
X484431Y352362D02*
Y352608D01*
X484610Y353100*
X484789Y353346*
X485147Y353593*
X485863*
X486220Y353346*
X486399Y353100*
X486578Y352608*
Y352116*
X486399Y351624*
X486042Y350886*
X484252Y348425*
X486757*
X493737Y354577D02*
X493379Y354085D01*
X493021Y353346*
X492663Y352362*
X492484Y351132*
Y350148*
X492663Y348917*
X493021Y347933*
X493379Y347195*
X493737Y346703*
X498031Y352362D02*
X497853Y352854D01*
X497495Y353346*
X497137Y353593*
X496421*
X496063Y353346*
X495705Y352854*
X495526Y352362*
X495347Y351624*
Y350394*
X495526Y349656*
X495705Y349163*
X496063Y348671*
X496421Y348425*
X497137*
X497495Y348671*
X497853Y349163*
X498031Y349656*
X500716Y353593D02*
X500358Y353346D01*
X500000Y352854*
X499821Y352362*
X499642Y351624*
Y350394*
X499821Y349656*
X500000Y349163*
X500358Y348671*
X500716Y348425*
X501432*
X501790Y348671*
X502147Y349163*
X502326Y349656*
X502505Y350394*
Y351624*
X502326Y352362*
X502147Y352854*
X501790Y353346*
X501432Y353593*
X500716*
X504116D02*
Y348425D01*
Y353593D02*
X505727D01*
X506263Y353346*
X506442Y353100*
X506621Y352608*
Y351870*
X506442Y351378*
X506263Y351132*
X505727Y350886*
X504116*
X508232Y353593D02*
Y348425D01*
Y353593D02*
X509843D01*
X510379Y353346*
X510558Y353100*
X510737Y352608*
Y351870*
X510558Y351378*
X510379Y351132*
X509843Y350886*
X508232*
X512348Y353593D02*
Y348425D01*
Y353593D02*
X514674D01*
X512348Y351132D02*
X513780D01*
X512348Y348425D02*
X514674D01*
X516285Y353593D02*
Y348425D01*
Y353593D02*
X517895D01*
X518432Y353346*
X518611Y353100*
X518790Y352608*
Y352116*
X518611Y351624*
X518432Y351378*
X517895Y351132*
X516285*
X517538D02*
X518790Y348425D01*
X520401Y354577D02*
X520759Y354085D01*
X521117Y353346*
X521475Y352362*
X521654Y351132*
Y350148*
X521475Y348917*
X521117Y347933*
X520759Y347195*
X520401Y346703*
X527380Y352608D02*
X527738Y352854D01*
X528275Y353593*
Y348425*
X530780Y351870D02*
X530422Y351624D01*
X530064Y351132*
X529885Y350394*
Y349902*
X530064Y349163*
X530422Y348671*
X530780Y348425*
X531317*
X531675Y348671*
X532033Y349163*
X532212Y349902*
Y350394*
X532033Y351132*
X531675Y351624*
X531317Y351870*
X530780*
X535791D02*
X533822Y348425D01*
Y351870D02*
X535791D01*
X533822Y348425D02*
X535791D01*
X541518Y353593D02*
X541696Y353346D01*
X541875Y353593*
X541696Y353839*
X541518Y353593*
X541696Y351870D02*
Y348425D01*
X543486Y351870D02*
Y348425D01*
Y350886D02*
X544023Y351624D01*
X544381Y351870*
X544918*
X545276Y351624*
X545455Y350886*
Y348425*
X547065Y353593D02*
X547244Y353346D01*
X547423Y353593*
X547244Y353839*
X547065Y353593*
X547244Y351870D02*
Y348425D01*
X549571Y353593D02*
Y349409D01*
X549749Y348671*
X550107Y348425*
X550465*
X549034Y351870D02*
X550286D01*
X552076Y353593D02*
X552255Y353346D01*
X552434Y353593*
X552255Y353839*
X552076Y353593*
X552255Y351870D02*
Y348425D01*
X556192Y351870D02*
Y348425D01*
Y351132D02*
X555834Y351624D01*
X555476Y351870*
X554939*
X554581Y351624*
X554223Y351132*
X554044Y350394*
Y349902*
X554223Y349163*
X554581Y348671*
X554939Y348425*
X555476*
X555834Y348671*
X556192Y349163*
X557802Y353593D02*
Y348425D01*
G54D18*
G54D20*
X385906Y405512D02*
X388898D01*
X398504D02*
X401496D01*
X385906Y401575D02*
X388898D01*
X398504D02*
X401496D01*
X385906Y397638D02*
X388898D01*
X398504D02*
X401496D01*
X385906Y393701D02*
X388898D01*
X398504D02*
X401496D01*
X385906Y389764D02*
X388898D01*
X398504D02*
X401496D01*
X385906Y385827D02*
X388898D01*
X398504D02*
X401496D01*
X385906Y381890D02*
X388898D01*
X398504D02*
X401496D01*
X1543406Y405512D02*
X1546398D01*
X1556004D02*
X1558996D01*
X1543406Y401575D02*
X1546398D01*
X1556004D02*
X1558996D01*
X1543406Y397638D02*
X1546398D01*
X1556004D02*
X1558996D01*
X1543406Y393701D02*
X1546398D01*
X1556004D02*
X1558996D01*
X1543406Y389764D02*
X1546398D01*
X1556004D02*
X1558996D01*
X1543406Y385827D02*
X1546398D01*
X1556004D02*
X1558996D01*
X1543406Y381890D02*
X1546398D01*
X1556004D02*
X1558996D01*
G54D21*
X402447Y382745D02*
G75*
G03X404649Y381890I2202J2406D01*
X402447Y381034I0J-3262*
G01Y382318D02*
G03X404649Y381890I2202J5453D01*
G01X402447*
X404649D02*
G03X402447Y381462I0J-5881D01*
G01X1540253Y381890D02*
G03X1542455Y382745I-0J3261D01*
G01Y381034D02*
G03X1540253Y381890I-2202J-2406D01*
X1542455Y382318I-0J5881*
G01X1540253Y381890D02*
X1542455D01*
Y381462D02*
G03X1540253Y381890I-2202J-5453D01*
G01X400000D02*
X405012D01*
X413823Y390701*
X1530890*
X1539701Y381890*
X1544902*
X402447Y386682D02*
G03X404649Y385827I2202J2406D01*
X402447Y384971I0J-3262*
G01Y386255D02*
G03X404649Y385827I2202J5453D01*
G01X402447*
X404649D02*
G03X402447Y385399I0J-5881D01*
G01X1540253Y385827D02*
G03X1542455Y386682I-0J3261D01*
G01Y384971D02*
G03X1540253Y385827I-2202J-2406D01*
X1542455Y386255I-0J5881*
G01X1540253Y385827D02*
X1542455D01*
Y385399D02*
G03X1540253Y385827I-2202J-5453D01*
G01X400000D02*
X404655D01*
X410529Y391701*
X1533953*
X1539827Y385827*
X1544902*
X402447Y390619D02*
G03X404649Y389764I2202J2406D01*
X402447Y388908I0J-3262*
G01Y390192D02*
G03X404649Y389764I2202J5453D01*
G01X402447*
X404649D02*
G03X402447Y389336I0J-5881D01*
G01X1540253Y389764D02*
G03X1542455Y390619I-0J3261D01*
G01Y388908D02*
G03X1540253Y389764I-2202J-2406D01*
X1542455Y390192I-0J5881*
G01X1540253Y389764D02*
X1542455D01*
Y389336D02*
G03X1540253Y389764I-2202J-5453D01*
G01X400000D02*
X404794D01*
X407731Y392701*
X1536827*
X1539764Y389764*
X1544902*
X389848Y402431D02*
G03X392051Y401575I2203J2405D01*
X389848Y400719I-0J-3262*
G01Y402003D02*
G03X392051Y401575I2203J5453D01*
G01X389848*
X392051D02*
G03X389848Y401147I-0J-5881D01*
G01X1552851Y401575D02*
G03X1555053Y402431I-0J3261D01*
G01Y400719D02*
G03X1552851Y401575I-2202J-2406D01*
X1555053Y402003I-0J5881*
G01X1552851Y401575D02*
X1555053D01*
Y401147D02*
G03X1552851Y401575I-2202J-5453D01*
G01X387402D02*
X392075D01*
X393201Y402701*
Y404701*
X396201Y407701*
X404701*
X414701Y397701*
X1530201*
X1540201Y407701*
X1548701*
X1551701Y404701*
Y402701*
X1552827Y401575*
X1557500*
X402447Y394556D02*
G03X404649Y393701I2202J2406D01*
X402447Y392845I0J-3262*
G01Y394129D02*
G03X404649Y393701I2202J5453D01*
G01X402447*
X404649D02*
G03X402447Y393273I0J-5881D01*
G01X1540253Y393701D02*
G03X1542455Y394556I-0J3261D01*
G01Y392845D02*
G03X1540253Y393701I-2202J-2406D01*
X1542455Y394129I-0J5881*
G01X1540253Y393701D02*
X1542455D01*
Y393273D02*
G03X1540253Y393701I-2202J-5453D01*
G01X400000D02*
X1544902D01*
X402447Y398494D02*
G03X404649Y397638I2202J2405D01*
X402447Y396782I0J-3262*
G01Y398066D02*
G03X404649Y397638I2202J5453D01*
G01X402447*
X404649D02*
G03X402447Y397210I0J-5881D01*
G01X1540253Y397638D02*
G03X1542455Y398494I-0J3261D01*
G01Y396782D02*
G03X1540253Y397638I-2202J-2406D01*
X1542455Y398066I-0J5881*
G01X1540253Y397638D02*
X1542455D01*
Y397210D02*
G03X1540253Y397638I-2202J-5453D01*
G01X400000D02*
X405138D01*
X408075Y394701*
X1536827*
X1539764Y397638*
X1544902*
X402447Y402431D02*
G03X404649Y401575I2202J2405D01*
X402447Y400719I0J-3262*
G01Y402003D02*
G03X404649Y401575I2202J5453D01*
G01X402447*
X404649D02*
G03X402447Y401147I0J-5881D01*
G01X1540253Y401575D02*
G03X1542455Y402431I-0J3261D01*
G01Y400719D02*
G03X1540253Y401575I-2202J-2406D01*
X1542455Y402003I-0J5881*
G01X1540253Y401575D02*
X1542455D01*
Y401147D02*
G03X1540253Y401575I-2202J-5453D01*
G01X400000D02*
X405075D01*
X410949Y395701*
X1533953*
X1539827Y401575*
X1544902*
X389848Y406368D02*
G03X392051Y405512I2203J2405D01*
X389848Y404656I-0J-3262*
G01Y405940D02*
G03X392051Y405512I2203J5453D01*
G01X389848*
X392051D02*
G03X389848Y405084I-0J-5881D01*
G01X1552851Y405512D02*
G03X1555053Y406368I-0J3261D01*
G01Y404656D02*
G03X1552851Y405512I-2202J-2406D01*
X1555053Y405940I-0J5881*
G01X1552851Y405512D02*
X1555053D01*
Y405084D02*
G03X1552851Y405512I-2202J-5453D01*
G01X387402D02*
X392512D01*
X395701Y408701*
X405201*
X415201Y398701*
X1529701*
X1539701Y408701*
X1549201*
X1552390Y405512*
X1557500*
X402447Y406368D02*
G03X404649Y405512I2202J2405D01*
X402447Y404656I0J-3262*
G01Y405940D02*
G03X404649Y405512I2202J5453D01*
G01X402447*
X404649D02*
G03X402447Y405084I0J-5881D01*
G01X1540253Y405512D02*
G03X1542455Y406368I-0J3261D01*
G01Y404656D02*
G03X1540253Y405512I-2202J-2406D01*
X1542455Y405940I-0J5881*
G01X1540253Y405512D02*
X1542455D01*
Y405084D02*
G03X1540253Y405512I-2202J-5453D01*
G01X400000D02*
X405403D01*
X414214Y396701*
X1530701*
X1539512Y405512*
X1544902*
G74*
X0Y0D02*
M02*
