*
*
G04 PADS Layout (Build Number 2008.43.1) generated Gerber (RS-274-X) file*
G04 PC Version=2.1*
*
%IN "bird_cable1.pcb"*%
*
%MOIN*%
*
%FSLAX35Y35*%
*
*
*
*
G04 PC Standard Apertures*
*
*
G04 Thermal Relief Aperture macro.*
%AMTER*
1,1,$1,0,0*
1,0,$1-$2,0,0*
21,0,$3,$4,0,0,45*
21,0,$3,$4,0,0,135*
%
*
*
G04 Annular Aperture macro.*
%AMANN*
1,1,$1,0,0*
1,0,$2,0,0*
%
*
*
G04 Odd Aperture macro.*
%AMODD*
1,1,$1,0,0*
1,0,$1-0.005,0,0*
%
*
*
G04 PC Custom Aperture Macros*
*
*
*
*
*
*
G04 PC Aperture Table*
*
%ADD013C,0.00787*%
%ADD018C,0.001*%
%ADD022C,0.00591*%
*
*
*
*
G04 PC Circuitry*
G04 Layer Name bird_cable1.pcb - circuitry*
%LPD*%
*
*
G04 PC Custom Flashes*
G04 Layer Name bird_cable1.pcb - flashes*
%LPD*%
*
*
G04 PC Circuitry*
G04 Layer Name bird_cable1.pcb - circuitry*
%LPD*%
*
G54D13*
G01X381890Y329970D02*
Y324803D01*
Y329970D02*
X383500D01*
X384037Y329724*
X384216Y329478*
X384395Y328986*
Y328494*
X384216Y328002*
X384037Y327756*
X383500Y327510*
X381890D02*
X383500D01*
X384037Y327264*
X384216Y327018*
X384395Y326526*
Y325787*
X384216Y325295*
X384037Y325049*
X383500Y324803*
X381890*
X386006Y329970D02*
Y324803D01*
X387616Y329970D02*
Y324803D01*
Y329970D02*
X389227D01*
X389764Y329724*
X389943Y329478*
X390122Y328986*
Y328494*
X389943Y328002*
X389764Y327756*
X389227Y327510*
X387616*
X388869D02*
X390122Y324803D01*
X391732Y329970D02*
Y324803D01*
Y329970D02*
X392985D01*
X393522Y329724*
X393880Y329232*
X394059Y328740*
X394238Y328002*
Y326772*
X394059Y326033*
X393880Y325541*
X393522Y325049*
X392985Y324803*
X391732*
X398533Y328740D02*
X398354Y329232D01*
X397996Y329724*
X397638Y329970*
X396922*
X396564Y329724*
X396206Y329232*
X396027Y328740*
X395848Y328002*
Y326772*
X396027Y326033*
X396206Y325541*
X396564Y325049*
X396922Y324803*
X397638*
X397996Y325049*
X398354Y325541*
X398533Y326033*
X401575Y329970D02*
X400143Y324803D01*
X401575Y329970D02*
X403006Y324803D01*
X400680Y326526D02*
X402470D01*
X404617Y329970D02*
Y324803D01*
Y329970D02*
X406228D01*
X406764Y329724*
X406943Y329478*
X407122Y328986*
Y328494*
X406943Y328002*
X406764Y327756*
X406228Y327510*
X404617D02*
X406228D01*
X406764Y327264*
X406943Y327018*
X407122Y326526*
Y325787*
X406943Y325295*
X406764Y325049*
X406228Y324803*
X404617*
X408733Y329970D02*
Y324803D01*
X410880*
X412491Y329970D02*
Y324803D01*
Y329970D02*
X414817D01*
X412491Y327510D02*
X413923D01*
X412491Y324803D02*
X414817D01*
X416428Y328986D02*
X416786Y329232D01*
X417323Y329970*
Y324803*
X418933Y323819D02*
X422691D01*
X423765Y329970D02*
Y324803D01*
Y329970D02*
X425376D01*
X425913Y329724*
X426092Y329478*
X426271Y328986*
Y328494*
X426092Y328002*
X425913Y327756*
X425376Y327510*
X423765D02*
X425376D01*
X425913Y327264*
X426092Y327018*
X426271Y326526*
Y325787*
X426092Y325295*
X425913Y325049*
X425376Y324803*
X423765*
X427881Y329970D02*
Y324803D01*
Y329970D02*
X429134D01*
X429671Y329724*
X430029Y329232*
X430208Y328740*
X430387Y328002*
Y326772*
X430208Y326033*
X430029Y325541*
X429671Y325049*
X429134Y324803*
X427881*
X432176Y325295D02*
X431997Y325049D01*
X432176Y324803*
X432355Y325049*
X432176Y325295*
X433966Y329970D02*
Y324803D01*
Y329970D02*
X435576D01*
X436113Y329724*
X436292Y329478*
X436471Y328986*
Y328248*
X436292Y327756*
X436113Y327510*
X435576Y327264*
X433966*
X438082Y329970D02*
Y324803D01*
X440587Y329970D02*
Y324803D01*
X438082Y327510D02*
X440587D01*
X443271Y329970D02*
X442913Y329724D01*
X442555Y329232*
X442377Y328740*
X442198Y328002*
Y326772*
X442377Y326033*
X442555Y325541*
X442913Y325049*
X443271Y324803*
X443987*
X444345Y325049*
X444703Y325541*
X444882Y326033*
X445061Y326772*
Y328002*
X444882Y328740*
X444703Y329232*
X444345Y329724*
X443987Y329970*
X443271*
X450787Y327018D02*
X454009D01*
X459735Y329970D02*
Y324803D01*
Y329970D02*
X461346D01*
X461883Y329724*
X462062Y329478*
X462241Y328986*
Y328494*
X462062Y328002*
X461883Y327756*
X461346Y327510*
X459735D02*
X461346D01*
X461883Y327264*
X462062Y327018*
X462241Y326526*
Y325787*
X462062Y325295*
X461883Y325049*
X461346Y324803*
X459735*
X464925Y329970D02*
X464567Y329724D01*
X464209Y329232*
X464030Y328740*
X463851Y328002*
Y326772*
X464030Y326033*
X464209Y325541*
X464567Y325049*
X464925Y324803*
X465641*
X465999Y325049*
X466356Y325541*
X466535Y326033*
X466714Y326772*
Y328002*
X466535Y328740*
X466356Y329232*
X465999Y329724*
X465641Y329970*
X464925*
X469757D02*
X468325Y324803D01*
X469757Y329970D02*
X471188Y324803D01*
X468862Y326526D02*
X470651D01*
X472799Y329970D02*
Y324803D01*
Y329970D02*
X474409D01*
X474946Y329724*
X475125Y329478*
X475304Y328986*
Y328494*
X475125Y328002*
X474946Y327756*
X474409Y327510*
X472799*
X474052D02*
X475304Y324803D01*
X476915Y329970D02*
Y324803D01*
Y329970D02*
X478168D01*
X478168D02*
X478704Y329724D01*
X479062Y329232*
X479241Y328740*
X479420Y328002*
Y326772*
X479241Y326033*
X479062Y325541*
X478704Y325049*
X478168Y324803*
X478168D02*
X476915D01*
X486220Y329970D02*
X485863Y329724D01*
X485505Y329232*
X485326Y328740*
X485147Y328002*
Y326772*
X485326Y326033*
X485505Y325541*
X485863Y325049*
X486220Y324803*
X486936*
X487294Y325049*
X487652Y325541*
X487831Y326033*
X488010Y326772*
Y328002*
X487831Y328740*
X487652Y329232*
X487294Y329724*
X486936Y329970*
X486220*
X489621D02*
Y326280D01*
X489800Y325541*
X490157Y325049*
X490694Y324803*
X491052*
X491589Y325049*
X491947Y325541*
X492126Y326280*
Y329970*
X494989D02*
Y324803D01*
X493737Y329970D02*
X496242D01*
X497853D02*
Y324803D01*
X500000*
X501611Y329970D02*
Y324803D01*
X503221Y329970D02*
Y324803D01*
Y329970D02*
X505727Y324803D01*
Y329970D02*
Y324803D01*
X507337Y329970D02*
Y324803D01*
Y329970D02*
X509664D01*
X507337Y327510D02*
X508769D01*
X507337Y324803D02*
X509664D01*
G54D18*
G54D22*
X381890Y411417D02*
Y375984D01*
X417323*
X433066Y388779D02*
G75*
G03X417323Y375985I1437J-17850D01*
G01X433071Y388780D02*
X1511811D01*
X1527559Y375985D02*
G03X1511816Y388779I-17180J-5056D01*
G01X1527559Y375984D02*
X1562992D01*
Y411417*
X1527559*
X1511789Y400591D02*
G03X1527555Y411407I562J16081D01*
G01X1511811Y400591D02*
X433071D01*
X417316Y411434D02*
G03X433064Y400591I15808J6100D01*
G01X417323Y411417D02*
X381890D01*
G74*
X0Y0D02*
M02*
