*
*
G04 PADS Layout (Build Number 2008.43.1) generated Gerber (RS-274-X) file*
G04 PC Version=2.1*
*
%IN "bird_cable1.pcb"*%
*
%MOIN*%
*
%FSLAX35Y35*%
*
*
*
*
G04 PC Standard Apertures*
*
*
G04 Thermal Relief Aperture macro.*
%AMTER*
1,1,$1,0,0*
1,0,$1-$2,0,0*
21,0,$3,$4,0,0,45*
21,0,$3,$4,0,0,135*
%
*
*
G04 Annular Aperture macro.*
%AMANN*
1,1,$1,0,0*
1,0,$2,0,0*
%
*
*
G04 Odd Aperture macro.*
%AMODD*
1,1,$1,0,0*
1,0,$1-0.005,0,0*
%
*
*
G04 PC Custom Aperture Macros*
*
*
*
*
*
*
G04 PC Aperture Table*
*
%ADD013C,0.00787*%
%ADD018C,0.001*%
%ADD019R,0.02902X0.02902*%
*
*
*
*
G04 PC Circuitry*
G04 Layer Name bird_cable1.pcb - circuitry*
%LPD*%
*
*
G04 PC Custom Flashes*
G04 Layer Name bird_cable1.pcb - flashes*
%LPD*%
*
*
G04 PC Circuitry*
G04 Layer Name bird_cable1.pcb - circuitry*
%LPD*%
*
G54D13*
G01X381890Y361467D02*
Y356299D01*
Y361467D02*
X383500D01*
X384037Y361220*
X384216Y360974*
X384395Y360482*
Y359990*
X384216Y359498*
X384037Y359252*
X383500Y359006*
X381890D02*
X383500D01*
X384037Y358760*
X384216Y358514*
X384395Y358022*
Y357283*
X384216Y356791*
X384037Y356545*
X383500Y356299*
X381890*
X386006Y361467D02*
Y356299D01*
X387616Y361467D02*
Y356299D01*
Y361467D02*
X389227D01*
X389764Y361220*
X389943Y360974*
X390122Y360482*
Y359990*
X389943Y359498*
X389764Y359252*
X389227Y359006*
X387616*
X388869D02*
X390122Y356299D01*
X391732Y361467D02*
Y356299D01*
Y361467D02*
X392985D01*
X393522Y361220*
X393880Y360728*
X394059Y360236*
X394238Y359498*
Y358268*
X394059Y357530*
X393880Y357037*
X393522Y356545*
X392985Y356299*
X391732*
X398533Y360236D02*
X398354Y360728D01*
X397996Y361220*
X397638Y361467*
X396922*
X396564Y361220*
X396206Y360728*
X396027Y360236*
X395848Y359498*
Y358268*
X396027Y357530*
X396206Y357037*
X396564Y356545*
X396922Y356299*
X397638*
X397996Y356545*
X398354Y357037*
X398533Y357530*
X401575Y361467D02*
X400143Y356299D01*
X401575Y361467D02*
X403006Y356299D01*
X400680Y358022D02*
X402470D01*
X404617Y361467D02*
Y356299D01*
Y361467D02*
X406228D01*
X406764Y361220*
X406943Y360974*
X407122Y360482*
Y359990*
X406943Y359498*
X406764Y359252*
X406228Y359006*
X404617D02*
X406228D01*
X406764Y358760*
X406943Y358514*
X407122Y358022*
Y357283*
X406943Y356791*
X406764Y356545*
X406228Y356299*
X404617*
X408733Y361467D02*
Y356299D01*
X410880*
X412491Y361467D02*
Y356299D01*
Y361467D02*
X414817D01*
X412491Y359006D02*
X413923D01*
X412491Y356299D02*
X414817D01*
X416428Y360482D02*
X416786Y360728D01*
X417323Y361467*
Y356299*
X418933Y355315D02*
X422691D01*
X423765Y361467D02*
Y356299D01*
X425913*
X427523Y360482D02*
X427881Y360728D01*
X428418Y361467*
Y356299*
X430208Y356791D02*
X430029Y356545D01*
X430208Y356299*
X430387Y356545*
X430208Y356791*
X431997Y361467D02*
Y356299D01*
Y361467D02*
X433608D01*
X434145Y361220*
X434324Y360974*
X434503Y360482*
Y359744*
X434324Y359252*
X434145Y359006*
X433608Y358760*
X431997*
X436113Y361467D02*
Y356299D01*
X438618Y361467D02*
Y356299D01*
X436113Y359006D02*
X438618D01*
X441303Y361467D02*
X440945Y361220D01*
X440587Y360728*
X440408Y360236*
X440229Y359498*
Y358268*
X440408Y357530*
X440587Y357037*
X440945Y356545*
X441303Y356299*
X442019*
X442377Y356545*
X442734Y357037*
X442913Y357530*
X443092Y358268*
Y359498*
X442913Y360236*
X442734Y360728*
X442377Y361220*
X442019Y361467*
X441303*
X448819Y358514D02*
X452040D01*
X457767Y361467D02*
Y356299D01*
X459914*
X462956Y361467D02*
X461525Y356299D01*
X462956Y361467D02*
X464388Y356299D01*
X462062Y358022D02*
X463851D01*
X465999Y361467D02*
X467430Y359006D01*
Y356299*
X468862Y361467D02*
X467430Y359006D01*
X470472Y361467D02*
Y356299D01*
Y361467D02*
X472799D01*
X470472Y359006D02*
X471904D01*
X470472Y356299D02*
X472799D01*
X474409Y361467D02*
Y356299D01*
Y361467D02*
X476020D01*
X476557Y361220*
X476736Y360974*
X476915Y360482*
Y359990*
X476736Y359498*
X476557Y359252*
X476020Y359006*
X474409*
X475662D02*
X476915Y356299D01*
X482641Y360482D02*
X482999Y360728D01*
X483536Y361467*
Y356299*
X490515Y362451D02*
X490157Y361959D01*
X489800Y361220*
X489442Y360236*
X489263Y359006*
Y358022*
X489442Y356791*
X489800Y355807*
X490157Y355069*
X490515Y354577*
X492126Y361467D02*
Y356299D01*
Y361467D02*
X493737D01*
X494273Y361220*
X494452Y360974*
X494631Y360482*
Y359744*
X494452Y359252*
X494273Y359006*
X493737Y358760*
X492126*
X497316Y361467D02*
X496958Y361220D01*
X496600Y360728*
X496421Y360236*
X496242Y359498*
Y358268*
X496421Y357530*
X496600Y357037*
X496958Y356545*
X497316Y356299*
X498031*
X498389Y356545*
X498747Y357037*
X498926Y357530*
X499105Y358268*
Y359498*
X498926Y360236*
X498747Y360728*
X498389Y361220*
X498031Y361467*
X497316*
X500716D02*
Y356299D01*
X502863*
X504474Y361467D02*
X505906Y359006D01*
Y356299*
X507337Y361467D02*
X505906Y359006D01*
X508948Y361467D02*
Y356299D01*
Y361467D02*
X510379Y356299D01*
X511811Y361467D02*
X510379Y356299D01*
X511811Y361467D02*
Y356299D01*
X513422Y361467D02*
Y356299D01*
X515032Y361467D02*
Y356299D01*
Y361467D02*
X516285D01*
X516822Y361220*
X517180Y360728*
X517359Y360236*
X517538Y359498*
Y358268*
X517359Y357530*
X517180Y357037*
X516822Y356545*
X516285Y356299*
X515032*
X519148Y361467D02*
Y356299D01*
Y361467D02*
X521475D01*
X519148Y359006D02*
X520580D01*
X519148Y356299D02*
X521475D01*
X528454Y361467D02*
Y356299D01*
X527201Y361467D02*
X529707D01*
X532391D02*
X532033Y361220D01*
X531675Y360728*
X531496Y360236*
X531317Y359498*
Y358268*
X531496Y357530*
X531675Y357037*
X532033Y356545*
X532391Y356299*
X533107*
X533465Y356545*
X533822Y357037*
X534001Y357530*
X534180Y358268*
Y359498*
X534001Y360236*
X533822Y360728*
X533465Y361220*
X533107Y361467*
X532391*
X535791D02*
Y356299D01*
Y361467D02*
X537402D01*
X537938Y361220*
X538117Y360974*
X538296Y360482*
Y359744*
X538117Y359252*
X537938Y359006*
X537402Y358760*
X535791*
X546707Y360236D02*
X546528Y360728D01*
X546170Y361220*
X545812Y361467*
X545097*
X544739Y361220*
X544381Y360728*
X544202Y360236*
X544023Y359498*
Y358268*
X544202Y357530*
X544381Y357037*
X544739Y356545*
X545097Y356299*
X545812*
X546170Y356545*
X546528Y357037*
X546707Y357530*
X549392Y361467D02*
X549034Y361220D01*
X548676Y360728*
X548497Y360236*
X548318Y359498*
Y358268*
X548497Y357530*
X548676Y357037*
X549034Y356545*
X549392Y356299*
X550107*
X550465Y356545*
X550823Y357037*
X551002Y357530*
X551181Y358268*
Y359498*
X551002Y360236*
X550823Y360728*
X550465Y361220*
X550107Y361467*
X549392*
X552792D02*
X554223Y356299D01*
X555655Y361467D02*
X554223Y356299D01*
X557266Y361467D02*
Y356299D01*
Y361467D02*
X559592D01*
X557266Y359006D02*
X558697D01*
X557266Y356299D02*
X559592D01*
X561203Y361467D02*
Y356299D01*
Y361467D02*
X562813D01*
X563350Y361220*
X563529Y360974*
X563708Y360482*
Y359990*
X563529Y359498*
X563350Y359252*
X562813Y359006*
X561203*
X562455D02*
X563708Y356299D01*
X569435Y358514D02*
X572656D01*
X578382Y361467D02*
X578561Y361220D01*
X578740Y361467*
X578561Y361713*
X578382Y361467*
X578561Y359744D02*
Y356299D01*
X580530Y356791D02*
X580351Y356545D01*
X580530Y356299*
X580709Y356545*
X580530Y356791*
X582319Y358268D02*
X584467D01*
Y358760*
X584288Y359252*
X584109Y359498*
X583751Y359744*
X583214*
X582856Y359498*
X582498Y359006*
X582319Y358268*
Y357776*
X582498Y357037*
X582856Y356545*
X583214Y356299*
X583751*
X584109Y356545*
X584467Y357037*
X586256Y356791D02*
X586077Y356545D01*
X586256Y356299*
X586435Y356545*
X586256Y356791*
X594667Y360728D02*
X594309Y361220D01*
X593772Y361467*
X593057*
X592520Y361220*
X592162Y360728*
Y360236*
X592341Y359744*
X592520Y359498*
X592878Y359252*
X593951Y358760*
X594309Y358514*
X594488Y358268*
X594667Y357776*
Y357037*
X594309Y356545*
X593772Y356299*
X593057*
X592520Y356545*
X592162Y357037*
X597351Y361467D02*
X596994Y361220D01*
X596636Y360728*
X596457Y360236*
X596278Y359498*
Y358268*
X596457Y357530*
X596636Y357037*
X596994Y356545*
X597351Y356299*
X598067*
X598425Y356545*
X598783Y357037*
X598962Y357530*
X599141Y358268*
Y359498*
X598962Y360236*
X598783Y360728*
X598425Y361220*
X598067Y361467*
X597351*
X600752D02*
Y356299D01*
X602899*
X604510Y361467D02*
Y356299D01*
Y361467D02*
X605762D01*
X606299Y361220*
X606657Y360728*
X606836Y360236*
X607015Y359498*
Y358268*
X606836Y357530*
X606657Y357037*
X606299Y356545*
X605762Y356299*
X604510*
X608626Y361467D02*
Y356299D01*
Y361467D02*
X610952D01*
X608626Y359006D02*
X610057D01*
X608626Y356299D02*
X610952D01*
X612563Y361467D02*
Y356299D01*
Y361467D02*
X614173D01*
X614710Y361220*
X614889Y360974*
X615068Y360482*
Y359990*
X614889Y359498*
X614710Y359252*
X614173Y359006*
X612563*
X613815D02*
X615068Y356299D01*
X616679Y361467D02*
Y356299D01*
Y361467D02*
X618110Y356299D01*
X619542Y361467D02*
X618110Y356299D01*
X619542Y361467D02*
Y356299D01*
X622584Y361467D02*
X621152Y356299D01*
X622584Y361467D02*
X624016Y356299D01*
X621689Y358022D02*
X623479D01*
X628132Y360728D02*
X627774Y361220D01*
X627237Y361467*
X626521*
X625984Y361220*
X625626Y360728*
Y360236*
X625805Y359744*
X625984Y359498*
X626342Y359252*
X627416Y358760*
X627774Y358514*
X627953Y358268*
X628132Y357776*
Y357037*
X627774Y356545*
X627237Y356299*
X626521*
X625984Y356545*
X625626Y357037*
X629742Y361467D02*
Y356299D01*
X632248Y361467D02*
X629742Y358022D01*
X630637Y359252D02*
X632248Y356299D01*
X633858Y362451D02*
X634216Y361959D01*
X634574Y361220*
X634932Y360236*
X635111Y359006*
Y358022*
X634932Y356791*
X634574Y355807*
X634216Y355069*
X633858Y354577*
X642090Y361467D02*
Y356299D01*
X640838Y361467D02*
X643343D01*
X644953D02*
Y356299D01*
X647459Y361467D02*
Y356299D01*
X644953Y359006D02*
X647459D01*
X649069Y361467D02*
Y356299D01*
X653364Y360236D02*
X653185Y360728D01*
X652827Y361220*
X652470Y361467*
X651754*
X651396Y361220*
X651038Y360728*
X650859Y360236*
X650680Y359498*
Y358268*
X650859Y357530*
X651038Y357037*
X651396Y356545*
X651754Y356299*
X652470*
X652827Y356545*
X653185Y357037*
X653364Y357530*
X654975Y361467D02*
Y356299D01*
X657480Y361467D02*
X654975Y358022D01*
X655870Y359252D02*
X657480Y356299D01*
X659091Y361467D02*
Y356299D01*
Y361467D02*
X661596Y356299D01*
Y361467D02*
Y356299D01*
X663207Y361467D02*
Y356299D01*
Y361467D02*
X665533D01*
X663207Y359006D02*
X664639D01*
X663207Y356299D02*
X665533D01*
X669649Y360728D02*
X669291Y361220D01*
X668754Y361467*
X668039*
X667502Y361220*
X667144Y360728*
Y360236*
X667323Y359744*
X667502Y359498*
X667860Y359252*
X668933Y358760*
X669291Y358514*
X669470Y358268*
X669649Y357776*
Y357037*
X669291Y356545*
X668754Y356299*
X668039*
X667502Y356545*
X667144Y357037*
X673765Y360728D02*
X673407Y361220D01*
X672870Y361467*
X672155*
X671618Y361220*
X671260Y360728*
Y360236*
X671439Y359744*
X671618Y359498*
X671976Y359252*
X673049Y358760*
X673407Y358514*
X673586Y358268*
X673765Y357776*
Y357037*
X673407Y356545*
X672870Y356299*
X672155*
X671618Y356545*
X671260Y357037*
X675555Y359744D02*
X675376Y359498D01*
X675555Y359252*
X675734Y359498*
X675555Y359744*
Y356791D02*
X675376Y356545D01*
X675555Y356299*
X675734Y356545*
X675555Y356791*
X681460Y360482D02*
X681818Y360728D01*
X682355Y361467*
Y356299*
X688082Y359744D02*
Y356299D01*
Y358760D02*
X688618Y359498D01*
X688976Y359744*
X689513*
X689871Y359498*
X690050Y358760*
Y356299*
Y358760D02*
X690587Y359498D01*
X690945Y359744*
X691482*
X691840Y359498*
X692019Y358760*
Y356299*
X693629Y361467D02*
X693808Y361220D01*
X693987Y361467*
X693808Y361713*
X693629Y361467*
X693808Y359744D02*
Y356299D01*
X695598Y361467D02*
Y356299D01*
G54D18*
G54D19*
X385906Y405512D02*
X388898D01*
X398504D02*
X401496D01*
X385906Y401575D02*
X388898D01*
X398504D02*
X401496D01*
X385906Y397638D02*
X388898D01*
X398504D02*
X401496D01*
X385906Y393701D02*
X388898D01*
X398504D02*
X401496D01*
X385906Y389764D02*
X388898D01*
X398504D02*
X401496D01*
X385906Y385827D02*
X388898D01*
X398504D02*
X401496D01*
X385906Y381890D02*
X388898D01*
X398504D02*
X401496D01*
X1543406Y405512D02*
X1546398D01*
X1556004D02*
X1558996D01*
X1543406Y401575D02*
X1546398D01*
X1556004D02*
X1558996D01*
X1543406Y397638D02*
X1546398D01*
X1556004D02*
X1558996D01*
X1543406Y393701D02*
X1546398D01*
X1556004D02*
X1558996D01*
X1543406Y389764D02*
X1546398D01*
X1556004D02*
X1558996D01*
X1543406Y385827D02*
X1546398D01*
X1556004D02*
X1558996D01*
X1543406Y381890D02*
X1546398D01*
X1556004D02*
X1558996D01*
X0Y0D02*
M02*
